<svg width="300" height="222" viewBox="0 0 300 222" fill="none" xmlns="http://www.w3.org/2000/svg">
<path d="M269.94 206.094H250.068V206.244H269.94V206.094Z" fill="#EBEBEB"/>
<path d="M198.732 207.726H193.518V207.876H198.732V207.726Z" fill="#EBEBEB"/>
<path d="M249.468 200.526H237.954V200.676H249.468V200.526Z" fill="#EBEBEB"/>
<path d="M57.3896 201.534H31.4756V201.684H57.3896V201.534Z" fill="#EBEBEB"/>
<path d="M66.5343 201.534H62.7363V201.684H66.5343V201.534Z" fill="#EBEBEB"/>
<path d="M135.09 204.066H78.8818V204.216H135.09V204.066Z" fill="#EBEBEB"/>
<path d="M142.2 169.68H26.3518C25.4431 169.68 24.5717 169.319 23.9292 168.677C23.2867 168.034 22.9258 167.163 22.9258 166.254V3.396C22.9337 2.49258 23.2981 1.62885 23.9398 0.992823C24.5814 0.356797 25.4483 -3.46356e-05 26.3518 2.52153e-09H142.2C143.108 2.52154e-09 143.98 0.360953 144.622 1.00345C145.265 1.64595 145.626 2.51737 145.626 3.426V166.254C145.626 167.163 145.265 168.034 144.622 168.677C143.98 169.319 143.108 169.68 142.2 169.68ZM26.3518 0.12C25.4834 0.121587 24.6511 0.467244 24.0371 1.08127C23.423 1.6953 23.0774 2.52764 23.0758 3.396V166.254C23.0774 167.122 23.423 167.955 24.0371 168.569C24.6511 169.183 25.4834 169.528 26.3518 169.53H142.2C143.068 169.528 143.9 169.183 144.515 168.569C145.129 167.955 145.474 167.122 145.476 166.254V3.396C145.474 2.52764 145.129 1.6953 144.515 1.08127C143.9 0.467244 143.068 0.121587 142.2 0.12H26.3518Z" fill="#EBEBEB"/>
<path d="M271.986 169.68H156.126C155.218 169.678 154.348 169.317 153.705 168.675C153.063 168.033 152.702 167.162 152.7 166.254V3.396C152.71 2.49307 153.075 1.63025 153.716 0.994556C154.357 0.358865 155.223 0.00152897 156.126 0H271.986C272.888 0.0031227 273.751 0.361349 274.39 0.997037C275.03 1.63272 275.392 2.49465 275.4 3.396V166.254C275.4 167.161 275.041 168.03 274.401 168.672C273.761 169.314 272.893 169.677 271.986 169.68ZM156.126 0.12C155.258 0.121587 154.425 0.467244 153.811 1.08127C153.197 1.6953 152.852 2.52764 152.85 3.396V166.254C152.852 167.122 153.197 167.955 153.811 168.569C154.425 169.183 155.258 169.528 156.126 169.53H271.986C272.855 169.528 273.687 169.183 274.301 168.569C274.915 167.955 275.261 167.122 275.262 166.254V3.396C275.261 2.52764 274.915 1.6953 274.301 1.08127C273.687 0.467244 272.855 0.121587 271.986 0.12H156.126Z" fill="#EBEBEB"/>
<path d="M300 196.44H0V196.59H300V196.44Z" fill="#EBEBEB"/>
<path d="M90.4796 95.9519L54.8996 104.4C54.7534 104.435 54.6018 104.44 54.4535 104.416C54.3052 104.392 54.1631 104.339 54.0354 104.26C53.9077 104.18 53.797 104.077 53.7095 103.955C53.622 103.833 53.5595 103.694 53.5256 103.548L42.2276 55.9799C42.1572 55.6848 42.2067 55.3737 42.3653 55.115C42.5239 54.8563 42.7786 54.6711 43.0736 54.5999L64.9916 49.3979L83.3036 60.7979L91.3316 94.5899C91.3981 94.8835 91.3459 95.1914 91.1863 95.4465C91.0266 95.7017 90.7726 95.8834 90.4796 95.9519Z" fill="#F0F0F0"/>
<path d="M83.3041 60.7859L64.9921 49.3979L63.8281 49.6739L68.1421 67.8359L84.0781 64.0499L83.3041 60.7859Z" fill="#E6E6E6"/>
<path d="M83.2742 60.66L68.5022 64.1699L64.9922 49.3979L83.2742 60.66Z" fill="#FAFAFA"/>
<path d="M78.4928 66.3284L52.1768 72.5784L56.1377 89.2565L82.4537 83.0065L78.4928 66.3284Z" fill="#E6E6E6"/>
<path d="M62.1541 81.7739L57.7861 88.8659L69.2461 86.1419L62.1541 81.7739Z" fill="#FAFAFA"/>
<path d="M66.666 86.754L82.452 83.004L82.092 81.486L73.266 76.05L66.666 86.754Z" fill="#FAFAFA"/>
<path d="M66.9243 75.3361C67.0575 75.8929 67.0226 76.4767 66.8238 77.0136C66.625 77.5504 66.2714 78.0163 65.8076 78.352C65.3439 78.6877 64.791 78.8782 64.2189 78.8994C63.6468 78.9207 63.0812 78.7716 62.5939 78.4711C62.1066 78.1706 61.7194 77.7323 61.4814 77.2116C61.2434 76.6909 61.1654 76.1113 61.2571 75.5462C61.3488 74.9811 61.6061 74.4559 61.9966 74.0372C62.387 73.6185 62.8929 73.325 63.4503 73.1941C64.195 73.0175 64.9794 73.1439 65.6309 73.5456C66.2823 73.9473 66.7476 74.5914 66.9243 75.3361Z" fill="#FAFAFA"/>
<path d="M243.666 56.1959L217.71 44.1059C217.602 44.0563 217.505 43.9857 217.425 43.8983C217.345 43.8108 217.283 43.7082 217.242 43.5965C217.202 43.4848 217.185 43.3662 217.191 43.2476C217.197 43.1291 217.226 43.0129 217.278 42.9059L233.442 8.19594C233.492 8.08862 233.563 7.99227 233.651 7.91243C233.738 7.83259 233.841 7.77083 233.952 7.73069C234.064 7.69055 234.182 7.67283 234.3 7.67853C234.419 7.68424 234.535 7.71326 234.642 7.76394L250.62 15.2219L256.338 31.1099L244.854 55.7639C244.754 55.9787 244.572 56.1449 244.349 56.2259C244.127 56.3069 243.881 56.2962 243.666 56.1959Z" fill="#EBEBEB"/>
<path d="M256.338 31.11L250.62 15.222L249.774 14.832L243.6 28.08L255.228 33.492L256.338 31.11Z" fill="#E0E0E0"/>
<path d="M256.38 31.0199L245.598 26.0039L250.62 15.2219L256.38 31.0199Z" fill="#F5F5F5"/>
<path d="M244.842 46.3561L225.642 37.4101C224.346 36.8101 223.212 38.7301 224.514 39.3361L243.714 48.2761C245.01 48.8761 246.144 46.9621 244.842 46.3561Z" fill="#FAFAFA"/>
<path d="M230.19 27.168L249.39 36.114C250.68 36.714 251.79 34.794 250.512 34.188L231.312 25.248C230.022 24.648 228.912 26.562 230.19 27.168Z" fill="#FAFAFA"/>
<path d="M227.22 33.4139L246.42 42.3599C247.71 42.9599 248.82 41.0399 247.542 40.4339L228.342 31.4939C227.052 30.8939 225.942 32.8079 227.22 33.4139Z" fill="#FAFAFA"/>
<path d="M181.8 164.616L181.2 162.654C181.102 162.334 180.921 162.046 180.674 161.82C180.427 161.595 180.124 161.439 179.796 161.37L165.324 158.28C165.084 158.229 164.837 158.226 164.596 158.271C164.354 158.315 164.124 158.407 163.919 158.541C163.713 158.675 163.536 158.848 163.397 159.05C163.258 159.252 163.161 159.48 163.11 159.72L157.2 187.386C157.095 187.89 157.193 188.414 157.473 188.846C157.753 189.277 158.192 189.581 158.694 189.69L191.586 196.704C192.09 196.811 192.615 196.714 193.047 196.433C193.479 196.153 193.782 195.713 193.89 195.21L199.038 171.066C199.09 170.826 199.094 170.577 199.05 170.336C199.005 170.094 198.914 169.863 198.78 169.657C198.646 169.45 198.473 169.273 198.27 169.133C198.067 168.994 197.839 168.897 197.598 168.846L183 165.732C182.72 165.668 182.461 165.532 182.25 165.336C182.039 165.14 181.884 164.891 181.8 164.616Z" fill="#E0E0E0"/>
<path d="M197.61 168.846L183.138 165.762C182.812 165.692 182.473 165.711 182.156 165.816C181.84 165.922 181.557 166.11 181.338 166.362L180 167.916C179.81 168.134 179.565 168.297 179.291 168.389C179.017 168.48 178.723 168.497 178.44 168.438L163.836 165.324C163.352 165.221 162.846 165.313 162.43 165.582C162.014 165.851 161.721 166.274 161.616 166.758L157.2 187.386C157.095 187.889 157.193 188.414 157.473 188.845C157.753 189.277 158.192 189.58 158.694 189.69L191.586 196.704C192.09 196.811 192.615 196.713 193.047 196.433C193.479 196.153 193.782 195.713 193.89 195.21L199.038 171.066C199.09 170.826 199.095 170.579 199.051 170.338C199.008 170.096 198.917 169.866 198.784 169.66C198.652 169.454 198.48 169.276 198.278 169.136C198.077 168.996 197.85 168.898 197.61 168.846Z" fill="#F0F0F0"/>
<path d="M147.108 221.226C211.358 221.226 263.442 218.185 263.442 214.434C263.442 210.683 211.358 207.642 147.108 207.642C82.8589 207.642 30.7744 210.683 30.7744 214.434C30.7744 218.185 82.8589 221.226 147.108 221.226Z" fill="#F5F5F5"/>
<path d="M218.706 35.0759H78.4016C74.4616 35.0759 71.2676 38.2699 71.2676 42.2099V148.884C71.2676 152.824 74.4616 156.018 78.4016 156.018H218.706C222.646 156.018 225.84 152.824 225.84 148.884V42.2099C225.84 38.2699 222.646 35.0759 218.706 35.0759Z" fill="#8D1B3D"/>
<path opacity="0.4" d="M218.706 35.0759H78.4016C74.4616 35.0759 71.2676 38.2699 71.2676 42.2099V148.884C71.2676 152.824 74.4616 156.018 78.4016 156.018H218.706C222.646 156.018 225.84 152.824 225.84 148.884V42.2099C225.84 38.2699 222.646 35.0759 218.706 35.0759Z" fill="white"/>
<path opacity="0.8" d="M218.706 43.2659H78.402C75.7875 43.2659 73.668 45.3854 73.668 47.9999V148.884C73.668 151.498 75.7875 153.618 78.402 153.618H218.706C221.32 153.618 223.44 151.498 223.44 148.884V47.9999C223.44 45.3854 221.32 43.2659 218.706 43.2659Z" fill="white"/>
<path opacity="0.3" d="M82.2896 37.002H80.6096C79.9833 37.002 79.4756 37.5097 79.4756 38.136V39.816C79.4756 40.4422 79.9833 40.95 80.6096 40.95H82.2896C82.9159 40.95 83.4236 40.4422 83.4236 39.816V38.136C83.4236 37.5097 82.9159 37.002 82.2896 37.002Z" fill="white"/>
<path opacity="0.5" d="M88.6919 37.002H87.0119C86.3856 37.002 85.8779 37.5097 85.8779 38.136V39.816C85.8779 40.4422 86.3856 40.95 87.0119 40.95H88.6919C89.3182 40.95 89.8259 40.4422 89.8259 39.816V38.136C89.8259 37.5097 89.3182 37.002 88.6919 37.002Z" fill="white"/>
<path opacity="0.7" d="M95.0992 37.002H93.4192C92.7929 37.002 92.2852 37.5097 92.2852 38.136V39.816C92.2852 40.4422 92.7929 40.95 93.4192 40.95H95.0992C95.7254 40.95 96.2332 40.4422 96.2332 39.816V38.136C96.2332 37.5097 95.7254 37.002 95.0992 37.002Z" fill="white"/>
<path d="M141.323 40.8839V38.3999L140.081 40.4759H139.769L138.527 38.4359V40.9079H137.855V37.1279H138.455L139.955 39.6299L141.431 37.1279H142.031V40.9079L141.323 40.8839Z" fill="white"/>
<path d="M145.643 37.998L144.293 41.112C144.207 41.3724 144.049 41.6032 143.837 41.778C143.644 41.9083 143.416 41.9754 143.183 41.97C143.038 41.97 142.894 41.9457 142.757 41.898C142.63 41.8576 142.511 41.7924 142.409 41.706L142.679 41.208C142.746 41.2696 142.823 41.3185 142.907 41.352C142.993 41.3872 143.085 41.4056 143.177 41.406C143.283 41.4105 143.386 41.3787 143.471 41.316C143.563 41.2284 143.634 41.1219 143.681 41.004L143.729 40.896L142.475 37.998H143.177L144.083 40.134L144.995 37.998H145.643Z" fill="white"/>
<path d="M148.32 37.6919V38.8439H150.15V39.4439H148.32V40.8899H147.6V37.1099H150.36V37.7099L148.32 37.6919Z" fill="white"/>
<path d="M150.972 37.4099C150.932 37.3726 150.9 37.3269 150.88 37.2762C150.859 37.2254 150.849 37.1707 150.852 37.1159C150.85 37.0621 150.86 37.0085 150.88 36.9588C150.901 36.909 150.932 36.8644 150.972 36.8279C151.057 36.7505 151.169 36.7095 151.284 36.7139C151.396 36.7112 151.505 36.7496 151.59 36.822C151.63 36.8569 151.662 36.9003 151.684 36.949C151.706 36.9977 151.717 37.0506 151.716 37.1039C151.717 37.16 151.706 37.2156 151.685 37.2673C151.663 37.3189 151.631 37.3655 151.59 37.4039C151.55 37.4438 151.502 37.475 151.449 37.4956C151.397 37.5163 151.34 37.5259 151.284 37.5239C151.169 37.5259 151.058 37.4853 150.972 37.4099ZM150.942 38.0099H151.614V40.896H150.942V38.0099Z" fill="white"/>
<path d="M152.502 36.876H153.174V40.884H152.502V36.876Z" fill="white"/>
<path d="M156.761 39.6539H154.499C154.533 39.858 154.645 40.0408 154.811 40.164C155.026 40.3047 155.281 40.3684 155.537 40.3444C155.792 40.3204 156.031 40.2102 156.215 40.032L156.581 40.4519C156.45 40.6079 156.28 40.7277 156.089 40.8C155.875 40.8816 155.647 40.9223 155.417 40.9199C155.127 40.9268 154.838 40.8629 154.577 40.734C154.346 40.6138 154.152 40.4308 154.019 40.206C153.886 39.9725 153.817 39.7071 153.821 39.438C153.819 39.1736 153.885 38.913 154.013 38.682C154.139 38.4596 154.324 38.2767 154.547 38.1539C154.783 38.0266 155.048 37.9625 155.315 37.968C155.578 37.9617 155.837 38.0259 156.065 38.1539C156.285 38.275 156.466 38.456 156.587 38.676C156.716 38.9156 156.78 39.1843 156.773 39.456C156.773 39.504 156.767 39.5999 156.761 39.6539ZM154.799 38.7C154.648 38.8301 154.549 39.0117 154.523 39.2099H156.161C156.142 39.0105 156.046 38.8263 155.894 38.6956C155.742 38.5649 155.546 38.4977 155.345 38.508C155.146 38.4996 154.95 38.5683 154.799 38.7Z" fill="white"/>
<path d="M157.626 40.8298C157.435 40.7844 157.254 40.7051 157.092 40.5958L157.35 40.0858C157.654 40.2686 158.003 40.366 158.358 40.3678C158.76 40.3678 158.958 40.2658 158.958 40.0498C158.96 40.0031 158.946 39.9571 158.919 39.9191C158.892 39.881 158.853 39.8532 158.808 39.8398C158.646 39.7848 158.479 39.7466 158.31 39.7258C158.107 39.6998 157.906 39.6576 157.71 39.5998C157.559 39.557 157.423 39.4716 157.32 39.3538C157.203 39.2199 157.142 39.0455 157.152 38.8678C157.148 38.738 157.178 38.6095 157.239 38.4949C157.3 38.3802 157.39 38.2834 157.5 38.2138C157.773 38.0344 158.097 37.9482 158.424 37.9678C158.626 37.9655 158.827 37.9877 159.024 38.0338C159.194 38.0684 159.358 38.1292 159.51 38.2138L159.252 38.7298C159 38.5844 158.714 38.5097 158.424 38.5138C158.269 38.5061 158.115 38.5349 157.974 38.5978C157.928 38.6192 157.889 38.653 157.861 38.6955C157.834 38.7379 157.819 38.7872 157.818 38.8378C157.817 38.889 157.833 38.939 157.863 38.9801C157.894 39.0213 157.937 39.0514 157.986 39.0658C158.152 39.1229 158.322 39.165 158.496 39.1918C158.687 39.219 158.875 39.2611 159.06 39.3178C159.205 39.3635 159.337 39.4438 159.444 39.5518C159.555 39.6864 159.61 39.8579 159.6 40.0318C159.602 40.1605 159.571 40.2876 159.51 40.401C159.449 40.5144 159.36 40.6104 159.252 40.6798C158.964 40.8555 158.629 40.9392 158.292 40.9198C158.067 40.9187 157.843 40.8884 157.626 40.8298Z" fill="white"/>
<path d="M101.892 67.956L101.226 66.756C101.117 66.5581 100.958 66.393 100.763 66.278C100.569 66.1629 100.348 66.1022 100.122 66.1021H90.1379C89.8038 66.1021 89.4833 66.2348 89.247 66.4711C89.0107 66.7074 88.8779 67.0279 88.8779 67.3621V86.4421C88.8779 86.7906 89.0164 87.1248 89.2628 87.3712C89.5092 87.6176 89.8434 87.756 90.1919 87.756H112.872C113.22 87.756 113.555 87.6176 113.801 87.3712C114.047 87.1248 114.186 86.7906 114.186 86.4421V69.7801C114.186 69.4459 114.053 69.1254 113.817 68.8891C113.581 68.6528 113.26 68.52 112.926 68.52H102.852C102.656 68.5208 102.464 68.4688 102.295 68.3696C102.126 68.2704 101.987 68.1275 101.892 67.956Z" fill="#8D1B3D"/>
<path opacity="0.3" d="M101.892 67.956L101.226 66.756C101.117 66.5581 100.958 66.393 100.763 66.278C100.569 66.1629 100.348 66.1022 100.122 66.1021H90.1379C89.8038 66.1021 89.4833 66.2348 89.247 66.4711C89.0107 66.7074 88.8779 67.0279 88.8779 67.3621V86.4421C88.8779 86.7906 89.0164 87.1248 89.2628 87.3712C89.5092 87.6176 89.8434 87.756 90.1919 87.756H112.872C113.22 87.756 113.555 87.6176 113.801 87.3712C114.047 87.1248 114.186 86.7906 114.186 86.4421V69.7801C114.186 69.4459 114.053 69.1254 113.817 68.8891C113.581 68.6528 113.26 68.52 112.926 68.52H102.852C102.656 68.5208 102.464 68.4688 102.295 68.3696C102.126 68.2704 101.987 68.1275 101.892 67.956Z" fill="white"/>
<path d="M111.03 69.282H91.6797V83.748H111.03V69.282Z" fill="#263238"/>
<path opacity="0.8" d="M111.03 69.282H91.6797V83.748H111.03V69.282Z" fill="white"/>
<path d="M112.428 70.7341H90.2822V87.2941H112.428V70.7341Z" fill="#263238"/>
<path opacity="0.9" d="M112.428 70.7341H90.2822V87.2941H112.428V70.7341Z" fill="white"/>
<path d="M116.4 71.148H103.134C102.863 71.135 102.593 71.1785 102.34 71.2756C102.087 71.3726 101.856 71.5213 101.664 71.712L100.8 72.756C100.643 72.9219 100.451 73.0518 100.239 73.1368C100.026 73.2217 99.7983 73.2596 99.5699 73.248H86.6099C85.7099 73.248 85.1099 73.734 85.2659 74.334C86.5319 79.248 87.1679 81.702 88.4339 86.61C88.5477 86.9411 88.7621 87.2284 89.0472 87.4318C89.3322 87.6351 89.6737 87.7442 90.0239 87.744H112.512C112.862 87.7442 113.204 87.6351 113.489 87.4318C113.774 87.2284 113.988 86.9411 114.102 86.61L117.81 72.24C117.96 71.64 117.336 71.148 116.4 71.148Z" fill="#8D1B3D"/>
<g opacity="0.6">
<path d="M116.4 71.148H103.134C102.863 71.135 102.593 71.1785 102.34 71.2756C102.087 71.3726 101.856 71.5213 101.664 71.712L100.8 72.756C100.643 72.9219 100.451 73.0518 100.239 73.1368C100.026 73.2217 99.7983 73.2596 99.5699 73.248H86.6099C85.7099 73.248 85.1099 73.734 85.2659 74.334C86.5319 79.248 87.1679 81.702 88.4339 86.61C88.5477 86.9411 88.7621 87.2284 89.0472 87.4318C89.3322 87.6351 89.6737 87.7442 90.0239 87.744H112.512C112.862 87.7442 113.204 87.6351 113.489 87.4318C113.774 87.2284 113.988 86.9411 114.102 86.61L117.81 72.24C117.96 71.64 117.336 71.148 116.4 71.148Z" fill="white"/>
</g>
<path d="M89.4004 94.9322C89.1874 94.9592 88.9712 94.9405 88.7661 94.8775C88.561 94.8144 88.3716 94.7084 88.2106 94.5665C88.0496 94.4246 87.9206 94.2501 87.8323 94.0545C87.7439 93.8589 87.6982 93.6468 87.6982 93.4322C87.6982 93.2176 87.7439 93.0054 87.8323 92.8098C87.9206 92.6142 88.0496 92.4397 88.2106 92.2978C88.3716 92.1559 88.561 92.0499 88.7661 91.9869C88.9712 91.9238 89.1874 91.9052 89.4004 91.9322H113.598C113.811 91.9052 114.027 91.9238 114.233 91.9869C114.438 92.0499 114.627 92.1559 114.788 92.2978C114.949 92.4397 115.078 92.6142 115.166 92.8098C115.255 93.0054 115.3 93.2176 115.3 93.4322C115.3 93.6468 115.255 93.8589 115.166 94.0545C115.078 94.2501 114.949 94.4246 114.788 94.5665C114.627 94.7084 114.438 94.8144 114.233 94.8775C114.027 94.9405 113.811 94.9592 113.598 94.9322H89.4004Z" fill="#263238"/>
<path opacity="0.6" d="M89.4004 94.9322C89.1874 94.9592 88.9712 94.9405 88.7661 94.8775C88.561 94.8144 88.3716 94.7084 88.2106 94.5665C88.0496 94.4246 87.9206 94.2501 87.8323 94.0545C87.7439 93.8589 87.6982 93.6468 87.6982 93.4322C87.6982 93.2176 87.7439 93.0054 87.8323 92.8098C87.9206 92.6142 88.0496 92.4397 88.2106 92.2978C88.3716 92.1559 88.561 92.0499 88.7661 91.9869C88.9712 91.9238 89.1874 91.9052 89.4004 91.9322H113.598C113.811 91.9052 114.027 91.9238 114.233 91.9869C114.438 92.0499 114.627 92.1559 114.788 92.2978C114.949 92.4397 115.078 92.6142 115.166 92.8098C115.255 93.0054 115.3 93.2176 115.3 93.4322C115.3 93.6468 115.255 93.8589 115.166 94.0545C115.078 94.2501 114.949 94.4246 114.788 94.5665C114.627 94.7084 114.438 94.8144 114.233 94.8775C114.027 94.9405 113.811 94.9592 113.598 94.9322H89.4004Z" fill="white"/>
<path d="M147 67.956L146.334 66.756C146.225 66.5586 146.065 66.3938 145.871 66.2788C145.677 66.1638 145.455 66.1028 145.23 66.1021H135.27C134.936 66.1021 134.615 66.2348 134.379 66.4711C134.143 66.7074 134.01 67.0279 134.01 67.3621V86.4421C134.009 86.6143 134.042 86.7851 134.108 86.9444C134.173 87.1038 134.269 87.2487 134.391 87.3708C134.512 87.4929 134.657 87.5898 134.816 87.6559C134.975 87.722 135.145 87.756 135.318 87.756H158.004C158.176 87.756 158.347 87.722 158.506 87.6559C158.665 87.5898 158.809 87.4929 158.931 87.3708C159.052 87.2487 159.149 87.1038 159.214 86.9444C159.279 86.7851 159.313 86.6143 159.312 86.4421V69.7801C159.312 69.4459 159.179 69.1254 158.943 68.8891C158.706 68.6528 158.386 68.52 158.052 68.52H147.978C147.779 68.5241 147.583 68.4736 147.41 68.3742C147.238 68.2748 147.096 68.1302 147 67.956Z" fill="#8D1B3D"/>
<path opacity="0.3" d="M147 67.956L146.334 66.756C146.225 66.5586 146.065 66.3938 145.871 66.2788C145.677 66.1638 145.455 66.1028 145.23 66.1021H135.27C134.936 66.1021 134.615 66.2348 134.379 66.4711C134.143 66.7074 134.01 67.0279 134.01 67.3621V86.4421C134.009 86.6143 134.042 86.7851 134.108 86.9444C134.173 87.1038 134.269 87.2487 134.391 87.3708C134.512 87.4929 134.657 87.5898 134.816 87.6559C134.975 87.722 135.145 87.756 135.318 87.756H158.004C158.176 87.756 158.347 87.722 158.506 87.6559C158.665 87.5898 158.809 87.4929 158.931 87.3708C159.052 87.2487 159.149 87.1038 159.214 86.9444C159.279 86.7851 159.313 86.6143 159.312 86.4421V69.7801C159.312 69.4459 159.179 69.1254 158.943 68.8891C158.706 68.6528 158.386 68.52 158.052 68.52H147.978C147.779 68.5241 147.583 68.4736 147.41 68.3742C147.238 68.2748 147.096 68.1302 147 67.956Z" fill="white"/>
<path d="M156.162 69.282H136.812V83.748H156.162V69.282Z" fill="#263238"/>
<path opacity="0.8" d="M156.162 69.282H136.812V83.748H156.162V69.282Z" fill="white"/>
<path d="M157.56 70.7341H135.414V87.2941H157.56V70.7341Z" fill="#263238"/>
<path opacity="0.9" d="M157.56 70.7341H135.414V87.2941H157.56V70.7341Z" fill="white"/>
<path d="M161.538 71.148H148.266C147.995 71.135 147.723 71.1783 147.469 71.2754C147.215 71.3725 146.984 71.5211 146.79 71.712L145.92 72.756C145.766 72.9181 145.58 73.0457 145.373 73.1305C145.166 73.2153 144.944 73.2553 144.72 73.248H131.73C130.836 73.248 130.236 73.734 130.386 74.334C131.658 79.248 132.288 81.702 133.554 86.61C133.669 86.9407 133.883 87.2275 134.168 87.4307C134.453 87.6339 134.794 87.7434 135.144 87.744H157.638C157.988 87.7434 158.329 87.6339 158.614 87.4307C158.899 87.2275 159.114 86.9407 159.228 86.61L162.936 72.24C163.086 71.64 162.462 71.148 161.538 71.148Z" fill="#8D1B3D"/>
<g opacity="0.6">
<path d="M161.538 71.148H148.266C147.995 71.135 147.723 71.1783 147.469 71.2754C147.215 71.3725 146.984 71.5211 146.79 71.712L145.92 72.756C145.766 72.9181 145.58 73.0457 145.373 73.1305C145.166 73.2153 144.944 73.2553 144.72 73.248H131.73C130.836 73.248 130.236 73.734 130.386 74.334C131.658 79.248 132.288 81.702 133.554 86.61C133.669 86.9407 133.883 87.2275 134.168 87.4307C134.453 87.6339 134.794 87.7434 135.144 87.744H157.638C157.988 87.7434 158.329 87.6339 158.614 87.4307C158.899 87.2275 159.114 86.9407 159.228 86.61L162.936 72.24C163.086 71.64 162.462 71.148 161.538 71.148Z" fill="white"/>
</g>
<path d="M134.562 94.9322C134.197 94.8859 133.861 94.708 133.618 94.4318C133.375 94.1557 133.24 93.8002 133.24 93.4322C133.24 93.0641 133.375 92.7086 133.618 92.4325C133.861 92.1563 134.197 91.9784 134.562 91.9322H158.76C158.973 91.9052 159.189 91.9238 159.394 91.9869C159.6 92.0499 159.789 92.1559 159.95 92.2978C160.111 92.4397 160.24 92.6142 160.328 92.8098C160.417 93.0054 160.462 93.2176 160.462 93.4322C160.462 93.6468 160.417 93.8589 160.328 94.0545C160.24 94.2501 160.111 94.4246 159.95 94.5665C159.789 94.7084 159.6 94.8144 159.394 94.8775C159.189 94.9405 158.973 94.9592 158.76 94.9322H134.562Z" fill="#263238"/>
<path opacity="0.6" d="M134.562 94.9322C134.197 94.8859 133.861 94.708 133.618 94.4318C133.375 94.1557 133.24 93.8002 133.24 93.4322C133.24 93.0641 133.375 92.7086 133.618 92.4325C133.861 92.1563 134.197 91.9784 134.562 91.9322H158.76C158.973 91.9052 159.189 91.9238 159.394 91.9869C159.6 92.0499 159.789 92.1559 159.95 92.2978C160.111 92.4397 160.24 92.6142 160.328 92.8098C160.417 93.0054 160.462 93.2176 160.462 93.4322C160.462 93.6468 160.417 93.8589 160.328 94.0545C160.24 94.2501 160.111 94.4246 159.95 94.5665C159.789 94.7084 159.6 94.8144 159.394 94.8775C159.189 94.9405 158.973 94.9592 158.76 94.9322H134.562Z" fill="white"/>
<path d="M101.892 116.124L101.226 114.924C101.118 114.725 100.959 114.559 100.764 114.444C100.57 114.329 100.348 114.269 100.122 114.27H90.1379C89.8038 114.27 89.4833 114.403 89.247 114.639C89.0107 114.875 88.8779 115.196 88.8779 115.53V134.61C88.8779 134.782 88.912 134.953 88.9781 135.112C89.0442 135.271 89.1411 135.416 89.2631 135.537C89.3852 135.659 89.5301 135.755 89.6895 135.82C89.8489 135.886 90.0197 135.919 90.1919 135.918H112.872C113.044 135.919 113.215 135.886 113.374 135.82C113.534 135.755 113.679 135.659 113.801 135.537C113.923 135.416 114.02 135.271 114.086 135.112C114.152 134.953 114.186 134.782 114.186 134.61V117.954C114.186 117.619 114.053 117.298 113.817 117.061C113.581 116.824 113.261 116.69 112.926 116.688H102.852C102.656 116.689 102.464 116.637 102.295 116.538C102.126 116.438 101.987 116.296 101.892 116.124Z" fill="#8D1B3D"/>
<path opacity="0.3" d="M101.892 116.124L101.226 114.924C101.118 114.725 100.959 114.559 100.764 114.444C100.57 114.329 100.348 114.269 100.122 114.27H90.1379C89.8038 114.27 89.4833 114.403 89.247 114.639C89.0107 114.875 88.8779 115.196 88.8779 115.53V134.61C88.8779 134.782 88.912 134.953 88.9781 135.112C89.0442 135.271 89.1411 135.416 89.2631 135.537C89.3852 135.659 89.5301 135.755 89.6895 135.82C89.8489 135.886 90.0197 135.919 90.1919 135.918H112.872C113.044 135.919 113.215 135.886 113.374 135.82C113.534 135.755 113.679 135.659 113.801 135.537C113.923 135.416 114.02 135.271 114.086 135.112C114.152 134.953 114.186 134.782 114.186 134.61V117.954C114.186 117.619 114.053 117.298 113.817 117.061C113.581 116.824 113.261 116.69 112.926 116.688H102.852C102.656 116.689 102.464 116.637 102.295 116.538C102.126 116.438 101.987 116.296 101.892 116.124Z" fill="white"/>
<path d="M111.03 117.456H91.6797V131.922H111.03V117.456Z" fill="#263238"/>
<path opacity="0.8" d="M111.03 117.456H91.6797V131.922H111.03V117.456Z" fill="white"/>
<path d="M112.428 118.908H90.2822V135.468H112.428V118.908Z" fill="#263238"/>
<path opacity="0.9" d="M112.428 118.908H90.2822V135.468H112.428V118.908Z" fill="white"/>
<path d="M116.4 119.322H103.134C102.863 119.309 102.593 119.353 102.34 119.45C102.087 119.547 101.857 119.695 101.664 119.886C101.31 120.306 101.136 120.486 100.794 120.93C100.635 121.094 100.444 121.222 100.232 121.306C100.019 121.39 99.7918 121.427 99.564 121.416H86.604C85.704 121.416 85.104 121.908 85.26 122.508C86.526 127.416 87.162 129.87 88.428 134.784C88.5428 135.114 88.7577 135.4 89.0427 135.602C89.3277 135.804 89.6686 135.913 90.018 135.912H112.506C112.855 135.913 113.196 135.804 113.481 135.602C113.766 135.4 113.981 135.114 114.096 134.784L117.804 120.384C117.96 119.808 117.336 119.322 116.4 119.322Z" fill="#8D1B3D"/>
<g opacity="0.6">
<path d="M116.4 119.322H103.134C102.863 119.309 102.593 119.353 102.34 119.45C102.087 119.547 101.857 119.695 101.664 119.886C101.31 120.306 101.136 120.486 100.794 120.93C100.635 121.094 100.444 121.222 100.232 121.306C100.019 121.39 99.7918 121.427 99.564 121.416H86.604C85.704 121.416 85.104 121.908 85.26 122.508C86.526 127.416 87.162 129.87 88.428 134.784C88.5428 135.114 88.7577 135.4 89.0427 135.602C89.3277 135.804 89.6686 135.913 90.018 135.912H112.506C112.855 135.913 113.196 135.804 113.481 135.602C113.766 135.4 113.981 135.114 114.096 134.784L117.804 120.384C117.96 119.808 117.336 119.322 116.4 119.322Z" fill="white"/>
</g>
<path d="M89.4 143.706C89.0348 143.66 88.6991 143.482 88.4558 143.206C88.2124 142.93 88.0781 142.574 88.0781 142.206C88.0781 141.838 88.2124 141.483 88.4558 141.206C88.6991 140.93 89.0348 140.752 89.4 140.706H113.598C113.811 140.679 114.027 140.698 114.232 140.761C114.437 140.824 114.627 140.93 114.788 141.072C114.949 141.214 115.078 141.388 115.166 141.584C115.254 141.779 115.3 141.991 115.3 142.206C115.3 142.421 115.254 142.633 115.166 142.828C115.078 143.024 114.949 143.199 114.788 143.34C114.627 143.482 114.437 143.588 114.232 143.651C114.027 143.714 113.811 143.733 113.598 143.706H89.4Z" fill="#263238"/>
<path opacity="0.6" d="M89.4 143.706C89.0348 143.66 88.6991 143.482 88.4558 143.206C88.2124 142.93 88.0781 142.574 88.0781 142.206C88.0781 141.838 88.2124 141.483 88.4558 141.206C88.6991 140.93 89.0348 140.752 89.4 140.706H113.598C113.811 140.679 114.027 140.698 114.232 140.761C114.437 140.824 114.627 140.93 114.788 141.072C114.949 141.214 115.078 141.388 115.166 141.584C115.254 141.779 115.3 141.991 115.3 142.206C115.3 142.421 115.254 142.633 115.166 142.828C115.078 143.024 114.949 143.199 114.788 143.34C114.627 143.482 114.437 143.588 114.232 143.651C114.027 143.714 113.811 143.733 113.598 143.706H89.4Z" fill="white"/>
<path d="M147 116.124L146.334 114.924C146.226 114.726 146.066 114.56 145.872 114.445C145.677 114.33 145.456 114.27 145.23 114.27H135.27C134.936 114.27 134.615 114.403 134.379 114.639C134.143 114.875 134.01 115.196 134.01 115.53V134.61C134.009 134.782 134.042 134.952 134.108 135.112C134.173 135.271 134.269 135.415 134.391 135.537C134.513 135.658 134.657 135.755 134.816 135.82C134.975 135.886 135.146 135.919 135.318 135.918H158.004C158.176 135.919 158.346 135.886 158.505 135.82C158.664 135.755 158.809 135.658 158.93 135.537C159.052 135.415 159.148 135.271 159.214 135.112C159.279 134.952 159.313 134.782 159.312 134.61V117.954C159.312 117.619 159.179 117.298 158.943 117.061C158.707 116.824 158.387 116.69 158.052 116.688H147.978C147.779 116.692 147.583 116.642 147.41 116.542C147.238 116.443 147.096 116.298 147 116.124Z" fill="#8D1B3D"/>
<path opacity="0.3" d="M147 116.124L146.334 114.924C146.226 114.726 146.066 114.56 145.872 114.445C145.677 114.33 145.456 114.27 145.23 114.27H135.27C134.936 114.27 134.615 114.403 134.379 114.639C134.143 114.875 134.01 115.196 134.01 115.53V134.61C134.009 134.782 134.042 134.952 134.108 135.112C134.173 135.271 134.269 135.415 134.391 135.537C134.513 135.658 134.657 135.755 134.816 135.82C134.975 135.886 135.146 135.919 135.318 135.918H158.004C158.176 135.919 158.346 135.886 158.505 135.82C158.664 135.755 158.809 135.658 158.93 135.537C159.052 135.415 159.148 135.271 159.214 135.112C159.279 134.952 159.313 134.782 159.312 134.61V117.954C159.312 117.619 159.179 117.298 158.943 117.061C158.707 116.824 158.387 116.69 158.052 116.688H147.978C147.779 116.692 147.583 116.642 147.41 116.542C147.238 116.443 147.096 116.298 147 116.124Z" fill="white"/>
<path d="M156.162 117.456H136.812V131.922H156.162V117.456Z" fill="#263238"/>
<path opacity="0.8" d="M156.162 117.456H136.812V131.922H156.162V117.456Z" fill="white"/>
<path d="M157.56 118.908H135.414V135.468H157.56V118.908Z" fill="#263238"/>
<path opacity="0.9" d="M157.56 118.908H135.414V135.468H157.56V118.908Z" fill="white"/>
<path d="M161.538 119.322H148.266C147.995 119.309 147.723 119.352 147.469 119.449C147.215 119.547 146.984 119.695 146.79 119.886C146.436 120.306 146.262 120.486 145.92 120.93C145.765 121.09 145.578 121.217 145.372 121.3C145.165 121.384 144.943 121.423 144.72 121.416H131.73C130.836 121.416 130.236 121.908 130.386 122.508C131.658 127.416 132.288 129.87 133.554 134.784C133.67 135.114 133.885 135.399 134.17 135.601C134.455 135.803 134.795 135.912 135.144 135.912H157.638C157.987 135.912 158.328 135.803 158.613 135.601C158.898 135.399 159.113 135.114 159.228 134.784L162.936 120.384C163.086 119.808 162.462 119.322 161.538 119.322Z" fill="#8D1B3D"/>
<g opacity="0.6">
<path d="M161.538 119.322H148.266C147.995 119.309 147.723 119.352 147.469 119.449C147.215 119.547 146.984 119.695 146.79 119.886C146.436 120.306 146.262 120.486 145.92 120.93C145.765 121.09 145.578 121.217 145.372 121.3C145.165 121.384 144.943 121.423 144.72 121.416H131.73C130.836 121.416 130.236 121.908 130.386 122.508C131.658 127.416 132.288 129.87 133.554 134.784C133.67 135.114 133.885 135.399 134.17 135.601C134.455 135.803 134.795 135.912 135.144 135.912H157.638C157.987 135.912 158.328 135.803 158.613 135.601C158.898 135.399 159.113 135.114 159.228 134.784L162.936 120.384C163.086 119.808 162.462 119.322 161.538 119.322Z" fill="white"/>
</g>
<path d="M134.562 143.706C134.197 143.66 133.861 143.482 133.618 143.206C133.375 142.93 133.24 142.574 133.24 142.206C133.24 141.838 133.375 141.483 133.618 141.206C133.861 140.93 134.197 140.752 134.562 140.706H158.76C159.125 140.752 159.461 140.93 159.704 141.206C159.948 141.483 160.082 141.838 160.082 142.206C160.082 142.574 159.948 142.93 159.704 143.206C159.461 143.482 159.125 143.66 158.76 143.706H134.562Z" fill="#263238"/>
<path opacity="0.6" d="M134.562 143.706C134.197 143.66 133.861 143.482 133.618 143.206C133.375 142.93 133.24 142.574 133.24 142.206C133.24 141.838 133.375 141.483 133.618 141.206C133.861 140.93 134.197 140.752 134.562 140.706H158.76C159.125 140.752 159.461 140.93 159.704 141.206C159.948 141.483 160.082 141.838 160.082 142.206C160.082 142.574 159.948 142.93 159.704 143.206C159.461 143.482 159.125 143.66 158.76 143.706H134.562Z" fill="white"/>
<path d="M191.136 116.124L190.47 114.924C190.361 114.725 190.2 114.56 190.005 114.444C189.809 114.329 189.586 114.269 189.36 114.27H179.4C179.234 114.27 179.07 114.303 178.917 114.366C178.765 114.429 178.626 114.522 178.509 114.639C178.392 114.756 178.299 114.895 178.236 115.048C178.172 115.201 178.14 115.365 178.14 115.53V134.61C178.139 134.782 178.172 134.952 178.238 135.112C178.303 135.271 178.399 135.415 178.521 135.537C178.643 135.658 178.787 135.755 178.946 135.82C179.105 135.886 179.276 135.919 179.448 135.918H202.134C202.481 135.918 202.813 135.78 203.059 135.535C203.304 135.29 203.442 134.957 203.442 134.61V117.954C203.442 117.619 203.309 117.298 203.073 117.061C202.837 116.824 202.516 116.69 202.182 116.688H192.09C191.895 116.688 191.704 116.635 191.536 116.536C191.368 116.437 191.23 116.295 191.136 116.124Z" fill="#8D1B3D"/>
<path opacity="0.3" d="M191.136 116.124L190.47 114.924C190.361 114.725 190.2 114.56 190.005 114.444C189.809 114.329 189.586 114.269 189.36 114.27H179.4C179.234 114.27 179.07 114.303 178.917 114.366C178.765 114.429 178.626 114.522 178.509 114.639C178.392 114.756 178.299 114.895 178.236 115.048C178.172 115.201 178.14 115.365 178.14 115.53V134.61C178.139 134.782 178.172 134.952 178.238 135.112C178.303 135.271 178.399 135.415 178.521 135.537C178.643 135.658 178.787 135.755 178.946 135.82C179.105 135.886 179.276 135.919 179.448 135.918H202.134C202.481 135.918 202.813 135.78 203.059 135.535C203.304 135.29 203.442 134.957 203.442 134.61V117.954C203.442 117.619 203.309 117.298 203.073 117.061C202.837 116.824 202.516 116.69 202.182 116.688H192.09C191.895 116.688 191.704 116.635 191.536 116.536C191.368 116.437 191.23 116.295 191.136 116.124Z" fill="white"/>
<path d="M200.274 117.456H180.924V131.922H200.274V117.456Z" fill="#263238"/>
<path opacity="0.8" d="M200.274 117.456H180.924V131.922H200.274V117.456Z" fill="white"/>
<path d="M201.672 118.908H179.526V135.468H201.672V118.908Z" fill="#263238"/>
<path opacity="0.9" d="M201.672 118.908H179.526V135.468H201.672V118.908Z" fill="white"/>
<path d="M205.65 119.322H192.378C192.106 119.309 191.835 119.352 191.581 119.449C191.326 119.547 191.095 119.695 190.902 119.886C190.548 120.306 190.374 120.486 190.032 120.93C189.877 121.09 189.69 121.217 189.483 121.3C189.276 121.384 189.054 121.423 188.832 121.416H175.842C174.948 121.416 174.348 121.908 174.498 122.508C175.77 127.416 176.4 129.87 177.666 134.784C177.781 135.114 177.996 135.399 178.281 135.601C178.566 135.803 178.906 135.912 179.256 135.912H201.744C202.094 135.913 202.436 135.805 202.722 135.603C203.008 135.401 203.224 135.115 203.34 134.784C204.572 129.984 205.806 125.184 207.042 120.384C207.198 119.808 206.574 119.322 205.65 119.322Z" fill="#8D1B3D"/>
<g opacity="0.6">
<path d="M205.65 119.322H192.378C192.106 119.309 191.835 119.352 191.581 119.449C191.326 119.547 191.095 119.695 190.902 119.886C190.548 120.306 190.374 120.486 190.032 120.93C189.877 121.09 189.69 121.217 189.483 121.3C189.276 121.384 189.054 121.423 188.832 121.416H175.842C174.948 121.416 174.348 121.908 174.498 122.508C175.77 127.416 176.4 129.87 177.666 134.784C177.781 135.114 177.996 135.399 178.281 135.601C178.566 135.803 178.906 135.912 179.256 135.912H201.744C202.094 135.913 202.436 135.805 202.722 135.603C203.008 135.401 203.224 135.115 203.34 134.784C204.572 129.984 205.806 125.184 207.042 120.384C207.198 119.808 206.574 119.322 205.65 119.322Z" fill="white"/>
</g>
<path d="M178.674 143.706C178.309 143.66 177.974 143.482 177.73 143.206C177.487 142.93 177.353 142.574 177.353 142.206C177.353 141.838 177.487 141.483 177.73 141.206C177.974 140.93 178.309 140.752 178.674 140.706H202.872C203.238 140.752 203.573 140.93 203.817 141.206C204.06 141.483 204.194 141.838 204.194 142.206C204.194 142.574 204.06 142.93 203.817 143.206C203.573 143.482 203.238 143.66 202.872 143.706H178.674Z" fill="#263238"/>
<path opacity="0.6" d="M178.674 143.706C178.309 143.66 177.974 143.482 177.73 143.206C177.487 142.93 177.353 142.574 177.353 142.206C177.353 141.838 177.487 141.483 177.73 141.206C177.974 140.93 178.309 140.752 178.674 140.706H202.872C203.238 140.752 203.573 140.93 203.817 141.206C204.06 141.483 204.194 141.838 204.194 142.206C204.194 142.574 204.06 142.93 203.817 143.206C203.573 143.482 203.238 143.66 202.872 143.706H178.674Z" fill="white"/>
<path d="M178.362 94.9322C178.149 94.9592 177.933 94.9405 177.728 94.8775C177.523 94.8144 177.333 94.7084 177.172 94.5665C177.011 94.4246 176.883 94.2501 176.794 94.0545C176.706 93.8589 176.66 93.6468 176.66 93.4322C176.66 93.2176 176.706 93.0054 176.794 92.8098C176.883 92.6142 177.011 92.4397 177.172 92.2978C177.333 92.1559 177.523 92.0499 177.728 91.9869C177.933 91.9238 178.149 91.9052 178.362 91.9322H202.56C202.773 91.9052 202.989 91.9238 203.195 91.9869C203.4 92.0499 203.589 92.1559 203.75 92.2978C203.911 92.4397 204.04 92.6142 204.128 92.8098C204.217 93.0054 204.262 93.2176 204.262 93.4322C204.262 93.6468 204.217 93.8589 204.128 94.0545C204.04 94.2501 203.911 94.4246 203.75 94.5665C203.589 94.7084 203.4 94.8144 203.195 94.8775C202.989 94.9405 202.773 94.9592 202.56 94.9322H178.362Z" fill="#263238"/>
<path opacity="0.6" d="M178.362 94.9322C178.149 94.9592 177.933 94.9405 177.728 94.8775C177.523 94.8144 177.333 94.7084 177.172 94.5665C177.011 94.4246 176.883 94.2501 176.794 94.0545C176.706 93.8589 176.66 93.6468 176.66 93.4322C176.66 93.2176 176.706 93.0054 176.794 92.8098C176.883 92.6142 177.011 92.4397 177.172 92.2978C177.333 92.1559 177.523 92.0499 177.728 91.9869C177.933 91.9238 178.149 91.9052 178.362 91.9322H202.56C202.773 91.9052 202.989 91.9238 203.195 91.9869C203.4 92.0499 203.589 92.1559 203.75 92.2978C203.911 92.4397 204.04 92.6142 204.128 92.8098C204.217 93.0054 204.262 93.2176 204.262 93.4322C204.262 93.6468 204.217 93.8589 204.128 94.0545C204.04 94.2501 203.911 94.4246 203.75 94.5665C203.589 94.7084 203.4 94.8144 203.195 94.8775C202.989 94.9405 202.773 94.9592 202.56 94.9322H178.362Z" fill="white"/>
<path d="M177.534 88.2781L182.694 103.374C182.833 103.705 183.066 103.989 183.363 104.191C183.659 104.393 184.008 104.505 184.368 104.514H194.52C194.719 104.534 194.919 104.485 195.087 104.376C195.255 104.267 195.381 104.104 195.444 103.914L195.744 102.816C195.799 102.652 195.907 102.512 196.052 102.418C196.197 102.325 196.37 102.283 196.542 102.3H206.784C206.929 102.322 207.078 102.304 207.214 102.25C207.351 102.195 207.471 102.105 207.562 101.99C207.652 101.874 207.711 101.736 207.731 101.59C207.752 101.445 207.733 101.296 207.678 101.16L203.274 88.2661L203.208 85.7461V66.3481C203.208 66.0091 203.073 65.6841 202.833 65.4444C202.594 65.2047 202.269 65.0701 201.93 65.0701H191.778C191.549 65.0688 191.323 65.1295 191.126 65.2457C190.928 65.3619 190.766 65.5292 190.656 65.7301L189.978 66.9661C189.881 67.1392 189.74 67.2834 189.569 67.3836C189.398 67.4838 189.204 67.5365 189.006 67.5361H178.758C178.417 67.5361 178.09 67.6714 177.85 67.9122C177.609 68.153 177.474 68.4795 177.474 68.8201V85.7581L177.534 88.2781Z" fill="#8D1B3D"/>
<path opacity="0.6" d="M177.534 88.2781L182.694 103.374C182.833 103.705 183.066 103.989 183.363 104.191C183.659 104.393 184.008 104.505 184.368 104.514H194.52C194.719 104.534 194.919 104.485 195.087 104.376C195.255 104.267 195.381 104.104 195.444 103.914L195.744 102.816C195.799 102.652 195.907 102.512 196.052 102.418C196.197 102.325 196.37 102.283 196.542 102.3H206.784C206.929 102.322 207.078 102.304 207.214 102.25C207.351 102.195 207.471 102.105 207.562 101.99C207.652 101.874 207.711 101.736 207.731 101.59C207.752 101.445 207.733 101.296 207.678 101.16L203.274 88.2661L203.208 85.7461V66.3481C203.208 66.0091 203.073 65.6841 202.833 65.4444C202.594 65.2047 202.269 65.0701 201.93 65.0701H191.778C191.549 65.0688 191.323 65.1295 191.126 65.2457C190.928 65.3619 190.766 65.5292 190.656 65.7301L189.978 66.9661C189.881 67.1392 189.74 67.2834 189.569 67.3836C189.398 67.4838 189.204 67.5365 189.006 67.5361H178.758C178.417 67.5361 178.09 67.6714 177.85 67.9122C177.609 68.153 177.474 68.4795 177.474 68.8201V85.7581L177.534 88.2781Z" fill="white"/>
<path d="M177.534 88.2781L182.694 103.374C182.834 103.705 183.066 103.989 183.363 104.191C183.66 104.393 184.009 104.505 184.368 104.514H194.52C194.719 104.534 194.919 104.485 195.087 104.376C195.255 104.267 195.381 104.104 195.444 103.914L195.744 102.816C195.799 102.652 195.908 102.512 196.053 102.418C196.198 102.325 196.37 102.283 196.542 102.3H206.784C206.93 102.322 207.078 102.304 207.215 102.25C207.352 102.195 207.471 102.105 207.562 101.99C207.653 101.874 207.712 101.736 207.732 101.591C207.752 101.445 207.734 101.296 207.678 101.16L203.274 88.2661L177.534 88.2781Z" fill="#8D1B3D"/>
<path opacity="0.3" d="M177.534 88.2781L182.694 103.374C182.834 103.705 183.066 103.989 183.363 104.191C183.66 104.393 184.009 104.505 184.368 104.514H194.52C194.719 104.534 194.919 104.485 195.087 104.376C195.255 104.267 195.381 104.104 195.444 103.914L195.744 102.816C195.799 102.652 195.908 102.512 196.053 102.418C196.198 102.325 196.37 102.283 196.542 102.3H206.784C206.93 102.322 207.078 102.304 207.215 102.25C207.352 102.195 207.471 102.105 207.562 101.99C207.653 101.874 207.712 101.736 207.732 101.591C207.752 101.445 207.734 101.296 207.678 101.16L203.274 88.2661L177.534 88.2781Z" fill="white"/>
<path opacity="0.1" d="M180.018 88.2781H200.904L204.714 99.0121H183.828L180.018 88.2781Z" fill="black"/>
<path d="M180.018 88.2781H200.904V71.3521H180.018V88.2781Z" fill="#263238"/>
<path opacity="0.8" d="M180.018 88.2781H200.904V71.3521H180.018V88.2781Z" fill="white"/>
<path d="M180.018 88.2781H200.904L205.14 76.0801H184.248L180.018 88.2781Z" fill="#263238"/>
<path opacity="0.9" d="M180.018 88.2781H200.904L205.14 76.0801H184.248L180.018 88.2781Z" fill="white"/>
<path d="M180.018 88.2781H200.904L205.14 97.3201H184.248L180.018 88.2781Z" fill="#263238"/>
<path opacity="0.9" d="M180.018 88.2781H200.904L205.14 97.3201H184.248L180.018 88.2781Z" fill="white"/>
<path d="M180.018 88.2782H200.904L207.738 83.6282H186.846L180.018 88.2782Z" fill="#263238"/>
<path opacity="0.8" d="M180.018 88.2782H200.904L207.738 83.6282H186.846L180.018 88.2782Z" fill="white"/>
<path d="M64.9801 193.95C65.4961 185.808 69.0661 177.57 74.8081 171.978C76.2421 170.586 79.2541 167.826 76.8121 166.368C74.0221 164.7 68.6701 172.488 67.9201 173.928C69.5041 167.724 74.3041 163.23 79.5121 160.656C82.0861 159.384 84.5401 158.178 81.7981 156.288C79.0561 154.398 73.1221 158.982 71.7481 160.95C75.0001 156.408 79.1101 151.86 83.3221 149.142C87.9721 146.142 85.8721 141.138 81.0781 145.008C78.1081 147.408 73.2241 153.408 73.2241 153.408C73.2241 153.408 80.8981 137.994 78.5821 136.608C75.5821 134.808 70.3261 155.808 68.8741 159.948C69.2641 156.516 69.6301 148.212 67.0741 147.852C64.7401 147.528 65.3101 168.204 64.7701 171.852C64.4281 173.442 64.2721 174.252 64.0021 175.854C63.7501 173.1 62.2021 165.84 59.8861 166.68C57.9181 167.388 59.1361 172.824 59.6461 175.404C60.8821 181.65 62.1301 187.692 62.1421 194.1L64.9801 193.95Z" fill="#8D1B3D"/>
<path opacity="0.4" d="M67.4703 151.854C67.8183 156.342 68.1303 160.902 67.6983 165.414C68.6214 162.795 69.689 160.229 70.8963 157.728C70.9102 157.685 70.9304 157.645 70.9563 157.608C71.3163 156.858 71.6883 156.114 72.0783 155.376C72.2343 155.082 72.6183 155.214 72.5643 155.49C75.4083 151.89 78.8463 148.59 82.9383 146.49C83.2383 146.334 83.4423 146.79 83.1543 146.952C78.4023 149.64 74.8683 153.426 71.3703 157.908C69.8942 160.901 68.6427 163.999 67.6263 167.178C70.2082 163.111 74.1845 160.124 78.8103 158.778C79.1223 158.682 79.2963 159.162 78.9843 159.264C72.6543 161.262 68.1843 165.69 66.3843 171.492C66.3729 171.538 66.3525 171.58 66.3243 171.618C65.4423 175.326 64.7703 178.926 64.2543 182.706C66.0543 177.384 69.8883 172.686 74.3043 169.386C74.5683 169.188 74.8083 169.644 74.5443 169.842C69.4604 173.662 65.7681 179.042 64.0323 185.16C64.0323 185.16 64.0323 185.16 64.0323 185.19C63.8403 187.59 63.7563 189.99 63.7803 192.39C63.7859 192.426 63.7836 192.463 63.7737 192.498C63.7638 192.533 63.7464 192.565 63.7227 192.593C63.699 192.62 63.6697 192.643 63.6366 192.658C63.6036 192.673 63.5677 192.681 63.5313 192.681C63.4949 192.681 63.459 192.673 63.4259 192.658C63.3929 192.643 63.3635 192.62 63.3399 192.593C63.3162 192.565 63.2988 192.533 63.2889 192.498C63.279 192.463 63.2767 192.426 63.2823 192.39C63.3206 184.345 64.4509 176.341 66.6423 168.6C67.8063 163.146 67.3863 157.452 66.9483 151.962C66.9183 151.584 67.4403 151.482 67.4703 151.854Z" fill="white"/>
<path d="M64.3804 193.944C63.7804 184.284 59.5384 174.51 52.7224 167.88C51.0244 166.23 47.4544 162.954 50.3224 161.226C53.6284 159.252 59.9824 168.486 60.8644 170.19C58.9924 162.834 53.2924 157.506 47.1184 154.452C44.0644 152.94 41.1544 151.518 44.4064 149.274C47.6584 147.03 54.7024 152.472 56.3224 154.8C52.4644 149.4 47.5924 144 42.6004 140.796C37.0864 137.244 39.6004 131.304 45.2584 135.894C48.8164 138.738 54.6004 145.836 54.6004 145.836C54.6004 145.836 45.5044 127.56 48.2524 125.88C51.7804 123.72 58.0384 148.68 59.7604 153.558C59.3044 149.49 58.8724 139.638 61.9324 139.212C64.6984 138.828 64.0204 163.344 64.6624 167.676C65.0704 169.566 65.2624 170.514 65.5684 172.422C65.8744 169.158 67.6924 160.548 70.4584 161.544C72.7864 162.384 71.3464 168.828 70.7404 171.888C69.2704 179.292 67.7884 186.462 67.7824 194.058L64.3804 193.944Z" fill="#8D1B3D"/>
<path opacity="0.2" d="M61.4285 144C61.0205 149.328 60.6485 154.728 61.1585 160.08C60.0649 156.976 58.7989 153.935 57.3665 150.972C57.3521 150.921 57.3298 150.872 57.3005 150.828C56.8685 149.94 56.4305 149.058 55.9745 148.188C55.7885 147.834 55.3265 147.996 55.3745 148.32C52.0025 144.03 47.9285 140.136 43.0745 137.628C42.7145 137.442 42.4745 137.988 42.8165 138.18C48.4505 141.366 52.6385 145.86 56.7965 151.176C58.5426 154.727 60.0266 158.401 61.2365 162.168C58.187 157.338 53.4811 153.787 48.0005 152.178C47.6285 152.064 47.4005 152.634 47.7905 152.748C55.3025 155.118 60.5705 160.374 62.7365 167.256C62.7553 167.309 62.7816 167.36 62.8145 167.406C63.8585 171.804 64.6505 176.076 65.2685 180.552C63.1445 174.246 58.5845 168.666 53.3525 164.76C53.0345 164.52 52.7525 165.066 53.0645 165.3C59.0931 169.832 63.4722 176.213 65.5325 183.468C65.5325 183.468 65.5325 183.468 65.5325 183.498C65.7605 186.33 65.8605 189.174 65.8325 192.03C65.8325 192.109 65.8641 192.186 65.9204 192.242C65.9767 192.298 66.053 192.33 66.1325 192.33C66.2121 192.33 66.2884 192.298 66.3447 192.242C66.4009 192.186 66.4325 192.109 66.4325 192.03C66.3687 182.505 65.0124 173.032 62.4005 163.872C61.0205 157.41 61.5185 150.672 62.0405 144.138C62.0825 143.694 61.4645 143.568 61.4285 144Z" fill="white"/>
<path d="M64.3804 193.944C63.7804 184.284 59.5384 174.51 52.7224 167.88C51.0244 166.23 47.4544 162.954 50.3224 161.226C53.6284 159.252 59.9824 168.486 60.8644 170.19C58.9924 162.834 53.2924 157.506 47.1184 154.452C44.0644 152.94 41.1544 151.518 44.4064 149.274C47.6584 147.03 54.7024 152.472 56.3224 154.8C52.4644 149.4 47.5924 144 42.6004 140.796C37.0864 137.244 39.6004 131.304 45.2584 135.894C48.8164 138.738 54.6004 145.836 54.6004 145.836C54.6004 145.836 45.5044 127.56 48.2524 125.88C51.7804 123.72 58.0384 148.68 59.7604 153.558C59.3044 149.49 58.8724 139.638 61.9324 139.212C64.6984 138.828 64.0204 163.344 64.6624 167.676C65.0704 169.566 65.2624 170.514 65.5684 172.422C65.8744 169.158 67.6924 160.548 70.4584 161.544C72.7864 162.384 71.3464 168.828 70.7404 171.888C69.2704 179.292 67.7884 186.462 67.7824 194.058L64.3804 193.944Z" fill="#8D1B3D"/>
<path opacity="0.2" d="M64.3804 193.944C63.7804 184.284 59.5384 174.51 52.7224 167.88C51.0244 166.23 47.4544 162.954 50.3224 161.226C53.6284 159.252 59.9824 168.486 60.8644 170.19C58.9924 162.834 53.2924 157.506 47.1184 154.452C44.0644 152.94 41.1544 151.518 44.4064 149.274C47.6584 147.03 54.7024 152.472 56.3224 154.8C52.4644 149.4 47.5924 144 42.6004 140.796C37.0864 137.244 39.6004 131.304 45.2584 135.894C48.8164 138.738 54.6004 145.836 54.6004 145.836C54.6004 145.836 45.5044 127.56 48.2524 125.88C51.7804 123.72 58.0384 148.68 59.7604 153.558C59.3044 149.49 58.8724 139.638 61.9324 139.212C64.6984 138.828 64.0204 163.344 64.6624 167.676C65.0704 169.566 65.2624 170.514 65.5684 172.422C65.8744 169.158 67.6924 160.548 70.4584 161.544C72.7864 162.384 71.3464 168.828 70.7404 171.888C69.2704 179.292 67.7884 186.462 67.7824 194.058L64.3804 193.944Z" fill="white"/>
<path opacity="0.5" d="M61.4285 144C61.0205 149.328 60.6485 154.728 61.1585 160.08C60.0649 156.976 58.7989 153.935 57.3665 150.972C57.3521 150.921 57.3298 150.872 57.3005 150.828C56.8685 149.94 56.4305 149.058 55.9745 148.188C55.7885 147.834 55.3265 147.996 55.3745 148.32C52.0025 144.03 47.9285 140.136 43.0745 137.628C42.7145 137.442 42.4745 137.988 42.8165 138.18C48.4505 141.366 52.6385 145.86 56.7965 151.176C58.5426 154.727 60.0266 158.401 61.2365 162.168C58.187 157.338 53.4811 153.787 48.0005 152.178C47.6285 152.064 47.4005 152.634 47.7905 152.748C55.3025 155.118 60.5705 160.374 62.7365 167.256C62.7553 167.309 62.7816 167.36 62.8145 167.406C63.8585 171.804 64.6505 176.076 65.2685 180.552C63.1445 174.246 58.5845 168.666 53.3525 164.76C53.0345 164.52 52.7525 165.066 53.0645 165.3C59.0931 169.832 63.4722 176.213 65.5325 183.468C65.5325 183.468 65.5325 183.468 65.5325 183.498C65.7605 186.33 65.8605 189.174 65.8325 192.03C65.8325 192.109 65.8641 192.186 65.9204 192.242C65.9767 192.298 66.053 192.33 66.1325 192.33C66.2121 192.33 66.2884 192.298 66.3447 192.242C66.4009 192.186 66.4325 192.109 66.4325 192.03C66.3687 182.505 65.0124 173.032 62.4005 163.872C61.0205 157.41 61.5185 150.672 62.0405 144.138C62.0825 143.694 61.4645 143.568 61.4285 144Z" fill="white"/>
<path d="M74.2981 192.63H55.5301C54.9461 192.63 54.386 192.862 53.9731 193.275C53.5601 193.688 53.3281 194.248 53.3281 194.832V195.804C53.3297 196.387 53.5624 196.945 53.9752 197.357C54.388 197.769 54.9472 198 55.5301 198L57.6901 213.6H72.1381L74.2981 198C74.5878 198.001 74.8748 197.944 75.1426 197.834C75.4105 197.724 75.6539 197.562 75.8591 197.357C76.0642 197.153 76.2269 196.91 76.3379 196.642C76.449 196.374 76.5061 196.088 76.5061 195.798V194.826C76.5053 194.537 76.4476 194.251 76.3362 193.984C76.2248 193.717 76.062 193.475 75.8569 193.271C75.6519 193.067 75.4087 192.905 75.1413 192.795C74.8738 192.685 74.5873 192.629 74.2981 192.63Z" fill="#8D1B3D"/>
<path opacity="0.2" d="M74.2981 192.63H55.5301C54.9461 192.63 54.386 192.862 53.9731 193.275C53.5601 193.688 53.3281 194.248 53.3281 194.832V195.804C53.3297 196.387 53.5624 196.945 53.9752 197.357C54.388 197.769 54.9472 198 55.5301 198L57.6901 213.6H72.1381L74.2981 198C74.5878 198.001 74.8748 197.944 75.1426 197.834C75.4105 197.724 75.6539 197.562 75.8591 197.357C76.0642 197.153 76.2269 196.91 76.3379 196.642C76.449 196.374 76.5061 196.088 76.5061 195.798V194.826C76.5053 194.537 76.4476 194.251 76.3362 193.984C76.2248 193.717 76.062 193.475 75.8569 193.271C75.6519 193.067 75.4087 192.905 75.1413 192.795C74.8738 192.685 74.5873 192.629 74.2981 192.63Z" fill="black"/>
<path opacity="0.2" d="M73.8541 201.222L74.2921 198.054H55.5361L55.9741 201.222H73.8541Z" fill="black"/>
<path d="M233.279 84.6602C233.279 84.6602 244.025 93.9002 244.025 99.3782C244.025 104.412 233.351 109.806 228.659 110.502C227.194 110.586 225.726 110.586 224.261 110.502C223.765 110.502 223.282 110.349 222.877 110.063C222.472 109.777 222.165 109.373 221.999 108.906L221.945 108.75C221.791 108.326 221.761 107.867 221.86 107.426C221.959 106.986 222.182 106.583 222.503 106.266C223.016 105.729 223.679 105.359 224.405 105.204C226.097 104.94 228.479 107.322 228.479 107.322C228.479 107.322 238.901 101.052 238.901 99.9061C238.901 98.7601 234.137 95.0042 232.721 92.9282C231.527 91.2002 230.303 88.6622 233.279 84.6602Z" fill="#B97964"/>
<path d="M233.549 84.1441C234.593 84.7441 236.939 86.5441 240.749 91.5841C240.749 91.5841 240.611 94.3201 235.739 96.8701C235.739 96.8701 230.549 92.8801 230.597 89.0341C230.564 88.161 230.707 87.2902 231.016 86.473C231.325 85.6557 231.795 84.9088 232.397 84.2761C232.55 84.1342 232.745 84.0448 232.952 84.021C233.159 83.9973 233.368 84.0404 233.549 84.1441Z" fill="#8D1B3D"/>
<path opacity="0.2" d="M232.451 93.5641C233.412 94.7869 234.509 95.8961 235.721 96.8701L236.105 96.6601C236.603 90.7801 234.749 87.0601 234.749 87.0601L232.913 89.5681L232.451 93.5641Z" fill="black"/>
<path opacity="0.2" d="M228.858 110.466C231.409 109.913 233.864 108.982 236.142 107.706C235.158 106.986 234.864 104.484 234.786 103.32C232.11 105.12 229.05 106.98 228.558 107.28L228.858 110.466Z" fill="#606060"/>
<path d="M235.031 96.7081C235.031 96.7081 239.363 94.3621 240.731 90.8401L241.541 92.2081C240.35 94.6122 238.339 96.5122 235.871 97.5661L235.031 96.7081Z" fill="#8D1B3D"/>
<path opacity="0.5" d="M235.031 96.7081C235.031 96.7081 239.363 94.3621 240.731 90.8401L241.541 92.2081C240.35 94.6122 238.339 96.5122 235.871 97.5661L235.031 96.7081Z" fill="white"/>
<path d="M229.877 92.694L229.277 91.92C229.178 91.7929 229.047 91.6946 228.897 91.6355C228.747 91.5764 228.584 91.5586 228.425 91.584L221.399 92.694C221.282 92.7122 221.17 92.7535 221.068 92.8153C220.967 92.8771 220.879 92.9583 220.81 93.0542C220.74 93.15 220.69 93.2588 220.662 93.3741C220.635 93.4893 220.63 93.609 220.649 93.726L222.779 107.154C222.817 107.399 222.952 107.619 223.152 107.765C223.352 107.911 223.602 107.972 223.847 107.934L239.813 105.402C240.058 105.364 240.278 105.23 240.424 105.029C240.57 104.829 240.631 104.579 240.593 104.334L238.733 92.61C238.695 92.3757 238.565 92.1661 238.373 92.0268C238.181 91.8874 237.942 91.8296 237.707 91.866L230.615 93C230.476 93.0203 230.334 93.0025 230.204 92.9486C230.074 92.8948 229.961 92.8068 229.877 92.694Z" fill="#8D1B3D"/>
<path opacity="0.4" d="M229.877 92.694L229.277 91.92C229.178 91.7929 229.047 91.6946 228.897 91.6355C228.747 91.5764 228.584 91.5586 228.425 91.584L221.399 92.694C221.282 92.7122 221.17 92.7535 221.068 92.8153C220.967 92.8771 220.879 92.9583 220.81 93.0542C220.74 93.15 220.69 93.2588 220.662 93.3741C220.635 93.4893 220.63 93.609 220.649 93.726L222.779 107.154C222.817 107.399 222.952 107.619 223.152 107.765C223.352 107.911 223.602 107.972 223.847 107.934L239.813 105.402C240.058 105.364 240.278 105.23 240.424 105.029C240.57 104.829 240.631 104.579 240.593 104.334L238.733 92.61C238.695 92.3757 238.565 92.1661 238.373 92.0268C238.181 91.8874 237.942 91.8296 237.707 91.866L230.615 93C230.476 93.0203 230.334 93.0025 230.204 92.9486C230.074 92.8948 229.961 92.8068 229.877 92.694Z" fill="white"/>
<path d="M237.708 91.8661L230.682 93.0001C230.521 93.0282 230.371 93.0985 230.246 93.204C230.122 93.3095 230.028 93.4462 229.974 93.6001L229.644 94.5301C229.596 94.6586 229.515 94.7725 229.41 94.8608C229.305 94.9491 229.179 95.0088 229.044 95.0341L221.952 96.1561C221.717 96.193 221.505 96.3217 221.365 96.5141C221.224 96.7064 221.166 96.9466 221.202 97.1821L222.792 107.196C222.83 107.441 222.964 107.661 223.165 107.807C223.365 107.953 223.615 108.014 223.86 107.976L239.826 105.444C240.071 105.406 240.291 105.272 240.437 105.071C240.583 104.871 240.644 104.621 240.606 104.376L238.746 92.6521C238.732 92.5311 238.694 92.4143 238.633 92.3086C238.573 92.2029 238.492 92.1105 238.395 92.037C238.298 91.9635 238.187 91.9105 238.069 91.8811C237.951 91.8517 237.828 91.8466 237.708 91.8661Z" fill="#8D1B3D"/>
<path opacity="0.7" d="M237.708 91.8661L230.682 93.0001C230.521 93.0282 230.371 93.0985 230.246 93.204C230.122 93.3095 230.028 93.4462 229.974 93.6001L229.644 94.5301C229.596 94.6586 229.515 94.7725 229.41 94.8608C229.305 94.9491 229.179 95.0088 229.044 95.0341L221.952 96.1561C221.717 96.193 221.505 96.3217 221.365 96.5141C221.224 96.7064 221.166 96.9466 221.202 97.1821L222.792 107.196C222.83 107.441 222.964 107.661 223.165 107.807C223.365 107.953 223.615 108.014 223.86 107.976L239.826 105.444C240.071 105.406 240.291 105.272 240.437 105.071C240.583 104.871 240.644 104.621 240.606 104.376L238.746 92.6521C238.732 92.5311 238.694 92.4143 238.633 92.3086C238.573 92.2029 238.492 92.1105 238.395 92.037C238.298 91.9635 238.187 91.9105 238.069 91.8811C237.951 91.8517 237.828 91.8466 237.708 91.8661Z" fill="white"/>
<path d="M246.359 201.822L248.525 209.382L252.059 208.686L251.135 200.616L246.359 201.822Z" fill="#B97964"/>
<path d="M248.219 208.2L252.389 207.444C252.466 207.433 252.544 207.447 252.612 207.484C252.68 207.52 252.735 207.578 252.767 207.648L254.135 210.906C254.165 210.975 254.181 211.048 254.182 211.123C254.182 211.198 254.169 211.272 254.141 211.341C254.113 211.41 254.071 211.473 254.019 211.526C253.967 211.579 253.904 211.621 253.835 211.65C253.8 211.668 253.761 211.681 253.721 211.686C252.215 211.932 250.859 212.094 248.987 212.436C246.779 212.838 247.391 213 244.787 213.51C243.227 213.816 242.615 212.088 243.263 211.878C246.263 210.942 246.377 209.97 247.355 208.668C247.577 208.412 247.884 208.246 248.219 208.2Z" fill="#263238"/>
<path d="M215.556 200.352V210.372H219.312L221.25 200.586L215.556 200.352Z" fill="#B97964"/>
<path d="M215.489 209.73L219.719 209.88C219.797 209.884 219.871 209.914 219.93 209.965C219.989 210.016 220.029 210.085 220.043 210.162L220.685 213.63C220.706 213.777 220.672 213.926 220.588 214.049C220.505 214.172 220.38 214.26 220.235 214.296C220.196 214.302 220.155 214.302 220.115 214.296C218.591 214.218 217.235 214.086 215.315 214.02C213.071 213.942 213.629 214.23 210.995 214.17C209.405 214.134 209.195 212.322 209.855 212.256C212.951 211.98 213.305 211.056 214.535 210C214.808 209.793 215.149 209.696 215.489 209.73Z" fill="#263238"/>
<path d="M226.962 116.682L233.976 114.702C233.976 114.702 238.95 117.888 239.682 132.384C239.982 138.21 241.644 142.71 241.41 153.75C241.338 156.974 242.05 160.168 243.486 163.056C245.216 166.551 246.517 170.241 247.362 174.048C249.462 183.444 252.06 204.96 252.06 204.96L246.99 205.8C246.99 205.8 242.292 189.852 236.112 173.904C229.932 157.956 225.6 133.62 225.6 133.62L223.974 116.682H226.962Z" fill="#263238"/>
<path opacity="0.6" d="M229.866 134.364L228.444 134.67L226.836 136.278L226.422 137.922C227.064 141.15 228.066 145.908 229.344 151.224C231.792 137.694 229.866 134.364 229.866 134.364Z" fill="black"/>
<path d="M213.978 116.064L215.28 207.126H220.284C220.284 207.126 225.48 184.686 225.48 175.782C225.48 170.514 225.132 164.94 224.85 161.268C224.641 158.544 224.982 155.806 225.852 153.216C227.502 148.314 230.088 139.872 230.424 134.364C230.424 134.364 236.976 134.112 232.278 116.064H213.978Z" fill="#263238"/>
<path d="M217.854 69.99L215.544 72.228C215.806 72.4989 216.129 72.7042 216.485 72.8272C216.842 72.9503 217.222 72.9875 217.596 72.936L217.854 69.99Z" fill="#A24E3F"/>
<path d="M230.478 70.446C229.548 75.012 229.278 76.968 226.596 79.008C222.702 80.916 217.182 79.932 216.732 75.18C216.324 70.902 217.932 64.17 222.684 62.946C223.734 62.6744 224.836 62.6762 225.886 62.9513C226.935 63.2264 227.896 63.7656 228.678 64.5175C229.46 65.2694 230.037 66.209 230.353 67.2467C230.669 68.2845 230.714 69.3859 230.484 70.446H230.478Z" fill="#B97964"/>
<path d="M218.783 67.08C218.754 67.0744 218.725 67.0624 218.7 67.0448C218.675 67.0272 218.655 67.0044 218.639 66.978C218.544 66.7704 218.4 66.5889 218.219 66.449C218.038 66.309 217.826 66.2147 217.601 66.174C217.578 66.1717 217.555 66.1648 217.534 66.1536C217.513 66.1424 217.494 66.1272 217.479 66.1088C217.464 66.0903 217.453 66.0691 217.446 66.0463C217.439 66.0235 217.437 65.9996 217.439 65.976C217.442 65.9517 217.449 65.9282 217.46 65.9067C217.472 65.8853 217.488 65.8664 217.507 65.8513C217.526 65.8361 217.548 65.825 217.571 65.8186C217.595 65.8122 217.619 65.8106 217.643 65.814C217.928 65.8615 218.197 65.9768 218.428 66.1502C218.659 66.3235 218.844 66.5498 218.969 66.81C218.981 66.8316 218.988 66.8553 218.99 66.8797C218.993 66.9041 218.99 66.9288 218.983 66.9522C218.976 66.9756 218.964 66.9974 218.948 67.0162C218.932 67.035 218.913 67.0506 218.891 67.062L218.783 67.08Z" fill="#263238"/>
<path opacity="0.2" d="M219.72 77.6702C218.836 77.6618 217.97 77.4174 217.212 76.9622C218.04 78.7202 219.792 79.6622 221.76 79.8722L221.694 78.9062C221.694 78.9062 221.868 77.7362 219.72 77.6702Z" fill="#606060"/>
<path d="M221.399 83.1661L221.807 77.3041C221.807 77.3041 224.177 76.4341 225.599 77.3041C225.599 77.3041 226.283 81.6901 227.579 82.7401L221.399 83.1661Z" fill="#B97964"/>
<path d="M216.822 68.958C216.738 69.294 216.822 69.618 217.068 69.672C217.314 69.726 217.554 69.486 217.632 69.156C217.71 68.826 217.632 68.496 217.386 68.442C217.14 68.388 216.912 68.616 216.822 68.958Z" fill="#263238"/>
<path d="M217.571 68.436C217.353 68.3895 217.149 68.2941 216.973 68.1569C216.797 68.0197 216.655 67.8443 216.557 67.644C216.548 67.9142 216.63 68.1796 216.79 68.3974C216.95 68.6152 217.179 68.7726 217.439 68.844L217.571 68.436Z" fill="#263238"/>
<path d="M218.31 70.0021C217.931 70.8757 217.914 71.8638 218.262 72.7501C218.736 73.9201 219.978 73.7461 220.662 72.7861C221.304 71.9161 221.82 70.2601 220.938 69.3901C220.743 69.207 220.507 69.0748 220.249 69.0053C219.991 68.9358 219.72 68.9311 219.46 68.9917C219.2 69.0523 218.959 69.1762 218.758 69.3525C218.557 69.5288 218.403 69.7519 218.31 70.0021Z" fill="#B97964"/>
<path d="M232.368 67.0802C232.368 67.0802 234.846 64.7222 232.866 62.9882C230.886 61.2542 233.142 64.8602 232.368 67.0802Z" fill="#263238"/>
<path d="M222.138 63.8941C222.138 63.8941 219.51 61.6981 218.616 63.3721C217.722 65.0461 220.128 63.1501 222.138 63.8941Z" fill="#263238"/>
<path d="M221.861 68.9642L217.979 67.7162L218.009 67.6322C218.056 67.4699 218.037 67.2958 217.956 67.1475C217.875 66.9993 217.739 66.8889 217.577 66.8402L216.869 66.6362C216.79 66.6078 216.705 66.5964 216.621 66.6028C216.537 66.6093 216.455 66.6334 216.381 66.6736C216.307 66.7138 216.242 66.7692 216.191 66.8361C216.14 66.9031 216.103 66.9801 216.083 67.0622L215.339 69.6002C215.284 69.8007 215.306 70.0145 215.399 70.2002C215.451 70.2958 215.521 70.3801 215.605 70.4481C215.69 70.5162 215.787 70.5665 215.891 70.5962L216.221 70.6982C216.299 70.707 216.378 70.707 216.455 70.6982C216.635 70.6977 216.81 70.6389 216.954 70.5308C217.098 70.4227 217.203 70.2709 217.253 70.0982L217.853 68.0162L221.723 69.2582L221.861 68.9642ZM216.563 67.0082C216.629 66.9844 216.702 66.9844 216.767 67.0082L217.475 67.2182C217.508 67.2278 217.539 67.2439 217.565 67.2654C217.592 67.287 217.614 67.3136 217.63 67.3438C217.646 67.3739 217.657 67.407 217.66 67.4411C217.663 67.4751 217.66 67.5095 217.649 67.5422V67.6202L216.449 67.2362V67.1882C216.463 67.1158 216.504 67.0514 216.563 67.0082ZM216.911 70.0442C216.894 70.1054 216.865 70.1624 216.825 70.2117C216.785 70.261 216.736 70.3015 216.679 70.3308C216.623 70.3601 216.561 70.3774 216.498 70.3818C216.435 70.3862 216.371 70.3775 216.311 70.3562L215.987 70.2602C215.929 70.2432 215.875 70.2148 215.827 70.1767C215.78 70.1386 215.741 70.0915 215.711 70.0382C215.682 69.9857 215.664 69.9277 215.658 69.8679C215.652 69.8081 215.658 69.7476 215.675 69.6902L216.275 67.5722L217.475 67.9622L216.911 70.0442Z" fill="#263238"/>
<path d="M219.359 84.8101C219.359 84.8101 219.959 82.4941 223.973 81.6601C225.032 81.3766 226.155 81.4526 227.166 81.8761C228.177 82.2996 229.019 83.0466 229.559 84.0001L219.359 84.8101Z" fill="#8D1B3D"/>
<path opacity="0.5" d="M219.359 84.8101C219.359 84.8101 219.959 82.4941 223.973 81.6601C225.032 81.3766 226.155 81.4526 227.166 81.8761C228.177 82.2996 229.019 83.0466 229.559 84.0001L219.359 84.8101Z" fill="white"/>
<path d="M213.515 116.664C213.515 116.664 229.787 118.674 234.983 114.702C234.046 110.537 233.715 106.259 233.999 102C234.497 95.2322 236.585 88.5542 234.359 84.8942C232.133 81.2342 215.669 83.9642 212.423 87.2942C209.177 90.6242 213.515 103.638 213.515 116.664Z" fill="#8D1B3D"/>
<path opacity="0.2" d="M216.066 90.1921L214.722 94.2001L211.722 97.9741C212.07 100.752 212.544 103.878 212.922 107.178C214.506 105.446 215.739 103.422 216.552 101.22C219.492 93.2101 217.152 88.7461 217.152 88.7461L216.066 90.1921Z" fill="black"/>
<path d="M219.359 72.1681C219.359 72.1681 214.559 84.0961 222.695 84.0061C230.831 83.9161 232.799 81.9361 230.621 80.3281C228.443 78.7201 235.595 73.4041 232.913 66.7321C232.913 66.7321 231.965 61.4161 226.529 61.4761C225.7 60.3795 224.479 59.6463 223.121 59.4301C222.652 59.3728 222.176 59.4493 221.749 59.6508C221.321 59.8522 220.959 60.1704 220.705 60.5686C220.45 60.9668 220.313 61.4289 220.31 61.9016C220.306 62.3742 220.437 62.8382 220.685 63.2401L221.807 65.0401C221.807 65.0401 217.565 66.4201 219.359 72.1681Z" fill="#263238"/>
<path d="M215.304 86.6702C215.304 86.6702 211.308 87.5522 210.504 92.5742C209.7 97.5962 209.22 101.4 207.756 101.91C206.292 102.42 199.356 96.6602 199.356 96.6602L199.584 93.2882C199.607 92.9177 199.52 92.5486 199.333 92.2279C199.146 91.9073 198.868 91.6497 198.534 91.4882L198.012 91.2302C197.688 91.0735 197.326 91.0129 196.968 91.0554C196.611 91.0979 196.274 91.2418 195.996 91.4702L195.6 91.8002C195.34 92.0147 195.143 92.2947 195.028 92.6112C194.913 92.9277 194.884 93.2691 194.946 93.6002C195.216 94.9502 195.774 97.1222 196.746 97.8002C196.746 97.8002 206.478 108.99 209.376 107.826C212.274 106.662 214.47 99.6242 215.658 96.7022C216.6 94.3982 217.8 91.8302 215.304 86.6702Z" fill="#B97964"/>
<path d="M215.556 86.0161C214.47 85.3201 209.946 86.1601 208.878 96.5401C208.878 96.5401 212.448 99.5401 215.832 99.1381C215.832 99.1381 220.236 89.0341 215.556 86.0161Z" fill="#8D1B3D"/>
<path d="M208.649 95.5442C208.649 95.5442 212.147 98.5442 216.527 98.3822L216.023 99.5522C216.023 99.5522 212.309 100.368 208.487 96.7082L208.649 95.5442Z" fill="#8D1B3D"/>
<path opacity="0.5" d="M208.649 95.5442C208.649 95.5442 212.147 98.5442 216.527 98.3822L216.023 99.5522C216.023 99.5522 212.309 100.368 208.487 96.7082L208.649 95.5442Z" fill="white"/>
<path d="M246.119 204.624L246.593 206.49L252.533 205.356L252.329 203.508L246.119 204.624Z" fill="#8D1B3D"/>
<path d="M214.661 205.932L214.733 207.786H220.877L221.249 205.932H214.661Z" fill="#8D1B3D"/>
</svg>
