<svg width="98" height="98" viewBox="0 0 98 98" fill="none" xmlns="http://www.w3.org/2000/svg">
<rect width="98" height="98" rx="20" fill="url(#paint0_linear_391_8621)"/>
<path fill-rule="evenodd" clip-rule="evenodd" d="M49.0002 29.2874C53.7055 29.2874 58.2181 31.1565 61.5452 34.4837C64.8724 37.8108 66.7415 42.3234 66.7415 47.0287C66.7415 53.0884 63.4377 58.0481 59.9565 61.6062C58.2172 63.3647 56.3193 64.959 54.2871 66.3688L53.4473 66.9405L53.0531 67.2027L52.3099 67.6758L51.6476 68.0799L50.8275 68.5569C50.2709 68.8746 49.6411 69.0417 49.0002 69.0417C48.3593 69.0417 47.7294 68.8746 47.1728 68.5569L46.3528 68.0799L45.3277 67.4491L44.9492 67.2027L44.141 66.6645C41.9486 65.1812 39.9065 63.487 38.0439 61.6062C34.5626 58.0461 31.2588 53.0884 31.2588 47.0287C31.2588 42.3234 33.128 37.8108 36.4551 34.4837C39.7823 31.1565 44.2949 29.2874 49.0002 29.2874ZM49.0002 33.2299C45.3405 33.2299 41.8307 34.6837 39.2429 37.2715C36.6551 39.8593 35.2013 43.3691 35.2013 47.0287C35.2013 51.606 37.7088 55.6234 40.8608 58.8484C42.2161 60.2204 43.681 61.4796 45.241 62.6135L46.1438 63.2562C46.4356 63.4599 46.7161 63.6491 46.9855 63.8239L47.7543 64.3167L48.4305 64.7287L49.0002 65.0619L49.8971 64.5316L50.6205 64.0782C51.0056 63.8338 51.4176 63.5598 51.8565 63.2562L52.7594 62.6135C54.3193 61.4796 55.7842 60.2204 57.1395 58.8484C60.2916 55.6254 62.799 51.606 62.799 47.0287C62.799 43.3691 61.3452 39.8593 58.7574 37.2715C56.1696 34.6837 52.6599 33.2299 49.0002 33.2299ZM49.0002 39.1437C51.0914 39.1437 53.097 39.9744 54.5757 41.4532C56.0545 42.9319 56.8852 44.9375 56.8852 47.0287C56.8852 49.12 56.0545 51.1256 54.5757 52.6043C53.097 54.083 51.0914 54.9138 49.0002 54.9138C46.9089 54.9138 44.9033 54.083 43.4246 52.6043C41.9459 51.1256 41.1151 49.12 41.1151 47.0287C41.1151 44.9375 41.9459 42.9319 43.4246 41.4532C44.9033 39.9744 46.9089 39.1437 49.0002 39.1437ZM49.0002 43.0862C47.9545 43.0862 46.9517 43.5016 46.2124 44.2409C45.473 44.9803 45.0576 45.9831 45.0576 47.0287C45.0576 48.0744 45.473 49.0772 46.2124 49.8165C46.9517 50.5559 47.9545 50.9713 49.0002 50.9713C50.0458 50.9713 51.0486 50.5559 51.788 49.8165C52.5273 49.0772 52.9427 48.0744 52.9427 47.0287C52.9427 45.9831 52.5273 44.9803 51.788 44.2409C51.0486 43.5016 50.0458 43.0862 49.0002 43.0862Z" fill="white"/>
<defs>
<linearGradient id="paint0_linear_391_8621" x1="16.6811" y1="118.173" x2="166.537" y2="-6.04379" gradientUnits="userSpaceOnUse">
<stop stop-color="#17C15B"/>
<stop offset="1" stop-color="#006C35"/>
</linearGradient>
</defs>
</svg>
