<svg width="68" height="68" viewBox="0 0 68 68" fill="none" xmlns="http://www.w3.org/2000/svg">
<g id="material-symbols:manage-accounts-outline-rounded">
<path id="Vector" d="M28.3337 33.9999C25.217 33.9999 22.5489 32.8902 20.3295 30.6708C18.11 28.4513 17.0003 25.7833 17.0003 22.6666C17.0003 19.5499 18.11 16.8819 20.3295 14.6624C22.5489 12.443 25.217 11.3333 28.3337 11.3333C31.4503 11.3333 34.1184 12.443 36.3378 14.6624C38.5573 16.8819 39.667 19.5499 39.667 22.6666C39.667 25.7833 38.5573 28.4513 36.3378 30.6708C34.1184 32.8902 31.4503 33.9999 28.3337 33.9999ZM5.66699 50.9999V48.7333C5.66699 47.1749 6.06838 45.711 6.87116 44.3416C7.67394 42.9721 8.78366 41.9333 10.2003 41.2249C12.9392 39.8555 15.7725 38.7807 18.7003 38.0006C21.6281 37.2205 24.6267 36.8314 27.6962 36.8333C28.4989 36.8333 29.1723 37.1166 29.7163 37.6833C30.2603 38.2499 30.5314 38.9346 30.5295 39.7374C30.5276 40.5402 30.2556 41.2136 29.7135 41.7576C29.1714 42.3016 28.4989 42.5726 27.6962 42.5708C25.0517 42.5708 22.4894 42.9013 20.0093 43.5624C17.5292 44.2235 15.1095 45.1444 12.7503 46.3249C12.2781 46.561 11.9239 46.8916 11.6878 47.3166C11.4517 47.7416 11.3337 48.2138 11.3337 48.7333V50.9999H27.6962C28.4989 50.9999 29.1723 51.2719 29.7163 51.8159C30.2603 52.3599 30.5314 53.0324 30.5295 53.8333C30.5276 54.6341 30.2556 55.3075 29.7135 55.8534C29.1714 56.3993 28.4989 56.6704 27.6962 56.6666H11.3337C9.77533 56.6666 8.44177 56.1122 7.33299 55.0034C6.22421 53.8946 5.66888 52.5601 5.66699 50.9999ZM44.9087 57.2333L44.4837 55.2499C43.917 55.0138 43.3862 54.7664 42.8913 54.5076C42.3964 54.2488 41.8883 53.9296 41.367 53.5499L39.3128 54.1874C38.6989 54.3763 38.0973 54.3527 37.508 54.1166C36.9187 53.8805 36.4578 53.5027 36.1253 52.9833L35.5587 51.9916C35.2281 51.4249 35.11 50.811 35.2045 50.1499C35.2989 49.4888 35.6059 48.9458 36.1253 48.5208L37.6837 47.1749C37.5892 46.5138 37.542 45.8999 37.542 45.3333C37.542 44.7666 37.5892 44.1527 37.6837 43.4916L36.1253 42.1458C35.6059 41.7208 35.2989 41.189 35.2045 40.5506C35.11 39.9121 35.2281 39.3105 35.5587 38.7458L36.1962 37.6833C36.5267 37.1638 36.9753 36.786 37.542 36.5499C38.1087 36.3138 38.6989 36.2902 39.3128 36.4791L41.367 37.1166C41.8864 36.7388 42.3945 36.4196 42.8913 36.1589C43.3881 35.8983 43.9189 35.6508 44.4837 35.4166L44.9087 33.3624C45.0503 32.7013 45.3695 32.1705 45.8663 31.7701C46.3631 31.3696 46.9411 31.1685 47.6003 31.1666H48.7337C49.3948 31.1666 49.9737 31.3791 50.4705 31.8041C50.9673 32.2291 51.2855 32.7721 51.4253 33.4333L51.8503 35.4166C52.417 35.6527 52.9478 35.9124 53.4427 36.1958C53.9375 36.4791 54.4457 36.8333 54.967 37.2583L56.8795 36.6208C57.5406 36.3846 58.1781 36.3846 58.792 36.6208C59.4059 36.8569 59.8781 37.2583 60.2087 37.8249L60.7753 38.8166C61.1059 39.3833 61.2239 39.9971 61.1295 40.6583C61.035 41.3194 60.7281 41.8624 60.2087 42.2874L58.6503 43.6333C58.7448 44.1999 58.792 44.7902 58.792 45.4041C58.792 46.018 58.7448 46.6083 58.6503 47.1749L60.2087 48.5208C60.7281 48.9458 61.035 49.4775 61.1295 50.1159C61.2239 50.7544 61.1059 51.356 60.7753 51.9208L60.1378 52.9833C59.8073 53.5027 59.3587 53.8805 58.792 54.1166C58.2253 54.3527 57.635 54.3763 57.0212 54.1874L54.967 53.5499C54.4475 53.9277 53.9394 54.246 53.4427 54.5048C52.9459 54.7635 52.4151 55.0119 51.8503 55.2499L51.4253 57.3041C51.2837 57.9652 50.9654 58.4969 50.4705 58.8993C49.9756 59.3016 49.3967 59.5018 48.7337 59.4999H47.6003C46.9392 59.4999 46.3612 59.2874 45.8663 58.8624C45.3714 58.4374 45.0522 57.8944 44.9087 57.2333ZM48.167 50.9999C49.7253 50.9999 51.0598 50.4455 52.1705 49.3368C53.2812 48.228 53.8355 46.8935 53.8337 45.3333C53.8318 43.773 53.2774 42.4395 52.1705 41.3326C51.0636 40.2257 49.7291 39.6704 48.167 39.6666C46.6049 39.6628 45.2713 40.2181 44.1663 41.3326C43.0613 42.447 42.506 43.7806 42.5003 45.3333C42.4947 46.8859 43.05 48.2204 44.1663 49.3368C45.2827 50.4531 46.6162 51.0075 48.167 50.9999ZM28.3337 28.3333C29.892 28.3333 31.2265 27.7789 32.3372 26.6701C33.4478 25.5613 34.0022 24.2268 34.0003 22.6666C33.9984 21.1064 33.444 19.7728 32.3372 18.6659C31.2303 17.559 29.8958 17.0037 28.3337 16.9999C26.7715 16.9961 25.438 17.5515 24.333 18.6659C23.228 19.7804 22.6727 21.1139 22.667 22.6666C22.6613 24.2193 23.2167 25.5538 24.333 26.6701C25.4493 27.7864 26.7829 28.3408 28.3337 28.3333Z" fill="#8D1B3D"/>
</g>
</svg>
