<svg width="42" height="42" viewBox="0 0 42 42" fill="none" xmlns="http://www.w3.org/2000/svg">
<g id="tabler:tools">
<g id="Group">
<path id="Vector" d="M25.375 9.62504L32.375 16.625M5.25 36.75H12.25L35 14C35.9283 13.0718 36.4497 11.8128 36.4497 10.5C36.4497 9.18729 35.9283 7.9283 35 7.00004C34.0717 6.07178 32.8128 5.55029 31.5 5.55029C30.1872 5.55029 28.9283 6.07178 28 7.00004L5.25 29.75V36.75Z" stroke="url(#paint0_linear_48_447)" stroke-width="3" stroke-linecap="round" stroke-linejoin="round"/>
<path id="Vector_2" d="M21 14L12.25 5.25L5.25 12.25L14 21M12.25 14L9.625 16.625M28 21L36.75 29.75L29.75 36.75L21 28M28 29.75L25.375 32.375" stroke="url(#paint1_linear_48_447)" stroke-width="3" stroke-linecap="round" stroke-linejoin="round"/>
</g>
</g>
<defs>
<linearGradient id="paint0_linear_48_447" x1="10.5607" y1="43.1726" x2="58.2694" y2="3.62616" gradientUnits="userSpaceOnUse">
<stop stop-color="#17C15B"/>
<stop offset="1" stop-color="#006C35"/>
</linearGradient>
<linearGradient id="paint1_linear_48_447" x1="10.6118" y1="43.2343" x2="58.7796" y2="3.30735" gradientUnits="userSpaceOnUse">
<stop stop-color="#17C15B"/>
<stop offset="1" stop-color="#006C35"/>
</linearGradient>
</defs>
</svg>
