<svg width="41" height="41" viewBox="0 0 41 41" fill="none" xmlns="http://www.w3.org/2000/svg">
<g id="material-symbols-light:contract-outline">
<path id="Vector" d="M10.5228 35.1865C9.58279 35.1865 8.79223 34.866 8.15112 34.2249C7.51001 33.5837 7.18945 32.7932 7.18945 31.8532V27.2365H12.1895V5.18652H33.8561V31.8532C33.8561 32.7932 33.5356 33.5837 32.8945 34.2249C32.2533 34.866 31.4628 35.1865 30.5228 35.1865H10.5228ZM30.5228 33.5199C30.995 33.5199 31.3911 33.3599 31.7111 33.0399C32.0311 32.7199 32.1906 32.3243 32.1895 31.8532V6.85319H13.8561V27.2365H28.8561V31.8532C28.8561 32.3254 29.0161 32.7215 29.3361 33.0415C29.6561 33.3615 30.0517 33.521 30.5228 33.5199ZM16.1645 14.1615V12.4949H29.8811V14.1615H16.1645ZM16.1645 18.7765V17.1099H29.8811V18.7765H16.1645ZM10.5228 33.5199H27.1895V28.9032H8.85612V31.8532C8.85612 32.3254 9.01612 32.7215 9.33612 33.0415C9.65612 33.3615 10.0517 33.521 10.5228 33.5199ZM10.5228 33.5199H8.85612H27.1895H10.5228Z" fill="#8D1B3D"/>
</g>
</svg>
