<svg width="68" height="68" viewBox="0 0 68 68" fill="none" xmlns="http://www.w3.org/2000/svg">
<g id="hugeicons:mentoring">
<path id="Vector" d="M34.0003 62.3334L28.3337 45.3334H5.66699L11.3337 62.3334H34.0003ZM34.0003 62.3334H45.3337M34.0003 36.8334V35.4167C34.0003 30.0731 34.0003 27.4041 32.34 25.7438C30.6797 24.0834 28.0107 24.0834 22.667 24.0834C17.3233 24.0834 14.6543 24.0834 12.994 25.7438C11.3337 27.4041 11.3337 30.0731 11.3337 35.4167V36.8334M39.667 49.5834H56.667C58.1699 49.5834 59.6112 50.1804 60.6739 51.2431C61.7366 52.3059 62.3337 53.7472 62.3337 55.2501V56.6668C62.3337 58.1696 61.7366 59.611 60.6739 60.6737C59.6112 61.7364 58.1699 62.3334 56.667 62.3334H53.8337M53.8337 36.8334C53.8337 38.3363 53.2366 39.7776 52.1739 40.8404C51.1112 41.9031 49.6699 42.5001 48.167 42.5001C46.6641 42.5001 45.2228 41.9031 44.1601 40.8404C43.0974 39.7776 42.5003 38.3363 42.5003 36.8334C42.5003 35.3305 43.0974 33.8892 44.1601 32.8265C45.2228 31.7638 46.6641 31.1667 48.167 31.1667C49.6699 31.1667 51.1112 31.7638 52.1739 32.8265C53.2366 33.8892 53.8337 35.3305 53.8337 36.8334ZM28.3337 11.3334C28.3337 12.8363 27.7366 14.2776 26.6739 15.3404C25.6112 16.4031 24.1699 17.0001 22.667 17.0001C21.1641 17.0001 19.7228 16.4031 18.6601 15.3404C17.5973 14.2776 17.0003 12.8363 17.0003 11.3334C17.0003 9.83052 17.5973 8.38918 18.6601 7.32648C19.7228 6.26377 21.1641 5.66675 22.667 5.66675C24.1699 5.66675 25.6112 6.26377 26.6739 7.32648C27.7366 8.38918 28.3337 9.83052 28.3337 11.3334Z" stroke="#8D1B3D" stroke-width="4" stroke-linecap="round" stroke-linejoin="round"/>
</g>
</svg>
