<svg width="88" height="88" viewBox="0 0 88 88" fill="none" xmlns="http://www.w3.org/2000/svg">
<g opacity="0.35">
<circle cx="44" cy="44" r="42.25" stroke="#00732E" stroke-width="3.5"/>
<path fill-rule="evenodd" clip-rule="evenodd" d="M52.6295 44.5373C52.9732 44.8811 53.1663 45.3473 53.1663 45.8334C53.1663 46.3196 52.9732 46.7858 52.6295 47.1296L45.2962 54.4629C44.9523 54.8066 44.4861 54.9997 44 54.9997C43.5138 54.9997 43.0476 54.8066 42.7038 54.4629L35.3705 47.1296C35.0365 46.7838 34.8517 46.3207 34.8559 45.84C34.8601 45.3593 35.0529 44.8995 35.3928 44.5596C35.7327 44.2197 36.1926 44.0269 36.6733 44.0227C37.1539 44.0185 37.617 44.2033 37.9628 44.5373L44 50.5744L50.0372 44.5373C50.381 44.1936 50.8472 44.0005 51.3333 44.0005C51.8195 44.0005 52.2857 44.1936 52.6295 44.5373Z" fill="#00732E"/>
<path fill-rule="evenodd" clip-rule="evenodd" d="M52.6295 33.5373C52.9732 33.8811 53.1663 34.3473 53.1663 34.8334C53.1663 35.3196 52.9732 35.7858 52.6295 36.1296L45.2962 43.4629C44.9523 43.8066 44.4861 43.9997 44 43.9997C43.5138 43.9997 43.0476 43.8066 42.7038 43.4629L35.3705 36.1296C35.0365 35.7838 34.8517 35.3207 34.8559 34.84C34.8601 34.3593 35.0529 33.8995 35.3928 33.5596C35.7327 33.2197 36.1926 33.0269 36.6733 33.0227C37.1539 33.0185 37.617 33.2033 37.9628 33.5373L44 39.5744L50.0372 33.5373C50.381 33.1936 50.8472 33.0005 51.3333 33.0005C51.8195 33.0005 52.2857 33.1936 52.6295 33.5373Z" fill="#00732E"/>
</g>
</svg>
