<svg width="42" height="42" viewBox="0 0 42 42" fill="none" xmlns="http://www.w3.org/2000/svg">
<g id="solar:library-linear">
<g id="Group">
<path id="Vector" d="M34.2334 12.25C34.3274 11.7137 34.3029 11.1633 34.1616 10.6375C34.0202 10.1117 33.7655 9.62316 33.4153 9.20625C33.0651 8.78934 32.6279 8.45413 32.1343 8.22415C31.6408 7.99417 31.1029 7.875 30.5584 7.875H11.4414C10.897 7.875 10.3591 7.99417 9.86555 8.22415C9.37202 8.45413 8.93481 8.78934 8.5846 9.20625C8.2344 9.62316 7.97969 10.1117 7.83835 10.6375C7.69701 11.1633 7.67247 11.7137 7.76645 12.25M30.6249 7.875C30.6739 7.42 30.7002 7.19425 30.7002 7.007C30.7021 6.14196 30.3836 5.30687 29.8061 4.66281C29.2286 4.01876 28.4331 3.61137 27.5729 3.51925C27.3874 3.5 27.1599 3.5 26.7049 3.5H15.2949C14.8399 3.5 14.6107 3.5 14.4252 3.51925C13.5651 3.61137 12.7695 4.01876 12.1921 4.66281C11.6146 5.30687 11.2961 6.14196 11.2979 7.007C11.2979 7.19425 11.3224 7.42175 11.3732 7.875" stroke="url(#paint0_linear_48_436)" stroke-width="3"/>
<path id="Vector_2" d="M26.25 31.5H15.75" stroke="url(#paint1_linear_48_436)" stroke-width="3" stroke-linecap="round"/>
<path id="Vector_3" d="M4.17197 24.1378C3.38972 18.6008 2.99947 15.834 4.65847 14.0402C6.31747 12.25 9.27147 12.25 15.176 12.25H26.824C32.7285 12.25 35.6825 12.25 37.3415 14.042C39.0005 15.834 38.6085 18.6008 37.828 24.1378L37.0895 29.3877C36.477 33.7277 36.1707 35.8995 34.601 37.1997C33.0312 38.5 30.716 38.5 26.0837 38.5H15.9162C11.2857 38.5 8.96872 38.5 7.39897 37.1997C5.82922 35.8995 5.52297 33.7295 4.91047 29.3877L4.17197 24.1378Z" stroke="url(#paint2_linear_48_436)" stroke-width="3"/>
</g>
</g>
<defs>
<linearGradient id="paint0_linear_48_436" x1="12.2346" y1="14.0512" x2="21.5766" y2="-9.47098" gradientUnits="userSpaceOnUse">
<stop stop-color="#17C15B"/>
<stop offset="1" stop-color="#006C35"/>
</linearGradient>
<linearGradient id="paint1_linear_48_436" x1="17.5373" y1="32.7059" x2="17.8902" y2="29.6341" gradientUnits="userSpaceOnUse">
<stop stop-color="#17C15B"/>
<stop offset="1" stop-color="#006C35"/>
</linearGradient>
<linearGradient id="paint2_linear_48_436" x1="9.45702" y1="43.9036" x2="50.102" y2="-1.01854" gradientUnits="userSpaceOnUse">
<stop stop-color="#17C15B"/>
<stop offset="1" stop-color="#006C35"/>
</linearGradient>
</defs>
</svg>
