<svg width="68" height="68" viewBox="0 0 68 68" fill="none" xmlns="http://www.w3.org/2000/svg">
<g id="hugeicons:time-management">
<path id="Vector" d="M14.167 48.1668C10.1578 48.1668 8.15466 48.1667 6.91366 49.2037C5.66699 50.2407 5.66699 51.9124 5.66699 55.2501C5.66699 58.5878 5.66983 60.2594 6.91366 61.2964C8.15749 62.3334 10.1578 62.3334 14.167 62.3334C18.1762 62.3334 20.1793 62.3334 21.4203 61.2964C22.667 60.2594 22.667 58.5878 22.667 55.2501C22.667 51.9124 22.6642 50.2407 21.4203 49.2037C20.1765 48.1667 18.1762 48.1668 14.167 48.1668ZM14.167 48.1668C14.167 41.1344 16.275 39.6667 26.373 39.6667H41.6277C51.7257 39.6667 53.8337 41.1344 53.8337 48.1668M53.8337 48.1668C49.8245 48.1668 47.8213 48.1667 46.5803 49.2037C45.3337 50.2407 45.3337 51.9124 45.3337 55.2501C45.3337 58.5878 45.3365 60.2594 46.5803 61.2964C47.8242 62.3334 49.8245 62.3334 53.8337 62.3334C57.8428 62.3334 59.846 62.3334 61.087 61.2964C62.3337 60.2594 62.3337 58.5878 62.3337 55.2501C62.3337 51.9124 62.3308 50.2407 61.087 49.2037C59.8432 48.1667 57.8428 48.1668 53.8337 48.1668ZM34.0003 18.4167L36.8337 14.1667M46.7503 18.4167C46.7503 21.7983 45.407 25.0413 43.0159 27.4324C40.6248 29.8234 37.3818 31.1667 34.0003 31.1667C30.6188 31.1667 27.3758 29.8234 24.9847 27.4324C22.5936 25.0413 21.2503 21.7983 21.2503 18.4167C21.2503 15.0352 22.5936 11.7922 24.9847 9.40114C27.3758 7.01005 30.6188 5.66675 34.0003 5.66675C37.3818 5.66675 40.6248 7.01005 43.0159 9.40114C45.407 11.7922 46.7503 15.0352 46.7503 18.4167Z" stroke="#8D1B3D" stroke-width="4" stroke-linecap="round" stroke-linejoin="round"/>
</g>
</svg>
