<svg width="42" height="42" viewBox="0 0 42 42" fill="none" xmlns="http://www.w3.org/2000/svg">
<g id="material-symbols-light:interactive-space-outline-rounded">
<path id="Vector" d="M11.7723 14.364C11.9239 14.5156 12.089 14.5915 12.2675 14.5915C12.446 14.5915 12.6105 14.5156 12.761 14.364L14.5985 12.5265C14.7513 12.3818 14.8277 12.2132 14.8277 12.0207C14.8277 11.8282 14.7519 11.6555 14.6003 11.5027L12.7628 9.6652C12.6088 9.51354 12.4431 9.4377 12.2657 9.4377C12.0884 9.4377 11.9239 9.51354 11.7723 9.6652L9.93475 11.5027C9.78308 11.6474 9.70725 11.816 9.70725 12.0085C9.70725 12.201 9.78308 12.3736 9.93475 12.5265L11.7723 14.364ZM8.078 24.0957C7.27183 24.0957 6.59925 23.8262 6.06025 23.2872C5.52125 22.7482 5.25117 22.0756 5.25 21.2695V7.67195C5.25 6.86695 5.52008 6.19495 6.06025 5.65595C6.60042 5.11695 7.27242 4.84687 8.07625 4.8457H33.9237C34.7288 4.8457 35.4008 5.11579 35.9398 5.65595C36.4788 6.19612 36.7488 6.86812 36.75 7.67195V21.2695C36.75 22.0745 36.4799 22.747 35.9398 23.2872C35.3996 23.8274 34.727 24.0969 33.922 24.0957H29.6047C29.3632 24.0957 29.1649 24.0117 29.0098 23.8437C28.8546 23.6757 28.7758 23.4675 28.7735 23.219C28.7712 22.9705 28.8552 22.7628 29.0255 22.596C29.1958 22.4291 29.4035 22.3457 29.6485 22.3457H33.922C34.1915 22.3457 34.4388 22.2337 34.664 22.0097C34.8892 21.7857 35.0012 21.539 35 21.2695V7.67195C35 7.40362 34.888 7.15687 34.664 6.9317C34.44 6.70654 34.1933 6.59454 33.9237 6.5957H8.07625C7.80792 6.5957 7.56117 6.7077 7.336 6.9317C7.11083 7.1557 6.99883 7.40304 7 7.6737V21.2695C7 21.5378 7.112 21.7845 7.336 22.0097C7.56 22.2349 7.80675 22.3469 8.07625 22.3457H12.3515C12.5988 22.3457 12.8065 22.4297 12.9745 22.5977C13.1425 22.7657 13.2265 22.974 13.2265 23.2225C13.2265 23.471 13.1425 23.6786 12.9745 23.8455C12.8065 24.0123 12.5988 24.0957 12.3515 24.0957H8.078ZM28.8715 12.7207C29.3568 12.7207 29.7704 12.5515 30.1123 12.2132C30.4541 11.8749 30.625 11.4625 30.625 10.976C30.625 10.4895 30.4552 10.0753 30.1157 9.73345C29.7762 9.39162 29.3638 9.2207 28.8785 9.2207C28.3932 9.2207 27.9796 9.39045 27.6378 9.72995C27.2959 10.0695 27.125 10.4819 27.125 10.9672C27.125 11.4525 27.2948 11.8661 27.6343 12.208C27.9738 12.5498 28.3862 12.7207 28.8715 12.7207ZM11.914 37.1542C11.5127 37.1542 11.1767 37.0183 10.906 36.7465C10.6353 36.4746 10.5 36.1398 10.5 35.742V34.692C10.5 34.0025 10.689 33.362 11.067 32.7705C11.445 32.179 11.9548 31.7426 12.5965 31.4615C13.9358 30.8583 15.3055 30.3998 16.7055 30.086C18.1055 29.7721 19.537 29.6152 21 29.6152C22.463 29.6152 23.8945 29.7715 25.2945 30.0842C26.6945 30.3969 28.0642 30.8554 29.4035 31.4597C30.0452 31.7397 30.555 32.1755 30.933 32.767C31.311 33.3596 31.5 34.0007 31.5 34.6902V35.7402C31.5 36.1404 31.3647 36.4764 31.094 36.7482C30.8233 37.02 30.4873 37.1554 30.086 37.1542H11.914ZM12.25 35.4042H29.75V34.6902C29.75 34.3402 29.6479 34.0194 29.4438 33.7277C29.2396 33.436 28.9771 33.2173 28.6562 33.0715C27.4312 32.5173 26.1771 32.0944 24.8938 31.8027C23.6104 31.511 22.3125 31.3652 21 31.3652C19.6875 31.3652 18.3896 31.511 17.1062 31.8027C15.8229 32.0944 14.5688 32.5173 13.3438 33.0715C13.0229 33.2173 12.7604 33.436 12.5563 33.7277C12.3521 34.0194 12.25 34.3402 12.25 34.6902V35.4042ZM21 27.1915C19.7797 27.1915 18.7454 26.7674 17.8973 25.9192C17.0491 25.0722 16.625 24.038 16.625 22.8165C16.625 21.595 17.0491 20.5607 17.8973 19.7137C18.7454 18.8667 19.7797 18.4426 21 18.4415C22.2203 18.4403 23.2546 18.8644 24.1027 19.7137C24.9509 20.563 25.375 21.5973 25.375 22.8165C25.375 24.0356 24.9509 25.0699 24.1027 25.9192C23.2546 26.7685 22.2203 27.1926 21 27.1915ZM21 25.4415C21.7292 25.4415 22.3492 25.1865 22.8602 24.6767C23.3713 24.1669 23.6262 23.5468 23.625 22.8165C23.6238 22.0861 23.3689 21.4666 22.8602 20.958C22.3516 20.4493 21.7315 20.1938 21 20.1915C20.2685 20.1891 19.649 20.4446 19.1415 20.958C18.634 21.4713 18.3785 22.0908 18.375 22.8165C18.3715 23.5421 18.627 24.1622 19.1415 24.6767C19.656 25.1912 20.2755 25.4461 21 25.4415Z" fill="url(#paint0_linear_48_433)"/>
</g>
<defs>
<linearGradient id="paint0_linear_48_433" x1="10.6118" y1="43.805" x2="59.7691" y2="4.07751" gradientUnits="userSpaceOnUse">
<stop stop-color="#17C15B"/>
<stop offset="1" stop-color="#006C35"/>
</linearGradient>
</defs>
</svg>
