<svg width="68" height="68" viewBox="0 0 68 68" fill="none" xmlns="http://www.w3.org/2000/svg">
<g id="fluent:person-support-16-regular">
<path id="Vector" d="M34 51.0001C32.5154 51.0005 31.0773 50.4827 29.9337 49.5361C28.79 48.5896 28.0126 47.2736 27.7355 45.8151C23.5668 44.5268 19.8957 41.9864 17.221 38.5391C15.2018 35.9389 13.8143 32.905 13.1681 29.6769C12.5218 26.4487 12.6345 23.1146 13.4971 19.9374C14.3598 16.7602 15.9489 13.827 18.139 11.369C20.3292 8.91094 23.0605 6.99543 26.1175 5.77351C29.1746 4.55158 32.4737 4.05667 35.7547 4.32781C39.0358 4.59895 42.2089 5.62872 45.0239 7.33589C47.8389 9.04307 50.2187 11.381 51.9756 14.1651C53.7326 16.9493 54.8186 20.1037 55.148 23.3794C55.2627 24.5481 54.298 25.5001 53.125 25.5001C51.952 25.5001 51.0128 24.5439 50.8725 23.3794C50.4932 20.3739 49.3177 17.5244 47.4676 15.1256C45.6175 12.7269 43.1601 10.8661 40.3496 9.73575C37.5391 8.60541 34.4776 8.2466 31.4818 8.69644C28.4861 9.14628 25.665 10.3884 23.3104 12.2944C20.9558 14.2003 19.1533 16.7008 18.0893 19.5371C17.0254 22.3735 16.7386 25.4426 17.2588 28.4269C17.7789 31.4112 19.087 34.2023 21.0478 36.5115C23.0085 38.8206 25.5507 40.5639 28.4113 41.5609C28.9521 40.5742 29.7443 39.7483 30.7076 39.167C31.6709 38.5857 32.7709 38.2696 33.8958 38.251C35.0208 38.2323 36.1306 38.5117 37.1127 39.0608C38.0947 39.6099 38.9139 40.4091 39.4871 41.3772C40.0603 42.3454 40.3671 43.4479 40.3763 44.573C40.3855 45.6981 40.0968 46.8055 39.5395 47.7829C38.9821 48.7603 38.1761 49.5728 37.2032 50.1378C36.2302 50.7029 35.1251 51.0004 34 51.0001ZM17 44.6251V44.5104C15.8379 43.4696 14.7738 42.3244 13.821 41.0891C13.1228 42.1362 12.7501 43.3666 12.75 44.6251V46.7501C12.75 55.1269 20.655 63.7501 34 63.7501C47.345 63.7501 55.25 55.1269 55.25 46.7501V44.6251C55.25 42.9344 54.5784 41.3128 53.3828 40.1173C52.1873 38.9218 50.5658 38.2501 48.875 38.2501H42.5C43.4307 39.4826 44.0938 40.9276 44.4125 42.5001H48.875C49.4386 42.5001 49.9791 42.724 50.3776 43.1225C50.7761 43.521 51 44.0615 51 44.6251V46.7501C51 52.8616 44.914 59.5001 34 59.5001C23.086 59.5001 17 52.8616 17 46.7501V44.6251ZM34 34.0001C31.5682 34 29.21 34.8341 27.319 36.3631C25.4609 35.2247 23.9267 33.6276 22.8639 31.7253C21.8011 29.8229 21.2453 27.6792 21.25 25.5001C21.2506 23.2773 21.8324 21.0932 22.9375 19.1646C24.0427 17.2359 25.6329 15.6297 27.5503 14.5053C29.4678 13.3809 31.6459 12.7773 33.8687 12.7544C36.0914 12.7315 38.2815 13.2901 40.2217 14.3748C42.1619 15.4595 43.7848 17.0325 44.9295 18.938C46.0742 20.8435 46.7008 23.0151 46.7472 25.2374C46.7936 27.4598 46.2583 29.6557 45.1942 31.6073C44.1301 33.5588 42.5742 35.1983 40.681 36.3631C38.79 34.8341 36.4318 34 34 34.0001ZM25.5 25.5001C25.5 27.7544 26.3955 29.9165 27.9896 31.5105C29.5837 33.1046 31.7457 34.0001 34 34.0001C36.2543 34.0001 38.4163 33.1046 40.0104 31.5105C41.6045 29.9165 42.5 27.7544 42.5 25.5001C42.5 23.2458 41.6045 21.0838 40.0104 19.4897C38.4163 17.8956 36.2543 17.0001 34 17.0001C31.7457 17.0001 29.5837 17.8956 27.9896 19.4897C26.3955 21.0838 25.5 23.2458 25.5 25.5001Z" fill="#8D1B3D"/>
</g>
</svg>
