<svg width="41" height="41" viewBox="0 0 41 41" fill="none" xmlns="http://www.w3.org/2000/svg">
<g id="hugeicons:job-link">
<g id="Group">
<path id="Vector" d="M18.7421 36.0199H16.4055C10.4305 36.0199 7.4438 36.0199 5.58714 34.1282C3.73047 32.2365 3.73047 29.1915 3.73047 23.1032C3.73047 17.0149 3.73047 13.9699 5.58714 12.0782C7.4438 10.1865 10.4305 10.1865 16.4055 10.1865H22.7438C28.7188 10.1865 31.7071 10.1865 33.5638 12.0782C34.9921 13.5332 35.3205 15.6715 35.3971 19.3532V21.8532" stroke="#8D1B3D" stroke-width="2" stroke-linecap="round" stroke-linejoin="round"/>
<path id="Vector_2" d="M32.0645 31.0199H27.0645M27.0645 36.0199C25.7384 36.0199 24.4666 35.4932 23.5289 34.5555C22.5912 33.6178 22.0645 32.346 22.0645 31.0199C22.0645 29.6939 22.5912 28.4221 23.5289 27.4844C24.4666 26.5467 25.7384 26.0199 27.0645 26.0199M32.0645 36.0199C33.3905 36.0199 34.6623 35.4932 35.6 34.5555C36.5377 33.6178 37.0645 32.346 37.0645 31.0199C37.0645 29.6939 36.5377 28.4221 35.6 27.4844C34.6623 26.5467 33.3905 26.0199 32.0645 26.0199M27.0645 10.1866L26.8978 9.66994C26.0728 7.10327 25.6611 5.81994 24.6795 5.0866C23.6961 4.35327 22.3928 4.35327 19.7828 4.35327H19.3445C16.7361 4.35327 15.4311 4.35327 14.4495 5.0866C13.4661 5.81994 13.0545 7.10327 12.2295 9.66994L12.0645 10.1866" stroke="#8D1B3D" stroke-width="2" stroke-linecap="round" stroke-linejoin="round"/>
</g>
</g>
</svg>
