<svg width="42" height="43" viewBox="0 0 42 43" fill="none" xmlns="http://www.w3.org/2000/svg">
<path d="M19.2622 37.7301H16.8087C10.535 37.7301 7.399 37.7301 5.4495 35.7439C3.5 33.7576 3.5 30.5604 3.5 24.1676C3.5 17.7749 3.5 14.5776 5.4495 12.5914C7.399 10.6051 10.535 10.6051 16.8087 10.6051H23.464C29.7378 10.6051 32.8755 10.6051 34.825 12.5914C36.3247 14.1191 36.6695 16.3644 36.75 20.2301" stroke="url(#paint0_linear_27_2485)" stroke-width="3" stroke-linecap="round" stroke-linejoin="round"/>
<path d="M35.0298 36.0204L38.5 39.4801M28 10.6051L27.825 10.0626C26.9587 7.3676 26.5265 6.0201 25.4958 5.2501C24.4633 4.4801 23.0948 4.4801 20.3525 4.4801H19.8922C17.1535 4.4801 15.7833 4.4801 14.7525 5.2501C13.72 6.0201 13.2878 7.3676 12.4215 10.0626L12.25 10.6051M36.8427 31.6506C36.8565 30.8314 36.7071 30.0177 36.4032 29.2569C36.0992 28.496 35.6468 27.8033 35.0724 27.2191C34.498 26.6349 33.813 26.171 33.0574 25.8543C32.3018 25.5375 31.4907 25.3744 30.6714 25.3744C29.8521 25.3744 29.041 25.5375 28.2854 25.8543C27.5298 26.171 26.8448 26.6349 26.2703 27.2191C25.6959 27.8033 25.2435 28.496 24.9396 29.2569C24.6356 30.0177 24.4862 30.8314 24.5 31.6506C24.5273 33.2694 25.1894 34.8126 26.3438 35.9477C27.4982 37.0828 29.0524 37.7189 30.6714 37.7189C32.2904 37.7189 33.8445 37.0828 34.9989 35.9477C36.1533 34.8126 36.8155 33.2694 36.8427 31.6506Z" stroke="url(#paint1_linear_27_2485)" stroke-width="3" stroke-linecap="round" stroke-linejoin="round"/>
<defs>
<linearGradient id="paint0_linear_27_2485" x1="9.15967" y1="43.3138" x2="51.3645" y2="0.430037" gradientUnits="userSpaceOnUse">
<stop stop-color="#17C15B"/>
<stop offset="1" stop-color="#006C35"/>
</linearGradient>
<linearGradient id="paint1_linear_27_2485" x1="16.7182" y1="46.6849" x2="65.5607" y2="16.3202" gradientUnits="userSpaceOnUse">
<stop stop-color="#17C15B"/>
<stop offset="1" stop-color="#006C35"/>
</linearGradient>
</defs>
</svg>
