<svg fill="none" xmlns="http://www.w3.org/2000/svg" viewBox="80 0 175 175"> <g filter="url(#filter0_dddddd_393_10068)"> <path d="M80 36.2727C80 16.2399 96.2399 0 116.273 0H218.727C238.76 0 255 16.2399 255 36.2727V138.727C255 158.76 238.76 175 218.727 175H116.273C96.2399 175 80 158.76 80 138.727V36.2727Z" fill="url(#paint0_linear_393_10068)"></path> </g> <g filter="url(#filter1_i_393_10068)"> <path fill-rule="evenodd" clip-rule="evenodd" d="M125.323 52.4478C125.323 50.5583 126.073 48.7462 127.409 47.4101C128.745 46.0741 130.558 45.3235 132.447 45.3235H203.465C204.401 45.322 205.329 45.5051 206.194 45.8625C207.06 46.2199 207.846 46.7445 208.509 47.4063C209.171 48.068 209.697 48.8539 210.055 49.719C210.413 50.5841 210.597 51.5114 210.597 52.4478V123.466C210.598 124.402 210.414 125.33 210.056 126.195C209.699 127.061 209.174 127.847 208.512 128.51C207.85 129.172 207.063 129.697 206.198 130.056C205.333 130.414 204.405 130.598 203.469 130.598H132.447C131.511 130.598 130.584 130.413 129.72 130.055C128.855 129.697 128.07 129.172 127.408 128.51C126.746 127.848 126.222 127.062 125.864 126.197C125.506 125.332 125.322 124.405 125.323 123.469V52.4478ZM159.076 77.8362H170.623V83.6348C172.289 80.3014 176.553 77.3013 182.96 77.3013C195.244 77.3013 198.155 83.9411 198.155 96.1236V118.69H185.724V98.8989C185.724 91.9607 184.057 88.0458 179.825 88.0458C173.952 88.0458 171.51 92.2669 171.51 98.8989V118.69H159.076V77.8362ZM137.757 118.159H150.192V77.3013H137.757V118.155V118.159ZM151.971 63.9753C151.994 65.0399 151.805 66.0986 151.414 67.089C151.022 68.0795 150.437 68.9818 149.693 69.743C148.948 70.5043 148.059 71.1091 147.077 71.5221C146.096 71.935 145.041 72.1477 143.976 72.1477C142.912 72.1477 141.857 71.935 140.876 71.5221C139.894 71.1091 139.005 70.5043 138.26 69.743C137.516 68.9818 136.93 68.0795 136.539 67.089C136.148 66.0986 135.959 65.0399 135.982 63.9753C136.028 61.8855 136.891 59.8968 138.385 58.4351C139.879 56.9734 141.886 56.1549 143.976 56.1549C146.067 56.1549 148.074 56.9734 149.568 58.4351C151.062 59.8968 151.925 61.8855 151.971 63.9753Z" fill="white"></path> </g> <defs> <filter id="filter0_dddddd_393_10068" x="0" y="0" width="335" height="355" filterUnits="userSpaceOnUse" color-interpolation-filters="sRGB"> <feFlood flood-opacity="0" result="BackgroundImageFix"></feFlood> <feColorMatrix in="SourceAlpha" type="matrix" values="0 0 0 0 0 0 0 0 0 0 0 0 0 0 0 0 0 0 127 0" result="hardAlpha"></feColorMatrix> <feOffset dy="2.76726"></feOffset> <feGaussianBlur stdDeviation="1.1069"></feGaussianBlur> <feColorMatrix type="matrix" values="0 0 0 0 0 0 0 0 0 0 0 0 0 0 0 0 0 0 0.0196802 0"></feColorMatrix> <feBlend mode="normal" in2="BackgroundImageFix" result="effect1_dropShadow_393_10068"></feBlend> <feColorMatrix in="SourceAlpha" type="matrix" values="0 0 0 0 0 0 0 0 0 0 0 0 0 0 0 0 0 0 127 0" result="hardAlpha"></feColorMatrix> <feOffset dy="6.6501"></feOffset> <feGaussianBlur stdDeviation="2.66004"></feGaussianBlur> <feColorMatrix type="matrix" values="0 0 0 0 0 0 0 0 0 0 0 0 0 0 0 0 0 0 0.0282725 0"></feColorMatrix> <feBlend mode="normal" in2="effect1_dropShadow_393_10068" result="effect2_dropShadow_393_10068"></feBlend> <feColorMatrix in="SourceAlpha" type="matrix" values="0 0 0 0 0 0 0 0 0 0 0 0 0 0 0 0 0 0 127 0" result="hardAlpha"></feColorMatrix> <feOffset dy="12.5216"></feOffset> <feGaussianBlur stdDeviation="5.00862"></feGaussianBlur> <feColorMatrix type="matrix" values="0 0 0 0 0 0 0 0 0 0 0 0 0 0 0 0 0 0 0.035 0"></feColorMatrix> <feBlend mode="normal" in2="effect2_dropShadow_393_10068" result="effect3_dropShadow_393_10068"></feBlend> <feColorMatrix in="SourceAlpha" type="matrix" values="0 0 0 0 0 0 0 0 0 0 0 0 0 0 0 0 0 0 127 0" result="hardAlpha"></feColorMatrix> <feOffset dy="22.3363"></feOffset> <feGaussianBlur stdDeviation="8.93452"></feGaussianBlur> <feColorMatrix type="matrix" values="0 0 0 0 0 0 0 0 0 0 0 0 0 0 0 0 0 0 0.0417275 0"></feColorMatrix> <feBlend mode="normal" in2="effect3_dropShadow_393_10068" result="effect4_dropShadow_393_10068"></feBlend> <feColorMatrix in="SourceAlpha" type="matrix" values="0 0 0 0 0 0 0 0 0 0 0 0 0 0 0 0 0 0 127 0" result="hardAlpha"></feColorMatrix> <feOffset dy="41.7776"></feOffset> <feGaussianBlur stdDeviation="16.711"></feGaussianBlur> <feColorMatrix type="matrix" values="0 0 0 0 0 0 0 0 0 0 0 0 0 0 0 0 0 0 0.0503198 0"></feColorMatrix> <feBlend mode="normal" in2="effect4_dropShadow_393_10068" result="effect5_dropShadow_393_10068"></feBlend> <feColorMatrix in="SourceAlpha" type="matrix" values="0 0 0 0 0 0 0 0 0 0 0 0 0 0 0 0 0 0 127 0" result="hardAlpha"></feColorMatrix> <feOffset dy="100"></feOffset> <feGaussianBlur stdDeviation="40"></feGaussianBlur> <feColorMatrix type="matrix" values="0 0 0 0 0 0 0 0 0 0 0 0 0 0 0 0 0 0 0.07 0"></feColorMatrix> <feBlend mode="normal" in2="effect5_dropShadow_393_10068" result="effect6_dropShadow_393_10068"></feBlend> <feBlend mode="normal" in="SourceGraphic" in2="effect6_dropShadow_393_10068" result="shape"></feBlend> </filter> <filter id="filter1_i_393_10068" x="121.447" y="41.4473" width="93.0264" height="97.0263" filterUnits="userSpaceOnUse" color-interpolation-filters="sRGB"> <feFlood flood-opacity="0" result="BackgroundImageFix"></feFlood> <feBlend mode="normal" in="SourceGraphic" in2="BackgroundImageFix" result="shape"></feBlend> <feColorMatrix in="SourceAlpha" type="matrix" values="0 0 0 0 0 0 0 0 0 0 0 0 0 0 0 0 0 0 127 0" result="hardAlpha"></feColorMatrix> <feOffset dy="4"></feOffset> <feGaussianBlur stdDeviation="7.5"></feGaussianBlur> <feComposite in2="hardAlpha" operator="arithmetic" k2="-1" k3="1"></feComposite> <feColorMatrix type="matrix" values="0 0 0 0 0 0 0 0 0 0 0 0 0 0 0 0 0 0 0.2 0"></feColorMatrix> <feBlend mode="normal" in2="shape" result="effect1_innerShadow_393_10068"></feBlend> </filter> <linearGradient id="paint0_linear_393_10068" x1="109.788" y1="211.024" x2="377.387" y2="-10.7925" gradientUnits="userSpaceOnUse"> <stop stop-color="#17C15B"></stop> <stop offset="1" stop-color="#006C35"></stop> </linearGradient> </defs> </svg>