<svg width="42" height="42" viewBox="0 0 42 42" fill="none" xmlns="http://www.w3.org/2000/svg">
<g id="akar-icons:language">
<g id="Group">
<path id="Vector" d="M24.5 33.25C31.0992 33.25 34.3997 33.25 36.449 31.199C38.4982 29.148 38.5 25.8492 38.5 19.25C38.5 12.6508 38.5 9.35025 36.449 7.301C34.398 5.25175 31.0992 5.25 24.5 5.25H17.5C10.9008 5.25 7.60025 5.25 5.551 7.301C3.50175 9.352 3.5 12.6508 3.5 19.25C3.5 25.8492 3.5 29.1497 5.551 31.199C6.69375 32.3435 8.225 32.8493 10.5 33.0715" stroke="url(#paint0_linear_48_452)" stroke-width="3" stroke-linecap="round" stroke-linejoin="round"/>
<path id="Vector_2" d="M24.5001 33.25C22.3371 33.25 19.9536 34.125 17.7783 35.2538C14.2818 37.0685 12.5336 37.9768 11.6726 37.3975C10.8116 36.8183 10.9743 35.0262 11.3016 31.4405L11.3751 30.625" stroke="url(#paint1_linear_48_452)" stroke-width="3" stroke-linecap="round"/>
<path id="Vector_3" d="M9.625 23.625L11.375 20.125M11.375 20.125L13.3105 16.2557C13.456 15.9655 13.6794 15.7214 13.9557 15.5508C14.232 15.3802 14.5503 15.2899 14.875 15.2899C15.1997 15.2899 15.518 15.3802 15.7943 15.5508C16.0706 15.7214 16.294 15.9655 16.4395 16.2557L18.375 20.125M11.375 20.125H18.375M18.375 20.125L20.125 23.625M21.875 13.125H25.3435V15.75C25.3435 16.625 24.4755 18.375 22.7412 18.375M29.6782 13.125V16.625M29.6782 16.625V23.625M29.6782 16.625H32.375" stroke="url(#paint2_linear_48_452)" stroke-width="3" stroke-linecap="round" stroke-linejoin="round"/>
</g>
</g>
<defs>
<linearGradient id="paint0_linear_48_452" x1="9.45755" y1="39.0138" x2="53.0019" y2="-6.1043" gradientUnits="userSpaceOnUse">
<stop stop-color="#17C15B"/>
<stop offset="1" stop-color="#006C35"/>
</linearGradient>
<linearGradient id="paint1_linear_48_452" x1="13.3294" y1="39.0011" x2="23.0284" y2="23.42" gradientUnits="userSpaceOnUse">
<stop stop-color="#17C15B"/>
<stop offset="1" stop-color="#006C35"/>
</linearGradient>
<linearGradient id="paint2_linear_48_452" x1="13.4974" y1="25.7864" x2="27.3869" y2="0.841232" gradientUnits="userSpaceOnUse">
<stop stop-color="#17C15B"/>
<stop offset="1" stop-color="#006C35"/>
</linearGradient>
</defs>
</svg>
