<svg width="32" height="34" viewBox="0 0 32 34" fill="none" xmlns="http://www.w3.org/2000/svg">
<path d="M8.36017 12.3488C8.36017 10.2763 9.18344 8.28879 10.6489 6.82336C12.1143 5.35794 14.1018 4.53467 16.1743 4.53467C18.2467 4.53467 20.2342 5.35794 21.6997 6.82336C23.1651 8.28879 23.9884 10.2763 23.9884 12.3488V16.1477C23.9884 17.0633 24.2853 17.9541 24.8349 18.6873L27.5047 22.2466C27.7224 22.5369 27.8549 22.882 27.8875 23.2433C27.9201 23.6046 27.8514 23.9679 27.6892 24.2924C27.5269 24.6169 27.2775 24.8898 26.9689 25.0805C26.6603 25.2712 26.3047 25.3723 25.9419 25.3723H6.40665C6.04386 25.3723 5.68823 25.2712 5.37962 25.0805C5.07101 24.8898 4.82161 24.6169 4.65936 24.2924C4.49712 23.9679 4.42844 23.6046 4.46102 23.2433C4.4936 22.882 4.62615 22.5369 4.84383 22.2466L7.51365 18.6873C8.06314 17.9546 8.36017 17.0635 8.36017 16.1477V12.3488ZM16.1743 29.9305C15.1926 29.9303 14.2371 29.6134 13.4499 29.0268C12.6627 28.4402 12.0858 27.6153 11.8049 26.6746H20.5437C20.2628 27.6153 19.6858 28.4402 18.8986 29.0268C18.1114 29.6134 17.156 29.9303 16.1743 29.9305Z" fill="#343434"/>
<circle cx="22.8725" cy="6.39522" r="4.74427" fill="#00247D" stroke="white" stroke-width="1.67445"/>
</svg>
