<svg
            xmlns="http://www.w3.org/2000/svg"
            width="32"
            height="33"
            viewBox="0 0 32 33"
            fill="none"
          >
            <path
              d="M8.36017 11.3488C8.36017 9.27634 9.18344 7.28879 10.6489 5.82336C12.1143 4.35794 14.1018 3.53467 16.1743 3.53467C18.2467 3.53467 20.2342 4.35794 21.6997 5.82336C23.1651 7.28879 23.9884 9.27634 23.9884 11.3488V15.1477C23.9884 16.0633 24.2853 16.9541 24.8349 17.6873L27.5047 21.2466C27.7224 21.5369 27.8549 21.882 27.8875 22.2433C27.9201 22.6046 27.8514 22.9679 27.6892 23.2924C27.5269 23.6169 27.2775 23.8898 26.9689 24.0805C26.6603 24.2712 26.3047 24.3723 25.9419 24.3723H6.40665C6.04386 24.3723 5.68823 24.2712 5.37962 24.0805C5.07101 23.8898 4.82161 23.6169 4.65936 23.2924C4.49712 22.9679 4.42844 22.6046 4.46102 22.2433C4.4936 21.882 4.62615 21.5369 4.84383 21.2466L7.51365 17.6873C8.06314 16.9546 8.36017 16.0635 8.36017 15.1477V11.3488ZM16.1743 28.9305C15.1926 28.9303 14.2371 28.6134 13.4499 28.0268C12.6627 27.4402 12.0858 26.6153 11.8049 25.6746H20.5437C20.2628 26.6153 19.6858 27.4402 18.8986 28.0268C18.1114 28.6134 17.156 28.9303 16.1743 28.9305Z"
              fill="#343434"
            />
          </svg>