<svg width="42" height="43" viewBox="0 0 42 43" fill="none" xmlns="http://www.w3.org/2000/svg">
<g id="Group 36813">
<rect id="Rectangle 4268" x="0.0151367" y="0.543457" width="41.5" height="41.5" rx="8" fill="#F7F7FF"/>
<g id="Group 36811">
<path id="Vector" d="M20.7651 12.1435C20.13 12.1435 19.6151 12.6583 19.6151 13.2935V29.2935C19.6151 29.9286 20.13 30.4435 20.7651 30.4435C21.4003 30.4435 21.9151 29.9286 21.9151 29.2935V13.2935C21.9151 12.6583 21.4003 12.1435 20.7651 12.1435Z" fill="#00732E" stroke="#00732E" stroke-width="0.3" stroke-linecap="round"/>
<path id="Vector_2" d="M12.7651 20.1435C12.13 20.1435 11.6151 20.6583 11.6151 21.2935C11.6151 21.9286 12.13 22.4435 12.7651 22.4435H28.7651C29.4003 22.4435 29.9151 21.9286 29.9151 21.2935C29.9151 20.6583 29.4003 20.1435 28.7651 20.1435H12.7651Z" fill="#00732E" stroke="#00732E" stroke-width="0.3" stroke-linecap="round"/>
</g>
</g>
</svg>
