<svg xmlns="http://www.w3.org/2000/svg" fill="none" viewBox="84 43 84.57 78">   <g filter="url(#filter0_ddddd_537_2094)">     <ellipse cx="126.283" cy="82" rx="42.2832" ry="39" fill="white"/>   </g>   <path d="M147.568 92.6464L147.577 92.6413H147.559L136.933 86.8833L126.289 81.1152L115.644 86.8833L105.018 92.6413H105L105.009 92.6464L105 92.6515H105.018L115.644 98.4094L126.289 104.178L136.933 98.4094L147.559 92.6515H147.577L147.568 92.6464Z" fill="#FFD9E4"/>   <path d="M147.568 70.5312L147.577 70.5265H147.559L136.933 64.7681L126.289 59L115.644 64.7681L105.018 70.5265H105L105.009 70.5312L105 70.5362H105.018L115.644 76.2946L126.289 82.0627L136.933 76.2946L147.559 70.5362H147.577L147.568 70.5312Z" fill="#B91645"/>   <path d="M105.02 70.0625V93.1151L126.29 81.589L105.02 70.0625Z" fill="#FFB4CA"/>   <path d="M147.559 70.0625V93.1151L126.289 81.589L147.559 70.0625Z" fill="#FFB4CA"/>   <defs>     <filter id="filter0_ddddd_537_2094" x="0" y="0" width="272.566" height="266" filterUnits="userSpaceOnUse" color-interpolation-filters="sRGB">       <feFlood flood-opacity="0" result="BackgroundImageFix"/>       <feColorMatrix in="SourceAlpha" type="matrix" values="0 0 0 0 0 0 0 0 0 0 0 0 0 0 0 0 0 0 127 0" result="hardAlpha"/>       <feOffset dy="3.30696"/>       <feGaussianBlur stdDeviation="1.65888"/>       <feColorMatrix type="matrix" values="0 0 0 0 0 0 0 0 0 0 0 0 0 0 0 0 0 0 0.0200187 0"/>       <feBlend mode="normal" in2="BackgroundImageFix" result="effect1_dropShadow_537_2094"/>       <feColorMatrix in="SourceAlpha" type="matrix" values="0 0 0 0 0 0 0 0 0 0 0 0 0 0 0 0 0 0 127 0" result="hardAlpha"/>       <feOffset dy="6.99366"/>       <feGaussianBlur stdDeviation="4.10299"/>       <feColorMatrix type="matrix" values="0 0 0 0 0 0 0 0 0 0 0 0 0 0 0 0 0 0 0.0353466 0"/>       <feBlend mode="normal" in2="effect1_dropShadow_537_2094" result="effect2_dropShadow_537_2094"/>       <feColorMatrix in="SourceAlpha" type="matrix" values="0 0 0 0 0 0 0 0 0 0 0 0 0 0 0 0 0 0 127 0" result="hardAlpha"/>       <feOffset dy="11.8898"/>       <feGaussianBlur stdDeviation="8.22"/>       <feColorMatrix type="matrix" values="0 0 0 0 0 0 0 0 0 0 0 0 0 0 0 0 0 0 0.0506778 0"/>       <feBlend mode="normal" in2="effect2_dropShadow_537_2094" result="effect3_dropShadow_537_2094"/>       <feColorMatrix in="SourceAlpha" type="matrix" values="0 0 0 0 0 0 0 0 0 0 0 0 0 0 0 0 0 0 127 0" result="hardAlpha"/>       <feOffset dx="10" dy="20.718"/>       <feGaussianBlur stdDeviation="16.8097"/>       <feColorMatrix type="matrix" values="0 0 0 0 0 0 0 0 0 0 0 0 0 0 0 0 0 0 0.0697538 0"/>       <feBlend mode="normal" in2="effect3_dropShadow_537_2094" result="effect4_dropShadow_537_2094"/>       <feColorMatrix in="SourceAlpha" type="matrix" values="0 0 0 0 0 0 0 0 0 0 0 0 0 0 0 0 0 0 127 0" result="hardAlpha"/>       <feOffset dx="10" dy="51"/>       <feGaussianBlur stdDeviation="47"/>       <feColorMatrix type="matrix" values="0 0 0 0 0 0 0 0 0 0 0 0 0 0 0 0 0 0 0.11 0"/>       <feBlend mode="normal" in2="effect4_dropShadow_537_2094" result="effect5_dropShadow_537_2094"/>       <feBlend mode="normal" in="SourceGraphic" in2="effect5_dropShadow_537_2094" result="shape"/>     </filter>   </defs> </svg>