<svg width="42" height="43" viewBox="0 0 42 43" fill="none" xmlns="http://www.w3.org/2000/svg">
<path d="M24.5 39.4801V32.4801C24.5 31.5518 24.1313 30.6616 23.4749 30.0052C22.8185 29.3489 21.9283 28.9801 21 28.9801C20.0717 28.9801 19.1815 29.3489 18.5251 30.0052C17.8687 30.6616 17.5 31.5518 17.5 32.4801V39.4801" stroke="url(#paint0_linear_27_2495)" stroke-width="3" stroke-linecap="round" stroke-linejoin="round"/>
<path d="M31.5 18.4801L37.5323 21.4971C37.8229 21.6423 38.0674 21.8656 38.2383 22.1419C38.4092 22.4182 38.4998 22.7367 38.5 23.0616V35.9801C38.5 36.9083 38.1313 37.7986 37.4749 38.4549C36.8185 39.1113 35.9283 39.4801 35 39.4801H7C6.07174 39.4801 5.1815 39.1113 4.52513 38.4549C3.86875 37.7986 3.5 36.9083 3.5 35.9801V23.0616C3.50017 22.7367 3.5908 22.4182 3.76172 22.1419C3.93264 21.8656 4.17711 21.6423 4.46775 21.4971L10.5 18.4801M31.5 9.73007V39.4801M7 11.4801L19.4355 5.26232C19.9213 5.01956 20.4569 4.89319 21 4.89319C21.5431 4.89319 22.0787 5.01956 22.5645 5.26232L35 11.4801M10.5 9.73007V39.4801" stroke="url(#paint1_linear_27_2495)" stroke-width="3" stroke-linecap="round" stroke-linejoin="round"/>
<path d="M21 20.2301C22.933 20.2301 24.5 18.6631 24.5 16.7301C24.5 14.7971 22.933 13.2301 21 13.2301C19.067 13.2301 17.5 14.7971 17.5 16.7301C17.5 18.6631 19.067 20.2301 21 20.2301Z" stroke="url(#paint2_linear_27_2495)" stroke-width="3" stroke-linecap="round" stroke-linejoin="round"/>
<defs>
<linearGradient id="paint0_linear_27_2495" x1="18.6915" y1="41.6415" x2="32.5255" y2="33.9967" gradientUnits="userSpaceOnUse">
<stop stop-color="#17C15B"/>
<stop offset="1" stop-color="#006C35"/>
</linearGradient>
<linearGradient id="paint1_linear_27_2495" x1="9.45755" y1="46.5998" x2="62.4586" y2="2.14176" gradientUnits="userSpaceOnUse">
<stop stop-color="#17C15B"/>
<stop offset="1" stop-color="#006C35"/>
</linearGradient>
<linearGradient id="paint2_linear_27_2495" x1="18.6915" y1="21.6711" x2="29.3955" y2="12.7984" gradientUnits="userSpaceOnUse">
<stop stop-color="#17C15B"/>
<stop offset="1" stop-color="#006C35"/>
</linearGradient>
</defs>
</svg>
