<svg width="30" height="42" viewBox="0 0 30 42" fill="none" xmlns="http://www.w3.org/2000/svg">
<path d="M12.6225 26.5478C17.5525 26.5478 21.549 22.5513 21.549 17.6213C21.549 12.6913 17.5525 8.69482 12.6225 8.69482C7.69256 8.69482 3.69604 12.6913 3.69604 17.6213C3.69604 22.5513 7.69256 26.5478 12.6225 26.5478Z" stroke="url(#paint0_linear_27_2517)" stroke-width="2.83035" stroke-linecap="round" stroke-linejoin="round"/>
<path d="M12.6224 33.2427V40.6814" stroke="url(#paint1_linear_27_2517)" stroke-width="2.83035" stroke-linecap="round" stroke-linejoin="round"/>
<path d="M8.1593 40.6814H17.0858" stroke="url(#paint2_linear_27_2517)" stroke-width="2.83035" stroke-linecap="round" stroke-linejoin="round"/>
<path d="M12.6225 2C15.1664 2.00033 17.6717 2.62192 19.9207 3.81073C22.1697 4.99954 24.0943 6.71961 25.5274 8.82145C26.9604 10.9233 27.8584 13.3433 28.1434 15.8712C28.4285 18.399 28.0918 20.9582 27.1628 23.3264C26.2337 25.6945 24.7404 27.8 22.8125 29.4597C20.8847 31.1195 18.5807 32.2833 16.1008 32.85C13.6208 33.4168 11.04 33.3693 8.58258 32.7118C6.12516 32.0542 3.86551 30.8065 2 29.077" stroke="url(#paint3_linear_27_2517)" stroke-width="2.83035" stroke-linecap="round" stroke-linejoin="round"/>
<defs>
<linearGradient id="paint0_linear_27_2517" x1="6.7349" y1="30.2228" x2="34.0345" y2="7.59381" gradientUnits="userSpaceOnUse">
<stop stop-color="#17C15B"/>
<stop offset="1" stop-color="#006C35"/>
</linearGradient>
<linearGradient id="paint1_linear_27_2517" x1="12.7927" y1="42.2127" x2="15.3408" y2="41.9287" gradientUnits="userSpaceOnUse">
<stop stop-color="#17C15B"/>
<stop offset="1" stop-color="#006C35"/>
</linearGradient>
<linearGradient id="paint2_linear_27_2517" x1="9.67873" y1="41.8872" x2="10.0918" y2="38.8308" gradientUnits="userSpaceOnUse">
<stop stop-color="#17C15B"/>
<stop offset="1" stop-color="#006C35"/>
</linearGradient>
<linearGradient id="paint3_linear_27_2517" x1="6.46677" y1="39.674" x2="52.0631" y2="7.92835" gradientUnits="userSpaceOnUse">
<stop stop-color="#17C15B"/>
<stop offset="1" stop-color="#006C35"/>
</linearGradient>
</defs>
</svg>
