<svg width="68" height="68" viewBox="0 0 68 68" fill="none" xmlns="http://www.w3.org/2000/svg">
<g id="hugeicons:teaching">
<g id="Group">
<path id="Vector" d="M36.8337 42.5C30.3397 59.5 12.161 42.5 5.66699 59.5M43.917 42.5H48.1698C54.848 42.5 58.1885 42.5 60.2625 40.426C62.3365 38.352 62.3365 35.0115 62.3365 28.3333V22.6667C62.3365 15.9885 62.3365 12.648 60.2625 10.574C58.1885 8.5 54.8537 8.5 48.1698 8.5H36.8365C30.1583 8.5 26.8207 8.5 24.7467 10.574C22.99 12.3307 22.718 14.9968 22.6783 19.8333" stroke="#8D1B3D" stroke-width="4" stroke-linecap="round" stroke-linejoin="round"/>
<path id="Vector_2" d="M21.2503 42.4999C25.1623 42.4999 28.3337 39.3286 28.3337 35.4166C28.3337 31.5046 25.1623 28.3333 21.2503 28.3333C17.3383 28.3333 14.167 31.5046 14.167 35.4166C14.167 39.3286 17.3383 42.4999 21.2503 42.4999Z" stroke="#8D1B3D" stroke-width="4" stroke-linecap="round" stroke-linejoin="round"/>
<path id="Vector_3" d="M34 19.8333H51M51 31.1666H42.5" stroke="#8D1B3D" stroke-width="4" stroke-linecap="round" stroke-linejoin="round"/>
</g>
</g>
</svg>
