<svg
            xmlns="http://www.w3.org/2000/svg"
            width="33"
            height="32"
            viewBox="0 0 33 32"
            fill="none"
          >
            <path
              d="M16.8027 17.3333C19.9974 17.3333 22.9027 18.2586 25.0401 19.5613C26.1067 20.2146 27.0187 20.9813 27.6774 21.8146C28.3254 22.6359 28.8027 23.6173 28.8027 24.6666C28.8027 25.7933 28.2547 26.6813 27.4654 27.3146C26.7187 27.9146 25.7334 28.3119 24.6867 28.5893C22.5827 29.1453 19.7747 29.3333 16.8027 29.3333C13.8307 29.3333 11.0227 29.1466 8.91873 28.5893C7.87207 28.3119 6.88673 27.9146 6.14007 27.3146C5.3494 26.6799 4.80273 25.7933 4.80273 24.6666C4.80273 23.6173 5.28007 22.6359 5.92807 21.8146C6.58673 20.9813 7.4974 20.2146 8.5654 19.5613C10.7027 18.2586 13.6094 17.3333 16.8027 17.3333Z"
              fill="black"
            />
            <path
              opacity="0.3"
              d="M16.8037 2.66675C21.9357 2.66675 25.1437 8.22275 22.577 12.6667C21.9919 13.6802 21.1504 14.5218 20.1369 15.1069C19.1235 15.692 17.9739 16.0001 16.8037 16.0001C11.6717 16.0001 8.4637 10.4441 11.0304 6.00008C11.6155 4.98664 12.457 4.14507 13.4705 3.55995C14.4839 2.97483 15.6335 2.66678 16.8037 2.66675Z"
              fill="black"
            />
          </svg>