<svg width="42" height="42" viewBox="0 0 42 42" fill="none" xmlns="http://www.w3.org/2000/svg">
<g id="solar:shop-broken">
<g id="Group">
<path id="Vector" d="M6.125 19.25V24.5C6.125 31.0992 6.125 34.3997 8.176 36.449C10.227 38.4982 13.5258 38.5 20.125 38.5H21.875C28.4742 38.5 31.7747 38.5 33.824 36.449M35.875 19.25V24.5C35.875 26.5475 35.875 28.2765 35.8138 29.75" stroke="url(#paint0_linear_48_442)" stroke-width="3" stroke-linecap="round"/>
<path id="Vector_2" d="M16.625 3.5H25.375M16.625 3.5L15.484 14.9048C15.4089 15.6743 15.4956 16.4511 15.7386 17.1852C15.9816 17.9193 16.3755 18.5944 16.895 19.1671C17.4145 19.7399 18.0481 20.1975 18.7551 20.5108C19.4621 20.824 20.2268 20.9858 21 20.9858C21.7733 20.9858 22.538 20.824 23.245 20.5108C23.9519 20.1975 24.5856 19.7399 25.1051 19.1671C25.6246 18.5944 26.0185 17.9193 26.2615 17.1852C26.5045 16.4511 26.5912 15.6743 26.516 14.9048L25.375 3.5M16.625 3.5H12.9815C11.3925 3.5 10.598 3.5 9.91554 3.68725C9.20568 3.88195 8.5447 4.22374 7.97549 4.69044C7.40629 5.15714 6.94158 5.73832 6.61154 6.39625M16.625 3.5L15.3563 16.1787C15.2893 16.9044 15.075 17.6087 14.7264 18.2485C14.3778 18.8884 13.9022 19.4504 13.3289 19.9002C12.7555 20.3499 12.0964 20.6779 11.3919 20.864C10.6874 21.0502 9.95235 21.0906 9.23168 20.9828C8.51102 20.875 7.81994 20.6212 7.20075 20.237C6.58156 19.8529 6.04729 19.3464 5.63064 18.7485C5.214 18.1507 4.92375 17.4742 4.77766 16.7603C4.63158 16.0464 4.63273 15.3102 4.78104 14.5967L4.90004 14M25.375 3.5H29.0185C30.6075 3.5 31.402 3.5 32.0845 3.68725C32.7944 3.88195 33.4554 4.22374 34.0246 4.69044C34.5938 5.15714 35.0585 5.73832 35.3885 6.39625C35.7053 7.02625 35.861 7.80675 36.1725 9.36425L37.219 14.5967C37.3674 15.3102 37.3685 16.0464 37.2224 16.7603C37.0763 17.4742 36.7861 18.1507 36.3694 18.7485C35.9528 19.3464 35.4185 19.8529 34.7993 20.237C34.1801 20.6212 33.4891 20.875 32.7684 20.9828C32.0477 21.0906 31.3126 21.0502 30.6081 20.864C29.9036 20.6779 29.2445 20.3499 28.6712 19.9002C28.0978 19.4504 27.6223 18.8884 27.2737 18.2485C26.9251 17.6087 26.7107 16.9044 26.6438 16.1787L25.375 3.5ZM16.625 37.625V32.375C16.625 30.7387 16.625 29.9215 16.9768 29.3125C17.2072 28.9135 17.5385 28.5821 17.9375 28.3518C18.5465 28 19.3638 28 21 28C22.6363 28 23.4535 28 24.0625 28.3518C24.4616 28.5821 24.7929 28.9135 25.0233 29.3125C25.375 29.9215 25.375 30.7387 25.375 32.375V37.625" stroke="url(#paint1_linear_48_442)" stroke-width="3" stroke-linecap="round"/>
</g>
</g>
<defs>
<linearGradient id="paint0_linear_48_442" x1="11.1889" y1="42.4626" x2="40.2486" y2="5.23574" gradientUnits="userSpaceOnUse">
<stop stop-color="#FA3F43"/>
<stop offset="1" stop-color="#8D1B3D"/>
</linearGradient>
<linearGradient id="paint1_linear_48_442" x1="10.2286" y1="44.6497" x2="61.9404" y2="3.62248" gradientUnits="userSpaceOnUse">
<stop stop-color="#FA3F43"/>
<stop offset="1" stop-color="#8D1B3D"/>
</linearGradient>
</defs>
</svg>
