<svg width="22" height="21" viewBox="0 0 22 21" fill="none" xmlns="http://www.w3.org/2000/svg">
<g id="icons8_Instagram 1" filter="url(#filter0_i_52_508)">
<path id="Vector" d="M7.90179 2.47412C5.30073 2.47412 3.18433 4.59177 3.18433 7.19348V13.9338C3.18433 16.5352 5.30198 18.6519 7.90369 18.6519H14.644C17.2454 18.6519 19.3621 16.5342 19.3621 13.9325V7.19159C19.3621 4.59052 17.2445 2.47412 14.6427 2.47412H7.90179ZM16.1265 5.06257C16.4838 5.06257 16.7737 5.35247 16.7737 5.70968C16.7737 6.06688 16.4838 6.35679 16.1265 6.35679C15.7693 6.35679 15.4794 6.06688 15.4794 5.70968C15.4794 5.35247 15.7693 5.06257 16.1265 5.06257ZM11.2732 6.35679C13.5931 6.35679 15.4794 8.24312 15.4794 10.563C15.4794 12.8829 13.5928 14.7692 11.2732 14.7692C8.95332 14.7692 7.06699 12.8826 7.06699 10.563C7.06699 8.24344 8.95332 6.35679 11.2732 6.35679ZM11.2732 7.65101C9.66482 7.65101 8.36122 8.95462 8.36122 10.563C8.36122 12.1714 9.66482 13.475 11.2732 13.475C12.8816 13.475 14.1852 12.1714 14.1852 10.563C14.1852 8.95462 12.8816 7.65101 11.2732 7.65101Z" fill="#00732E"/>
</g>
<defs>
<filter id="filter0_i_52_508" x="0.919434" y="0.209473" width="20.7075" height="24.7075" filterUnits="userSpaceOnUse" color-interpolation-filters="sRGB">
<feFlood flood-opacity="0" result="BackgroundImageFix"/>
<feBlend mode="normal" in="SourceGraphic" in2="BackgroundImageFix" result="shape"/>
<feColorMatrix in="SourceAlpha" type="matrix" values="0 0 0 0 0 0 0 0 0 0 0 0 0 0 0 0 0 0 127 0" result="hardAlpha"/>
<feOffset dy="4"/>
<feGaussianBlur stdDeviation="7.5"/>
<feComposite in2="hardAlpha" operator="arithmetic" k2="-1" k3="1"/>
<feColorMatrix type="matrix" values="0 0 0 0 0 0 0 0 0 0 0 0 0 0 0 0 0 0 0.2 0"/>
<feBlend mode="normal" in2="shape" result="effect1_innerShadow_52_508"/>
</filter>
</defs>
</svg>
