<svg width="19" height="19" viewBox="0 0 19 19" fill="none" xmlns="http://www.w3.org/2000/svg">
<g id="akar-icons:youtube-fill" clip-path="url(#clip0_52_517)" filter="url(#filter0_i_52_517)">
<g id="Group">
<g id="Group_2">
<path id="Vector" d="M18.5018 5.33404C18.3965 4.95824 18.1913 4.618 17.908 4.34951C17.6167 4.07276 17.2598 3.87479 16.8708 3.7743C15.4149 3.39056 9.58215 3.39056 9.58215 3.39056C7.15054 3.3629 4.71953 3.48458 2.30284 3.75492C1.91383 3.86284 1.55752 4.06523 1.2656 4.34408C0.978766 4.62006 0.771008 4.96038 0.662477 5.33326C0.401765 6.73776 0.275094 8.16386 0.28417 9.59232C0.274867 11.0195 0.401228 12.4451 0.662477 13.8514C0.768682 14.2227 0.975665 14.5615 1.26327 14.8351C1.55088 15.1088 1.90903 15.3065 2.30284 15.4111C3.77808 15.7941 9.58215 15.7941 9.58215 15.7941C12.0169 15.8218 14.451 15.7001 16.8708 15.4297C17.2598 15.3292 17.6167 15.1313 17.908 14.8545C18.1948 14.5809 18.3987 14.2405 18.501 13.87C18.7686 12.466 18.8986 11.0393 18.8894 9.61015C18.9096 8.17491 18.7796 6.7415 18.5018 5.33326V5.33404ZM7.72783 12.2467V6.93874L12.5807 9.59309L7.72783 12.2467Z" fill="#00732E"/>
</g>
</g>
</g>
<defs>
<filter id="filter0_i_52_517" x="0.28418" y="0.289551" width="18.6052" height="22.6055" filterUnits="userSpaceOnUse" color-interpolation-filters="sRGB">
<feFlood flood-opacity="0" result="BackgroundImageFix"/>
<feBlend mode="normal" in="SourceGraphic" in2="BackgroundImageFix" result="shape"/>
<feColorMatrix in="SourceAlpha" type="matrix" values="0 0 0 0 0 0 0 0 0 0 0 0 0 0 0 0 0 0 127 0" result="hardAlpha"/>
<feOffset dy="4"/>
<feGaussianBlur stdDeviation="7.5"/>
<feComposite in2="hardAlpha" operator="arithmetic" k2="-1" k3="1"/>
<feColorMatrix type="matrix" values="0 0 0 0 0 0 0 0 0 0 0 0 0 0 0 0 0 0 0.2 0"/>
<feBlend mode="normal" in2="shape" result="effect1_innerShadow_52_517"/>
</filter>
<clipPath id="clip0_52_517">
<rect width="18.6053" height="18.6053" fill="white" transform="translate(0.28418 0.289551)"/>
</clipPath>
</defs>
</svg>
