<svg width="60" height="60" viewBox="0 0 60 60" fill="none" xmlns="http://www.w3.org/2000/svg">
<g filter="url(#filter0_d_2719_5037)">
<rect x="8" y="8" width="44" height="44" rx="12" fill="white"/>
</g>
<path d="M38.7188 30.6406C39.1458 31.3906 39.4635 32.1719 39.6719 32.9844C39.8802 33.7969 39.9896 34.6354 40 35.5V37.1094L30 42.125L20 37.1094C20 36.4844 20.0052 35.901 20.0156 35.3594C20.026 34.8177 20.0729 34.2917 20.1562 33.7812C20.2396 33.2708 20.3646 32.7604 20.5312 32.25C20.6979 31.7396 20.9479 31.2031 21.2812 30.6406L18 29V38.1719C18.3021 38.276 18.5729 38.4219 18.8125 38.6094C19.0521 38.7969 19.2656 39.0156 19.4531 39.2656C19.6406 39.5156 19.776 39.7865 19.8594 40.0781C19.9427 40.3698 19.9896 40.6771 20 41V46H14V41C14 40.6875 14.0469 40.3854 14.1406 40.0938C14.2344 39.8021 14.3698 39.526 14.5469 39.2656C14.724 39.0052 14.9323 38.7865 15.1719 38.6094C15.4115 38.4323 15.6875 38.2865 16 38.1719V28L14 27L30 19L46 27L38.7188 30.6406ZM18 41C18 40.7292 17.901 40.4948 17.7031 40.2969C17.5052 40.099 17.2708 40 17 40C16.7292 40 16.4948 40.099 16.2969 40.2969C16.099 40.4948 16 40.7292 16 41V44H18V41ZM18.4688 27L30 32.7656L41.5312 27L30 21.2344L18.4688 27ZM38 35.875C38 35.0729 37.9219 34.3281 37.7656 33.6406C37.6094 32.9531 37.3333 32.25 36.9375 31.5312L30 35L23.0625 31.5312C22.7188 32.1354 22.4583 32.7708 22.2812 33.4375C22.1042 34.1042 22.0104 34.7917 22 35.5V35.875L30 39.875L38 35.875Z" fill="#8D1B3D"/>
<defs>
<filter id="filter0_d_2719_5037" x="0" y="0" width="60" height="60" filterUnits="userSpaceOnUse" color-interpolation-filters="sRGB">
<feFlood flood-opacity="0" result="BackgroundImageFix"/>
<feColorMatrix in="SourceAlpha" type="matrix" values="0 0 0 0 0 0 0 0 0 0 0 0 0 0 0 0 0 0 127 0" result="hardAlpha"/>
<feOffset/>
<feGaussianBlur stdDeviation="4"/>
<feComposite in2="hardAlpha" operator="out"/>
<feColorMatrix type="matrix" values="0 0 0 0 0.168627 0 0 0 0 0.168627 0 0 0 0 0.168627 0 0 0 0.08 0"/>
<feBlend mode="normal" in2="BackgroundImageFix" result="effect1_dropShadow_2719_5037"/>
<feBlend mode="normal" in="SourceGraphic" in2="effect1_dropShadow_2719_5037" result="shape"/>
</filter>
</defs>
</svg>
