<svg width="60" height="60" viewBox="0 0 60 60" fill="none" xmlns="http://www.w3.org/2000/svg">
<g filter="url(#filter0_d_2719_4890)">
<rect x="8" y="8" width="44" height="44" rx="12" fill="white"/>
</g>
<path d="M18 32.6665V27.3332C18 22.3052 18 19.7905 19.5627 18.2292C21.1253 16.6678 23.6387 16.6665 28.6667 16.6665H31.3333C36.3613 16.6665 38.876 16.6665 40.4373 18.2292C41.3093 19.0998 41.6947 20.2665 41.864 21.9998M42 27.3332V32.6665C42 37.6945 42 40.2092 40.4373 41.7705C38.8747 43.3318 36.3613 43.3332 31.3333 43.3332H28.6667C23.6387 43.3332 21.124 43.3332 19.5627 41.7705C18.6907 40.8998 18.3053 39.7332 18.136 37.9998M24.6667 32.6665H31.3333M24.6667 27.3332H26M35.3333 27.3332H30" stroke="#8D1B3D" stroke-width="1.5" stroke-linecap="round"/>
<defs>
<filter id="filter0_d_2719_4890" x="0" y="0" width="60" height="60" filterUnits="userSpaceOnUse" color-interpolation-filters="sRGB">
<feFlood flood-opacity="0" result="BackgroundImageFix"/>
<feColorMatrix in="SourceAlpha" type="matrix" values="0 0 0 0 0 0 0 0 0 0 0 0 0 0 0 0 0 0 127 0" result="hardAlpha"/>
<feOffset/>
<feGaussianBlur stdDeviation="4"/>
<feComposite in2="hardAlpha" operator="out"/>
<feColorMatrix type="matrix" values="0 0 0 0 0.168627 0 0 0 0 0.168627 0 0 0 0 0.168627 0 0 0 0.08 0"/>
<feBlend mode="normal" in2="BackgroundImageFix" result="effect1_dropShadow_2719_4890"/>
<feBlend mode="normal" in="SourceGraphic" in2="effect1_dropShadow_2719_4890" result="shape"/>
</filter>
</defs>
</svg>
