<svg width="60" height="60" viewBox="0 0 60 60" fill="none" xmlns="http://www.w3.org/2000/svg">
<g filter="url(#filter0_d_2719_4923)">
<rect x="8" y="8" width="44" height="44" rx="12" fill="white"/>
</g>
<path d="M22.9933 19.3335H37.084C37.084 19.3335 35.9107 37.0095 30.0387 37.0095C27.172 37.0095 25.424 32.7908 24.3867 28.4762C23.3013 23.9575 22.9933 19.3335 22.9933 19.3335Z" stroke="#8D1B3D" stroke-width="1.5" stroke-linecap="round" stroke-linejoin="round"/>
<path d="M37.084 19.3335C37.084 19.3335 38.312 18.0228 39.3333 18.0001C41.3333 17.9548 41.7027 19.3335 41.7027 19.3335C42.0947 20.1468 42.408 22.2588 40.5293 24.2095C38.6507 26.1601 36.5467 27.8668 35.6907 28.4761M22.9933 19.3335C22.9933 19.3335 21.7133 18.0081 20.6667 18.0001C18.6667 17.9841 18.2973 19.3335 18.2973 19.3335C17.9053 20.1468 17.592 22.2588 19.4707 24.2095C20.9907 25.7629 22.6348 27.1898 24.3867 28.4761M25.3427 40.6668C25.3427 38.2281 30.0387 37.0095 30.0387 37.0095C30.0387 37.0095 34.736 38.2281 34.736 40.6668H25.3427Z" stroke="#8D1B3D" stroke-width="1.5" stroke-linecap="round" stroke-linejoin="round"/>
<defs>
<filter id="filter0_d_2719_4923" x="0" y="0" width="60" height="60" filterUnits="userSpaceOnUse" color-interpolation-filters="sRGB">
<feFlood flood-opacity="0" result="BackgroundImageFix"/>
<feColorMatrix in="SourceAlpha" type="matrix" values="0 0 0 0 0 0 0 0 0 0 0 0 0 0 0 0 0 0 127 0" result="hardAlpha"/>
<feOffset/>
<feGaussianBlur stdDeviation="4"/>
<feComposite in2="hardAlpha" operator="out"/>
<feColorMatrix type="matrix" values="0 0 0 0 0.168627 0 0 0 0 0.168627 0 0 0 0 0.168627 0 0 0 0.08 0"/>
<feBlend mode="normal" in2="BackgroundImageFix" result="effect1_dropShadow_2719_4923"/>
<feBlend mode="normal" in="SourceGraphic" in2="effect1_dropShadow_2719_4923" result="shape"/>
</filter>
</defs>
</svg>
