<svg width="60" height="60" viewBox="0 0 60 60" fill="none" xmlns="http://www.w3.org/2000/svg">
<g filter="url(#filter0_d_2719_4868)">
<rect x="8" y="8" width="44" height="44" rx="12" fill="white"/>
</g>
<path d="M40.5306 35.333H24.5306C23.2906 35.333 22.6706 35.333 22.1613 35.469C21.4831 35.6509 20.8646 36.0081 20.3682 36.5048C19.8718 37.0014 19.5149 37.62 19.3333 38.2983" stroke="#8D1B3D" stroke-width="1.5"/>
<path d="M24.6666 23.3332H35.3333M24.6666 27.9998H31.3333M27.3333 43.3332C23.5626 43.3332 21.676 43.3332 20.5053 42.1612C19.3333 40.9905 19.3333 39.1038 19.3333 35.3332V24.6665C19.3333 20.8958 19.3333 19.0092 20.5053 17.8385C21.676 16.6665 23.5626 16.6665 27.3333 16.6665H32.6666C36.4373 16.6665 38.324 16.6665 39.4946 17.8385C40.6666 19.0092 40.6666 20.8958 40.6666 24.6665M32.6666 43.3332C36.4373 43.3332 38.324 43.3332 39.4946 42.1612C40.6666 40.9905 40.6666 39.1038 40.6666 35.3332V29.9998" stroke="#8D1B3D" stroke-width="1.5" stroke-linecap="round"/>
<defs>
<filter id="filter0_d_2719_4868" x="0" y="0" width="60" height="60" filterUnits="userSpaceOnUse" color-interpolation-filters="sRGB">
<feFlood flood-opacity="0" result="BackgroundImageFix"/>
<feColorMatrix in="SourceAlpha" type="matrix" values="0 0 0 0 0 0 0 0 0 0 0 0 0 0 0 0 0 0 127 0" result="hardAlpha"/>
<feOffset/>
<feGaussianBlur stdDeviation="4"/>
<feComposite in2="hardAlpha" operator="out"/>
<feColorMatrix type="matrix" values="0 0 0 0 0.168627 0 0 0 0 0.168627 0 0 0 0 0.168627 0 0 0 0.08 0"/>
<feBlend mode="normal" in2="BackgroundImageFix" result="effect1_dropShadow_2719_4868"/>
<feBlend mode="normal" in="SourceGraphic" in2="effect1_dropShadow_2719_4868" result="shape"/>
</filter>
</defs>
</svg>
