<svg width="60" height="60" viewBox="0 0 60 60" fill="none" xmlns="http://www.w3.org/2000/svg">
<g filter="url(#filter0_d_2719_4879)">
<rect x="8" y="8" width="44" height="44" rx="12" fill="white"/>
</g>
<path d="M23.3333 30.0002C24.0697 30.0002 24.6667 29.4032 24.6667 28.6668C24.6667 27.9304 24.0697 27.3335 23.3333 27.3335C22.597 27.3335 22 27.9304 22 28.6668C22 29.4032 22.597 30.0002 23.3333 30.0002Z" fill="#8D1B3D"/>
<path d="M42.78 23.5842C42.6086 23.4607 42.4102 23.3798 42.2014 23.3481C41.9925 23.3163 41.7791 23.3346 41.5787 23.4015L39.3027 24.1589C39.1783 23.1938 38.7068 22.307 37.9764 21.6641C37.2459 21.0213 36.3064 20.6663 35.3334 20.6655H20.6667C18.4614 20.6655 16.6667 22.4615 16.6667 24.6655V32.6655C16.6667 34.8695 18.4614 36.6655 20.6667 36.6655H24.6667V38.1469L24.6774 38.2669C24.7654 39.2509 25.1854 40.1642 25.86 40.8375C26.6094 41.5869 27.608 42.0002 28.6654 42.0002C29.7227 42.0002 30.7214 41.5869 31.4707 40.8402C32.236 40.0709 32.668 39.0455 32.6654 38.0229V36.6669H35.332C36.3048 36.6647 37.2438 36.3093 37.9741 35.6667C38.7045 35.0241 39.1766 34.1381 39.3027 33.1735L41.5787 33.9309C41.9827 34.0695 42.432 33.9989 42.7787 33.7469C42.9501 33.6232 43.0897 33.4605 43.1859 33.2723C43.2822 33.084 43.3322 32.8756 43.332 32.6642V24.6642C43.332 24.4534 43.2819 24.2455 43.1859 24.0578C43.09 23.8701 42.9509 23.7077 42.78 23.5842ZM30 38.0309C29.988 38.3792 29.8401 38.7089 29.588 38.9495C29.4671 39.0707 29.3235 39.1669 29.1654 39.2325C29.0073 39.2981 28.8379 39.3318 28.6667 39.3318C28.4955 39.3318 28.326 39.2981 28.1679 39.2325C28.0098 39.1669 27.8662 39.0707 27.7454 38.9495C27.5034 38.7008 27.3574 38.3744 27.3334 38.0282V35.3335H30V38.0309ZM36.6667 32.6669C36.6667 33.0205 36.5262 33.3596 36.2762 33.6097C36.0261 33.8597 35.687 34.0002 35.3334 34.0002H20.6667C20.3131 34.0002 19.9739 33.8597 19.7239 33.6097C19.4738 33.3596 19.3334 33.0205 19.3334 32.6669V24.6669C19.3334 24.3132 19.4738 23.9741 19.7239 23.7241C19.9739 23.474 20.3131 23.3335 20.6667 23.3335H35.3334C35.687 23.3335 36.0261 23.474 36.2762 23.7241C36.5262 23.9741 36.6667 24.3132 36.6667 24.6669V32.6669ZM40.6667 30.8149C40.6667 30.8149 38.14 30.0082 38 30.0082V27.3255C38.14 27.3255 40.6667 26.5189 40.6667 26.5189V30.8149Z" fill="#8D1B3D"/>
<defs>
<filter id="filter0_d_2719_4879" x="0" y="0" width="60" height="60" filterUnits="userSpaceOnUse" color-interpolation-filters="sRGB">
<feFlood flood-opacity="0" result="BackgroundImageFix"/>
<feColorMatrix in="SourceAlpha" type="matrix" values="0 0 0 0 0 0 0 0 0 0 0 0 0 0 0 0 0 0 127 0" result="hardAlpha"/>
<feOffset/>
<feGaussianBlur stdDeviation="4"/>
<feComposite in2="hardAlpha" operator="out"/>
<feColorMatrix type="matrix" values="0 0 0 0 0.168627 0 0 0 0 0.168627 0 0 0 0 0.168627 0 0 0 0.08 0"/>
<feBlend mode="normal" in2="BackgroundImageFix" result="effect1_dropShadow_2719_4879"/>
<feBlend mode="normal" in="SourceGraphic" in2="effect1_dropShadow_2719_4879" result="shape"/>
</filter>
</defs>
</svg>
