<svg width="60" height="60" viewBox="0 0 60 60" fill="none" xmlns="http://www.w3.org/2000/svg">
<g filter="url(#filter0_d_2719_4934)">
<rect x="8" y="8" width="44" height="44" rx="12" fill="white"/>
</g>
<path d="M34.0297 19.104C34.0006 19.2128 33.9932 19.3262 34.0079 19.4378C34.0226 19.5494 34.0591 19.657 34.1154 19.7544C34.1717 19.8519 34.2467 19.9373 34.336 20.0059C34.4253 20.0744 34.5273 20.1246 34.636 20.1537C34.7447 20.1828 34.8581 20.1903 34.9697 20.1755C35.0813 20.1608 35.1889 20.1243 35.2864 20.068C35.3839 20.0117 35.4693 19.9367 35.5378 19.8474C35.6063 19.7581 35.6566 19.6562 35.6857 19.5474L36.4251 16.7874C36.4543 16.6786 36.4617 16.5652 36.4469 16.4535C36.4322 16.3418 36.3956 16.2341 36.3392 16.1366C36.2829 16.0391 36.2079 15.9536 36.1185 15.8851C36.0291 15.8165 35.9271 15.7663 35.8183 15.7372C35.7095 15.708 35.596 15.7006 35.4843 15.7154C35.3727 15.7301 35.265 15.7667 35.1675 15.8231C34.9705 15.9369 34.8268 16.1243 34.768 16.344L34.0297 19.104ZM42.32 17.68C42.4805 17.8407 42.5707 18.0586 42.5707 18.2857C42.5707 18.5129 42.4805 18.7307 42.32 18.8914L39.4629 21.7486C39.3838 21.8305 39.2893 21.8958 39.1847 21.9408C39.0802 21.9858 38.9677 22.0095 38.8539 22.0105C38.7401 22.0116 38.6272 21.9899 38.5218 21.9469C38.4165 21.9038 38.3207 21.8402 38.2402 21.7598C38.1597 21.6793 38.096 21.5837 38.0529 21.4784C38.0097 21.373 37.988 21.2602 37.9889 21.1464C37.9899 21.0326 38.0135 20.9201 38.0583 20.8155C38.1032 20.7109 38.1684 20.6163 38.2503 20.5372L41.1074 17.68C41.2681 17.5195 41.486 17.4293 41.7131 17.4293C41.9403 17.4293 42.1581 17.5195 42.3188 17.68M25.6331 41.0903C26.3368 42.263 27.4572 43.1269 28.7703 43.5092C30.0834 43.8916 31.4925 43.7642 32.7157 43.1526C33.9389 42.5409 34.8863 41.4902 35.3682 40.2103C35.8502 38.9304 35.8314 37.5157 35.3154 36.2492L39.6891 34.0629C40.1345 33.8402 40.5206 33.5149 40.8156 33.1137C41.1106 32.7125 41.3061 32.247 41.3859 31.7554C41.4657 31.2639 41.4276 30.7605 41.2746 30.2866C41.1217 29.8127 40.8583 29.3819 40.5063 29.0297L30.9714 19.4926C30.6193 19.1405 30.1885 18.8772 29.7146 18.7242C29.2407 18.5713 28.7372 18.5332 28.2457 18.613C27.7542 18.6928 27.2887 18.8882 26.8875 19.1832C26.4863 19.4782 26.161 19.8643 25.9383 20.3097L17.7611 36.6629C17.4664 37.2529 17.3647 37.9207 17.4705 38.5718C17.5764 39.2228 17.8844 39.824 18.3509 40.2903L19.7109 41.6503C20.1773 42.1166 20.7786 42.4244 21.4296 42.53C22.0806 42.6356 22.7484 42.5338 23.3383 42.2389L25.6331 41.0903ZM27.1749 40.32L33.7749 37.0194C34.0872 37.8762 34.0734 38.8179 33.7362 39.6651C33.399 40.5124 32.7619 41.206 31.9463 41.6138C31.1307 42.0216 30.1935 42.1151 29.3134 41.8765C28.4333 41.6379 27.6728 41.0839 27.1749 40.32ZM27.4686 21.0766C27.5698 20.8741 27.7177 20.6986 27.9 20.5644C28.0824 20.4303 28.294 20.3415 28.5175 20.3052C28.7409 20.2689 28.9698 20.2863 29.1852 20.3558C29.4007 20.4253 29.5965 20.5451 29.7566 20.7052L39.2926 30.2412C39.4526 30.4012 39.5724 30.5971 39.6419 30.8125C39.7115 31.0279 39.7288 31.2568 39.6925 31.4802C39.6563 31.7037 39.5674 31.9153 39.4333 32.0977C39.2992 32.2801 39.1236 32.4279 38.9211 32.5292L22.5714 40.7063C22.3032 40.8404 21.9997 40.8868 21.7037 40.8388C21.4077 40.7908 21.1343 40.6509 20.9223 40.4389L19.5623 39.0789C19.3503 38.8668 19.2104 38.5935 19.1624 38.2975C19.1144 38.0015 19.1607 37.6979 19.2949 37.4297L27.4686 21.0766ZM39.7143 25.1452C39.7143 24.9178 39.8046 24.6998 39.9653 24.5391C40.1261 24.3783 40.3441 24.288 40.5714 24.288H43.4286C43.6559 24.288 43.8739 24.3783 44.0347 24.5391C44.1954 24.6998 44.2857 24.9178 44.2857 25.1452C44.2857 25.3725 44.1954 25.5905 44.0347 25.7513C43.8739 25.912 43.6559 26.0023 43.4286 26.0023H40.5714C40.3441 26.0023 40.1261 25.912 39.9653 25.7513C39.8046 25.5905 39.7143 25.3725 39.7143 25.1452Z" fill="#8D1B3D"/>
<defs>
<filter id="filter0_d_2719_4934" x="0" y="0" width="60" height="60" filterUnits="userSpaceOnUse" color-interpolation-filters="sRGB">
<feFlood flood-opacity="0" result="BackgroundImageFix"/>
<feColorMatrix in="SourceAlpha" type="matrix" values="0 0 0 0 0 0 0 0 0 0 0 0 0 0 0 0 0 0 127 0" result="hardAlpha"/>
<feOffset/>
<feGaussianBlur stdDeviation="4"/>
<feComposite in2="hardAlpha" operator="out"/>
<feColorMatrix type="matrix" values="0 0 0 0 0.168627 0 0 0 0 0.168627 0 0 0 0 0.168627 0 0 0 0.08 0"/>
<feBlend mode="normal" in2="BackgroundImageFix" result="effect1_dropShadow_2719_4934"/>
<feBlend mode="normal" in="SourceGraphic" in2="effect1_dropShadow_2719_4934" result="shape"/>
</filter>
</defs>
</svg>
