<svg fill="none" xmlns="http://www.w3.org/2000/svg" viewBox="0 0 750 380.45"> <path d="M450.499 69.0062C416.446 63.9732 402.163 105.001 369.684 105.995C281.215 108.701 239.24 21.4482 145.52 79.7832C52.107 137.927 85.422 306.911 119.922 379.448H641.229C681.09 236.669 590.524 89.7022 450.499 69.0062Z" fill="#95E8B6"></path> <path d="M270.116 33.5472C272.635 71.2852 363.886 109.676 386.921 69.4512C416.366 18.0342 266.219 -24.8438 270.116 33.5472Z" fill="#8D1B3D"></path> <path d="M474.163 10.4522C457.366 28.6232 503.674 71.6362 555.175 93.4832C587.1 107.026 640.798 105.446 643.766 68.4292C646.426 35.2602 618.063 11.8232 563.706 11.7642C539.282 11.7372 496.576 -13.7948 474.163 10.4522Z" fill="#8D1B3D"></path> <path d="M750 379.448H0V380.448H750V379.448Z" fill="#1F160F"></path> <path d="M586.375 33.7682C586.361 33.7682 586.347 33.7672 586.332 33.7652L490.375 17.7722L394.418 33.7652C394.271 33.7892 394.144 33.6932 394.12 33.5522C394.097 33.4112 394.191 33.2782 394.332 33.2542L490.332 17.2542C490.361 17.2492 490.389 17.2492 490.418 17.2542L586.418 33.2542C586.559 33.2772 586.653 33.4112 586.63 33.5522C586.609 33.6782 586.5 33.7682 586.375 33.7682Z" fill="#1F160F"></path> <path d="M490.375 20.5093C492.032 20.5093 493.375 19.1661 493.375 17.5093C493.375 15.8524 492.032 14.5093 490.375 14.5093C488.718 14.5093 487.375 15.8524 487.375 17.5093C487.375 19.1661 488.718 20.5093 490.375 20.5093Z" fill="#496099"></path> <path d="M594.236 32.5093H394.236V142.509H594.236V32.5093Z" fill="white"></path> <path d="M446.736 96.0112H410.736C408.527 96.0112 406.736 94.2202 406.736 92.0112V56.0112H442.736V92.0112L446.736 96.0112Z" fill="#496099"></path> <path d="M437.736 62.0112H411.736V78.0112H437.736V62.0112Z" fill="white"></path> <path d="M437.736 75.3952C437.736 75.3952 433.869 70.1052 432.337 70.1052C430.806 70.1052 428.431 74.5742 427.868 74.5742C427.868 74.5742 421.493 69.3862 419.493 69.3862C418.023 69.3862 413.849 73.2182 411.735 75.2532V78.0112H437.735V75.3952H437.736Z" fill="#8D1B3D"></path> <path d="M429.679 67.0712C429.679 65.9332 428.757 65.0112 427.619 65.0112C426.481 65.0112 425.559 65.9332 425.559 67.0712C425.559 68.2092 426.481 69.1312 427.619 69.1312C428.757 69.1312 429.679 68.2092 429.679 67.0712Z" fill="#8D1B3D"></path> <path d="M419.736 82.8022H413.736V84.3022H419.736V82.8022Z" fill="white"></path> <path d="M435.736 87.5022H413.736V89.0022H435.736V87.5022Z" fill="white"></path> <path d="M454.736 80.0112H442.736V92.0112C442.736 94.2202 444.527 96.0112 446.736 96.0112C448.945 96.0112 450.736 94.2202 450.736 92.0112V84.0112L454.736 80.0112Z" fill="#8D1B3D"></path> <path d="M450.736 88.0112H458.736V84.0112C458.736 81.8022 456.945 80.0112 454.736 80.0112C452.527 80.0112 450.736 81.8022 450.736 84.0112V88.0112Z" fill="#496099"></path> <path d="M465.736 58.3223H457.736V61.3223H465.736V58.3223Z" fill="#8D1B3D"></path> <path d="M481.736 66.7593H457.736V69.7593H481.736V66.7593Z" fill="#8D1B3D"></path> <path d="M481.736 109.223H406.736V111.223H481.736V109.223Z" fill="#8D1B3D"></path> <path d="M481.736 121.141H406.736V123.141H481.736V121.141Z" fill="#8D1B3D"></path> <path d="M594.736 32.5093H393.736V38.5093H594.736V32.5093Z" fill="#496099"></path> <path d="M494.236 134.147C494.094 134.147 493.977 134.031 493.977 133.888V42.8274C493.977 42.6844 494.093 42.5684 494.236 42.5684C494.379 42.5684 494.495 42.6844 494.495 42.8274V133.888C494.495 134.031 494.379 134.147 494.236 134.147Z" fill="#1F160F"></path> <path d="M509.683 56.2483C511.064 56.2483 512.183 55.129 512.183 53.7483C512.183 52.3676 511.064 51.2483 509.683 51.2483C508.302 51.2483 507.183 52.3676 507.183 53.7483C507.183 55.129 508.302 56.2483 509.683 56.2483Z" fill="#8D1B3D"></path> <path d="M581.29 52.7483H523.29V54.7483H581.29V52.7483Z" fill="#F5E5C9"></path> <path d="M509.683 70.5112C511.064 70.5112 512.183 69.3919 512.183 68.0112C512.183 66.6305 511.064 65.5112 509.683 65.5112C508.302 65.5112 507.183 66.6305 507.183 68.0112C507.183 69.3919 508.302 70.5112 509.683 70.5112Z" fill="#8D1B3D"></path> <path d="M581.29 67.0112H523.29V69.0112H581.29V67.0112Z" fill="#F5E5C9"></path> <path d="M509.683 84.7732C511.064 84.7732 512.183 83.6539 512.183 82.2732C512.183 80.8925 511.064 79.7732 509.683 79.7732C508.302 79.7732 507.183 80.8925 507.183 82.2732C507.183 83.6539 508.302 84.7732 509.683 84.7732Z" fill="#8D1B3D"></path> <path d="M581.29 81.2732H523.29V83.2732H581.29V81.2732Z" fill="#F5E5C9"></path> <path d="M509.683 99.0354C511.064 99.0354 512.183 97.9161 512.183 96.5354C512.183 95.1547 511.064 94.0354 509.683 94.0354C508.302 94.0354 507.183 95.1547 507.183 96.5354C507.183 97.9161 508.302 99.0354 509.683 99.0354Z" fill="#8D1B3D"></path> <path d="M581.29 95.5354H523.29V97.5354H581.29V95.5354Z" fill="#F5E5C9"></path> <path d="M204.824 22.5242C204.824 31.9142 197.214 39.5242 187.824 39.5242C178.434 39.5242 170.824 31.9142 170.824 22.5242C170.824 13.1442 178.434 5.52417 187.824 5.52417V22.5242H204.824Z" fill="#8D1B3D"></path> <path d="M187.824 39.5242V22.5242L175.803 34.5452C178.879 37.6212 183.129 39.5242 187.824 39.5242Z" fill="#95E8B6"></path> <path d="M204.824 22.5242H187.824V39.5242C197.214 39.5242 204.824 31.9142 204.824 22.5242Z" fill="#496099"></path> <path d="M208.824 18.5242H191.824V1.52417C201.214 1.52417 208.824 9.14417 208.824 18.5242Z" fill="white"></path> <path d="M151.473 104.069H95.473C94.369 104.069 93.473 103.174 93.473 102.069V76.0691C93.473 74.9641 94.369 74.0691 95.473 74.0691H151.473C152.578 74.0691 153.473 74.9641 153.473 76.0691V102.069C153.473 103.173 152.578 104.069 151.473 104.069Z" fill="white"></path> <path d="M147.598 103.944V119.802L136.5 103.944H147.598Z" fill="white"></path> <path d="M116.473 81.0981H102.473V82.5981H116.473V81.0981Z" fill="#1F160F"></path> <path d="M144.473 86.4731H102.473V87.9731H144.473V86.4731Z" fill="#1F160F"></path> <path d="M144.473 92.5842H102.473V94.0842H144.473V92.5842Z" fill="#1F160F"></path> <path d="M309.846 29.5242H296.846V32.5242H309.846V29.5242Z" fill="white"></path> <path d="M339.846 38.5242H296.846V41.5242H339.846V38.5242Z" fill="white"></path> <path d="M407.975 268.792L432.975 245.792L457.975 268.792H407.975Z" fill="#1F160F"></path> <path d="M451.497 283.206H413.497V239.206C413.497 236.997 415.288 235.206 417.497 235.206H455.497L451.497 239.206V283.206Z" fill="white"></path> <path d="M463.497 259.206H451.497V239.206C451.497 236.997 453.288 235.206 455.497 235.206C457.706 235.206 459.497 236.997 459.497 239.206V255.206L463.497 259.206Z" fill="#8D1B3D"></path> <path d="M467.497 247.206H459.497V255.206C459.497 257.415 461.288 259.206 463.497 259.206C465.706 259.206 467.497 257.415 467.497 255.206V247.206Z" fill="white"></path> <path d="M430.497 243.203H418.497V247.203H430.497V243.203Z" fill="#56545E"></path> <path d="M446.497 252.221H418.497V253.221H446.497V252.221Z" fill="#56545E"></path> <path d="M446.497 256.238H418.497V257.238H446.497V256.238Z" fill="#56545E"></path> <path d="M438.497 260.255H418.497V261.255H438.497V260.255Z" fill="#56545E"></path> <path d="M455.975 294.792H409.975C408.87 294.792 407.975 293.897 407.975 292.792V268.792H457.975V292.792C457.975 293.896 457.08 294.792 455.975 294.792Z" fill="#8D1B3D"></path> <path d="M452.05 288.682C451.998 288.682 451.946 288.666 451.901 288.634L441.599 281.335C441.482 281.253 441.454 281.091 441.538 280.975C441.62 280.859 441.783 280.83 441.898 280.913L452.2 288.212C452.317 288.294 452.345 288.456 452.261 288.572C452.211 288.644 452.131 288.682 452.05 288.682Z" fill="#1F160F"></path> <path d="M432.976 288.051C432.921 288.051 432.866 288.033 432.82 287.998L408.175 269.268C408.061 269.181 408.039 269.019 408.125 268.906C408.211 268.791 408.373 268.77 408.487 268.856L432.976 287.467L457.465 268.856C457.579 268.771 457.741 268.792 457.827 268.906C457.913 269.019 457.891 269.181 457.777 269.268L433.131 287.998C433.086 288.033 433.03 288.051 432.976 288.051Z" fill="#1F160F"></path> <path d="M413.9 288.682C413.819 288.682 413.739 288.644 413.689 288.573C413.606 288.457 413.633 288.295 413.751 288.213L424.054 280.914C424.17 280.831 424.333 280.859 424.414 280.976C424.497 281.092 424.47 281.254 424.352 281.336L414.049 288.635C414.005 288.667 413.952 288.682 413.9 288.682Z" fill="#1F160F"></path> <path d="M84.367 157.182C60.563 164.073 91.287 236.616 91.287 236.616C91.287 236.616 77.562 221.448 67.576 229.575C46.914 246.388 106.166 305.761 106.166 305.761C134.875 284.073 137.188 223.627 121.958 220.844C114.565 219.493 109.353 228.761 109.353 228.761C109.353 228.761 110.86 149.513 84.367 157.182Z" fill="#8D1B3D"></path> <path d="M106.422 303.688C106.472 306.648 106.512 309.628 106.512 312.628C106.512 312.768 106.392 312.888 106.252 312.888C106.102 312.888 105.992 312.768 105.992 312.628C105.992 309.618 105.962 306.618 105.902 303.638C105.472 301.958 94.292 258.378 67.412 229.718C67.462 229.668 67.522 229.618 67.572 229.578C67.652 229.518 67.732 229.448 67.812 229.388C91.802 254.968 103.312 292.358 105.862 301.478C104.252 231.868 88.202 171.568 84.112 157.258C84.192 157.228 84.272 157.198 84.362 157.178C84.442 157.158 84.532 157.128 84.612 157.118C88.722 171.528 104.902 232.318 106.392 302.328C108.462 296.818 116.912 271.828 121.702 220.808C121.782 220.818 121.872 220.828 121.962 220.848C122.042 220.868 122.132 220.878 122.212 220.908C116.822 278.278 106.802 302.778 106.422 303.688Z" fill="#1F160F"></path> <path d="M120.011 379.448H92.53C90.961 379.448 89.658 378.24 89.539 376.676L84.27 307.448H128.27L123.002 376.676C122.883 378.24 121.579 379.448 120.011 379.448Z" fill="white"></path> <path d="M123.615 368.618H88.926L88.965 369.136H123.576L123.615 368.618Z" fill="#1F160F"></path> <path d="M124.42 358.047H88.121L88.161 358.564H124.38L124.42 358.047Z" fill="#1F160F"></path> <path d="M126.207 334.564H86.334L86.373 335.082H126.167L126.207 334.564Z" fill="#1F160F"></path> <path d="M127.509 317.448L128.27 307.448H84.27L85.032 317.448H127.509Z" fill="#1F160F"></path> <path d="M89.539 376.934C89.405 376.934 89.292 376.831 89.282 376.695L84.232 310.348C84.221 310.205 84.328 310.081 84.47 310.071C84.603 310.049 84.737 310.167 84.747 310.309L89.796 376.656C89.807 376.799 89.7 376.923 89.558 376.933C89.552 376.934 89.545 376.934 89.539 376.934Z" fill="#1F160F"></path> <path d="M130.27 307.448H82.27V315.448H130.27V307.448Z" fill="white"></path> <path d="M695.347 301.152C695.275 307.545 694.523 315.692 689.75 314.761C684.625 313.761 689.5 299.355 682.984 294.808L695.347 301.152Z" fill="#1F160F"></path> <path d="M656.471 306.126C666.812 305.776 675.653 302.026 677.508 300.134C679.086 298.524 676.953 295.448 676.953 295.448C682.625 294.01 693 301.152 695.347 301.152C695.347 301.152 695.812 282.152 680.251 281.139C680.251 281.139 685.466 277.652 679.751 276.119C665.814 272.379 653.102 294.118 656.471 306.126Z" fill="#8D1B3D"></path> <path d="M694.92 296.358C694.83 295.788 694.71 295.198 694.56 294.578C691.61 289.448 687.31 286.338 681.7 285.288C683.33 285.008 686.41 284.778 690.33 285.858C690.12 285.618 689.9 285.378 689.66 285.148C689.66 285.148 689.66 285.148 689.65 285.148C684.45 283.908 680.84 284.908 680.31 285.068C680.11 285.048 679.91 285.028 679.71 284.998C675.08 284.548 670.18 286.428 665.91 290.308C665.49 290.688 665.05 291.108 664.59 291.588C666.29 288.128 671.12 279.668 679.04 275.948C678.75 275.888 678.45 275.838 678.16 275.798C668.66 280.678 663.76 292.078 663.42 292.868C658.68 298.428 652.87 309.228 652.87 328.828C652.87 328.968 652.98 329.078 653.12 329.078C653.27 329.078 653.38 328.968 653.38 328.828C653.38 309.608 659 298.948 663.65 293.408C664.62 294.488 669.01 298.948 676.93 300.618C677.14 300.468 677.31 300.328 677.45 300.198C669.24 298.588 664.8 293.938 663.99 293.008C664.79 292.088 665.56 291.318 666.26 290.688C670.42 286.908 675.17 285.078 679.66 285.518C679.82 285.528 679.97 285.548 680.13 285.568C680.42 286.588 682.09 292.048 685.65 297.008C685.96 297.138 686.28 297.268 686.59 297.408C682.93 292.618 681.13 287.108 680.69 285.638C687.13 286.568 691.89 290.168 694.92 296.358Z" fill="#1F160F"></path> <path d="M670.038 203.896C680.75 211.011 665.5 237.357 665.5 237.357C665.5 237.357 674.08 232.6 675.636 238.323C679.375 252.073 650.482 276.553 650.482 276.553C650.482 276.553 626.083 248.773 636.307 232.054C640.5 225.198 648.125 233.196 648.125 233.196C654.625 198.198 670.038 203.896 670.038 203.896Z" fill="#8D1B3D"></path> <path d="M675.7 238.608C668.98 246.168 656.22 254.628 653.49 256.398C655.22 246.428 657.26 238.128 659.22 231.478C659.66 230.018 660.09 228.608 660.53 227.248C661.37 226.948 666.46 225.088 672.05 222.488C672.11 222.268 672.18 222.048 672.25 221.828C667.08 224.248 662.25 226.068 660.73 226.628C664.45 215.218 668.16 207.778 670.25 204.048L670.04 203.898C670.04 203.898 669.95 203.868 669.79 203.818H669.78C667.69 207.558 663.99 214.968 660.29 226.308C659.5 224.358 657.11 218.338 655.36 211.998C655.24 212.188 655.12 212.398 654.99 212.608C656.99 219.668 659.69 226.228 660.04 227.068C659.61 228.418 659.17 229.828 658.74 231.298C656.76 237.988 654.71 246.338 652.97 256.368C651.18 254.178 642.77 243.358 639.02 229.598C638.86 229.648 638.7 229.728 638.54 229.818C642.61 244.618 652.01 256.028 652.86 257.048C649.74 275.368 647.69 299.248 649.05 328.838C649.06 328.978 649.17 329.078 649.31 329.078C649.32 329.078 649.32 329.078 649.32 329.078C649.47 329.078 649.58 328.958 649.57 328.808C648.2 299.238 650.26 275.388 653.38 257.088C654.82 256.168 668.52 247.288 675.83 239.248C675.8 239.028 675.76 238.818 675.7 238.608Z" fill="#1F160F"></path> <path d="M604.297 308.527C608.075 311.761 624.915 291.413 624.915 291.413C624.915 291.413 620.984 300.977 624.915 301.636C632 302.824 630.209 292.667 635.949 295.995C641.688 299.323 647.538 297.009 646.817 291.738C645.563 282.573 633.805 269.886 617.438 271.372C607.673 272.259 613.909 278.761 613.909 278.761C598.141 281.729 595.938 301.37 604.297 308.527Z" fill="#8D1B3D"></path> <path d="M635.98 281.678C635.05 280.978 626.53 274.858 612.25 273.558C612.16 273.718 612.09 273.878 612.05 274.048C623.2 275.048 630.82 278.988 634.03 280.978C631.6 280.258 629.03 279.978 626.41 280.208C622.05 280.598 617.38 282.528 613.4 286.478C612.73 286.518 606.95 286.868 600.84 289.558C600.75 289.788 600.67 290.008 600.6 290.228C605.94 287.778 611.11 287.178 612.86 287.038C608.63 291.518 605.27 298.408 604.06 308.318C604.14 308.388 604.22 308.458 604.3 308.528C604.38 308.588 604.46 308.648 604.54 308.698C605.71 298.638 609.11 291.698 613.38 287.238C613.96 288.878 615.94 295.188 615.09 302.108C615.28 301.918 615.47 301.728 615.66 301.538C616.38 294.378 614.22 287.998 613.79 286.828C617.66 282.978 622.21 281.098 626.45 280.728C629.64 280.448 632.73 280.938 635.58 282.068C634.86 283.858 633.19 286.568 631.26 289.698C628.85 293.608 626.2 297.908 624.67 301.588C624.75 301.608 624.83 301.628 624.91 301.638C625.01 301.658 625.1 301.668 625.19 301.678C626.71 298.058 629.32 293.818 631.7 289.968C633.64 286.828 635.32 284.098 636.05 282.268C641.99 284.808 646.78 290.178 648.86 297.248C648.9 297.388 649.04 297.458 649.18 297.418C649.32 297.378 649.39 297.238 649.35 297.098C647.19 289.768 642.19 284.218 635.98 281.678Z" fill="#1F160F"></path> <path d="M661.531 346.035C661.531 341.153 664.687 337.792 664.687 325.448H651.968H639.25C639.25 337.792 642.406 341.153 642.406 346.035C642.406 350.917 629.018 366.542 642.228 379.448H661.709C674.919 366.542 661.531 350.917 661.531 346.035Z" fill="white"></path> <path d="M667.082 370.258L659.814 362.676C659.716 362.572 659.539 362.572 659.441 362.676L651.964 370.481L644.485 362.676C644.387 362.572 644.21 362.572 644.112 362.676L636.855 370.252C636.901 370.452 636.943 370.652 636.996 370.852L644.298 363.229L651.777 371.034C651.875 371.138 652.052 371.138 652.15 371.034L659.627 363.229L666.94 370.858C666.993 370.657 667.036 370.458 667.082 370.258Z" fill="#1F160F"></path> <path d="M666.417 359.2L659.814 352.312C659.716 352.208 659.539 352.208 659.441 352.312L651.964 360.117L644.485 352.312C644.387 352.208 644.21 352.208 644.112 352.312L637.525 359.188C637.423 359.535 637.326 359.885 637.234 360.239L644.298 352.865L651.777 360.67C651.875 360.773 652.052 360.773 652.15 360.67L659.627 352.865L666.706 360.251C666.615 359.896 666.519 359.546 666.417 359.2Z" fill="#1F160F"></path> <path d="M640.296 336.312L644.297 332.135L651.776 339.94C651.874 340.043 652.051 340.043 652.149 339.94L659.626 332.135L663.638 336.321C663.681 336.121 663.722 335.913 663.763 335.704L659.812 331.582C659.714 331.479 659.537 331.479 659.439 331.582L651.962 339.387L644.483 331.582C644.385 331.479 644.208 331.479 644.11 331.582L640.17 335.695C640.213 335.903 640.253 336.112 640.296 336.312Z" fill="#1F160F"></path> <path d="M661.71 379.707C661.643 379.707 661.575 379.681 661.525 379.629C661.424 379.526 661.426 379.363 661.529 379.263C671.266 369.749 666.423 358.882 663.218 351.692C662.131 349.253 661.272 347.326 661.272 346.036C661.272 344.115 661.739 342.47 662.33 340.387C663.265 337.092 664.429 332.991 664.429 325.449C664.429 325.306 664.545 325.19 664.688 325.19C664.831 325.19 664.947 325.306 664.947 325.449C664.947 333.063 663.772 337.202 662.829 340.528C662.249 342.572 661.791 344.187 661.791 346.036C661.791 347.217 662.63 349.099 663.692 351.482C666.756 358.358 671.886 369.868 661.891 379.634C661.841 379.682 661.775 379.707 661.71 379.707Z" fill="#1F160F"></path> <path d="M573.649 346.136L576.288 371.698L569.554 377.511L561.04 373.785L557.498 346.035L573.649 346.136Z" fill="#EBA38D"></path> <path d="M568.94 372.077C566.924 372.077 563.409 373.342 562.424 372.901C561.44 372.46 559.552 362.135 559.552 362.135C558.44 365.073 559.552 379.448 559.552 379.448H577.818C577.846 368.823 575.299 362.135 575.299 362.135C575.661 367.749 575.033 373.698 573.626 373.182C572.222 372.667 570.803 372.077 568.94 372.077Z" fill="#1F160F"></path> <path d="M504.991 361.327L507.757 346.135H524.749L522.132 362.135L511.374 371.148L506.541 375.197H484.478L484.026 372.076C492.604 370.136 503.441 368.331 504.991 361.327Z" fill="#EBA38D"></path> <path d="M484.027 372.077C490.229 375.573 500.744 374.201 506.854 369.062C511.291 365.33 515.194 362.135 522.132 362.135C525.356 368.823 521.235 373.76 522.539 379.448H517.167L515.708 373.573L511.357 377.805C510.274 378.859 508.822 379.448 507.311 379.448H478.355C478.036 374.778 480.161 372.884 484.027 372.077Z" fill="#1F160F"></path> <path d="M578.338 355.167C578.338 355.167 571.109 262.409 570.618 254.945C570.127 247.481 575.565 231.945 572.122 213.586H512.877C507.44 273.04 505.406 354.564 505.406 354.564C505.406 354.564 517.586 357.863 526.607 355.33L538.002 256.947C538.002 256.947 550.195 333.65 555.065 356.01C555.065 356.01 566.384 357.526 578.338 355.167Z" fill="#8D1B3D"></path> <path d="M538.003 257.207C537.86 257.207 537.745 257.092 537.744 256.95C537.743 256.833 537.66 245.258 536.412 238.8C536.04 238.733 535.068 238.582 533.828 238.582C533.685 238.582 533.569 238.466 533.569 238.323C533.569 238.18 533.685 238.064 533.828 238.064C535.477 238.064 536.64 238.315 536.688 238.326C536.789 238.348 536.866 238.428 536.886 238.528C538.176 245 538.26 256.828 538.261 256.946C538.262 257.09 538.147 257.206 538.004 257.207H538.003Z" fill="#1F160F"></path> <path d="M520.097 350.779C520.084 350.779 520.072 350.778 520.059 350.776C519.918 350.755 519.821 350.624 519.841 350.482L536.377 238.541C536.396 238.4 536.529 238.299 536.671 238.323C536.812 238.344 536.909 238.475 536.889 238.617L520.352 350.558C520.334 350.686 520.224 350.779 520.097 350.779Z" fill="#1F160F"></path> <path d="M562.201 350.775C558.933 350.775 556.778 350.616 556.733 350.612C556.59 350.601 556.484 350.477 556.495 350.335C556.507 350.192 556.632 350.076 556.772 350.097C556.871 350.104 566.621 350.825 576.244 349.162C576.38 349.135 576.518 349.231 576.543 349.373C576.567 349.514 576.473 349.647 576.332 349.672C571.158 350.565 565.947 350.775 562.201 350.775Z" fill="#1F160F"></path> <path d="M517.921 350.894C512.358 350.894 507.479 350.235 507.405 350.224C507.263 350.204 507.165 350.075 507.184 349.933C507.203 349.791 507.331 349.687 507.475 349.712C507.584 349.727 518.492 351.198 526.235 349.714C526.382 349.692 526.511 349.779 526.538 349.919C526.565 350.06 526.473 350.195 526.333 350.222C523.709 350.726 520.727 350.894 517.921 350.894Z" fill="#1F160F"></path> <path d="M570.625 350.227C570.496 350.227 570.385 350.131 570.368 350C566.474 319.034 563.459 233.724 563.428 232.865C563.423 232.722 563.535 232.602 563.678 232.597C563.838 232.593 563.941 232.704 563.946 232.847C563.975 233.704 566.99 318.992 570.881 349.935C570.899 350.077 570.798 350.206 570.656 350.224C570.646 350.226 570.636 350.227 570.625 350.227Z" fill="#1F160F"></path> <path d="M566.877 233.932C564.962 233.932 561.346 233.094 559.041 227.357C558.988 227.224 559.052 227.074 559.185 227.02C559.321 226.968 559.468 227.032 559.522 227.163C562.586 234.794 567.969 233.307 568.021 233.293C568.158 233.254 568.301 233.331 568.342 233.468C568.382 233.606 568.304 233.749 568.167 233.789C568.15 233.795 567.653 233.932 566.877 233.932Z" fill="#1F160F"></path> <path d="M572.123 213.587C572.435 215.248 572.652 216.877 572.829 218.488C557.435 221.627 526.222 220.257 512.573 216.912C512.675 215.797 512.777 214.687 512.878 213.587H572.123Z" fill="#1F160F"></path> <path d="M623.232 123.159C623.501 118.776 646.693 103.3 646.693 103.3L676.079 139.356L680.909 146.254L672.781 151.945L623.232 123.159Z" fill="#1F160F"></path> <path d="M672.781 151.944L653.057 165.755L623.232 123.159L651.083 103.657L676.079 139.355L672.781 151.944Z" fill="#8D1B3D"></path> <path d="M650.256 116.365L635.511 126.69L638.952 131.605L653.698 121.28L650.256 116.365Z" fill="#8D1B3D"></path> <path d="M672.781 151.944C675.277 150.196 678.633 143.003 676.079 139.355C676.079 139.355 673.258 142.246 670.102 143.54C670.102 143.54 673.447 148.481 672.781 151.944Z" fill="white"></path> <path d="M622.063 159.839L628.86 154.319C628.86 154.319 629.876 147.58 630.719 146.214C631.563 144.848 634.978 141.763 636.063 141.526C644.36 139.721 647.359 141.76 647.359 141.76C647.319 145.579 643.188 143.94 639.391 146.213L647.659 157.999C647.659 157.999 645.75 162.448 637.938 165.156C634.655 166.294 629.354 171.442 629.354 171.442L622.063 159.839Z" fill="#EBA38D"></path> <path d="M639.391 146.472C639.303 146.472 639.217 146.427 639.169 146.346C639.096 146.223 639.135 146.065 639.258 145.991C640.775 145.083 642.312 144.789 643.667 144.53C645.671 144.147 647.012 143.891 647.097 141.908C646.471 141.58 643.299 140.218 636.118 141.779C635.976 141.812 635.841 141.72 635.81 141.581C635.78 141.441 635.869 141.303 636.008 141.273C644.316 139.465 647.379 141.46 647.505 141.546C647.576 141.595 647.619 141.676 647.618 141.763C647.591 144.307 645.817 144.646 643.764 145.038C642.451 145.289 640.962 145.574 639.524 146.435C639.481 146.461 639.436 146.472 639.391 146.472Z" fill="#1F160F"></path> <path d="M647.659 158.258C647.578 158.258 647.498 158.219 647.447 158.148L639.342 146.595L638.532 147.281C639.7 150.781 638.532 155.948 638.481 156.17C638.45 156.308 638.316 156.4 638.171 156.364C638.031 156.332 637.944 156.193 637.977 156.054C637.989 156 639.2 150.643 637.986 147.287C637.949 147.185 637.979 147.072 638.062 147.002L639.223 146.018C639.279 145.971 639.352 145.952 639.423 145.958C639.495 145.967 639.56 146.007 639.602 146.066L647.871 157.852C647.953 157.969 647.925 158.13 647.807 158.212C647.763 158.243 647.711 158.258 647.659 158.258Z" fill="#1F160F"></path> <path d="M460.937 161.343C460.937 161.343 453.913 156.715 451.61 155.347C447.701 153.024 445.144 151.697 440.651 151.561C436.809 151.445 429.954 153.379 429.954 153.379C429.455 154.237 430.411 155.33 430.411 155.33C430.411 155.33 422.814 156.196 421.825 156.963C420.91 157.673 421.227 158.468 421.227 158.468C418.645 158.735 419.275 161.155 420.776 161.29C420.625 162.19 420.989 162.872 421.886 162.916C422.72 162.957 424.839 162.917 424.839 162.917C424.731 163.335 424.864 164.152 425.487 164.172C425.94 164.187 430.856 163.618 432.922 163.512C434.126 163.45 441.125 163.705 442.518 164.148C443.649 164.508 453.625 171.823 453.625 171.823L460.937 161.343Z" fill="#EBA38D"></path> <path d="M424.84 163.175C424.698 163.175 424.581 163.06 424.581 162.917C424.576 161.143 433.056 160.564 433.141 160.558C433.282 160.554 433.407 160.657 433.415 160.799C433.425 160.942 433.316 161.065 433.174 161.074C428.241 161.399 425.096 162.381 425.098 162.914C425.098 163.057 424.983 163.173 424.84 163.174V163.175Z" fill="#1F160F"></path> <path d="M420.777 161.548C420.774 161.548 420.771 161.548 420.768 161.548C420.624 161.543 420.513 161.423 420.518 161.28C420.584 159.411 430.048 158.675 432.947 158.494C433.119 158.481 433.214 158.594 433.221 158.736C433.231 158.879 433.122 159.002 432.98 159.01C427.262 159.367 421.07 160.343 421.036 161.298C421.031 161.438 420.916 161.548 420.777 161.548Z" fill="#1F160F"></path> <path d="M421.227 158.726C421.125 158.726 421.028 158.665 420.987 158.564C420.934 158.432 420.998 158.281 421.131 158.227C423.679 157.195 432.641 156.638 433.022 156.614C433.162 156.596 433.288 156.714 433.295 156.857C433.304 157 433.195 157.122 433.053 157.131C432.961 157.136 423.795 157.706 421.325 158.707C421.293 158.721 421.26 158.726 421.227 158.726Z" fill="#1F160F"></path> <path d="M430.411 155.589C430.305 155.589 430.205 155.523 430.167 155.416C430.119 155.281 430.19 155.134 430.325 155.086C432.424 154.346 440.138 153.655 440.467 153.626C440.612 153.617 440.736 153.719 440.747 153.861C440.76 154.004 440.654 154.129 440.512 154.142C440.433 154.149 432.534 154.855 430.497 155.575C430.469 155.584 430.439 155.589 430.411 155.589Z" fill="#1F160F"></path> <path d="M445.508 164.612C445.419 164.612 445.332 164.566 445.284 164.484C445.212 164.36 445.254 164.202 445.378 164.13C445.427 164.102 450.307 161.228 452.122 157.816C452.189 157.69 452.348 157.643 452.472 157.709C452.599 157.776 452.647 157.933 452.579 158.059C450.694 161.602 445.844 164.457 445.638 164.578C445.597 164.6 445.553 164.612 445.508 164.612Z" fill="#1F160F"></path> <path d="M441.16 161.393C441.114 161.393 441.069 161.381 441.027 161.356C440.993 161.335 437.597 159.26 438.26 155.545C438.285 155.404 438.411 155.312 438.561 155.335C438.702 155.36 438.795 155.495 438.77 155.635C438.171 158.993 441.166 160.834 441.294 160.91C441.416 160.984 441.456 161.142 441.383 161.265C441.334 161.348 441.248 161.393 441.16 161.393Z" fill="#1F160F"></path> <path d="M569.726 214.926C526.823 217.238 514.448 213.846 514.448 213.846C515.778 170.726 513.469 136.823 513.469 136.823C518.831 134.471 523.456 132.944 534.426 132.604C542.176 132.354 544.199 132.472 547.442 132.741C552.132 133.13 563.378 135.514 563.378 135.514C570.107 163.032 569.726 214.926 569.726 214.926Z" fill="white"></path> <path d="M459.422 159.261L486.25 175.629C491.687 165.409 506.594 140.386 513.469 136.824C517.781 134.59 521.118 133.334 527.62 132.951C526.384 143.317 526.076 149.901 524.938 155.802C523.782 161.796 522.382 170.801 523.378 174.808C524.131 177.836 522.348 250.056 518.955 269.025C516.195 284.454 502.796 284.304 502.796 284.304C512.021 225.746 512.525 181.98 512.525 181.98C511.987 179.618 511.604 177.398 511.333 175.386C511.333 175.386 500.122 196.941 487.939 197.818C476.712 198.626 450.525 173.424 450.525 173.424C454.154 164.398 459.422 159.261 459.422 159.261Z" fill="#496099"></path> <path d="M575.468 284.303C575.468 284.303 554.969 285.56 553.34 269.024C550.293 238.105 548.856 194.498 546.251 179.646C542.702 159.412 551.168 133.22 551.168 133.22C559.501 134.443 570.582 136.643 574.941 138.51C578.751 140.142 590.157 157.657 596.765 175.76C596.765 175.76 614.499 162.76 622.414 158.286C627.008 163.19 632.405 172.766 632.405 172.766C620.261 183.971 603.772 200.138 591.883 201.051C582.946 201.737 573.848 178.377 573.848 178.377C573.848 178.377 574.5 246.696 575.468 284.303Z" fill="#496099"></path> <path d="M511.332 175.644C511.195 175.644 511.081 175.537 511.073 175.398C510.533 164.774 512.373 158.747 513.716 154.347C514.139 152.962 514.504 151.766 514.734 150.633C514.763 150.493 514.895 150.398 515.04 150.431C515.18 150.459 515.27 150.596 515.242 150.736C515.008 151.894 514.639 153.101 514.212 154.499C512.88 158.863 511.056 164.839 511.592 175.373C511.599 175.516 511.489 175.637 511.346 175.644C511.341 175.644 511.336 175.644 511.332 175.644Z" fill="#1F160F"></path> <path d="M490.375 184.582C490.264 184.582 490.161 184.51 490.127 184.398C490.11 184.341 488.39 178.723 486.048 175.79C485.959 175.678 485.977 175.516 486.089 175.426C486.201 175.336 486.364 175.355 486.452 175.467C488.856 178.479 490.552 184.014 490.623 184.248C490.664 184.385 490.587 184.529 490.45 184.571C490.425 184.578 490.399 184.582 490.375 184.582Z" fill="#1F160F"></path> <path d="M591.883 184.644C591.867 184.644 591.851 184.642 591.834 184.639C591.693 184.612 591.602 184.476 591.629 184.336C591.67 184.123 592.683 179.085 596.592 175.567C596.696 175.471 596.861 175.479 596.957 175.587C597.053 175.693 597.044 175.857 596.938 175.952C593.162 179.35 592.147 184.384 592.137 184.433C592.112 184.558 592.005 184.644 591.883 184.644Z" fill="#1F160F"></path> <path d="M570.564 233.117C569.737 233.117 562.53 232.824 556.157 222.964C556.08 222.844 556.114 222.684 556.234 222.606C556.355 222.532 556.515 222.564 556.592 222.683C563.043 232.663 570.517 232.6 570.617 232.599C570.619 232.599 570.621 232.599 570.624 232.599C570.764 232.599 570.879 232.71 570.883 232.851C570.887 232.994 570.775 233.113 570.631 233.117C570.62 233.116 570.597 233.117 570.564 233.117Z" fill="#1F160F"></path> <path d="M510.375 233.116C510.287 233.116 510.2 233.07 510.152 232.988C510.08 232.865 510.121 232.707 510.244 232.634C510.297 232.603 515.544 229.444 517.123 222.763C517.156 222.623 517.292 222.535 517.435 222.571C517.574 222.604 517.66 222.744 517.627 222.883C515.995 229.785 510.56 233.048 510.506 233.08C510.465 233.104 510.42 233.116 510.375 233.116Z" fill="#1F160F"></path> <path d="M573.848 178.636C573.711 178.636 573.597 178.529 573.589 178.391C573.582 178.255 572.855 164.763 572.026 159.882C572.002 159.741 572.096 159.608 572.238 159.584C572.384 159.56 572.512 159.656 572.536 159.796C573.371 164.707 574.099 178.228 574.107 178.364C574.114 178.507 574.005 178.629 573.862 178.636C573.856 178.636 573.852 178.636 573.848 178.636Z" fill="#1F160F"></path> <path d="M537.15 180.733C533.796 180.733 529.474 180.414 525.179 179.197C525.041 179.158 524.961 179.015 525 178.878C525.039 178.74 525.181 178.661 525.319 178.699C534.203 181.216 543.212 179.845 543.302 179.831C543.454 179.808 543.575 179.906 543.598 180.046C543.619 180.187 543.524 180.319 543.382 180.341C543.336 180.35 540.822 180.733 537.15 180.733Z" fill="#1F160F"></path> <path d="M524.948 123.176C522.899 127.337 522.193 133.433 522.193 133.433C524.948 144.948 535.521 158.352 547.188 155.382C567.809 150.132 567.833 136.381 567.833 136.381C572.28 123.176 565.14 120.578 565.14 120.578C568.094 89.2851 550.161 77.1251 534.355 80.1141C513.251 84.1051 522.176 111.668 522.176 111.668L524.948 123.176Z" fill="#8D1B3D"></path> <path d="M537.99 133.132C535.317 133.132 532.524 132.797 529.65 132.004C529.511 131.966 529.431 131.823 529.468 131.686C529.506 131.548 529.65 131.467 529.786 131.505C548.327 136.613 563.52 122.429 563.672 122.285C563.776 122.186 563.941 122.19 564.038 122.294C564.137 122.398 564.133 122.561 564.029 122.66C563.9 122.784 552.824 133.132 537.99 133.132Z" fill="#1F160F"></path> <path d="M547.68 123.457C547.61 123.457 547.539 123.428 547.489 123.372C547.392 123.266 547.401 123.102 547.507 123.006C547.631 122.894 559.837 111.548 553.216 92.8331C553.168 92.6981 553.239 92.5501 553.374 92.5021C553.509 92.4571 553.656 92.5251 553.704 92.6601C560.443 111.71 547.981 123.275 547.854 123.39C547.804 123.435 547.742 123.457 547.68 123.457Z" fill="#1F160F"></path> <path d="M535.447 133.034C535.31 133.034 535.197 132.928 535.188 132.79C535.186 132.749 534.955 128.648 535.14 125.852C535.15 125.71 535.279 125.599 535.415 125.611C535.558 125.62 535.665 125.744 535.655 125.886C535.472 128.651 535.702 132.719 535.705 132.76C535.713 132.903 535.603 133.025 535.461 133.033C535.457 133.034 535.452 133.034 535.447 133.034Z" fill="#1F160F"></path> <path d="M546.769 148.909C545.372 148.909 543.905 148.784 542.363 148.515C542.222 148.491 542.129 148.356 542.153 148.216C542.177 148.075 542.304 147.976 542.453 148.006C554.557 150.117 562.002 143.125 567.138 136.8C567.23 136.689 567.392 136.672 567.502 136.762C567.613 136.852 567.63 137.015 567.54 137.126C562.964 142.759 556.581 148.909 546.769 148.909Z" fill="#1F160F"></path> <path d="M521.042 108.027C521.284 121.872 523.544 127.008 533.219 126.839C542.885 126.67 549.994 121.371 549.753 107.526C549.511 93.6911 540.501 89.1911 535.075 89.2861C529.639 89.3801 520.801 94.1921 521.042 108.027Z" fill="#EBA38D"></path> <path d="M532.186 114.422C531.741 114.422 531.265 114.266 530.809 113.961C530.326 113.637 529.845 113.106 529.861 112.65C529.87 112.409 530.007 112.046 530.214 111.498C530.602 110.471 531.188 108.918 531.16 107.368C531.157 107.225 531.271 107.107 531.414 107.105C531.416 107.105 531.419 107.105 531.419 107.105C531.56 107.105 531.675 107.218 531.678 107.359C531.706 109.009 531.1 110.616 530.699 111.68C530.538 112.108 530.385 112.512 530.38 112.667C530.374 112.823 530.621 113.21 531.099 113.53C531.365 113.708 532.051 114.089 532.692 113.799C532.82 113.741 532.975 113.797 533.034 113.928C533.094 114.058 533.036 114.212 532.905 114.271C532.681 114.372 532.438 114.422 532.186 114.422Z" fill="#1F160F"></path> <path d="M525.997 106.225C526.012 107.082 526.487 107.769 527.059 107.759C527.63 107.749 528.082 107.046 528.067 106.189C528.052 105.332 527.576 104.645 527.005 104.655C526.433 104.665 525.982 105.368 525.997 106.225Z" fill="#1F160F"></path> <path d="M524.403 103.605C524.122 103.605 523.851 103.452 523.713 103.186C523.516 102.806 523.664 102.337 524.045 102.14C525.576 101.347 526.899 101.189 528.767 101.574C529.187 101.661 529.456 102.071 529.369 102.491C529.283 102.911 528.88 103.178 528.452 103.095C526.735 102.74 525.796 102.981 524.76 103.519C524.646 103.577 524.523 103.605 524.403 103.605Z" fill="#1F160F"></path> <path d="M537.771 105.977C537.786 106.834 537.335 107.537 536.763 107.547C536.191 107.557 535.716 106.87 535.701 106.013C535.686 105.156 536.137 104.453 536.709 104.443C537.28 104.433 537.756 105.12 537.771 105.977Z" fill="#1F160F"></path> <path d="M539.359 103.266C539.222 103.266 539.083 103.229 538.957 103.153C537.936 102.532 536.922 102.246 534.756 102.627C534.343 102.699 533.933 102.419 533.858 101.997C533.784 101.575 534.066 101.172 534.489 101.098C536.79 100.692 538.223 100.89 539.764 101.826C540.13 102.049 540.246 102.526 540.024 102.892C539.878 103.134 539.622 103.266 539.359 103.266Z" fill="#1F160F"></path> <path d="M530.654 117.837C533.04 117.409 534.717 116.929 536.418 115.889C536.418 115.889 537.585 119.531 534.721 120.127C532.502 120.59 530.654 117.837 530.654 117.837Z" fill="#1F160F"></path> <path d="M536.554 118.365C536.368 119.155 535.874 119.888 534.722 120.128C533.755 120.329 532.859 119.92 532.155 119.395C533.316 118.142 534.753 117.793 536.554 118.365Z" fill="#CC4E49"></path> <path d="M522.193 96.4791C531.419 91.0731 547.679 97.0291 547.679 97.0291C547.679 97.0291 545.828 88.4631 532.421 88.4631C524.9 88.4641 522.193 96.4791 522.193 96.4791Z" fill="#1F160F"></path> <path d="M549.625 111.252C549.625 101.198 541.34 90.3832 531.951 90.3832C526.423 90.3832 521.5 99.1622 521.112 105.384C521.112 105.384 518.186 86.3252 533.031 86.3252C557.939 86.3262 549.625 111.252 549.625 111.252Z" fill="#8D1B3D"></path> <path d="M361.858 371.149H344.841L342.777 353.823H359.769L361.858 371.149Z" fill="#EBA38D"></path> <path d="M344.159 365.425C345.995 366.726 354.33 367.197 355.752 366.208C357.087 365.28 353.846 363.333 359.971 363.333C361.627 363.333 362.053 364.972 364.172 366.352C369.393 369.753 383.811 370.106 386.569 370.682C390.435 371.489 392.56 374.779 392.242 379.449H366.768C363.44 379.449 354.112 378.011 354.112 378.011V379.448H345.109C342.935 375.003 344.159 365.425 344.159 365.425Z" fill="#1F160F"></path> <path d="M392.215 377.442C392.275 378.078 392.29 378.745 392.242 379.448H366.768C363.44 379.448 354.112 378.01 354.112 378.01V379.448H345.109C344.613 378.432 344.299 377.144 344.102 375.768C358.567 374.758 361.534 377.328 392.215 377.442Z" fill="#56545E"></path> <path d="M305.864 369.711H289.046L290.111 352.698H307.671L305.864 369.711Z" fill="#EBA38D"></path> <path d="M297.472 363.332C304.721 363.332 302.059 366.479 303.247 366.735C305.403 367.2 306.254 365.425 306.254 365.425C306.254 365.425 308.296 373.921 305.865 379.448H288.718C286.734 373.635 289.315 365.425 289.315 365.425C289.315 365.425 289.481 367.167 291.315 366.829C293.255 366.47 289.845 363.332 297.472 363.332Z" fill="#1F160F"></path> <path d="M288.012 375.552C288.893 377.167 291.827 377.448 297.158 377.448C302.491 377.448 305.5 376.45 306.873 375.546C306.7 376.908 306.392 378.248 305.864 379.448H288.717C288.299 378.223 288.092 376.891 288.012 375.552Z" fill="#56545E"></path> <path d="M358.99 222.823H299.745C297.203 233.104 299.466 243.525 298.975 250.988C298.484 258.452 288.718 357.505 288.718 357.505C294.83 360.075 311.991 358.161 311.991 358.161L329.273 266.448L341.419 356.895C347.701 359.292 361.857 356.479 361.857 356.479C360.495 255.112 360.5 255.29 358.99 222.823Z" fill="white"></path> <path d="M329.273 266.707C329.253 266.707 329.234 266.705 329.214 266.7C329.075 266.667 328.989 266.528 329.022 266.388C329.091 266.096 335.92 237.077 336.444 229.991C336.454 229.848 336.594 229.731 336.721 229.753C336.864 229.764 336.971 229.888 336.96 230.03C336.433 237.155 329.595 266.215 329.526 266.508C329.497 266.627 329.391 266.707 329.273 266.707Z" fill="#1F160F"></path> <path d="M333.683 254.047C333.183 254.047 332.665 253.941 332.13 253.729C331.997 253.676 331.932 253.526 331.984 253.393C332.037 253.26 332.186 253.194 332.32 253.248C333.422 253.684 334.395 253.619 335.299 253.046C338.288 251.156 340.283 243.865 341.069 231.963C341.079 231.82 341.212 231.703 341.344 231.722C341.487 231.731 341.595 231.854 341.585 231.997C341.029 240.418 339.535 250.98 335.576 253.484C334.982 253.858 334.349 254.047 333.683 254.047Z" fill="#1F160F"></path> <path d="M303.691 241.051C303.548 241.051 303.433 240.936 303.433 240.792C303.433 240.649 303.548 240.533 303.691 240.533C303.966 240.532 310.444 240.409 312.906 231.3C312.944 231.162 313.085 231.083 313.223 231.117C313.361 231.154 313.443 231.297 313.406 231.434C310.836 240.94 303.762 241.051 303.691 241.051Z" fill="#1F160F"></path> <path d="M307.423 297.162C304.94 297.162 302.985 296.97 302.832 296.955C302.69 296.94 302.586 296.813 302.601 296.671C302.615 296.529 302.748 296.427 302.884 296.44C302.956 296.448 310.014 297.141 314.476 295.891C314.613 295.849 314.756 295.933 314.795 296.071C314.834 296.208 314.753 296.351 314.616 296.389C312.433 297 309.705 297.162 307.423 297.162Z" fill="#1F160F"></path> <path d="M343.248 296.422C342.545 296.422 342.093 296.401 342.033 296.399C341.89 296.391 341.78 296.27 341.787 296.128C341.794 295.985 341.903 295.875 342.058 295.882C342.107 295.886 347.024 296.114 350.592 294.984C350.728 294.943 350.874 295.016 350.917 295.153C350.96 295.29 350.885 295.434 350.749 295.478C348.155 296.297 344.96 296.422 343.248 296.422Z" fill="#1F160F"></path> <path d="M358.99 222.823C359.072 224.581 359.178 226.553 359.303 228.69C346.247 232.682 313.835 234.195 298.938 230.055C298.934 227.663 299.146 225.24 299.744 222.823H358.99Z" fill="#1F160F"></path> <path d="M341.286 136.322L322.658 136.703V118.291H341.286V136.322Z" fill="#EBA38D"></path> <path d="M341.286 130.661V118.291H322.658C322.658 118.291 324.158 132.068 341.286 130.661Z" fill="#1F160F"></path> <path d="M322.656 84.8071C329.908 79.1821 341.969 80.1191 342.175 83.2131C353.715 82.4311 352.234 95.0721 348.343 105.479C347.514 108.768 349.658 110.072 347.411 113.996L318.896 113.432C312.66 92.5731 316.125 86.0261 322.656 84.8071Z" fill="#1F160F"></path> <path d="M349.224 109.673C348.982 123.518 346.722 128.654 337.047 128.485C327.381 128.316 320.272 123.017 320.513 109.172C320.754 95.3371 329.765 90.8371 335.191 90.9321C340.627 91.0271 349.465 95.8391 349.224 109.673Z" fill="#EBA38D"></path> <path d="M314.579 108.234C315.178 103.737 318.318 102.579 321.551 106.044L321.376 116.095C317.274 119.375 313.981 112.731 314.579 108.234Z" fill="#EBA38D"></path> <path d="M316.125 108.629C316.101 108.629 316.075 108.626 316.05 108.618C315.913 108.577 315.836 108.432 315.877 108.296C316.202 107.216 316.848 106.548 317.697 106.414C318.628 106.266 319.674 106.809 320.356 107.793C320.437 107.911 320.408 108.072 320.291 108.153C320.175 108.233 320.012 108.206 319.931 108.088C319.361 107.265 318.516 106.806 317.778 106.925C317.127 107.028 316.641 107.554 316.372 108.445C316.339 108.556 316.236 108.629 316.125 108.629Z" fill="#1F160F"></path> <path d="M329.754 97.3761C336.729 96.9011 346.781 98.2461 348 96.4481C349.719 93.9121 348.566 88.0601 336.411 87.8481C321.216 87.5831 320.758 102.863 320.848 105.361C320.948 108.153 322.453 112.542 322.983 110.648C325.547 101.497 328.428 103.913 329.754 97.3761Z" fill="#1F160F"></path> <path d="M340.48 119.667C338.063 120.197 335.882 119.817 334.456 118.816C334.456 118.816 334.6 121.161 336.375 121.48C338.808 121.917 340.48 119.667 340.48 119.667Z" fill="white"></path> <path d="M338.08 116.068C337.828 116.068 337.586 116.018 337.363 115.917C337.233 115.858 337.175 115.705 337.234 115.574C337.294 115.444 337.447 115.385 337.577 115.445C338.218 115.737 338.903 115.354 339.169 115.176C339.646 114.856 339.893 114.47 339.888 114.313C339.883 114.158 339.73 113.754 339.569 113.326C339.167 112.262 338.561 110.654 338.59 109.005C338.592 108.863 338.708 108.751 338.849 108.751H338.853C338.996 108.754 339.11 108.872 339.107 109.014C339.08 110.565 339.666 112.117 340.053 113.144C340.26 113.693 340.397 114.055 340.406 114.295C340.422 114.751 339.941 115.283 339.458 115.607C339.001 115.911 338.525 116.068 338.08 116.068Z" fill="#1F160F"></path> <path d="M344.269 107.872C344.254 108.729 343.779 109.416 343.207 109.406C342.636 109.396 342.184 108.693 342.199 107.836C342.214 106.979 342.69 106.292 343.261 106.302C343.833 106.311 344.284 107.014 344.269 107.872Z" fill="#1F160F"></path> <path d="M345.863 105.252C345.742 105.252 345.62 105.224 345.506 105.165C344.47 104.627 343.535 104.384 341.814 104.741C341.396 104.824 340.983 104.558 340.897 104.137C340.811 103.717 341.081 103.306 341.501 103.22C343.37 102.835 344.695 102.994 346.222 103.787C346.602 103.985 346.75 104.453 346.553 104.834C346.414 105.099 346.143 105.252 345.863 105.252Z" fill="#1F160F"></path> <path d="M332.495 107.623C332.48 108.48 332.931 109.183 333.503 109.193C334.075 109.203 334.55 108.516 334.565 107.659C334.58 106.802 334.129 106.099 333.557 106.089C332.985 106.079 332.51 106.766 332.495 107.623Z" fill="#1F160F"></path> <path d="M330.906 104.913C330.644 104.913 330.388 104.78 330.241 104.539C330.019 104.173 330.135 103.695 330.502 103.473C332.043 102.537 333.471 102.34 335.777 102.744C336.199 102.818 336.482 103.221 336.407 103.643C336.332 104.065 335.929 104.344 335.508 104.273C333.333 103.89 332.354 104.163 331.307 104.799C331.182 104.876 331.043 104.913 330.906 104.913Z" fill="#1F160F"></path> <path d="M297.954 271.017H277.954C276.3 271.017 274.954 269.671 274.954 268.017V260.017C274.954 258.363 276.3 257.017 277.954 257.017H297.954C299.608 257.017 300.954 258.363 300.954 260.017V268.017C300.954 269.672 299.608 271.017 297.954 271.017ZM277.954 259.017C277.403 259.017 276.954 259.465 276.954 260.017V268.017C276.954 268.569 277.403 269.017 277.954 269.017H297.954C298.505 269.017 298.954 268.569 298.954 268.017V260.017C298.954 259.465 298.505 259.017 297.954 259.017H277.954Z" fill="#1F160F"></path> <path d="M296.828 256.017H278.828C278.276 256.017 277.828 256.465 277.828 257.017V259.017C277.828 259.569 278.276 260.017 278.828 260.017H296.828C297.38 260.017 297.828 259.569 297.828 259.017V257.017C297.828 256.465 297.38 256.017 296.828 256.017Z" fill="#56545E"></path> <path d="M319.953 306.895H255.953C254.296 306.895 252.953 305.552 252.953 303.895V269.895C252.953 268.238 254.296 266.895 255.953 266.895H319.953C321.61 266.895 322.953 268.238 322.953 269.895V303.895C322.953 305.552 321.61 306.895 319.953 306.895Z" fill="#56545E"></path> <path d="M288.026 286.719C287.997 286.719 287.971 286.719 287.942 286.719C276.326 286.697 264.825 282.276 254.683 273.93C254.573 273.839 254.557 273.676 254.648 273.566C254.739 273.455 254.901 273.441 255.012 273.53C275.416 290.321 300.66 290.32 320.893 273.531C321.002 273.44 321.166 273.456 321.257 273.565C321.348 273.674 321.333 273.837 321.223 273.929C311.14 282.297 299.661 286.719 288.026 286.719Z" fill="#1F160F"></path> <path d="M287.953 294.276C286.848 294.276 285.953 293.381 285.953 292.276V282.276H289.953V292.276C289.953 293.381 289.058 294.276 287.953 294.276Z" fill="#1F160F"></path> <path d="M287.953 285.167C288.505 285.167 288.953 284.72 288.953 284.167C288.953 283.615 288.505 283.167 287.953 283.167C287.401 283.167 286.953 283.615 286.953 284.167C286.953 284.72 287.401 285.167 287.953 285.167Z" fill="white"></path> <path d="M294.938 266.244C294.938 266.244 295.975 262.868 296.481 261.539C297.28 259.472 297.139 257.582 297.029 256.391C296.919 255.2 294.481 248.733 294.429 247.572C294.321 245.168 294.292 242.908 294.327 240.792L281.204 241.063C281.175 243.551 281.215 245.905 281.324 248.046C281.687 255.171 281.529 260.145 281.803 260.416C282.738 261.336 283.995 261.096 283.995 261.096C284.637 261.951 287.077 261.914 287.077 261.914C288.231 262.591 290.12 262.45 290.12 262.45C291.628 262.98 292.919 262.502 292.919 262.502C292.919 262.502 292.189 265.55 294.938 266.244Z" fill="#EBA38D"></path> <path d="M292.916 262.764C292.889 262.764 292.861 262.76 292.834 262.75C292.699 262.705 292.626 262.558 292.671 262.423C293.432 260.154 293.757 255.778 293.76 255.734C293.77 255.591 293.897 255.471 294.036 255.495C294.179 255.505 294.286 255.629 294.275 255.771C294.262 255.954 293.942 260.257 293.16 262.587C293.125 262.696 293.025 262.764 292.916 262.764Z" fill="#1F160F"></path> <path d="M290.124 262.711C290.099 262.711 290.074 262.707 290.049 262.7C289.912 262.658 289.835 262.513 289.876 262.377C290.051 261.8 290.184 260.779 290.185 260.77C290.203 260.627 290.339 260.537 290.475 260.546C290.617 260.565 290.717 260.694 290.698 260.836C290.693 260.88 290.558 261.908 290.371 262.527C290.338 262.638 290.236 262.711 290.124 262.711Z" fill="#1F160F"></path> <path d="M287.081 262.175C287.064 262.175 287.046 262.173 287.029 262.17C286.889 262.141 286.799 262.005 286.827 261.864L287.119 260.43C287.148 260.291 287.283 260.205 287.424 260.228C287.564 260.257 287.654 260.393 287.626 260.534L287.334 261.968C287.309 262.09 287.201 262.175 287.081 262.175Z" fill="#1F160F"></path> <path d="M283.996 261.354C283.976 261.354 283.956 261.352 283.936 261.347C283.797 261.314 283.711 261.174 283.744 261.035L283.984 260.021C284.017 259.882 284.154 259.796 284.295 259.829C284.434 259.862 284.52 260.002 284.487 260.141L284.247 261.155C284.22 261.274 284.113 261.354 283.996 261.354Z" fill="#1F160F"></path> <path d="M426.151 131.606C425.685 131.26 425.117 131.38 425.117 131.38C424.946 129.67 423.276 129.386 423.276 129.386C423.276 129.386 423.839 128.693 423.787 128.42C423.656 127.727 423.179 126.818 421.98 126.664C421.674 126.625 420.388 127.391 420.388 127.391C420.388 127.391 420.255 127.352 420.045 127.291C421.5 124.778 424.442 119.629 425.088 117.965C425.718 116.34 423.4 115.499 422.293 117.011C421.835 117.636 417.927 123.969 416.431 126.397C415.587 126.235 414.848 126.147 414.515 126.245C413.492 126.548 410.765 129.317 410.152 130.306C409.538 131.295 408.723 135.059 408.723 135.059L402.175 143.499L411.072 150.874C411.072 150.874 416.765 143.636 417.719 143.295C418.673 142.954 424.276 139.341 424.855 138.318C425.435 137.295 426.798 132.902 426.798 132.902C426.798 132.902 426.974 132.216 426.151 131.606Z" fill="#EBA38D"></path> <path d="M417.516 139.223C417.498 139.223 417.481 139.221 417.463 139.218C417.323 139.189 417.233 139.052 417.263 138.912C418.039 135.157 415.303 132.951 415.276 132.929C415.233 132.895 415.202 132.849 415.187 132.797C414.965 132.017 415.998 130.11 416.207 129.736C416.256 129.648 416.347 129.604 416.451 129.604C416.474 129.606 418.858 129.778 420.286 130.016C420.984 130.135 421.776 129.893 422.352 129.389C422.704 129.083 422.922 128.715 422.973 128.355L416.368 126.647C416.229 126.611 416.146 126.47 416.182 126.332C416.217 126.194 416.361 126.109 416.497 126.146L423.307 127.907C423.419 127.936 423.498 128.035 423.501 128.15C423.517 128.732 423.229 129.31 422.691 129.779C422.002 130.382 421.045 130.667 420.2 130.527C419.012 130.329 417.141 130.176 416.578 130.133C416.139 130.947 415.626 132.129 415.672 132.588C416.137 132.998 418.533 135.322 417.769 139.017C417.744 139.139 417.636 139.223 417.516 139.223Z" fill="#1F160F"></path> <path d="M416.432 130.121C416.369 130.121 416.307 130.099 416.258 130.054C415.725 129.569 415.79 128.078 415.809 127.784C415.817 127.642 415.937 127.546 416.082 127.542C416.225 127.551 416.333 127.674 416.324 127.816C416.285 128.444 416.346 129.435 416.605 129.671C416.711 129.767 416.718 129.931 416.623 130.037C416.572 130.093 416.502 130.121 416.432 130.121Z" fill="#1F160F"></path> <path d="M414.556 133.138C414.355 133.138 414.201 133.123 414.165 133.12C414.022 133.105 413.92 132.978 413.935 132.836C413.95 132.694 414.079 132.587 414.218 132.605C414.426 132.626 415.025 132.649 415.317 132.497C415.444 132.431 415.6 132.481 415.666 132.607C415.732 132.733 415.683 132.89 415.556 132.956C415.267 133.106 414.857 133.138 414.556 133.138Z" fill="#1F160F"></path> <path d="M416.432 134.082C416.337 134.082 416.247 134.03 416.201 133.939C416.137 133.812 416.188 133.656 416.316 133.592C417.632 132.933 422.951 129.255 423.005 129.218C423.123 129.138 423.283 129.167 423.365 129.283C423.446 129.401 423.417 129.562 423.3 129.643C423.08 129.795 417.898 133.378 416.549 134.054C416.511 134.074 416.471 134.082 416.432 134.082Z" fill="#1F160F"></path> <path d="M418.101 136.179C417.616 136.179 417.279 135.983 417.257 135.971C417.135 135.898 417.095 135.739 417.167 135.617C417.241 135.494 417.399 135.454 417.522 135.527C417.542 135.538 418.063 135.833 418.695 135.518C419.114 135.309 423.365 132.308 424.967 131.169C425.083 131.086 425.244 131.114 425.327 131.23C425.41 131.347 425.383 131.508 425.265 131.591C424.672 132.012 419.456 135.715 418.924 135.981C418.628 136.13 418.345 136.179 418.101 136.179Z" fill="#1F160F"></path> <path d="M420.423 137.123C420.057 137.123 419.75 137.007 419.509 136.777C419.009 136.299 419.002 135.501 419.002 135.466C419.002 135.323 419.117 135.208 419.26 135.208C419.403 135.208 419.519 135.323 419.52 135.465C419.52 135.471 419.528 136.08 419.869 136.404C420.023 136.55 420.234 136.618 420.481 136.604C420.645 136.559 422.651 135.698 422.859 135.572C423.031 135.467 425.215 133.794 426.641 132.696C426.753 132.61 426.917 132.629 427.004 132.743C427.091 132.856 427.07 133.018 426.957 133.106C426.589 133.389 423.358 135.876 423.125 136.016C423.013 136.083 420.744 137.109 420.505 137.12C420.477 137.122 420.449 137.123 420.423 137.123Z" fill="#1F160F"></path> <path d="M423.992 138.183C423.92 138.183 423.847 138.153 423.797 138.094C423.787 138.083 422.846 137.003 421.818 136.514C421.689 136.452 421.634 136.298 421.696 136.169C421.757 136.04 421.91 135.985 422.041 136.046C423.169 136.583 424.147 137.707 424.188 137.755C424.282 137.863 424.27 138.026 424.162 138.12C424.112 138.162 424.052 138.183 423.992 138.183Z" fill="#1F160F"></path> <path d="M400.696 143.871L404.406 139.839L414.192 148.839L410.852 153.268L400.696 143.871Z" fill="white"></path> <path d="M294.614 241.058L294.654 246.538L281.019 246.637L280.778 241.117L294.614 241.058Z" fill="white"></path> <path d="M300.901 179.646L298.223 228.088C327.457 231.76 360.323 227.008 360.323 227.008C358.993 183.888 357.883 170.799 357.883 170.799C357.883 170.799 373.25 191.622 379.75 188.831C392.18 183.495 411.728 153.47 411.728 153.47C407.299 147.954 400.466 142.989 400.466 142.989L380.947 165.28C368.375 144.11 359.903 136.159 355.653 135.619C351.033 135.039 344.493 134.279 333.523 133.939C325.773 133.689 304.513 133.539 298.483 138.199C291.733 143.409 282.09 163.177 278.75 194.308C277.527 205.706 277.62 238.796 279.344 240.792C280.39 242.003 295.737 241.624 295.737 241.624C295.998 237.124 296.893 199.971 297.298 197.82C298.545 191.194 300.901 179.646 300.901 179.646Z" fill="#8D1B3D"></path> <path d="M341.286 134.281C341.286 138.667 339.737 141.698 334.379 141.698C329.021 141.698 322.658 139.262 322.658 133.837C322.658 133.837 328.602 133.604 332.746 133.604C336.89 133.604 341.286 134.281 341.286 134.281Z" fill="#EBA38D"></path> <path d="M319.128 134.162C321.344 153.124 334.868 164.385 334.868 164.385C345.75 150.822 344.654 138.71 344.827 134.516L341.287 130.297C341.287 138.416 337.633 141.811 334.38 141.432C330.5 140.979 322.659 139.203 322.659 129.885L319.128 134.162Z" fill="white"></path> <path d="M338.866 143.659C337.613 142.723 336.061 142.064 334.02 142.064C332.35 142.064 330.983 142.42 329.838 142.972C330.485 145.043 331.655 146.838 332.86 147.798C332.006 151.332 331.385 156.235 330.968 160.404C333.213 163.005 334.868 164.386 334.868 164.386C336.223 162.697 337.392 161.03 338.402 159.399C337.656 154.643 336.757 150.085 336.27 147.715C337.381 146.731 338.445 145.052 338.866 143.659Z" fill="#496099"></path> <path d="M357.883 171.058C357.743 171.058 357.629 170.947 357.624 170.807C357.451 165.065 357.081 152.55 357.081 152.55L357.598 152.534C357.598 152.534 357.969 165.049 358.141 170.791C358.145 170.934 358.033 171.053 357.89 171.058C357.888 171.058 357.885 171.058 357.883 171.058Z" fill="#1F160F"></path> <path d="M297.298 198.079C297.268 198.079 297.236 198.073 297.207 198.062C297.181 198.052 294.56 197.072 291.288 196.671C291.146 196.653 291.045 196.524 291.062 196.383C291.08 196.241 291.207 196.141 291.35 196.158C294.687 196.566 297.363 197.568 297.39 197.578C297.524 197.629 297.591 197.778 297.541 197.912C297.5 198.015 297.402 198.079 297.298 198.079Z" fill="#1F160F"></path> <path d="M300.901 179.905C300.886 179.905 300.872 179.904 300.857 179.901C300.716 179.878 300.621 179.744 300.645 179.603C303.522 162.544 304.858 152.143 304.871 152.04C304.889 151.898 305.023 151.803 305.16 151.816C305.302 151.834 305.402 151.964 305.384 152.106C305.371 152.209 304.034 162.621 301.154 179.689C301.135 179.816 301.025 179.905 300.901 179.905Z" fill="#1F160F"></path> <path d="M376.562 176.144C376.541 176.144 376.518 176.141 376.496 176.135C376.357 176.098 376.275 175.956 376.312 175.818C376.391 175.524 378.269 168.564 380.737 165.128C380.821 165.012 380.983 164.985 381.098 165.069C381.213 165.152 381.241 165.314 381.157 165.43C378.744 168.789 376.831 175.881 376.812 175.952C376.781 176.068 376.677 176.144 376.562 176.144Z" fill="#1F160F"></path> <path d="M323.707 149.07C323.632 149.07 323.558 149.038 323.507 148.975C323.417 148.864 323.433 148.701 323.543 148.611C324.014 148.226 324.493 147.624 325.047 146.927C326.766 144.766 329.12 141.806 334.02 141.806C338.576 141.806 340.842 145.014 342.497 147.357C342.772 147.747 343.034 148.118 343.291 148.454C343.378 148.568 343.356 148.73 343.243 148.817C343.129 148.902 342.967 148.882 342.88 148.769C342.619 148.428 342.353 148.051 342.074 147.656C340.396 145.281 338.308 142.325 334.02 142.325C329.369 142.325 327.105 145.172 325.452 147.25C324.879 147.97 324.385 148.592 323.871 149.013C323.823 149.05 323.765 149.07 323.707 149.07Z" fill="#1F160F"></path> <path d="M335.063 171.957C335.048 171.957 335.034 171.955 335.02 171.953C334.932 171.938 334.858 171.879 334.824 171.797C332.683 166.598 319.26 154.388 319.125 154.265C319.069 154.214 319.039 154.142 319.04 154.067C319.042 153.992 319.077 153.921 319.135 153.874L321.589 151.856L318.588 151.255C318.505 151.238 318.436 151.182 318.402 151.105C314.531 142.278 315.319 134.934 315.328 134.861C315.344 134.719 315.471 134.61 315.614 134.634C315.756 134.65 315.858 134.779 315.842 134.92C315.834 134.992 315.072 142.137 318.822 150.774L322.226 151.456C322.324 151.476 322.402 151.55 322.426 151.647C322.45 151.744 322.417 151.846 322.339 151.91L319.694 154.084C321.478 155.716 332.68 166.081 335.135 171.224C336.742 169.374 345.149 159.476 346.528 153.317L344.172 151.193C344.09 151.118 344.064 150.999 344.108 150.897C344.152 150.795 344.25 150.732 344.368 150.743L347.864 151.051C348.309 150.283 350.526 145.876 349.818 135.493C349.808 135.35 349.916 135.227 350.059 135.217C350.184 135.212 350.325 135.314 350.335 135.458C351.132 147.137 348.333 151.3 348.214 151.471C348.161 151.547 348.072 151.583 347.979 151.581L345.094 151.327L346.987 153.033C347.055 153.095 347.086 153.188 347.067 153.278C345.632 160.177 335.68 171.396 335.256 171.871C335.206 171.925 335.136 171.957 335.063 171.957Z" fill="#1F160F"></path> <path d="M335.785 230.269C335.783 230.269 335.782 230.269 335.78 230.269C335.637 230.266 335.523 230.148 335.526 230.005C335.534 229.58 336.346 187.325 334.61 165.3C334.599 165.157 334.705 165.033 334.847 165.022C335.002 165.015 335.114 165.118 335.125 165.259C336.863 187.31 336.051 229.592 336.043 230.015C336.04 230.157 335.925 230.269 335.785 230.269Z" fill="#1F160F"></path> <path d="M353.909 208.918C351.512 208.918 348.333 208.519 347.637 207.758C346.703 206.736 346.805 201.379 346.82 200.772C346.823 200.646 346.917 200.54 347.042 200.522L358.68 198.825C358.814 198.802 358.952 198.902 358.973 199.044C358.994 199.186 358.896 199.316 358.754 199.337L347.333 201.003C347.294 203.237 347.441 206.776 348.02 207.409C348.81 208.272 354.866 208.701 356.22 208.177C357.602 207.642 359.103 206.098 359.118 206.082C359.217 205.978 359.381 205.977 359.484 206.075C359.587 206.175 359.589 206.339 359.49 206.441C359.425 206.507 357.896 208.083 356.407 208.659C355.956 208.833 355.016 208.918 353.909 208.918Z" fill="#1F160F"></path> <path d="M315.049 210.95C312.671 210.95 307.694 208.345 306.563 207.167C305.373 205.927 305.588 201.084 305.617 200.535C305.62 200.466 305.652 200.401 305.704 200.355C305.755 200.309 305.828 200.278 305.894 200.291C316.404 201.024 327.602 200.799 327.714 200.796C327.758 200.792 327.855 200.822 327.905 200.875C327.955 200.927 327.981 200.997 327.977 201.069C327.963 201.307 327.633 206.909 326.658 208.176C325.614 209.533 317.321 210.903 315.115 210.949C315.093 210.949 315.071 210.95 315.049 210.95ZM306.122 200.825C306.063 202.419 306.109 205.946 306.936 206.808C307.991 207.907 312.825 210.432 315.045 210.432C315.065 210.432 315.084 210.432 315.104 210.431C317.665 210.377 325.435 208.916 326.248 207.86C326.938 206.964 327.327 203.07 327.443 201.318C325.653 201.347 315.648 201.475 306.122 200.825Z" fill="#1F160F"></path> <path d="M230.816 371.149H213.8L213.609 353.823H230.601L230.816 371.149Z" fill="#D1795C"></path> <path d="M261.578 379.448H214.445C212.272 375.003 213.768 366.845 213.768 366.845C215.605 368.146 224.351 369.606 225.41 368.236C226.469 366.866 226.675 362.85 229.432 362.85C232.189 362.85 231.675 366.006 233.507 367.748C235.34 369.489 253.146 371.502 255.904 372.078C259.771 372.884 261.896 374.778 261.578 379.448Z" fill="#1F160F"></path> <path d="M232.387 370.948C232.3 370.948 232.216 370.905 232.167 370.826C232.092 370.705 232.129 370.545 232.25 370.47C232.308 370.434 233.689 369.58 236.162 368.569C236.295 368.513 236.445 368.578 236.499 368.711C236.553 368.843 236.49 368.994 236.358 369.048C233.93 370.042 232.537 370.901 232.523 370.91C232.481 370.935 232.434 370.948 232.387 370.948Z" fill="white"></path> <path d="M235.949 371.513C235.85 371.513 235.756 371.456 235.713 371.36C235.655 371.23 235.713 371.077 235.844 371.018C237.226 370.4 238.702 369.841 240.233 369.359C240.369 369.319 240.515 369.391 240.557 369.528C240.6 369.665 240.524 369.81 240.388 369.853C238.877 370.329 237.419 370.88 236.055 371.491C236.02 371.506 235.984 371.513 235.949 371.513Z" fill="white"></path> <path d="M261.543 377.448C261.612 378.053 261.629 378.712 261.579 379.448H214.446C214.149 378.842 213.926 378.163 213.753 377.448H261.543Z" fill="white"></path> <path d="M175.146 369.711H158.327L161.235 352.698H178.795L175.146 369.711Z" fill="#D1795C"></path> <path d="M167.321 362.85C171.852 362.85 171.583 366.197 172.833 366.828C174.802 367.823 175.782 366.748 175.782 366.748C175.782 366.748 178.145 373.921 175.714 379.447H158.567C156.583 373.634 158.833 366.827 158.833 366.827C158.833 366.827 159.802 367.603 161.623 366.827C163.439 366.055 161.947 362.85 167.321 362.85Z" fill="#1F160F"></path> <path d="M162.832 369.426C162.709 369.426 162.599 369.337 162.577 369.211C162.553 369.07 162.647 368.937 162.787 368.912C162.818 368.906 165.935 368.379 170.602 368.753C170.745 368.765 170.851 368.889 170.839 369.031C170.828 369.175 170.7 369.29 170.561 369.268C165.964 368.9 162.906 369.416 162.875 369.421C162.862 369.425 162.847 369.426 162.832 369.426Z" fill="white"></path> <path d="M162.832 371.552C162.709 371.552 162.599 371.463 162.577 371.337C162.553 371.196 162.647 371.063 162.787 371.038C162.818 371.033 165.935 370.505 170.602 370.879C170.745 370.891 170.851 371.015 170.839 371.157C170.828 371.3 170.7 371.417 170.561 371.394C165.964 371.027 162.906 371.542 162.875 371.547C162.862 371.551 162.847 371.552 162.832 371.552Z" fill="white"></path> <path d="M176.39 377.448C176.218 378.127 175.999 378.799 175.714 379.448H158.567C158.343 378.79 158.179 378.12 158.053 377.448H176.39Z" fill="white"></path> <path d="M235.358 219.705H178.531C171.124 233.636 172.053 251.61 171.562 259.073C171.071 266.537 157.085 357.505 157.085 357.505C163.197 360.075 180.358 358.161 180.358 358.161L204.017 266.448L211.788 356.895C218.07 359.292 232.226 356.479 232.226 356.479C232.226 302.432 238.375 259.939 235.358 219.705Z" fill="#496099"></path> <path d="M204.018 266.707C203.997 266.707 203.975 266.704 203.954 266.699C203.815 266.664 203.731 266.523 203.766 266.384C203.851 266.048 212.287 232.768 212.811 225.685C212.821 225.542 212.953 225.422 213.088 225.447C213.231 225.458 213.338 225.582 213.327 225.724C212.8 232.851 204.353 266.175 204.268 266.511C204.239 266.629 204.133 266.707 204.018 266.707Z" fill="#1F160F"></path> <path d="M208.82 252.136C208.406 252.136 207.987 252.052 207.565 251.885C207.432 251.832 207.367 251.682 207.42 251.549C207.473 251.416 207.624 251.351 207.756 251.404C208.662 251.763 209.521 251.674 210.378 251.132C214.428 248.571 217.252 236.551 217.949 226C217.959 225.856 218.083 225.738 218.224 225.759C218.367 225.768 218.475 225.891 218.465 226.034C217.76 236.716 214.851 248.917 210.654 251.57C210.058 251.946 209.444 252.136 208.82 252.136Z" fill="#1F160F"></path> <path d="M181.572 297.162C179.089 297.162 177.133 296.97 176.981 296.955C176.839 296.94 176.735 296.813 176.749 296.671C176.763 296.529 176.893 296.427 177.032 296.44C177.104 296.448 184.162 297.141 188.625 295.891C188.762 295.849 188.905 295.933 188.944 296.071C188.983 296.208 188.902 296.351 188.765 296.389C186.582 297 183.854 297.162 181.572 297.162Z" fill="#1F160F"></path> <path d="M216.739 296.816C215.059 296.816 213.182 296.711 211.331 296.394C211.19 296.37 211.095 296.237 211.12 296.095C211.143 295.953 211.278 295.852 211.418 295.884C216.856 296.816 222.526 295.893 222.582 295.884C222.725 295.854 222.856 295.955 222.88 296.097C222.903 296.238 222.808 296.37 222.667 296.394C222.629 296.401 220.072 296.816 216.739 296.816Z" fill="#1F160F"></path> <path d="M176.939 240.648C176.702 240.648 176.567 240.64 176.556 240.639C176.413 240.63 176.305 240.506 176.315 240.364C176.325 240.221 176.455 240.105 176.59 240.124C176.695 240.123 186.759 240.682 190.761 231.092C190.816 230.96 190.968 230.899 191.099 230.953C191.231 231.008 191.293 231.159 191.238 231.291C187.544 240.141 178.868 240.648 176.939 240.648Z" fill="#1F160F"></path> <path d="M235.769 226.327C235.656 224.113 235.523 221.905 235.358 219.705H178.532C177.377 221.878 176.424 224.15 175.637 226.464C192.614 228.379 219.606 227.381 235.769 226.327Z" fill="#1F160F"></path> <path d="M217.655 136.322L199.026 136.703V118.291H217.654L217.655 136.322Z" fill="#D1795C"></path> <path d="M217.654 130.661V118.291H199.026C199.026 118.291 200.526 132.068 217.654 130.661Z" fill="#1F160F"></path> <path d="M192.493 102.637C187.062 96.2921 191.737 92.3212 191.737 92.3212C187.437 84.1982 198.118 84.3232 198.118 84.3232C204.562 77.0872 209.979 80.6031 211.776 81.6671C212.883 82.3221 217.103 79.0732 222.145 81.1362C227.187 83.1992 226.156 89.2612 226.156 89.2612C226.156 89.2612 228.825 89.6641 229.737 92.0251C231.565 96.7581 226.93 101.651 226.93 101.651C226.101 104.94 226.027 110.072 223.781 113.996L195.266 113.432C194.003 109.208 193.094 105.647 192.493 102.637Z" fill="#1F160F"></path> <path d="M225.592 109.673C225.35 123.518 223.09 128.654 213.415 128.485C203.749 128.316 196.64 123.017 196.881 109.172C197.123 95.3371 206.133 90.8371 211.559 90.9321C216.995 91.0271 225.833 95.8391 225.592 109.673Z" fill="#D1795C"></path> <path d="M190.947 108.234C191.546 103.737 194.686 102.579 197.919 106.044L197.744 116.095C193.642 119.375 190.349 112.731 190.947 108.234Z" fill="#D1795C"></path> <path d="M192.494 108.629C192.47 108.629 192.444 108.626 192.419 108.618C192.282 108.577 192.205 108.433 192.246 108.296C192.571 107.216 193.217 106.548 194.066 106.414C194.999 106.266 196.043 106.808 196.725 107.793C196.806 107.911 196.777 108.072 196.66 108.153C196.543 108.232 196.382 108.204 196.3 108.088C195.731 107.266 194.888 106.808 194.148 106.925C193.497 107.028 193.011 107.553 192.742 108.445C192.707 108.556 192.605 108.629 192.494 108.629Z" fill="#1F160F"></path> <path d="M212.779 87.8481C197.582 87.8481 197.126 102.863 197.216 105.361C197.316 108.153 198.821 112.542 199.351 110.648C201.915 101.497 204.796 103.912 206.122 97.3752C209.593 101.447 214.647 101.488 214.464 99.4762C214.281 97.4632 217.189 99.2451 219.602 100.182C222.015 101.12 222.433 95.5882 224.474 98.9162C226.515 102.244 227.219 87.8481 212.779 87.8481Z" fill="#1F160F"></path> <path d="M206.514 109.901H212.836C213.388 109.901 213.836 109.453 213.836 108.901V106.327C213.836 105.775 213.388 105.327 212.836 105.327H206.514C205.962 105.327 205.514 105.775 205.514 106.327V108.901C205.514 109.453 205.962 109.901 206.514 109.901Z" fill="white"></path> <path d="M217.325 109.901H222.889C223.441 109.901 223.889 109.453 223.889 108.901V106.327C223.889 105.775 223.441 105.327 222.889 105.327H217.325C216.773 105.327 216.325 105.775 216.325 106.327V108.901C216.325 109.453 216.772 109.901 217.325 109.901Z" fill="white"></path> <path d="M216.687 107.199H213.062C212.919 107.199 212.803 107.083 212.803 106.94C212.803 106.797 212.919 106.681 213.062 106.681H216.687C216.83 106.681 216.946 106.797 216.946 106.94C216.946 107.083 216.83 107.199 216.687 107.199Z" fill="white"></path> <path d="M206.053 107.199C206.027 107.199 206 107.195 205.973 107.186L197.419 104.41L196.602 104.717C196.469 104.768 196.319 104.7 196.269 104.566C196.219 104.432 196.287 104.283 196.42 104.233L197.322 103.894C197.377 103.874 197.437 103.873 197.493 103.89L206.134 106.694C206.27 106.738 206.344 106.884 206.3 107.02C206.263 107.13 206.162 107.199 206.053 107.199Z" fill="white"></path> <path d="M223.63 107.199C223.503 107.199 223.392 107.105 223.374 106.976C223.355 106.834 223.453 106.704 223.594 106.683L225.75 106.381C225.892 106.364 226.023 106.46 226.042 106.601C226.062 106.743 225.963 106.874 225.822 106.894L223.666 107.196C223.655 107.198 223.643 107.199 223.63 107.199Z" fill="white"></path> <path d="M214.7 120.166C213.148 120.166 211.744 119.778 210.676 119.028C210.559 118.946 210.531 118.784 210.613 118.668C210.696 118.55 210.859 118.523 210.973 118.605C212.412 119.615 214.532 119.912 216.794 119.415C216.931 119.385 217.071 119.473 217.102 119.613C217.132 119.752 217.044 119.89 216.904 119.921C216.15 120.085 215.41 120.166 214.7 120.166Z" fill="#1F160F"></path> <path d="M214.448 116.068C214.196 116.068 213.954 116.018 213.731 115.917C213.601 115.858 213.543 115.705 213.602 115.574C213.661 115.444 213.815 115.385 213.945 115.445C214.585 115.737 215.272 115.354 215.537 115.176C216.015 114.856 216.261 114.47 216.256 114.313C216.251 114.158 216.098 113.754 215.937 113.327C215.535 112.263 214.928 110.655 214.957 109.005C214.96 108.863 215.075 108.751 215.216 108.751H215.22C215.363 108.754 215.477 108.871 215.474 109.014C215.447 110.565 216.033 112.118 216.421 113.145C216.627 113.693 216.764 114.055 216.773 114.295C216.789 114.751 216.308 115.283 215.825 115.607C215.37 115.911 214.894 116.068 214.448 116.068Z" fill="#1F160F"></path> <path d="M220.637 107.872C220.622 108.729 220.147 109.416 219.575 109.406C219.004 109.396 218.552 108.693 218.567 107.836C218.582 106.979 219.057 106.292 219.629 106.302C220.201 106.311 220.652 107.014 220.637 107.872Z" fill="#1F160F"></path> <path d="M222.231 105.252C222.11 105.252 221.988 105.224 221.874 105.165C220.838 104.627 219.903 104.384 218.181 104.741C217.765 104.824 217.35 104.558 217.264 104.137C217.178 103.717 217.448 103.306 217.868 103.22C219.738 102.835 221.062 102.994 222.589 103.787C222.97 103.985 223.118 104.453 222.92 104.833C222.783 105.099 222.512 105.252 222.231 105.252Z" fill="#1F160F"></path> <path d="M208.864 107.623C208.849 108.48 209.3 109.183 209.872 109.193C210.444 109.203 210.919 108.516 210.934 107.659C210.949 106.802 210.498 106.099 209.926 106.089C209.354 106.079 208.879 106.766 208.864 107.623Z" fill="#1F160F"></path> <path d="M207.274 104.913C207.012 104.913 206.756 104.78 206.61 104.539C206.388 104.173 206.504 103.695 206.871 103.473C208.411 102.537 209.842 102.34 212.147 102.744C212.569 102.818 212.852 103.221 212.777 103.643C212.703 104.065 212.298 104.344 211.878 104.273C209.703 103.889 208.724 104.163 207.676 104.799C207.55 104.876 207.412 104.913 207.274 104.913Z" fill="#1F160F"></path> <path d="M175.593 221.947C208.874 222.654 236.46 221.219 236.46 221.219C235.13 178.099 231.859 136.319 231.859 136.319C226.768 135.332 220.861 134.279 209.891 133.939C202.141 133.689 187.8 133.933 181.714 135.972C173.629 138.68 175.593 221.947 175.593 221.947Z" fill="white"></path> <path d="M223.676 134.962C220.077 134.498 215.697 133.877 209.892 133.698C205.556 133.558 199.158 133.814 193.296 134.211C193.478 139.651 195.746 147.566 210.438 147.546C220.721 147.533 223.333 139.63 223.676 134.962Z" fill="#D1795C"></path> <path d="M204.042 195.538C204.042 195.538 201.969 185.213 200.259 182.034L197.958 182.619C198.091 163.887 197.716 146.652 196.66 134.024C196.66 134.024 187.406 134.224 181.714 135.971C173.383 138.528 152.695 180.178 160.285 200.503C164.035 210.545 174.926 208.676 174.926 208.676L173.687 229.161C183.812 230.167 196.736 229.161 196.736 229.161C197.171 219.274 197.506 209.121 197.719 199.129C201.498 197.082 204.042 195.538 204.042 195.538Z" fill="#56545E"></path> <path d="M231.859 136.318C244.14 140.307 251.562 168.76 251.562 168.76H236.227C241.375 204.01 237.25 228.573 237.25 228.573C229.844 229.861 217.271 229.161 217.271 229.161L220.236 134.572C225.508 134.995 230.058 135.733 231.859 136.318Z" fill="#56545E"></path> <path d="M233.541 159.332C233.401 159.332 233.287 159.221 233.282 159.081C233.112 153.411 232.788 148.939 232.785 148.895C232.774 148.752 232.882 148.628 233.024 148.618C233.181 148.608 233.291 148.715 233.301 148.857C233.304 148.902 233.629 153.383 233.8 159.065C233.804 159.208 233.692 159.327 233.549 159.332C233.546 159.332 233.543 159.332 233.541 159.332Z" fill="#1F160F"></path> <path d="M175.383 188.426C175.311 188.426 175.241 188.396 175.191 188.341C175.127 188.27 175.107 188.17 175.139 188.08L187.599 153.018C187.647 152.882 187.796 152.813 187.929 152.861C188.064 152.909 188.134 153.057 188.086 153.191L175.787 187.801L197.417 182.49C197.558 182.456 197.695 182.541 197.73 182.679C197.764 182.818 197.679 182.957 197.54 182.992L175.443 188.418C175.424 188.423 175.404 188.426 175.383 188.426Z" fill="#1F160F"></path> <path d="M169.609 194.894C169.561 194.894 169.511 194.88 169.468 194.852C169.348 194.773 169.315 194.613 169.393 194.494C169.819 193.843 173.606 188.13 175.351 187.91C175.487 187.897 175.622 187.993 175.64 188.135C175.658 188.277 175.557 188.407 175.415 188.424C174.272 188.568 171.446 192.302 169.825 194.778C169.776 194.853 169.693 194.894 169.609 194.894Z" fill="#1F160F"></path> <path d="M174.926 208.934C174.802 208.934 174.692 208.844 174.671 208.717C174.648 208.576 174.743 208.443 174.884 208.42C182.608 207.151 197.213 199.527 197.36 199.45C197.485 199.386 197.643 199.433 197.709 199.559C197.775 199.686 197.727 199.842 197.6 199.909C197.453 199.986 182.774 207.648 174.968 208.929C174.954 208.933 174.94 208.934 174.926 208.934Z" fill="#1F160F"></path> <path d="M219.44 175.123C219.422 175.123 219.404 175.121 219.386 175.118C219.246 175.088 219.156 174.951 219.186 174.811C220.237 169.802 221.578 166.217 222.76 163.055C224.27 159.015 225.466 155.816 225.221 151.584L222.476 149.66C222.392 149.601 222.351 149.499 222.371 149.398C222.391 149.298 222.467 149.218 222.567 149.196L225.695 148.478C225.632 147.079 225.191 139.151 223.238 135.283C223.174 135.156 223.225 135 223.352 134.935C223.479 134.871 223.636 134.922 223.7 135.049C225.888 139.382 226.209 148.296 226.222 148.673C226.226 148.797 226.142 148.906 226.021 148.934L223.251 149.57L225.621 151.232C225.685 151.277 225.726 151.349 225.731 151.427C226.014 155.831 224.792 159.099 223.246 163.236C222.07 166.381 220.737 169.947 219.694 174.918C219.667 175.04 219.56 175.123 219.44 175.123Z" fill="#1F160F"></path> <path d="M197.956 173.672C197.833 173.672 197.724 173.583 197.702 173.458C196.215 164.906 194.465 160.638 193.187 157.522C192.21 155.139 191.503 153.417 191.367 150.963C191.362 150.864 191.413 150.771 191.5 150.723L194.321 149.156L190.995 148.242C190.87 148.207 190.789 148.086 190.807 147.957C190.818 147.877 191.914 139.913 192.417 134.569C192.43 134.427 192.56 134.328 192.699 134.336C192.841 134.35 192.946 134.476 192.932 134.618C192.475 139.467 191.532 146.466 191.35 147.802L195.069 148.825C195.171 148.853 195.245 148.939 195.257 149.044C195.27 149.149 195.218 149.25 195.126 149.301L191.894 151.097C192.048 153.38 192.73 155.044 193.666 157.327C194.953 160.465 196.716 164.763 198.212 173.37C198.236 173.511 198.142 173.645 198.002 173.669C197.985 173.67 197.971 173.672 197.956 173.672Z" fill="#1F160F"></path> <path d="M223.615 175.557C223.224 175.948 222.591 175.948 222.201 175.557L212.301 165.658C211.911 165.267 211.911 164.634 212.301 164.244C212.692 163.853 213.325 163.853 213.715 164.244L223.615 174.143C224.006 174.534 224.006 175.167 223.615 175.557Z" fill="#1F160F"></path> <path d="M222.201 175.557C223.107 176.463 224.51 176.452 224.51 176.452C224.51 176.452 224.521 175.049 223.615 174.143L222.201 175.557Z" fill="#1F160F"></path> <path d="M213.705 165.647C213.51 165.842 213.193 165.842 212.998 165.647L211.584 164.233C211.389 164.038 211.389 163.721 211.584 163.526C211.779 163.331 212.096 163.331 212.291 163.526L213.705 164.94C213.9 165.135 213.9 165.452 213.705 165.647Z" fill="#1F160F"></path> <path d="M200.238 182.515C201.578 184.979 203.739 194.307 203.739 194.307C208.437 192.541 214.547 187.979 214.547 187.979C215.563 187.635 223.422 186.057 223.422 186.057L223.938 169.716C223.938 169.716 215.305 169.242 214.547 169.716C213.789 170.19 212.149 176.495 209.758 178.838C207.367 181.182 200.238 182.515 200.238 182.515Z" fill="#D1795C"></path> <path d="M223.141 172.488H217.271C217.128 172.488 217.012 172.372 217.012 172.229C217.012 172.086 217.128 171.97 217.271 171.97H223.141C223.284 171.97 223.4 172.086 223.4 172.229C223.399 172.372 223.284 172.488 223.141 172.488Z" fill="#1F160F"></path> <path d="M223.375 175.394H218.07C217.927 175.394 217.811 175.278 217.811 175.135C217.811 174.992 217.927 174.876 218.07 174.876H223.375C223.518 174.876 223.634 174.992 223.634 175.135C223.634 175.278 223.518 175.394 223.375 175.394Z" fill="#1F160F"></path> <path d="M246.727 199.902H218.766C217.551 199.902 216.616 198.827 216.786 197.624L222.548 156.624C222.687 155.637 223.532 154.902 224.529 154.902H252.49C253.705 154.902 254.64 155.977 254.47 157.18L248.708 198.18C248.569 199.168 247.724 199.902 246.727 199.902Z" fill="#8D1B3D"></path> <path d="M250.004 191.672C243.197 190.706 242.059 190.144 241.208 189.997C240.228 189.827 240.398 188.737 241.068 188.617C241.688 188.497 247.888 189.237 247.888 189.237C247.688 189.017 238.108 186.787 237.738 186.697C236.538 186.397 236.888 184.677 237.968 184.737C238.888 184.787 247.648 186.057 247.648 186.057C247.538 185.737 237.128 183.417 236.798 183.277C235.768 182.857 236.298 181.157 237.098 181.257C238.058 181.367 247.767 182.763 247.767 182.763C246.955 182.12 241.818 181.098 239.838 180.557C238.558 180.217 238.655 178.439 240.345 178.699C243.845 179.219 250.689 181.105 251.426 178.844L252.131 173.831C253.741 173.891 253.568 175.353 254.058 176.443C254.756 178.033 254.594 192.323 250.004 191.672Z" fill="#D1795C"></path> <path d="M250.004 191.93C249.992 191.93 249.98 191.929 249.967 191.927C244.739 191.186 242.863 190.687 241.855 190.418C241.564 190.341 241.356 190.284 241.163 190.251C240.498 190.135 240.26 189.665 240.259 189.297C240.258 188.834 240.578 188.44 241.021 188.36C241.351 188.299 243.016 188.444 244.634 188.612C243.217 188.262 241.171 187.769 238.233 187.078L237.676 186.946C236.913 186.756 236.656 186.107 236.741 185.549C236.826 184.987 237.294 184.459 237.982 184.477C238.505 184.506 241.449 184.913 243.961 185.267C242.413 184.886 240.67 184.475 239.426 184.181C237.496 183.726 236.811 183.563 236.696 183.514C236.023 183.24 235.872 182.533 236.023 181.955C236.186 181.331 236.629 180.941 237.13 180.999C237.773 181.073 242.247 181.709 245.199 182.132C244.208 181.87 243.077 181.604 242.11 181.377C241.186 181.16 240.345 180.962 239.77 180.805C238.939 180.585 238.614 179.872 238.731 179.314C238.836 178.811 239.337 178.284 240.384 178.441C241.076 178.544 241.901 178.7 242.775 178.866C246.102 179.497 250.658 180.362 251.18 178.762L251.874 173.793C251.894 173.651 252.028 173.556 252.166 173.573C252.308 173.593 252.406 173.724 252.386 173.865L251.682 178.878C251.008 180.954 246.583 180.114 242.678 179.374C241.81 179.209 240.99 179.054 240.307 178.952C239.727 178.862 239.316 179.042 239.238 179.419C239.17 179.744 239.381 180.165 239.905 180.304C240.478 180.46 241.312 180.656 242.229 180.871C245.105 181.547 247.351 182.1 247.928 182.556C248.02 182.629 248.051 182.754 248.005 182.862C247.959 182.969 247.844 183.03 247.731 183.015C247.634 183.001 238.015 181.619 237.07 181.511C236.812 181.483 236.604 181.782 236.526 182.084C236.439 182.417 236.484 182.865 236.897 183.034C237.025 183.08 238.25 183.369 239.547 183.676C247.773 185.615 247.814 185.735 247.894 185.97C247.923 186.055 247.906 186.15 247.849 186.219C247.791 186.287 247.701 186.323 247.613 186.31C247.526 186.297 238.854 185.041 237.956 184.993C237.528 184.963 237.303 185.304 237.255 185.625C237.207 185.942 237.326 186.324 237.802 186.443L238.353 186.573C247.852 188.809 247.979 188.948 248.081 189.06C248.154 189.139 248.169 189.256 248.12 189.352C248.071 189.448 247.966 189.501 247.859 189.491C245.477 189.207 241.539 188.787 241.118 188.868C240.896 188.908 240.779 189.118 240.779 189.295C240.779 189.525 240.953 189.688 241.254 189.74C241.46 189.775 241.681 189.834 241.991 189.917C242.989 190.183 244.846 190.677 250.042 191.414C250.184 191.434 250.282 191.564 250.262 191.706C250.241 191.837 250.13 191.93 250.004 191.93Z" fill="#1F160F"></path> <path d="M218.262 187.381C218.25 187.381 218.238 187.38 218.225 187.378C218.083 187.358 217.985 187.228 218.005 187.086L220.466 169.573C220.486 169.431 220.621 169.338 220.758 169.353C220.9 169.373 220.998 169.504 220.978 169.645L218.517 187.158C218.499 187.287 218.389 187.381 218.262 187.381Z" fill="#1F160F"></path> </svg>