<svg width="154" height="96" viewBox="0 0 154 96" fill="none" xmlns="http://www.w3.org/2000/svg">
<g id="Group">
<path id="Vector" d="M146.397 94.1854H107.558L105.285 94.177L31.4367 93.9131L7.07829 93.826C7.07829 93.826 -2.13068 76.1148 3.35875 58.2892C3.89979 56.5294 4.58427 54.7697 5.43454 53.0257C6.00051 51.8651 6.64048 50.7112 7.35981 49.5695C7.43382 49.4524 7.50846 49.3359 7.58392 49.2188C8.61644 47.6216 9.80891 46.0478 11.1788 44.5138C21.6305 32.8041 31.2692 31.2152 39.1772 32.0118C45.4874 32.6459 50.6948 34.7995 54.3346 34.5393C62.5351 33.9548 65.1649 15.516 89.4246 9.95422C94.265 8.84478 99.6981 8.19966 105.124 8.19342C120.293 8.17411 135.412 13.1347 137.404 26.8313C137.691 28.8078 137.705 30.9645 137.406 33.315C137.196 34.976 136.829 36.7326 136.292 38.5906C135.297 42.0389 131.55 48.3673 129.295 52.5324C122.097 65.8284 133.682 65.6102 142.193 70.8831C142.543 71.0999 142.892 71.3218 143.237 71.5497C149.311 75.5516 146.397 94.1849 146.397 94.1854Z" fill="#C7FFE2"/>
<g id="Group_2">
<path id="Vector_2" d="M30.4361 94.1109H16.1203C15.0135 94.1109 14.1162 93.2136 14.1162 92.1068V77.7909C14.1162 76.6841 15.0135 75.7869 16.1203 75.7869H30.4361C31.5429 75.7869 32.4402 76.6841 32.4402 77.7909V92.1068C32.4402 93.2137 31.543 94.1109 30.4361 94.1109Z" fill="#8D1B3D"/>
<path id="Vector_3" d="M38.9069 94.1109H24.591C23.4842 94.1109 22.5869 93.2136 22.5869 92.1068V77.7909C22.5869 76.6841 23.4842 75.7869 24.591 75.7869H38.9069C40.0137 75.7869 40.911 76.6841 40.911 77.7909V92.1068C40.911 93.2137 40.0137 94.1109 38.9069 94.1109Z" fill="#18BE69"/>
<path id="Vector_4" d="M64.2546 37.8371C64.6243 37.4675 66.8551 37.5537 66.8551 37.5537C66.8551 37.5537 68.0876 37.0608 69.6036 36.3952C71.7111 35.4585 74.361 34.2013 74.9402 33.5604C76.2838 32.0692 77.8983 27.0651 79.4142 23.7621C79.5499 23.454 79.6853 23.1582 79.8209 22.8748C79.8333 22.8501 79.8456 22.8131 79.8701 22.7884C79.9442 22.6529 80.0058 22.5296 80.0675 22.4188C80.0675 22.4064 80.0798 22.3941 80.0921 22.3818C80.3755 21.8394 80.6713 21.4082 80.9425 21.1247V21.1123C81.2752 20.755 81.5956 20.6069 81.8914 20.7303C81.8914 20.7303 82.4708 21.0261 83.0623 21.7286C83.1363 21.7903 83.1855 21.8641 83.2349 21.9381C83.5923 22.3941 83.9374 22.998 84.1469 23.7622C84.3072 24.3415 84.3934 25.0071 84.3565 25.7835C84.3072 27.0528 83.6786 28.6427 82.7789 30.2451C82.7418 30.3191 82.705 30.3931 82.6556 30.4669C80.9302 33.4865 78.2803 36.5062 76.6657 37.4921C75.6058 38.1452 72.9436 38.5397 70.7004 38.7615C69.2092 38.9219 67.8904 38.9957 67.3481 39.0327C67.1139 39.2915 65.4131 41.2388 64.7721 40.6719C64.0698 40.068 63.8849 38.2069 64.2546 37.8371Z" fill="#FFB27D"/>
<path id="Vector_5" d="M73.5129 75.6809H59.1969C58.0901 75.6809 57.1929 74.7837 57.1929 73.6769V59.361C57.1929 58.2542 58.0901 57.3569 59.1969 57.3569H73.5129C74.6197 57.3569 75.517 58.2542 75.517 59.361V73.6769C75.5169 74.7837 74.6197 75.6809 73.5129 75.6809Z" fill="#ED7D2B"/>
<path id="Vector_6" d="M81.9825 75.6809H67.6666C66.5598 75.6809 65.6626 74.7837 65.6626 73.6769V59.361C65.6626 58.2542 66.5598 57.3569 67.6666 57.3569H81.9825C83.0893 57.3569 83.9865 58.2542 83.9865 59.361V73.6769C83.9865 74.7837 83.0893 75.6809 81.9825 75.6809Z" fill="#F99746"/>
<path id="Vector_7" d="M67.7033 57.439H53.3874C52.2806 57.439 51.3833 56.5417 51.3833 55.4349V41.1191C51.3833 40.0123 52.2806 39.115 53.3874 39.115H67.7033C68.8101 39.115 69.7074 40.0122 69.7074 41.1191V55.4349C69.7073 56.5418 68.8101 57.439 67.7033 57.439Z" fill="#8D1B3D"/>
<path id="Vector_8" d="M76.173 57.439H61.8571C60.7503 57.439 59.853 56.5417 59.853 55.4349V41.1191C59.853 40.0123 60.7502 39.115 61.8571 39.115H76.173C77.2798 39.115 78.1771 40.0122 78.1771 41.1191V55.4349C78.177 56.5418 77.2798 57.439 76.173 57.439Z" fill="#18BE69"/>
<g id="Group_3">
<path id="Vector_9" d="M37.5875 54.2928C37.9103 55.0819 40.0502 54.8666 41.7 53.7428C43.338 52.6309 45.693 51.6029 47.0321 50.6703C48.0361 49.989 49.0763 47.4065 49.8654 45.8167C50.0687 45.41 50.26 45.0634 50.4153 44.8362C51.3837 44.5493 51.324 43.5451 52.2207 43.2222C53.2846 42.8518 52.9618 42.2539 52.9618 42.2539C52.9618 42.2539 52.1967 41.9312 51.2642 42.0267C50.9294 42.0745 50.26 43.0429 49.8654 43.6527C49.4949 43.9276 49.0525 44.2983 48.5743 44.7286C47.2831 45.8765 45.8245 47.3589 45.2389 48.088C44.5574 48.937 40.1458 49.8693 38.9504 50.8497C36.8224 52.5952 37.5875 54.2928 37.5875 54.2928Z" fill="#ED985F"/>
<path id="Vector_10" d="M45.2259 66.4362L40.6 92.1143L38.9982 92.2197C38.9982 92.2197 37.7388 81.037 38.8176 77.1768C39.8963 73.3165 36.9562 68.4348 37.7822 65.0863C38.6081 61.7379 45.2259 66.4362 45.2259 66.4362Z" fill="#ED985F"/>
<path id="Vector_11" d="M39.9044 52.2505L43.9433 51.5935C44.1356 50.9373 44.1906 50.0355 44.1935 49.2386C44.1961 48.2485 44.1176 47.42 44.1176 47.42L40.8583 47.1059L39.4106 46.9658C40.2057 48.4823 39.9044 52.2505 39.9044 52.2505Z" fill="#FFB27D"/>
<path id="Vector_12" d="M39.7842 47.762C39.7842 47.762 41.9422 49.6023 44.1933 49.2387C44.1959 48.2485 44.1174 47.42 44.1174 47.42L40.8581 47.106L39.7842 47.762Z" fill="#ED985F"/>
<path id="Vector_13" d="M42.1461 72.7614C42.9638 75.0358 43.6986 77.3527 43.3304 79.2526C43.222 79.8141 43.1544 80.3953 43.1219 80.9874C43.0921 81.5307 43.0902 82.083 43.1127 82.6373C43.2924 87.114 44.9974 91.6774 45.2609 92.358C45.2835 92.4157 45.2952 92.4457 45.2952 92.4457L46.7132 92.2949L47.3233 65.3511C47.3233 65.3511 40.8483 62.7356 40.4872 66.1654C40.3004 67.939 41.2707 70.3261 42.1461 72.7614Z" fill="#FFB27D"/>
<path id="Vector_14" d="M38.2758 74.2884C38.2758 74.2884 38.6892 74.3479 39.3039 74.4147C40.4574 74.5411 42.3168 74.691 43.4656 74.5141C44.0135 74.4301 44.3205 73.5258 44.4649 72.3109C44.7852 69.6186 44.3069 65.4044 43.8719 65.2176C43.24 64.9468 37.6469 65.1761 37.6469 65.1761C37.6469 65.1761 36.4255 68.196 38.2758 74.2884Z" fill="#018944"/>
<path id="Vector_15" d="M39.2134 74.415C40.3668 74.5413 42.2261 74.6912 43.3751 74.5143C43.923 74.4304 44.2298 73.526 44.3742 72.3111L41.3082 67.2937L39.0067 66.3911C39.0067 66.3911 38.0824 70.2378 39.2134 74.415Z" fill="#006C35"/>
<path id="Vector_16" d="M47.3465 65.2627C47.3465 65.2627 48.55 70.5878 48.3695 74.7998C48.3695 74.7998 45.6318 75.3415 42.8339 74.7998C42.8339 74.7998 38.2006 68.0607 38.5918 65.8945C38.9828 63.7283 46.1731 64.5708 47.3465 65.2627Z" fill="#018944"/>
<path id="Vector_17" d="M45.1462 46.771C45.1462 46.771 41.381 49.7563 39.5579 47.3829C37.7349 45.0093 36.0213 43.7961 38.3481 41.7899C40.6752 39.7834 41.8435 40.3261 42.6447 40.9702C43.4459 41.6145 46.0788 45.9333 45.1462 46.771Z" fill="#FFB27D"/>
<path id="Vector_18" d="M35.0342 42.6824C35.0342 42.6824 35.2433 42.6144 35.4832 42.6866C35.4834 42.684 35.4836 42.6824 35.4836 42.6824C35.1798 42.1202 35.4076 41.2486 35.4076 41.2486C35.3317 41.7265 35.7621 42.2887 35.7621 42.2887C35.7874 40.5178 40.1677 39.4215 40.5729 39.3091C40.9779 39.1967 40.9273 38.522 40.9273 38.522C41.7629 38.6907 42.6491 39.7587 42.6238 40.7989C42.5984 41.8389 41.7376 43.8347 41.1805 43.8628C40.6235 43.8908 40.8767 44.3407 41.2564 44.9591C41.6362 45.5775 41.143 47.2571 40.4593 47.8473C39.9085 48.323 39.6193 47.9253 39.2964 47.75C39.2163 47.7065 39.1311 47.6728 39.0421 47.6528C37.7647 47.3679 36.4356 46.1057 35.7746 44.4954C35.512 43.8556 35.4752 43.2142 35.4762 42.8932C35.3673 42.8296 35.1569 42.7126 35.0342 42.6824Z" fill="#2C3A64"/>
<path id="Vector_19" d="M43.1128 82.6372C43.2925 87.114 44.9975 91.6773 45.261 92.358L46.3179 92.2948C46.1825 92.1142 44.1066 82.7727 43.1138 82.6373L43.1128 82.6372Z" fill="#ED985F"/>
<g id="Group_4">
<path id="Vector_20" d="M38.9053 93.9992H39.7995C40.0989 93.9574 40.3203 93.8809 40.6275 93.8453C41.094 93.7913 41.3088 93.9603 41.3514 93.9992C41.3571 94.0044 45.1608 93.9996 45.1608 93.9996C45.2563 93.8791 45.1622 93.607 45.0724 93.4013C45.0118 93.2615 44.8799 93.1556 44.7167 93.1139C44.3139 93.0107 43.5197 92.9189 42.7925 92.3366C42.3834 92.0097 40.8167 91.1345 40.8167 91.1345L40.8085 91.1328C40.774 91.1333 40.6103 91.1779 39.8977 91.71C39.5292 91.9845 38.9015 91.3222 38.9015 91.3222C38.9015 91.3222 38.7836 91.4084 38.6956 91.569C38.6249 91.6959 38.5731 91.87 38.614 92.0849C38.6707 92.3875 38.4878 92.95 38.3419 93.3304C38.2534 93.5608 38.1787 93.7243 38.1787 93.7243C38.1787 93.7243 38.1359 93.9143 38.9053 93.9992Z" fill="#233862"/>
<path id="Vector_21" d="M38.6958 91.5686C38.9094 91.7018 39.3599 91.9639 39.6587 91.9982C40.0623 92.045 40.8169 91.1342 40.8169 91.1342L40.8087 91.1326C40.7742 91.1331 40.6104 91.1776 39.8979 91.7097C39.5294 91.9842 38.9017 91.322 38.9017 91.322C38.9017 91.322 38.7838 91.4081 38.6958 91.5686Z" fill="#AA3E39"/>
<path id="Vector_22" d="M38.9053 93.9988H39.7996C40.099 93.957 40.3203 93.8805 40.6275 93.8448C41.0941 93.7908 41.3088 93.9598 41.3515 93.9988C41.3571 94.004 45.1608 93.9991 45.1608 93.9991C45.2564 93.8786 45.1623 93.6065 45.0725 93.4008C44.9571 93.31 44.9246 93.7948 44.8608 93.8721C44.797 93.9492 41.762 93.9002 41.5867 93.7874C41.4115 93.6747 40.8856 93.4775 40.1526 93.6325C39.5146 93.7671 38.5745 93.4217 38.3419 93.3298C38.2534 93.5603 38.1786 93.7238 38.1786 93.7238C38.1786 93.7238 38.136 93.9138 38.9053 93.9988Z" fill="#AA3E39"/>
</g>
<g id="Group_5">
<path id="Vector_23" d="M44.8926 93.9911H45.7869C46.0864 93.9493 46.3076 93.8728 46.6148 93.8372C47.0812 93.7831 47.2962 93.9521 47.3388 93.9911C47.3445 93.9961 47.347 93.999 47.347 93.999H51.1457C51.2412 93.8785 51.1495 93.5987 51.0596 93.393C50.9991 93.2533 50.8671 93.1473 50.7039 93.1055C50.3011 93.0024 49.5071 92.9105 48.7798 92.3284C48.3706 92.0014 46.804 91.1262 46.804 91.1262L46.7958 91.1245C46.7614 91.1251 46.5976 91.1696 45.885 91.7017C45.5166 91.9761 44.8887 91.3139 44.8887 91.3139C44.8887 91.3139 44.7709 91.4001 44.683 91.5607C44.6121 91.6876 44.5604 91.8617 44.6012 92.0764C44.658 92.3792 44.475 92.9415 44.3292 93.3221C44.2406 93.5525 44.1659 93.7161 44.1659 93.7161C44.1659 93.7161 44.1234 93.906 44.8926 93.9911Z" fill="#233862"/>
<path id="Vector_24" d="M44.6826 91.5609C44.896 91.6939 45.3467 91.956 45.6456 91.9904C46.049 92.0373 46.8037 91.1265 46.8037 91.1265L46.7954 91.1248C46.761 91.1253 46.5972 91.1699 45.8846 91.7019C45.5163 91.9763 44.8883 91.3142 44.8883 91.3142C44.8883 91.3142 44.7705 91.4003 44.6826 91.5609Z" fill="#AA3E39"/>
<path id="Vector_25" d="M44.8813 94.0012H45.8099C46.1095 93.9594 46.3069 93.8729 46.6142 93.8373C47.0806 93.7833 47.2956 93.9523 47.3382 93.9913C47.3439 93.9963 47.3464 93.9992 47.3464 93.9992H51.1451C51.2406 93.8787 51.1489 93.5989 51.059 93.3932C50.9437 93.3025 50.9111 93.7872 50.8475 93.8643C50.7837 93.9416 47.7486 93.8925 47.5732 93.7798C47.398 93.6671 46.8722 93.4699 46.1393 93.6249C45.5013 93.7595 44.5612 93.4141 44.3286 93.3223C44.24 93.5527 44.1653 93.7163 44.1653 93.7163C44.1653 93.7163 44.112 93.9161 44.8813 94.0012Z" fill="#AA3E39"/>
</g>
<path id="Vector_26" d="M37.4183 65.3291C37.4301 65.4002 37.4793 65.4588 37.5473 65.4831C38.119 65.6864 40.8736 66.5503 44.7815 65.8849C45.5867 65.7477 46.4441 65.5464 47.3466 65.263L46.778 55.0369L46.3742 50.3833C46.3742 50.3833 44.9845 49.6639 44.2481 49.6187C44.2481 49.6187 41.1333 49.9743 39.9374 49.6584C39.9374 49.6584 38.524 50.2803 37.9599 51.07C37.3993 51.855 36.3972 59.2136 37.4183 65.3291Z" fill="#739CF3"/>
<path id="Vector_27" d="M44.8113 65.8895C45.6156 65.7292 46.4461 65.5907 47.347 65.2631L46.7496 53.5033L44.9497 53.2678C44.9497 53.2678 43.4006 60.8965 44.8113 65.8895Z" fill="#6488D3"/>
<path id="Vector_28" d="M44.0074 54.2928C44.3422 55.0819 46.4821 54.8666 48.1199 53.7428C48.2635 53.6474 48.4069 53.5515 48.5623 53.4558C50.1644 52.4518 52.2445 51.5192 53.464 50.6703C54.6116 49.8812 55.8192 46.5935 56.6322 45.183C56.7039 45.0514 56.7755 44.9319 56.8473 44.8362C57.8037 44.5373 57.7439 43.5451 58.6405 43.2222C59.7045 42.8518 59.3937 42.2539 59.3937 42.2539C59.3937 42.2539 58.6167 41.9312 57.6961 42.0267C57.3494 42.0745 56.6799 43.0429 56.2973 43.6527C56.0343 43.8559 55.7116 44.1069 55.3767 44.3821C54.0139 45.5655 52.3043 47.2871 51.6707 48.088C51.1805 48.6978 48.7656 49.3553 46.9963 50.0247C46.3028 50.2998 45.7049 50.5747 45.3703 50.8497C43.2423 52.5952 44.0074 54.2928 44.0074 54.2928Z" fill="#FFB27D"/>
<path id="Vector_29" d="M43.9773 54.3159C44.3121 55.105 46.5121 54.9161 48.15 53.7924C48.2935 53.6969 48.4372 53.574 48.5926 53.4783C46.9069 52.2231 46.9126 50.6224 46.9965 50.0247C46.303 50.2997 45.6862 50.5381 45.3516 50.8131C43.2234 52.5584 43.9773 54.3159 43.9773 54.3159Z" fill="#739CF3"/>
</g>
<path id="Vector_30" d="M85.6685 3.36431C85.6765 3.14242 85.8483 0.750875 89.4911 0.625977C89.4911 0.625977 87.6997 0.839533 87.3902 1.62697C87.3902 1.62697 88.61 0.653954 89.6032 0.96693C90.5965 1.27991 91.1799 3.02009 91.1858 3.59244C91.1916 4.16487 90.6398 6.00995 90.0094 6.16685C89.7706 6.22628 89.4956 6.21039 89.2458 6.16783C89.4136 6.4297 89.578 6.71866 89.7352 7.04121C91.1887 10.025 89.6897 12.941 88.4592 12.6189C87.67 12.4121 87.4466 13.7589 87.4466 13.7589L79.7793 7.55164C79.7793 7.55164 82.5955 1.72431 85.6685 3.36431Z" fill="#2C3A64"/>
<path id="Vector_31" d="M82.999 91.2668L84.6276 91.8732C84.6276 91.8732 91.7015 82.0622 92.5724 73.4302C92.728 71.8892 92.6762 70.396 92.3398 69.0172C92.3398 69.0172 92.4088 68.6223 92.5299 67.9242C92.5857 67.5985 92.6548 67.2062 92.7333 66.7568C92.9634 65.4392 93.2798 63.6362 93.6414 61.5832C94.4738 56.859 95.5521 50.8198 96.3898 46.3801L95.9511 46.2392L91.2029 44.7075L90.2216 41.5908L86.6861 40.6602C86.6861 40.6602 85.8963 42.2051 85.1902 49.5035C85.06 50.4608 84.9416 51.5165 84.8525 52.6613C84.5773 56.1556 84.5574 60.4902 85.1889 65.4458C85.3512 66.7143 85.5559 68.0239 85.8098 69.3696C85.996 70.3562 86.0239 71.7004 85.9454 73.2442C85.5893 80.3005 82.999 91.2668 82.999 91.2668Z" fill="#2B478B"/>
<path id="Vector_32" d="M84.8521 52.6613L92.5294 67.9242C92.5853 67.5985 92.6544 67.2062 92.7329 66.7568C92.9629 65.4392 93.2793 63.6362 93.641 61.5832C94.4733 56.859 95.5517 50.8198 96.3893 46.3801L86.6857 40.6602C86.6857 40.6602 85.8959 42.2051 85.1897 49.5034C85.0595 50.4608 84.9411 51.5165 84.8521 52.6613Z" fill="#233862"/>
<path id="Vector_33" d="M88.2295 42.6186L88.4072 41.0944C91.3848 41.8854 99.3404 38.8845 99.3404 38.8845C99.3404 38.8845 102.225 41.4201 101.846 47.498C101.661 50.4646 101.324 63.0706 100.971 66.8008C100.844 68.1529 100.732 69.1149 100.686 69.4993C100.685 69.5011 100.685 69.5021 100.685 69.503C100.671 69.6202 100.712 69.731 100.772 69.8333C101.291 70.7145 101.721 71.6319 102.074 72.5709C105.535 81.7947 101.54 93.1541 101.54 93.1541L100.504 92.7363C100.504 92.7363 98.2308 80.0947 96.3837 74.5099C96.0701 73.5627 95.7696 72.8184 95.4942 72.3736C94.6912 71.0775 93.9459 68.9597 93.2695 66.4408C91.9909 61.6787 90.9618 55.4837 90.277 50.7019C90.1825 50.7062 88.2295 42.6186 88.2295 42.6186Z" fill="#2B478B"/>
<path id="Vector_34" d="M82.5415 24.1326C83.4763 24.5661 84.6052 24.8613 85.9707 24.9357C91.0897 25.2162 92.2519 20.7287 92.4633 17.7504C91.7253 17.483 91.0791 17.5084 90.7069 17.5283C90.3439 17.5483 89.9649 17.5854 89.6525 17.6241C89.0262 17.2969 87.9012 15.708 87.2511 13.05L87.0304 13.1525L83.3366 14.889C83.3366 14.889 83.7288 16.0909 84.0187 17.2411C84.2447 18.1413 84.4071 19.0109 84.2713 19.2542C83.9802 19.3725 83.806 19.447 83.806 19.447C83.806 19.447 83.806 19.4483 83.8047 19.451C83.7674 19.5453 82.9642 21.5917 82.5415 24.1326Z" fill="#FFB27D"/>
<path id="Vector_35" d="M83.3364 14.89C83.3364 14.89 83.7292 16.0908 84.0185 17.2421C86.1776 16.6396 86.8332 14.3701 87.0305 13.1536L83.3364 14.89Z" fill="#ED985F"/>
<path id="Vector_36" d="M82.8819 16.1612C82.8819 16.1612 88.0475 14.9657 87.2535 11.7604C86.4594 8.55501 86.5914 6.24199 83.2599 6.86975C79.9283 7.4975 79.5929 8.87868 79.5977 10.013C79.6025 11.1474 81.5178 16.3895 82.8819 16.1612Z" fill="#FFB27D"/>
<path id="Vector_37" d="M79.3071 8.1934C79.8624 7.03161 80.516 7.09361 80.9249 7.2996C83.352 5.05392 87.3364 6.18252 87.3364 6.18252C88.2528 8.39619 88.6348 10.0066 88.6348 10.0066C88.6348 10.0066 87.8414 10.8191 85.5414 10.8013C84.8389 10.7958 84.1325 10.4732 83.4898 10.0288C84.7295 11.2774 86.1832 12.0376 86.1832 12.0376C83.304 11.4865 81.3734 8.15348 81.1756 7.79947C80.9317 8.15966 80.4652 8.92627 80.4259 9.57381C80.3725 10.4537 80.6753 12.1622 80.1714 12.2269C80.1714 12.2269 78.4743 9.93573 79.3071 8.1934Z" fill="#2C3A64"/>
<path id="Vector_38" d="M79.4019 23.7567C79.588 23.1984 80.8317 21.0289 80.8317 21.0289C80.832 21.029 80.8323 21.0291 80.8326 21.0292C80.8387 21.0235 81.6241 20.3041 83.8066 19.4472C83.8066 19.4472 83.8066 19.4485 83.8053 19.4512C83.7707 19.5788 82.8387 22.9548 83.179 23.6754C83.5247 24.4081 90.0679 22.0427 90.4255 21.5028C90.7115 21.0694 90.7194 18.7784 90.7115 17.8862C90.71 17.6641 90.7074 17.5285 90.7074 17.5285C90.7074 17.5285 93.1499 17.1974 94.5234 17.7532C94.5234 17.7532 93.981 18.9312 93.7815 20.2303C93.7628 20.3541 93.747 20.4777 93.735 20.6013C93.7084 20.8632 93.7004 21.1253 93.715 21.3805C93.735 21.7182 93.9091 22.0175 94.187 22.31C94.4397 22.5786 94.7827 22.8432 95.171 23.1263C95.4249 23.3099 95.6976 23.5027 95.9794 23.7115L95.9795 23.7115C96.0034 25.2412 95.8956 27.7566 96.1789 30.4408C96.2506 31.1216 96.4767 31.773 96.833 32.3501C96.974 32.5801 97.1362 32.7982 97.3171 33.0017C98.7597 34.6199 101.318 37.8455 100.756 39.8533C100.714 41.7467 85.5095 44.1851 85.0857 42.1548C85.0857 42.1548 82.6857 30.5883 81.3893 27.7961C81.3428 27.6937 81.3003 27.594 81.2617 27.4916C80.8462 26.3896 80.9163 25.2564 81.0567 24.242C80.3251 23.7217 79.4019 23.7567 79.4019 23.7567Z" fill="#018944"/>
<path id="Vector_39" d="M89.3855 38.2682C92.5354 38.235 95.2027 34.964 96.8328 32.35C96.4765 31.7729 96.2504 31.1215 96.1787 30.4407C95.8954 27.7565 96.0032 25.2411 95.9794 23.7114L95.9792 23.7113C95.6974 23.5026 95.4247 23.3098 95.1708 23.1262C94.7825 22.843 94.4395 22.5784 94.1868 22.3098C91.6073 26.6698 85.1147 38.3134 89.3855 38.2682Z" fill="#8D1B3D"/>
<path id="Vector_40" d="M95.5146 94.0012H103.717C103.717 94.0012 103.914 92.751 103.485 91.8026C103.075 90.8925 102.432 90.4789 102.586 89.3777C102.065 89.9144 101.215 90.5154 100.029 90.3558C99.8839 90.5914 99.0913 91.8521 98.6059 92.2007C98.0699 92.586 95.6797 92.4487 95.5146 94.0012Z" fill="#233862"/>
<path id="Vector_41" d="M77.9023 94.0012H86.105C86.105 94.0012 86.4116 92.6929 85.8731 91.8027C85.3965 91.0149 85.5791 90.5662 85.9322 89.9145C85.5605 90.0666 85.0799 90.2051 84.5506 90.1747C84.142 90.1512 83.7098 89.9658 83.3308 89.7456C82.9778 90.1481 81.4662 91.8614 80.9938 92.2007C80.4577 92.5861 78.0674 92.4487 77.9023 94.0012Z" fill="#233862"/>
<path id="Vector_42" d="M69.8556 94.0012H55.5397C54.4329 94.0012 53.5356 93.104 53.5356 91.9972V77.6812C53.5356 76.5745 54.4329 75.6772 55.5397 75.6772H69.8556C70.9625 75.6772 71.8597 76.5745 71.8597 77.6812V91.9972C71.8597 93.104 70.9625 94.0012 69.8556 94.0012Z" fill="#A03C37"/>
<path id="Vector_43" d="M78.3249 94.0012H64.009C62.9022 94.0012 62.0049 93.104 62.0049 91.9972V77.6812C62.0049 76.5745 62.9021 75.6772 64.009 75.6772H78.3249C79.4317 75.6772 80.3289 76.5745 80.3289 77.6812V91.9972C80.3289 93.104 79.4317 94.0012 78.3249 94.0012Z" fill="#B64C41"/>
<path id="Vector_44" d="M69.8556 39.13H55.5397C54.4329 39.13 53.5356 38.2328 53.5356 37.1259V22.81C53.5356 21.7032 54.4329 20.8059 55.5397 20.8059H69.8556C70.9625 20.8059 71.8597 21.7032 71.8597 22.81V37.1259C71.8597 38.2327 70.9625 39.13 69.8556 39.13Z" fill="#6488D3"/>
<path id="Vector_45" d="M78.3249 39.13H64.009C62.9022 39.13 62.0049 38.2328 62.0049 37.1259V22.81C62.0049 21.7032 62.9021 20.8059 64.009 20.8059H78.3249C79.4317 20.8059 80.3289 21.7032 80.3289 22.81V37.1259C80.3289 38.2327 79.4317 39.13 78.3249 39.13Z" fill="#739CF3"/>
<path id="Vector_46" d="M129.405 94.0012H115.089C113.982 94.0012 113.085 93.104 113.085 91.9972V77.6812C113.085 76.5745 113.982 75.6772 115.089 75.6772H129.405C130.512 75.6772 131.409 76.5745 131.409 77.6812V91.9972C131.409 93.104 130.512 94.0012 129.405 94.0012Z" fill="#6488D3"/>
<path id="Vector_47" d="M137.874 94.0012H123.558C122.451 94.0012 121.554 93.104 121.554 91.9972V77.6812C121.554 76.5745 122.451 75.6772 123.558 75.6772H137.874C138.981 75.6772 139.878 76.5745 139.878 77.6812V91.9972C139.878 93.104 138.981 94.0012 137.874 94.0012Z" fill="#739CF3"/>
<path id="Vector_48" d="M119.806 75.6809H105.49C104.383 75.6809 103.486 74.7837 103.486 73.6769V59.361C103.486 58.2542 104.383 57.3569 105.49 57.3569H119.806C120.913 57.3569 121.81 58.2542 121.81 59.361V73.6769C121.81 74.7837 120.913 75.6809 119.806 75.6809Z" fill="#599DAD"/>
<path id="Vector_49" d="M128.276 75.6809H113.96C112.853 75.6809 111.956 74.7837 111.956 73.6769V59.361C111.956 58.2542 112.853 57.3569 113.96 57.3569H128.276C129.382 57.3569 130.28 58.2542 130.28 59.361V73.6769C130.28 74.7837 129.382 75.6809 128.276 75.6809Z" fill="#6BB7BF"/>
<g id="Group_6">
<path id="Vector_50" d="M32.5341 79.9492C32.6863 79.9492 32.8006 79.9898 32.8769 80.0706C32.953 80.1516 33.0198 80.2731 33.0769 80.4349L36.5766 89.4625C36.586 89.491 36.5909 89.5246 36.5909 89.5625C36.5909 89.6674 36.5527 89.7578 36.4767 89.8338C36.4003 89.9101 36.3099 89.9481 36.2052 89.9481H35.1768C34.9862 89.9481 34.8529 89.9077 34.7768 89.8267C34.7005 89.7459 34.6482 89.6674 34.6197 89.591L34.0055 88.0054H29.4917L28.8774 89.591C28.8489 89.6674 28.7964 89.7458 28.7203 89.8267C28.6439 89.9077 28.5107 89.9481 28.3203 89.9481H27.2919C27.187 89.9481 27.0966 89.9101 27.0205 89.8338C26.9442 89.7577 26.9062 89.6674 26.9062 89.5625C26.9062 89.5245 26.9109 89.491 26.9206 89.4625L30.4201 80.4349C30.4773 80.2731 30.5438 80.1516 30.6201 80.0706C30.6962 79.9898 30.8105 79.9492 30.9629 79.9492H32.5341ZM33.3198 86.22L31.7485 82.1489L30.1772 86.22H33.3198Z" fill="white"/>
</g>
<g id="Group_7">
<path id="Vector_51" d="M126.481 83.175C126.509 82.6418 126.612 82.1394 126.788 81.668C126.964 81.1967 127.223 80.7873 127.566 80.4396C127.909 80.0921 128.338 79.816 128.852 79.6111C129.366 79.4064 129.975 79.304 130.68 79.304C131.375 79.304 131.98 79.4039 132.494 79.6039C133.009 79.8039 133.437 80.0802 133.78 80.4324C134.123 80.7848 134.385 81.1944 134.566 81.6609C134.746 82.1275 134.851 82.6322 134.88 83.175C134.889 83.356 134.896 83.5559 134.901 83.775C134.906 83.9941 134.909 84.2202 134.909 84.4535C134.909 84.6869 134.906 84.9129 134.901 85.1319C134.896 85.351 134.889 85.551 134.88 85.7318C134.851 86.2461 134.756 86.7317 134.594 87.1888C134.432 87.6459 134.189 88.0459 133.866 88.3887L134.937 89.9314C134.966 89.9789 134.98 90.0218 134.98 90.06C134.989 90.155 134.963 90.2314 134.901 90.2885C134.839 90.3457 134.766 90.3742 134.68 90.3742H133.323C133.152 90.3646 133.025 90.3171 132.944 90.2314C132.863 90.1456 132.799 90.0742 132.752 90.0171L132.294 89.36C132.056 89.4364 131.804 89.4932 131.537 89.5314C131.271 89.5693 130.985 89.5886 130.68 89.5886C129.976 89.5886 129.366 89.4886 128.852 89.2886C128.338 89.0886 127.909 88.815 127.566 88.4672C127.224 88.1198 126.964 87.7102 126.788 87.2388C126.612 86.7675 126.509 86.2653 126.481 85.7318C126.471 85.551 126.464 85.3511 126.459 85.1319C126.454 84.9129 126.452 84.6869 126.452 84.4535C126.452 84.2202 126.454 83.9941 126.459 83.775C126.464 83.5559 126.471 83.356 126.481 83.175ZM132.951 83.2463C132.913 82.5608 132.692 82.03 132.287 81.6538C131.882 81.2777 131.347 81.0895 130.68 81.0895C130.014 81.0895 129.478 81.2777 129.073 81.6538C128.668 82.0301 128.447 82.5608 128.409 83.2463C128.39 83.6084 128.381 84.0106 128.381 84.4535C128.381 84.8963 128.39 85.2987 128.409 85.6605C128.447 86.346 128.668 86.8746 129.073 87.246C129.478 87.6175 130.014 87.803 130.68 87.803C131.347 87.803 131.882 87.6174 132.287 87.246C132.692 86.8746 132.913 86.346 132.951 85.6605C132.97 85.2987 132.98 84.8963 132.98 84.4535C132.98 84.0106 132.97 83.6084 132.951 83.2463Z" fill="white"/>
</g>
<g id="Group_8">
<path id="Vector_52" d="M76.5011 68.347C76.52 68.2234 76.5701 68.1305 76.6511 68.0685C76.7319 68.0066 76.8201 67.9757 76.9153 67.9757H78.0724C78.1771 67.9757 78.27 68.0113 78.3509 68.0828C78.4318 68.1541 78.4675 68.247 78.4581 68.3613C78.4295 68.7519 78.3318 69.1422 78.1652 69.5326C77.9985 69.9232 77.7439 70.2754 77.401 70.5897C77.0582 70.9039 76.6248 71.161 76.1012 71.361C75.5773 71.561 74.9441 71.661 74.2014 71.661C73.5443 71.661 72.9634 71.5632 72.4587 71.3681C71.9538 71.173 71.5253 70.9016 71.1731 70.5539C70.8206 70.2063 70.5467 69.7897 70.3517 69.304C70.1564 68.8183 70.0397 68.2898 70.0017 67.7184C69.9826 67.3566 69.9731 66.9567 69.9731 66.5186C69.9731 66.0807 69.9825 65.6807 70.0017 65.3188C70.0397 64.7474 70.1564 64.2188 70.3517 63.7332C70.5468 63.2475 70.8206 62.8311 71.1731 62.4833C71.5253 62.1357 71.9538 61.8644 72.4587 61.6691C72.9634 61.474 73.5442 61.3762 74.2014 61.3762C74.9442 61.3762 75.5773 61.4762 76.1012 61.6762C76.6248 61.8762 77.0581 62.1333 77.401 62.4475C77.7439 62.7617 77.9985 63.1166 78.1652 63.5116C78.3317 63.9069 78.4295 64.2951 78.4581 64.6759C78.4675 64.7901 78.4318 64.883 78.3509 64.9544C78.27 65.0258 78.1771 65.0615 78.0724 65.0615H76.9153C76.82 65.0615 76.7296 65.0308 76.6439 64.9687C76.5582 64.9068 76.5058 64.814 76.4868 64.6901C76.4582 64.4997 76.3914 64.314 76.2868 64.1331C76.1819 63.9523 76.039 63.7903 75.8583 63.6474C75.6773 63.5046 75.4488 63.3881 75.1727 63.2975C74.8964 63.2071 74.5727 63.1618 74.2014 63.1618C73.8299 63.1618 73.5061 63.2189 73.23 63.3332C72.9538 63.4474 72.723 63.6 72.5372 63.7903C72.3516 63.9809 72.2087 64.2095 72.1087 64.476C72.0088 64.7426 71.9492 65.0236 71.9302 65.3188C71.911 65.6807 71.9016 66.0808 71.9016 66.5186C71.9016 66.9567 71.911 67.3566 71.9302 67.7184C71.9492 68.0233 72.0088 68.3066 72.1087 68.5683C72.2087 68.8304 72.3516 69.0565 72.5372 69.2468C72.7229 69.4374 72.9537 69.5897 73.23 69.7039C73.5061 69.8182 73.83 69.8753 74.2014 69.8753C74.5727 69.8753 74.8964 69.8303 75.1727 69.7396C75.4488 69.6492 75.6798 69.5325 75.8655 69.3897C76.0512 69.2468 76.1963 69.085 76.3012 68.904C76.4058 68.7233 76.4725 68.5376 76.5011 68.347Z" fill="white"/>
</g>
<g id="Group_9">
<path id="Vector_53" d="M74.3029 33.1819C74.4075 33.1819 74.498 33.2201 74.5743 33.2962C74.6504 33.3725 74.6886 33.4629 74.6886 33.5676V34.5818C74.6886 34.6867 74.6504 34.7771 74.5743 34.8532C74.498 34.9295 74.4075 34.9675 74.3029 34.9675H68.0321C67.9273 34.9675 67.8369 34.9295 67.7608 34.8532C67.6844 34.7771 67.6465 34.6867 67.6465 34.5818V25.3542C67.6465 25.2495 67.6844 25.1591 67.7608 25.0828C67.8369 25.0067 67.9272 24.9685 68.0321 24.9685H74.1886C74.2933 24.9685 74.3837 25.0067 74.46 25.0828C74.5362 25.1592 74.5743 25.2495 74.5743 25.3542V26.3684C74.5743 26.4733 74.5362 26.5637 74.46 26.6397C74.3837 26.7161 74.2933 26.754 74.1886 26.754H69.5748V29.0252H73.8743C73.979 29.0252 74.0694 29.0634 74.1458 29.1395C74.2219 29.2158 74.2601 29.3061 74.2601 29.4108V30.425C74.2601 30.5299 74.2219 30.6203 74.1458 30.6964C74.0694 30.7728 73.979 30.8107 73.8743 30.8107H69.5748V33.1818L74.3029 33.1819Z" fill="white"/>
</g>
<g id="Group_10">
<path id="Vector_54" d="M26.6545 73.1304C27.1054 71.2638 25.9577 69.385 24.091 68.934C22.2243 68.4831 20.3455 69.6308 19.8946 71.4975C19.4437 73.3642 20.5914 75.243 22.4581 75.6939C24.3248 76.1448 26.2036 74.9971 26.6545 73.1304Z" fill="#F99746"/>
<path id="Vector_55" d="M23.2786 68.832C23.1403 68.832 23.0041 68.8411 22.8701 68.8567C24.1946 69.0334 25.2166 70.1668 25.2166 71.5397C25.2166 73.0351 24.0043 74.2473 22.5089 74.2473C21.1361 74.2473 20.0026 73.2253 19.826 71.9008C19.8103 72.0349 19.8013 72.171 19.8013 72.3093C19.8013 74.2298 21.3581 75.7866 23.2786 75.7866C25.1991 75.7866 26.7559 74.2298 26.7559 72.3093C26.7558 70.3889 25.199 68.832 23.2786 68.832Z" fill="#ED7D2B"/>
</g>
<g id="Group_11">
<path id="Vector_56" d="M116.236 93.1671C117.594 91.8091 117.594 89.6074 116.236 88.2494C114.878 86.8915 112.677 86.8915 111.319 88.2495C109.961 89.6074 109.961 91.8091 111.319 93.1671C112.677 94.525 114.878 94.525 116.236 93.1671Z" fill="#F99746"/>
<path id="Vector_57" d="M113.779 87.2307C113.641 87.2307 113.505 87.2397 113.37 87.2554C114.695 87.432 115.717 88.5655 115.717 89.9384C115.717 91.4337 114.505 92.646 113.009 92.646C111.637 92.646 110.503 91.624 110.326 90.2995C110.311 90.4336 110.302 90.5697 110.302 90.708C110.302 92.6285 111.859 94.1853 113.779 94.1853C115.699 94.1853 117.256 92.6285 117.256 90.708C117.256 88.7875 115.699 87.2307 113.779 87.2307Z" fill="#ED7D2B"/>
</g>
<g id="Group_12">
<path id="Vector_58" d="M132.154 72.7566C132.462 70.8609 131.174 69.0748 129.279 68.7671C127.383 68.4594 125.597 69.7468 125.289 71.6425C124.981 73.5382 126.269 75.3244 128.164 75.632C130.06 75.9397 131.846 74.6523 132.154 72.7566Z" fill="#F99746"/>
<path id="Vector_59" d="M128.717 68.7229C128.579 68.7229 128.443 68.7319 128.309 68.7475C129.633 68.9242 130.655 70.0576 130.655 71.4305C130.655 72.9259 129.443 74.1382 127.947 74.1382C126.575 74.1382 125.441 73.1161 125.264 71.7916C125.249 71.9258 125.24 72.0619 125.24 72.2002C125.24 74.1206 126.797 75.6775 128.717 75.6775C130.638 75.6775 132.194 74.1206 132.194 72.2002C132.194 70.2797 130.638 68.7229 128.717 68.7229Z" fill="#ED7D2B"/>
</g>
<path id="Vector_60" d="M69.2105 38.5213C69.4844 38.4065 70.8305 38.2539 71.1478 38.445C71.4651 38.636 72.5924 38.8284 72.5924 38.8284C72.6422 38.467 71.7605 38.1859 71.7147 37.9831C71.6691 37.7805 71.8855 37.7245 71.8855 37.7245C72.4479 37.7409 73.6266 38.2715 74.0236 38.5964C74.4207 38.9213 75.1897 39.0103 75.1897 39.0103C75.1897 39.0103 75.8056 38.7842 76.7383 38.4277C77.316 38.2088 78.0118 37.944 78.7495 37.6476C80.5258 36.9473 82.575 36.073 83.9989 35.3114C84.8177 34.8771 85.4451 34.4785 85.6876 34.1635C86.0653 33.6805 86.5218 32.8976 87.0418 31.9243C87.3113 31.414 87.5996 30.8566 87.8932 30.2626C88.401 29.2876 88.9206 28.2271 89.4525 27.1684C90.4159 25.236 91.4299 23.2981 92.3431 21.8191C92.9314 20.8926 93.4839 20.1352 93.968 19.692C94.3533 19.3344 94.6994 19.1708 94.9978 19.2618C95.045 19.2806 95.08 19.2979 95.115 19.3152C95.115 19.3152 96.8056 20.0462 96.3414 23.5901C96.3266 23.7873 96.2858 23.9931 96.2432 24.2111C96.1328 24.8304 95.9063 25.5707 95.6085 26.3755C95.1235 27.727 94.4127 29.2711 93.5763 30.823C93.3448 31.239 93.1116 31.6671 92.866 32.0935C91.0958 35.1837 88.9774 38.0018 87.4059 38.8422C87.3381 38.8826 87.2842 38.9126 87.2181 38.9408C86.5676 39.2368 85.6363 39.4939 84.5742 39.708C83.0659 39.9977 81.296 40.2012 79.7193 40.3569L79.7072 40.3552C78.7888 40.4276 77.9455 40.4979 77.2433 40.5378C77.2433 40.5378 77.0917 40.5541 76.8286 40.5676C75.9521 40.6084 75.4014 40.6319 75.4014 40.6319C75.4014 40.6319 72.24 41.2031 71.4607 40.6239C70.6816 40.0448 68.9366 38.6361 69.2105 38.5213Z" fill="#FFB27D"/>
<path id="Vector_61" d="M90.7544 23.0006C93.1272 22.3466 95.979 26.2611 95.979 26.2611C98.898 18.5614 94.5226 17.7536 94.5226 17.7536C93.808 17.4577 91.6086 21.0838 90.7544 23.0006Z" fill="#018944"/>
</g>
<path id="Vector_62" d="M153.296 94.3881H0.699168C0.603845 94.3881 0.525879 94.3101 0.525879 94.2148V94.1557C0.525879 94.0604 0.603845 93.9824 0.699168 93.9824H153.296C153.391 93.9824 153.469 94.0604 153.469 94.1557V94.2148C153.469 94.3101 153.391 94.3881 153.296 94.3881Z" fill="#2E3552"/>
</g>
</svg>
