<svg width="91" height="95" viewBox="0 0 91 95" fill="none" xmlns="http://www.w3.org/2000/svg">
<g id="Group 1000003463">
<g id="Sparkle_00000077286014390076080320000009448564880085904270_">
<g id="Sparkle" opacity="0.2">
<path id="Vector" d="M44.1615 44.1632C43.7686 43.2444 43.7355 42.3243 43.7357 41.3846L43.7023 38.4988C43.6766 37.0029 43.6789 35.482 43.6806 34.0113L43.6819 32.731C43.6989 29.2824 43.7497 25.7752 43.7993 22.3837L43.8165 21.1943C43.8409 19.8372 43.8625 18.4797 43.8841 17.1222C43.9231 14.6753 43.9634 12.1452 44.0202 9.65675L44.155 3.88767C44.1751 3.23361 44.1938 2.57892 44.2124 1.92402C44.2304 1.29094 44.2489 0.646637 44.2686 0C44.2885 0.646637 44.3069 1.29094 44.3249 1.92402C44.3436 2.57892 44.3622 3.23361 44.3822 3.88851L44.517 9.65675C44.5738 12.145 44.614 14.6749 44.653 17.1216C44.6749 18.4793 44.6963 19.8368 44.7206 21.1943L44.7378 22.3843C44.7872 25.7759 44.8383 29.2824 44.8552 32.7312L44.8565 34.0149C44.8586 35.4845 44.8607 37.0042 44.8351 38.4981L44.8014 41.3831C44.8016 42.3243 44.7688 43.2446 44.3756 44.1629L44.1615 44.1632Z" fill="#8D1B3D"/>
<path id="Vector_2" d="M44.1444 44.1833C43.5981 43.3472 43.4058 42.4467 43.2426 41.5209L42.7083 38.6847C42.4224 37.211 42.1596 35.7082 41.9053 34.2544L41.6868 33.008C41.1056 29.6142 40.5476 26.1569 40.0082 22.8133L39.8159 21.6231C39.6048 20.2847 39.3908 18.9464 39.1765 17.6082C38.7897 15.1893 38.3896 12.6882 38.0132 10.2254L37.144 4.52056C37.0509 3.87646 36.9558 3.23195 36.861 2.58743C36.7682 1.95775 36.6741 1.31704 36.5811 0.673584C36.7112 1.29945 36.8396 1.92277 36.9657 2.53593C37.0993 3.18468 37.2328 3.83344 37.368 4.48198L38.5023 10.1392C38.9877 12.5668 39.4641 15.038 39.9249 17.4279C40.1845 18.7741 40.4441 20.1206 40.7065 21.4662L40.9341 22.6559C41.5702 25.9804 42.2281 29.4179 42.8423 32.8045L43.0631 34.0503C43.3215 35.503 43.5885 37.0055 43.8238 38.4871L44.2917 41.3342C44.4552 42.2612 44.5825 43.1732 44.3551 44.1458L44.1444 44.1833Z" fill="#8D1B3D"/>
<path id="Vector_3" d="M44.1318 44.2062C43.4483 43.4778 43.1028 42.6243 42.7813 41.7409L41.7625 39.0408C41.2246 37.6379 40.7042 36.202 40.2011 34.8134L39.7709 33.6275C38.6096 30.3876 37.4605 27.0813 36.349 23.8837L35.9516 22.7407C35.507 21.4472 35.0596 20.1541 34.6124 18.8613C33.8155 16.5583 32.9914 14.1771 32.1971 11.8294L30.3506 6.36216C30.1457 5.74032 29.9392 5.11827 29.7326 4.49621C29.5334 3.89578 29.3305 3.28517 29.1279 2.67139C29.3657 3.26695 29.601 3.86081 29.8324 4.44429C30.0757 5.05807 30.3193 5.67186 30.5643 6.28522L32.6636 11.6597C33.5658 13.9728 34.4668 16.3309 35.3383 18.6112C35.8251 19.8852 36.3117 21.1589 36.8011 22.4319L37.2216 23.5372C38.4286 26.7093 39.6767 29.9895 40.8734 33.227L41.3115 34.4274C41.8165 35.8095 42.339 37.2384 42.8264 38.6529L43.7817 41.3755C44.1038 42.2598 44.3874 43.1357 44.3323 44.1333L44.1318 44.2062Z" fill="#8D1B3D"/>
<path id="Vector_4" d="M44.123 44.2308C43.3235 43.6316 42.8348 42.8515 42.3649 42.0374L40.893 39.5551C40.1217 38.2703 39.3619 36.9501 38.6275 35.6734L37.9917 34.57C36.2805 31.5721 34.5697 28.5065 32.9148 25.5419L32.3398 24.5116C31.6828 23.3248 31.0232 22.1392 30.3637 20.9535C29.1736 18.8142 27.9431 16.6021 26.7477 14.4181L23.9797 9.35455C23.6699 8.77743 23.3581 8.20052 23.0468 7.6234C22.7462 7.06705 22.4406 6.50095 22.1348 5.93188C22.4735 6.4787 22.8092 7.02403 23.1394 7.56003C23.4846 8.12083 23.8301 8.68163 24.1768 9.24158L27.1775 14.1697C28.4685 16.2925 29.7662 18.4596 31.0213 20.5555C31.7209 21.724 32.4208 22.8926 33.1227 24.0598L33.7308 25.0784C35.4698 27.9917 37.2679 31.0043 39.008 33.9838L39.6434 35.0823C40.3824 36.3582 41.1465 37.6773 41.8736 38.9882L43.2871 41.5037C43.7578 42.3189 44.1893 43.1325 44.3082 44.124L44.123 44.2308Z" fill="#8D1B3D"/>
<path id="Vector_5" d="M44.1183 44.2568C43.2267 43.8057 42.6101 43.122 42.0061 42.4018L40.1253 40.2129C39.143 39.0818 38.1657 37.9137 37.2204 36.7843L36.4023 35.8074C34.2077 33.1658 32.0018 30.4578 29.8683 27.839L29.0897 26.8832C28.2319 25.823 27.3721 24.7642 26.512 23.7055C24.9731 21.811 23.3816 19.8518 21.8298 17.9142L18.2244 13.4081C17.8143 12.8875 17.4025 12.3674 16.9907 11.8473C16.6026 11.3571 16.208 10.8586 15.8125 10.3569C16.2421 10.8383 16.669 11.3183 17.0886 11.7905C17.5252 12.2816 17.9614 12.7727 18.3993 13.2627L22.2102 17.5948C23.8494 19.4605 25.5034 21.3688 27.1027 23.2142C27.9952 24.2443 28.8879 25.2741 29.7827 26.3022L30.5781 27.2229C32.79 29.7825 35.077 32.4293 37.3014 35.0536L38.1152 36.0215C39.0654 37.1507 40.0479 38.3183 40.9928 39.4842L42.8216 41.716C43.4267 42.437 43.9928 43.1633 44.2824 44.1192L44.1183 44.2568Z" fill="#8D1B3D"/>
<path id="Vector_6" d="M44.118 44.2829C43.1617 43.9933 42.4356 43.4272 41.7158 42.823L39.4839 40.9939C38.3205 40.0512 37.1561 39.0714 36.0298 38.1236L35.0521 37.3017C32.419 35.0701 29.7629 32.7748 27.1942 30.5549L26.301 29.783C25.2754 28.8907 24.2479 28.0001 23.2204 27.1098C21.3725 25.5083 19.4621 23.8524 17.5938 22.2109L13.261 18.3993C12.7708 17.9617 12.2793 17.5247 11.7876 17.0876C11.3165 16.669 10.8377 16.2432 10.3574 15.8147C10.8597 16.2106 11.3593 16.6059 11.8501 16.9948C12.369 17.4055 12.8878 17.8163 13.4079 18.226L17.9132 21.8307C19.851 23.3825 21.81 24.974 23.7045 26.5129C24.7632 27.373 25.822 28.2331 26.8826 29.091L27.8084 29.8453C30.4369 31.9868 33.155 34.2009 35.8067 36.4039L36.7899 37.2273C37.9172 38.1706 39.0829 39.146 40.2113 40.1262L42.3996 42.0066C43.1206 42.611 43.8045 43.2278 44.2556 44.1194L44.118 44.2829Z" fill="#8D1B3D"/>
<path id="Vector_7" d="M44.1235 44.3087C43.1316 44.1896 42.3182 43.758 41.5043 43.288L38.9884 41.8743C37.6788 41.1478 36.3613 40.3848 35.0878 39.647L33.9831 39.008C31 37.266 27.983 35.4654 25.0658 33.7238L24.0593 33.1232C22.8966 32.4236 21.732 31.7263 20.5671 31.029C18.4674 29.7717 16.2963 28.4717 14.1692 27.178L9.24049 24.1767C8.68605 23.8333 8.13012 23.491 7.5742 23.1485C7.03332 22.8153 6.48333 22.4767 5.93164 22.135C6.50134 22.4411 7.06808 22.7471 7.62506 23.0478C8.20134 23.3592 8.77761 23.6703 9.35473 23.9802L14.4176 26.7477C16.5979 27.941 18.8061 29.1694 20.9416 30.3573C22.1311 31.019 23.3207 31.6807 24.5116 32.3401L25.5842 32.9388C28.5349 34.5858 31.5858 36.2888 34.5698 37.9919L35.6664 38.6237C36.9452 39.3596 38.2675 40.1207 39.5538 40.8928L42.0357 42.3645C42.851 42.835 43.6314 43.3236 44.2303 44.123L44.1235 44.3087Z" fill="#8D1B3D"/>
<path id="Vector_8" d="M43.8822 44.3404C42.9802 44.3404 42.1818 44.0767 41.3756 43.7832L38.6521 42.828C37.2361 42.3399 35.8059 41.817 34.423 41.3113L33.2253 40.8741C29.9836 39.6762 26.6985 38.4261 23.5219 37.2172L22.4304 36.8018C21.1607 36.3137 19.8896 35.8279 18.6186 35.3422C16.3356 34.4698 13.9745 33.5676 11.6584 32.6643L6.28355 30.5645C5.67167 30.3202 5.05852 30.0771 4.44537 29.834C3.86083 29.6021 3.26633 29.3664 2.66992 29.1284C3.2818 29.33 3.8905 29.5322 4.48882 29.731C5.11299 29.9383 5.73716 30.1455 6.36197 30.3513L11.8286 32.1976C14.1774 32.9923 16.5596 33.8168 18.8636 34.6139C20.1554 35.0609 21.4472 35.5079 22.7401 35.9521L23.878 36.3478C27.0773 37.4599 30.3853 38.6097 33.6271 39.7716L34.8286 40.2075C36.2118 40.7088 37.6422 41.2272 39.0393 41.763L41.7386 42.7813C42.6233 43.1031 43.4768 43.4488 44.2054 44.1323L44.1323 44.333C44.0482 44.3381 43.9649 44.3404 43.8822 44.3404Z" fill="#8D1B3D"/>
<path id="Vector_9" d="M43.0351 44.4792C42.4406 44.4792 41.8461 44.383 41.3351 44.2929L38.4871 43.8249C37.013 43.5907 35.519 43.3254 34.0744 43.0685L32.8034 42.8432C29.4125 42.2279 25.9699 41.5692 22.6407 40.9321L21.4653 40.7073C20.1262 40.4461 18.7859 40.1878 17.4458 39.9294C15.0498 39.4674 12.5722 38.9897 10.1384 38.5033L4.4804 37.3687C3.83801 37.235 3.19476 37.1025 2.55109 36.9701C1.93285 36.8427 1.30381 36.7132 0.672852 36.5818C1.30762 36.6738 1.93963 36.7668 2.56063 36.8582C3.21383 36.9542 3.86704 37.0504 4.52067 37.1449L10.2247 38.0139C12.68 38.3892 15.1738 38.7883 17.5853 39.1741C18.9309 39.3894 20.2763 39.6045 21.6223 39.8169L22.7882 40.0051C26.1397 40.546 29.605 41.1051 33.0075 41.6877L34.2666 41.9088C35.7159 42.1622 37.2143 42.4244 38.6829 42.7093L41.5185 43.2434C42.4455 43.4068 43.3461 43.599 44.1822 44.1454L44.1451 44.3558C43.7916 44.4387 43.4279 44.4792 43.0351 44.4792Z" fill="#8D1B3D"/>
<path id="Vector_10" d="M32.7301 44.8559C29.2761 44.8389 25.7633 44.7879 22.3663 44.7383L21.1934 44.7213C19.8321 44.6967 18.4704 44.6751 17.1087 44.6535C14.6662 44.6145 12.1403 44.5742 9.65633 44.5176L3.88724 44.383C3.23001 44.3627 2.57235 44.344 1.91427 44.3254C1.28416 44.3074 0.643458 44.2892 0 44.2694C0.64367 44.2497 1.2848 44.2315 1.91469 44.2135C2.57235 44.1948 3.23022 44.176 3.88809 44.1558L9.65633 44.0213C12.1403 43.9645 14.6662 43.9242 17.1087 43.8854C18.4706 43.8636 19.8323 43.8422 21.1939 43.8176L22.4087 43.8C25.792 43.7508 29.2903 43.7 32.7308 43.683L35.2385 43.6807C36.1973 43.6807 37.3346 43.6834 38.4975 43.7033L41.3827 43.737C42.3284 43.737 43.245 43.7701 44.1625 44.1626V44.3765C43.2448 44.7692 42.3262 44.8023 41.388 44.8023L38.4979 44.836C37.3356 44.8559 36.2003 44.8586 35.2429 44.8586L32.7301 44.8559Z" fill="#8D1B3D"/>
<path id="Vector_11" d="M0.672852 51.9563C1.29914 51.8259 1.9231 51.6973 2.53625 51.5712C3.1848 51.4379 3.83313 51.3043 4.48125 51.1693L10.1389 50.035C12.5764 49.5476 15.058 49.0692 17.4581 48.6065C18.7942 48.349 20.13 48.0913 21.4657 47.831L22.6407 47.6062C25.9699 46.9691 29.4125 46.3103 32.8038 45.6951L34.0642 45.4717C35.5122 45.2142 37.0096 44.948 38.4864 44.7136L41.3337 44.2456C41.8457 44.1553 42.4408 44.0591 43.0351 44.0591C43.4274 44.0591 43.7913 44.0996 44.1451 44.1822L44.1822 44.3927C43.3463 44.9391 42.4457 45.1313 41.5195 45.2945L38.6833 45.8288C37.212 46.1143 35.7108 46.3769 34.2592 46.6306L33.0066 46.8504C29.5984 47.4338 26.1263 47.9942 22.7685 48.5362L21.6217 48.7214C20.2803 48.9331 18.9389 49.1476 17.5975 49.3621C15.182 49.7485 12.6839 50.148 10.2245 50.524L4.51961 51.3934C3.86853 51.4875 3.21701 51.5835 2.56529 51.6793C1.94302 51.7708 1.30953 51.8641 0.672852 51.9563Z" fill="#8D1B3D"/>
<path id="Vector_12" d="M2.66895 59.4102C3.26556 59.172 3.86049 58.9361 4.44524 58.7042C5.05839 58.4611 5.67175 58.2178 6.28448 57.9733L11.6585 55.874C13.978 54.9692 16.3429 54.0659 18.6295 53.192C19.8969 52.7077 21.1646 52.2235 22.4309 51.7366L23.5031 51.3286C26.6861 50.1172 29.9776 48.8648 33.226 47.6641L34.419 47.2288C35.8034 46.7227 37.2351 46.1994 38.6522 45.7109L41.3748 44.7557C42.1825 44.4617 42.9807 44.1982 43.8831 44.1982C43.9656 44.1982 44.0487 44.2004 44.1328 44.205L44.2059 44.4057C43.4773 45.0893 42.6238 45.4349 41.7404 45.7562L39.0402 46.7748C37.6433 47.3104 36.2138 47.8286 34.8311 48.3294L33.6272 48.7665C30.3913 49.9262 27.0892 51.0741 23.8959 52.184L22.7401 52.5859C21.4481 53.0301 20.157 53.4769 18.8656 53.9239C16.5612 54.7214 14.1783 55.5459 11.8291 56.3407L6.36162 58.1873C5.73321 58.3944 5.10438 58.6031 4.47597 58.8117C3.88105 59.0092 3.27637 59.2099 2.66895 59.4102Z" fill="#8D1B3D"/>
<path id="Vector_13" d="M5.93164 66.4032C6.48078 66.0632 7.02845 65.726 7.56678 65.3943C8.12525 65.0503 8.68393 64.7063 9.24155 64.3609L14.1694 61.3602C16.2916 60.0697 18.4579 58.7726 20.5532 57.5179C21.7224 56.8176 22.8917 56.1176 24.0597 55.415L25.0953 54.797C28.0032 53.0614 31.01 51.2664 33.9838 49.53L35.0922 48.8886C36.3647 48.1517 37.6805 47.3893 38.9879 46.6639L41.5035 45.2506C42.3186 44.7799 43.1321 44.3484 44.1237 44.2295L44.2306 44.4147C43.6318 45.2142 42.8512 45.7029 42.0369 46.1726L39.5547 47.6445C38.2739 48.4135 36.9577 49.1709 35.6848 49.9036L34.5696 50.5462C31.5971 52.243 28.5572 53.9399 25.6173 55.5807L24.5112 56.1981C23.3162 56.8596 22.1226 57.5236 20.9289 58.1878C18.7974 59.3734 16.5936 60.5995 14.4176 61.7904L9.35388 64.5584C8.77528 64.8691 8.19646 65.1815 7.61786 65.4941C7.0632 65.7938 6.4988 66.0986 5.93164 66.4032Z" fill="#8D1B3D"/>
<path id="Vector_14" d="M10.3564 72.7244C10.835 72.2971 11.3125 71.8728 11.7818 71.4557C12.2754 71.017 12.769 70.578 13.2615 70.1383L17.5937 66.3271C19.4641 64.6835 21.3775 63.0257 23.2275 61.4221C24.2527 60.5339 25.2779 59.6454 26.3011 58.7548L27.1955 57.9821C29.7638 55.7626 32.4195 53.4677 35.0524 51.2361L36.0183 50.4242C37.1481 49.4734 38.3166 48.4902 39.4833 47.5449L41.7151 45.7161C42.4359 45.111 43.162 44.5447 44.1181 44.2554L44.2554 44.4192C43.8046 45.3106 43.1207 45.9274 42.4005 46.5314L40.2116 48.4122C39.0825 49.3931 37.9164 50.3687 36.7889 51.3122L35.8061 52.1354C33.1498 54.3424 30.4264 56.5608 27.7928 58.7061L26.882 59.4481C25.8232 60.3045 24.7662 61.1633 23.7088 62.0221C21.8128 63.5623 19.8521 65.1548 17.9126 66.708L13.4067 70.3133C12.8845 70.7247 12.3627 71.138 11.8409 71.5511C11.353 71.9374 10.8562 72.3306 10.3564 72.7244Z" fill="#8D1B3D"/>
<path id="Vector_15" d="M15.8135 78.1811C16.2098 77.678 16.6059 77.178 16.9951 76.6863C17.4058 76.1677 17.8163 75.649 18.2256 75.1296L21.8305 70.6241C23.3832 68.6854 24.9756 66.7252 26.5153 64.8293C27.3745 63.7718 28.2335 62.7142 29.0904 61.6547L29.8748 60.6918C32.0063 58.0754 34.2103 55.3701 36.4033 52.7304L37.222 51.7529C38.1669 50.6237 39.1437 49.4561 40.1256 48.3258L42.0058 46.1373C42.6109 45.4162 43.2274 44.7325 44.1189 44.2815L44.2825 44.4188C43.9932 45.3745 43.4269 46.1008 42.8226 46.821L40.9933 49.0532C40.0481 50.2195 39.0655 51.3871 38.1156 52.5161L37.3013 53.4847C35.0776 56.1083 32.7905 58.7549 30.5787 61.3143L29.7826 62.2358C28.8882 63.2635 27.9957 64.2933 27.1032 65.323C25.5037 67.1686 23.8497 69.0771 22.2101 70.9431L18.399 75.2758C17.9638 75.7628 17.5294 76.2516 17.0953 76.7401C16.674 77.2151 16.2452 77.6977 15.8135 78.1811Z" fill="#8D1B3D"/>
<path id="Vector_16" d="M22.1348 82.6061C22.44 82.0379 22.7452 81.4726 23.0453 80.9171C23.3575 80.3393 23.6692 79.7616 23.9799 79.183L26.7475 74.1201C27.9424 71.9367 29.1725 69.7257 30.3622 67.5874C31.0222 66.4007 31.6824 65.2143 32.34 64.0263L32.9161 62.9944C34.5703 60.0306 36.2809 56.9654 37.9921 53.9677L38.626 52.8673C39.3613 51.5899 40.1215 50.2687 40.8928 48.9837L42.3643 46.5018C42.8348 45.6869 43.3233 44.9065 44.123 44.3074L44.3082 44.4142C44.1891 45.4057 43.7576 46.2193 43.2877 47.0334L41.8741 49.5494C41.1475 50.8589 40.3845 52.176 39.6465 53.45L39.0075 54.5546C37.2643 57.5394 35.4624 60.5581 33.72 63.4774L33.1225 64.4786C32.4201 65.6462 31.7201 66.8155 31.0198 67.9848C29.7651 70.08 28.468 72.2463 27.1775 74.3685L24.1764 79.2972C23.8314 79.8542 23.4874 80.4129 23.1434 80.9711C22.8117 81.5097 22.4745 82.0574 22.1348 82.6061Z" fill="#8D1B3D"/>
<path id="Vector_17" d="M29.1279 85.8676C29.3299 85.2547 29.5325 84.6447 29.7318 84.0453C29.9384 83.4224 30.1455 82.7993 30.3508 82.1758L32.1971 76.7093C32.9923 74.3595 33.817 71.9764 34.6143 69.6716C35.0608 68.3806 35.5078 67.0895 35.9519 65.7977L36.3535 64.6424C37.4634 61.449 38.6113 58.147 39.7713 54.9106L40.2034 53.7195C40.7059 52.3327 41.2256 50.8987 41.7625 49.4984L42.7811 46.7989C43.1028 45.9145 43.4485 45.061 44.132 44.3325L44.3325 44.4056C44.3878 45.4035 44.104 46.2792 43.7823 47.1622L42.8269 49.8854C42.3385 51.302 41.8157 52.7327 41.31 54.116L40.8732 55.3124C39.6759 58.5522 38.4265 61.8352 37.2184 65.0103L36.8009 66.1075C36.3115 67.3807 35.8245 68.6553 35.3374 69.9297C34.4663 72.2096 33.5656 74.567 32.6636 76.8795L30.5638 82.2544C30.3197 82.8663 30.0764 83.4794 29.8333 84.0928C29.6014 84.6769 29.3659 85.2714 29.1279 85.8676Z" fill="#8D1B3D"/>
<path id="Vector_18" d="M36.5811 87.8645C36.6741 87.2215 36.7686 86.5812 36.861 85.9521C36.956 85.3072 37.0509 84.6621 37.1444 84.0167L38.0134 78.3127C38.39 75.8493 38.7901 73.3475 39.1771 70.9279C39.3912 69.5904 39.6051 68.253 39.8164 66.9148L40.0071 65.732C40.5471 62.3862 41.1054 58.9267 41.6872 55.5297L41.9057 54.2832C42.1598 52.8299 42.4226 51.3268 42.7085 49.8543L43.2426 47.0187C43.406 46.0916 43.5983 45.1911 44.1447 44.355L44.3551 44.3921C44.5825 45.3645 44.4554 46.2767 44.292 47.2024L43.824 50.0503C43.5887 51.5328 43.3215 53.0353 43.0631 54.4884L42.8423 55.734C42.2276 59.1225 41.5691 62.563 40.9327 65.8899L40.7065 67.0721C40.4441 68.4179 40.1845 69.7646 39.9249 71.1113C39.4641 73.5007 38.9877 75.972 38.5025 78.3991L37.368 84.057C37.233 84.7044 37.0995 85.3528 36.9664 86.0013C36.8401 86.6147 36.7114 87.2384 36.5811 87.8645Z" fill="#8D1B3D"/>
<path id="Vector_19" d="M44.2687 88.5384C44.249 87.8915 44.2305 87.2474 44.2125 86.6144C44.1939 85.9594 44.1752 85.3048 44.1551 84.6499L44.0203 78.8814C43.9635 76.3932 43.9232 73.863 43.8842 71.4161C43.8624 70.0587 43.841 68.7012 43.8166 67.3437L43.7995 66.1538C43.7501 62.7625 43.699 59.2555 43.682 55.807L43.6808 54.5271C43.6789 53.0564 43.6765 51.5353 43.7024 50.04L43.7359 47.1548C43.7357 46.2138 43.7685 45.2938 44.1617 44.375H44.3755C44.7685 45.2933 44.8015 46.2136 44.8013 47.1536L44.835 50.0394C44.8604 51.534 44.8583 53.0536 44.8564 54.523L44.8551 55.8074C44.8382 59.2553 44.7873 62.7619 44.7379 66.153L44.7206 67.3443C44.6962 68.7014 44.6746 70.0591 44.6529 71.4166C44.6139 73.8634 44.5737 76.3934 44.5169 78.8816L44.3821 84.6509C44.3619 85.305 44.3433 85.9597 44.3249 86.6146C44.3071 87.2474 44.2886 87.8915 44.2687 88.5384Z" fill="#8D1B3D"/>
<path id="Vector_20" d="M51.9557 87.8645C51.8254 87.2384 51.6968 86.6147 51.5707 86.0013C51.4373 85.3527 51.3038 84.7044 51.1686 84.0563L50.0343 78.3989C49.5491 75.9719 49.0727 73.5009 48.6119 71.1112C48.3521 69.7648 48.0927 68.4179 47.8303 67.0716L47.6041 65.8898C46.9677 62.563 46.3094 59.1225 45.6945 55.7335L45.4737 54.4884C45.2153 53.0353 44.9481 51.5328 44.713 50.0507L44.2451 47.2035C44.0817 46.2764 43.9543 45.3644 44.1817 44.3918L44.3921 44.3547C44.9385 45.1909 45.1308 46.0914 45.294 47.0174L45.8281 49.8536C46.114 51.3268 46.3768 52.8299 46.6309 54.2832L46.8496 55.5303C47.4312 58.9267 47.9895 62.3862 48.5295 65.7319L48.7204 66.9152C48.9315 68.253 49.1454 69.5903 49.3594 70.9279C49.7465 73.3474 50.1466 75.8492 50.5232 78.3126L51.3924 84.0175C51.4857 84.662 51.5806 85.3072 51.6756 85.9521C51.7682 86.5812 51.8627 87.2214 51.9557 87.8645Z" fill="#8D1B3D"/>
<path id="Vector_21" d="M59.4087 85.8675C59.1707 85.2713 58.9352 84.6768 58.7034 84.0925C58.4603 83.4794 58.217 82.866 57.9724 82.2533L55.8731 76.8792C54.9711 74.5667 54.0703 72.2093 53.1992 69.9294C52.7122 68.6548 52.2251 67.3804 51.7355 66.1068L51.3182 65.01C50.1102 61.8351 48.8608 58.5519 47.6633 55.3117L47.2267 54.1155C46.721 52.7322 46.1979 51.3016 45.71 49.8856L44.7548 47.163C44.4326 46.2787 44.1491 45.403 44.2042 44.4052L44.4047 44.332C45.0882 45.0607 45.4336 45.914 45.7552 46.7974L46.774 49.4977C47.311 50.8984 47.8307 52.3325 48.3332 53.7192L48.7656 54.9107C49.9253 58.1467 51.0732 61.4487 52.1832 64.6421L52.5848 65.7978C53.0286 67.0883 53.4747 68.3784 53.9213 69.6683C54.7193 71.9742 55.5442 74.3586 56.3396 76.7093L58.186 82.1765C58.3912 82.7992 58.598 83.4223 58.8049 84.0452C59.0041 84.6448 59.2067 85.2546 59.4087 85.8675Z" fill="#8D1B3D"/>
<path id="Vector_22" d="M66.4018 82.6061C66.0588 82.0523 65.7185 81.4997 65.384 80.9567C65.0432 80.4031 64.7022 79.8495 64.3599 79.2966L61.359 74.3687C60.0685 72.2465 58.7714 70.0803 57.5167 67.985C56.8164 66.8157 56.1162 65.6464 55.4138 64.4784L54.8165 63.4776C53.0739 60.5585 51.272 57.5396 49.5288 54.5544L48.8785 53.43C48.1444 52.1628 47.3854 50.8522 46.6631 49.55L45.2497 47.0344C44.7789 46.2191 44.3474 45.4054 44.2285 44.4142L44.4138 44.3074C45.2132 44.9065 45.7019 45.6867 46.1718 46.5008L47.6438 48.983C48.4154 50.2685 49.1757 51.5897 49.9107 52.8671L50.545 53.9679C52.2559 56.9652 53.9667 60.0301 55.6207 62.9942L56.1969 64.0265C56.8544 65.2138 57.5144 66.4001 58.1741 67.5865C59.3638 69.725 60.5941 71.9362 61.7893 74.1199L64.5572 79.1836C64.8703 79.7665 65.185 80.3493 65.4995 80.9322C65.7969 81.4832 66.0993 82.0432 66.4018 82.6061Z" fill="#8D1B3D"/>
<path id="Vector_23" d="M72.7243 78.181C72.2892 77.6937 71.857 77.2075 71.4321 76.7294C71.0012 76.2444 70.5703 75.7595 70.1382 75.2757L66.327 70.9435C64.6876 69.0776 63.0336 67.169 61.4341 65.3235C60.5416 64.2938 59.6491 63.2638 58.7545 62.2361L57.9587 61.3148C55.7471 58.7553 53.4598 56.1088 51.2359 53.4847L50.4218 52.5166C49.4716 51.3876 48.4893 50.22 47.5444 49.0541L45.7156 46.8223C45.1107 46.1013 44.5444 45.375 44.2549 44.4193L44.4187 44.282C45.3101 44.733 45.9267 45.4167 46.5309 46.1367L48.4117 48.3256C49.3936 49.4561 50.3705 50.6237 51.3153 51.7528L52.1347 52.7311C54.3275 55.3702 56.5315 58.0759 58.663 60.6923L59.4474 61.6549C60.304 62.7142 61.1633 63.7718 62.0225 64.8294C63.5624 66.725 65.1546 68.6853 66.7073 70.6241L70.3126 75.1303C70.7215 75.6491 71.132 76.1677 71.5427 76.6863C71.9319 77.1778 72.3278 77.6778 72.7243 78.181Z" fill="#8D1B3D"/>
<path id="Vector_24" d="M78.1795 72.7243C77.6799 72.3305 77.1829 71.9372 76.6944 71.5504C76.1726 71.1373 75.651 70.7242 75.1281 70.3124L70.6229 66.7075C68.6836 65.1544 66.7229 63.5616 64.8264 62.0214C63.7695 61.1626 62.7121 60.3038 61.6532 59.4474L60.7436 58.7064C58.1098 56.5607 55.3863 54.3421 52.7292 52.1345L51.747 51.3119C50.6195 50.3684 49.4532 49.3926 48.3246 48.4121L46.1363 46.5318C45.415 45.9269 44.7311 45.3101 44.2803 44.4187L44.4176 44.2549C45.3737 44.5442 46.0996 45.1105 46.8198 45.7147L49.0517 47.544C50.2191 48.4897 51.3876 49.4729 52.5174 50.4237L53.4837 51.2359C56.1164 53.4674 58.7723 55.7623 61.3406 57.982L62.2348 58.7547C63.2576 59.6449 64.2828 60.5334 65.3078 61.4214C67.158 63.0248 69.0714 64.6832 70.942 66.327L75.2748 70.1382C75.7667 70.5775 76.2603 71.0165 76.7539 71.4552C77.2236 71.8727 77.7011 72.2972 78.1795 72.7243Z" fill="#8D1B3D"/>
<path id="Vector_25" d="M82.6058 66.4032C82.0384 66.0984 81.4742 65.7938 80.9193 65.4941C80.3407 65.1815 79.7619 64.8691 79.1825 64.558L74.1196 61.7904C71.9433 60.5995 69.7396 59.3734 67.6081 58.1876C66.4144 57.5236 65.2205 56.8596 64.0256 56.1979L62.9345 55.589C59.99 53.9454 56.9452 52.2458 53.9672 50.5458L52.8524 49.9036C51.5795 49.1709 50.2633 48.4137 48.9832 47.645L46.5013 46.1732C45.686 45.7029 44.9056 45.2142 44.3066 44.4147L44.4135 44.2295C45.4054 44.3484 46.2188 44.7799 47.0326 45.25L49.5486 46.6639C50.8567 47.3896 52.1725 48.1517 53.445 48.8886L54.5539 49.5302C57.527 51.2662 60.534 53.0611 63.4417 54.797L64.4777 55.4152C65.6453 56.1174 66.8145 56.8176 67.9838 57.5179C70.0791 58.7726 72.2454 60.0697 74.3676 61.3602L79.2963 64.3613C79.8533 64.7064 80.4119 65.0503 80.9702 65.3943C81.509 65.726 82.0566 66.0634 82.6058 66.4032Z" fill="#8D1B3D"/>
<path id="Vector_26" d="M85.8682 59.4104C85.2607 59.2101 84.6561 59.0092 84.0618 58.8119C83.4331 58.6034 82.8043 58.3944 82.1753 58.1873L76.7086 56.3409C74.3595 55.5461 71.9766 54.7214 69.6721 53.9241C68.3808 53.4773 67.0894 53.0303 65.7972 52.5861L64.6419 52.1842C61.4485 51.0743 58.1465 49.9264 54.9101 48.7665L53.7067 48.3296C52.324 47.8286 50.8942 47.3104 49.4979 46.7753L46.7986 45.7569C45.914 45.4351 45.0605 45.0895 44.332 44.4059L44.4052 44.205C44.4891 44.2004 44.5724 44.1982 44.6548 44.1982C45.5571 44.1982 46.3554 44.4617 47.1617 44.7552L49.8849 45.7107C51.3026 46.1994 52.7341 46.7227 54.1187 47.2288L55.3122 47.6644C58.5602 48.8648 61.8514 50.1172 65.0346 51.3286L66.1072 51.7368C67.3734 52.2235 68.6408 52.7077 69.9084 53.192C72.1951 54.0659 74.5597 54.9694 76.8795 55.874L82.2543 57.9737C82.8662 58.2178 83.4794 58.4611 84.0927 58.7042C84.6766 58.9363 85.2713 59.1722 85.8682 59.4104Z" fill="#8D1B3D"/>
<path id="Vector_27" d="M87.8638 51.9561C87.2276 51.8639 86.5941 51.7708 85.9712 51.6791C85.3196 51.5833 84.6681 51.4875 84.016 51.3929L78.312 50.5238C75.8526 50.1478 73.3544 49.7483 70.9389 49.3619C69.5975 49.1474 68.2561 48.9329 66.9143 48.721L65.7679 48.536C62.4101 47.9942 58.9381 47.4338 55.5292 46.8502L54.2772 46.6306C52.8256 46.3767 51.3244 46.1143 49.8538 45.8288L47.0182 45.2947C46.0912 45.1313 45.1904 44.9391 44.3545 44.3927L44.3916 44.1822C44.7453 44.0993 45.1094 44.0591 45.5015 44.0591C46.096 44.0591 46.6909 44.1553 47.2017 44.2454L50.0498 44.7134C51.529 44.9482 53.0278 45.2146 54.4775 45.4723L55.7337 45.6949C59.1299 46.311 62.5782 46.9708 65.9127 47.6089L67.0718 47.8306C68.407 48.0909 69.7429 48.3484 71.079 48.6061C73.479 49.0688 75.9607 49.5471 78.3984 50.0346L84.0565 51.1691C84.704 51.3041 85.3523 51.4377 86.0008 51.5708C86.614 51.6973 87.2377 51.8259 87.8638 51.9561Z" fill="#8D1B3D"/>
<path id="Vector_28" d="M53.2942 44.8582C52.3366 44.8582 51.2015 44.8554 50.0398 44.8355L47.1546 44.8018C46.2113 44.8018 45.2925 44.7687 44.375 44.376V44.1621C45.2923 43.7696 46.2087 43.7366 47.1447 43.7366L50.0392 43.7029C51.2027 43.6829 52.3398 43.6802 53.2988 43.6802L55.8072 43.6825C59.247 43.6995 62.7454 43.7503 66.1286 43.7995L67.3439 43.8171C68.7052 43.8417 70.0669 43.8633 71.4286 43.8849C73.8711 43.9239 76.397 43.9642 78.881 44.0208L84.6501 44.1556C85.3071 44.1757 85.9647 44.1946 86.6226 44.2132C87.2527 44.231 87.8936 44.2492 88.5373 44.2692C87.8938 44.2889 87.2529 44.3071 86.623 44.3251C85.9652 44.3438 85.3073 44.3624 84.6492 44.383L78.881 44.5176C76.397 44.5744 73.8711 44.6144 71.4286 44.6534C70.0667 44.6752 68.705 44.6969 67.3435 44.7212L66.171 44.7382C62.774 44.7876 59.261 44.8389 55.8066 44.8558L53.2942 44.8582Z" fill="#8D1B3D"/>
<path id="Vector_29" d="M45.502 44.479C45.1092 44.479 44.7455 44.4386 44.3916 44.3559L44.3545 44.1455C45.1906 43.5991 46.0911 43.4068 47.0171 43.2436L49.8534 42.7093C51.3225 42.4243 52.821 42.1621 54.2702 41.9088L55.53 41.6878C58.9319 41.1051 62.3972 40.546 65.7486 40.0054L66.915 39.8172C68.2606 39.6048 69.606 39.3895 70.9516 39.1743C73.3633 38.7886 75.857 38.3897 78.3122 38.0142L84.017 37.1452C84.6698 37.0509 85.323 36.9547 85.9762 36.8584C86.5975 36.7671 87.2293 36.674 87.864 36.5823C87.2329 36.7137 86.604 36.843 85.9858 36.9703C85.3423 37.1026 84.6991 37.2351 84.056 37.369L78.3984 38.5033C75.9649 38.9899 73.4873 39.4677 71.0913 39.9295C69.7512 40.1878 68.4108 40.4462 67.0714 40.7073L65.9127 40.929C62.5782 41.5672 59.1299 42.2269 55.7333 42.8431L54.4673 43.0675C53.021 43.3246 51.5256 43.5904 50.0505 43.8246L47.2032 44.2925C46.691 44.3828 46.0965 44.479 45.502 44.479Z" fill="#8D1B3D"/>
<path id="Vector_30" d="M44.655 44.3404C44.5726 44.3404 44.4893 44.3381 44.4052 44.3334L44.332 44.1325C45.0605 43.4492 45.914 43.1035 46.7973 42.7822L49.4975 41.7636C50.8951 41.2276 52.3255 40.7092 53.7086 40.208L54.9105 39.7718C58.152 38.6101 61.46 37.4601 64.6593 36.3483L65.7976 35.9524C67.09 35.5081 68.3818 35.0612 69.6736 34.6142C71.9776 33.8168 74.3599 32.9926 76.7086 32.1978L82.1761 30.3514C82.8001 30.1458 83.4242 29.9385 84.0484 29.7312C84.6467 29.5324 85.2554 29.3302 85.8673 29.1287C85.2709 29.3669 84.6764 29.6024 84.0919 29.8342C83.4787 30.0773 82.8656 30.3204 82.2528 30.565L76.8786 32.6645C74.5625 33.5678 72.2017 34.47 69.9184 35.3424C68.6474 35.828 67.3764 36.3137 66.1062 36.8021L65.0149 37.2172C61.8383 38.4262 58.5532 39.6762 55.3111 40.8743L54.1138 41.3113C52.7309 41.817 51.3007 42.3397 49.8851 42.8278L47.1625 43.7828C46.3552 44.0768 45.5571 44.3404 44.655 44.3404Z" fill="#8D1B3D"/>
<path id="Vector_31" d="M44.3066 44.1237C44.9054 43.3242 45.686 42.8355 46.5002 42.3658L48.9825 40.8937C50.2692 40.1211 51.5918 39.3601 52.8706 38.6242L53.9676 37.9922C56.9564 36.2863 60.0125 34.5803 62.968 32.9308L64.026 32.3401C65.2165 31.6812 66.4057 31.0193 67.5953 30.3576C69.7309 29.1696 71.9393 27.941 74.1196 26.7478L79.1833 23.98C79.7596 23.6706 80.3359 23.3592 80.9121 23.0481C81.4691 22.7473 82.0361 22.4413 82.6056 22.1353C82.0541 22.4767 81.5039 22.8156 80.963 23.1488C80.4071 23.4911 79.8511 23.8336 79.2959 24.1773L74.368 27.1782C72.2411 28.4717 70.07 29.7718 67.9703 31.0292C66.8056 31.7265 65.641 32.4238 64.4777 33.1236L63.4716 33.7241C60.5542 35.4656 57.5374 37.2663 54.5539 39.0087L53.4496 39.6475C52.1759 40.3854 50.8584 41.1484 49.5497 41.8745L47.0341 43.2878C46.219 43.7585 45.4056 44.19 44.4139 44.3091L44.3066 44.1237Z" fill="#8D1B3D"/>
<path id="Vector_32" d="M44.2812 44.1192C44.7323 43.2276 45.416 42.611 46.1362 42.0072L48.3251 40.1264C49.4539 39.1456 50.6198 38.1702 51.7474 37.2266L52.7306 36.4032C55.3822 34.2003 58.1006 31.9859 60.7293 29.8443L61.6544 29.0906C62.7148 28.2331 63.7734 27.373 64.8321 26.5129C66.7266 24.9738 68.686 23.3825 70.6236 21.8305L75.1295 18.2255C75.6486 17.8165 76.1674 17.4058 76.6865 16.995C77.1773 16.6063 77.6771 16.2106 78.1794 15.8147C77.6993 16.2432 77.2203 16.6693 76.7492 17.0878C76.2575 17.5249 75.7658 17.9619 75.2751 18.4L70.943 22.2109C69.0749 23.8526 67.1639 25.5085 65.3159 27.11C64.2884 28.0003 63.2612 28.8907 62.2356 29.7832L61.3431 30.5543C58.7743 32.7744 56.118 35.0699 53.4842 37.3019L52.507 38.1234C51.3807 39.071 50.2163 40.051 49.0536 40.9933L46.8218 42.8219C46.1012 43.427 45.3751 43.9931 44.4188 44.2826L44.2812 44.1192Z" fill="#8D1B3D"/>
<path id="Vector_33" d="M44.2549 44.1192C44.5442 43.1634 45.1105 42.4371 45.7147 41.7169L47.544 39.4847C48.4893 38.3186 49.4719 37.1508 50.4218 36.0218L51.2361 35.0532C53.46 32.4293 55.7471 29.7826 57.9591 27.2229L58.7547 26.3018C59.6493 25.2739 60.5421 24.2441 61.4343 23.2143C63.0337 21.3687 64.6877 19.4605 66.327 17.5948L70.1384 13.2621C70.5722 12.7763 71.0055 12.289 71.4387 11.8016C71.8613 11.326 72.2913 10.8419 72.7243 10.3572C72.329 10.8586 71.9342 11.3573 71.5461 11.8473C71.1343 12.3675 70.7223 12.8876 70.312 13.4087L66.707 17.9142C65.1552 19.852 63.5637 21.811 62.0248 23.7055C61.1647 24.7642 60.3049 25.8231 59.4469 26.8836L58.6689 27.8386C56.5355 30.4576 54.3292 33.1656 52.1341 35.8079L51.316 36.7847C50.3709 37.9142 49.3939 39.082 48.4117 40.2125L46.5316 42.401C45.9269 43.1221 45.3101 43.8058 44.4185 44.2568L44.2549 44.1192Z" fill="#8D1B3D"/>
<path id="Vector_34" d="M44.2285 44.124C44.3476 43.1325 44.7791 42.3189 45.2492 41.5048L46.6629 38.9888C47.3867 37.6841 48.1469 36.3717 48.8819 35.1026L49.5294 33.9836C51.269 31.0045 53.0672 27.992 54.8064 25.0786L55.4146 24.0596C56.1164 22.8928 56.8162 21.7242 57.5158 20.5557C58.771 18.4598 60.0687 16.2925 61.3596 14.1697L64.361 9.24095C64.7043 8.68651 65.0466 8.13058 65.3891 7.57465C65.7223 7.03378 66.0612 6.48357 66.4026 5.93188C66.0995 6.49586 65.7969 7.05667 65.4991 7.60814C65.1848 8.19035 64.8703 8.77234 64.5574 9.3554L61.7897 14.4183C60.5941 16.6026 59.3636 18.8148 58.1731 20.9542C57.5137 22.1396 56.8542 23.325 56.1971 24.5121L55.6223 25.5419C53.9675 28.5065 52.2567 31.5723 50.545 34.5704L49.9096 35.6734C49.1751 36.9501 48.4152 38.2703 47.6444 39.5547L46.1729 42.0363C45.7024 42.8513 45.2138 43.6316 44.4142 44.2308L44.2285 44.124Z" fill="#8D1B3D"/>
<path id="Vector_35" d="M44.2042 44.1331C44.1489 43.1354 44.4327 42.2595 44.7544 41.3763L45.7098 38.6531C46.1977 37.2381 46.7202 35.809 47.225 34.4271L47.6633 33.2261C48.8597 29.9893 50.1077 26.709 51.3147 23.5367L51.7354 22.431C52.2248 21.1585 52.7114 19.8845 53.198 18.6107C54.0695 16.3304 54.9705 13.9723 55.8727 11.6592L57.9724 6.2841C58.217 5.67158 58.4605 5.0578 58.7038 4.4438C58.9353 3.86032 59.1705 3.26646 59.4083 2.6709C59.2059 3.28468 59.0031 3.89529 58.8039 4.49573C58.5972 5.11778 58.3908 5.73983 58.1856 6.36252L56.3394 11.8292C55.5448 14.1779 54.7202 16.5604 53.9233 18.8642C53.4763 20.1562 53.0291 21.448 52.5848 22.7408L52.1875 23.8836C51.076 27.0812 49.9269 30.3875 48.7654 33.6279L48.3354 34.8133C47.8322 36.2019 47.3119 37.6379 46.7742 39.0401L45.7556 41.7398C45.4337 42.6242 45.0882 43.4779 44.4047 44.2064L44.2042 44.1331Z" fill="#8D1B3D"/>
<path id="Vector_36" d="M44.1818 44.1463C43.9543 43.1739 44.0815 42.2617 44.2449 41.3359L44.7129 38.488C44.9481 37.0057 45.2154 35.5032 45.4738 34.0506L45.6946 32.8044C46.3088 29.4181 46.9667 25.9806 47.6027 22.6561L47.8304 21.4661C48.0925 20.1206 48.3524 18.7744 48.612 17.4281C49.0728 15.0383 49.5492 12.5668 50.0346 10.1394L51.1691 4.48138C51.3041 3.83368 51.4376 3.18493 51.5711 2.53617C51.6975 1.92323 51.8257 1.2997 51.9558 0.673828C51.8626 1.31729 51.7685 1.95799 51.6758 2.58767C51.5811 3.23219 51.4859 3.87671 51.3927 4.52144L50.5237 10.2257C50.1473 12.6884 49.7472 15.1896 49.3604 17.6085C49.1461 18.9467 48.9322 20.2849 48.7207 21.6235L48.5287 22.8134C47.9893 26.1568 47.4313 29.614 46.8499 33.0085L46.6316 34.2545C46.3773 35.708 46.1145 37.2111 45.8286 38.6841L45.2945 41.5194C45.1313 42.4465 44.9388 43.347 44.3924 44.1831L44.1818 44.1463Z" fill="#8D1B3D"/>
</g>
</g>
<g id="Stars_00000127020868542791109230000001518773605498085284_">
<g id="Stars">
<path id="Vector_37" d="M15.9554 8.17404L17.1526 9.09048L18.5864 8.62378C18.7316 8.57652 18.8679 8.71619 18.817 8.8601L18.3154 10.282L19.2023 11.5013C19.2922 11.6247 19.2015 11.7976 19.0489 11.7938L17.5416 11.7561L16.6558 12.9765C16.5662 13.1 16.3737 13.0672 16.3303 12.9207L15.9005 11.4755L14.4663 11.0103C14.3211 10.9632 14.2929 10.7701 14.4186 10.6834L15.6601 9.82804L15.6593 8.32028C15.6593 8.16768 15.8341 8.08121 15.9554 8.17404Z" fill="#E0E0E0"/>
<path id="Vector_38" d="M72.5572 51.4316L72.479 52.9375L73.6752 53.8554C73.7963 53.9482 73.7583 54.1396 73.6108 54.1792L72.1545 54.5703L71.6512 55.9916C71.6003 56.1355 71.4064 56.1583 71.3233 56.0305L70.5014 54.7665L68.994 54.7269C68.8415 54.7229 68.7599 54.5457 68.8557 54.427L69.8039 53.2547L69.3758 51.8089C69.3325 51.6626 69.4756 51.5299 69.6182 51.5846L71.0262 52.1242L72.2688 51.2703C72.3949 51.1838 72.5651 51.2792 72.5572 51.4316Z" fill="#E0E0E0"/>
<path id="Vector_39" d="M73.6871 14.142L73.6089 15.6479L74.8051 16.5658C74.9261 16.6587 74.8882 16.85 74.7407 16.8897L73.2844 17.2807L72.7811 18.702C72.73 18.8459 72.5363 18.8688 72.4532 18.7408L71.6313 17.4765L70.1239 17.4369C69.9713 17.4329 69.8897 17.2557 69.9855 17.137L70.9338 15.9648L70.5056 14.5191C70.4624 14.3729 70.6057 14.2402 70.7481 14.2949L72.156 14.8345L73.3987 13.9805C73.5246 13.8945 73.695 13.9897 73.6871 14.142Z" fill="#E0E0E0"/>
<path id="Vector_40" d="M3.87298 68.8907L5.31016 69.3468L6.50064 68.4214C6.62103 68.3277 6.79673 68.4129 6.79779 68.5655L6.80796 70.0733L8.05588 70.9196C8.1822 71.0052 8.15549 71.1985 8.01052 71.2466L6.5797 71.7222L6.16047 73.1706C6.11809 73.3173 5.92585 73.3516 5.83535 73.2287L4.94074 72.0149L3.43362 72.0637C3.28102 72.0685 3.18904 71.8964 3.27805 71.7724L4.15592 70.5466L3.64387 69.1285C3.59236 68.9852 3.72758 68.8445 3.87298 68.8907Z" fill="#E0E0E0"/>
<path id="Vector_41" d="M82.6796 85.4883L84.1168 85.9444L85.3073 85.0191C85.4279 84.9254 85.6034 85.0106 85.6044 85.1632L85.6146 86.671L86.8625 87.5172C86.9888 87.6029 86.9621 87.7962 86.8172 87.8443L85.3863 88.3199L84.9671 89.7683C84.9247 89.915 84.7325 89.9493 84.642 89.8264L83.7474 88.6126L82.2403 88.6613C82.0877 88.6662 81.9957 88.4941 82.0847 88.3701L82.9626 87.1442L82.4505 85.7261C82.399 85.5828 82.5342 85.4421 82.6796 85.4883Z" fill="#E0E0E0"/>
<path id="Vector_42" d="M45.4588 85.6199L45.3806 87.1258L46.5768 88.0437C46.6978 88.1365 46.6599 88.3281 46.5124 88.3675L45.0561 88.7586L44.5525 90.1799C44.5017 90.3238 44.3078 90.3467 44.2247 90.2187L43.4028 88.9544L41.8954 88.9148C41.7428 88.9108 41.6612 88.7336 41.757 88.6149L42.7053 87.4426L42.2771 85.997C42.2339 85.8507 42.3772 85.718 42.5196 85.7727L43.9275 86.3123L45.1701 85.4584C45.2965 85.3722 45.4667 85.4675 45.4588 85.6199Z" fill="#E0E0E0"/>
<path id="Vector_43" d="M7.09255 41.1478C7.09255 41.4022 6.88634 41.6082 6.63222 41.6082C6.37788 41.6082 6.17188 41.402 6.17188 41.1478C6.17188 40.8935 6.3781 40.6875 6.63222 40.6875C6.88634 40.6875 7.09255 40.8935 7.09255 41.1478Z" fill="#E0E0E0"/>
<path id="Vector_44" d="M0.920301 26.2083C1.17454 26.2083 1.38064 26.0022 1.38064 25.7479C1.38064 25.4937 1.17454 25.2876 0.920301 25.2876C0.666062 25.2876 0.459961 25.4937 0.459961 25.7479C0.459961 26.0022 0.666062 26.2083 0.920301 26.2083Z" fill="#E0E0E0"/>
<path id="Vector_45" d="M30.2088 65.0997C30.2088 65.3541 30.0025 65.5601 29.7484 65.5601C29.4941 65.5601 29.2881 65.3539 29.2881 65.0997C29.2881 64.8454 29.4943 64.6394 29.7484 64.6394C30.0025 64.6394 30.2088 64.8454 30.2088 65.0997Z" fill="#E0E0E0"/>
<path id="Vector_46" d="M61.6902 81.1591C61.6902 81.4134 61.484 81.6194 61.2299 81.6194C60.9758 81.6194 60.7695 81.4132 60.7695 81.1591C60.7695 80.9047 60.9758 80.6987 61.2299 80.6987C61.484 80.6987 61.6902 80.905 61.6902 81.1591Z" fill="#E0E0E0"/>
<path id="Vector_47" d="M88.9555 40.1282C89.2097 40.1282 89.4158 39.9221 89.4158 39.6679C89.4158 39.4136 89.2097 39.2075 88.9555 39.2075C88.7012 39.2075 88.4951 39.4136 88.4951 39.6679C88.4951 39.9221 88.7012 40.1282 88.9555 40.1282Z" fill="#E0E0E0"/>
<path id="Vector_48" d="M85.3549 19.4944C85.6091 19.4944 85.8152 19.2883 85.8152 19.0341C85.8152 18.7798 85.6091 18.5737 85.3549 18.5737C85.1006 18.5737 84.8945 18.7798 84.8945 19.0341C84.8945 19.2883 85.1006 19.4944 85.3549 19.4944Z" fill="#E0E0E0"/>
<path id="Vector_49" d="M54.1306 10.9921C54.1306 11.2464 53.9244 11.4524 53.6703 11.4524C53.416 11.4524 53.21 11.2462 53.21 10.9921C53.21 10.738 53.4162 10.5317 53.6703 10.5317C53.9246 10.5317 54.1306 10.738 54.1306 10.9921Z" fill="#E0E0E0"/>
<path id="Vector_50" d="M29.4447 11.5386C29.699 11.5386 29.9051 11.3325 29.9051 11.0783C29.9051 10.824 29.699 10.6179 29.4447 10.6179C29.1905 10.6179 28.9844 10.824 28.9844 11.0783C28.9844 11.3325 29.1905 11.5386 29.4447 11.5386Z" fill="#E0E0E0"/>
</g>
</g>
<g id="Diplomas">
<g id="Diploma">
<g id="Group">
<g id="Group_2">
<path id="Vector_51" d="M68.6251 39.0535L75.5344 32.8247L76.4536 31.9038L83.2773 24.4307L83.389 24.3097C83.644 24.0552 84.067 23.9689 84.5986 24.1109C85.6632 24.3964 86.7568 25.4919 87.0408 26.5569C87.1834 27.0902 87.0967 27.5132 86.8416 27.7678L79.2413 34.696L78.3253 35.6105L72.0382 42.5446L72.0289 42.554C71.7722 42.8007 71.3507 42.8852 70.8257 42.7432C69.7628 42.4563 68.6704 41.3622 68.3835 40.2972C68.2423 39.7654 68.3307 39.3409 68.5857 39.0864L68.6219 39.0501L68.6251 39.0535Z" fill="#8D1B3D"/>
<path id="Vector_52" opacity="0.4" d="M68.6251 39.0535L75.5344 32.8247L76.4536 31.9038L83.2773 24.4307L83.389 24.3097C83.644 24.0552 84.067 23.9689 84.5986 24.1109C85.6632 24.3964 86.7568 25.4919 87.0408 26.5569C87.1834 27.0902 87.0967 27.5132 86.8416 27.7678L79.2413 34.696L78.3253 35.6105L72.0382 42.5446L72.0289 42.554C71.7722 42.8007 71.3507 42.8852 70.8257 42.7432C69.7628 42.4563 68.6704 41.3622 68.3835 40.2972C68.2423 39.7654 68.3307 39.3409 68.5857 39.0864L68.6219 39.0501L68.6251 39.0535Z" fill="white"/>
<path id="Vector_53" opacity="0.3" d="M83.6338 24.1421C83.541 24.1851 83.4583 24.2406 83.3892 24.3097L83.2773 24.4308L76.4536 31.9039L75.5344 32.8247L68.6251 39.0535L68.6219 39.0504L68.5857 39.0866C68.3307 39.3411 68.2423 39.7657 68.3835 40.2974C68.5814 41.0318 69.1624 41.78 69.8524 42.2677L84.347 27.7987C84.347 27.7987 82.8787 25.8315 83.6338 24.1421Z" fill="#8D1B3D"/>
<path id="Vector_54" d="M84.5992 24.1114C84.067 23.9683 83.6429 24.0546 83.3875 24.3098C83.1321 24.5649 83.045 24.9888 83.1872 25.5212C83.4717 26.586 84.5651 27.6809 85.6292 27.967C86.1614 28.1101 86.5855 28.0238 86.8409 27.7687C87.0965 27.5135 87.1834 27.0896 87.0412 26.5572C86.7568 25.4924 85.6634 24.3975 84.5992 24.1114Z" fill="#8D1B3D"/>
</g>
<path id="Vector_55" d="M68.5074 39.1651L68.6222 39.0505L68.6254 39.0537L75.5347 32.8249L76.4539 31.904L83.2777 24.4307C82.2671 25.6536 83.5992 27.5513 83.5992 27.5513L68.7172 42.4068C68.7172 42.4068 67.294 40.3768 68.5074 39.1651Z" fill="#8D1B3D"/>
<path id="Vector_56" opacity="0.6" d="M68.5074 39.1651L68.6222 39.0505L68.6254 39.0537L75.5347 32.8249L76.4539 31.904L83.2777 24.4307C82.2671 25.6536 83.5992 27.5513 83.5992 27.5513L68.7172 42.4068C68.7172 42.4068 67.294 40.3768 68.5074 39.1651Z" fill="white"/>
<path id="Vector_57" opacity="0.25" d="M84.6002 24.1114C84.068 23.9683 83.6439 24.0546 83.3885 24.3098C83.1331 24.5649 83.046 24.9888 83.1882 25.5212C83.4726 26.586 84.566 27.6809 85.6302 27.967C86.1624 28.1101 86.5865 28.0238 86.8419 27.7687C87.0975 27.5135 87.1844 27.0896 87.0422 26.5572C86.7577 25.4924 85.6643 24.3975 84.6002 24.1114Z" fill="white"/>
<path id="Vector_58" opacity="0.5" d="M85.5094 26.4934C86.672 26.7301 86.36 25.2862 85.2023 24.3555C85.0044 24.2489 84.8018 24.1656 84.6002 24.1114C84.068 23.9683 83.6439 24.0546 83.3885 24.3098C83.1329 24.5649 83.046 24.9888 83.1882 25.5212C83.3762 26.2253 83.919 26.9412 84.5722 27.4291L85.5094 26.4934Z" fill="#8D1B3D"/>
<path id="Vector_59" d="M86.104 26.3999L84.8698 27.6321C84.7649 27.5711 84.6659 27.5031 84.5723 27.4289L85.5095 26.4929C85.6873 26.5247 85.944 26.5423 86.104 26.3999Z" fill="#8D1B3D"/>
<path id="Vector_60" opacity="0.1" d="M86.104 26.3999L84.8698 27.6321C84.7649 27.5711 84.6659 27.5031 84.5723 27.4289L85.5095 26.4929C85.6873 26.5247 85.944 26.5423 86.104 26.3999Z" fill="black"/>
</g>
<g id="Group_3">
<path id="Vector_61" d="M78.4141 35.5236C79.9167 36.1862 81.0553 37.4555 81.9747 39.09C82.0279 38.5724 82.0268 38.0761 81.9062 37.6265C82.3418 37.706 82.7095 37.8482 83.0543 38.0121C82.0976 36.4994 80.9474 35.2685 79.5073 34.4595L79.243 34.696L78.4141 35.5236Z" fill="#8D1B3D"/>
<path id="Vector_62" opacity="0.2" d="M79.0721 35.8678L79.3082 35.3905L80.0579 34.7996C79.879 34.6795 79.6961 34.5654 79.5075 34.4595L79.2432 34.6958L78.4141 35.5236C78.6421 35.6241 78.8606 35.7402 79.0721 35.8678Z" fill="black"/>
</g>
<g id="Group_4">
<path id="Vector_63" d="M75.5346 32.8236C75.3326 33.0301 75.2644 33.3698 75.3782 33.7956C75.6077 34.655 76.4902 35.5391 77.3495 35.7701C77.7714 35.8835 78.1091 35.818 78.3163 35.6204C78.3197 35.6173 78.3233 35.6145 78.3267 35.6113L79.2434 34.6962C79.0372 34.902 78.6949 34.9715 78.2653 34.8562C77.4061 34.6254 76.5235 33.7414 76.294 32.8817C76.1793 32.4519 76.2495 32.1096 76.4555 31.9038L75.5401 32.8179C75.5382 32.8196 75.5365 32.8217 75.5346 32.8236Z" fill="#8D1B3D"/>
<path id="Vector_64" opacity="0.15" d="M76.8451 33.8855C76.655 33.6587 76.4981 33.4109 76.3915 33.1583L75.4759 34.0724C75.5825 34.3248 75.7394 34.5726 75.9295 34.7994L76.8451 33.8855ZM75.3789 33.7958C75.3795 33.7982 75.3803 33.8005 75.381 33.8028L76.2966 32.8887C76.2959 32.8864 76.2951 32.8841 76.2945 32.8817C76.2548 32.7336 76.2387 32.5967 76.2413 32.4712L75.3255 33.3855C75.3229 33.5108 75.3392 33.6477 75.3789 33.7958Z" fill="white"/>
<path id="Vector_65" opacity="0.1" d="M76.7324 35.4972C76.9333 35.6199 77.1423 35.7144 77.35 35.7703C77.772 35.8837 78.1096 35.8182 78.3169 35.6207C78.3203 35.6175 78.3239 35.6148 78.3273 35.6116L79.2439 34.6964C79.0377 34.9022 78.6954 34.9717 78.2658 34.8564C78.0581 34.8007 77.8492 34.706 77.648 34.5833L76.7324 35.4972Z" fill="black"/>
</g>
</g>
<g id="Diploma_00000123428524967590938860000004747584665761414789_">
<g id="Group_5">
<g id="Group_6">
<path id="Vector_66" d="M3.41657 45.3915L12.0225 50.2368L13.2602 50.8501L23.0891 55.1884L23.2487 55.26C23.5912 55.4304 23.8211 55.8272 23.858 56.41C23.9309 57.5778 23.1985 59.0491 22.2229 59.6951C21.7346 60.0192 21.2795 60.0749 20.937 59.9045L11.3937 54.6004L10.1633 53.9881L1.05849 50.0076L1.04577 50.0013C0.710692 49.8266 0.482853 49.431 0.448095 48.8545C0.377306 47.6877 1.10851 46.2185 2.08323 45.5694C2.57049 45.2474 3.02765 45.1927 3.37015 45.3631L3.41868 45.3873L3.41657 45.3915Z" fill="#8D1B3D"/>
<path id="Vector_67" opacity="0.4" d="M3.41657 45.3915L12.0225 50.2368L13.2602 50.8501L23.0891 55.1884L23.2487 55.26C23.5912 55.4304 23.8211 55.8272 23.858 56.41C23.9309 57.5778 23.1985 59.0491 22.2229 59.6951C21.7346 60.0192 21.2795 60.0749 20.937 59.9045L11.3937 54.6004L10.1633 53.9881L1.05849 50.0076L1.04577 50.0013C0.710692 49.8266 0.482853 49.431 0.448095 48.8545C0.377306 47.6877 1.10851 46.2185 2.08323 45.5694C2.57049 45.2474 3.02765 45.1927 3.37015 45.3631L3.41868 45.3873L3.41657 45.3915Z" fill="white"/>
<path id="Vector_68" opacity="0.3" d="M23.5004 55.4495C23.4256 55.3707 23.3419 55.3063 23.2488 55.26L23.0892 55.1886L13.2604 50.8504L12.0226 50.237L3.41671 45.3918L3.41883 45.3875L3.37029 45.3634C3.02779 45.193 2.57063 45.2477 2.08337 45.5696C1.4113 46.0172 0.855167 46.8548 0.597656 47.7145L20.0618 57.4049C20.0618 57.4049 21.5448 55.2613 23.5004 55.4495Z" fill="#8D1B3D"/>
<path id="Vector_69" d="M23.8576 56.4108C23.8216 55.8269 23.5912 55.4293 23.2481 55.2585C22.9049 55.0877 22.4488 55.1436 21.9611 55.4669C20.986 56.1133 20.2539 57.5839 20.3262 58.7518C20.3622 59.3357 20.5926 59.7333 20.9358 59.9041C21.2789 60.0749 21.735 60.019 22.2227 59.6957C23.1978 59.0493 23.9297 57.5786 23.8576 56.4108Z" fill="#8D1B3D"/>
</g>
<path id="Vector_70" d="M3.26425 45.3105L3.41855 45.3875L3.41643 45.3917L12.0224 50.2369L13.2601 50.8503L23.089 55.1886C21.5166 54.5854 20.0575 56.5681 20.0575 56.5681L0.0732422 46.6187C0.0732422 46.6187 1.63441 44.4992 3.26425 45.3105Z" fill="#8D1B3D"/>
<path id="Vector_71" opacity="0.6" d="M3.26425 45.3105L3.41855 45.3875L3.41643 45.3917L12.0224 50.2369L13.2601 50.8503L23.089 55.1886C21.5166 54.5854 20.0575 56.5681 20.0575 56.5681L0.0732422 46.6187C0.0732422 46.6187 1.63441 44.4992 3.26425 45.3105Z" fill="white"/>
<path id="Vector_72" opacity="0.25" d="M23.8576 56.4111C23.8216 55.8272 23.5912 55.4296 23.2481 55.2588C22.9049 55.0879 22.4488 55.1439 21.9611 55.4671C20.986 56.1135 20.2539 57.5842 20.3262 58.752C20.3622 59.3359 20.5926 59.7335 20.9358 59.9043C21.2789 60.0751 21.735 60.0192 22.2227 59.696C23.1978 59.0496 23.9297 57.5789 23.8576 56.4111Z" fill="white"/>
<path id="Vector_73" opacity="0.5" d="M21.7687 58.1323C21.9238 59.3821 23.2714 58.5797 23.8161 57.0999C23.8563 56.8647 23.8716 56.6326 23.858 56.4113C23.822 55.8274 23.5916 55.4298 23.2485 55.259C22.9054 55.0882 22.4493 55.1441 21.9616 55.4673C21.3166 55.8948 20.7798 56.683 20.5098 57.5056L21.7687 58.1323Z" fill="#8D1B3D"/>
<path id="Vector_74" d="M22.0639 58.6986L20.4062 57.8735C20.4321 57.7472 20.4673 57.6247 20.5101 57.5054L21.769 58.1319C21.7972 58.3216 21.8663 58.5856 22.0639 58.6986Z" fill="#8D1B3D"/>
<path id="Vector_75" opacity="0.1" d="M22.0639 58.6986L20.4062 57.8735C20.4321 57.7472 20.4673 57.6247 20.5101 57.5054L21.769 58.1319C21.7972 58.3216 21.8663 58.5856 22.0639 58.6986Z" fill="black"/>
</g>
<g id="Group_7">
<path id="Vector_76" d="M10.2804 54.0481C10.1221 55.7843 9.23003 57.3597 7.89648 58.8378C8.43545 58.7163 8.93458 58.5472 9.34596 58.2738C9.41336 58.7388 9.39471 59.1572 9.34639 59.5597C10.5449 58.0852 11.3942 56.5111 11.7212 54.7884L11.3938 54.6023L10.2804 54.0481Z" fill="#8D1B3D"/>
<path id="Vector_77" opacity="0.2" d="M10.1562 54.8267L10.7164 54.9028L11.5646 55.4573C11.625 55.2366 11.6778 55.0139 11.7206 54.7882L11.3934 54.6021L10.2798 54.0479C10.2559 54.3115 10.2131 54.5705 10.1562 54.8267Z" fill="black"/>
</g>
<g id="Group_8">
<path id="Vector_78" d="M12.0238 50.2363C11.7476 50.1028 11.3829 50.1492 10.9927 50.4078C10.2055 50.9296 9.61463 52.1169 9.67291 53.0596C9.70152 53.5227 9.88168 53.8402 10.1506 53.9818C10.1549 53.9841 10.1589 53.9869 10.1633 53.989L11.3945 54.6017C11.1175 54.4639 10.9319 54.1431 10.9026 53.6715C10.8443 52.7288 11.435 51.5415 12.2226 51.0197C12.6164 50.7588 12.9843 50.7136 13.2613 50.8514L12.0318 50.2393C12.0291 50.2384 12.0265 50.2376 12.0238 50.2363Z" fill="#8D1B3D"/>
<path id="Vector_79" opacity="0.15" d="M11.3986 51.9137C11.5625 51.6456 11.7587 51.4039 11.9768 51.2113L10.7471 50.5992C10.529 50.7921 10.333 51.0335 10.1689 51.3016L11.3986 51.9137ZM10.993 50.4078C10.9909 50.4093 10.9887 50.411 10.9866 50.4125L12.2163 51.0246C12.2184 51.0231 12.2203 51.0214 12.2225 51.0201C12.3583 50.9302 12.4906 50.8677 12.6175 50.8277L11.3876 50.2156C11.2609 50.2552 11.1286 50.3179 10.993 50.4078Z" fill="white"/>
<path id="Vector_80" opacity="0.1" d="M9.73879 52.3459C9.68347 52.5897 9.65868 52.8319 9.67288 53.0598C9.70149 53.5229 9.88164 53.8404 10.1506 53.9819C10.1548 53.9843 10.1589 53.987 10.1633 53.9891L11.3945 54.6019C11.1175 54.4641 10.9318 54.1432 10.9026 53.6717C10.8884 53.4436 10.913 53.2013 10.9685 52.9576L9.73879 52.3459Z" fill="black"/>
</g>
</g>
<g id="Diploma_00000121262346100823402670000003834212778183108501_">
<g id="Group_9">
<g id="Group_10">
<path id="Vector_81" d="M41.8637 61.8234L48.8337 66.8403L49.8442 67.4897L57.9199 72.1863L58.0509 72.2635C58.3304 72.4438 58.4909 72.8086 58.4665 73.316C58.4169 74.3322 57.6422 75.5331 56.7368 75.9973C56.2835 76.2302 55.885 76.2344 55.6055 76.0543L47.8696 70.5505L46.8654 69.9026L39.3808 65.5849L39.3704 65.5784C39.0977 65.395 38.9391 65.0313 38.9646 64.5297C39.0159 63.5145 39.7895 62.3153 40.6942 61.8484C41.1463 61.6171 41.5467 61.614 41.8262 61.7943L41.8659 61.82L41.8637 61.8234Z" fill="#8D1B3D"/>
<path id="Vector_82" opacity="0.4" d="M41.8637 61.8234L48.8337 66.8403L49.8442 67.4897L57.9199 72.1863L58.0509 72.2635C58.3304 72.4438 58.4909 72.8086 58.4665 73.316C58.4169 74.3322 57.6422 75.5331 56.7368 75.9973C56.2835 76.2302 55.885 76.2344 55.6055 76.0543L47.8696 70.5505L46.8654 69.9026L39.3808 65.5849L39.3704 65.5784C39.0977 65.395 38.9391 65.0313 38.9646 64.5297C39.0159 63.5145 39.7895 62.3153 40.6942 61.8484C41.1463 61.6171 41.5467 61.614 41.8262 61.7943L41.8659 61.82L41.8637 61.8234Z" fill="white"/>
<path id="Vector_83" opacity="0.3" d="M58.2494 72.4517C58.1924 72.3765 58.1262 72.3127 58.0504 72.2637L57.9194 72.1866L49.8437 67.4899L48.8332 66.8405L41.8632 61.8236L41.8653 61.8202L41.8257 61.7946C41.5462 61.6142 41.1458 61.6174 40.6937 61.8486C40.0698 62.1706 39.5083 62.8409 39.2031 63.559L55.0895 73.8098C55.0895 73.8098 56.5776 72.1007 58.2494 72.4517Z" fill="#8D1B3D"/>
<path id="Vector_84" d="M58.4658 73.3171C58.4908 72.8091 58.3301 72.4433 58.05 72.2625C57.7698 72.0817 57.3703 72.0862 56.9178 72.3185C56.0128 72.7831 55.2383 73.9835 55.1881 74.9996C55.1631 75.5076 55.3237 75.8734 55.6039 76.054C55.8841 76.2348 56.2836 76.2303 56.7361 75.998C57.6413 75.5336 58.4158 74.3332 58.4658 73.3171Z" fill="#8D1B3D"/>
</g>
<path id="Vector_85" d="M41.7401 61.7387L41.866 61.8198L41.8639 61.8232L48.8339 66.8401L49.8444 67.4895L57.9201 72.1862C56.6194 71.5133 55.1674 73.0861 55.1674 73.0861L38.8564 62.5612C38.8564 62.5612 40.4098 60.8805 41.7401 61.7387Z" fill="#8D1B3D"/>
<path id="Vector_86" opacity="0.6" d="M41.7401 61.7387L41.866 61.8198L41.8639 61.8232L48.8339 66.8401L49.8444 67.4895L57.9201 72.1862C56.6194 71.5133 55.1674 73.0861 55.1674 73.0861L38.8564 62.5612C38.8564 62.5612 40.4098 60.8805 41.7401 61.7387Z" fill="white"/>
<path id="Vector_87" opacity="0.25" d="M58.4668 73.3169C58.4918 72.8089 58.3311 72.4431 58.0509 72.2623C57.7707 72.0815 57.3712 72.0859 56.9187 72.3182C56.0137 72.7828 55.2393 73.9833 55.1891 74.9993C55.1641 75.5073 55.3247 75.8731 55.6049 76.0537C55.8851 76.2345 56.2846 76.2301 56.7371 75.9978C57.6423 75.5334 58.4167 74.333 58.4668 73.3169Z" fill="white"/>
<path id="Vector_88" opacity="0.5" d="M56.4953 74.6028C56.5088 75.6979 57.7508 75.1343 58.3642 73.908C58.4216 73.7086 58.4572 73.5096 58.4668 73.3169C58.4918 72.8089 58.3311 72.4431 58.0509 72.2623C57.7707 72.0815 57.3712 72.0859 56.9187 72.3182C56.3202 72.6255 55.7802 73.255 55.4678 73.9398L56.4953 74.6028Z" fill="#8D1B3D"/>
<path id="Vector_89" d="M56.6958 75.1209L55.3428 74.2481C55.3773 74.1415 55.4195 74.0389 55.468 73.9399L56.4955 74.6029C56.5017 74.7693 56.536 75.0043 56.6958 75.1209Z" fill="#8D1B3D"/>
<path id="Vector_90" opacity="0.1" d="M56.6958 75.1209L55.3428 74.2481C55.3773 74.1415 55.4195 74.0389 55.468 73.9399L56.4955 74.6029C56.5017 74.7693 56.536 75.0043 56.6958 75.1209Z" fill="black"/>
</g>
<g id="Group_11">
<path id="Vector_91" d="M46.9614 69.9658C46.6572 71.4511 45.7344 72.7264 44.4395 73.8753C44.917 73.8223 45.3646 73.7244 45.7465 73.5275C45.7599 73.9359 45.7035 74.2956 45.6229 74.6387C46.8009 73.48 47.6866 72.2016 48.1353 70.7445L47.8704 70.5523L46.9614 69.9658Z" fill="#8D1B3D"/>
<path id="Vector_92" opacity="0.2" d="M46.7793 70.6269L47.2562 70.7466L47.9357 71.3076C48.0092 71.1228 48.0762 70.9355 48.1351 70.7445L47.8702 70.5521L46.9614 69.9658C46.9149 70.1911 46.8531 70.4109 46.7793 70.6269Z" fill="black"/>
</g>
<g id="Group_12">
<path id="Vector_93" d="M48.8342 66.8401C48.6085 66.6981 48.2887 66.7031 47.9267 66.8888C47.1961 67.2639 46.5709 68.2329 46.5304 69.0532C46.5105 69.4561 46.6355 69.7479 46.8544 69.8963C46.8578 69.8986 46.8612 69.9014 46.8646 69.9037L47.8694 70.552C47.6435 70.4062 47.5138 70.111 47.5339 69.7006C47.5744 68.8802 48.1994 67.9114 48.9302 67.5363C49.2956 67.3487 49.6182 67.3451 49.8441 67.4909L48.8406 66.8434C48.8384 66.8424 48.8361 66.8413 48.8342 66.8401Z" fill="#8D1B3D"/>
<path id="Vector_94" opacity="0.15" d="M48.1327 68.2293C48.3001 68.0133 48.493 67.8236 48.7 67.678L47.6963 67.0305C47.4892 67.1761 47.2963 67.366 47.1289 67.5818L48.1327 68.2293ZM47.9273 66.8887C47.9254 66.8898 47.9235 66.8911 47.9214 66.8921L48.9251 67.5396C48.927 67.5385 48.9289 67.5373 48.9308 67.5362C49.057 67.4716 49.1771 67.4302 49.2907 67.408L48.287 66.7605C48.1734 66.7828 48.0532 66.8241 47.9273 66.8887Z" fill="white"/>
<path id="Vector_95" opacity="0.1" d="M46.6563 68.4424C46.5849 68.6475 46.5404 68.8546 46.5304 69.053C46.5105 69.4559 46.6355 69.7477 46.8544 69.8961C46.8578 69.8984 46.8612 69.9012 46.8646 69.9035L47.8694 70.5519C47.6435 70.406 47.5138 70.1108 47.5339 69.7005C47.5437 69.5021 47.5884 69.295 47.6596 69.0899L46.6563 68.4424Z" fill="black"/>
</g>
</g>
</g>
<g id="Graduation_Hat_3">
<g id="Graduation_Hat">
<g id="XMLID_00000073683880335819546610000012919405394652720042_">
<path id="Vector_96" d="M80.9494 81.2832C80.2661 82.4714 78.802 83.2191 76.7108 83.2469C72.4899 83.3031 67.3181 80.4081 65.1592 76.7807C64.0987 74.9991 63.9641 73.3731 64.6006 72.1725C64.6105 72.1532 64.6186 72.1326 64.629 72.1137L68.5223 65.1582C67.8471 66.3644 67.9694 68.0171 69.0486 69.8315C71.2075 73.4594 76.3791 76.3541 80.6003 76.2977C82.7113 76.2689 84.1841 75.5091 84.8591 74.3029L80.9695 81.2514C80.9634 81.2623 80.9558 81.2724 80.9494 81.2832Z" fill="#37474F"/>
<path id="Vector_97" d="M82.3723 78.7416C81.6892 79.9298 80.2249 80.6775 78.1336 80.7053C73.9128 80.7614 68.7409 77.8665 66.5821 74.2391C65.5215 72.4575 65.3869 70.8315 66.0234 69.6308C66.0334 69.6113 66.0414 69.591 66.0518 69.5721L66.4626 68.8384C65.7873 70.0445 65.9096 71.6973 66.9888 73.5117C69.1477 77.1395 74.3193 80.0343 78.5405 79.9779C80.6515 79.9491 82.1243 79.1892 82.7993 77.9831L82.3926 78.7098C82.3865 78.7206 82.3786 78.7308 82.3723 78.7416Z" fill="#8D1B3D"/>
<path id="Vector_98" opacity="0.2" d="M68.6654 74.3139C66.9406 73.4941 65.5901 75.3236 66.3073 78.3387C65.8673 77.84 65.4795 77.3186 65.1592 76.7807C64.0987 74.9991 63.9641 73.3731 64.6006 72.1725C64.6105 72.1532 64.6186 72.1326 64.629 72.1137L68.5223 65.1582C67.8471 66.3644 67.9694 68.0171 69.0486 69.8315C71.2075 73.4594 76.3791 76.3541 80.6003 76.2977C80.6014 76.2977 80.6025 76.2977 80.6037 76.2975C80.6027 76.2975 80.6016 76.2977 80.6005 76.2979C75.5029 76.733 70.9639 75.4067 68.6654 74.3139Z" fill="black"/>
<path id="Vector_99" d="M84.8561 74.2981C86.3139 71.6935 83.8386 67.5352 79.3273 65.0102C74.8161 62.4852 69.9773 62.5498 68.5195 65.1544C67.0617 67.7589 69.537 71.9172 74.0482 74.4422C78.5594 76.9672 83.3983 76.9026 84.8561 74.2981Z" fill="#263238"/>
</g>
<g id="Group_13">
<path id="Vector_100" d="M90.3199 77.4512L81.0663 61.9141L62.984 62.1497L62.3818 63.2258L71.6327 78.7675L89.7176 78.5272L90.3199 77.4512Z" fill="#37474F"/>
<path id="Vector_101" opacity="0.2" d="M71.6328 78.7675L72.2349 77.6915L90.32 77.4512L89.7177 78.5272L71.6328 78.7675Z" fill="white"/>
<path id="Vector_102" opacity="0.2" d="M72.2354 77.6915L89.9459 77.6606L89.7181 78.5272L90.3204 77.4512L72.2354 77.6915Z" fill="white"/>
<path id="Vector_103" d="M81.0667 61.9141L62.9844 62.1497L72.235 77.6915L90.3201 77.4512L81.0667 61.9141Z" fill="#455A64"/>
</g>
<g id="Group_14">
<path id="Vector_104" d="M82.2578 53.3807C82.2502 53.2141 82.0118 53.0286 81.9047 53.2196C81.5697 53.817 81.3575 54.4675 81.0919 55.0976C80.83 55.7188 80.5212 56.3245 80.1787 56.9053C79.5246 58.0141 78.6942 58.9382 77.8142 59.8689C76.9317 60.802 76.1863 61.7816 75.7448 62.9997C75.3574 64.0687 75.1985 65.2365 75.2934 66.3696C75.3496 67.041 75.4818 67.6938 75.6965 68.3326C75.9121 68.9737 76.255 69.6776 76.7651 70.1356C76.8868 70.2449 77.1066 70.232 77.0633 70.018C77.0078 69.742 76.8739 69.5004 76.7772 69.2369C76.6753 68.9595 76.5767 68.6783 76.4835 68.3979C76.2982 67.8398 76.1814 67.2485 76.1361 66.6623C76.0509 65.5642 76.1842 64.4545 76.5502 63.4151C76.9472 62.2878 77.6282 61.3628 78.4503 60.5072C79.3638 59.5565 80.2393 58.6008 80.9237 57.4663C81.2905 56.8582 81.6006 56.2213 81.8494 55.556C81.9785 55.2108 82.0864 54.8626 82.1699 54.5031C82.2593 54.1178 82.2759 53.7768 82.2578 53.3807Z" fill="#8D1B3D"/>
<g id="Group_15">
<g id="Group_16">
<path id="Vector_105" d="M79.1836 45.0606C79.5136 45.7168 80.194 47.1731 80.8213 49.1613C81.6837 51.9149 81.2174 53.1694 81.9821 53.2387C82.6788 53.2978 83.5823 50.9747 83.9017 48.2677C84.1336 46.3213 83.6946 44.8476 83.3706 44.0503C83.3186 43.9227 83.1798 43.8545 83.0467 43.8899C82.9734 43.9094 82.8632 43.989 82.8742 44.1241C82.785 43.91 82.7271 43.7557 82.4961 43.793C82.3469 43.8172 82.2629 43.9816 82.3022 44.1277C82.4997 44.8642 82.9089 46.6597 82.6491 48.0952C82.5834 46.3185 81.9274 44.6442 81.5718 43.8312C81.5169 43.7059 81.3791 43.6398 81.2473 43.6758L81.2403 43.6777C81.0809 43.7214 80.9953 43.8943 81.0589 44.0469C81.3976 44.8614 82.3337 47.0173 82.1557 49.6403C82.048 47.342 81.1252 45.2257 80.8025 44.5693C80.7321 44.4261 80.5625 44.3159 80.404 44.3898C80.4019 44.3909 80.404 44.3898 80.4019 44.3909C80.2514 44.464 80.1804 44.6268 80.2703 44.8112C80.5767 45.4394 81.3279 47.2555 81.4599 48.8572C81.4141 48.7285 80.3921 46.178 79.7241 44.8046C79.6654 44.684 79.5289 44.623 79.4002 44.6603L79.3532 44.6738C79.1879 44.7219 79.1065 44.907 79.1836 45.0606ZM83.0149 49.9792C83.225 48.7287 83.5503 46.619 83.0073 44.6622C83.7942 47.0457 83.3998 48.5668 83.0149 49.9792Z" fill="#8D1B3D"/>
<path id="Vector_106" d="M81.336 53.7036C81.6439 54.1235 82.234 54.2142 82.6538 53.9062C83.0737 53.5983 83.1644 53.0082 82.8564 52.5884C82.5485 52.1685 81.9584 52.0778 81.5386 52.3858C81.1187 52.6937 81.028 53.2838 81.336 53.7036Z" fill="#8D1B3D"/>
<path id="Vector_107" opacity="0.2" d="M81.336 53.7036C81.6439 54.1235 82.234 54.2142 82.6538 53.9062C83.0737 53.5983 83.1644 53.0082 82.8564 52.5884C82.5485 52.1685 81.9584 52.0778 81.5386 52.3858C81.1187 52.6937 81.028 53.2838 81.336 53.7036Z" fill="black"/>
</g>
</g>
</g>
<g id="Group_17">
<path id="Vector_108" d="M75.6711 69.1325C75.7563 68.9801 75.9424 68.8841 76.2088 68.8805C76.7417 68.8735 77.3949 69.2389 77.6674 69.6969C77.8037 69.926 77.8192 70.1347 77.7338 70.2871C77.702 70.3439 77.5769 70.5673 77.5451 70.6241C77.4599 70.7765 77.2738 70.8725 77.0074 70.8761C76.4746 70.8831 75.8214 70.5177 75.5488 70.0597C75.4126 69.8306 75.3971 69.6218 75.4825 69.4695C75.5143 69.4127 75.6393 69.1893 75.6711 69.1325Z" fill="#263238"/>
<path id="Vector_109" d="M77.1959 70.5392C77.7287 70.532 77.9398 70.1551 77.6673 69.6971C77.3947 69.2391 76.7417 68.8737 76.2087 68.8807C75.6756 68.8879 75.4647 69.2648 75.7373 69.7228C76.0101 70.1808 76.6631 70.5462 77.1959 70.5392Z" fill="#37474F"/>
</g>
</g>
</g>
<g id="Graduation_Hat_2">
<g id="Graduation_Hat_00000127014148537649347900000000465727538000766122_">
<g id="XMLID_00000121957533023786957230000007094917229826810265_">
<path id="Vector_110" d="M15.9263 85.4775C16.3273 86.7881 17.5877 87.8436 19.6203 88.337C23.7222 89.3331 29.4095 87.6647 32.3231 84.6104C33.7543 83.1103 34.2481 81.5553 33.8955 80.2429C33.8902 80.2217 33.8868 80.2001 33.8808 80.1793L31.637 72.5305C32.0261 73.8571 31.5382 75.4407 30.0815 76.9688C27.1678 80.0238 21.4809 81.692 17.3785 80.6954C15.3271 80.1965 14.061 79.1272 13.6719 77.8009L15.9134 85.4419C15.9172 85.4539 15.9225 85.4656 15.9263 85.4775Z" fill="#37474F"/>
<path id="Vector_111" d="M15.1065 82.6826C15.5075 83.9933 16.7679 85.0487 18.8005 85.5422C22.9024 86.5383 28.5897 84.8699 31.5032 81.8156C32.9345 80.3154 33.4283 78.7604 33.0756 77.4481C33.0704 77.4269 33.067 77.4052 33.061 77.3843L32.8243 76.5774C33.2134 77.9037 32.7255 79.4876 31.2688 81.0157C28.355 84.0706 22.6682 85.7388 18.566 84.7423C16.5146 84.2434 15.2485 83.1741 14.8594 81.8478L15.0938 82.647C15.0974 82.6591 15.1027 82.6705 15.1065 82.6826Z" fill="#8D1B3D"/>
<path id="Vector_112" opacity="0.2" d="M29.4551 81.4238C31.3194 81.0093 32.2277 83.094 30.856 85.8732C31.3961 85.4853 31.8905 85.0635 32.3227 84.6104C33.7539 83.1103 34.2478 81.5553 33.8951 80.2429C33.8898 80.2217 33.8864 80.2001 33.8805 80.1793L31.6366 72.5305C32.0258 73.8571 31.5379 75.4407 30.0812 76.9688C27.1674 80.0238 21.4805 81.692 17.3782 80.6954C17.3771 80.6952 17.3761 80.6948 17.375 80.6946C17.3761 80.6948 17.3769 80.6952 17.378 80.6956C22.2503 82.257 26.9707 81.9762 29.4551 81.4238Z" fill="black"/>
<path id="Vector_113" d="M24.1758 80.355C29.1369 78.8997 32.4774 75.398 31.6372 72.5337C30.7969 69.6694 26.0941 68.5273 21.1331 69.9826C16.1721 71.4379 12.8315 74.9396 13.6718 77.8039C14.512 80.6681 19.2148 81.8103 24.1758 80.355Z" fill="#263238"/>
</g>
<g id="Group_18">
<path id="Vector_114" d="M7.64648 79.6521L20.1325 66.5703L37.7068 70.8333L38.0537 72.0166L25.5694 85.1034L7.99365 80.8353L7.64648 79.6521Z" fill="#37474F"/>
<path id="Vector_115" opacity="0.2" d="M25.5694 85.1035L25.2223 83.9202L7.64648 79.6521L7.99365 80.8354L25.5694 85.1035Z" fill="white"/>
<path id="Vector_116" opacity="0.2" d="M25.2223 83.9202L7.96482 79.9397L7.99365 80.8354L7.64648 79.6521L25.2223 83.9202Z" fill="white"/>
<path id="Vector_117" d="M20.1322 66.5703L37.7065 70.8333L25.2223 83.9202L7.64648 79.6521L20.1322 66.5703Z" fill="#455A64"/>
</g>
<g id="Group_19">
<path id="Vector_118" d="M11.7981 86.4902C11.8693 86.1631 12.0154 85.8707 12.1251 85.5566C12.2415 85.2236 12.3335 84.8775 12.4017 84.5303C12.541 83.8224 12.524 83.1029 12.5518 82.3846C12.6001 81.1367 12.8983 79.945 13.4468 78.8344C14.4938 76.7149 16.4545 75.1635 18.6841 74.6411C19.3414 74.4872 20.0147 74.4217 20.6883 74.4465C21.0089 74.4584 21.3281 74.4898 21.6431 74.5533C21.9729 74.6199 22.3616 74.6744 22.6362 74.884C22.7886 75.0003 22.6517 75.3278 22.4735 75.3282C22.163 75.3288 21.8626 75.257 21.5541 75.2231C21.2624 75.1909 20.9693 75.1731 20.676 75.1684C20.1241 75.1595 19.5792 75.2233 19.0383 75.3356C17.9926 75.5527 16.9769 76.0223 16.1415 76.7145C14.5129 78.0638 13.517 80.1158 13.411 82.2742C13.3379 83.7627 13.2836 85.4548 12.2195 86.6C12.098 86.7307 11.736 86.7752 11.7981 86.4902Z" fill="#8D1B3D"/>
<g id="Group_20">
<path id="Vector_119" d="M5.26987 92.3112L5.30272 92.3474C5.39279 92.4468 5.54094 92.4663 5.65433 92.3943C6.94273 91.5747 9.1499 89.9377 9.25609 89.852C8.30446 91.147 6.71298 92.3004 6.12294 92.6749C5.94978 92.7849 5.92477 92.9608 6.01485 93.102C6.01612 93.1039 6.01485 93.102 6.01612 93.1039C6.11255 93.2499 6.31453 93.2448 6.44954 93.1596C7.06841 92.7696 8.96318 91.4507 10.259 89.5496C9.0363 91.8769 7.10932 93.2226 6.39422 93.7389C6.26028 93.8357 6.24226 94.0277 6.35522 94.1485L6.36031 94.1538C6.45378 94.2537 6.60574 94.2696 6.71807 94.1916C7.44694 93.6854 8.88285 92.603 9.86987 91.1241C9.33917 92.4829 8.04971 93.798 7.49569 94.3217C7.38569 94.4255 7.37107 94.6097 7.48552 94.7083C7.66291 94.8611 7.79283 94.7602 7.98104 94.6246C7.90071 94.7335 7.95306 94.8592 8.0052 94.9143C8.10015 95.0141 8.25402 95.0287 8.36508 94.9473C9.05898 94.4378 10.2047 93.4129 11.0273 91.6334C12.1735 89.1605 12.6213 86.7085 11.9969 86.3938C11.3092 86.0521 11.0491 87.3649 8.87183 89.2584C7.29583 90.6233 5.95317 91.5071 5.32836 91.893C5.18191 91.9838 5.15436 92.1838 5.26987 92.3112ZM8.37631 94.2361C9.86415 92.854 10.6922 90.8865 11.1687 89.7115C10.7566 91.1161 10.2955 92.6183 8.37631 94.2361Z" fill="#8D1B3D"/>
<path id="Vector_120" d="M11.6901 85.6594C12.1725 85.4631 12.7225 85.695 12.9187 86.1772C13.115 86.6595 12.8831 87.2095 12.401 87.4058C11.9186 87.6021 11.3686 87.3702 11.1723 86.888C10.9761 86.4056 11.2079 85.8556 11.6901 85.6594Z" fill="#8D1B3D"/>
<path id="Vector_121" opacity="0.2" d="M11.6901 85.6594C12.1725 85.4631 12.7225 85.695 12.9187 86.1772C13.115 86.6595 12.8831 87.2095 12.401 87.4058C11.9186 87.6021 11.3686 87.3702 11.1723 86.888C10.9761 86.4056 11.2079 85.8556 11.6901 85.6594Z" fill="black"/>
</g>
</g>
<g id="Group_21">
<path id="Vector_122" d="M23.7815 74.8102C23.7324 74.6425 23.5726 74.5075 23.3136 74.4446C22.7956 74.3189 22.0775 74.5295 21.7096 74.9151C21.5256 75.1079 21.4642 75.308 21.5133 75.4754C21.5316 75.538 21.6036 75.7834 21.6221 75.8459C21.6712 76.0134 21.831 76.1486 22.09 76.2115C22.608 76.3372 23.3261 76.1265 23.694 75.741C23.878 75.5481 23.9394 75.3481 23.8903 75.1806C23.8718 75.1183 23.8 74.8727 23.7815 74.8102Z" fill="#263238"/>
<path id="Vector_123" d="M21.9814 75.8414C21.4634 75.7155 21.3418 75.3009 21.7097 74.9154C22.0776 74.5299 22.7957 74.319 23.3137 74.4449C23.8317 74.5708 23.9533 74.9853 23.5854 75.3709C23.2174 75.7564 22.4994 75.9671 21.9814 75.8414Z" fill="#37474F"/>
</g>
</g>
</g>
<g id="Graduation_Hat_1">
<g id="Graduation_Hat_00000181047607935225172100000010341496402011438992_">
<g id="Group_22">
<path id="Vector_124" d="M8.73 15.6518L8.65603 15.6588C8.45362 15.6779 8.29509 15.8398 8.27941 16.0426C8.10159 18.3511 8.07976 22.5173 8.08696 22.7241C7.38183 20.3919 7.43037 17.4124 7.51302 16.3559C7.53718 16.0458 7.34644 15.8557 7.09359 15.8362C7.0902 15.836 7.09359 15.8362 7.0902 15.836C6.82527 15.8201 6.64787 16.0698 6.62816 16.3112C6.5383 17.4164 6.41474 20.9146 7.54206 24.216C5.83105 20.6159 5.95164 17.0542 5.9758 15.7173C5.98025 15.4668 5.76344 15.2703 5.5144 15.2974L5.50338 15.2987C5.29737 15.3212 5.13969 15.4911 5.13227 15.6982C5.0831 17.0428 5.09009 19.7692 5.98597 22.3115C4.8205 20.4317 4.3981 17.6716 4.26691 16.5229C4.24084 16.295 4.03101 16.1096 3.8072 16.1588C3.46046 16.2349 3.4647 16.4845 3.45813 16.8359C3.39879 16.6395 3.19914 16.5884 3.08469 16.6017C2.8772 16.6259 2.71951 16.7993 2.71739 17.0082C2.70404 18.3134 2.90539 20.6356 4.31544 23.2521C6.27252 26.892 8.83957 29.6652 9.78908 29.1943C10.8293 28.6708 9.47307 27.1611 9.15706 22.7979C8.93495 19.6446 9.08415 17.2121 9.1844 16.103C9.20729 15.843 8.98963 15.6274 8.73 15.6518ZM3.56961 17.6689C3.89283 20.7306 5.52585 23.5248 6.51795 25.1716C5.18907 23.3941 3.78622 21.4684 3.56961 17.6689Z" fill="#8D1B3D"/>
<path id="Vector_125" d="M45.675 36.3799C44.8696 35.0059 43.8248 33.8232 42.6364 32.768C41.5644 31.8161 40.4006 30.9633 39.144 30.2711C36.6666 28.9064 33.8558 28.1164 31.0194 28.1338C29.5896 28.1425 28.1645 28.3345 26.7983 28.7631C25.5082 29.1679 24.3031 29.7764 23.1226 30.4273C22.0462 31.0207 20.983 31.6442 19.8623 32.1525C19.5702 32.2849 19.4596 32.3316 19.2019 32.4299C18.9003 32.545 18.5945 32.6484 18.284 32.7368C17.7024 32.9023 17.2088 32.9937 16.6743 33.0257C15.4009 33.1018 14.2178 32.8031 13.1037 32.1773C12.4924 31.8339 11.9276 31.4009 11.4361 30.9014C11.1724 30.6333 10.9096 30.3656 10.6913 30.0581C10.6055 29.9372 10.5218 29.8162 10.4311 29.699C10.3463 29.5897 10.2651 29.5057 10.1557 29.4157C9.92981 29.2296 9.95545 29.2493 9.78441 28.9326C9.66276 28.7076 9.2607 28.7109 9.32535 29.0282C9.38851 29.3387 9.34887 29.6592 9.43619 29.9631C9.4966 30.1731 9.6049 30.3779 9.71384 30.5671C9.89017 30.8738 10.0737 31.1799 10.2874 31.4626C10.7059 32.0166 11.2386 32.4962 11.8004 32.8996C12.7898 33.6096 13.9595 34.0968 15.1686 34.2598C17.7401 34.6068 20.1181 33.568 22.3263 32.3644C23.4136 31.7718 24.4841 31.1487 25.6028 30.6153C26.8028 30.0428 28.0677 29.6528 29.3853 29.4674C32.159 29.077 35.0349 29.5767 37.575 30.7327C38.9768 31.3706 40.3046 32.1917 41.5169 33.1403C42.8971 34.2204 44.1403 35.4698 45.3823 36.7018C45.6006 36.9189 45.7926 36.5808 45.675 36.3799Z" fill="#8D1B3D"/>
<path id="Vector_126" d="M10.9589 29.4898C10.7582 30.2534 9.97679 30.7097 9.21316 30.5092C8.44953 30.3087 7.99321 29.5271 8.19371 28.7634C8.39442 27.9998 9.17586 27.5435 9.93949 27.744C10.7031 27.9445 11.1596 28.7264 10.9589 29.4898Z" fill="#8D1B3D"/>
<path id="Vector_127" opacity="0.2" d="M10.9589 29.4898C10.7582 30.2534 9.97679 30.7097 9.21316 30.5092C8.44953 30.3087 7.99321 29.5271 8.19371 28.7634C8.39442 27.9998 9.17586 27.5435 9.93949 27.744C10.7031 27.9445 11.1596 28.7264 10.9589 29.4898Z" fill="black"/>
</g>
<g id="Group_23">
<path id="Vector_128" d="M66.6711 28.791L46.4999 48.9394L18.9615 41.5591L18.459 39.6811L38.6281 19.5249L66.1686 26.913L66.6711 28.791Z" fill="#37474F"/>
<path id="Vector_129" opacity="0.2" d="M38.6279 19.5249L39.1304 21.4027L66.6711 28.791L66.1686 26.913L38.6279 19.5249Z" fill="white"/>
<path id="Vector_130" opacity="0.2" d="M39.1309 21.4026L66.1805 28.3255L66.169 26.9129L66.6716 28.7909L39.1309 21.4026Z" fill="white"/>
<path id="Vector_131" d="M46.5003 48.9393L18.9619 41.559L39.1308 21.4026L66.6715 28.7909L46.5003 48.9393Z" fill="#455A64"/>
</g>
<g id="XMLID_00000178200807764798937790000016306431564229367428_">
<path id="Vector_132" d="M57.3792 32.5181C56.7966 30.4372 54.8497 28.7264 51.6648 27.8721C45.2372 26.1477 36.2108 28.5635 31.5037 33.2677C29.1917 35.5783 28.3547 38.0104 28.861 40.0923C28.8684 40.1258 28.8731 40.1601 28.8818 40.1932L31.5987 50.3455C31.0353 48.2402 31.8638 45.7624 34.217 43.4088C38.9243 38.7036 47.9503 36.2881 54.3783 38.0131C57.5926 38.8766 59.548 40.6094 60.1114 42.7147L57.3976 32.5747C57.3925 32.5556 57.3847 32.5372 57.3792 32.5181Z" fill="#37474F"/>
<path id="Vector_133" d="M58.5667 36.9539C57.9841 34.873 56.0372 33.1622 52.8523 32.3079C46.4247 30.5835 37.3983 32.9992 32.6912 37.7035C30.3791 40.0141 29.5422 42.4462 30.0485 44.5281C30.0559 44.5616 30.0606 44.5959 30.0693 44.629L30.412 45.9097C29.8487 43.8045 30.6771 41.3267 33.0303 38.9733C37.7376 34.2681 46.7636 31.8526 53.1916 33.5776C56.4059 34.4411 58.3613 36.1739 58.9247 38.2792L58.5851 37.0107C58.5803 36.9914 58.5724 36.973 58.5667 36.9539Z" fill="#8D1B3D"/>
<path id="Vector_134" opacity="0.2" d="M35.9035 38.3983C32.9496 38.9816 31.5964 35.6617 33.8629 31.333C32.9971 31.9241 32.2019 32.5701 31.5037 33.268C29.1916 35.5786 28.3547 38.0107 28.861 40.0926C28.8684 40.1261 28.8731 40.1604 28.8818 40.1935L31.5987 50.3458C31.0353 48.2405 31.8638 45.7627 34.217 43.4091C38.9243 38.704 47.9503 36.2884 54.3783 38.0134C54.38 38.0139 54.3817 38.0145 54.3834 38.0149C54.3817 38.0143 54.3804 38.0137 54.3787 38.0132C46.7583 35.3688 39.8399 37.6211 35.9035 38.3983Z" fill="black"/>
</g>
<g id="Group_24">
<path id="Vector_135" d="M48.0565 54.7628C55.9299 52.6559 61.3265 47.2629 60.1101 42.7173C58.8937 38.1716 51.5249 36.1947 43.6515 38.3016C35.7782 40.4085 30.3816 45.8014 31.598 50.3471C32.8144 54.8927 40.1832 56.8697 48.0565 54.7628Z" fill="#263238"/>
<path id="Vector_136" d="M47.9063 54.201C55.4783 52.1748 60.6977 47.0988 59.5644 42.8634C58.431 38.628 51.3739 36.8372 43.802 38.8634C36.2301 40.8896 31.0106 45.9657 32.144 50.2011C33.2773 54.4364 40.3344 56.2273 47.9063 54.201Z" fill="#37474F"/>
<path id="Vector_137" opacity="0.2" d="M44.9123 52.104C40.2465 50.5181 39.6152 43.6672 43.4632 40.1509L36.9746 41.8873C36.1444 42.4433 35.381 43.0494 34.7093 43.7026C30.1566 48.1303 31.456 52.9859 37.6117 54.5479C43.5338 56.0506 51.7913 53.9564 56.4634 49.8526C52.9317 51.7018 48.0791 53.1803 44.9123 52.104Z" fill="black"/>
<path id="Vector_138" d="M34.7099 43.7026C34.481 43.9253 34.2707 44.1493 34.0713 44.3736C34.3561 44.4683 34.6501 44.5573 34.9598 44.636C41.1154 46.198 49.7962 43.8747 54.3489 39.447C54.5778 39.2242 54.7881 39.0002 54.9875 38.776C54.7026 38.6812 54.4087 38.5922 54.099 38.5136C47.9434 36.9518 39.2626 39.2749 34.7099 43.7026Z" fill="black"/>
</g>
</g>
</g>
</g>
</svg>
