<svg width="517" height="336" viewBox="0 0 517 336" fill="none" xmlns="http://www.w3.org/2000/svg">
<path d="M489.396 101.994C450.534 23.4382 328.764 -21.1966 257.531 61.7734C254.729 65.0375 252.079 68.453 249.59 71.9911C231.426 97.8102 204.16 142.512 170.878 131.581C148.094 124.097 132.466 103.451 109.932 95.418C80.2261 84.8288 51.9904 106.506 33.8059 134.207C12.6668 166.408 2.55591 204.197 14.5838 239.134C36.9868 304.207 124.202 318.853 183.887 312.885C227.6 308.515 269.792 284.846 313.576 283.351C345.078 282.275 375.208 290.988 403.596 301.822C416.749 306.842 429.891 312.374 444.123 313.757C495.038 318.708 504.758 267.813 505.974 225.002C507.183 182.479 507.528 138.647 489.396 101.994Z" fill="#8D1B3D"/>
<path opacity="0.7" d="M489.396 101.994C450.534 23.4382 328.764 -21.1966 257.531 61.7734C254.729 65.0375 252.079 68.453 249.59 71.9911C231.426 97.8102 204.16 142.512 170.878 131.581C148.094 124.097 132.466 103.451 109.932 95.418C80.2261 84.8288 51.9904 106.506 33.8059 134.207C12.6668 166.408 2.55591 204.197 14.5838 239.134C36.9868 304.207 124.202 318.853 183.887 312.885C227.6 308.515 269.792 284.846 313.576 283.351C345.078 282.275 375.208 290.988 403.596 301.822C416.749 306.842 429.891 312.374 444.123 313.757C495.038 318.708 504.758 267.813 505.974 225.002C507.183 182.479 507.528 138.647 489.396 101.994Z" fill="white"/>
<path d="M116.07 42.7124H68.4031L67.7734 49.2663H116.07V42.7124Z" stroke="#263238" stroke-miterlimit="10"/>
<path d="M116.07 49.2664H68.4031L67.7734 55.8195H116.07V49.2664Z" stroke="#263238" stroke-miterlimit="10"/>
<path d="M116.07 55.8196H68.4031L67.7734 62.3728H116.07V55.8196Z" stroke="#263238" stroke-miterlimit="10"/>
<path d="M116.07 62.3728H68.4031L67.7734 68.9267H116.07V62.3728Z" stroke="#263238" stroke-miterlimit="10"/>
<path d="M116.07 68.9265H68.4031L67.7734 75.4797H116.07V68.9265Z" stroke="#263238" stroke-miterlimit="10"/>
<path d="M116.07 75.4797H68.4031L67.7734 82.0329H116.07V75.4797Z" stroke="#263238" stroke-miterlimit="10"/>
<path d="M116.07 82.033H68.4031L67.7734 88.5869H116.07V82.033Z" stroke="#263238" stroke-miterlimit="10"/>
<path d="M116.07 88.5869H68.4031L67.7734 95.1401H116.07V88.5869Z" stroke="#263238" stroke-miterlimit="10"/>
<path d="M116.07 95.1401H68.4031L67.7734 101.693H116.07V95.1401Z" stroke="#263238" stroke-miterlimit="10"/>
<path d="M116.07 101.693H68.4031L67.7734 108.247H116.07V101.693Z" stroke="#263238" stroke-miterlimit="10"/>
<path d="M116.07 108.247H68.4031L67.7734 114.8H116.07V108.247Z" stroke="#263238" stroke-miterlimit="10"/>
<path d="M116.07 114.8H68.4031L67.7734 121.353H116.07V114.8Z" stroke="#263238" stroke-miterlimit="10"/>
<path d="M116.07 121.354H68.4031L67.7734 127.908H116.07V121.354Z" stroke="#263238" stroke-miterlimit="10"/>
<path d="M116.07 127.907H68.4031L67.7734 134.461H116.07V127.907Z" stroke="#263238" stroke-miterlimit="10"/>
<path d="M116.07 134.461H68.4031L67.7734 141.015H116.07V134.461Z" stroke="#263238" stroke-miterlimit="10"/>
<path d="M116.07 141.003H68.4031L67.7734 147.556H116.07V141.003Z" stroke="#263238" stroke-miterlimit="10"/>
<path d="M116.07 147.545H68.4031L67.7734 154.098H116.07V147.545Z" stroke="#263238" stroke-miterlimit="10"/>
<path d="M116.07 154.088H68.4031L67.7734 160.641H116.07V154.088Z" stroke="#263238" stroke-miterlimit="10"/>
<path d="M116.07 160.63H68.4031L67.7734 167.183H116.07V160.63Z" stroke="#263238" stroke-miterlimit="10"/>
<path d="M116.07 167.172H68.4031L67.7734 173.725H116.07V167.172Z" stroke="#263238" stroke-miterlimit="10"/>
<path d="M116.07 173.714H68.4031L67.7734 180.267H116.07V173.714Z" stroke="#263238" stroke-miterlimit="10"/>
<path d="M165.071 42.7124H117.403L116.773 49.2663H165.071V42.7124Z" stroke="#263238" stroke-miterlimit="10"/>
<path d="M165.071 49.2664H117.403L116.773 55.8195H165.071V49.2664Z" stroke="#263238" stroke-miterlimit="10"/>
<path d="M165.071 55.8196H117.403L116.773 62.3728H165.071V55.8196Z" stroke="#263238" stroke-miterlimit="10"/>
<path d="M165.071 62.3728H117.403L116.773 68.9267H165.071V62.3728Z" stroke="#263238" stroke-miterlimit="10"/>
<path d="M165.071 68.9265H117.403L116.773 75.4797H165.071V68.9265Z" stroke="#263238" stroke-miterlimit="10"/>
<path d="M165.071 75.4797H117.403L116.773 82.0329H165.071V75.4797Z" stroke="#263238" stroke-miterlimit="10"/>
<path d="M165.071 82.033H117.403L116.773 88.5869H165.071V82.033Z" stroke="#263238" stroke-miterlimit="10"/>
<path d="M165.071 88.5869H117.403L116.773 95.1401H165.071V88.5869Z" stroke="#263238" stroke-miterlimit="10"/>
<path d="M165.071 95.1401H117.403L116.773 101.693H165.071V95.1401Z" stroke="#263238" stroke-miterlimit="10"/>
<path d="M165.071 101.693H117.403L116.773 108.247H165.071V101.693Z" stroke="#263238" stroke-miterlimit="10"/>
<path d="M165.071 108.247H117.403L116.773 114.8H165.071V108.247Z" stroke="#263238" stroke-miterlimit="10"/>
<path d="M165.071 114.8H117.403L116.773 121.353H165.071V114.8Z" stroke="#263238" stroke-miterlimit="10"/>
<path d="M165.071 121.354H117.403L116.773 127.908H165.071V121.354Z" stroke="#263238" stroke-miterlimit="10"/>
<path d="M165.071 127.907H117.403L116.773 134.461H165.071V127.907Z" stroke="#263238" stroke-miterlimit="10"/>
<path d="M165.071 134.461H117.403L116.773 141.015H165.071V134.461Z" stroke="#263238" stroke-miterlimit="10"/>
<path d="M165.071 141.003H117.403L116.773 147.556H165.071V141.003Z" stroke="#263238" stroke-miterlimit="10"/>
<path d="M165.071 147.545H117.403L116.773 154.098H165.071V147.545Z" stroke="#263238" stroke-miterlimit="10"/>
<path d="M165.071 154.088H117.403L116.773 160.641H165.071V154.088Z" stroke="#263238" stroke-miterlimit="10"/>
<path d="M165.071 160.63H117.403L116.773 167.183H165.071V160.63Z" stroke="#263238" stroke-miterlimit="10"/>
<path d="M165.071 167.172H117.403L116.773 173.725H165.071V167.172Z" stroke="#263238" stroke-miterlimit="10"/>
<path d="M165.071 173.714H117.403L116.773 180.267H165.071V173.714Z" stroke="#263238" stroke-miterlimit="10"/>
<path d="M167.459 37.6389H66.6582V42.5831H167.459V37.6389Z" stroke="#263238" stroke-miterlimit="10"/>
<path d="M167.459 42.583V129.65" stroke="#263238" stroke-miterlimit="10"/>
<path d="M166.361 42.7224V102.459" stroke="#263238" stroke-miterlimit="10"/>
<path d="M168.172 129.458H166.816V131.675H168.172V129.458Z" fill="#263238" stroke="#263238" stroke-miterlimit="10"/>
<path d="M166.953 101.983H165.598V104.201H166.953V101.983Z" fill="#263238" stroke="#263238" stroke-miterlimit="10"/>
<path d="M407.601 42.7124H359.932L359.303 49.2663H407.601V42.7124Z" stroke="#263238" stroke-miterlimit="10"/>
<path d="M407.601 49.2664H359.932L359.303 55.8195H407.601V49.2664Z" stroke="#263238" stroke-miterlimit="10"/>
<path d="M407.601 55.8196H359.932L359.303 62.3728H407.601V55.8196Z" stroke="#263238" stroke-miterlimit="10"/>
<path d="M407.601 62.3728H359.932L359.303 68.9267H407.601V62.3728Z" stroke="#263238" stroke-miterlimit="10"/>
<path d="M407.601 68.9265H359.932L359.303 75.4797H407.601V68.9265Z" stroke="#263238" stroke-miterlimit="10"/>
<path d="M407.601 75.4797H359.932L359.303 82.0329H407.601V75.4797Z" stroke="#263238" stroke-miterlimit="10"/>
<path d="M407.601 82.033H359.932L359.303 88.5869H407.601V82.033Z" stroke="#263238" stroke-miterlimit="10"/>
<path d="M407.601 88.5869H359.932L359.303 95.1401H407.601V88.5869Z" stroke="#263238" stroke-miterlimit="10"/>
<path d="M407.601 95.1401H359.932L359.303 101.693H407.601V95.1401Z" stroke="#263238" stroke-miterlimit="10"/>
<path d="M407.601 101.693H359.932L359.303 108.247H407.601V101.693Z" stroke="#263238" stroke-miterlimit="10"/>
<path d="M407.601 108.247H359.932L359.303 114.8H407.601V108.247Z" stroke="#263238" stroke-miterlimit="10"/>
<path d="M407.601 114.8H359.932L359.303 121.353H407.601V114.8Z" stroke="#263238" stroke-miterlimit="10"/>
<path d="M407.601 121.354H359.932L359.303 127.908H407.601V121.354Z" stroke="#263238" stroke-miterlimit="10"/>
<path d="M407.601 127.907H359.932L359.303 134.461H407.601V127.907Z" stroke="#263238" stroke-miterlimit="10"/>
<path d="M407.601 134.461H359.932L359.303 141.015H407.601V134.461Z" stroke="#263238" stroke-miterlimit="10"/>
<path d="M407.601 141.003H359.932L359.303 147.556H407.601V141.003Z" stroke="#263238" stroke-miterlimit="10"/>
<path d="M407.601 147.545H359.932L359.303 154.098H407.601V147.545Z" stroke="#263238" stroke-miterlimit="10"/>
<path d="M407.601 154.088H359.932L359.303 160.641H407.601V154.088Z" stroke="#263238" stroke-miterlimit="10"/>
<path d="M407.601 160.63H359.932L359.303 167.183H407.601V160.63Z" stroke="#263238" stroke-miterlimit="10"/>
<path d="M407.601 167.172H359.932L359.303 173.725H407.601V167.172Z" stroke="#263238" stroke-miterlimit="10"/>
<path d="M407.601 173.714H359.932L359.303 180.267H407.601V173.714Z" stroke="#263238" stroke-miterlimit="10"/>
<path d="M456.602 42.7126H408.934L408.305 49.2666H456.602V42.7126Z" stroke="#263238" stroke-miterlimit="10"/>
<path d="M456.602 49.2664H408.934L408.305 55.8195H456.602V49.2664Z" stroke="#263238" stroke-miterlimit="10"/>
<path d="M456.602 55.8198H408.934L408.305 62.373H456.602V55.8198Z" stroke="#263238" stroke-miterlimit="10"/>
<path d="M456.602 62.3728H408.934L408.305 68.9267H456.602V62.3728Z" stroke="#263238" stroke-miterlimit="10"/>
<path d="M456.602 68.9268H408.934L408.305 75.4799H456.602V68.9268Z" stroke="#263238" stroke-miterlimit="10"/>
<path d="M456.602 75.48H408.934L408.305 82.0332H456.602V75.48Z" stroke="#263238" stroke-miterlimit="10"/>
<path d="M456.602 82.0332H408.934L408.305 88.5871H456.602V82.0332Z" stroke="#263238" stroke-miterlimit="10"/>
<path d="M456.602 88.5872H408.934L408.305 95.1403H456.602V88.5872Z" stroke="#263238" stroke-miterlimit="10"/>
<path d="M456.602 95.1401H408.934L408.305 101.693H456.602V95.1401Z" stroke="#263238" stroke-miterlimit="10"/>
<path d="M456.602 101.694H408.934L408.305 108.248H456.602V101.694Z" stroke="#263238" stroke-miterlimit="10"/>
<path d="M456.602 108.247H408.934L408.305 114.8H456.602V108.247Z" stroke="#263238" stroke-miterlimit="10"/>
<path d="M456.602 114.801H408.934L408.305 121.354H456.602V114.801Z" stroke="#263238" stroke-miterlimit="10"/>
<path d="M456.602 121.354H408.934L408.305 127.908H456.602V121.354Z" stroke="#263238" stroke-miterlimit="10"/>
<path d="M456.602 127.908H408.934L408.305 134.461H456.602V127.908Z" stroke="#263238" stroke-miterlimit="10"/>
<path d="M456.602 134.461H408.934L408.305 141.015H456.602V134.461Z" stroke="#263238" stroke-miterlimit="10"/>
<path d="M456.602 141.003H408.934L408.305 147.557H456.602V141.003Z" stroke="#263238" stroke-miterlimit="10"/>
<path d="M456.602 147.545H408.934L408.305 154.098H456.602V147.545Z" stroke="#263238" stroke-miterlimit="10"/>
<path d="M456.602 154.088H408.934L408.305 160.641H456.602V154.088Z" stroke="#263238" stroke-miterlimit="10"/>
<path d="M456.602 160.63H408.934L408.305 167.183H456.602V160.63Z" stroke="#263238" stroke-miterlimit="10"/>
<path d="M456.602 167.172H408.934L408.305 173.726H456.602V167.172Z" stroke="#263238" stroke-miterlimit="10"/>
<path d="M456.602 173.714H408.934L408.305 180.267H456.602V173.714Z" stroke="#263238" stroke-miterlimit="10"/>
<path d="M458.988 37.6389H358.188V42.5831H458.988V37.6389Z" stroke="#263238" stroke-miterlimit="10"/>
<path d="M458.988 42.583V129.65" stroke="#263238" stroke-miterlimit="10"/>
<path d="M457.891 42.7224V102.459" stroke="#263238" stroke-miterlimit="10"/>
<path d="M459.701 129.458H458.346V131.675H459.701V129.458Z" fill="#263238" stroke="#263238" stroke-miterlimit="10"/>
<path d="M458.48 101.983H457.125V104.201H458.48V101.983Z" fill="#263238" stroke="#263238" stroke-miterlimit="10"/>
<path d="M20.2241 252.546C20.1053 251.918 19.8608 251.254 19.5748 250.547C19.2811 249.849 18.961 249.093 18.5727 248.405C17.7985 247.03 16.9441 245.734 16.3417 245.006C16.2085 244.835 15.9383 244.973 15.9928 245.182C16.1063 245.638 16.2562 246.238 16.4272 246.921C16.5816 247.608 16.7292 248.387 16.8836 249.161C17.212 250.696 17.4322 252.338 17.7145 253.504C17.8924 254.225 18.0604 254.905 18.2133 255.525C18.3745 256.141 18.5417 256.68 18.712 257.127L17.2188 255.77C16.7216 255.317 16.1714 254.925 15.6507 254.5C15.8702 254.141 15.9754 253.342 15.874 252.303C15.7536 251.288 15.4729 249.962 14.9068 248.611C14.6601 248.032 14.3187 247.388 13.9176 246.719C13.5097 246.059 13.0125 245.413 12.5122 244.771C11.4913 243.519 10.3576 242.407 9.60611 241.782C9.43659 241.636 9.19214 241.82 9.28977 242.018C9.50167 242.454 9.78245 243.018 10.0753 243.665C10.3493 244.316 10.6558 245.044 10.9699 245.792C11.5352 247.262 12.1263 248.8 12.5713 249.955C12.8581 250.656 13.1396 251.297 13.4113 251.861C13.6641 252.452 13.9078 252.968 14.1416 253.391L12.9194 252.557L11.6457 251.803C11.6094 251.604 11.483 251.365 11.2787 251.098C11.066 250.847 10.7693 250.575 10.4068 250.291C9.69012 249.709 8.65935 249.155 7.47117 248.72C6.4124 248.345 4.9616 248.107 3.59178 248.097C2.22121 248.073 0.949774 248.245 0.208862 248.427C0.0370669 248.471 0.05523 248.776 0.20205 248.819C0.904366 249.021 2.0426 249.443 3.20203 249.939C4.36978 250.421 5.55493 251.011 6.51381 251.346C8.50345 252.071 10.3069 252.54 11.1591 252.395L12.4229 253.142C12.8384 253.401 13.2335 253.691 13.6399 253.964C13.1714 253.91 12.6379 253.88 12.0551 253.901C11.4603 253.944 10.8246 254.028 10.1767 254.158C9.63941 254.256 9.01429 254.466 8.38387 254.725C7.75118 254.99 7.12606 255.262 6.52138 255.625C5.92199 255.972 5.368 256.332 4.895 256.664C4.41897 257.011 4.02165 257.346 3.73028 257.594C3.59784 257.708 3.59784 257.981 3.72952 257.944C4.30772 257.766 5.29384 257.548 6.43207 257.33C7.01557 257.228 7.61723 257.122 8.19694 257.019C8.78422 256.935 9.36696 256.837 9.89446 256.717C11.0917 256.453 12.236 256.224 13.1987 255.932C14.1485 255.661 14.8644 255.403 15.186 255.096C15.687 255.504 16.2123 255.882 16.6928 256.313L18.1277 257.617C17.6691 257.495 17.1348 257.393 16.5528 257.323C15.9746 257.247 15.3419 257.21 14.6593 257.252C13.5271 257.305 12.0915 257.577 10.764 258.049C10.1048 258.274 9.49032 258.507 8.94845 258.748C8.40128 259.003 7.93812 259.242 7.59377 259.428C7.43711 259.514 7.39094 259.784 7.53322 259.776C8.16894 259.714 9.20122 259.727 10.3992 259.713C10.9979 259.705 11.6026 259.753 12.2201 259.752C12.8452 259.748 13.4446 259.745 13.9759 259.742C15.1898 259.72 16.4181 259.608 17.3883 259.504C18.3571 259.4 19.1214 259.23 19.4802 258.979C20.4027 259.888 21.2185 260.893 22.0472 261.889C21.1603 261.535 20.0137 261.166 18.6567 261.035C17.5102 260.936 16.0526 260.967 14.6555 261.211C13.2569 261.452 12.0173 261.77 11.2605 262.021C11.0872 262.08 11.0024 262.338 11.1508 262.353C11.8092 262.458 12.8929 262.631 14.0531 262.817C15.211 263.071 16.577 263.264 17.6381 263.42C18.8634 263.573 20.0773 263.655 21.0823 263.657C22.0624 263.686 22.8404 263.613 23.2271 263.408L24.3835 264.972L25.4589 266.592C24.6287 266.135 23.5132 265.659 22.1638 265.363C21.0414 265.116 19.571 264.935 18.1323 264.994C16.708 265.026 15.4101 265.163 14.6252 265.278C14.4406 265.312 14.3293 265.551 14.4701 265.601C15.0945 265.811 16.1457 266.155 17.346 266.512C18.5107 266.938 19.8184 267.379 20.9135 267.626C22.1229 267.929 23.3187 268.152 24.3161 268.262C25.3174 268.369 26.0727 268.39 26.4859 268.22L27.4697 269.897L28.3726 271.618C27.5946 271.076 26.5306 270.49 25.2243 270.058C24.1504 269.683 22.6837 269.402 21.2465 269.278C19.8215 269.142 18.5183 269.109 17.679 269.137C17.4913 269.142 17.3497 269.38 17.4958 269.444C18.1467 269.719 19.1396 270.224 20.3111 270.73C21.4539 271.248 22.6716 271.826 23.7432 272.177C24.9125 272.598 26.078 272.941 27.0596 273.155C28.0162 273.379 28.7904 273.471 29.2127 273.35C29.7742 274.518 30.2472 275.725 30.7187 276.93C30.0013 276.307 28.9932 275.61 27.7649 275.034C26.7182 274.554 25.3151 274.111 23.8976 273.843C22.4975 273.563 21.2034 273.404 20.3717 273.35C20.1855 273.337 20.019 273.558 20.1567 273.635C20.7728 273.969 21.7029 274.564 22.8131 275.18C23.8515 275.82 25.0722 276.491 26.0379 276.973C28.3227 278.031 30.4637 278.887 31.3537 278.745L31.916 280.603L32.3958 282.483C31.7669 281.772 30.858 280.959 29.7001 280.246C28.7639 279.637 27.3388 279.062 26.0197 278.627C24.6582 278.199 23.3603 277.915 22.5808 277.764C22.3999 277.731 22.2084 277.931 22.3288 278.023C22.8464 278.429 23.8045 279.084 24.7642 279.828C25.7677 280.559 26.8144 281.372 27.7581 281.95C29.8643 283.258 31.9069 284.376 32.7795 284.364C33.0133 285.628 33.1814 286.915 33.2351 288.183C33.2427 288.344 33.4114 288.462 33.6211 288.466C33.8299 288.471 33.9995 288.325 33.9911 288.157C33.9344 286.828 33.7626 285.526 33.5242 284.233C34.3438 284.003 35.8975 282.128 36.948 279.425C37.3854 278.277 37.7441 276.69 37.9174 275.173C38.1339 273.637 38.1286 272.201 38.1551 271.293C38.1589 271.088 37.863 271.05 37.7782 271.241C37.4005 272.07 36.7815 273.428 36.1314 274.857C35.4503 276.28 34.7843 277.715 34.3287 278.843C33.8065 280.225 33.3675 281.463 33.1511 282.398C32.999 281.743 32.8234 281.094 32.6576 280.443L32.0742 278.514C32.4616 278.34 32.9672 277.749 33.4788 276.844C34.0032 275.934 34.4891 274.726 34.8486 273.338C35.1869 272.131 35.2883 270.568 35.3367 269.028C35.3224 267.53 35.2535 266.054 35.1377 265.19C35.1135 264.991 34.8153 264.988 34.7532 265.185C34.4967 266.041 33.9995 267.479 33.5106 268.941C33.0429 270.396 32.4692 271.935 32.1907 273.083C31.8252 274.517 31.552 275.794 31.4558 276.749C30.9722 275.496 30.4803 274.246 29.8998 273.035C30.2654 272.816 30.7074 272.165 31.1228 271.203C31.5118 270.256 31.8638 269.001 32.09 267.577C32.2444 266.379 32.2467 264.776 32.1037 263.273C31.9387 261.791 31.7237 260.34 31.5247 259.498C31.4808 259.304 31.1849 259.334 31.1425 259.535C30.9738 260.406 30.6203 261.884 30.2843 263.384C29.9657 264.878 29.579 266.451 29.4079 267.634C29.224 269.084 29.0704 270.395 29.0863 271.353L28.1531 269.569L27.1345 267.833C27.4682 267.58 27.8595 266.869 28.1471 265.886C28.4354 264.903 28.6564 263.619 28.7374 262.185C28.7783 260.974 28.5959 259.412 28.334 257.915C27.998 256.434 27.5757 255.016 27.2995 254.15C27.2389 253.951 26.9332 254.015 26.9226 254.221C26.8295 255.134 26.6766 256.629 26.5162 258.201C26.3852 259.731 26.106 261.341 26.078 262.524C26.0447 263.978 26.0243 265.302 26.14 266.253L25.0298 264.575L23.8341 262.957C24.1459 262.667 24.4433 261.937 24.6559 260.912C24.8398 259.904 24.9102 258.603 24.8194 257.156C24.7642 255.897 24.3093 254.374 23.8378 252.872C23.3134 251.412 22.6572 250.054 22.2493 249.217C22.1464 249.034 21.858 249.13 21.877 249.342C21.9534 250.272 22.0071 251.821 22.0715 253.373C22.1403 254.928 22.0926 256.586 22.2152 257.762C22.3522 259.23 22.4605 260.558 22.6905 261.482C21.8293 260.45 20.9862 259.404 20.0273 258.459C20.3013 258.133 20.5049 257.374 20.5783 256.322C20.654 255.27 20.52 253.987 20.2241 252.546Z" fill="#8D1B3D"/>
<path d="M49.0083 220.833C50.1253 219.459 51.6177 217.579 52.9406 215.789C54.2938 214.025 55.5788 212.348 56.3636 211.326C56.5491 211.098 56.403 210.79 56.176 210.93C55.1868 211.545 53.627 212.625 51.9394 213.898C50.2804 215.176 48.623 216.696 47.3698 218.055C45.9182 219.758 44.6771 221.503 43.8287 222.954L44.8557 219.321L45.3794 217.507L45.9818 215.717C46.8468 215.823 49.4548 213.664 52.4638 210.783C55.0513 208.27 58.8936 203.805 60.7122 201.995C60.9113 201.783 60.7894 201.46 60.5556 201.581C59.5362 202.113 57.8046 203.004 56.0632 204.145C55.1883 204.712 54.2582 205.314 53.4227 205.952C52.5895 206.591 51.8001 207.242 51.1281 207.866C50.2827 208.63 49.5388 209.427 48.8751 210.201C48.206 210.973 47.6119 211.719 47.1178 212.4C47.7989 210.686 48.4021 208.941 49.1467 207.254C49.6235 206.921 50.3364 205.924 51.1462 204.492C52.0256 203.091 52.9421 201.226 53.9888 199.218C54.4368 198.319 54.9038 197.269 55.4154 196.179C55.6598 195.627 55.9096 195.064 56.1608 194.498C56.4181 193.934 56.6754 193.369 56.9297 192.813C57.9363 190.58 58.9118 188.486 59.5589 187.237C59.7057 186.952 59.4597 186.773 59.235 187.015C58.261 188.062 56.7602 189.858 55.292 191.884C54.9295 192.394 54.5617 192.913 54.1954 193.429C53.8518 193.96 53.5097 194.49 53.1752 195.008C52.5032 196.044 51.9348 197.076 51.4747 197.996C50.4825 199.9 49.7946 201.767 49.2633 203.281C48.7805 204.818 48.5405 206.044 48.5458 206.737L47.9881 208.034L47.4803 209.351L46.4654 211.987C46.5479 211.165 46.6039 210.232 46.6311 209.217C46.644 208.2 46.6569 207.112 46.6712 205.987C46.6735 205.044 46.6243 203.98 46.5456 202.866C46.473 201.755 46.398 200.605 46.3254 199.494C46.1339 197.249 46.0181 195.17 45.9167 193.885C45.8955 193.593 45.5474 193.708 45.4687 194.034C45.3037 194.747 45.0857 195.686 44.8383 196.755C44.6309 197.834 44.4114 199.038 44.2093 200.267C43.9884 201.487 43.8786 202.775 43.7598 203.965C43.6546 205.162 43.5729 206.276 43.613 207.247C43.6758 211.636 44.5302 214.959 45.2659 215.473L44.6718 217.237C44.4863 217.829 44.3267 218.429 44.1533 219.025L43.1332 222.606C43.1506 220.959 43.0106 218.868 42.7548 216.608C42.614 214.742 42.1743 212.381 41.8125 210.17C41.4417 207.943 41.0981 205.875 40.8892 204.622C40.8453 204.335 40.5055 204.48 40.4503 204.809C40.2664 206.275 39.9326 208.645 39.7851 211.144C39.6617 213.655 39.5936 216.238 39.8585 218.17C40.1105 220.356 40.4677 222.243 40.9664 223.662C41.4326 225.072 41.9094 225.979 42.303 226.2L41.8844 228.014L41.5643 229.849L40.9286 233.519C40.7712 231.879 40.4155 229.815 39.913 227.586C39.5792 225.742 38.9473 223.442 38.3237 221.257C37.7826 219.102 37.2301 217.06 36.8895 215.811C36.8116 215.526 36.4945 215.706 36.4801 216.044C36.3038 219.001 36.2712 225.67 37.2044 229.449C38.0936 233.757 39.6958 236.841 40.504 237.184C40.1582 239.646 40.1203 242.134 39.9932 244.615C39.8116 243.809 39.5701 242.904 39.2757 241.93C39.1289 241.442 38.9685 240.937 38.7959 240.419C38.6135 239.9 38.4425 239.369 38.2911 238.832C37.7553 237.035 36.8373 234.807 36.0048 232.697C35.2389 230.604 34.4746 228.62 34.0053 227.405C33.8986 227.128 33.6012 227.342 33.6224 227.681C33.6761 228.42 33.7465 229.395 33.8275 230.503C33.9236 231.606 34.0038 232.824 34.2354 234.085C34.439 235.339 34.6668 236.609 34.9128 237.792C35.0391 238.384 35.1542 238.952 35.3018 239.49C35.4645 240.03 35.6287 240.536 35.7922 240.996C36.5437 243.091 37.3254 244.867 38.0596 246.128C38.8254 247.379 39.4907 248.163 39.9236 248.295C39.9009 250.771 39.9364 253.248 39.9765 255.724C39.5005 254.136 38.7989 252.179 37.8968 250.129C37.5305 249.27 37.0681 248.326 36.5596 247.356C36.2992 246.873 36.0343 246.382 35.7687 245.891C35.5129 245.384 35.2571 244.877 35.0058 244.379C33.9463 242.348 32.9625 240.464 32.3661 239.321C32.2261 239.056 31.9574 239.304 32.0202 239.642C32.2995 241.118 32.768 243.531 33.3583 245.964C34.0341 248.294 34.7962 250.702 35.5674 252.425C37.2861 256.358 39.1963 259.167 40.0651 259.4C40.1415 261.875 40.2452 264.349 40.3693 266.822C39.863 265.25 39.0578 263.319 38.1125 261.301C36.4884 257.935 33.406 253.182 32.0513 251.087C31.8961 250.849 31.6426 251.104 31.7251 251.414C32.4198 254.15 34.218 260.292 35.8535 263.674C37.7099 267.543 39.7071 270.289 40.582 270.494C40.7439 272.965 40.918 275.435 41.1314 277.902C40.5593 276.348 39.7101 274.443 38.6915 272.458C36.9652 269.146 33.7147 264.501 32.2987 262.457C32.1375 262.226 31.8908 262.487 31.9809 262.795C32.7763 265.498 34.7599 271.574 36.5119 274.903C38.4871 278.71 40.5782 281.392 41.4629 281.566C41.7036 284.025 41.9662 286.481 42.2825 288.936C42.3226 289.245 42.5247 289.474 42.7321 289.445C42.9387 289.415 43.0726 289.145 43.0325 288.837C42.7177 286.399 42.4558 283.95 42.2159 281.5C43.0454 281.249 44.587 278.206 46.0158 274.191C47.2267 270.721 48.561 264.728 49.1642 262.118C49.233 261.82 48.9697 261.59 48.8243 261.821C47.5506 263.847 44.7497 268.638 43.5161 272.128C42.7419 274.278 42.1887 276.35 41.8988 278.002C41.6793 275.489 41.5023 272.971 41.3365 270.454C42.1773 270.232 43.8234 267.24 45.3748 263.271C46.7053 259.84 48.2212 253.9 48.9212 251.319C48.9977 251.023 48.7396 250.785 48.589 251.011C47.257 252.988 44.2858 257.679 42.9455 261.129C42.0933 263.253 41.4932 265.305 41.1344 266.947C41.005 264.428 40.9006 261.907 40.8219 259.385C41.6672 259.191 43.4071 256.252 45.0978 252.342C45.81 250.656 46.616 248.337 47.3107 246.129C48.0895 244.028 48.7744 242.096 49.171 240.917C49.2618 240.649 49.0166 240.405 48.8546 240.604C48.1455 241.475 46.9861 242.954 45.7933 244.675C45.4959 245.105 45.1947 245.548 44.9018 246.001C44.6264 246.47 44.3562 246.943 44.0973 247.412C43.5797 248.35 43.1082 249.275 42.7336 250.121C41.8368 252.213 41.1261 254.244 40.7364 255.874C40.6917 253.351 40.6577 250.828 40.6796 248.306C41.1034 248.223 41.78 247.463 42.5671 246.243C43.3806 245.032 44.3668 243.416 45.3044 241.595C45.508 241.203 45.7146 240.775 45.9235 240.323C46.1528 239.871 46.395 239.395 46.6432 238.906C47.1306 237.928 47.6157 236.896 48.0706 235.895C48.4967 234.891 49.0219 233.929 49.4457 233.073C49.8657 232.22 50.2358 231.47 50.5158 230.901C50.6407 230.643 50.4273 230.372 50.2411 230.552C49.4245 231.343 48.0834 232.689 46.6818 234.264C45.3499 235.841 44.0429 237.663 43.109 239.252C42.8115 239.742 42.5625 240.233 42.3461 240.72C42.1213 241.207 41.9102 241.688 41.7149 242.158C41.3244 243.098 40.996 243.993 40.7424 244.795C40.8749 242.283 40.9044 239.764 41.2563 237.268C42.144 237.19 44.1708 234.526 46.585 231.136C48.5292 228.161 51.5723 223.128 52.9474 221.002C53.0995 220.757 52.9172 220.464 52.7121 220.625C51.813 221.334 50.3327 222.541 48.7706 223.966C47.2956 225.405 45.7585 227.07 44.6543 228.547C43.4003 230.389 42.3574 232.255 41.6513 233.786L42.2954 230.067L42.617 228.207L43.0416 226.367C43.4737 226.377 44.3024 225.78 45.334 224.784C46.3307 223.781 47.6596 222.411 49.0083 220.833Z" fill="#8D1B3D"/>
<path d="M68.771 249.599C71.1391 248.585 74.5538 246.546 76.0227 245.718C76.1922 245.625 76.0719 245.359 75.8676 245.376C74.9745 245.457 73.5109 245.639 71.9451 245.929C70.405 246.242 68.7415 246.647 67.5518 247.153C66.0616 247.761 64.7736 248.477 63.8715 249.14C64.7002 247.759 65.575 246.408 66.4522 245.058C67.2294 245.446 69.7594 244.904 72.5679 243.962C73.7758 243.554 75.2485 242.875 76.6123 242.273C77.9677 241.646 79.2149 241.115 79.952 240.787C80.1216 240.719 80.0202 240.451 79.8211 240.442C78.9485 240.405 77.4992 240.431 75.938 240.582C74.3827 240.742 72.7223 241.036 71.4978 241.453C69.9721 241.952 68.6598 242.604 67.7069 243.202C68.3858 242.239 69.0556 241.268 69.7647 240.327C70.6396 240.192 72.3984 238.491 74.2427 236.304C74.6491 235.816 75.0964 235.248 75.5346 234.617C75.9834 234 76.4526 233.353 76.9097 232.723C77.8133 231.447 78.7548 230.322 79.3693 229.635C79.5063 229.477 79.336 229.225 79.1438 229.314C78.2969 229.69 76.9074 230.407 75.5913 231.379C74.9185 231.85 74.2775 232.389 73.666 232.915C73.0825 233.46 72.5285 233.992 72.1055 234.503C70.3119 236.626 69.2856 238.768 69.2501 239.751C68.5182 240.709 67.8409 241.705 67.1416 242.686C67.377 241.604 67.5185 240.16 67.6161 238.567C67.6812 237.226 67.6191 235.472 67.5594 233.779C67.5087 232.093 67.4527 230.466 67.4519 229.463C67.4519 229.235 67.1393 229.199 67.0485 229.419C66.68 230.381 66.0987 231.947 65.6734 233.611C65.2216 235.271 64.9037 237.028 64.8371 238.387C64.6797 241.485 65.2049 244.029 65.8232 244.638C64.9597 245.969 64.0947 247.298 63.2796 248.658C63.4317 247.554 63.5105 246.118 63.4915 244.525C63.4567 243.182 63.2887 241.46 63.0677 239.792C62.8566 238.123 62.6568 236.548 62.5357 235.588C62.5092 235.368 62.2004 235.354 62.1369 235.571C61.598 237.485 60.6338 241.811 60.7118 244.509C60.7716 247.596 61.3997 250.093 62.0695 250.678C61.262 252.043 60.4878 253.425 59.7264 254.816C59.8452 253.716 59.8225 252.262 59.7325 250.683C59.538 248.036 58.5958 243.775 58.2408 241.873C58.1977 241.657 57.8912 241.66 57.8465 241.877C57.425 243.78 56.7598 248.126 56.958 250.804C57.1737 253.87 57.9237 256.34 58.6162 256.892C57.8647 258.287 57.1669 259.711 56.4555 261.127C56.5251 260.022 56.454 258.578 56.2784 257C55.9681 254.368 54.8238 250.171 54.3501 248.3C54.2956 248.088 53.9898 248.106 53.9558 248.322C53.818 249.277 53.6198 250.845 53.4987 252.499C53.4033 254.166 53.3473 255.902 53.5199 257.243C53.8657 260.285 54.7277 262.735 55.4406 263.251C54.7467 264.677 54.1261 266.137 53.4805 267.585C53.4919 266.479 53.3602 265.042 53.1059 263.465C52.9099 262.157 52.4505 260.459 52.001 258.865C51.5544 257.278 51.086 255.776 50.7946 254.859C50.728 254.65 50.4268 254.68 50.4056 254.899C50.2134 256.804 49.9039 261.174 50.3594 263.848C50.8355 266.887 51.8481 269.291 52.5776 269.762C51.9889 271.235 51.4099 272.713 50.8869 274.211C50.8097 273.098 50.6054 271.675 50.2656 270.113C49.972 268.802 49.4611 267.15 48.9117 265.56C48.3918 263.99 47.8597 262.499 47.5298 261.588C47.4548 261.379 47.1536 261.427 47.1423 261.649C47.0227 263.593 46.9251 268.005 47.5388 270.66C48.198 273.69 49.3461 276.016 50.1226 276.442C49.617 277.947 49.172 279.473 48.7543 281.006C48.5961 279.903 48.2805 278.495 47.8332 276.951C47.0848 274.397 45.3123 270.361 44.5918 268.565C44.5063 268.36 44.2066 268.426 44.2059 268.649C44.1673 270.603 44.3565 275.078 45.1519 277.705C46.0283 280.716 47.3686 282.944 48.1836 283.296C47.8249 284.843 47.5199 286.401 47.3292 287.995C47.3065 288.198 47.4601 288.382 47.6698 288.396C47.8779 288.409 48.0603 288.272 48.0815 288.078C48.2646 286.539 48.5658 284.996 48.92 283.471C49.7646 283.549 51.9699 282.2 54.2911 280.412C56.2784 278.843 59.0181 276.023 60.2562 274.826C60.3947 274.689 60.2085 274.46 60.0163 274.533C58.315 275.148 54.5113 276.799 52.4482 278.402C51.1851 279.378 50.143 280.414 49.4581 281.301C49.8811 279.751 50.3284 278.206 50.8408 276.681C51.6755 276.839 53.9898 275.676 56.4548 274.03C58.5557 272.585 61.517 269.9 62.8044 268.751C62.9497 268.619 62.7764 268.378 62.5811 268.442C61.7236 268.72 60.3137 269.202 58.8319 269.809C57.3849 270.423 55.8364 271.156 54.7671 271.882C53.4336 272.773 52.3105 273.73 51.5643 274.562C52.0948 273.043 52.6791 271.543 53.2769 270.049C54.1162 270.27 56.482 269.252 59.0589 267.74C61.2499 266.414 64.3588 263.855 65.7143 262.734C65.8671 262.606 65.7067 262.355 65.5069 262.412C64.6328 262.658 63.1964 263.087 61.6843 263.628C60.1798 264.167 58.6344 264.831 57.4976 265.489C56.1187 266.309 54.9472 267.201 54.1351 267.979C54.786 266.507 55.4179 265.025 56.1218 263.576C56.9376 263.838 59.3685 262.963 62.0188 261.553C63.1426 260.933 64.539 260.019 65.7831 259.112C67.0523 258.221 68.2042 257.356 68.8997 256.831C69.0601 256.713 68.9133 256.458 68.7097 256.503C66.938 256.889 62.8823 257.981 60.5725 259.223C59.1467 259.979 57.9442 260.82 57.0874 261.553C57.8117 260.113 58.5193 258.665 59.2829 257.247C60.0799 257.545 62.5629 256.773 65.2602 255.483C67.5912 254.359 70.8833 252.068 72.3378 251.135C72.5021 251.026 72.3666 250.764 72.1623 250.799C70.3724 251.069 66.2804 251.959 63.9214 253.098C62.4502 253.778 61.2279 254.575 60.3387 255.269C61.1137 253.857 61.8985 252.45 62.7188 251.064C63.4999 251.396 66.0231 250.743 68.771 249.599Z" fill="#8D1B3D"/>
<path d="M36.0108 331.822H46.522C54.8363 328.174 60.943 316.091 60.943 301.739C60.943 295.697 59.8577 290.058 57.9839 285.279H24.549C22.6751 290.058 21.5898 295.697 21.5898 301.739C21.5898 316.091 27.6965 328.173 36.0108 331.822Z" fill="#263238"/>
<path d="M456.577 252.546C456.458 251.918 456.214 251.254 455.928 250.547C455.634 249.849 455.314 249.093 454.926 248.405C454.152 247.03 453.297 245.734 452.695 245.006C452.561 244.835 452.291 244.973 452.346 245.182C452.459 245.638 452.609 246.238 452.779 246.921C452.934 247.608 453.081 248.387 453.236 249.161C453.564 250.696 453.784 252.338 454.067 253.504C454.245 254.225 454.413 254.905 454.566 255.525C454.727 256.141 454.894 256.68 455.064 257.127L453.571 255.77C453.074 255.317 452.524 254.925 452.003 254.5C452.222 254.141 452.328 253.342 452.226 252.303C452.106 251.288 451.825 249.962 451.259 248.611C451.012 248.032 450.671 247.388 450.27 246.719C449.862 246.059 449.365 245.413 448.864 244.771C447.844 243.519 446.71 242.407 445.958 241.782C445.789 241.636 445.544 241.82 445.642 242.018C445.854 242.454 446.135 243.018 446.428 243.665C446.702 244.316 447.008 245.044 447.322 245.792C447.887 247.262 448.479 248.8 448.924 249.955C449.21 250.656 449.492 251.297 449.764 251.861C450.016 252.452 450.26 252.968 450.494 253.391L449.272 252.557L447.998 251.803C447.962 251.604 447.835 251.365 447.631 251.098C447.418 250.847 447.122 250.575 446.759 250.291C446.042 249.709 445.012 249.155 443.823 248.72C442.765 248.345 441.314 248.107 439.943 248.097C438.573 248.073 437.301 248.245 436.56 248.427C436.389 248.471 436.407 248.776 436.554 248.819C437.257 249.021 438.395 249.443 439.554 249.939C440.722 250.421 441.907 251.011 442.866 251.346C444.856 252.071 446.659 252.54 447.511 252.395L448.775 253.142C449.19 253.401 449.586 253.691 449.992 253.964C449.524 253.91 448.99 253.88 448.407 253.901C447.813 253.944 447.177 254.028 446.529 254.158C445.992 254.256 445.367 254.466 444.736 254.725C444.103 254.99 443.478 255.262 442.874 255.625C442.274 255.972 441.72 256.332 441.247 256.664C440.771 257.011 440.374 257.346 440.082 257.594C439.95 257.708 439.95 257.981 440.082 257.944C440.66 257.766 441.646 257.548 442.784 257.33C443.368 257.228 443.97 257.122 444.549 257.019C445.136 256.935 445.719 256.837 446.247 256.717C447.444 256.453 448.588 256.224 449.551 255.932C450.501 255.661 451.217 255.403 451.538 255.096C452.039 255.504 452.565 255.882 453.046 256.313L454.481 257.617C454.022 257.495 453.488 257.393 452.906 257.323C452.328 257.247 451.695 257.21 451.012 257.252C449.88 257.305 448.444 257.577 447.117 258.049C446.458 258.274 445.843 258.507 445.301 258.748C444.754 259.003 444.291 259.242 443.947 259.428C443.791 259.514 443.745 259.784 443.887 259.776C444.523 259.714 445.556 259.727 446.753 259.713C447.352 259.705 447.956 259.753 448.574 259.752C449.199 259.748 449.798 259.745 450.33 259.742C451.544 259.72 452.772 259.608 453.742 259.504C454.71 259.4 455.474 259.23 455.834 258.979C456.756 259.888 457.572 260.893 458.401 261.889C457.514 261.535 456.367 261.166 455.011 261.035C453.864 260.936 452.406 260.967 451.009 261.211C449.61 261.452 448.37 261.77 447.614 262.021C447.441 262.08 447.356 262.338 447.504 262.353C448.163 262.458 449.247 262.631 450.407 262.817C451.565 263.071 452.931 263.264 453.992 263.42C455.218 263.573 456.431 263.655 457.436 263.657C458.416 263.686 459.194 263.613 459.581 263.408L460.737 264.972L461.812 266.592C460.982 266.135 459.866 265.659 458.517 265.363C457.394 265.116 455.924 264.935 454.485 264.994C453.061 265.026 451.763 265.163 450.978 265.278C450.794 265.312 450.682 265.551 450.823 265.601C451.447 265.811 452.499 266.155 453.699 266.512C454.864 266.938 456.171 267.379 457.267 267.626C458.476 267.929 459.672 268.152 460.669 268.262C461.67 268.369 462.426 268.39 462.838 268.22L463.822 269.897L464.725 271.618C463.947 271.076 462.883 270.49 461.577 270.058C460.503 269.683 459.036 269.402 457.599 269.278C456.174 269.142 454.87 269.109 454.031 269.137C453.844 269.142 453.702 269.38 453.848 269.444C454.499 269.719 455.492 270.224 456.663 270.73C457.806 271.248 459.024 271.826 460.095 272.177C461.265 272.598 462.43 272.941 463.412 273.155C464.368 273.379 465.143 273.471 465.565 273.35C466.126 274.518 466.599 275.725 467.071 276.93C466.353 276.307 465.345 275.61 464.117 275.034C463.07 274.554 461.667 274.111 460.25 273.843C458.85 273.563 457.556 273.404 456.724 273.35C456.538 273.337 456.371 273.558 456.509 273.635C457.125 273.969 458.055 274.564 459.165 275.18C460.204 275.82 461.424 276.491 462.39 276.973C464.674 278.031 466.816 278.887 467.706 278.745L468.268 280.603L468.748 282.483C468.119 281.772 467.21 280.959 466.053 280.246C465.117 279.637 463.692 279.062 462.373 278.627C461.011 278.199 459.713 277.915 458.934 277.764C458.753 277.731 458.561 277.931 458.682 278.023C459.199 278.429 460.158 279.084 461.117 279.828C462.121 280.559 463.167 281.372 464.111 281.95C466.217 283.258 468.26 284.376 469.132 284.364C469.366 285.628 469.534 286.915 469.588 288.183C469.596 288.344 469.764 288.462 469.974 288.466C470.183 288.471 470.352 288.325 470.344 288.157C470.287 286.828 470.116 285.526 469.877 284.233C470.697 284.003 472.251 282.128 473.301 279.425C473.738 278.277 474.097 276.69 474.27 275.173C474.487 273.637 474.482 272.201 474.508 271.293C474.512 271.088 474.216 271.05 474.131 271.241C473.754 272.07 473.134 273.428 472.484 274.857C471.803 276.28 471.137 277.715 470.682 278.843C470.159 280.225 469.721 281.463 469.504 282.398C469.352 281.743 469.176 281.094 469.011 280.443L468.426 278.514C468.815 278.34 469.319 277.749 469.831 276.844C470.355 275.934 470.841 274.726 471.201 273.338C471.539 272.131 471.641 270.568 471.689 269.028C471.675 267.53 471.606 266.054 471.49 265.19C471.466 264.991 471.168 264.988 471.105 265.185C470.849 266.041 470.352 267.479 469.863 268.941C469.395 270.396 468.821 271.935 468.542 273.083C468.177 274.517 467.903 275.794 467.807 276.749C467.324 275.496 466.832 274.246 466.251 273.035C466.617 272.816 467.059 272.165 467.474 271.203C467.863 270.256 468.215 269.001 468.441 267.577C468.596 266.379 468.598 264.776 468.455 263.273C468.29 261.791 468.075 260.34 467.876 259.498C467.832 259.304 467.536 259.334 467.495 259.535C467.326 260.406 466.973 261.884 466.637 263.384C466.318 264.878 465.931 266.451 465.76 267.634C465.576 269.084 465.423 270.395 465.439 271.353L464.505 269.569L463.487 267.833C463.82 267.58 464.212 266.869 464.499 265.886C464.788 264.903 465.009 263.619 465.09 262.185C465.13 260.974 464.949 259.412 464.687 257.915C464.35 256.434 463.929 255.016 463.652 254.15C463.592 253.951 463.286 254.015 463.276 254.221C463.182 255.134 463.03 256.629 462.869 258.201C462.738 259.731 462.46 261.341 462.431 262.524C462.398 263.978 462.377 265.302 462.494 266.253L461.384 264.575L460.188 262.957C460.5 262.667 460.797 261.937 461.01 260.912C461.194 259.904 461.264 258.603 461.173 257.156C461.118 255.897 460.663 254.374 460.192 252.872C459.667 251.412 459.011 250.054 458.603 249.217C458.5 249.034 458.212 249.13 458.231 249.342C458.307 250.272 458.361 251.821 458.425 253.373C458.494 254.928 458.446 256.586 458.569 257.762C458.706 259.23 458.814 260.558 459.044 261.482C458.183 260.45 457.34 259.404 456.381 258.459C456.655 258.133 456.859 257.374 456.932 256.322C457.007 255.27 456.873 253.987 456.577 252.546Z" fill="#8D1B3D"/>
<path d="M485.361 220.833C486.478 219.458 487.97 217.579 489.293 215.789C490.646 214.024 491.931 212.348 492.716 211.326C492.902 211.098 492.756 210.79 492.529 210.93C491.539 211.545 489.98 212.624 488.292 213.897C486.633 215.176 484.976 216.696 483.722 218.054C482.271 219.758 481.03 221.502 480.181 222.954L481.208 219.321L481.732 217.506L482.334 215.717C483.199 215.823 485.807 213.663 488.816 210.783C491.404 208.27 495.246 203.805 497.065 201.995C497.264 201.782 497.142 201.46 496.907 201.58C495.888 202.112 494.156 203.004 492.415 204.145C491.54 204.712 490.61 205.314 489.775 205.952C488.941 206.59 488.152 207.242 487.48 207.866C486.635 208.63 485.891 209.427 485.227 210.201C484.558 210.973 483.964 211.719 483.47 212.4C484.151 210.686 484.754 208.941 485.499 207.253C485.975 206.921 486.688 205.924 487.498 204.492C488.378 203.091 489.294 201.225 490.341 199.218C490.789 198.319 491.256 197.269 491.767 196.179C492.012 195.627 492.261 195.063 492.512 194.497C492.768 193.934 493.027 193.369 493.281 192.813C494.287 190.579 495.263 188.486 495.91 187.237C496.057 186.952 495.811 186.773 495.586 187.015C494.612 188.062 493.112 189.858 491.643 191.884C491.281 192.394 490.913 192.913 490.547 193.429C490.203 193.96 489.861 194.49 489.526 195.007C488.854 196.044 488.286 197.076 487.826 197.995C486.834 199.899 486.146 201.766 485.614 203.281C485.132 204.818 484.892 206.044 484.897 206.736L484.339 208.034L483.831 209.351L482.816 211.987C482.899 211.165 482.955 210.231 482.982 209.216C482.995 208.199 483.008 207.112 483.022 205.986C483.025 205.043 482.975 203.979 482.897 202.865C482.824 201.755 482.749 200.605 482.676 199.494C482.485 197.249 482.369 195.17 482.268 193.885C482.247 193.593 481.898 193.708 481.82 194.034C481.655 194.746 481.437 195.686 481.189 196.755C480.982 197.834 480.763 199.038 480.56 200.267C480.339 201.487 480.23 202.774 480.111 203.965C480.006 205.161 479.924 206.275 479.965 207.247C480.028 211.636 480.882 214.959 481.617 215.473L481.024 217.237C480.838 217.829 480.679 218.429 480.505 219.025L479.485 222.606C479.502 220.958 479.362 218.868 479.107 216.607C478.966 214.742 478.526 212.381 478.164 210.17C477.794 207.943 477.45 205.875 477.241 204.622C477.197 204.335 476.857 204.48 476.802 204.809C476.618 206.275 476.284 208.644 476.137 211.143C476.014 213.654 475.945 216.238 476.21 218.169C476.462 220.356 476.82 222.243 477.318 223.662C477.785 225.071 478.261 225.979 478.655 226.2L478.236 228.014L477.915 229.848L477.28 233.519C477.122 231.879 476.767 229.815 476.264 227.586C475.93 225.741 475.298 223.442 474.675 221.257C474.134 219.102 473.581 217.06 473.241 215.81C473.163 215.526 472.845 215.706 472.831 216.044C472.655 219 472.622 225.67 473.555 229.449C474.445 233.757 476.047 236.841 476.855 237.183C476.509 239.646 476.471 242.134 476.344 244.614C476.163 243.808 475.921 242.903 475.626 241.929C475.479 241.442 475.319 240.937 475.146 240.419C474.964 239.9 474.793 239.369 474.642 238.832C474.106 237.034 473.188 234.807 472.355 232.696C471.589 230.604 470.825 228.619 470.356 227.405C470.249 227.128 469.952 227.342 469.973 227.681C470.026 228.42 470.098 229.394 470.178 230.503C470.274 231.606 470.354 232.824 470.586 234.084C470.789 235.339 471.017 236.609 471.262 237.792C471.389 238.384 471.504 238.952 471.651 239.49C471.814 240.03 471.978 240.536 472.142 240.995C472.893 243.091 473.675 244.867 474.409 246.128C475.175 247.379 475.84 248.163 476.272 248.295C476.25 250.771 476.285 253.248 476.325 255.724C475.849 254.136 475.148 252.179 474.246 250.129C473.879 249.27 473.416 248.326 472.908 247.356C472.648 246.873 472.383 246.382 472.118 245.89C471.862 245.383 471.606 244.876 471.355 244.378C470.295 242.348 469.311 240.463 468.715 239.321C468.575 239.056 468.306 239.304 468.37 239.642C468.649 241.118 469.118 243.531 469.708 245.964C470.384 248.293 471.146 250.701 471.917 252.425C473.636 256.358 475.546 259.167 476.415 259.399C476.491 261.875 476.595 264.349 476.719 266.821C476.213 265.25 475.407 263.319 474.462 261.301C472.838 257.935 469.756 253.182 468.401 251.087C468.246 250.849 467.992 251.103 468.075 251.414C468.769 254.149 470.568 260.292 472.203 263.674C474.059 267.543 476.056 270.289 476.931 270.493C477.093 272.964 477.267 275.435 477.48 277.902C476.908 276.348 476.059 274.443 475.04 272.457C473.314 269.146 470.064 264.501 468.648 262.457C468.486 262.225 468.24 262.487 468.33 262.794C469.125 265.498 471.109 271.573 472.861 274.903C474.836 278.71 476.927 281.391 477.812 281.566C478.052 284.025 478.315 286.481 478.631 288.935C478.671 289.245 478.874 289.474 479.081 289.445C479.288 289.415 479.421 289.145 479.382 288.837C479.067 286.398 478.805 283.949 478.566 281.5C479.395 281.248 480.937 278.206 482.365 274.19C483.576 270.72 484.911 264.727 485.514 262.118C485.583 261.82 485.319 261.59 485.174 261.821C483.9 263.846 481.099 268.638 479.866 272.128C479.091 274.277 478.538 276.35 478.248 278.002C478.029 275.488 477.852 272.971 477.686 270.454C478.527 270.232 480.173 267.24 481.724 263.27C483.055 259.84 484.571 253.9 485.271 251.318C485.347 251.023 485.089 250.785 484.939 251.011C483.607 252.988 480.635 257.679 479.296 261.129C478.444 263.252 477.844 265.305 477.485 266.947C477.355 264.428 477.251 261.907 477.172 259.385C478.018 259.191 479.757 256.252 481.448 252.342C482.16 250.655 482.966 248.337 483.661 246.129C484.44 244.028 485.125 242.096 485.521 240.917C485.612 240.649 485.367 240.405 485.205 240.604C484.496 241.475 483.336 242.954 482.144 244.675C481.846 245.105 481.545 245.548 481.251 246.001C480.976 246.469 480.706 246.942 480.447 247.412C479.929 248.35 479.458 249.275 479.084 250.121C478.186 252.213 477.476 254.244 477.087 255.873C477.043 253.351 477.008 250.828 477.03 248.305C477.454 248.223 478.13 247.462 478.917 246.242C479.73 245.031 480.716 243.416 481.654 241.595C481.857 241.203 482.064 240.775 482.273 240.323C482.503 239.871 482.745 239.395 482.993 238.906C483.48 237.927 483.965 236.896 484.42 235.895C484.846 234.891 485.371 233.929 485.795 233.072C486.215 232.22 486.585 231.47 486.865 230.9C486.99 230.642 486.777 230.371 486.591 230.552C485.774 231.343 484.433 232.689 483.031 234.264C481.699 235.841 480.392 237.663 479.459 239.252C479.161 239.741 478.912 240.233 478.696 240.72C478.471 241.207 478.26 241.688 478.064 242.158C477.674 243.098 477.346 243.993 477.092 244.795C477.224 242.283 477.254 239.763 477.606 237.268C478.494 237.19 480.52 234.526 482.935 231.136C484.879 228.161 487.922 223.128 489.296 221.002C489.448 220.757 489.266 220.463 489.061 220.625C488.162 221.334 486.681 222.541 485.119 223.966C483.644 225.404 482.107 227.07 481.003 228.547C479.749 230.389 478.707 232.255 478 233.786L478.644 230.066L478.966 228.207L479.39 226.367C479.823 226.377 480.651 225.78 481.683 224.784C482.683 223.781 484.012 222.411 485.361 220.833Z" fill="#8D1B3D"/>
<path d="M505.126 249.599C507.494 248.585 510.909 246.546 512.377 245.718C512.547 245.625 512.427 245.359 512.222 245.376C511.329 245.457 509.866 245.639 508.3 245.929C506.76 246.242 505.096 246.646 503.907 247.153C502.416 247.761 501.128 248.477 500.226 249.14C501.055 247.759 501.93 246.407 502.807 245.058C503.584 245.445 506.114 244.904 508.923 243.961C510.131 243.553 511.603 242.875 512.967 242.273C514.322 241.645 515.57 241.115 516.307 240.787C516.476 240.719 516.375 240.45 516.176 240.442C515.303 240.405 513.854 240.431 512.293 240.582C510.737 240.742 509.077 241.036 507.853 241.453C506.327 241.952 505.014 242.604 504.062 243.201C504.741 242.239 505.41 241.268 506.119 240.327C506.994 240.192 508.753 238.49 510.597 236.304C511.004 235.816 511.451 235.247 511.889 234.617C512.338 233.999 512.808 233.352 513.264 232.723C514.168 231.447 515.11 230.321 515.724 229.635C515.861 229.477 515.691 229.225 515.498 229.314C514.652 229.69 513.262 230.407 511.946 231.379C511.273 231.85 510.632 232.389 510.021 232.915C509.437 233.46 508.883 233.992 508.46 234.503C506.667 236.626 505.64 238.767 505.605 239.751C504.873 240.709 504.196 241.705 503.496 242.685C503.732 241.604 503.873 240.16 503.971 238.567C504.036 237.226 503.974 235.471 503.914 233.779C503.863 232.092 503.807 230.466 503.807 229.463C503.807 229.235 503.494 229.199 503.403 229.419C503.035 230.38 502.453 231.947 502.028 233.61C501.577 235.271 501.258 237.028 501.192 238.387C501.034 241.485 501.56 244.029 502.178 244.638C501.314 245.968 500.449 247.298 499.634 248.658C499.786 247.554 499.865 246.118 499.847 244.524C499.811 243.182 499.644 241.459 499.423 239.791C499.212 238.123 499.012 236.548 498.891 235.588C498.865 235.368 498.556 235.353 498.492 235.571C497.954 237.485 496.989 241.811 497.067 244.509C497.126 247.595 497.754 250.093 498.425 250.678C497.617 252.042 496.843 253.425 496.081 254.815C496.201 253.716 496.177 252.262 496.087 250.682C495.893 248.036 494.95 243.774 494.596 241.872C494.552 241.657 494.246 241.66 494.201 241.877C493.78 243.78 493.114 248.126 493.314 250.804C493.529 253.869 494.279 256.34 494.972 256.891C494.22 258.287 493.523 259.71 492.811 261.126C492.881 260.022 492.809 258.578 492.633 257C492.323 254.368 491.179 250.171 490.705 248.3C490.65 248.088 490.345 248.106 490.311 248.322C490.173 249.277 489.974 250.844 489.853 252.499C489.758 254.165 489.702 255.901 489.875 257.243C490.22 260.285 491.082 262.735 491.795 263.251C491.101 264.677 490.481 266.136 489.836 267.585C489.847 266.479 489.716 265.041 489.461 263.465C489.265 262.157 488.806 260.459 488.356 258.865C487.91 257.278 487.441 255.776 487.15 254.859C487.084 254.65 486.782 254.68 486.761 254.899C486.569 256.804 486.259 261.173 486.715 263.848C487.191 266.887 488.204 269.291 488.933 269.762C488.344 271.234 487.765 272.712 487.242 274.211C487.165 273.098 486.961 271.675 486.621 270.113C486.327 268.802 485.817 267.15 485.267 265.56C484.747 263.989 484.215 262.499 483.885 261.587C483.81 261.379 483.509 261.427 483.498 261.649C483.378 263.593 483.281 268.005 483.894 270.66C484.554 273.689 485.702 276.016 486.478 276.442C485.973 277.947 485.528 279.473 485.11 281.005C484.952 279.903 484.636 278.495 484.189 276.951C483.44 274.397 481.668 270.361 480.947 268.564C480.862 268.36 480.562 268.426 480.561 268.649C480.523 270.602 480.712 275.078 481.507 277.705C482.384 280.716 483.724 282.944 484.539 283.296C484.18 284.843 483.875 286.401 483.685 287.995C483.663 288.197 483.816 288.382 484.026 288.396C484.234 288.408 484.417 288.272 484.438 288.078C484.621 286.538 484.922 284.995 485.276 283.47C486.121 283.549 488.327 282.2 490.647 280.411C492.635 278.843 495.374 276.023 496.612 274.826C496.751 274.688 496.565 274.46 496.373 274.532C494.671 275.148 490.868 276.799 488.804 278.402C487.541 279.377 486.499 280.414 485.814 281.301C486.237 279.751 486.685 278.206 487.197 276.681C488.032 276.839 490.346 275.676 492.811 274.03C494.912 272.584 497.873 269.9 499.161 268.751C499.306 268.619 499.133 268.378 498.937 268.442C498.08 268.719 496.67 269.202 495.188 269.809C493.741 270.423 492.193 271.156 491.124 271.881C489.791 272.773 488.668 273.729 487.921 274.562C488.452 273.043 489.036 271.543 489.634 270.049C490.473 270.27 492.839 269.252 495.416 267.74C497.607 266.413 500.716 263.855 502.071 262.734C502.224 262.606 502.064 262.355 501.865 262.411C500.991 262.658 499.554 263.087 498.042 263.628C496.538 264.166 494.992 264.831 493.855 265.489C492.477 266.309 491.304 267.201 490.493 267.979C491.144 266.507 491.776 265.025 492.48 263.576C493.295 263.837 495.726 262.963 498.377 261.552C499.5 260.933 500.897 260.018 502.141 259.112C503.41 258.22 504.562 257.356 505.257 256.831C505.418 256.713 505.271 256.458 505.067 256.502C503.296 256.888 499.24 257.98 496.93 259.223C495.504 259.979 494.302 260.82 493.445 261.552C494.169 260.113 494.877 258.665 495.641 257.247C496.438 257.544 498.92 256.772 501.618 255.483C503.949 254.358 507.241 252.067 508.696 251.135C508.86 251.026 508.724 250.764 508.52 250.798C506.73 251.069 502.638 251.959 500.28 253.097C498.809 253.778 497.586 254.575 496.697 255.269C497.472 253.857 498.257 252.45 499.077 251.064C499.855 251.396 502.378 250.742 505.126 249.599Z" fill="#8D1B3D"/>
<path d="M472.363 331.822H482.874C491.189 328.174 497.295 316.091 497.295 301.739C497.295 295.697 496.21 290.058 494.336 285.279H460.9C459.027 290.058 457.941 295.697 457.941 301.739C457.942 316.091 464.049 328.173 472.363 331.822Z" fill="#263238"/>
<path d="M264.903 75.9099C279.659 75.9099 291.621 63.948 291.621 49.1924C291.621 34.4367 279.659 22.4749 264.903 22.4749C250.147 22.4749 238.186 34.4367 238.186 49.1924C238.186 63.948 250.147 75.9099 264.903 75.9099Z" fill="#263238" stroke="#263238" stroke-miterlimit="10"/>
<path d="M264.903 72.8828C277.987 72.8828 288.593 62.2763 288.593 49.1925C288.593 36.1087 277.987 25.5022 264.903 25.5022C251.819 25.5022 241.213 36.1087 241.213 49.1925C241.213 62.2763 251.819 72.8828 264.903 72.8828Z" fill="white" stroke="#263238" stroke-miterlimit="10"/>
<path d="M264.904 51.6921C266.285 51.6921 267.404 50.5729 267.404 49.1924C267.404 47.8118 266.285 46.6926 264.904 46.6926C263.523 46.6926 262.404 47.8118 262.404 49.1924C262.404 50.5729 263.523 51.6921 264.904 51.6921Z" fill="#263238" stroke="#263238" stroke-miterlimit="10"/>
<path d="M276.558 49.1925H264.902L272.607 30.7915" stroke="#263238" stroke-miterlimit="10" stroke-linecap="round"/>
<path d="M7.58984 331.822H509.352" stroke="#263238" stroke-miterlimit="10" stroke-linecap="round"/>
<path d="M485.054 241.803L482.279 260.218L485.811 329.592" stroke="#263238" stroke-width="4" stroke-miterlimit="10" stroke-linecap="round"/>
<path d="M450.769 241.803L447.994 260.218L451.526 329.592" stroke="#263238" stroke-width="4" stroke-miterlimit="10" stroke-linecap="round"/>
<path d="M437.376 259.461L434.096 330.349" stroke="#263238" stroke-width="4" stroke-miterlimit="10" stroke-linecap="round"/>
<path d="M407.102 259.461L403.822 330.349" stroke="#263238" stroke-width="4" stroke-miterlimit="10" stroke-linecap="round"/>
<path d="M450.276 246.217H484.332C486.143 246.217 487.781 244.749 487.989 242.938L492.461 204.089C492.67 202.278 491.37 200.81 489.559 200.81H455.502C453.691 200.81 452.054 202.278 451.845 204.089L447.373 242.938C447.165 244.749 448.465 246.217 450.276 246.217Z" fill="#8D1B3D" stroke="#263238" stroke-miterlimit="10" stroke-linecap="round"/>
<path d="M405.652 261.48H482.09C483.657 261.48 484.928 260.209 484.928 258.642C484.928 257.074 483.657 255.804 482.09 255.804H405.652C404.085 255.804 402.814 257.074 402.814 258.642C402.814 260.209 404.085 261.48 405.652 261.48Z" fill="#8D1B3D" stroke="#263238" stroke-miterlimit="10" stroke-linecap="round"/>
<path d="M437.987 172.159C437.987 172.159 435.064 174.107 432.921 179.758C430.778 185.408 426.492 215.996 426.492 217.749C426.492 219.503 430.973 220.477 432.727 218.723C434.48 216.97 438.767 202.357 438.767 202.357L440.52 172.938C440.52 172.938 439.935 171.574 437.987 172.159Z" fill="white" stroke="#263238" stroke-miterlimit="10" stroke-linecap="round"/>
<path d="M437.986 172.159C437.986 172.159 435.064 174.107 432.921 179.758C432.279 181.452 431.442 185.397 430.588 190.128L439.173 195.53L440.519 172.939C440.519 172.939 439.935 171.574 437.986 172.159Z" fill="white" stroke="#263238" stroke-miterlimit="10" stroke-linecap="round"/>
<path d="M452.601 167.873C452.601 167.873 443.444 170.016 439.742 171.185C436.04 172.354 436.625 176.25 435.261 182.095C433.897 187.94 431.949 194.564 433.118 197.876C434.287 201.187 437.988 207.033 438.183 207.812C438.377 208.591 432.533 230.411 432.533 230.411C432.533 230.411 395.906 248.142 395.126 251.649C394.347 255.156 389.1 316.968 389.1 316.968C390.157 318.734 397.678 324.994 397.014 322.973C396.821 322.388 399.997 300.94 403.698 291.394C407.4 281.848 410.712 269.963 412.271 264.313C413.83 258.663 414.219 257.299 414.219 257.299L458.445 257.883C458.445 257.883 473.057 259.831 474.811 247.558C476.564 235.284 472.863 230.607 471.304 227.88C469.745 225.152 464.29 206.644 464.29 206.644C464.29 206.644 471.498 192.032 472.472 187.161C473.446 182.291 474.616 176.446 472.083 173.913C469.55 171.38 459.613 168.263 459.613 168.263L452.601 167.873Z" fill="#8D1B3D" stroke="#333333" stroke-miterlimit="10" stroke-linecap="round"/>
<path d="M470.609 226.322C468.541 221.066 464.29 206.644 464.29 206.644C464.29 206.644 471.498 192.032 472.472 187.161C473.446 182.291 474.616 176.446 472.083 173.913C469.549 171.38 459.613 168.263 459.613 168.263L452.599 167.873C452.599 167.873 443.443 170.016 439.74 171.185C436.039 172.354 436.623 176.25 435.259 182.095C433.896 187.94 431.948 194.564 433.116 197.876C434.285 201.187 437.987 207.033 438.181 207.812C438.322 208.376 435.299 219.963 433.619 226.32C439.595 226.322 461.982 226.322 470.609 226.322Z" fill="white" stroke="#263238" stroke-miterlimit="10" stroke-linecap="round"/>
<path d="M389.099 316.968C389.099 316.968 382.723 322.816 382.072 323.08C381.422 323.343 367.8 326.706 368.788 327.705C369.775 328.704 396.076 333.322 396.076 333.322L397.013 322.973L389.099 316.968Z" fill="white" stroke="#263238" stroke-miterlimit="10" stroke-linecap="round"/>
<path d="M464.681 188.33L467.604 212.099L444.614 237.427L436.822 241.518L435.652 244.83C435.652 244.83 443.64 243.076 445.588 241.908C447.536 240.739 450.654 238.011 450.654 238.011L476.566 219.503C476.566 219.503 476.371 184.434 476.176 180.147C475.981 175.861 470.136 172.354 467.798 172.354" fill="white"/>
<path d="M464.681 188.33L467.604 212.099L444.614 237.427L436.822 241.518L435.652 244.83C435.652 244.83 443.64 243.076 445.588 241.908C447.536 240.739 450.654 238.011 450.654 238.011L476.566 219.503C476.566 219.503 476.371 184.434 476.176 180.147C475.981 175.861 470.136 172.354 467.798 172.354" stroke="#263238" stroke-miterlimit="10" stroke-linecap="round"/>
<path d="M467.604 212.099L444.614 237.426L436.822 241.517L435.652 244.829C435.652 244.829 443.64 243.076 445.588 241.906C447.536 240.738 450.654 238.01 450.654 238.01L476.566 219.501C476.566 219.501 476.478 203.739 476.362 192.058L465.526 195.204L467.604 212.099Z" fill="white" stroke="#263238" stroke-miterlimit="10" stroke-linecap="round"/>
<path d="M427.079 212.683C427.079 212.683 426.299 218.918 426.494 220.476C426.689 222.034 435.456 238.595 435.651 239.569C435.846 240.543 440.716 243.661 441.106 244.245C441.496 244.829 446.756 246.193 446.756 246.193C446.756 246.193 448.12 243.855 446.951 241.712C445.782 239.569 438.574 237.425 438.574 237.425L434.482 216.189V213.072" fill="white"/>
<path d="M427.079 212.683C427.079 212.683 426.299 218.918 426.494 220.476C426.689 222.034 435.456 238.595 435.651 239.569C435.846 240.543 440.716 243.661 441.106 244.245C441.496 244.829 446.756 246.193 446.756 246.193C446.756 246.193 448.12 243.855 446.951 241.712C445.782 239.569 438.574 237.425 438.574 237.425L434.482 216.189V213.072" stroke="#263238" stroke-miterlimit="10" stroke-linecap="round"/>
<path d="M467.602 236.647C467.602 236.647 462.731 234.894 454.159 236.258C445.586 237.621 425.714 249.506 426.103 251.454C426.493 253.402 441.494 318.475 441.494 318.475L450.262 323.541C450.262 323.541 448.704 298.213 448.898 284.965C449.094 271.716 448.898 256.715 448.898 256.715C448.898 256.715 462.731 260.416 468.966 257.299C475.2 254.182 475.59 248.142 474.811 243.466C474.031 238.791 472.277 237.816 472.277 237.816" fill="#8D1B3D"/>
<path d="M467.602 236.647C467.602 236.647 462.731 234.894 454.159 236.258C445.586 237.621 425.714 249.506 426.103 251.454C426.493 253.402 441.494 318.475 441.494 318.475L450.262 323.541C450.262 323.541 448.704 298.213 448.898 284.965C449.094 271.716 448.898 256.715 448.898 256.715C448.898 256.715 462.731 260.416 468.966 257.299C475.2 254.182 475.59 248.142 474.811 243.466C474.031 238.791 472.277 237.816 472.277 237.816" stroke="#333333" stroke-miterlimit="10" stroke-linecap="round"/>
<path d="M441.495 318.476C441.495 318.476 436.43 325.49 435.845 325.879C435.26 326.269 422.596 332.308 423.766 333.088C424.935 333.867 451.626 333.088 451.626 333.088L450.457 322.762L441.495 318.476Z" fill="white" stroke="#263238" stroke-miterlimit="10" stroke-linecap="round"/>
<path d="M446.006 140.461C446.006 140.461 441.595 135.873 444.595 131.99C447.595 128.109 456.594 125.109 466.828 129.52C477.063 133.932 477.063 144.166 476.71 150.342C476.357 156.518 473.181 165.87 473.181 165.87C473.181 165.87 464.888 166.223 456.064 165.341C447.241 164.459 441.242 159.518 441.242 159.518C441.242 159.518 445.124 143.108 446.006 140.461Z" fill="#263238" stroke="#263238" stroke-miterlimit="10" stroke-linecap="round"/>
<path d="M450.771 162.518C450.771 162.518 450.418 166.753 449.888 169.399C449.359 172.046 449.006 181.045 449.712 181.751C450.418 182.457 454.123 180.516 456.947 176.281C459.771 172.046 460.3 168.693 460.3 168.693L462.064 162.164C462.064 162.164 454.3 164.283 450.771 162.518Z" fill="white" stroke="#263238" stroke-miterlimit="10" stroke-linecap="round"/>
<path d="M461.877 162.859L460.656 162.499C458.253 163.014 453.368 163.816 450.771 162.518C450.771 162.518 450.559 165.051 450.219 167.423C451.199 167.541 452.512 167.46 454.266 166.924C458.375 165.668 460.927 163.869 461.785 163.197L461.877 162.859Z" fill="#263238" stroke="#263238" stroke-miterlimit="10" stroke-linecap="round"/>
<path d="M447.419 141.519C447.419 141.519 445.035 152.118 446.093 156.176C447.152 160.235 448.725 165.746 454.019 165.746C459.312 165.746 464.324 161.419 465.383 158.42C466.442 155.42 467.711 146.107 467.711 146.107C467.711 146.107 454.125 147.872 447.419 141.519Z" fill="white" stroke="#263238" stroke-miterlimit="10" stroke-linecap="round"/>
<path d="M456.984 150.537C456.984 150.537 457.962 149.07 461.515 150.243" stroke="#263238" stroke-miterlimit="10" stroke-linecap="round"/>
<path d="M451.02 148.777C451.02 148.777 450.096 146.029 447.877 146.029" stroke="#263238" stroke-miterlimit="10" stroke-linecap="round"/>
<path d="M449.651 147.344C449.651 147.957 449.404 148.034 449.118 148.002C448.832 147.97 448.615 147.841 448.615 147.228C448.615 146.615 448.847 146.144 449.133 146.176C449.42 146.208 449.651 146.731 449.651 147.344Z" fill="#263238"/>
<path d="M458.719 150.625C458.601 151.258 458.414 151.269 458.118 151.269C457.823 151.269 457.532 151.258 457.65 150.625C457.768 149.993 458.103 149.479 458.398 149.479C458.694 149.479 458.837 149.992 458.719 150.625Z" fill="#263238"/>
<path d="M452.353 148.327C452.353 148.327 452.429 149.768 451.898 150.753C451.368 151.738 449.7 153.103 450.079 153.633C450.458 154.164 450.913 155.074 452.656 154.998" stroke="#263238" stroke-miterlimit="10" stroke-linecap="round"/>
<path d="M449.625 156.665C449.625 156.665 451.671 158.18 455.385 157.499" stroke="#263238" stroke-miterlimit="10" stroke-linecap="round"/>
<path d="M448.035 144.235C448.035 144.235 449.93 143.25 451.673 145.22" stroke="#263238" stroke-miterlimit="10" stroke-linecap="round"/>
<path d="M456.523 146.887C456.523 146.887 459.48 145.22 462.511 148.024" stroke="#263238" stroke-miterlimit="10" stroke-linecap="round"/>
<path d="M300.133 330.695L302.931 257.961" stroke="#263238" stroke-width="4" stroke-miterlimit="10" stroke-linecap="round"/>
<path d="M304.562 330.695L308.292 239.078" stroke="#263238" stroke-width="4" stroke-miterlimit="10" stroke-linecap="round"/>
<path d="M356.314 330.695L352.352 240.011" stroke="#263238" stroke-width="4" stroke-miterlimit="10" stroke-linecap="round"/>
<path d="M360.28 330.695L357.482 257.961" stroke="#263238" stroke-width="4" stroke-miterlimit="10" stroke-linecap="round"/>
<path d="M351.545 247.1H308.408C306.527 247.1 305.002 245.575 305.002 243.694V205.475C305.002 203.595 306.527 202.07 308.408 202.07H351.545C353.426 202.07 354.951 203.595 354.951 205.475V243.694C354.951 245.575 353.427 247.1 351.545 247.1Z" fill="#8D1B3D" stroke="#263238" stroke-miterlimit="10" stroke-linecap="round"/>
<path d="M360.531 261.479H301.818C300.251 261.479 298.98 260.208 298.98 258.641C298.98 257.074 300.251 255.803 301.818 255.803H360.531C362.099 255.803 363.369 257.074 363.369 258.641C363.369 260.208 362.099 261.479 360.531 261.479Z" fill="#8D1B3D" stroke="#263238" stroke-miterlimit="10" stroke-linecap="round"/>
<path d="M309.248 228.523C309.248 228.523 305.454 235.512 304.056 237.908C302.658 240.304 301.26 249.29 303.058 251.886C304.855 254.482 306.253 255.48 307.851 256.08C309.448 256.679 351.184 256.08 351.184 256.08C351.184 256.08 355.777 249.689 356.176 246.694C356.575 243.699 355.377 236.51 354.179 234.114C352.981 231.718 349.585 227.724 349.585 227.724L309.248 228.523Z" fill="white" stroke="#263238" stroke-miterlimit="10" stroke-linecap="round"/>
<path d="M367.159 195.973L383.534 172.011C383.534 172.011 384.931 165.82 385.131 164.023C385.331 162.226 386.329 161.228 387.727 160.23C389.125 159.231 390.922 157.833 391.721 156.834C392.52 155.836 393.119 157.034 392.719 158.432C392.319 159.83 390.922 160.429 390.323 160.828C389.724 161.228 389.325 162.825 389.325 162.825C389.325 162.825 396.314 160.23 397.712 159.43C399.109 158.631 402.105 154.239 402.305 156.435C402.504 158.631 399.709 165.421 399.109 165.82C398.51 166.22 387.927 173.807 387.927 173.807C387.927 173.807 376.345 204.759 375.147 207.356C373.949 209.952 372.351 211.949 371.752 211.949C371.152 211.949 359.371 204.36 359.371 204.36L366.96 195.174L367.159 195.973Z" fill="white" stroke="#263238" stroke-miterlimit="10" stroke-linecap="round"/>
<path d="M289.08 195.973L272.705 172.011C272.705 172.011 271.307 165.82 271.107 164.023C270.908 162.226 269.909 161.228 268.512 160.23C267.114 159.231 265.316 157.833 264.518 156.834C263.72 155.836 263.12 157.034 263.52 158.432C263.919 159.83 265.317 160.429 265.916 160.828C266.515 161.228 266.914 162.825 266.914 162.825C266.914 162.825 259.925 160.23 258.527 159.43C257.129 158.631 254.134 154.239 253.934 156.435C253.734 158.631 256.53 165.421 257.129 165.82C257.729 166.22 268.312 173.807 268.312 173.807C268.312 173.807 279.894 204.759 281.092 207.356C282.29 209.952 283.888 211.949 284.487 211.949C285.086 211.949 296.868 204.36 296.868 204.36L289.279 195.174L289.08 195.973Z" fill="white" stroke="#263238" stroke-miterlimit="10" stroke-linecap="round"/>
<path d="M322.429 169.215L304.856 174.008L289.08 195.375L296.269 208.554L307.452 198.969L310.047 223.731L308.25 230.521C308.25 230.521 307.651 231.12 318.834 233.316C330.016 235.512 333.212 234.714 338.803 233.916C344.394 233.117 351.583 230.521 351.583 230.521L349.586 221.934L352.981 200.367L361.967 210.152L368.158 194.776L355.178 174.008L335.808 169.216L322.429 169.215Z" fill="#8D1B3D" stroke="#333333" stroke-miterlimit="10" stroke-linecap="round"/>
<path d="M318.01 144.59C318.01 144.59 315.717 141.194 314.564 144.651C313.41 148.108 318.402 152.335 318.402 152.335L318.737 145.11" fill="white"/>
<path d="M318.01 144.59C318.01 144.59 315.717 141.194 314.564 144.651C313.41 148.108 318.402 152.335 318.402 152.335L318.737 145.11" stroke="#263238" stroke-miterlimit="10" stroke-linecap="round"/>
<path d="M324.025 166.419L322.228 168.017L319.832 172.011L320.431 186.189L331.414 178.8L340.999 186.189C340.999 186.189 339.601 170.013 339.601 169.015C339.601 168.017 337.405 166.419 336.006 165.62C334.609 164.822 324.025 166.419 324.025 166.419Z" fill="white" stroke="#263238" stroke-miterlimit="10" stroke-linecap="round"/>
<path d="M323.428 164.222C323.428 164.222 323.628 169.414 323.827 170.413C324.027 171.411 331.416 181.795 331.416 181.795L336.607 169.614L337.007 157.833L323.428 164.222Z" fill="white" stroke="#263238" stroke-miterlimit="10" stroke-linecap="round"/>
<path d="M323.652 168.624C324.519 168.734 325.531 168.71 326.718 168.443C331.9 167.273 334.743 162.424 334.743 162.424L328.591 161.793L323.428 164.222C323.428 164.222 323.525 166.756 323.652 168.624Z" fill="#263238" stroke="#263238" stroke-miterlimit="10" stroke-linecap="round"/>
<path d="M317.338 138.62C317.338 138.62 318.048 157.13 318.556 159.031C319.063 160.93 323.121 167.234 327.647 166.737C332.174 166.241 336.774 162.723 337.242 159.764C337.71 156.806 338.886 148.096 339.645 144.577C340.405 141.058 343.427 137.291 336.898 133.831C330.369 130.372 317.423 132.973 317.338 138.62Z" fill="white" stroke="#263238" stroke-miterlimit="10" stroke-linecap="round"/>
<path d="M321.889 148.155C321.845 148.939 321.452 149.554 321.011 149.529C320.57 149.504 320.249 148.849 320.293 148.065C320.338 147.282 320.731 146.667 321.172 146.692C321.612 146.717 321.934 147.372 321.889 148.155Z" fill="#263238"/>
<path d="M329.315 149.816C329.27 150.599 328.878 151.214 328.436 151.189C327.995 151.164 327.674 150.509 327.719 149.726C327.764 148.942 328.156 148.327 328.598 148.352C329.039 148.377 329.36 149.032 329.315 149.816Z" fill="#263238"/>
<path d="M323.543 146.679C323.543 146.679 323.209 150.063 322.731 151.807C322.253 153.551 320.582 153.893 321.609 155.067C322.637 156.24 324.474 156.127 326.343 155.816" stroke="#263238" stroke-miterlimit="10" stroke-linecap="round"/>
<path d="M321.432 157.464C321.432 157.464 323.943 159.479 329.187 158.287" stroke="#263238" stroke-miterlimit="10" stroke-linecap="round"/>
<path d="M319.586 144.84C319.586 144.84 322.005 143.605 322.773 145.142" stroke="#263238" stroke-miterlimit="10" stroke-linecap="round"/>
<path d="M326.689 145.963C326.689 145.963 329.669 145.02 331.994 148.218" stroke="#263238" stroke-miterlimit="10" stroke-linecap="round"/>
<path d="M335.941 141.16C335.941 141.16 325.974 142.818 321.272 141.872C316.569 140.926 312.366 136.823 314.537 133.325C316.708 129.827 329.219 126.146 334.149 126.927C339.08 127.707 343.886 129.277 344.092 134.363C344.298 139.451 342.146 149.219 342.146 149.219L340.578 150.184C340.578 150.184 338.45 147.016 337.464 146.86C336.479 146.704 333.542 144.824 335.941 141.16Z" fill="#263238" stroke="#263238" stroke-miterlimit="10" stroke-linecap="round"/>
<path d="M338.013 149.778C338.013 149.778 342.541 145.44 343.9 147.071C345.26 148.701 343.722 153.31 340.949 155.499C338.176 157.689 337.076 155.695 337.076 155.695" fill="white"/>
<path d="M338.013 149.778C338.013 149.778 342.541 145.44 343.9 147.071C345.26 148.701 343.722 153.31 340.949 155.499C338.176 157.689 337.076 155.695 337.076 155.695" stroke="#263238" stroke-miterlimit="10" stroke-linecap="round"/>
<path d="M329.331 318.787C329.331 318.787 322.968 244.279 320.147 238.982C317.325 233.684 309.814 231.234 302.867 237.031C295.92 242.829 300.347 253.374 301.849 261.052C303.351 268.731 314.587 314.508 314.587 314.508L329.331 318.787Z" fill="white" stroke="#263238" stroke-miterlimit="10" stroke-linecap="round"/>
<path d="M314.587 314.507L312.263 320.888C312.263 320.888 302.732 328.474 303.121 329.641C303.186 329.835 303.229 330.025 303.256 330.205C303.39 331.097 304.112 331.78 305.015 331.78H331.713C331.713 331.78 332.102 327.696 331.713 324.972C331.324 322.249 329.41 318.476 329.41 318.476L314.587 314.507Z" fill="#8D1B3D" stroke="#333333" stroke-miterlimit="10" stroke-linecap="round"/>
<path d="M331.863 329.252H303.208C303.126 329.415 303.09 329.549 303.12 329.641C303.185 329.835 303.228 330.025 303.255 330.205C303.389 331.097 304.112 331.78 305.014 331.78H331.712C331.714 331.78 331.817 330.685 331.863 329.252Z" fill="white" stroke="#263238" stroke-miterlimit="10" stroke-linecap="round"/>
<path d="M335.746 319.158C335.746 319.158 338.114 244.51 340.704 239.095C343.293 233.68 350.691 230.907 357.883 236.397C365.075 241.889 361.11 252.615 359.941 260.352C358.773 268.088 350.447 314.823 350.447 314.823L335.746 319.158Z" fill="white" stroke="#263238" stroke-miterlimit="10" stroke-linecap="round"/>
<path d="M350.446 314.824L352.681 320.889C352.681 320.889 362.213 328.474 361.824 329.641C361.759 329.835 361.715 330.025 361.689 330.205C361.555 331.097 360.831 331.78 359.929 331.78H333.231C333.231 331.78 332.842 327.696 333.231 324.972C333.62 322.249 335.534 318.476 335.534 318.476L350.446 314.824Z" fill="#8D1B3D" stroke="#333333" stroke-miterlimit="10" stroke-linecap="round"/>
<path d="M333.082 329.252H361.737C361.819 329.415 361.855 329.549 361.825 329.641C361.76 329.835 361.717 330.025 361.69 330.205C361.556 331.097 360.833 331.78 359.93 331.78H333.233C333.233 331.78 333.128 330.685 333.082 329.252Z" fill="white" stroke="#263238" stroke-miterlimit="10" stroke-linecap="round"/>
<path d="M296.588 100.426H260.458C257.386 100.426 254.896 102.916 254.896 105.988V125.317C254.896 128.389 257.386 130.88 260.458 130.88H283.989L299.733 141.993L295.205 130.88H296.587C299.659 130.88 302.149 128.389 302.149 125.317V105.988C302.15 102.916 299.66 100.426 296.588 100.426Z" fill="#8D1B3D" stroke="#263238" stroke-miterlimit="10"/>
<path d="M269.825 115.416C269.825 116.483 268.96 117.349 267.892 117.349C266.824 117.349 265.959 116.484 265.959 115.416C265.959 114.348 266.824 113.483 267.892 113.483C268.96 113.483 269.825 114.349 269.825 115.416Z" fill="#263238"/>
<path d="M280.456 115.416C280.456 116.483 279.591 117.349 278.523 117.349C277.455 117.349 276.59 116.484 276.59 115.416C276.59 114.348 277.455 113.483 278.523 113.483C279.591 113.483 280.456 114.349 280.456 115.416Z" fill="#263238"/>
<path d="M291.086 115.416C291.086 116.483 290.221 117.349 289.154 117.349C288.086 117.349 287.221 116.484 287.221 115.416C287.221 114.348 288.086 113.483 289.154 113.483C290.221 113.483 291.086 114.349 291.086 115.416Z" fill="#263238"/>
<path d="M188.023 330.695L190.821 257.961" stroke="#263238" stroke-width="4" stroke-miterlimit="10" stroke-linecap="round"/>
<path d="M192.451 330.695L196.181 239.079" stroke="#263238" stroke-width="4" stroke-miterlimit="10" stroke-linecap="round"/>
<path d="M244.205 330.695L240.242 240.011" stroke="#263238" stroke-width="4" stroke-miterlimit="10" stroke-linecap="round"/>
<path d="M248.167 330.695L245.369 257.961" stroke="#263238" stroke-width="4" stroke-miterlimit="10" stroke-linecap="round"/>
<path d="M239.434 247.1H196.296C194.416 247.1 192.891 245.575 192.891 243.695V205.476C192.891 203.595 194.416 202.07 196.296 202.07H239.434C241.315 202.07 242.84 203.595 242.84 205.476V243.695C242.84 245.575 241.315 247.1 239.434 247.1Z" fill="#8D1B3D" stroke="#263238" stroke-miterlimit="10" stroke-linecap="round"/>
<path d="M248.42 261.48H189.707C188.14 261.48 186.869 260.209 186.869 258.641C186.869 257.074 188.14 255.803 189.707 255.803H248.42C249.987 255.803 251.258 257.074 251.258 258.641C251.258 260.209 249.987 261.48 248.42 261.48Z" fill="#8D1B3D" stroke="#263238" stroke-miterlimit="10" stroke-linecap="round"/>
<path d="M206.843 140.014C206.843 140.014 204.479 135.876 198.716 135.433C192.953 134.989 187.485 138.535 184.825 144.151C182.165 149.766 187.781 153.165 187.781 156.711C187.781 160.257 180.392 161.144 177.88 165.873C175.368 170.601 174.925 179.32 184.529 183.752C194.134 188.185 201.818 185.526 206.399 181.683C210.98 177.841 208.911 171.635 207.286 166.168C205.66 160.701 209.502 149.322 210.685 146.367C211.867 143.412 206.843 140.014 206.843 140.014Z" fill="#263238" stroke="#263238" stroke-miterlimit="10" stroke-linecap="round"/>
<path d="M195.448 208.881L190.718 226.666C190.718 226.666 188.07 229.693 184.853 228.747C181.637 227.801 182.015 223.828 182.204 223.071C182.394 222.315 187.313 202.638 187.313 202.638L195.448 208.881Z" fill="white" stroke="#263238" stroke-miterlimit="10" stroke-linecap="round"/>
<path d="M210.487 170.852C210.487 170.852 210.297 177.285 209.162 179.177C208.027 181.069 202.54 182.015 199.324 182.772C196.107 183.529 192.702 185.231 190.81 187.88C188.918 190.529 182.863 206.611 182.863 206.611L195.729 213.422L197.432 207.179L202.54 215.882C202.54 215.882 194.972 228.18 192.323 235.748C189.675 243.316 189.864 249.181 194.026 253.722C198.189 258.263 202.919 258.831 207.459 259.02C212 259.209 233.569 259.777 238.488 257.885C243.408 255.993 246.435 252.019 245.867 242.181C245.3 232.342 235.083 217.585 234.515 216.26C233.948 214.936 233.38 213.801 233.38 213.801L234.894 205.665L237.353 211.53L249.273 203.395C249.273 203.395 243.408 189.394 240.191 185.988C236.975 182.583 232.245 182.015 228.65 181.447C225.055 180.88 223.542 179.934 222.217 177.853C220.893 175.771 221.082 170.852 221.082 170.852H210.487Z" fill="white" stroke="#263238" stroke-miterlimit="10" stroke-linecap="round"/>
<path d="M221.073 171.563C219.537 171.356 217.597 171.096 215.761 170.852H210.486C210.486 170.852 210.453 171.906 210.342 173.281C211.772 174.457 215.515 177.372 217.78 177.638C219.181 177.803 220.702 177.521 221.886 177.193C221.176 175.479 221.076 172.822 221.073 171.563Z" fill="#263238" stroke="#263238" stroke-miterlimit="10" stroke-linecap="round"/>
<path d="M238.488 208.881L243.218 226.666C243.218 226.666 245.867 229.693 249.084 228.747C252.3 227.801 251.922 223.828 251.732 223.071C251.543 222.315 246.624 202.638 246.624 202.638L238.488 208.881Z" fill="white" stroke="#263238" stroke-miterlimit="10" stroke-linecap="round"/>
<path d="M245.867 242.181C245.3 232.342 235.083 217.585 234.515 216.26C233.948 214.936 233.38 213.801 233.38 213.801L234.894 205.665L237.353 211.53L249.273 203.395C249.273 203.395 243.408 189.394 240.191 185.988C237.882 183.543 234.793 182.563 231.904 181.994L228.272 196.205H204.811L200.314 182.547C199.969 182.624 199.633 182.699 199.324 182.772C196.107 183.528 192.702 185.231 190.81 187.88C188.918 190.529 182.863 206.611 182.863 206.611L195.729 213.422L197.432 207.179L202.54 215.882C202.54 215.882 194.972 228.18 192.323 235.748C189.675 243.316 189.864 249.181 194.026 253.722C198.189 258.263 202.919 258.831 207.459 259.02C212 259.209 233.569 259.777 238.488 257.885C243.408 255.993 246.435 252.019 245.867 242.181Z" fill="#8D1B3D" stroke="#333333" stroke-miterlimit="10" stroke-linecap="round"/>
<path d="M210.675 309.726C210.675 309.726 201.972 258.83 201.593 253.344C201.215 247.857 205.188 244.64 209.729 243.694C214.27 242.748 218.054 247.478 218.432 250.695C218.753 253.424 218.666 297.036 218.632 308.988C218.626 311.216 218.402 313.43 217.965 315.614C217.602 317.425 217.206 319.452 217.109 320.132C216.919 321.457 216.919 326.944 214.649 329.971C212.379 332.998 208.973 335.079 207.838 331.484C206.703 327.89 207.649 322.592 208.595 319.754C209.541 316.916 210.487 314.646 210.487 314.646L210.675 309.726Z" fill="white" stroke="#263238" stroke-miterlimit="10" stroke-linecap="round"/>
<path d="M216.919 317.483C215.594 320.888 214.648 323.537 211.81 323.726C208.972 323.916 208.594 319.753 208.594 319.753C207.648 322.591 206.702 327.889 207.837 331.484C208.972 335.078 212.378 332.997 214.648 329.97C216.919 326.943 216.919 321.456 217.108 320.132C217.205 319.452 217.601 317.425 217.964 315.613C218.048 315.194 218.117 314.773 218.185 314.351C217.746 315.409 217.301 316.5 216.919 317.483Z" fill="#8D1B3D" stroke="#333333" stroke-miterlimit="10" stroke-linecap="round"/>
<path d="M227.726 309.726C227.726 309.726 236.43 258.83 236.808 253.344C237.186 247.857 233.213 244.64 228.672 243.694C224.131 242.748 220.347 247.478 219.969 250.695C219.648 253.424 219.735 297.036 219.769 308.988C219.775 311.216 219.999 313.43 220.437 315.614C220.799 317.425 221.196 319.452 221.293 320.132C221.482 321.457 221.482 326.944 223.752 329.971C226.023 332.998 229.428 335.079 230.564 331.484C231.699 327.89 230.753 322.592 229.807 319.754C228.861 316.916 227.915 314.646 227.915 314.646L227.726 309.726Z" fill="white" stroke="#263238" stroke-miterlimit="10" stroke-linecap="round"/>
<path d="M221.483 317.483C222.807 320.888 223.753 323.537 226.591 323.726C229.429 323.916 229.808 319.753 229.808 319.753C230.754 322.591 231.7 327.889 230.565 331.484C229.429 335.078 226.024 332.997 223.753 329.97C221.483 326.943 221.483 321.456 221.294 320.132C221.197 319.452 220.8 317.425 220.438 315.613C220.354 315.194 220.285 314.773 220.217 314.351C220.656 315.409 221.101 316.5 221.483 317.483Z" fill="#8D1B3D" stroke="#333333" stroke-miterlimit="10" stroke-linecap="round"/>
<path d="M246.434 221.936L224.297 237.64C224.297 237.64 220.703 239.154 220.324 239.721C219.946 240.289 217.675 245.586 218.243 246.532C218.811 247.478 219.932 249.199 219.932 249.199C219.932 249.199 221.27 247.668 221.459 246.911C221.649 246.154 225.054 244.262 225.811 242.559C226.568 240.856 227.892 238.586 227.892 238.586C227.892 238.586 244.731 232.342 246.623 231.018C248.515 229.694 251.921 228.937 251.921 224.964" fill="white"/>
<path d="M246.434 221.936L224.297 237.64C224.297 237.64 220.703 239.154 220.324 239.721C219.946 240.289 217.675 245.586 218.243 246.532C218.811 247.478 219.932 249.199 219.932 249.199C219.932 249.199 221.27 247.668 221.459 246.911C221.649 246.154 225.054 244.262 225.811 242.559C226.568 240.856 227.892 238.586 227.892 238.586C227.892 238.586 244.731 232.342 246.623 231.018C248.515 229.694 251.921 228.937 251.921 224.964" stroke="#263238" stroke-miterlimit="10" stroke-linecap="round"/>
<path d="M187.269 221.715L210.96 234.957C210.96 234.957 214.696 236.077 215.133 236.601C215.569 237.125 218.395 242.149 217.931 243.15C217.468 244.152 216.611 246.014 216.611 246.014C216.611 246.014 215.043 244.603 214.774 243.872C214.505 243.14 210.916 241.623 209.981 240.011C209.046 238.399 207.487 236.284 207.487 236.284C207.487 236.284 190.076 231.879 188.053 230.765C186.03 229.651 182.563 229.264 182.137 225.313" fill="white"/>
<path d="M187.269 221.715L210.96 234.957C210.96 234.957 214.696 236.077 215.133 236.601C215.569 237.125 218.395 242.149 217.931 243.15C217.468 244.152 216.611 246.014 216.611 246.014C216.611 246.014 215.043 244.603 214.774 243.872C214.505 243.14 210.916 241.623 209.981 240.011C209.046 238.399 207.487 236.284 207.487 236.284C207.487 236.284 190.076 231.879 188.053 230.765C186.03 229.651 182.563 229.264 182.137 225.313" stroke="#263238" stroke-miterlimit="10" stroke-linecap="round"/>
<path d="M212.393 138.762C211.857 138.91 211.32 139.057 210.778 139.179C208.964 139.59 204.055 141.276 203.31 147.558C202.58 153.715 203.599 161.629 205.8 166.693C208.002 171.757 215.683 176.538 220.086 174.557C224.489 172.576 227.032 166.835 227.032 160.009C227.032 153.184 227.231 147.417 224.148 143.233C221.285 139.347 216.504 137.629 212.393 138.762Z" fill="white" stroke="#263238" stroke-miterlimit="10" stroke-linecap="round"/>
<path d="M224.149 143.234C221.286 139.348 216.504 137.629 212.394 138.763C211.858 138.911 211.32 139.058 210.779 139.18C208.965 139.591 204.056 141.277 203.311 147.559C202.936 150.725 203.025 154.353 203.498 157.822L203.574 157.782C203.574 157.782 205.408 156.602 205.408 154.767C205.408 152.933 205.146 148.477 208.947 145.855C212.748 143.234 218.777 143.103 221.135 143.758C223.494 144.414 224.805 144.675 226.116 148.083C226.245 148.42 226.381 148.774 226.519 149.132C226.117 146.925 225.41 144.945 224.149 143.234Z" fill="#263238" stroke="#263238" stroke-miterlimit="10" stroke-linecap="round"/>
<path d="M205.538 158.698C205.538 158.698 202.654 154.767 201.212 157.257C199.771 159.747 201.606 163.154 202.916 163.941C204.227 164.727 205.406 162.106 205.406 162.106" fill="white"/>
<path d="M205.538 158.698C205.538 158.698 202.654 154.767 201.212 157.257C199.771 159.747 201.606 163.154 202.916 163.941C204.227 164.727 205.406 162.106 205.406 162.106" stroke="#263238" stroke-miterlimit="10" stroke-linecap="round"/>
<path d="M213.458 158.152C213.876 158.152 214.214 157.551 214.214 156.81C214.214 156.068 213.876 155.467 213.458 155.467C213.041 155.467 212.703 156.068 212.703 156.81C212.703 157.551 213.041 158.152 213.458 158.152Z" fill="#263238"/>
<path d="M221.265 157.42C221.682 157.42 222.02 156.819 222.02 156.077C222.02 155.336 221.682 154.735 221.265 154.735C220.848 154.735 220.51 155.336 220.51 156.077C220.51 156.819 220.848 157.42 221.265 157.42Z" fill="#263238"/>
<path d="M218.644 154.242C218.644 154.242 218.906 157.126 219.43 158.043C219.954 158.96 222.575 159.223 221.396 160.664C220.216 162.106 218.382 161.582 217.988 161.058" stroke="#263238" stroke-miterlimit="10" stroke-linecap="round"/>
<path d="M215.105 163.286C215.105 163.286 217.989 165.12 221.528 162.892" stroke="#263238" stroke-miterlimit="10" stroke-linecap="round"/>
<path d="M209.73 153.718C209.73 153.718 212.089 150.966 215.104 152.67" stroke="#263238" stroke-miterlimit="10" stroke-linecap="round"/>
<path d="M218.775 152.408C218.775 152.408 221.528 150.441 223.493 152.669" stroke="#263238" stroke-miterlimit="10" stroke-linecap="round"/>
<path d="M57.6552 241.802L60.4304 260.218L56.8984 329.592" stroke="#263238" stroke-width="4" stroke-miterlimit="10" stroke-linecap="round"/>
<path d="M92.8193 241.802L95.5938 260.218L92.0625 329.592" stroke="#263238" stroke-width="4" stroke-miterlimit="10" stroke-linecap="round"/>
<path d="M105.334 259.461L108.613 330.349" stroke="#263238" stroke-width="4" stroke-miterlimit="10" stroke-linecap="round"/>
<path d="M135.605 259.461L138.885 330.349" stroke="#263238" stroke-width="4" stroke-miterlimit="10" stroke-linecap="round"/>
<path d="M92.4317 246.217H58.3755C56.5645 246.217 54.9267 244.749 54.7186 242.938L50.2466 204.089C50.0378 202.278 51.3372 200.809 53.1482 200.809H87.2045C89.0155 200.809 90.6532 202.278 90.8614 204.089L95.3333 242.938C95.5422 244.749 94.2428 246.217 92.4317 246.217Z" fill="#8D1B3D" stroke="#263238" stroke-miterlimit="10" stroke-linecap="round"/>
<path d="M137.057 261.48H60.6193C59.0519 261.48 57.7812 260.209 57.7812 258.641C57.7812 257.074 59.0519 255.803 60.6193 255.803H137.057C138.624 255.803 139.895 257.074 139.895 258.641C139.895 260.209 138.624 261.48 137.057 261.48Z" fill="#8D1B3D" stroke="#263238" stroke-miterlimit="10" stroke-linecap="round"/>
<path d="M94.8008 182.015C94.8008 182.015 100.477 184.096 101.612 186.745C102.747 189.394 109.748 219.666 109.748 219.666L135.29 225.153L132.452 228.937L102.747 229.315L94.8008 182.015Z" fill="white" stroke="#263238" stroke-miterlimit="10" stroke-linecap="round"/>
<path d="M99.748 211.463L107.374 209.528C105.231 200.468 102.311 188.375 101.612 186.744C100.477 184.095 94.8008 182.014 94.8008 182.014L99.748 211.463Z" fill="#8D1B3D" stroke="#333333" stroke-miterlimit="10" stroke-linecap="round"/>
<path d="M69.6356 178.231L54.1211 186.745C54.1211 186.745 58.6619 221.179 59.9863 229.883C61.3107 238.586 62.6352 245.019 66.4192 246.343C70.2032 247.668 101.043 240.478 103.124 239.721C105.205 238.964 104.449 232.342 103.503 228.937C102.557 225.531 97.4482 188.826 97.259 185.799C97.0698 182.772 94.6102 181.258 90.637 179.744C86.6637 178.231 76.8253 177.663 73.798 177.663C70.7708 177.663 69.6356 178.231 69.6356 178.231Z" fill="#8D1B3D" stroke="#333333" stroke-miterlimit="10" stroke-linecap="round"/>
<path d="M69.6368 178.231L65.2383 180.645L82.1241 202.07L88.7136 179.179C84.1047 178.088 76.414 177.663 73.7993 177.663C70.772 177.663 69.6368 178.231 69.6368 178.231Z" fill="white" stroke="#263238" stroke-miterlimit="10" stroke-linecap="round"/>
<path d="M66.9883 171.419L68.3127 179.744L80.8 196.772L84.7732 178.987V170.473L66.9883 171.419Z" fill="white" stroke="#263238" stroke-miterlimit="10" stroke-linecap="round"/>
<path d="M61.311 142.85C61.311 142.85 60.365 140.012 56.3918 140.012C52.4185 140.012 48.4453 144.553 48.4453 149.094C48.4453 153.634 52.2293 155.716 55.2566 155.526C58.2838 155.337 59.9866 154.202 60.7434 151.742C61.5002 149.283 61.311 142.85 61.311 142.85Z" fill="#263238" stroke="#263238" stroke-miterlimit="10" stroke-linecap="round"/>
<path d="M62.6251 139.531C62.6251 139.531 59.7606 142.599 59.501 147.535C59.2414 152.472 62.0991 161.306 62.8786 165.203C63.6581 169.101 66.6187 175.207 75.7125 176.507C84.8063 177.806 87.8214 166.762 87.8214 163.125C87.8214 159.488 86.0028 148.575 84.4438 143.898C82.8848 139.221 80.5462 135.844 75.0904 135.324C69.6338 134.804 65.6742 136.354 62.6251 139.531Z" fill="white" stroke="#263238" stroke-miterlimit="10" stroke-linecap="round"/>
<path d="M87.8226 163.124C87.8226 161.326 87.3776 157.751 86.7404 154.03C86.813 154.931 86.9538 156.329 87.2315 158.364C87.7991 162.526 86.8531 163.094 86.8531 163.094C86.8531 163.094 85.1503 160.256 79.6635 159.31C74.1766 158.364 67.7438 166.31 67.1762 166.31C66.6086 166.31 66.4194 165.553 65.6626 163.094C64.9058 160.634 62.6354 155.715 63.3922 153.445C64.149 151.174 64.149 150.796 63.0138 148.715C61.8785 146.634 61.3109 145.877 64.5259 143.229C68.3099 140.112 74.9107 139.749 79.6521 139.54C80.941 139.483 82.0815 139.622 82.8095 140.16C81.2422 137.489 78.9475 135.691 75.0916 135.323C69.635 134.803 65.6762 136.354 62.627 139.531C62.627 139.531 59.7625 142.598 59.5029 147.535C59.2434 152.471 62.1011 161.306 62.8806 165.202C63.6601 169.1 66.6207 175.207 75.7145 176.506C84.8075 177.805 87.8226 166.761 87.8226 163.124Z" fill="#263238" stroke="#263238" stroke-miterlimit="10" stroke-linecap="round"/>
<path d="M82.3121 162.905C82.3121 162.905 78.7173 164.419 73.2305 164.419" stroke="white" stroke-miterlimit="10" stroke-linecap="round"/>
<path d="M78.7171 151.175L79.6631 158.175C79.6631 158.175 77.3927 161.392 74.5547 157.418" stroke="#263238" stroke-miterlimit="10" stroke-linecap="round"/>
<path d="M74.3642 148.715C74.2068 148.884 69.0666 147.202 67.7422 151.553" stroke="#263238" stroke-width="2" stroke-miterlimit="10" stroke-linecap="round"/>
<path d="M78.9062 147.958C78.9062 147.958 82.3119 145.31 84.9607 148.904" stroke="#263238" stroke-width="2" stroke-miterlimit="10" stroke-linecap="round"/>
<path d="M71.9998 154.391C72.4701 154.391 72.8512 153.714 72.8512 152.878C72.8512 152.042 72.4701 151.364 71.9998 151.364C71.5296 151.364 71.1484 152.042 71.1484 152.878C71.1484 153.714 71.5296 154.391 71.9998 154.391Z" fill="#263238"/>
<path d="M82.3123 153.634C82.7826 153.634 83.1637 152.957 83.1637 152.121C83.1637 151.285 82.7826 150.607 82.3123 150.607C81.8421 150.607 81.4609 151.285 81.4609 152.121C81.4609 152.957 81.8421 153.634 82.3123 153.634Z" fill="#263238"/>
<path d="M60.3642 155.905C60.3642 155.905 57.337 153.635 57.1478 157.986C56.9586 162.338 60.5534 164.041 61.4995 164.23C62.4455 164.419 62.6347 163.095 62.6347 163.095L60.3642 155.905Z" fill="white" stroke="#263238" stroke-miterlimit="10" stroke-linecap="round"/>
<path d="M56.2029 185.799C56.2029 185.799 50.5269 187.88 48.8241 189.204C47.1212 190.529 44.7827 195.884 46.3735 207.55C46.9358 211.675 51.0945 240.289 51.0945 240.289L97.638 237.829L105.395 235.18L62.4466 228.18L59.0409 196.015" fill="#8D1B3D"/>
<path d="M56.2029 185.799C56.2029 185.799 50.5269 187.88 48.8241 189.204C47.1212 190.529 44.7827 195.884 46.3735 207.55C46.9358 211.675 51.0945 240.289 51.0945 240.289L97.638 237.829L105.395 235.18L62.4466 228.18L59.0409 196.015" stroke="#333333" stroke-miterlimit="10" stroke-linecap="round"/>
<path d="M51.0955 240.289L97.6391 237.829L105.396 235.18L62.4476 228.18L60.5677 213.456L47.2812 214.617C48.0471 225.05 51.0955 240.289 51.0955 240.289Z" fill="white" stroke="#263238" stroke-miterlimit="10" stroke-linecap="round"/>
<path d="M62.0684 240.667C62.0684 240.667 65.0956 252.776 69.4472 256.56C73.7988 260.344 81.3669 259.777 88.5565 259.777C95.7462 259.777 111.45 255.614 112.018 255.614C112.585 255.614 138.884 262.236 138.884 262.236L130.748 322.213L142.479 324.483C142.479 324.483 158.939 265.642 158.939 264.317C158.939 262.993 162.723 257.695 156.291 249.56C149.858 241.424 118.261 238.964 111.261 237.262C104.26 235.559 62.0684 240.667 62.0684 240.667Z" fill="white" stroke="#263238" stroke-miterlimit="10" stroke-linecap="round"/>
<path d="M125.97 245.154L116.369 256.525L112.018 255.614L106.532 256.939C106.532 256.939 106.261 254.757 110.051 250.208C113.841 245.66 125.97 245.154 125.97 245.154Z" fill="#263238"/>
<path d="M130.747 322.213L128.855 331.862C128.855 331.862 138.505 334.133 141.154 334.7C143.802 335.268 152.316 334.89 154.208 334.7C156.1 334.511 152.884 332.619 151.749 332.052C150.614 331.484 141.91 326.186 141.91 326.186L142.478 324.484L130.747 322.213Z" fill="white" stroke="#263238" stroke-miterlimit="10" stroke-linecap="round"/>
<path d="M74.176 243.883C74.176 243.883 111.249 228.835 115.044 227.423C123.179 224.396 134.652 225.198 136.234 225.531C139.829 226.288 173.507 260.155 173.507 260.155L166.317 266.588L131.693 242.37C131.693 242.37 111.449 254.479 106.529 256.938C101.61 259.398 90.6366 260.912 82.5009 260.344C74.3652 259.776 69.2568 255.614 67.9324 252.965C66.608 250.316 67.1756 248.613 67.1756 248.613" fill="white"/>
<path d="M74.176 243.883C74.176 243.883 111.249 228.835 115.044 227.423C123.179 224.396 134.652 225.198 136.234 225.531C139.829 226.288 173.507 260.155 173.507 260.155L166.317 266.588L131.693 242.37C131.693 242.37 111.449 254.479 106.529 256.938C101.61 259.398 90.6366 260.912 82.5009 260.344C74.3652 259.776 69.2568 255.614 67.9324 252.965C66.608 250.316 67.1756 248.613 67.1756 248.613" stroke="#263238" stroke-miterlimit="10" stroke-linecap="round"/>
<path d="M166.316 266.588L175.966 275.48C175.966 275.48 194.318 256.181 194.886 255.425C195.453 254.668 197.156 251.451 196.021 251.451C194.886 251.451 175.398 260.722 175.398 260.722L173.506 260.155L166.316 266.588Z" fill="white" stroke="#263238" stroke-miterlimit="10" stroke-linecap="round"/>
<path d="M135.289 225.153C135.289 225.153 143.992 225.72 144.371 226.477C144.749 227.234 147.966 231.775 148.155 233.099C148.344 234.423 148.344 235.937 148.344 235.937C148.344 235.937 141.154 231.964 140.776 231.018C140.397 230.072 140.208 228.18 140.208 228.18L135.289 225.153Z" fill="white" stroke="#263238" stroke-miterlimit="10" stroke-linecap="round"/>
<path d="M466.596 35.6289L447.617 54.848H494.366L475.387 35.6289H466.596Z" fill="#263238" stroke="#263238" stroke-miterlimit="10"/>
<path d="M475.294 33.0701H466.596V35.6288H475.294V33.0701Z" fill="#263238" stroke="#263238" stroke-miterlimit="10"/>
<path d="M470.883 33.0701V0" stroke="#263238" stroke-miterlimit="10"/>
<path d="M53.3808 35.6289L34.4023 54.848H81.151L62.1726 35.6289H53.3808Z" fill="#263238" stroke="#263238" stroke-miterlimit="10"/>
<path d="M62.0788 33.0701H53.3809V35.6288H62.0788V33.0701Z" fill="#263238" stroke="#263238" stroke-miterlimit="10"/>
<path d="M57.6699 33.0701V0" stroke="#263238" stroke-miterlimit="10"/>
</svg>
