<svg width="68" height="68" viewBox="0 0 68 68" fill="none" xmlns="http://www.w3.org/2000/svg">
<g id="Frame 1618873683">
<g id="Group 1000003495">
<circle id="Ellipse 446" cx="34" cy="32.5" r="5" stroke="#8D1B3D" stroke-width="2"/>
<path id="Ellipse 449" d="M43.5 49.5C43.5 50.346 43.2786 50.9541 42.921 51.4191C42.5537 51.8967 41.983 52.3005 41.1628 52.6224C39.4881 53.2798 37.0309 53.5 34 53.5C30.9736 53.5 28.3785 53.2811 26.5671 52.6148C25.6736 52.2861 25.039 51.8725 24.6303 51.3857C24.2369 50.9173 24 50.3198 24 49.5C24 47.7793 25.0555 45.5193 26.9274 43.6553C28.7789 41.8116 31.2881 40.5 34 40.5C36.7029 40.5 39.0788 41.8033 40.8 43.6321C42.5385 45.4792 43.5 47.7454 43.5 49.5Z" stroke="#8D1B3D" stroke-width="2"/>
<path id="Ellipse 450" d="M63.5 59.5C63.5 60.346 63.2786 60.9541 62.921 61.4191C62.5537 61.8967 61.983 62.3005 61.1628 62.6224C59.4881 63.2798 57.0309 63.5 54 63.5C50.9736 63.5 48.3785 63.2811 46.5671 62.6148C45.6736 62.2861 45.039 61.8725 44.6303 61.3857C44.2369 60.9173 44 60.3198 44 59.5C44 57.7793 45.0555 55.5193 46.9274 53.6553C48.7789 51.8116 51.2881 50.5 54 50.5C56.7029 50.5 59.0788 51.8033 60.8 53.6321C62.5385 55.4792 63.5 57.7454 63.5 59.5Z" stroke="#8D1B3D" stroke-width="2"/>
<path id="Ellipse 451" d="M23.5 59.5C23.5 60.346 23.2786 60.9541 22.921 61.4191C22.5537 61.8967 21.983 62.3005 21.1628 62.6224C19.4881 63.2798 17.0309 63.5 14 63.5C10.9736 63.5 8.3785 63.2811 6.56705 62.6148C5.67362 62.2861 5.03903 61.8725 4.63026 61.3857C4.23695 60.9173 4 60.3198 4 59.5C4 57.7793 5.05555 55.5193 6.92744 53.6553C8.77893 51.8116 11.2881 50.5 14 50.5C16.7029 50.5 19.0788 51.8033 20.8 53.6321C22.5385 55.4792 23.5 57.7454 23.5 59.5Z" stroke="#8D1B3D" stroke-width="2"/>
<circle id="Ellipse 447" cx="54" cy="42.5" r="5" stroke="#8D1B3D" stroke-width="2"/>
<circle id="Ellipse 448" cx="14" cy="42.5" r="5" stroke="#8D1B3D" stroke-width="2"/>
<g id="Group 1000003492">
<path id="Vector 7100" d="M45.5 11H59" stroke="#8D1B3D" stroke-width="1.5"/>
<path id="Vector 7101" d="M45.5 15.5H59" stroke="#8D1B3D" stroke-width="1.5"/>
<path id="Vector 7102" d="M45.5 20.5H59" stroke="#8D1B3D" stroke-width="1.5"/>
<path id="Vector 7099" d="M58.897 24.2024L58.8964 24.2029L58.896 24.2033L58.8953 24.2038L58.8951 24.2039L58.895 24.204L58.4363 24.5509L58.508 25.124L59.0849 29.7395L56.2685 26.3598L55.8885 25.9038L55.3066 26.0189L55.3066 26.0189L55.3065 26.019L55.3062 26.019L55.3052 26.0192L55.2974 26.0207L55.2622 26.0274C55.2304 26.0334 55.1818 26.0423 55.1183 26.0535C54.9911 26.0759 54.8042 26.1074 54.5703 26.1425C54.1017 26.2128 53.4492 26.2972 52.715 26.3533C51.2064 26.4686 49.5041 26.451 48.3193 26.0522C43.5549 24.4486 40.8656 20.5612 40.9999 15.5267C41.1581 9.60025 46.0307 5 52.0003 5C55.0447 5 57.7537 5.93708 59.7082 7.68324C61.6499 9.41785 62.926 12.0202 63.0005 15.5213C63.0585 18.2489 62.0376 20.4187 60.9797 21.9254C60.4513 22.678 59.9194 23.2564 59.5225 23.6441C59.3246 23.8375 59.1614 23.9822 59.0509 24.0762C58.9957 24.1231 58.9538 24.1573 58.9274 24.1785C58.9142 24.189 58.9049 24.1963 58.8997 24.2003L58.897 24.2024Z" stroke="#8D1B3D" stroke-width="2"/>
</g>
<g id="Group 1000003494">
<path id="Vector 7100_2" d="M22.498 11H8.99805" stroke="#8D1B3D" stroke-width="1.5"/>
<path id="Vector 7101_2" d="M22.498 15.5H8.99805" stroke="#8D1B3D" stroke-width="1.5"/>
<path id="Vector 7102_2" d="M22.498 20.5H8.99805" stroke="#8D1B3D" stroke-width="1.5"/>
<path id="Vector 7099_2" d="M9.101 24.2024L9.1016 24.2029L9.10209 24.2033L9.10278 24.2038L9.10291 24.2039L9.10305 24.204L9.5617 24.5509L9.49005 25.124L8.91311 29.7395L11.7296 26.3598L12.1095 25.9038L12.6914 26.0189L12.6915 26.0189L12.6916 26.019L12.6918 26.019L12.6929 26.0192L12.7007 26.0207L12.7358 26.0274C12.7677 26.0334 12.8162 26.0423 12.8798 26.0535C13.0069 26.0759 13.1939 26.1074 13.4277 26.1425C13.8964 26.2128 14.5488 26.2972 15.283 26.3533C16.7916 26.4686 18.494 26.451 19.6788 26.0522C24.4431 24.4486 27.1325 20.5612 26.9981 15.5267C26.84 9.60025 21.9673 5 15.9978 5C12.9533 5 10.2443 5.93708 8.2898 7.68324C6.3482 9.41785 5.07204 12.0202 4.99755 15.5213C4.93952 18.2489 5.96041 20.4187 7.01832 21.9254C7.54673 22.678 8.07869 23.2564 8.4755 23.6441C8.67349 23.8375 8.83662 23.9822 8.9471 24.0762C9.0023 24.1231 9.04424 24.1573 9.07066 24.1785C9.08387 24.189 9.09319 24.1963 9.09835 24.2003L9.101 24.2024Z" stroke="#8D1B3D" stroke-width="2"/>
</g>
</g>
</g>
</svg>
