<svg width="500" height="374" viewBox="0 0 500 374" fill="none" xmlns="http://www.w3.org/2000/svg">
<path d="M500 328.398H0V328.648H500V328.398Z" fill="#EBEBEB"/>
<path d="M321.526 342.342H288.404V342.592H321.526V342.342Z" fill="#EBEBEB"/>
<path d="M415.779 339.629H407.086V339.879H415.779V339.629Z" fill="#EBEBEB"/>
<path d="M396.587 335.208H327.668V335.458H396.587V335.208Z" fill="#EBEBEB"/>
<path d="M225.148 341.111H194.844V341.361H225.148V341.111Z" fill="#EBEBEB"/>
<path d="M185.939 341.111H166.717V341.361H185.939V341.111Z" fill="#EBEBEB"/>
<path d="M99.297 336.888H52.459V337.138H99.297V336.888Z" fill="#EBEBEB"/>
<path d="M237.014 283.8H43.915C40.768 283.8 38.207 281.239 38.207 278.092V6.6599C38.207 3.5129 40.768 0.951904 43.915 0.951904H237.014C240.16 0.951904 242.721 3.5129 242.721 6.6599V278.092C242.721 281.239 240.16 283.8 237.014 283.8ZM43.915 1.2029C40.905 1.2029 38.457 3.6509 38.457 6.6609V278.093C38.457 281.103 40.905 283.551 43.915 283.551H237.014C240.023 283.551 242.471 281.103 242.471 278.093V6.6599C242.471 3.6509 240.023 1.2019 237.014 1.2019L43.915 1.2029Z" fill="#EBEBEB"/>
<path d="M453.311 283.8H260.213C257.066 283.8 254.506 281.239 254.506 278.092V6.6599C254.506 3.5129 257.067 0.951904 260.213 0.951904H453.311C456.459 0.951904 459.019 3.5129 459.019 6.6599V278.092C459.02 281.239 456.459 283.8 453.311 283.8ZM260.213 1.2029C257.204 1.2029 254.756 3.6509 254.756 6.6609V278.093C254.756 281.103 257.204 283.551 260.213 283.551H453.311C456.321 283.551 458.769 281.103 458.769 278.093V6.6599C458.769 3.6509 456.321 1.2019 453.311 1.2019L260.213 1.2029Z" fill="#EBEBEB"/>
<path d="M57.3388 180.744L227.633 180.744L227.633 23.9633L57.3388 23.9633L57.3388 180.744Z" fill="#E6E6E6"/>
<path d="M53.295 180.744L225.875 180.744L225.875 23.9633L53.295 23.9633L53.295 180.744Z" fill="#F5F5F5"/>
<path d="M218.619 172.902L218.619 31.8055L60.5531 31.8055L60.5531 172.902L218.619 172.902Z" fill="#FAFAFA"/>
<path d="M199.089 172.902L145.933 31.8059H123.551L176.708 172.902H199.089Z" fill="white"/>
<path d="M170.363 172.902L117.206 31.8059H101.795L154.952 172.902H170.363Z" fill="white"/>
<path d="M122.719 172.902L122.719 31.8064H114.061L114.061 172.902H122.719Z" fill="#E6E6E6"/>
<path d="M170.91 172.902L170.91 31.8059H162.252L162.252 172.902H170.91Z" fill="#E6E6E6"/>
<path d="M121.156 177.878L121.156 25.9751L110.212 25.9751L110.212 177.878H121.156Z" fill="#F5F5F5"/>
<path d="M169.35 177.878L169.35 25.9746L158.406 25.9746L158.406 177.878H169.35Z" fill="#F5F5F5"/>
<path d="M61.3223 172.902L61.3223 31.8061H60.5523L60.5523 172.902H61.3223Z" fill="#E6E6E6"/>
<path d="M445.875 25.3959H270.689V147.939H445.875V25.3959Z" fill="#EBEBEB"/>
<path d="M445.875 147.94H447.352V25.3968H445.875V147.94Z" fill="#E0E0E0"/>
<path d="M439.738 141.803V31.5338L276.827 31.5338V141.803L439.738 141.803Z" fill="white"/>
<path d="M278.047 141.802V31.5333H276.829V141.802H278.047Z" fill="#E0E0E0"/>
<path d="M420.348 43.4249H380.549V99.3429H420.348V43.4249Z" fill="#F5F5F5"/>
<path d="M329.387 53.7899H289.588V109.708H329.387V53.7899Z" fill="#F5F5F5"/>
<path d="M392.811 67.7019H353.012V123.62H392.811V67.7019Z" fill="#EBEBEB"/>
<path d="M338.237 70.1569H322.693V85.7009H338.237V70.1569Z" fill="#F5F5F5"/>
<path d="M333.724 101.936H318.18V117.48H333.724V101.936Z" fill="#F0F0F0"/>
<path d="M409.1 321.213C409.1 317.245 412.317 314.028 416.285 314.028C420.253 314.028 423.47 317.245 423.47 321.213C423.47 325.181 420.253 328.398 416.285 328.398C412.317 328.398 409.1 325.182 409.1 321.213Z" fill="#E0E0E0"/>
<path d="M421.223 321.213C421.223 317.245 424.44 314.028 428.408 314.028C432.376 314.028 435.593 317.245 435.593 321.213C435.593 325.181 432.376 328.398 428.408 328.398C424.44 328.398 421.223 325.182 421.223 321.213Z" fill="#E0E0E0"/>
<path d="M222.676 321.213C222.676 317.245 225.893 314.028 229.861 314.028C233.829 314.028 237.046 317.245 237.046 321.213C237.046 325.181 233.829 328.398 229.861 328.398C225.893 328.398 222.676 325.182 222.676 321.213Z" fill="#E0E0E0"/>
<path d="M234.799 321.213C234.799 317.245 238.016 314.028 241.984 314.028C245.952 314.028 249.169 317.245 249.169 321.213C249.169 325.181 245.952 328.398 241.984 328.398C238.016 328.398 234.799 325.182 234.799 321.213Z" fill="#E0E0E0"/>
<path d="M421.54 322.204H438.545V169H421.54V322.204Z" fill="#EBEBEB"/>
<path d="M421.538 169H221.201V322.204H421.538V169Z" fill="#F5F5F5"/>
<path d="M415.027 175.287H227.715V315.918H415.027V175.287Z" fill="#EBEBEB"/>
<path d="M412.363 234.433H230.379V313.324H412.363V234.433Z" fill="#F5F5F5"/>
<path d="M412.363 178.247H230.379V232.435H412.363V178.247Z" fill="#F5F5F5"/>
<path d="M263.49 235.765H379.25C379.983 235.765 380.582 235.166 380.582 234.433C380.582 233.7 379.983 233.101 379.25 233.101H263.49C262.757 233.101 262.158 233.7 262.158 234.433C262.157 235.166 262.757 235.765 263.49 235.765Z" fill="#EBEBEB"/>
<path d="M263.49 179.579H379.25C379.983 179.579 380.582 178.98 380.582 178.247C380.582 177.514 379.983 176.915 379.25 176.915H263.49C262.757 176.915 262.158 177.515 262.158 178.247C262.157 178.98 262.757 179.579 263.49 179.579Z" fill="#EBEBEB"/>
<path d="M152.122 250.175H63.9062V328.399H152.122V250.175Z" fill="#F5F5F5"/>
<path d="M152.121 328.398H186.416V250.174H152.121V328.398Z" fill="#EBEBEB"/>
<path d="M154.037 236.452H59.5586V250.175H154.037V236.452Z" fill="#EBEBEB"/>
<path d="M154.037 250.175H190.766V236.452H154.037V250.175Z" fill="#E0E0E0"/>
<path d="M250 373.561C357.082 373.561 443.889 368.491 443.889 362.238C443.889 355.984 357.082 350.915 250 350.915C142.918 350.915 56.1113 355.984 56.1113 362.238C56.1113 368.491 142.918 373.561 250 373.561Z" fill="#F5F5F5"/>
<path d="M408.695 132.891H407.695V144.808H408.695V132.891Z" fill="#8D1B3D"/>
<path d="M408.695 98.7479H407.695V124.549H408.695V98.7479Z" fill="#8D1B3D"/>
<path d="M394.171 221.195H154.398C150.465 221.195 147.248 217.977 147.248 214.045V85.0639C147.248 81.1309 150.466 77.9139 154.398 77.9139H394.172C398.105 77.9139 401.322 81.1319 401.322 85.0639V214.045C401.322 217.978 398.104 221.195 394.171 221.195Z" fill="#E0E0E0"/>
<path d="M397.826 217.54H158.052C154.119 217.54 150.902 214.322 150.902 210.39V81.4089C150.902 77.4759 154.12 74.2589 158.052 74.2589H397.826C401.759 74.2589 404.976 77.4769 404.976 81.4089V210.39C404.976 214.322 401.758 217.54 397.826 217.54Z" fill="white"/>
<path d="M397.825 218.04H158.052C153.834 218.04 150.402 214.608 150.402 210.39V81.4089C150.402 77.1909 153.834 73.7589 158.052 73.7589H397.825C402.043 73.7589 405.475 77.1909 405.475 81.4089V210.39C405.476 214.608 402.043 218.04 397.825 218.04ZM158.052 74.7579C154.385 74.7579 151.402 77.7409 151.402 81.4079V210.39C151.402 214.057 154.385 217.04 158.052 217.04H397.825C401.492 217.04 404.475 214.057 404.475 210.39V81.4089C404.475 77.7419 401.492 74.7589 397.825 74.7589H158.052V74.7579Z" fill="#8D1B3D"/>
<path d="M262.798 136.489H170.395C168.341 136.489 166.67 134.818 166.67 132.764V120.028C166.67 117.974 168.341 116.303 170.395 116.303H262.798C264.852 116.303 266.523 117.974 266.523 120.028V132.764C266.524 134.818 264.853 136.489 262.798 136.489ZM170.396 117.303C168.894 117.303 167.671 118.526 167.671 120.028V132.764C167.671 134.266 168.894 135.489 170.396 135.489H262.799C264.301 135.489 265.524 134.266 265.524 132.764V120.028C265.524 118.526 264.301 117.303 262.799 117.303H170.396Z" fill="#E0E0E0"/>
<path d="M311.479 163.482H170.395C168.341 163.482 166.67 161.811 166.67 159.757V147.02C166.67 144.966 168.341 143.294 170.395 143.294H311.479C313.533 143.294 315.204 144.965 315.204 147.02V159.756C315.204 161.811 313.533 163.482 311.479 163.482ZM170.395 144.295C168.893 144.295 167.67 145.518 167.67 147.021V159.757C167.67 161.259 168.893 162.482 170.395 162.482H311.479C312.981 162.482 314.204 161.259 314.204 159.757V147.02C314.204 145.517 312.981 144.294 311.479 144.294L170.395 144.295Z" fill="#E0E0E0"/>
<path d="M171.461 157.404C171.185 157.404 170.961 157.18 170.961 156.904V149.873C170.961 149.597 171.185 149.373 171.461 149.373C171.737 149.373 171.961 149.597 171.961 149.873V156.904C171.961 157.18 171.737 157.404 171.461 157.404Z" fill="#E0E0E0"/>
<path d="M373.569 136.489H281.166C279.112 136.489 277.441 134.818 277.441 132.764V120.028C277.441 117.974 279.112 116.303 281.166 116.303H373.569C375.623 116.303 377.294 117.974 377.294 120.028V132.764C377.294 134.818 375.623 136.489 373.569 136.489ZM281.166 117.303C279.663 117.303 278.441 118.526 278.441 120.028V132.764C278.441 134.266 279.664 135.489 281.166 135.489H373.569C375.071 135.489 376.294 134.266 376.294 132.764V120.028C376.294 118.526 375.071 117.303 373.569 117.303H281.166Z" fill="#E0E0E0"/>
<path opacity="0.2" d="M230.509 98.7479H171.281C169.02 98.7479 167.17 96.8979 167.17 94.6369C167.17 92.3759 169.02 90.5259 171.281 90.5259H230.509C232.77 90.5259 234.621 92.3759 234.621 94.6369C234.621 96.8979 232.771 98.7479 230.509 98.7479Z" fill="#8D1B3D"/>
<path opacity="0.2" d="M246.805 178.027H182.631C181.73 178.027 180.992 177.29 180.992 176.388C180.992 175.487 181.729 174.749 182.631 174.749H246.805C247.706 174.749 248.444 175.486 248.444 176.388C248.444 177.29 247.706 178.027 246.805 178.027Z" fill="#8D1B3D"/>
<path d="M170.477 179.696C172.303 179.696 173.784 178.215 173.784 176.389C173.784 174.563 172.303 173.082 170.477 173.082C168.651 173.082 167.17 174.563 167.17 176.389C167.17 178.215 168.651 179.696 170.477 179.696Z" fill="#8D1B3D"/>
<path d="M282.23 130.412C281.954 130.412 281.73 130.188 281.73 129.912V122.881C281.73 122.605 281.954 122.381 282.23 122.381C282.506 122.381 282.73 122.605 282.73 122.881V129.912C282.73 130.188 282.506 130.412 282.23 130.412Z" fill="#E0E0E0"/>
<path d="M171.461 130.412C171.185 130.412 170.961 130.188 170.961 129.912V122.881C170.961 122.605 171.185 122.381 171.461 122.381C171.737 122.381 171.961 122.605 171.961 122.881V129.912C171.961 130.188 171.737 130.412 171.461 130.412Z" fill="#E0E0E0"/>
<g opacity="0.6">
<path d="M175.443 129.376V123.234H179.586V123.959H176.255V125.861H179.138V126.586H176.255V129.377L175.443 129.376Z" fill="#263238"/>
<path d="M180.551 124.102V123.235H181.306V124.102H180.551ZM180.551 129.376V124.927H181.306V129.376H180.551Z" fill="#263238"/>
<path d="M182.443 129.376V124.927H183.122V125.601C183.295 125.286 183.455 125.078 183.602 124.977C183.748 124.877 183.91 124.826 184.085 124.826C184.34 124.826 184.598 124.907 184.86 125.069L184.6 125.769C184.415 125.66 184.232 125.606 184.047 125.606C183.882 125.606 183.733 125.655 183.603 125.754C183.472 125.853 183.378 125.991 183.323 126.167C183.239 126.435 183.197 126.728 183.197 127.047V129.377L182.443 129.376Z" fill="#263238"/>
<path d="M185.008 128.048L185.754 127.931C185.796 128.23 185.912 128.459 186.104 128.618C186.295 128.777 186.563 128.857 186.907 128.857C187.253 128.857 187.511 128.787 187.678 128.646C187.846 128.505 187.93 128.339 187.93 128.149C187.93 127.979 187.856 127.845 187.707 127.747C187.603 127.68 187.347 127.595 186.936 127.492C186.382 127.352 185.999 127.232 185.786 127.13C185.572 127.028 185.41 126.887 185.3 126.707C185.19 126.527 185.135 126.328 185.135 126.11C185.135 125.912 185.18 125.728 185.271 125.559C185.362 125.39 185.486 125.25 185.642 125.138C185.759 125.051 185.919 124.978 186.122 124.918C186.325 124.858 186.542 124.828 186.773 124.828C187.123 124.828 187.429 124.878 187.693 124.979C187.957 125.08 188.152 125.215 188.278 125.387C188.403 125.559 188.49 125.789 188.538 126.076L187.801 126.177C187.767 125.948 187.67 125.769 187.509 125.64C187.349 125.511 187.122 125.448 186.828 125.448C186.482 125.448 186.234 125.505 186.087 125.619C185.938 125.734 185.864 125.868 185.864 126.021C185.864 126.119 185.895 126.207 185.957 126.285C186.019 126.366 186.114 126.433 186.246 126.486C186.321 126.514 186.543 126.578 186.912 126.678C187.445 126.821 187.817 126.937 188.028 127.028C188.239 127.119 188.405 127.251 188.525 127.424C188.645 127.597 188.705 127.812 188.705 128.069C188.705 128.32 188.632 128.557 188.485 128.779C188.339 129.001 188.127 129.173 187.85 129.295C187.574 129.417 187.261 129.477 186.912 129.477C186.334 129.477 185.893 129.357 185.59 129.117C185.285 128.876 185.092 128.52 185.008 128.048Z" fill="#263238"/>
<path d="M191.246 128.702L191.355 129.368C191.142 129.412 190.953 129.435 190.785 129.435C190.512 129.435 190.3 129.391 190.148 129.305C189.998 129.219 189.891 129.105 189.83 128.964C189.769 128.823 189.738 128.526 189.738 128.074V125.514H189.184V124.927H189.738V123.825L190.488 123.372V124.927H191.246V125.514H190.488V128.116C190.488 128.331 190.501 128.47 190.527 128.531C190.554 128.592 190.597 128.641 190.657 128.677C190.718 128.713 190.803 128.732 190.915 128.732C190.999 128.731 191.11 128.722 191.246 128.702Z" fill="#263238"/>
<path d="M194.367 129.376V124.927H195.046V125.559C195.373 125.07 195.845 124.826 196.462 124.826C196.731 124.826 196.977 124.874 197.201 124.971C197.427 125.067 197.595 125.194 197.706 125.35C197.818 125.507 197.896 125.692 197.941 125.907C197.968 126.047 197.983 126.291 197.983 126.64V129.376H197.228V126.669C197.228 126.362 197.199 126.132 197.14 125.98C197.082 125.828 196.978 125.706 196.829 125.615C196.68 125.524 196.504 125.479 196.303 125.479C195.982 125.479 195.704 125.581 195.472 125.785C195.239 125.989 195.121 126.375 195.121 126.945V129.375H194.367V129.376Z" fill="#263238"/>
<path d="M202.043 128.828C201.764 129.065 201.495 129.233 201.236 129.331C200.978 129.429 200.701 129.477 200.405 129.477C199.916 129.477 199.541 129.357 199.278 129.119C199.015 128.88 198.883 128.575 198.883 128.203C198.883 127.985 198.933 127.787 199.032 127.606C199.131 127.426 199.261 127.281 199.422 127.172C199.582 127.063 199.763 126.981 199.964 126.924C200.112 126.885 200.336 126.847 200.635 126.811C201.243 126.738 201.692 126.652 201.98 126.551C201.983 126.447 201.984 126.382 201.984 126.354C201.984 126.046 201.913 125.83 201.77 125.704C201.578 125.534 201.291 125.448 200.912 125.448C200.558 125.448 200.296 125.511 200.127 125.635C199.957 125.759 199.832 125.979 199.752 126.295L199.014 126.194C199.081 125.879 199.192 125.624 199.345 125.43C199.499 125.236 199.721 125.086 200.012 124.981C200.302 124.877 200.639 124.824 201.021 124.824C201.401 124.824 201.709 124.868 201.948 124.958C202.185 125.047 202.359 125.16 202.471 125.295C202.582 125.431 202.66 125.602 202.705 125.808C202.73 125.936 202.743 126.168 202.743 126.503V127.509C202.743 128.21 202.759 128.653 202.791 128.839C202.823 129.025 202.887 129.203 202.982 129.373H202.195C202.116 129.22 202.066 129.037 202.043 128.828ZM201.981 127.144C201.708 127.256 201.296 127.35 200.749 127.429C200.439 127.474 200.22 127.524 200.091 127.58C199.962 127.636 199.863 127.718 199.793 127.825C199.724 127.932 199.689 128.052 199.689 128.183C199.689 128.384 199.765 128.552 199.918 128.686C200.07 128.82 200.293 128.887 200.586 128.887C200.877 128.887 201.135 128.824 201.361 128.697C201.588 128.57 201.754 128.396 201.86 128.175C201.94 128.005 201.981 127.754 201.981 127.421V127.144Z" fill="#263238"/>
<path d="M203.91 129.376V124.927H204.585V125.551C204.725 125.333 204.91 125.158 205.142 125.025C205.374 124.893 205.638 124.826 205.934 124.826C206.264 124.826 206.535 124.894 206.745 125.031C206.956 125.168 207.105 125.359 207.191 125.605C207.544 125.085 208.002 124.826 208.566 124.826C209.006 124.826 209.346 124.948 209.584 125.193C209.821 125.437 209.941 125.814 209.941 126.322V129.376H209.191V126.573C209.191 126.271 209.166 126.054 209.118 125.921C209.069 125.789 208.98 125.682 208.851 125.601C208.723 125.52 208.572 125.479 208.399 125.479C208.086 125.479 207.827 125.583 207.62 125.791C207.413 125.999 207.31 126.332 207.31 126.79V129.375H206.555V126.484C206.555 126.149 206.493 125.897 206.371 125.73C206.248 125.563 206.047 125.479 205.767 125.479C205.554 125.479 205.358 125.535 205.178 125.647C204.997 125.759 204.867 125.922 204.786 126.137C204.705 126.352 204.664 126.662 204.664 127.067V129.376H203.91Z" fill="#263238"/>
<path d="M214.106 127.944L214.885 128.04C214.762 128.495 214.534 128.849 214.202 129.1C213.869 129.351 213.445 129.477 212.929 129.477C212.278 129.477 211.762 129.277 211.38 128.876C210.999 128.475 210.809 127.913 210.809 127.189C210.809 126.44 211.001 125.859 211.387 125.446C211.773 125.032 212.272 124.826 212.887 124.826C213.482 124.826 213.968 125.029 214.345 125.433C214.722 125.838 214.91 126.408 214.91 127.143C214.91 127.187 214.908 127.255 214.906 127.344H211.588C211.615 127.833 211.754 128.207 212.002 128.467C212.251 128.727 212.561 128.857 212.933 128.857C213.209 128.857 213.446 128.784 213.641 128.639C213.836 128.494 213.991 128.262 214.106 127.944ZM211.63 126.725H214.114C214.08 126.351 213.985 126.07 213.829 125.883C213.589 125.593 213.277 125.447 212.895 125.447C212.549 125.447 212.257 125.563 212.022 125.795C211.785 126.026 211.654 126.336 211.63 126.725Z" fill="#263238"/>
</g>
<g opacity="0.6">
<path d="M175.418 156.369V150.227H179.859V150.952H176.23V152.833H179.628V153.554H176.23V155.645H180.001V156.37L175.418 156.369Z" fill="#263238"/>
<path d="M181.027 156.369V151.92H181.702V152.544C181.842 152.326 182.027 152.151 182.259 152.018C182.491 151.886 182.755 151.819 183.051 151.819C183.381 151.819 183.652 151.887 183.862 152.024C184.073 152.161 184.222 152.352 184.308 152.598C184.661 152.078 185.119 151.819 185.683 151.819C186.123 151.819 186.463 151.941 186.701 152.186C186.938 152.43 187.058 152.807 187.058 153.315V156.369H186.308V153.566C186.308 153.264 186.284 153.047 186.235 152.914C186.186 152.782 186.097 152.675 185.968 152.594C185.84 152.513 185.689 152.472 185.516 152.472C185.203 152.472 184.944 152.576 184.737 152.784C184.53 152.993 184.427 153.326 184.427 153.784V156.369H183.672V153.478C183.672 153.143 183.611 152.891 183.488 152.724C183.365 152.557 183.164 152.473 182.884 152.473C182.671 152.473 182.475 152.529 182.295 152.64C182.114 152.752 181.984 152.915 181.903 153.13C181.822 153.345 181.781 153.655 181.781 154.06V156.369H181.027Z" fill="#263238"/>
<path d="M191.078 155.82C190.799 156.057 190.53 156.225 190.271 156.323C190.013 156.421 189.736 156.469 189.44 156.469C188.951 156.469 188.576 156.349 188.313 156.111C188.05 155.872 187.918 155.567 187.918 155.196C187.918 154.978 187.968 154.779 188.067 154.599C188.166 154.419 188.296 154.274 188.457 154.165C188.617 154.056 188.798 153.974 188.999 153.918C189.147 153.879 189.371 153.841 189.67 153.805C190.278 153.732 190.727 153.646 191.015 153.545C191.018 153.441 191.019 153.376 191.019 153.348C191.019 153.04 190.948 152.824 190.805 152.699C190.613 152.529 190.326 152.443 189.947 152.443C189.593 152.443 189.331 152.506 189.162 152.629C188.992 152.754 188.867 152.973 188.787 153.289L188.049 153.188C188.116 152.872 188.227 152.618 188.38 152.424C188.534 152.23 188.756 152.08 189.047 151.975C189.337 151.87 189.674 151.818 190.056 151.818C190.436 151.818 190.745 151.862 190.983 151.952C191.22 152.041 191.394 152.154 191.506 152.289C191.617 152.425 191.695 152.596 191.74 152.802C191.765 152.93 191.778 153.162 191.778 153.497V154.503C191.778 155.204 191.794 155.648 191.826 155.833C191.858 156.019 191.922 156.197 192.016 156.367H191.229C191.151 156.212 191.101 156.029 191.078 155.82ZM191.016 154.136C190.743 154.248 190.332 154.343 189.785 154.421C189.474 154.466 189.256 154.516 189.127 154.572C188.998 154.628 188.899 154.71 188.829 154.817C188.76 154.924 188.725 155.044 188.725 155.175C188.725 155.376 188.801 155.544 188.954 155.677C189.106 155.811 189.329 155.878 189.622 155.878C189.913 155.878 190.171 155.814 190.397 155.688C190.624 155.56 190.79 155.387 190.896 155.166C190.976 154.996 191.017 154.745 191.017 154.412V154.136H191.016Z" fill="#263238"/>
<path d="M192.951 151.094V150.227H193.706V151.094H192.951ZM192.951 156.369V151.92H193.706V156.369H192.951Z" fill="#263238"/>
<path d="M194.838 156.369V150.227H195.592V156.369H194.838Z" fill="#263238"/>
</g>
<g opacity="0.6">
<path d="M286.137 129.376V123.234H286.95V128.651H289.974V129.376H286.137Z" fill="#263238"/>
<path d="M293.748 128.828C293.469 129.065 293.2 129.233 292.941 129.331C292.683 129.429 292.406 129.477 292.11 129.477C291.621 129.477 291.246 129.357 290.983 129.119C290.72 128.88 290.588 128.575 290.588 128.203C290.588 127.985 290.638 127.787 290.738 127.606C290.837 127.426 290.966 127.281 291.128 127.172C291.288 127.063 291.469 126.981 291.67 126.924C291.818 126.885 292.042 126.847 292.341 126.811C292.949 126.738 293.398 126.652 293.686 126.551C293.689 126.447 293.69 126.382 293.69 126.354C293.69 126.046 293.619 125.83 293.476 125.704C293.284 125.534 292.997 125.448 292.618 125.448C292.264 125.448 292.002 125.511 291.833 125.635C291.663 125.759 291.538 125.979 291.458 126.295L290.72 126.194C290.787 125.879 290.898 125.624 291.051 125.43C291.205 125.236 291.427 125.086 291.718 124.981C292.008 124.877 292.345 124.824 292.727 124.824C293.107 124.824 293.415 124.868 293.654 124.958C293.891 125.047 294.065 125.16 294.177 125.295C294.288 125.431 294.366 125.602 294.411 125.808C294.436 125.936 294.449 126.168 294.449 126.503V127.509C294.449 128.21 294.465 128.653 294.497 128.839C294.529 129.025 294.593 129.203 294.687 129.373H293.9C293.821 129.22 293.771 129.037 293.748 128.828ZM293.686 127.144C293.413 127.256 293.001 127.35 292.455 127.429C292.144 127.474 291.926 127.524 291.797 127.58C291.668 127.636 291.569 127.718 291.499 127.825C291.43 127.932 291.394 128.052 291.394 128.183C291.394 128.384 291.47 128.552 291.623 128.686C291.775 128.82 291.998 128.887 292.291 128.887C292.582 128.887 292.84 128.824 293.066 128.697C293.293 128.57 293.459 128.396 293.565 128.175C293.645 128.005 293.686 127.754 293.686 127.421V127.144Z" fill="#263238"/>
<path d="M295.314 128.048L296.06 127.931C296.102 128.23 296.218 128.459 296.41 128.618C296.601 128.777 296.869 128.857 297.213 128.857C297.559 128.857 297.817 128.787 297.984 128.646C298.152 128.505 298.236 128.339 298.236 128.149C298.236 127.979 298.162 127.845 298.013 127.747C297.91 127.68 297.653 127.595 297.242 127.492C296.688 127.352 296.305 127.232 296.092 127.13C295.878 127.028 295.716 126.887 295.606 126.707C295.496 126.527 295.441 126.328 295.441 126.11C295.441 125.912 295.486 125.728 295.577 125.559C295.668 125.39 295.792 125.25 295.948 125.138C296.065 125.051 296.225 124.978 296.427 124.918C296.63 124.858 296.847 124.828 297.078 124.828C297.428 124.828 297.734 124.878 297.998 124.979C298.262 125.08 298.457 125.215 298.583 125.387C298.708 125.559 298.795 125.789 298.843 126.076L298.106 126.177C298.072 125.948 297.975 125.769 297.814 125.64C297.654 125.511 297.427 125.448 297.133 125.448C296.787 125.448 296.539 125.505 296.392 125.619C296.244 125.734 296.169 125.868 296.169 126.021C296.169 126.119 296.2 126.207 296.262 126.285C296.324 126.366 296.419 126.433 296.551 126.486C296.626 126.514 296.848 126.578 297.217 126.678C297.75 126.821 298.122 126.937 298.333 127.028C298.544 127.119 298.71 127.251 298.83 127.424C298.95 127.597 299.01 127.812 299.01 128.069C299.01 128.32 298.937 128.557 298.79 128.779C298.643 129.001 298.432 129.173 298.155 129.295C297.879 129.417 297.566 129.477 297.216 129.477C296.638 129.477 296.197 129.357 295.894 129.117C295.592 128.876 295.399 128.52 295.314 128.048Z" fill="#263238"/>
<path d="M301.554 128.702L301.663 129.368C301.45 129.412 301.261 129.435 301.093 129.435C300.82 129.435 300.608 129.391 300.456 129.305C300.306 129.219 300.199 129.105 300.138 128.964C300.077 128.823 300.046 128.526 300.046 128.074V125.514H299.492V124.927H300.046V123.825L300.796 123.372V124.927H301.554V125.514H300.796V128.116C300.796 128.331 300.809 128.47 300.835 128.531C300.862 128.592 300.905 128.641 300.965 128.677C301.026 128.713 301.111 128.732 301.223 128.732C301.307 128.731 301.417 128.722 301.554 128.702Z" fill="#263238"/>
<path d="M304.674 129.376V124.927H305.353V125.559C305.68 125.07 306.152 124.826 306.769 124.826C307.038 124.826 307.284 124.874 307.508 124.971C307.734 125.067 307.901 125.194 308.013 125.35C308.125 125.507 308.203 125.692 308.248 125.907C308.275 126.047 308.29 126.291 308.29 126.64V129.376H307.535V126.669C307.535 126.362 307.506 126.132 307.447 125.98C307.388 125.828 307.285 125.706 307.136 125.615C306.987 125.524 306.811 125.479 306.61 125.479C306.289 125.479 306.011 125.581 305.779 125.785C305.546 125.989 305.428 126.375 305.428 126.945V129.375H304.674V129.376Z" fill="#263238"/>
<path d="M312.351 128.828C312.072 129.065 311.803 129.233 311.544 129.331C311.286 129.429 311.009 129.477 310.713 129.477C310.224 129.477 309.849 129.357 309.586 129.119C309.323 128.88 309.191 128.575 309.191 128.203C309.191 127.985 309.241 127.787 309.34 127.606C309.439 127.426 309.568 127.281 309.73 127.172C309.89 127.063 310.071 126.981 310.272 126.924C310.42 126.885 310.644 126.847 310.943 126.811C311.551 126.738 312 126.652 312.288 126.551C312.291 126.447 312.292 126.382 312.292 126.354C312.292 126.046 312.221 125.83 312.078 125.704C311.886 125.534 311.6 125.448 311.22 125.448C310.866 125.448 310.604 125.511 310.435 125.635C310.265 125.759 310.14 125.979 310.06 126.295L309.322 126.194C309.389 125.879 309.5 125.624 309.653 125.43C309.807 125.236 310.029 125.086 310.32 124.981C310.61 124.877 310.947 124.824 311.329 124.824C311.709 124.824 312.018 124.868 312.256 124.958C312.493 125.047 312.667 125.16 312.779 125.295C312.89 125.431 312.968 125.602 313.013 125.808C313.038 125.936 313.051 126.168 313.051 126.503V127.509C313.051 128.21 313.067 128.653 313.099 128.839C313.131 129.025 313.195 129.203 313.29 129.373H312.503C312.424 129.22 312.373 129.037 312.351 128.828ZM312.288 127.144C312.015 127.256 311.603 127.35 311.056 127.429C310.745 127.474 310.527 127.524 310.398 127.58C310.269 127.636 310.17 127.718 310.1 127.825C310.031 127.932 309.995 128.052 309.995 128.183C309.995 128.384 310.071 128.552 310.224 128.686C310.376 128.82 310.599 128.887 310.892 128.887C311.183 128.887 311.441 128.824 311.667 128.697C311.894 128.57 312.06 128.396 312.166 128.175C312.246 128.005 312.287 127.754 312.287 127.421V127.144H312.288Z" fill="#263238"/>
<path d="M314.219 129.376V124.927H314.894V125.551C315.034 125.333 315.219 125.158 315.451 125.025C315.683 124.893 315.947 124.826 316.243 124.826C316.573 124.826 316.844 124.894 317.053 125.031C317.264 125.168 317.413 125.359 317.499 125.605C317.852 125.085 318.31 124.826 318.874 124.826C319.314 124.826 319.654 124.948 319.892 125.193C320.129 125.437 320.248 125.814 320.248 126.322V129.376H319.498V126.573C319.498 126.271 319.474 126.054 319.425 125.921C319.376 125.789 319.287 125.682 319.158 125.601C319.03 125.52 318.879 125.479 318.706 125.479C318.393 125.479 318.134 125.583 317.927 125.791C317.72 125.999 317.617 126.332 317.617 126.79V129.375H316.862V126.484C316.862 126.149 316.801 125.897 316.678 125.73C316.555 125.563 316.354 125.479 316.074 125.479C315.861 125.479 315.665 125.535 315.485 125.647C315.304 125.759 315.175 125.922 315.093 126.137C315.012 126.352 314.971 126.662 314.971 127.067V129.376H314.219Z" fill="#263238"/>
<path d="M324.41 127.944L325.189 128.04C325.066 128.495 324.838 128.849 324.506 129.1C324.173 129.351 323.749 129.477 323.233 129.477C322.582 129.477 322.066 129.277 321.684 128.876C321.303 128.475 321.113 127.913 321.113 127.189C321.113 126.44 321.305 125.859 321.691 125.446C322.077 125.032 322.576 124.826 323.191 124.826C323.786 124.826 324.272 125.029 324.649 125.433C325.026 125.838 325.214 126.408 325.214 127.143C325.214 127.187 325.212 127.255 325.21 127.344H321.892C321.919 127.833 322.058 128.207 322.306 128.467C322.555 128.727 322.865 128.857 323.237 128.857C323.513 128.857 323.75 128.784 323.945 128.639C324.141 128.494 324.296 128.262 324.41 127.944ZM321.935 126.725H324.419C324.385 126.351 324.29 126.07 324.134 125.883C323.894 125.593 323.582 125.447 323.199 125.447C322.853 125.447 322.561 125.563 322.326 125.795C322.09 126.026 321.959 126.336 321.935 126.725Z" fill="#263238"/>
</g>
<path d="M299.036 189.915H333.238C336.241 189.915 338.698 192.372 338.698 195.375V201.556C338.698 204.559 336.241 207.016 333.238 207.016H299.036C296.033 207.016 293.576 204.559 293.576 201.556V195.375C293.576 192.372 296.033 189.915 299.036 189.915Z" fill="#8D1B3D"/>
<path opacity="0.2" d="M353.636 189.915H387.838C390.841 189.915 393.298 192.372 393.298 195.375V201.556C393.298 204.559 390.841 207.016 387.838 207.016H353.636C350.633 207.016 348.176 204.559 348.176 201.556V195.375C348.176 192.372 350.633 189.915 353.636 189.915Z" fill="#8D1B3D"/>
<path d="M136.806 33.1759C129.42 32.0669 127.744 38.7789 119.975 38.5149C121.197 42.5859 125.25 44.3109 125.25 44.3109C125.25 44.3109 119.08 48.7949 120.456 55.4909C125.291 50.0199 131.784 55.2129 138.846 54.9959C153.52 54.5449 158.817 47.7469 153.736 41.9159C158.459 35.9429 145.554 32.7399 145.846 28.2879C144.369 28.9759 144.424 31.8169 144.424 31.8169C144.424 31.8169 139.097 32.2689 134.503 28.5379C134.314 31.2809 136.806 33.1759 136.806 33.1759Z" fill="#263238"/>
<path d="M150.961 41.6419C154.255 42.2679 156.388 39.7989 156.408 37.7569C158.751 42.6949 155.138 45.3829 150.961 41.6419Z" fill="#263238"/>
<path d="M157.895 342.789L150.936 346.798L140.689 331.337L147.648 327.328L157.895 342.789Z" fill="#FF8B7B"/>
<path d="M150.104 346.209L157.922 341.705C158.207 341.541 158.536 341.614 158.714 341.879L162.679 347.795C163.09 348.409 162.84 349.358 162.178 349.724C159.429 351.246 158.036 351.836 154.598 353.816C152.483 355.034 144.844 359.121 139.202 358.691C135.915 358.44 135.841 355.439 137.261 355.11C143.63 353.636 148.083 349.985 149.153 347.323C149.347 346.844 149.688 346.449 150.104 346.209Z" fill="#263238"/>
<path opacity="0.2" d="M147.652 327.332L140.691 331.342L145.976 339.31L152.938 335.299L147.652 327.332Z" fill="black"/>
<path d="M108.993 147.937C108.993 147.937 92.1497 214.173 90.3927 237.058C88.4687 262.119 141.73 338.438 141.73 338.438L154.761 331.623C154.761 331.623 130.101 288.091 113.646 238.868C121.636 213.114 137.544 150.116 137.544 150.116L108.993 147.937Z" fill="#8D1B3D"/>
<g opacity="0.3">
<path d="M108.993 147.937C108.993 147.937 92.1497 214.173 90.3927 237.058C88.4687 262.119 141.73 338.438 141.73 338.438L154.761 331.623C154.761 331.623 130.101 288.091 113.646 238.868C121.636 213.114 137.544 150.116 137.544 150.116L108.993 147.937Z" fill="white"/>
</g>
<path opacity="0.4" d="M123.914 173.975C117.308 185.546 115.077 213.211 116.774 228.32C121.395 212.229 127.221 190.15 131.533 173.559C128.626 171.321 125.78 170.703 123.914 173.975Z" fill="#8D1B3D"/>
<path d="M155.215 331.582L141.266 338.89L137.234 334.211L153.764 326.854L155.215 331.582Z" fill="#8D1B3D"/>
<path d="M148.341 348.832C148.984 348.462 149.618 347.921 150.051 347.517C150.105 347.467 150.124 347.39 150.1 347.321C150.075 347.251 150.012 347.203 149.939 347.197C149.627 347.172 146.876 346.971 146.22 347.792C146.067 347.982 146.029 348.214 146.109 348.465C146.24 348.878 146.48 349.132 146.822 349.221C147.257 349.333 147.802 349.143 148.341 348.832ZM149.469 347.541C148.368 348.504 147.429 348.994 146.917 348.861C146.705 348.806 146.557 348.64 146.466 348.353C146.424 348.22 146.439 348.116 146.513 348.024C146.866 347.582 148.363 347.496 149.469 347.541Z" fill="#8D1B3D"/>
<path d="M150.015 347.543C150.04 347.529 150.062 347.508 150.079 347.482C150.114 347.428 150.118 347.36 150.09 347.302C150.048 347.214 149.044 345.139 147.949 344.872C147.654 344.8 147.379 344.859 147.13 345.044C146.832 345.267 146.724 345.56 146.827 345.87C147.107 346.715 148.987 347.558 149.919 347.568C149.954 347.568 149.987 347.559 150.015 347.543ZM147.429 345.293C147.564 345.215 147.705 345.196 147.86 345.234C148.513 345.392 149.235 346.497 149.599 347.163C148.698 347.005 147.367 346.308 147.184 345.754C147.149 345.649 147.137 345.506 147.357 345.342C147.38 345.323 147.405 345.307 147.429 345.293Z" fill="#8D1B3D"/>
<path d="M120.903 91.1059L113.665 103.553C112.482 105.623 111.313 107.687 110.219 109.718C109.677 110.73 109.177 111.747 108.705 112.704C108.245 113.638 107.83 114.637 107.652 115.133L107.264 111.433C107.362 111.889 107.42 112.358 107.508 112.794C107.608 113.207 107.656 113.673 107.758 114.056C107.834 114.468 107.924 114.869 108.013 115.261L108.143 115.842C108.164 115.947 108.177 116.035 108.186 116.129C108.18 116.169 108.198 116.232 108.174 116.268C108.132 116.309 108.218 116.366 107.967 116.369C109.724 116.64 110.93 118.284 110.659 120.042C110.388 121.799 108.744 123.005 106.986 122.734C106.567 122.706 106.487 122.719 106.282 122.71L105.783 122.687C105.474 122.657 105.169 122.619 104.885 122.568C104.307 122.456 103.771 122.305 103.249 122.11C102.213 121.721 101.3 121.18 100.464 120.576C99.6359 119.954 98.9119 119.284 98.2669 118.552C97.9529 118.189 97.6629 117.82 97.3609 117.444C97.0829 117.075 96.8399 116.683 96.5809 116.296C95.9969 115.426 95.8239 114.4 96.0169 113.448L96.1919 112.596C96.5819 110.7 97.0499 109.399 97.5239 108.065C97.9949 106.756 98.5219 105.541 99.0399 104.339C100.082 101.948 101.191 99.6599 102.347 97.4129C103.488 95.1599 104.699 92.9629 105.928 90.7839C107.173 88.6019 108.425 86.4799 109.809 84.3289L109.813 84.3229C111.755 81.3029 115.778 80.4289 118.798 82.3709C121.733 84.2559 122.634 88.1189 120.903 91.1059Z" fill="#FF8B7B"/>
<path d="M116.847 79.0409C124.99 78.4279 128.987 84.1849 125.11 93.6609C122.979 98.8899 119.629 105.095 117.175 109.423C116.53 110.571 115.936 111.592 115.453 112.415L99.1348 99.7029C102.305 92.1939 111.4 79.4519 116.847 79.0409Z" fill="#263238"/>
<path opacity="0.3" d="M115.069 88.3119C120.47 84.8149 112.963 101.238 109.866 108.064L105.072 104.327C106.364 99.4629 110.922 90.9979 115.069 88.3119Z" fill="black"/>
<path d="M137.889 354.137L129.9 353.527L130.128 334.935L138.117 335.545L137.889 354.137Z" fill="#FF8B7B"/>
<path d="M129.545 352.57L138.521 353.255C138.848 353.28 139.078 353.526 139.076 353.846L139.025 360.985C139.02 361.726 138.281 362.37 137.529 362.3C134.408 362.008 132.928 361.71 128.981 361.409C126.553 361.224 116.211 360.688 112.858 360.432C109.578 360.182 109.827 356.866 111.269 356.674C117.734 355.813 125.759 354.558 128.136 352.957C128.564 352.668 129.067 352.533 129.545 352.57Z" fill="#263238"/>
<path opacity="0.2" d="M138.12 335.551L130.128 334.94L130.014 344.524L138.006 345.134L138.12 335.551Z" fill="black"/>
<path d="M124.592 149.128C124.592 149.128 119.685 209.754 119.415 232.74C119.119 257.912 126.744 341.959 126.744 341.959L141.377 343.076C141.377 343.076 140.283 261.562 142.862 236.814C145.661 209.954 151.722 151.199 151.722 151.199L124.592 149.128Z" fill="#8D1B3D"/>
<path opacity="0.3" d="M124.592 149.128C124.592 149.128 119.685 209.754 119.415 232.74C119.119 257.912 126.744 341.959 126.744 341.959L141.377 343.076C141.377 343.076 140.283 261.562 142.862 236.814C145.661 209.954 151.722 151.199 151.722 151.199L124.592 149.128Z" fill="white"/>
<path d="M141.965 343.121L126.153 341.914L125.656 336.291L143.048 338.491L141.965 343.121Z" fill="#8D1B3D"/>
<path d="M126.618 353.746C127.356 353.802 128.183 353.712 128.766 353.623C128.839 353.612 128.898 353.559 128.916 353.488C128.935 353.416 128.91 353.341 128.853 353.294C128.61 353.097 126.454 351.377 125.452 351.686C125.22 351.757 125.057 351.928 124.982 352.18C124.858 352.596 124.914 352.942 125.146 353.209C125.443 353.548 125.999 353.699 126.618 353.746ZM128.273 353.314C126.824 353.49 125.775 353.365 125.427 352.965C125.283 352.8 125.255 352.579 125.34 352.289C125.38 352.156 125.451 352.077 125.564 352.043C126.104 351.878 127.387 352.653 128.273 353.314Z" fill="#8D1B3D"/>
<path d="M128.723 353.624C128.752 353.626 128.782 353.622 128.81 353.61C128.869 353.585 128.911 353.531 128.92 353.468C128.934 353.371 129.271 351.086 128.518 350.247C128.315 350.021 128.055 349.914 127.747 349.927C127.376 349.943 127.122 350.125 127.033 350.439C126.789 351.297 127.866 353.056 128.63 353.591C128.658 353.611 128.69 353.622 128.723 353.624ZM127.853 350.301C128.008 350.313 128.136 350.377 128.242 350.495C128.692 350.995 128.667 352.317 128.593 353.074C127.939 352.434 127.232 351.105 127.392 350.543C127.422 350.436 127.493 350.311 127.766 350.299C127.796 350.298 127.825 350.299 127.853 350.301Z" fill="#8D1B3D"/>
<path d="M108.993 147.937L151.722 151.199C152.285 147.405 152.251 134.915 153.99 119.147C155.159 108.559 157.132 96.4939 160.621 84.5989C160.874 83.7509 161.126 82.9139 161.39 82.0669C161.39 82.0669 159.254 81.4589 156.182 80.7699C153.632 80.1959 150.426 79.5609 147.268 79.1679C141.833 78.4929 133.946 77.7169 129.11 77.7819C126.301 77.8279 123.543 78.0839 121.337 78.3379C118.518 78.6869 116.847 79.0409 116.847 79.0409C116.847 79.0409 107.522 101.911 108.993 147.937Z" fill="#8D1B3D"/>
<path d="M110.887 115.473C110.887 115.473 112.543 113.085 114.055 112.361C115.133 111.845 115.955 111.327 116.441 110.994C116.778 110.763 117.232 111.002 117.257 111.412C117.294 112.04 116.962 113.044 115.312 114.417C115.047 116.384 111.981 118.33 111.981 118.33L110.887 115.473Z" fill="#FF8B7B"/>
<path opacity="0.3" d="M117.045 120.741L125.923 121.419L121.113 103.438L112.234 102.76L117.045 120.741Z" fill="black"/>
<path d="M116.439 120.695L125.318 121.373L120.508 103.392L111.629 102.714L116.439 120.695Z" fill="white"/>
<path opacity="0.3" d="M153.989 119.151C155.158 108.563 157.131 96.4979 160.621 84.6029C157.782 84.1369 152.881 84.0439 151.757 88.5979C150.545 93.4909 150.846 105.242 153.989 119.151Z" fill="black"/>
<path d="M164.394 88.3139C164.842 89.7079 165.198 90.9189 165.541 92.2229C165.893 93.5039 166.194 94.7939 166.489 96.0869C167.057 98.6789 167.576 101.287 167.937 103.953C168.308 106.62 168.598 109.313 168.69 112.091C168.791 114.874 168.719 117.72 168.317 120.709L168.274 121.031C168.106 122.282 167.524 123.379 166.689 124.2C166.002 124.875 165.339 125.325 164.727 125.683C164.141 126.008 163.567 126.272 163.068 126.453C162.044 126.838 161.153 127.044 160.313 127.193C158.643 127.483 157.166 127.565 155.724 127.602C152.86 127.663 150.185 127.42 147.544 127.13C144.909 126.808 142.328 126.388 139.774 125.872C137.212 125.346 134.715 124.773 132.164 124.021C130.442 123.513 129.457 121.705 129.966 119.983C130.38 118.581 131.655 117.668 133.044 117.651H133.106L140.562 117.568C143.042 117.53 145.506 117.48 147.924 117.356C150.335 117.256 152.725 117.054 154.906 116.746C155.984 116.587 157.026 116.379 157.825 116.12C158.217 115.991 158.548 115.852 158.694 115.759C158.785 115.712 158.773 115.683 158.736 115.697C158.66 115.722 158.51 115.795 158.27 116.023L156.641 119.514C156.706 117.462 156.546 115.237 156.316 112.974C156.057 110.704 155.659 108.381 155.233 106.053C154.779 103.725 154.272 101.377 153.712 99.0389C153.445 97.8669 153.14 96.6999 152.851 95.5349L151.966 92.1339L151.915 91.9389C151.011 88.4649 153.095 84.9169 156.568 84.0129C159.919 83.1419 163.342 85.0639 164.394 88.3139Z" fill="#FF8B7B"/>
<path d="M161.39 82.0669C153.571 79.6159 148.895 84.6179 150.197 94.8109C150.908 100.433 152.9 107.19 154.379 111.968L171.611 106.667C170.107 98.6239 166.62 83.7079 161.39 82.0669Z" fill="#263238"/>
<path d="M129.976 77.7829C135.342 76.9359 136.492 73.7389 136.382 70.1209C136.366 69.2419 136.277 68.3239 136.145 67.4139L143.138 62.4199L148.274 58.7579C146.526 64.5109 144.277 75.0589 147.966 79.2639C147.966 79.2639 140.808 84.5439 132.098 87.9449C130.722 88.4819 129.129 87.7669 128.694 86.3549C127.027 80.9399 129.976 77.7829 129.976 77.7829Z" fill="#FF8B7B"/>
<path opacity="0.2" d="M136.145 67.4139C136.278 68.3239 136.367 69.2409 136.382 70.1209C138.884 69.8129 142.764 67.8979 143.313 65.1399C143.501 64.1999 143.157 63.0829 143.137 62.4199L136.145 67.4139Z" fill="black"/>
<path d="M148.688 46.9189C149.064 54.8909 149.686 59.5279 146.161 64.1269C140.859 71.0449 130.774 68.7449 128.044 61.1089C125.587 54.2349 125.384 42.3529 132.728 38.1579C139.963 34.0249 148.311 38.9469 148.688 46.9189Z" fill="#FF8B7B"/>
<path d="M145.353 42.0819C143.1 46.1549 144.814 49.1379 144.814 49.1379L145.231 47.2209C145.231 47.2209 148.072 50.2379 147.266 53.6989C152.211 51.0509 152.771 40.7509 145.353 42.0819Z" fill="#263238"/>
<path d="M149.506 43.3019C140.503 45.2789 135.438 44.3749 133.839 44.0269C137.607 43.7729 138.597 42.0629 138.597 42.0629C138.597 42.0629 129.615 44.2679 127.768 43.5629C129.581 38.0769 133.793 35.5539 142.304 35.8869C150.814 36.2209 149.506 43.3019 149.506 43.3019Z" fill="#263238"/>
<path d="M152.521 54.3439C151.608 56.3149 150.012 57.7529 148.507 58.4339C146.243 59.4569 145.121 57.3909 145.759 54.9479C146.333 52.7489 148.203 49.5669 150.471 49.5779C152.705 49.5889 153.564 52.0899 152.521 54.3439Z" fill="#FF8B7B"/>
<path d="M137.018 50.7529C137.088 51.3969 136.806 51.9649 136.388 52.0219C135.97 52.0789 135.575 51.6029 135.505 50.9589C135.435 50.3149 135.717 49.7469 136.135 49.6899C136.553 49.6329 136.948 50.1089 137.018 50.7529Z" fill="#263238"/>
<path d="M129.791 51.7379C129.861 52.3819 129.579 52.9499 129.161 53.0069C128.743 53.0639 128.348 52.5879 128.278 51.9439C128.208 51.2999 128.49 50.7319 128.908 50.6749C129.326 50.6189 129.721 51.0939 129.791 51.7379Z" fill="#263238"/>
<path d="M132.124 51.7449C132.124 51.7449 131.073 55.6569 129.668 57.6669C130.914 58.5759 132.785 57.8279 132.785 57.8279L132.124 51.7449Z" fill="#FF5652"/>
<path d="M135.583 59.2059C138.041 58.5669 139.006 56.6719 139.049 56.5839C139.095 56.4909 139.057 56.3759 138.963 56.3289C138.869 56.2809 138.756 56.3199 138.709 56.4129C138.698 56.4339 137.603 58.5929 134.791 58.9739C134.686 58.9879 134.615 59.0839 134.631 59.1879C134.646 59.2919 134.742 59.3649 134.846 59.3499C135.105 59.3159 135.351 59.2669 135.583 59.2059Z" fill="#263238"/>
<path d="M138.999 48.0989C139.059 48.0829 139.116 48.0529 139.164 48.0069C139.314 47.8619 139.319 47.6219 139.173 47.4699C137.732 45.9659 136.008 46.3049 135.936 46.3209C135.739 46.3419 135.601 46.5639 135.645 46.7699C135.689 46.9749 135.891 47.1069 136.095 47.0649C136.167 47.0509 137.495 46.8119 138.627 47.9939C138.727 48.0969 138.87 48.1319 138.999 48.0989Z" fill="#263238"/>
<path d="M126.413 49.6599C126.53 49.6289 126.63 49.5429 126.673 49.4209C127.243 47.7949 128.6 47.4159 128.613 47.4129C128.815 47.3589 128.934 47.1509 128.879 46.9489C128.824 46.7469 128.617 46.6259 128.415 46.6789L128.413 46.6799C128.341 46.6989 126.657 47.1689 125.957 49.1649C125.888 49.3619 125.992 49.5799 126.19 49.6509C126.265 49.6759 126.342 49.6779 126.413 49.6599Z" fill="#263238"/>
<path d="M134.797 118.371L126.594 113.304L127.348 123.388C127.348 123.388 134.217 125.85 135.163 122.208L134.797 118.371Z" fill="#FF8B7B"/>
<path d="M129.2 114.912C129.2 114.912 127.499 112.53 125.974 111.81C124.887 111.297 123.854 110.376 123.362 110.045C123.02 109.815 122.571 110.056 122.554 110.466C122.528 111.094 123.079 112.503 124.755 113.87C125.057 115.836 128.159 117.773 128.159 117.773L129.2 114.912Z" fill="#FF8B7B"/>
<path d="M119.501 114.154L120.226 120.465C120.289 121.009 120.673 121.463 121.199 121.615L127.348 123.388L126.588 113.392L120.997 112.676C120.135 112.564 119.402 113.289 119.501 114.154Z" fill="#FF8B7B"/>
<path d="M106.962 117.071L114.069 113.476L113.893 122.361C113.893 122.361 106.518 124.56 106.078 120.813L106.962 117.071Z" fill="#FF8B7B"/>
<path d="M117.184 113.811L117.185 120.827C117.185 121.223 116.92 121.567 116.539 121.667L113.895 122.361L114.071 113.476L116.086 112.957C116.641 112.814 117.184 113.236 117.184 113.811Z" fill="#FF8B7B"/>
<path d="M333.16 236.907C339.871 243.589 338.899 250.371 334.118 255.173C329.338 259.974 322.559 260.976 315.848 254.294C309.137 247.612 305.036 235.778 309.816 230.977C314.597 226.175 326.449 230.225 333.16 236.907Z" fill="#8D1B3D"/>
<path d="M356.91 280.742C348.615 282.205 343.617 278.281 341.879 272.659C340.141 267.037 342.32 261.846 350.615 260.383C358.91 258.92 370.179 261.738 371.917 267.36C373.656 272.982 365.205 279.279 356.91 280.742Z" fill="#8D1B3D"/>
<path d="M313.125 293.868C319.103 295.844 323.223 293.479 325.114 289.507C327.005 285.535 325.952 281.461 319.974 279.485C313.996 277.509 305.357 278.381 303.465 282.352C301.574 286.324 307.147 291.892 313.125 293.868Z" fill="#8D1B3D"/>
<path d="M361.552 236.524C355.808 244.385 348.717 245.034 343.037 241.638C337.356 238.243 335.236 232.089 340.981 224.228C346.725 216.367 358.158 209.775 363.839 213.171C369.52 216.566 367.297 228.663 361.552 236.524Z" fill="#8D1B3D"/>
<path d="M328.088 339.605C327.56 339.605 327.118 339.191 327.09 338.657C324.014 279.401 346.462 233.368 346.689 232.91C346.935 232.415 347.534 232.211 348.029 232.459C348.524 232.704 348.726 233.304 348.481 233.799C348.256 234.252 326.039 279.843 329.087 338.554C329.116 339.106 328.692 339.575 328.14 339.605C328.123 339.605 328.105 339.605 328.088 339.605Z" fill="#263238"/>
<path d="M336.39 265.645C336.358 265.645 336.327 265.643 336.294 265.64C335.745 265.588 335.341 265.1 335.393 264.551C335.405 264.421 336.508 251.512 327.658 247.277C327.16 247.039 326.949 246.441 327.188 245.943C327.426 245.444 328.025 245.236 328.521 245.472C338.637 250.314 337.439 264.153 337.384 264.74C337.335 265.257 336.899 265.645 336.39 265.645Z" fill="#263238"/>
<path d="M329.142 303.676C328.627 303.676 328.19 303.28 328.146 302.759C328.136 302.635 326.991 290.35 316.214 286.933C315.688 286.766 315.396 286.205 315.563 285.678C315.73 285.15 316.293 284.859 316.818 285.027C328.891 288.854 330.128 302.46 330.138 302.596C330.182 303.147 329.773 303.628 329.223 303.673C329.197 303.675 329.169 303.676 329.142 303.676Z" fill="#263238"/>
<path d="M331.304 288.383C331.224 288.383 331.144 288.374 331.064 288.354C330.528 288.222 330.2 287.68 330.332 287.144C335.013 268.153 349.777 268.606 349.929 268.608C350.481 268.633 350.908 269.1 350.883 269.652C350.858 270.205 350.389 270.638 349.839 270.606C349.303 270.588 336.55 270.275 332.274 287.623C332.161 288.078 331.753 288.383 331.304 288.383Z" fill="#263238"/>
<path d="M369.65 330.897C369.65 343.172 364.035 354.154 355.208 361.453C354.577 361.975 353.839 362.234 353.096 362.234H305.644C304.901 362.234 304.163 361.975 303.532 361.453C294.705 354.154 289.09 343.172 289.09 330.897C289.09 327.005 289.651 323.242 290.708 319.693C290.711 319.682 290.715 319.67 290.718 319.659C291.316 317.646 292.814 316.359 294.445 316.359H364.295C365.926 316.359 367.425 317.646 368.022 319.659C368.025 319.67 368.029 319.682 368.032 319.693C369.089 323.242 369.65 327.005 369.65 330.897Z" fill="#8D1B3D"/>
<path d="M369.53 333.812C346.576 341.269 323.928 350.061 301.947 360.072C302.221 360.324 302.508 360.562 302.788 360.806C324.474 350.948 346.802 342.271 369.436 334.901C369.473 334.54 369.503 334.177 369.53 333.812Z" fill="white"/>
<path d="M355.147 316.359H353.413C334.932 329.429 316.959 343.531 299.445 357.543C299.67 357.789 299.893 358.036 300.124 358.277C317.973 343.998 336.303 329.627 355.147 316.359Z" fill="white"/>
<path d="M343.902 362.234C352.201 355.432 360.344 348.398 368.278 341.187C368.434 340.609 368.582 340.028 368.712 339.44C360.144 347.266 351.327 354.888 342.328 362.234H343.902Z" fill="white"/>
<path d="M343.951 316.359C325.083 322.546 307.385 332.325 290.883 342.645C290.986 342.973 291.088 343.302 291.199 343.627C308.582 332.745 327.289 322.455 347.266 316.359H343.951Z" fill="white"/>
<path d="M289.695 324.103C295.021 321.291 300.468 318.712 306.012 316.36H303.512C298.91 318.371 294.373 320.528 289.923 322.856C289.837 323.268 289.768 323.686 289.695 324.103Z" fill="white"/>
<path d="M314.538 316.359H313.064L289.723 337.939C289.793 338.324 289.874 338.705 289.955 339.087L314.538 316.359Z" fill="white"/>
</svg>
