<svg width="1532" height="353" viewBox="0 0 1532 353" fill="none" xmlns="http://www.w3.org/2000/svg">
<g filter="url(#filter0_ddddd_21_2239)">
<mask id="path-1-inside-1_21_2239" fill="white">
<path fill-rule="evenodd" clip-rule="evenodd" d="M85.0488 207.188C84.7808 206.672 84 206.863 84 207.444C84 207.751 84.2488 208 84.5557 208C84.9725 208 85.2409 207.558 85.0488 207.188ZM206.298 208C193.233 208 181.256 200.723 175.235 189.127L125.912 94.1275C113.816 70.8287 130.724 43 156.975 43H1354.78C1381.03 43 1397.94 70.8287 1385.84 94.1275L1336.52 189.127C1330.5 200.723 1318.52 208 1305.46 208H206.298ZM1428 207.351C1428 207.71 1427.71 208 1427.35 208C1426.86 208 1426.55 207.484 1426.78 207.052C1427.09 206.449 1428 206.672 1428 207.351Z"/>
</mask>
<path fill-rule="evenodd" clip-rule="evenodd" d="M85.0488 207.188C84.7808 206.672 84 206.863 84 207.444C84 207.751 84.2488 208 84.5557 208C84.9725 208 85.2409 207.558 85.0488 207.188ZM206.298 208C193.233 208 181.256 200.723 175.235 189.127L125.912 94.1275C113.816 70.8287 130.724 43 156.975 43H1354.78C1381.03 43 1397.94 70.8287 1385.84 94.1275L1336.52 189.127C1330.5 200.723 1318.52 208 1305.46 208H206.298ZM1428 207.351C1428 207.71 1427.71 208 1427.35 208C1426.86 208 1426.55 207.484 1426.78 207.052C1427.09 206.449 1428 206.672 1428 207.351Z" fill="white"/>
<path d="M1336.52 189.127L1337.85 189.819L1336.52 189.127ZM1385.84 94.1275L1384.51 93.4363L1385.84 94.1275ZM176.567 188.436L127.244 93.4363L124.581 94.8187L173.904 189.819L176.567 188.436ZM1354.78 41.5H156.975V44.5H1354.78V41.5ZM1337.85 189.819L1387.17 94.8187L1384.51 93.4363L1335.19 188.436L1337.85 189.819ZM206.298 209.5H1305.46V206.5H206.298V209.5ZM1428.11 207.743C1427.7 208.534 1426.5 208.243 1426.5 207.351H1429.5C1429.5 205.102 1426.48 204.364 1425.44 206.361L1428.11 207.743ZM1427.35 209.5C1428.54 209.5 1429.5 208.538 1429.5 207.351H1426.5C1426.5 206.881 1426.88 206.5 1427.35 206.5V209.5ZM1427.35 206.5C1427.99 206.5 1428.4 207.177 1428.11 207.743L1425.44 206.361C1424.7 207.792 1425.74 209.5 1427.35 209.5V206.5ZM1335.19 188.436C1329.42 199.535 1317.96 206.5 1305.46 206.5V209.5C1319.08 209.5 1331.57 201.911 1337.85 189.819L1335.19 188.436ZM1354.78 44.5C1379.91 44.5 1396.09 71.136 1384.51 93.4363L1387.17 94.8187C1399.79 70.5214 1382.16 41.5 1354.78 41.5V44.5ZM127.244 93.4363C115.666 71.136 131.849 44.5 156.975 44.5V41.5C129.598 41.5 111.966 70.5214 124.581 94.8187L127.244 93.4363ZM173.904 189.819C180.182 201.911 192.673 209.5 206.298 209.5V206.5C193.793 206.5 182.329 199.535 176.567 188.436L173.904 189.819ZM84.5557 209.5C86.0975 209.5 87.0906 207.866 86.3801 206.497L83.7176 207.88C83.3912 207.251 83.8474 206.5 84.5557 206.5V209.5ZM82.5 207.444C82.5 208.58 83.4204 209.5 84.5557 209.5V206.5C85.0772 206.5 85.5 206.923 85.5 207.444H82.5ZM85.5 207.444C85.5 208.433 84.1732 208.757 83.7176 207.88L86.3801 206.497C85.3884 204.587 82.5 205.292 82.5 207.444H85.5Z" fill="url(#paint0_linear_21_2239)" mask="url(#path-1-inside-1_21_2239)"/>
</g>
<defs>
<filter id="filter0_ddddd_21_2239" x="0" y="0" width="1532" height="353" filterUnits="userSpaceOnUse" color-interpolation-filters="sRGB">
<feFlood flood-opacity="0" result="BackgroundImageFix"/>
<feColorMatrix in="SourceAlpha" type="matrix" values="0 0 0 0 0 0 0 0 0 0 0 0 0 0 0 0 0 0 127 0" result="hardAlpha"/>
<feOffset dy="3.30696"/>
<feGaussianBlur stdDeviation="1.65888"/>
<feColorMatrix type="matrix" values="0 0 0 0 0 0 0 0 0 0 0 0 0 0 0 0 0 0 0.0200187 0"/>
<feBlend mode="normal" in2="BackgroundImageFix" result="effect1_dropShadow_21_2239"/>
<feColorMatrix in="SourceAlpha" type="matrix" values="0 0 0 0 0 0 0 0 0 0 0 0 0 0 0 0 0 0 127 0" result="hardAlpha"/>
<feOffset dy="6.99366"/>
<feGaussianBlur stdDeviation="4.10299"/>
<feColorMatrix type="matrix" values="0 0 0 0 0 0 0 0 0 0 0 0 0 0 0 0 0 0 0.0353466 0"/>
<feBlend mode="normal" in2="effect1_dropShadow_21_2239" result="effect2_dropShadow_21_2239"/>
<feColorMatrix in="SourceAlpha" type="matrix" values="0 0 0 0 0 0 0 0 0 0 0 0 0 0 0 0 0 0 127 0" result="hardAlpha"/>
<feOffset dy="11.8898"/>
<feGaussianBlur stdDeviation="8.22"/>
<feColorMatrix type="matrix" values="0 0 0 0 0 0 0 0 0 0 0 0 0 0 0 0 0 0 0.0506778 0"/>
<feBlend mode="normal" in2="effect2_dropShadow_21_2239" result="effect3_dropShadow_21_2239"/>
<feColorMatrix in="SourceAlpha" type="matrix" values="0 0 0 0 0 0 0 0 0 0 0 0 0 0 0 0 0 0 127 0" result="hardAlpha"/>
<feOffset dx="10" dy="20.718"/>
<feGaussianBlur stdDeviation="16.8097"/>
<feColorMatrix type="matrix" values="0 0 0 0 0 0 0 0 0 0 0 0 0 0 0 0 0 0 0.0697538 0"/>
<feBlend mode="normal" in2="effect3_dropShadow_21_2239" result="effect4_dropShadow_21_2239"/>
<feColorMatrix in="SourceAlpha" type="matrix" values="0 0 0 0 0 0 0 0 0 0 0 0 0 0 0 0 0 0 127 0" result="hardAlpha"/>
<feOffset dx="10" dy="51"/>
<feGaussianBlur stdDeviation="47"/>
<feColorMatrix type="matrix" values="0 0 0 0 0 0 0 0 0 0 0 0 0 0 0 0 0 0 0.11 0"/>
<feBlend mode="normal" in2="effect4_dropShadow_21_2239" result="effect5_dropShadow_21_2239"/>
<feBlend mode="normal" in="SourceGraphic" in2="effect5_dropShadow_21_2239" result="shape"/>
</filter>
<linearGradient id="paint0_linear_21_2239" x1="324.432" y1="241.966" x2="400.793" y2="-259.942" gradientUnits="userSpaceOnUse">
<stop stop-color="#17C15B"/>
<stop offset="1" stop-color="#006C35"/>
</linearGradient>
</defs>
</svg>
