<svg width="461" height="455" viewBox="0 0 461 455" fill="none" xmlns="http://www.w3.org/2000/svg">
<path d="M223.776 454.249C341.166 454.249 436.33 397.639 436.33 327.808C436.33 257.977 341.166 201.367 223.776 201.367C106.385 201.367 11.2217 257.977 11.2217 327.808C11.2217 397.639 106.385 454.249 223.776 454.249Z" fill="#F5F5F5"/>
<path d="M308.541 360.431L124.271 254.071C121.215 252.306 116.223 252.31 113.168 254.071L9.07461 314.031C4.93161 316.419 4.92661 320.338 9.06561 322.727L192.014 428.324C194.707 429.879 199.113 429.879 201.809 428.318L308.54 366.841C311.595 365.08 311.598 362.195 308.541 360.431Z" fill="#E0E0E0"/>
<path d="M367.763 424.831C408.467 424.831 441.465 406.601 441.465 384.113C441.465 361.625 408.467 343.395 367.763 343.395C327.06 343.395 294.062 361.625 294.062 384.113C294.062 406.601 327.06 424.831 367.763 424.831Z" fill="#E0E0E0"/>
<path d="M86.0216 390.141C98.3186 397.321 98.3186 408.963 86.0216 416.143C73.7236 423.323 53.7846 423.323 41.4866 416.143C29.1886 408.963 29.1886 397.322 41.4876 390.142C53.7846 382.961 73.7236 382.961 86.0216 390.141Z" fill="#E0E0E0"/>
<path d="M455.49 200.164L452.965 201.668L367.111 152.1L369.634 150.594L455.49 200.164Z" fill="#FAFAFA"/>
<path d="M369.634 150.594L452.965 198.699L452.964 59.285L369.633 11.198L369.634 150.594Z" fill="white"/>
<path d="M362.346 154.849L457.728 209.918V56.536L362.345 1.46802L362.346 154.849ZM367.111 9.71702L452.964 59.285L452.965 201.668L367.111 152.1V9.71702Z" fill="#F0F0F0"/>
<path d="M367.111 152.1L369.634 150.594L369.633 11.198L367.111 9.71704V152.1Z" fill="#E0E0E0"/>
<path d="M452.965 158.099V161.061L367.111 111.493L369.634 109.987L452.965 158.099Z" fill="#FAFAFA"/>
<path d="M452.965 91.447V94.409L367.111 44.841L369.634 43.335L452.965 91.447Z" fill="#FAFAFA"/>
<path d="M362.346 1.467L364.909 0L460.292 55.068L457.729 56.535L362.346 1.467Z" fill="#FAFAFA"/>
<path d="M460.292 55.0681L457.729 56.5351V209.918L460.292 208.45V55.0681Z" fill="#E0E0E0"/>
<path d="M416.244 38.084L413.681 36.605V178.997L416.244 177.529V38.084Z" fill="#E0E0E0"/>
<path d="M408.917 33.8669L413.681 36.6049V178.997L408.918 176.238L408.917 33.8669Z" fill="#F0F0F0"/>
<path d="M362.346 42.092V47.585L457.729 102.653V97.16L362.346 42.092Z" fill="#F0F0F0"/>
<path d="M362.346 108.731V114.225L457.729 169.293V163.8L362.346 108.731Z" fill="#F0F0F0"/>
<path d="M413.681 71.7281L416.244 70.2461L452.965 91.4471V94.4091L413.681 71.7281Z" fill="#FAFAFA"/>
<path d="M413.681 138.351L416.244 136.868L452.965 158.069V161.032L413.681 138.351Z" fill="#FAFAFA"/>
<path d="M17.4219 87.912L19.4429 89.117L60.9109 65.175L58.8909 63.969L17.4219 87.912Z" fill="#FAFAFA"/>
<path d="M58.8909 63.9691L19.4429 86.7391L19.4439 45.4301L58.8919 22.6741L58.8909 63.9691Z" fill="white"/>
<path d="M64.7254 14.8831L15.6294 43.2291V95.7211L64.7254 67.3751V14.8831ZM60.9104 65.1751L19.4424 89.1171L19.4434 45.4301L60.9114 21.4881L60.9104 65.1751Z" fill="#F0F0F0"/>
<path d="M60.9106 65.175L58.8906 63.969L58.8916 22.674L60.9116 21.488L60.9106 65.175Z" fill="#E0E0E0"/>
<path d="M64.7256 14.883L62.6736 13.709L13.5776 42.054L15.6296 43.229L64.7256 14.883Z" fill="#FAFAFA"/>
<path d="M13.5776 42.054L15.6296 43.229V95.721L13.5776 94.546V42.054Z" fill="#E0E0E0"/>
<path d="M57.3504 62.7339L20.9834 83.7309V73.2329L30.0764 52.2359L35.7394 57.4849L33.7024 66.2849L46.2604 39.4299L57.3504 52.2359V62.7339Z" fill="#F0F0F0"/>
<path d="M35.3975 42.0978C33.9115 42.9558 32.7075 45.0418 32.7075 46.7568C32.7075 48.4718 33.9115 49.1678 35.3975 48.3098C36.8825 47.4518 38.0875 45.3668 38.0875 43.6508C38.0875 41.9348 36.8825 41.2398 35.3975 42.0978Z" fill="#F0F0F0"/>
<path d="M17.4219 167.773L19.4429 168.977L60.9109 145.035L58.8909 143.83L17.4219 167.773Z" fill="#FAFAFA"/>
<path d="M58.8909 143.83L19.4429 166.6L19.4439 125.291L58.8919 102.535L58.8909 143.83Z" fill="white"/>
<path d="M64.7254 94.7441L15.6294 123.089V175.581L64.7254 147.235V94.7441ZM60.9104 145.035L19.4424 168.977L19.4434 125.291L60.9114 101.349L60.9104 145.035Z" fill="#F0F0F0"/>
<path d="M60.9106 145.035L58.8906 143.83L58.8916 102.535L60.9116 101.349L60.9106 145.035Z" fill="#E0E0E0"/>
<path d="M64.7256 94.7441L62.6736 93.5701L13.5776 121.915L15.6296 123.09L64.7256 94.7441Z" fill="#FAFAFA"/>
<path d="M13.5776 121.915L15.6296 123.09V175.582L13.5776 174.407V121.915Z" fill="#E0E0E0"/>
<path d="M57.3504 142.595L20.9834 163.592V153.093L30.0764 132.097L35.7394 137.346L33.7024 146.146L46.2604 119.291L57.3504 132.097V142.595Z" fill="#F0F0F0"/>
<path d="M35.3975 121.958C33.9115 122.816 32.7075 124.902 32.7075 126.617C32.7075 128.332 33.9125 129.028 35.3975 128.17C36.8825 127.312 38.0875 125.226 38.0875 123.511C38.0875 121.796 36.8835 121.101 35.3975 121.958Z" fill="#F0F0F0"/>
<path d="M122.434 193.753L309.805 340.938C314.508 344.632 313.969 348.549 313.538 352.062C313.106 355.575 311.149 360.383 307.131 362.702L204.264 422.094C200.246 424.414 194.229 424.127 190.825 421.453L3.4516 274.267C0.0475993 271.593 -0.281401 267.368 0.149599 263.854C0.581599 260.341 2.1076 254.821 6.1256 252.501L108.994 193.111C113.012 190.792 117.692 190.03 122.434 193.753Z" fill="#37474F"/>
<path d="M116.932 198.349L11.1526 259.421L199.334 407.196L197.313 423.646C194.882 423.53 192.527 422.789 190.825 421.453L3.4516 274.267C0.0475993 271.593 -0.281401 267.368 0.149599 263.854C0.581599 260.341 2.1076 254.821 6.1256 252.501L108.994 193.111C111.504 191.662 114.532 190.658 117.782 191.429L117.719 191.938L116.932 198.349Z" fill="#263238"/>
<path d="M307.966 341.782L120.911 194.847C118.212 192.727 113.407 192.502 110.224 194.337L9.80774 252.316C5.49074 254.804 4.94574 259.199 8.60074 262.07L194.488 408.088C196.866 409.956 201.107 410.158 203.917 408.531L307.082 348.972C310.265 347.137 310.664 343.902 307.966 341.782Z" fill="#455A64"/>
<path d="M60.0233 306.145C61.3643 307.198 62.2683 309.549 62.0413 311.394C61.9323 312.285 61.5783 312.889 61.0913 313.159C60.7473 313.349 59.4403 314.131 59.0823 314.33C58.5623 314.619 57.8933 314.526 57.2033 313.985L42.3083 302.285C40.9673 301.232 40.0633 298.881 40.2903 297.036C40.3943 296.186 40.7223 295.596 41.1753 295.31C41.5323 295.085 42.8893 294.302 43.2453 294.103C43.7653 293.812 44.4373 293.903 45.1273 294.447L60.0233 306.145Z" fill="#455A64"/>
<path d="M58.0233 307.301L43.1293 295.602C41.7883 294.549 40.5173 295.191 40.2903 297.036C40.0633 298.882 40.9673 301.232 42.3083 302.285L57.2033 313.984C58.5443 315.038 59.8153 314.395 60.0423 312.55C60.2683 310.704 59.3653 308.354 58.0233 307.301Z" fill="#37474F"/>
<path d="M33.9544 285.67C35.2954 286.723 36.1994 289.074 35.9724 290.919C35.8624 291.81 35.5094 292.414 35.0214 292.684C34.6774 292.874 33.3704 293.656 33.0124 293.854C32.4924 294.143 31.8234 294.05 31.1334 293.509L16.2394 281.81C14.8984 280.756 13.9944 278.407 14.2214 276.561C14.3254 275.711 14.6534 275.121 15.1064 274.835C15.4634 274.61 16.8204 273.827 17.1764 273.628C17.6964 273.337 18.3674 273.429 19.0584 273.972L33.9544 285.67Z" fill="#455A64"/>
<path d="M31.9554 286.825L17.0614 275.126C15.7204 274.073 14.4494 274.715 14.2224 276.56C13.9954 278.406 14.8984 280.756 16.2404 281.81L31.1354 293.509C32.4764 294.562 33.7474 293.92 33.9744 292.075C34.2004 290.228 33.2964 287.879 31.9554 286.825Z" fill="#37474F"/>
<path d="M124.313 202.912L298.985 340.121C301.565 342.147 301.191 345.232 298.151 346.98L204.815 400.869C201.781 402.634 197.219 402.417 194.633 400.386L18.7105 262.196C16.6195 260.554 16.4555 258.219 18.1195 256.458C18.2545 256.323 18.3765 256.189 18.5175 256.058C18.8235 255.804 19.1715 255.561 19.5505 255.341L45.8035 240.183C45.8035 240.183 46.5675 239.738 47.5165 239.196C48.4585 238.649 49.8725 238.714 50.6765 239.346C51.4745 239.973 52.9485 240.016 53.9555 239.428L84.5526 221.765C85.5536 221.185 85.7345 220.2 84.9365 219.573C84.1875 218.985 84.2385 218.106 85.0175 217.545C85.0705 217.506 85.1295 217.472 85.1885 217.439L110.873 202.615L111.418 202.297C115.264 200.079 121.059 200.357 124.313 202.912Z" fill="black"/>
<path d="M50.1578 243.571C49.3538 242.939 47.9398 242.874 46.9978 243.421C46.0498 243.963 45.2848 244.408 45.2848 244.408L19.0318 259.566C18.6528 259.785 18.3048 260.029 17.9988 260.283C17.8578 260.414 17.7358 260.547 17.6008 260.683C17.5578 260.729 17.5298 260.779 17.4888 260.826C17.7728 261.314 18.1778 261.778 18.7108 262.196L194.632 400.387C197.218 402.418 201.78 402.635 204.814 400.87L298.15 346.981C298.782 346.617 299.292 346.194 299.691 345.736C299.407 345.242 299.005 344.77 298.465 344.346L123.794 207.137C120.54 204.581 114.745 204.304 110.899 206.522L110.354 206.841L85.3448 221.275C85.3448 221.275 84.9558 224.478 84.9078 224.857C84.8558 225.272 84.5568 225.686 84.0328 225.99L53.4358 243.653C52.4298 244.241 50.9558 244.198 50.1578 243.571Z" fill="#EBEBEB"/>
<path d="M43.6141 257.958C43.5761 257.954 43.5371 257.934 43.4971 257.898L43.1241 257.555L41.9611 258.227C41.8971 258.263 41.8391 258.258 41.7861 258.209L41.6521 258.086C41.6221 258.058 41.6021 258.034 41.5921 258.015C41.5841 257.996 41.5771 257.969 41.5721 257.936L41.4741 255.994C41.4721 255.959 41.4761 255.933 41.4841 255.915C41.4921 255.897 41.5141 255.877 41.5511 255.856L41.7131 255.763C41.7621 255.734 41.8061 255.723 41.8491 255.728C41.8901 255.733 41.9321 255.755 41.9731 255.793L43.2751 256.99L43.5321 256.842C43.5811 256.814 43.6241 256.802 43.6621 256.808C43.7011 256.814 43.7411 256.836 43.7821 256.874L43.8711 256.956C43.9101 256.992 43.9281 257.023 43.9261 257.051C43.9241 257.078 43.8991 257.106 43.8501 257.135L43.5931 257.283L43.9661 257.626C44.0051 257.662 44.0241 257.695 44.0201 257.722C44.0161 257.75 43.9891 257.779 43.9381 257.809L43.7421 257.921C43.6961 257.95 43.6521 257.962 43.6141 257.958ZM42.8841 257.219L41.9551 256.365L42.0391 257.706L42.8841 257.219Z" fill="#455A64"/>
<path d="M44.771 256.952C44.342 256.899 43.941 256.701 43.569 256.359C43.198 256.018 43.026 255.688 43.053 255.371C43.08 255.053 43.301 254.775 43.715 254.536C43.881 254.44 44.052 254.364 44.228 254.309C44.402 254.254 44.566 254.224 44.718 254.221C44.753 254.22 44.778 254.227 44.794 254.241C44.804 254.251 44.813 254.266 44.818 254.285L44.875 254.497C44.88 254.524 44.876 254.541 44.861 254.55C44.853 254.554 44.832 254.558 44.797 254.562C44.547 254.582 44.307 254.658 44.078 254.791C43.799 254.952 43.649 255.143 43.631 255.364C43.614 255.586 43.747 255.827 44.032 256.09C44.32 256.355 44.611 256.507 44.905 256.546C45.198 256.585 45.48 256.527 45.749 256.372C45.847 256.316 45.935 256.254 46.014 256.187C46.092 256.12 46.148 256.058 46.182 256L45.577 255.444L45.092 255.724C45.043 255.753 45 255.764 44.962 255.758C44.923 255.753 44.884 255.731 44.842 255.693L44.757 255.615C44.716 255.577 44.697 255.545 44.701 255.518C44.704 255.492 44.73 255.465 44.779 255.436L45.554 254.989C45.608 254.958 45.658 254.947 45.704 254.954C45.75 254.961 45.797 254.988 45.845 255.032L46.709 255.826C46.742 255.856 46.763 255.881 46.771 255.9C46.781 255.919 46.779 255.942 46.768 255.968C46.67 256.214 46.426 256.449 46.039 256.672C45.62 256.912 45.199 257.005 44.771 256.952Z" fill="#455A64"/>
<path d="M54.442 251.163C54.73 251.427 54.661 251.817 54.288 252.032C53.915 252.247 53.379 252.208 53.092 251.943C52.804 251.678 52.873 251.289 53.246 251.074C53.618 250.859 54.154 250.899 54.442 251.163Z" fill="#455A64"/>
<path d="M52.3921 250.29C51.7121 250.683 51.4151 251.295 51.5481 251.865C51.5751 251.981 51.7151 252.063 51.8781 252.061H51.8801C52.0851 252.058 52.2461 251.923 52.2111 251.777C52.1131 251.374 52.3241 250.942 52.8021 250.666C53.2811 250.389 53.9071 250.339 54.4211 250.501C54.6081 250.56 54.8271 250.477 54.8781 250.331V250.33C54.9181 250.215 54.8391 250.098 54.6911 250.052C53.9591 249.827 53.0731 249.897 52.3921 250.29Z" fill="#455A64"/>
<path d="M51.5582 249.523C50.5462 250.107 50.0642 250.996 50.1682 251.855C50.1832 251.981 50.3242 252.078 50.4992 252.076H50.5022C50.7012 252.074 50.8552 251.947 50.8362 251.804C50.7462 251.103 51.1392 250.376 51.9662 249.899C52.7932 249.422 53.8562 249.308 54.7732 249.532C54.9602 249.578 55.1642 249.498 55.2132 249.358C55.2562 249.234 55.1592 249.112 54.9942 249.072C53.8742 248.799 52.5722 248.938 51.5582 249.523Z" fill="#455A64"/>
<path d="M31.0364 265.635L30.3174 264.974L31.5584 264.257L32.2774 264.918L31.0364 265.635Z" fill="#455A64"/>
<path d="M32.8984 264.559L31.4624 263.238L32.7034 262.521L34.1404 263.842L32.8984 264.559Z" fill="#455A64"/>
<path d="M34.7624 263.484L32.6064 261.502L33.8484 260.785L36.0034 262.767L34.7624 263.484Z" fill="#455A64"/>
<path d="M36.6245 262.408L33.7505 259.766L34.9925 259.049L37.8665 261.691L36.6245 262.408Z" fill="#455A64"/>
<path d="M112.254 215.288C111.988 215.24 111.752 215.267 111.585 215.363L106.942 218.036C106.641 218.21 106.647 218.568 106.956 218.852L108.262 220.053C108.434 220.211 108.675 220.325 108.939 220.373C109.052 220.394 109.162 220.4 109.265 220.393C109.399 220.384 109.514 220.352 109.608 220.297L114.252 217.624C114.553 217.45 114.547 217.092 114.237 216.808L112.931 215.607C112.759 215.449 112.518 215.336 112.254 215.288ZM108.935 220.178C108.839 220.161 108.734 220.105 108.648 220.026L107.342 218.825C107.114 218.616 107.109 218.331 107.331 218.204L111.974 215.531C112.028 215.5 112.091 215.481 112.154 215.476C112.189 215.474 112.223 215.476 112.258 215.482C112.354 215.499 112.459 215.555 112.545 215.634L113.851 216.835C114.079 217.045 114.085 217.329 113.863 217.457L109.219 220.13C109.135 220.179 109.033 220.196 108.935 220.178Z" fill="#455A64"/>
<path d="M108.437 217.904L109.982 219.325L109.252 219.744C109.189 219.78 109.064 219.784 109.029 219.751L107.88 218.695C107.715 218.543 107.711 218.327 107.869 218.233L108.437 217.904Z" fill="#455A64"/>
<path d="M108.779 217.712L109.648 217.208L111.194 218.629L110.32 219.129L108.779 217.712Z" fill="#455A64"/>
<path d="M109.99 217.017L110.86 216.512L112.409 217.937L111.536 218.438L109.99 217.017Z" fill="#455A64"/>
<path d="M112.173 215.911L113.286 216.935C113.491 217.123 113.396 217.369 113.04 217.573L112.746 217.742L111.201 216.321L111.894 215.921C111.976 215.876 112.128 215.87 112.173 215.911Z" fill="#455A64"/>
<path d="M113.111 215.516C113.238 215.441 113.559 215.58 113.827 215.826L114.07 216.049C114.338 216.296 114.455 216.561 114.332 216.642L114.108 216.789L112.88 215.651C112.88 215.651 112.984 215.591 113.111 215.516Z" fill="#455A64"/>
<path d="M100.23 223.211L104.038 219.962L105.185 223.098L103.114 222.179L100.23 223.211Z" fill="#455A64"/>
<path d="M53.7227 232.915L67.7477 224.818C68.5847 224.335 69.8017 224.367 70.4667 224.889C71.1317 225.411 70.9927 226.227 70.1557 226.71L56.1307 234.808C55.2937 235.291 54.0767 235.259 53.4117 234.737C52.7467 234.213 52.8867 233.398 53.7227 232.915Z" fill="#263238"/>
<path d="M74.457 220.279C75.4 219.735 76.811 219.802 77.61 220.429C78.409 221.056 78.292 222.006 77.349 222.55C76.407 223.094 74.995 223.027 74.196 222.4C73.397 221.773 73.514 220.823 74.457 220.279Z" fill="#263238"/>
<path d="M135.166 277.697L135.15 277.706L133.493 276.405C132.903 275.941 131.933 275.848 131.33 276.196L129.299 277.369C128.696 277.717 128.685 278.377 129.275 278.84L130.932 280.141L130.916 280.15C130.455 280.416 130.447 280.919 130.898 281.273L134.239 283.897C134.69 284.251 135.43 284.323 135.891 284.057L140.14 281.604C140.601 281.338 140.609 280.835 140.158 280.481L136.817 277.857C136.366 277.502 135.627 277.431 135.166 277.697ZM129.747 278.568C129.411 278.305 129.417 277.929 129.76 277.731L131.791 276.558C132.134 276.36 132.686 276.413 133.021 276.677L134.677 277.978L131.402 279.869L129.747 278.568Z" fill="#455A64"/>
<path d="M138.299 314.347C138.658 314.63 138.625 314.893 138.202 315.137L137.653 315.454C137.23 315.698 136.84 315.681 136.479 315.398L121.899 303.945L120.103 309.581C119.971 309.948 119.639 310.094 119.112 310.02L118.45 309.935C118.205 309.899 118.024 309.821 117.903 309.701C117.784 309.581 117.75 309.438 117.808 309.273L119.947 302.569C120 302.428 120.078 302.317 120.176 302.238C120.276 302.157 120.393 302.079 120.527 302.002L121.076 301.685C121.499 301.441 121.89 301.46 122.25 301.741L138.299 314.347Z" fill="#455A64"/>
<path d="M130.685 302.74C130.149 302.294 129.706 301.76 129.352 301.142C128.999 300.524 128.828 299.871 128.842 299.186C128.854 298.5 129.096 297.806 129.569 297.1C130.039 296.394 130.825 295.726 131.922 295.092C133.02 294.458 134.092 294.029 135.138 293.8C136.187 293.575 137.184 293.5 138.132 293.574C139.079 293.65 139.965 293.86 140.791 294.207C141.615 294.552 142.345 294.976 142.982 295.475C143.993 296.269 144.63 297.123 144.893 298.04C145.157 298.955 145.175 300.045 144.948 301.309L144.015 309.784L153.689 304.2C154.131 303.944 154.541 303.963 154.915 304.259L155.282 304.547C155.642 304.828 155.599 305.097 155.157 305.353L143.317 312.189C142.893 312.433 142.503 312.414 142.143 312.133L141.776 311.845C141.613 311.716 141.507 311.561 141.457 311.377C141.407 311.196 141.412 310.943 141.47 310.62L142.612 301.326C142.726 300.68 142.786 300.124 142.791 299.655C142.795 299.186 142.74 298.768 142.623 298.401C142.508 298.035 142.33 297.704 142.088 297.41C141.846 297.115 141.538 296.821 141.164 296.526C140.07 295.668 138.848 295.205 137.498 295.141C136.146 295.078 134.778 295.445 133.391 296.245C132.063 297.011 131.345 297.865 131.239 298.804C131.132 299.743 131.531 300.674 132.438 301.596C132.595 301.773 132.648 301.936 132.593 302.092C132.539 302.244 132.452 302.354 132.337 302.421L131.76 302.754C131.351 302.987 130.994 302.982 130.685 302.74Z" fill="#455A64"/>
<path d="M153.068 294.151C153.231 294.278 153.299 294.418 153.27 294.567C153.243 294.715 153.133 294.846 152.941 294.957L151.555 295.758C151.131 296.002 150.741 295.983 150.381 295.702L149.207 294.779C149.043 294.65 148.967 294.511 148.977 294.362C148.986 294.211 149.086 294.08 149.278 293.97L150.664 293.169C150.857 293.057 151.07 293.008 151.302 293.019C151.533 293.03 151.729 293.099 151.893 293.228L153.068 294.151ZM161.631 300.876C161.795 301.005 161.861 301.143 161.834 301.293C161.806 301.441 161.697 301.572 161.504 301.682L160.118 302.483C159.694 302.727 159.303 302.71 158.944 302.427L157.77 301.506C157.607 301.377 157.529 301.238 157.539 301.087C157.548 300.938 157.648 300.807 157.842 300.695L159.228 299.894C159.42 299.784 159.632 299.734 159.864 299.746C160.095 299.757 160.294 299.826 160.456 299.955L161.631 300.876Z" fill="#455A64"/>
<path d="M160.81 278.746C161.253 278.49 161.662 278.51 162.038 278.805L162.404 279.093C162.503 279.169 162.563 279.25 162.589 279.336C162.613 279.421 162.631 279.507 162.639 279.591L162.589 287.855L163.166 287.522C164.147 286.955 165.146 286.513 166.158 286.194C167.172 285.877 168.169 285.707 169.146 285.687C170.123 285.667 171.077 285.807 172.007 286.104C172.936 286.4 173.807 286.87 174.622 287.51C175.439 288.15 175.986 288.817 176.268 289.511C176.551 290.204 176.598 290.898 176.414 291.593C176.23 292.289 175.828 292.97 175.21 293.638C174.592 294.306 173.792 294.924 172.812 295.491C171.733 296.113 170.651 296.577 169.568 296.88C168.485 297.183 167.454 297.351 166.477 297.382C165.497 297.414 164.599 297.326 163.785 297.118C162.968 296.911 162.283 296.602 161.725 296.19C161.579 296.075 161.522 295.952 161.556 295.821C161.59 295.69 161.693 295.574 161.867 295.475L162.27 295.241C162.425 295.152 162.608 295.093 162.816 295.059C163.026 295.027 163.293 295.085 163.613 295.232C164.306 295.566 164.995 295.762 165.686 295.818C166.378 295.877 167.057 295.845 167.724 295.727C168.391 295.609 169.031 295.422 169.643 295.169C170.255 294.915 170.823 294.639 171.343 294.338C172.093 293.905 172.703 293.452 173.172 292.981C173.642 292.51 173.95 292.025 174.101 291.527C174.252 291.03 174.225 290.529 174.017 290.024C173.811 289.521 173.406 289.033 172.802 288.559C171.595 287.61 170.303 287.18 168.924 287.264C167.546 287.35 166.114 287.818 164.633 288.674L162.091 290.141C161.667 290.385 161.277 290.366 160.918 290.085L160.551 289.797C160.42 289.694 160.334 289.595 160.292 289.496C160.252 289.397 160.228 289.295 160.224 289.185L160.228 281.082L151.507 286.117C151.084 286.361 150.693 286.342 150.333 286.061L149.966 285.773C149.592 285.478 149.616 285.209 150.039 284.964L160.81 278.746Z" fill="#455A64"/>
<path d="M188.977 285.089C189.335 285.372 189.303 285.635 188.88 285.879L188.331 286.196C187.907 286.44 187.517 286.421 187.157 286.14L172.576 274.687L170.782 280.322C170.65 280.689 170.318 280.836 169.79 280.763L169.128 280.678C168.883 280.642 168.701 280.564 168.58 280.442C168.462 280.324 168.428 280.18 168.486 280.015L170.625 273.311C170.678 273.17 170.754 273.059 170.854 272.98C170.954 272.899 171.071 272.821 171.205 272.744L171.754 272.427C172.177 272.183 172.568 272.202 172.927 272.483L188.977 285.089Z" fill="#455A64"/>
<path d="M139.773 335.521L213.817 292.771C215.81 291.62 218.796 291.762 220.485 293.089L237.32 306.312C239.009 307.639 238.762 309.647 236.769 310.798L162.724 353.548C160.731 354.699 157.745 354.557 156.056 353.23L139.222 340.007C137.533 338.681 137.779 336.672 139.773 335.521Z" fill="white"/>
<path d="M170.107 359.353L244.151 316.603C246.144 315.452 249.13 315.595 250.819 316.921L267.654 330.144C269.343 331.471 269.096 333.479 267.103 334.63L193.058 377.38C191.065 378.531 188.079 378.388 186.39 377.062L169.556 363.839C167.867 362.512 168.113 360.504 170.107 359.353Z" fill="white"/>
<path d="M200.212 361.251C200.201 361.25 200.189 361.25 200.176 361.251C198.377 361.321 196.619 360.915 195.454 360L193.291 358.301C190.824 356.363 186.463 356.155 183.551 357.836C180.639 359.517 180.279 362.451 182.746 364.389L184.679 365.907C185.894 366.862 186.367 368.139 186.027 369.385L186.424 370.295C187.046 370.783 188.144 370.835 188.878 370.412L201.193 363.302C201.927 362.879 202.018 362.139 201.396 361.651C201.087 361.407 200.657 361.272 200.212 361.251ZM198.032 369.21C199.43 368.403 199.603 366.994 198.418 366.064L193.355 368.987C194.54 369.917 196.634 370.017 198.032 369.21Z" fill="#E0E0E0"/>
<path d="M169.926 336.858C169.915 336.857 169.903 336.857 169.89 336.858C168.091 336.928 166.333 336.522 165.168 335.607L163.006 333.909C160.539 331.971 156.178 331.763 153.266 333.444C150.354 335.125 149.994 338.059 152.461 339.997L154.394 341.515C155.609 342.47 156.082 343.747 155.742 344.993L156.139 345.903C156.761 346.391 157.859 346.443 158.593 346.02L170.908 338.91C171.641 338.487 171.733 337.747 171.111 337.259C170.801 337.015 170.371 336.879 169.926 336.858ZM167.746 344.817C169.144 344.01 169.317 342.601 168.132 341.671L163.069 344.594C164.254 345.524 166.348 345.624 167.746 344.817Z" fill="#E0E0E0"/>
<g opacity="0.3">
<path d="M196.107 259.303L173.8 241.782L138.133 355.996L160.439 373.517L196.107 259.303Z" fill="white"/>
<path d="M263.456 316.845L225.649 287.147L191.143 397.645L194.633 400.387C197.219 402.418 201.781 402.635 204.815 400.87L244.345 378.047L263.456 316.845Z" fill="white"/>
<path d="M117.836 340.054L153.503 225.84L124.313 202.912C121.059 200.356 115.264 200.079 111.418 202.297L110.873 202.615L95.3998 211.545L67.5928 300.589L117.836 340.054Z" fill="white"/>
</g>
<path d="M47.1456 404.657C38.2606 395.489 33.0416 372.321 41.7076 365.049H85.8036C94.4676 372.319 89.2546 395.474 80.3736 404.648C80.2976 404.734 80.2106 404.816 80.1306 404.901C80.0286 405.003 79.9266 405.105 79.8246 405.204C79.5736 405.45 79.3076 405.69 79.0216 405.926C78.9516 405.985 78.8796 406.038 78.8086 406.095C78.5906 406.267 78.3766 406.441 78.1386 406.607C77.7596 406.879 77.3776 407.132 76.9896 407.35C69.6806 411.617 57.8306 411.617 50.5226 407.35H50.5206C50.1306 407.131 49.7456 406.876 49.3646 406.602C49.1436 406.447 48.9436 406.285 48.7406 406.125C48.6526 406.055 48.5656 405.99 48.4786 405.917C48.2026 405.689 47.9466 405.457 47.7036 405.22C47.5856 405.107 47.4676 404.989 47.3506 404.871C47.2836 404.798 47.2096 404.73 47.1456 404.657Z" fill="#37474F"/>
<path d="M81.9738 362.121C92.0348 367.995 92.0348 377.519 81.9738 383.393C71.9118 389.267 55.5998 389.267 45.5388 383.393C35.4778 377.519 35.4778 367.995 45.5398 362.121C55.6008 356.246 71.9128 356.246 81.9738 362.121Z" fill="#455A64"/>
<path d="M77.1348 364.946C84.5238 369.26 84.5238 376.254 77.1348 380.568C69.7468 384.882 57.7668 384.882 50.3778 380.568C42.9898 376.255 42.9898 369.26 50.3788 364.946C57.7668 360.632 69.7468 360.632 77.1348 364.946Z" fill="#263238"/>
<path d="M50.3786 372.36C57.7666 368.046 69.7466 368.046 77.1346 372.36C79.1866 373.558 80.6476 374.967 81.5606 376.464C80.6476 377.961 79.1866 379.37 77.1346 380.568C69.7466 384.882 57.7666 384.882 50.3786 380.568C48.3256 379.37 46.8646 377.961 45.9526 376.464C46.8646 374.967 48.3256 373.558 50.3786 372.36Z" fill="white"/>
<path d="M57.7196 329.97C54.7446 333.733 45.8016 335.387 41.3456 326.175C37.1656 317.534 32.7426 309.38 31.4156 306.192C30.0896 303.005 33.2396 301.68 33.2396 301.68C33.2396 301.68 33.1236 296.767 41.6706 299.45C50.1296 302.105 56.4516 306.721 60.6876 314.584C64.8626 322.336 63.1876 328.453 57.7196 329.97Z" fill="#8D1B3D"/>
<g opacity="0.5">
<path d="M57.7196 329.97C54.7446 333.733 45.8016 335.387 41.3456 326.175C37.1656 317.534 32.7426 309.38 31.4156 306.192C30.0896 303.005 33.2396 301.68 33.2396 301.68C33.2396 301.68 33.1236 296.767 41.6706 299.45C50.1296 302.105 56.4516 306.721 60.6876 314.584C64.8626 322.336 63.1876 328.453 57.7196 329.97Z" fill="white"/>
</g>
<path d="M62.2677 342.253C61.9847 340.603 61.6377 338.963 61.1707 337.354C60.2427 334.156 59.0717 331.039 57.6917 328.009C54.8797 321.835 51.1767 316.123 46.7277 311.002C44.2267 308.123 41.5227 305.373 38.5217 303.01C38.4307 302.939 38.3797 303.133 38.4407 303.19C43.4397 307.809 47.9057 312.844 51.5167 318.631C55.0307 324.262 57.8247 330.298 59.7737 336.644C60.3177 338.417 60.8447 340.201 61.3157 341.996C61.7937 343.819 62.1277 345.674 62.5807 347.502C62.6257 347.685 62.9217 347.776 62.9177 347.522C62.8887 345.759 62.5647 343.986 62.2677 342.253Z" fill="#8D1B3D"/>
<path opacity="0.3" d="M62.2677 342.253C61.9847 340.603 61.6377 338.963 61.1707 337.354C60.2427 334.156 59.0717 331.039 57.6917 328.009C54.8797 321.835 51.1767 316.123 46.7277 311.002C44.2267 308.123 41.5227 305.373 38.5217 303.01C38.4307 302.939 38.3797 303.133 38.4407 303.19C43.4397 307.809 47.9057 312.844 51.5167 318.631C55.0307 324.262 57.8247 330.298 59.7737 336.644C60.3177 338.417 60.8447 340.201 61.3157 341.996C61.7937 343.819 62.1277 345.674 62.5807 347.502C62.6257 347.685 62.9217 347.776 62.9177 347.522C62.8887 345.759 62.5647 343.986 62.2677 342.253Z" fill="black"/>
<path d="M67.4166 323.37C59.6576 325.769 53.8926 319.714 55.8876 310.215C57.8826 300.716 67.8596 290.173 71.6286 293.006C73.9816 290.653 79.1666 291.498 81.6056 299.211C84.0446 306.924 81.8276 326.735 67.4166 323.37Z" fill="#8D1B3D"/>
<g opacity="0.3">
<path d="M67.4166 323.37C59.6576 325.769 53.8926 319.714 55.8876 310.215C57.8826 300.716 67.8596 290.173 71.6286 293.006C73.9816 290.653 79.1666 291.498 81.6056 299.211C84.0446 306.924 81.8276 326.735 67.4166 323.37Z" fill="white"/>
</g>
<path d="M71.9674 298.784C69.6574 304.237 68.1464 310.09 66.8094 315.848C65.4414 321.736 64.5334 327.719 63.8134 333.718C62.4214 345.323 62.1834 344.68 62.2584 356.356C62.2794 359.587 62.3264 362.818 62.3874 366.049C62.4504 369.372 62.3974 372.738 62.6834 376.049C62.7934 377.319 64.5984 376.981 64.6214 375.817C64.7354 370 64.4164 364.158 64.3574 358.339C64.2994 352.587 64.3184 359.213 64.4654 353.463C64.7634 341.754 65.6184 330.041 67.6064 318.489C68.1604 315.27 68.7734 312.055 69.5244 308.875C70.3144 305.529 71.2824 302.231 72.1614 298.909C72.1954 298.779 72.0434 298.606 71.9674 298.784Z" fill="#8D1B3D"/>
<path opacity="0.3" d="M71.9674 298.784C69.6574 304.237 68.1464 310.09 66.8094 315.848C65.4414 321.736 64.5334 327.719 63.8134 333.718C62.4214 345.323 62.1834 344.68 62.2584 356.356C62.2794 359.587 62.3264 362.818 62.3874 366.049C62.4504 369.372 62.3974 372.738 62.6834 376.049C62.7934 377.319 64.5984 376.981 64.6214 375.817C64.7354 370 64.4164 364.158 64.3574 358.339C64.2994 352.587 64.3184 359.213 64.4654 353.463C64.7634 341.754 65.6184 330.041 67.6064 318.489C68.1604 315.27 68.7734 312.055 69.5244 308.875C70.3144 305.529 71.2824 302.231 72.1614 298.909C72.1954 298.779 72.0434 298.606 71.9674 298.784Z" fill="black"/>
<path d="M49.4575 349.042C48.4625 354.066 41.5805 357.688 33.6295 354.397C25.6785 351.107 10.0005 330.442 17.1605 328.165C16.7695 324.413 38.4295 321.332 49.1425 334.537C56.9315 344.137 49.4575 349.042 49.4575 349.042Z" fill="#8D1B3D"/>
<g opacity="0.7">
<path d="M49.4575 349.042C48.4625 354.066 41.5805 357.688 33.6295 354.397C25.6785 351.107 10.0005 330.442 17.1605 328.165C16.7695 324.413 38.4295 321.332 49.1425 334.537C56.9315 344.137 49.4575 349.042 49.4575 349.042Z" fill="white"/>
</g>
<path d="M60.8232 356.499C59.8382 355.229 58.7342 354.075 57.5942 352.946C55.2712 350.647 52.8362 348.474 50.2952 346.418C45.1002 342.215 39.4522 338.698 33.5222 335.634C30.2392 333.937 26.8732 332.294 23.3962 331.03C23.3002 330.995 23.3372 331.18 23.3972 331.208C26.2902 332.575 29.1882 333.903 31.9862 335.465C34.8822 337.082 37.6842 338.881 40.4042 340.779C45.6422 344.432 50.6062 348.471 55.2102 352.896C56.5172 354.152 57.7622 355.473 59.0822 356.716C60.4532 358.006 61.9282 359.195 63.2412 360.545C63.4312 360.742 63.7743 360.654 63.5672 360.368C62.6392 359.089 61.7952 357.753 60.8232 356.499Z" fill="#8D1B3D"/>
<path opacity="0.3" d="M60.8232 356.499C59.8382 355.229 58.7342 354.075 57.5942 352.946C55.2712 350.647 52.8362 348.474 50.2952 346.418C45.1002 342.215 39.4522 338.698 33.5222 335.634C30.2392 333.937 26.8732 332.294 23.3962 331.03C23.3002 330.995 23.3372 331.18 23.3972 331.208C26.2902 332.575 29.1882 333.903 31.9862 335.465C34.8822 337.082 37.6842 338.881 40.4042 340.779C45.6422 344.432 50.6062 348.471 55.2102 352.896C56.5172 354.152 57.7622 355.473 59.0822 356.716C60.4532 358.006 61.9282 359.195 63.2412 360.545C63.4312 360.742 63.7743 360.654 63.5672 360.368C62.6392 359.089 61.7952 357.753 60.8232 356.499Z" fill="black"/>
<path d="M93.4685 342.986C93.3375 340.155 79.0825 340.307 72.4025 345.676C65.7215 351.045 64.9305 356.318 69.0925 358.15C68.3635 364.124 77.7935 368.057 86.2345 360.589C94.6745 353.121 96.5155 343.574 93.4685 342.986Z" fill="#8D1B3D"/>
<path opacity="0.3" d="M93.4685 342.986C93.3375 340.155 79.0825 340.307 72.4025 345.676C65.7215 351.045 64.9305 356.318 69.0925 358.15C68.3635 364.124 77.7935 368.057 86.2345 360.589C94.6745 353.121 96.5155 343.574 93.4685 342.986Z" fill="white"/>
<path d="M79.4246 350.461C76.1716 351.956 73.2016 353.791 70.5066 356.163C67.8286 358.52 65.5566 361.266 63.6816 364.298C63.4676 364.644 64.0066 365.314 64.2386 364.938C67.9016 358.996 73.2676 353.856 79.4316 350.554C79.4696 350.533 79.4866 350.433 79.4246 350.461Z" fill="#8D1B3D"/>
<path opacity="0.3" d="M79.4246 350.461C76.1716 351.956 73.2016 353.791 70.5066 356.163C67.8286 358.52 65.5566 361.266 63.6816 364.298C63.4676 364.644 64.0066 365.314 64.2386 364.938C67.9016 358.996 73.2676 353.856 79.4316 350.554C79.4696 350.533 79.4866 350.433 79.4246 350.461Z" fill="black"/>
<path d="M69.9466 367.334C65.1196 372.076 70.4556 377.951 78.2816 380.857C86.1076 383.763 94.7686 381.8 98.5456 379.916C102.323 378.032 103.098 377.087 103.098 377.087C103.098 377.087 101.253 370.863 99.1036 367.505C96.0806 362.782 89.3846 357.152 79.3606 358.434C69.3366 359.716 68.5206 363.883 69.9466 367.334Z" fill="#8D1B3D"/>
<g opacity="0.5">
<path d="M69.9466 367.334C65.1196 372.076 70.4556 377.951 78.2816 380.857C86.1076 383.763 94.7686 381.8 98.5456 379.916C102.323 378.032 103.098 377.087 103.098 377.087C103.098 377.087 101.253 370.863 99.1036 367.505C96.0806 362.782 89.3846 357.152 79.3606 358.434C69.3366 359.716 68.5206 363.883 69.9466 367.334Z" fill="white"/>
</g>
<path d="M90.2054 370.895C86.2794 369.004 82.2404 367.18 77.9364 366.352C73.7384 365.544 68.5724 365.509 65.1734 368.498C63.8564 369.656 62.1034 372.169 63.1764 373.95C63.2824 374.127 63.8114 374.456 63.9304 374.103C64.3024 372.992 64.4174 371.835 65.0104 370.805C65.6274 369.735 66.5654 368.935 67.6354 368.339C70.2644 366.875 73.5654 366.546 76.5264 366.83C81.3054 367.288 85.8004 369.205 90.1984 371.006C90.2454 371.025 90.2444 370.914 90.2054 370.895Z" fill="#8D1B3D"/>
<path opacity="0.3" d="M90.2054 370.895C86.2794 369.004 82.2404 367.18 77.9364 366.352C73.7384 365.544 68.5724 365.509 65.1734 368.498C63.8564 369.656 62.1034 372.169 63.1764 373.95C63.2824 374.127 63.8114 374.456 63.9304 374.103C64.3024 372.992 64.4174 371.835 65.0104 370.805C65.6274 369.735 66.5654 368.935 67.6354 368.339C70.2644 366.875 73.5654 366.546 76.5264 366.83C81.3054 367.288 85.8004 369.205 90.1984 371.006C90.2454 371.025 90.2444 370.914 90.2054 370.895Z" fill="black"/>
<path d="M71.2706 337.459C70.0636 341.7 75.4756 345.659 82.2096 343.391C88.9426 341.123 95.9356 339.019 101.677 338.948C107.417 338.878 111.055 335.101 109.873 332.552C108.691 330.003 107.299 323.96 92.6746 322.233C78.0496 320.506 71.4536 325.668 68.3996 329.706C65.3456 333.745 68.8326 338.168 71.2706 337.459Z" fill="#8D1B3D"/>
<g opacity="0.7">
<path d="M71.2706 337.459C70.0636 341.7 75.4756 345.659 82.2096 343.391C88.9426 341.123 95.9356 339.019 101.677 338.948C107.417 338.878 111.055 335.101 109.873 332.552C108.691 330.003 107.299 323.96 92.6746 322.233C78.0496 320.506 71.4536 325.668 68.3996 329.706C65.3456 333.745 68.8326 338.168 71.2706 337.459Z" fill="white"/>
</g>
<path d="M98.4432 328.546C96.9332 328.146 95.2792 328.1 93.7242 328.114C92.1982 328.128 90.6712 328.24 89.1642 328.488C86.1972 328.976 83.3142 329.944 80.5712 331.161C75.4312 333.441 70.3302 336.417 66.9892 341.047C65.2272 343.489 63.6962 346.263 62.6852 349.104C62.4912 349.65 63.5492 349.958 63.7892 349.469C64.9572 347.086 65.9682 344.68 67.4442 342.457C68.9502 340.189 70.8122 338.185 73.0462 336.621C77.6722 333.383 83.0332 330.751 88.5602 329.522C90.1882 329.16 91.8432 328.883 93.5102 328.793C95.1862 328.703 96.8132 328.89 98.4812 328.98C98.7032 328.992 98.5992 328.587 98.4432 328.546Z" fill="#8D1B3D"/>
<path opacity="0.3" d="M98.4432 328.546C96.9332 328.146 95.2792 328.1 93.7242 328.114C92.1982 328.128 90.6712 328.24 89.1642 328.488C86.1972 328.976 83.3142 329.944 80.5712 331.161C75.4312 333.441 70.3302 336.417 66.9892 341.047C65.2272 343.489 63.6962 346.263 62.6852 349.104C62.4912 349.65 63.5492 349.958 63.7892 349.469C64.9572 347.086 65.9682 344.68 67.4442 342.457C68.9502 340.189 70.8122 338.185 73.0462 336.621C77.6722 333.383 83.0332 330.751 88.5602 329.522C90.1882 329.16 91.8432 328.883 93.5102 328.793C95.1862 328.703 96.8132 328.89 98.4812 328.98C98.7032 328.992 98.5992 328.587 98.4432 328.546Z" fill="black"/>
<path d="M59.2784 361.365C58.1364 357.003 52.6084 354.556 45.3824 354.016C38.1564 353.476 31.1894 356.777 27.4094 363.24C23.6294 369.704 22.0604 374.848 24.3574 375.693C26.6554 376.537 36.3624 377.882 42.6314 378.439C48.9004 378.995 56.7244 377.868 61.8354 373.105C66.9454 368.342 65.2604 362.368 59.2784 361.365Z" fill="#8D1B3D"/>
<path opacity="0.3" d="M59.2784 361.365C58.1364 357.003 52.6084 354.556 45.3824 354.016C38.1564 353.476 31.1894 356.777 27.4094 363.24C23.6294 369.704 22.0604 374.848 24.3574 375.693C26.6554 376.537 36.3624 377.882 42.6314 378.439C48.9004 378.995 56.7244 377.868 61.8354 373.105C66.9454 368.342 65.2604 362.368 59.2784 361.365Z" fill="white"/>
<path d="M59.5484 360.788C57.0944 359.998 54.2744 360.137 51.7454 360.424C49.2354 360.709 46.7654 361.299 44.3784 362.121C41.8554 362.99 39.4214 364.121 37.0824 365.402C35.8584 366.073 34.6564 366.784 33.4794 367.533C32.3844 368.231 31.2304 368.914 30.2474 369.766C30.2094 369.799 30.2164 369.951 30.2874 369.919C31.4744 369.388 32.5854 368.638 33.7174 368C34.9394 367.312 36.1714 366.639 37.4224 366.005C39.7614 364.82 42.1614 363.763 44.6514 362.938C47.1354 362.116 49.7094 361.535 52.3174 361.297C54.7764 361.073 57.1784 361.324 59.6294 361.483C60.1354 361.517 59.8494 360.885 59.5484 360.788Z" fill="#8D1B3D"/>
<path opacity="0.3" d="M59.5484 360.788C57.0944 359.998 54.2744 360.137 51.7454 360.424C49.2354 360.709 46.7654 361.299 44.3784 362.121C41.8554 362.99 39.4214 364.121 37.0824 365.402C35.8584 366.073 34.6564 366.784 33.4794 367.533C32.3844 368.231 31.2304 368.914 30.2474 369.766C30.2094 369.799 30.2164 369.951 30.2874 369.919C31.4744 369.388 32.5854 368.638 33.7174 368C34.9394 367.312 36.1714 366.639 37.4224 366.005C39.7614 364.82 42.1614 363.763 44.6514 362.938C47.1354 362.116 49.7094 361.535 52.3174 361.297C54.7764 361.073 57.1784 361.324 59.6294 361.483C60.1354 361.517 59.8494 360.885 59.5484 360.788Z" fill="black"/>
<path d="M302.027 98.4267C293.512 97.1077 292.035 91.7336 290.833 87.3596L290.49 86.1296H282.784C278.43 86.1296 274.888 82.5876 274.888 78.2346V40.3056C274.888 35.9516 278.43 32.4106 282.784 32.4106H308.062C312.415 32.4106 315.956 35.9526 315.956 40.3056V78.2346C315.956 82.5886 312.415 86.1296 308.062 86.1296H300.043L299.887 86.5286C298.397 90.3426 299.391 95.3547 302.027 98.4267Z" fill="white"/>
<path d="M308.063 33.0387C312.07 33.0387 315.33 36.2987 315.33 40.3057V78.2347C315.33 82.2417 312.07 85.5017 308.063 85.5017H300.473H299.616L299.304 86.2997C297.911 89.8607 298.507 94.2647 300.546 97.4897C293.812 95.8307 292.512 91.0967 291.439 87.1937C291.366 86.9287 291.295 86.6687 291.223 86.4157L290.965 85.5017H290.015H282.785C278.778 85.5017 275.518 82.2417 275.518 78.2347V40.3057C275.518 36.2987 278.778 33.0387 282.785 33.0387H308.063ZM308.063 31.7827H282.784C278.077 31.7827 274.261 35.5987 274.261 40.3057V78.2347C274.261 82.9417 278.077 86.7577 282.784 86.7577H290.014C291.333 91.4277 292.626 98.3947 303.828 99.2657C300.343 96.6647 298.836 90.9427 300.473 86.7577H308.063C312.77 86.7577 316.586 82.9417 316.586 78.2347V40.3057C316.585 35.5987 312.77 31.7827 308.063 31.7827Z" fill="#8D1B3D"/>
<path d="M285.312 44.2518C285.923 43.7378 286.591 43.2568 287.31 42.8098C288.034 42.3628 288.805 41.9688 289.634 41.6288C290.463 41.2888 291.352 41.0248 292.303 40.8348C293.257 40.6448 294.289 40.5498 295.397 40.5498C296.953 40.5498 298.355 40.7558 299.609 41.1708C300.858 41.5848 301.922 42.1778 302.799 42.9478C303.677 43.7158 304.353 44.6438 304.826 45.7298C305.299 46.8128 305.533 48.0178 305.533 49.3448C305.533 50.6028 305.359 51.6918 305.012 52.6118C304.664 53.5298 304.223 54.3298 303.694 55.0078C303.164 55.6868 302.582 56.2758 301.943 56.7728C301.304 57.2698 300.701 57.7288 300.132 58.1518C299.557 58.5748 299.059 58.9928 298.639 59.4048C298.218 59.8198 297.949 60.2838 297.831 60.7958L297.135 64.2748H291.871L291.326 60.2738C291.193 59.4628 291.274 58.7558 291.573 58.1508C291.872 57.5468 292.281 57.0008 292.802 56.5108C293.324 56.0218 293.909 55.5588 294.552 55.1198C295.199 54.6808 295.805 54.2078 296.367 53.7028C296.929 53.1968 297.406 52.6358 297.794 52.0148C298.182 51.3928 298.38 50.6528 298.38 49.7908C298.38 48.7958 298.053 48.0058 297.398 47.4178C296.743 46.8318 295.846 46.5358 294.702 46.5358C293.824 46.5358 293.092 46.6268 292.501 46.8088C291.915 46.9928 291.41 47.1948 290.99 47.4178C290.565 47.6418 290.197 47.8448 289.882 48.0258C289.567 48.2098 289.255 48.3008 288.94 48.3008C288.228 48.3008 287.698 47.9938 287.35 47.3808L285.312 44.2518ZM289.882 73.2408C289.882 72.6448 289.994 72.0908 290.217 71.5748C290.443 71.0638 290.747 70.6148 291.139 70.2348C291.527 69.8548 291.984 69.5518 292.518 69.3268C293.048 69.1048 293.627 68.9928 294.257 68.9928C294.868 68.9928 295.437 69.1038 295.97 69.3268C296.5 69.5508 296.962 69.8548 297.362 70.2348C297.758 70.6148 298.07 71.0638 298.292 71.5748C298.514 72.0898 298.628 72.6438 298.628 73.2408C298.628 73.8368 298.515 74.3948 298.292 74.9168C298.07 75.4378 297.758 75.8908 297.362 76.2708C296.962 76.6508 296.5 76.9498 295.97 77.1648C295.436 77.3808 294.866 77.4888 294.257 77.4888C293.626 77.4888 293.047 77.3818 292.518 77.1648C291.984 76.9508 291.527 76.6508 291.139 76.2708C290.747 75.8908 290.444 75.4378 290.217 74.9168C289.994 74.3958 289.882 73.8378 289.882 73.2408Z" fill="#8D1B3D"/>
<path d="M172.271 17.4666C178.106 8.9716 193.707 1.9256 212.997 1.7436C230.544 1.5776 251.901 6.7366 257.239 23.5946C261.791 37.9726 247.776 51.3306 233.226 54.1756C226.915 55.4096 221.035 55.9406 215.666 56.0316C212.97 61.0696 206.643 64.1666 201.88 64.4886C204.342 61.5716 204.987 58.2086 205.041 55.6306C199.677 55.1266 195.117 54.2426 191.559 53.3526C166.297 47.0386 165.742 26.9716 172.271 17.4666Z" fill="#8D1B3D"/>
<path opacity="0.4" d="M172.271 17.4666C178.106 8.9716 193.707 1.9256 212.997 1.7436C230.544 1.5776 251.901 6.7366 257.239 23.5946C261.791 37.9726 247.776 51.3306 233.226 54.1756C226.915 55.4096 221.035 55.9406 215.666 56.0316C212.97 61.0696 206.643 64.1666 201.88 64.4886C204.342 61.5716 204.987 58.2086 205.041 55.6306C199.677 55.1266 195.117 54.2426 191.559 53.3526C166.297 47.0386 165.742 26.9716 172.271 17.4666Z" fill="white"/>
<path d="M232.728 28.7365C232.728 31.6295 235.073 33.9745 237.966 33.9745C240.859 33.9745 243.204 31.6295 243.204 28.7365C243.204 25.8435 240.859 23.4985 237.966 23.4985C235.073 23.4985 232.728 25.8435 232.728 28.7365ZM208.195 28.7365C208.195 31.6295 210.54 33.9745 213.433 33.9745C216.326 33.9745 218.671 31.6295 218.671 28.7365C218.671 25.8435 216.326 23.4985 213.433 23.4985C210.54 23.4985 208.195 25.8435 208.195 28.7365ZM183.662 28.7365C183.662 31.6295 186.007 33.9745 188.9 33.9745C191.793 33.9745 194.138 31.6295 194.138 28.7365C194.138 25.8435 191.793 23.4985 188.9 23.4985C186.007 23.4985 183.662 25.8435 183.662 28.7365Z" fill="white"/>
<path d="M360.651 346.48L362.401 328.089L340.668 328.934C340.668 328.934 341.058 338.905 341.389 344.547C341.584 347.883 338.77 354.836 338.77 354.836C338.77 354.836 348.338 360.047 353.425 358.149C358.512 356.25 361.157 349.641 361.074 348.205C360.991 346.771 360.651 346.48 360.651 346.48Z" fill="#FFA8A7"/>
<path d="M312.06 375.616C311.741 375.613 311.232 379.032 312.959 380.502C314.952 382.198 320.821 385.008 328.608 384.1C336.396 383.192 340.626 380.893 343.758 378.391C346.889 375.89 351.279 372.361 354.804 371.639C358.078 370.968 361.639 369.561 362.692 368.59C363.746 367.618 363.632 363.256 363.632 363.256L312.06 375.616Z" fill="#263238"/>
<path d="M360.654 346.446C360.654 346.446 361.63 346.465 361.824 347.477C362.055 348.681 362.288 352.177 362.788 354.154C363.482 356.902 363.919 362.525 363.475 364.755C363.03 366.986 357.689 368.492 354.275 369.72C350.787 370.975 346.744 373.59 343.192 376.386C339.515 379.279 331.801 382.256 326.731 382.175C320.732 382.079 313.991 380.134 312.462 377.42C310.571 374.062 309.205 370.168 318.13 366.246C319.82 365.504 325.76 362.157 327.785 360.944C333.264 357.66 337.124 354.635 339.677 348.761C339.975 348.075 340.289 347.314 340.969 346.969C341.491 346.705 342.117 346.748 342.7 346.833C344.18 347.048 350.086 347.891 351.432 348.528C352.622 349.091 354.311 349.749 354.274 351.233C354.261 351.749 354.103 352.251 353.928 352.738C353.819 353.04 353.732 353.443 354.004 353.624C354.261 353.796 354.604 353.606 354.838 353.406C355.775 352.604 356.465 351.572 357.257 350.634C357.68 350.131 358.142 349.65 358.675 349.254C359.159 348.895 359.775 348.719 360.206 348.31C360.748 347.791 360.624 347.142 360.654 346.446Z" fill="#455A64"/>
<path d="M343.191 376.386C344.752 375.157 346.408 373.972 348.07 372.913V372.905C348.07 372.905 337.562 378.986 333.356 376.146C330.646 374.317 331.958 372.134 332.028 371.434C332.099 370.733 322.52 365.701 319.878 365.372C319.138 365.761 318.518 366.074 318.129 366.244C309.204 370.166 310.571 374.06 312.462 377.419C313.99 380.133 318.868 382.282 326.622 382.351C331.692 382.398 339.513 379.28 343.191 376.386Z" fill="#37474F"/>
<path d="M332.774 369.398C327.226 371.496 329.579 372.52 331.126 372.748C332.674 372.977 342.024 367.781 347.734 363.47C353.691 358.974 357.462 354.034 359.675 352.384C360.5 351.768 361.388 351.011 362.179 350.303C362.042 349.12 361.932 348.043 361.824 347.476C361.63 346.465 360.654 346.445 360.654 346.445C360.623 347.141 360.748 347.79 360.204 348.308C359.774 348.717 359.158 348.893 358.673 349.252C358.14 349.648 357.678 350.129 357.255 350.632C356.464 351.571 355.774 352.603 354.836 353.404C349.961 359.314 338.321 367.3 332.774 369.398Z" fill="#37474F"/>
<path d="M331.525 371.963C331.648 371.964 331.77 371.926 331.873 371.846C332.109 371.663 332.147 371.328 331.956 371.099C330.408 369.229 323.041 364.761 318.968 365.159C318.666 365.187 318.447 365.448 318.478 365.739C318.507 366.03 318.745 366.235 319.077 366.216C322.88 365.854 329.877 370.283 331.103 371.764C331.209 371.893 331.366 371.961 331.525 371.963Z" fill="#263238"/>
<path d="M336.371 369.123C336.494 369.124 336.616 369.086 336.719 369.006C336.955 368.823 336.991 368.488 336.802 368.259C335.255 366.391 327.891 361.926 323.814 362.32C323.512 362.349 323.293 362.61 323.324 362.9C323.354 363.192 323.614 363.405 323.923 363.377C327.728 363.019 334.723 367.443 335.949 368.924C336.056 369.054 336.213 369.122 336.371 369.123Z" fill="#263238"/>
<path d="M341.219 366.436C341.341 366.437 341.464 366.399 341.566 366.318C341.802 366.135 341.838 365.801 341.649 365.571C340.101 363.702 332.735 359.23 328.661 359.632C328.36 359.66 328.14 359.921 328.172 360.213C328.202 360.504 328.458 360.718 328.771 360.69C332.576 360.327 339.571 364.755 340.797 366.237C340.903 366.366 341.06 366.434 341.219 366.436Z" fill="#263238"/>
<path d="M345.713 363.357C345.835 363.358 345.958 363.321 346.06 363.24C346.296 363.057 346.332 362.723 346.143 362.493C344.596 360.623 337.213 356.156 333.155 356.554C332.854 356.583 332.634 356.843 332.665 357.134C332.695 357.426 332.953 357.638 333.264 357.612C337.064 357.252 344.064 361.677 345.29 363.158C345.398 363.288 345.554 363.356 345.713 363.357Z" fill="#263238"/>
<path d="M350.118 360.278C350.237 360.279 350.358 360.243 350.459 360.166C350.698 359.986 350.739 359.652 350.554 359.421C348.427 356.771 340.706 353.024 336.634 353.42C336.333 353.448 336.113 353.709 336.144 354.001C336.174 354.292 336.434 354.497 336.743 354.478C340.409 354.124 347.803 357.725 349.691 360.074C349.797 360.207 349.957 360.277 350.118 360.278Z" fill="#263238"/>
<path d="M397.961 356.267L393.688 338.666L415.206 335.463L415.768 352.416C415.768 352.416 417.843 358.51 416.528 360.708C415.213 362.907 400.668 365.461 399.414 363.978C398.161 362.495 397.961 356.267 397.961 356.267Z" fill="#FFA8A7"/>
<path d="M399.262 394.469C399.821 399.905 400.888 403.427 403.126 406.389C405.365 409.352 410.097 409.535 414.101 408.118C418.104 406.701 423.18 403.577 424.155 398.716C425.13 393.855 424.77 390.644 423.656 385.673L399.262 394.469Z" fill="#263238"/>
<path d="M415.769 352.417C417.438 352.341 416.948 359.778 418.193 367.028C419.527 374.799 422.218 377.761 423.388 384.123C424.725 391.392 424.43 394.745 421.785 399.547C419.141 404.35 408.628 410.266 403.463 404.444C399.252 399.698 398.862 393.93 398.941 386.504C399.023 378.828 399.147 373.421 398.583 367.67C398.044 362.173 396.544 357.272 397.966 356.486C398.109 357.286 398.257 358.304 398.406 359.089C398.521 359.691 398.803 362.668 399.737 362.588C399.796 361.871 399.754 361.214 399.674 360.5C399.605 359.879 399.636 359.19 400.061 358.661C400.489 358.127 402.085 357.472 402.755 357.27C404.382 356.779 407.99 355.821 409.649 355.486C410.475 355.32 411.305 355.185 412.138 355.095C412.813 355.023 413.61 354.981 414.258 355.123C414.656 355.21 415.029 355.424 415.188 355.767C415.306 356.021 415.297 356.317 415.308 356.601C415.328 357.112 415.418 357.615 415.575 358.094C415.645 358.305 415.819 358.552 416.055 358.471C416.247 358.405 416.315 358.175 416.309 357.992C416.281 357.099 416.132 356.465 416.047 355.433C416.008 354.956 415.898 354.312 415.872 353.831C415.844 353.359 415.822 352.886 415.769 352.417Z" fill="#455A64"/>
<path d="M422.929 382.065C423.132 383.113 424.389 390.057 422.346 391.577C420.135 393.222 418.677 387.817 418.677 387.817C418.677 387.817 412.603 387.304 404.993 391.325C405.434 392.423 404.388 396.342 402.236 395.794C400.098 395.25 398.952 387.249 398.938 387.145C398.891 394.261 399.376 399.837 403.464 404.445C408.63 410.267 419.142 404.351 421.786 399.548C424.431 394.745 424.726 391.393 423.389 384.124C423.254 383.396 423.098 382.717 422.929 382.065Z" fill="#37474F"/>
<path d="M418.089 388.362C418.226 391.031 421.062 389.79 421.041 386.001C421.019 382.213 418.424 373.523 418.194 367.028C417.786 358.113 417.439 352.341 415.77 352.417C415.78 352.507 415.781 352.598 415.789 352.688L416.153 356.402C416.222 356.94 416.291 357.416 416.309 357.992C416.562 363.438 416.541 374.015 417.245 378.939C417.948 383.863 417.952 385.694 418.089 388.362Z" fill="#37474F"/>
<path d="M405.886 391.145C405.238 388.584 404.709 386.865 403.937 381.955C403.171 377.082 400.448 367.315 399.103 362.064C398.661 361.2 398.488 359.524 398.405 359.088C398.266 358.356 398.128 357.426 397.994 356.654C397.98 356.6 397.967 356.547 397.956 356.492C396.931 357.077 397.246 361.298 397.768 363.487C398.29 365.676 398.93 368.023 399.579 371.163C401.253 377.353 401.339 386.625 402.421 390.19C403.504 393.755 406.534 393.706 405.886 391.145Z" fill="#37474F"/>
<path d="M404.837 391.56C404.914 391.544 404.988 391.514 405.059 391.472C405.117 391.435 411.753 387.529 418.538 388.383C418.872 388.423 419.202 388.203 419.277 387.892C419.353 387.579 419.144 387.293 418.812 387.25C411.553 386.336 404.707 390.376 404.447 390.535C404.152 390.715 404.047 391.071 404.217 391.33C404.346 391.527 404.596 391.611 404.837 391.56Z" fill="#263238"/>
<path d="M403.223 385.923C403.292 385.908 403.36 385.883 403.426 385.846C403.492 385.809 410.875 381.726 418.434 382.436C418.768 382.462 419.092 382.238 419.158 381.923C419.223 381.609 419.003 381.328 418.668 381.297C410.674 380.55 403.141 384.723 402.853 384.884C402.551 385.057 402.434 385.41 402.591 385.676C402.715 385.884 402.972 385.976 403.223 385.923Z" fill="#263238"/>
<path d="M417.816 376.975C418.048 376.926 418.253 376.758 418.325 376.532C418.421 376.222 418.237 375.92 417.911 375.857C410.359 374.414 402.417 379.125 402.111 379.312C401.814 379.493 401.711 379.848 401.881 380.108C402.051 380.366 402.432 380.423 402.722 380.249C402.791 380.208 410.527 375.628 417.554 376.98C417.642 376.995 417.73 376.993 417.816 376.975Z" fill="#263238"/>
<path d="M417.186 371.829C417.414 371.781 417.615 371.617 417.69 371.396C417.794 371.086 417.615 370.781 417.29 370.714C408.978 368.98 401.469 373.965 401.184 374.162C400.899 374.359 400.819 374.718 401.007 374.966C401.195 375.213 401.585 375.253 401.862 375.056C401.925 375.011 409.177 370.219 416.913 371.831C417.006 371.85 417.098 371.848 417.186 371.829Z" fill="#263238"/>
<path d="M416.454 366.052C416.678 366.004 416.879 365.844 416.956 365.626C417.064 365.318 416.891 365.01 416.567 364.938C408.773 363.198 400.668 368.35 400.357 368.558C400.067 368.747 399.98 369.107 400.16 369.359C400.339 369.611 400.719 369.665 401.01 369.468C401.083 369.421 408.937 364.435 416.173 366.052C416.268 366.071 416.362 366.072 416.454 366.052Z" fill="#263238"/>
<path d="M407.318 179.465C413.15 221.679 410.709 266.872 411.322 275.372C411.995 283.105 413.565 286.846 414.565 301.807C415.508 315.918 416.85 343.582 416.873 345.247C416.873 345.247 409.088 350.974 394.641 349.544C394.641 349.544 382.171 308.505 377.41 290.068C372.903 272.62 370.621 244.555 370.621 244.555L368.516 273.206C368.516 273.206 369.343 283.835 369.225 291.789C369.088 301.04 363.42 338.952 363.42 338.952C363.42 338.952 349.059 342.795 339.703 336.861C339.703 336.861 334.44 284.021 333.917 272.911C332.892 251.118 333.282 204.017 335.608 177.185L407.318 179.465Z" fill="#455A64"/>
<path d="M370.62 244.555L367.981 216.837C367.981 216.837 355.404 215.033 350.075 210.201C350.075 210.201 354.599 218.248 364.241 220.56L367.541 245.421L368.516 273.206L370.62 244.555Z" fill="#37474F"/>
<path d="M405.36 342.052C409.197 341.348 413.107 340.139 416.558 338.151C416.529 337.543 416.498 336.908 416.466 336.244C415.224 336.931 413.962 337.573 412.647 338.126C412.47 330.578 412.33 318.417 411.625 309.922C411.21 304.92 410.394 299.176 409.664 294.6C408.867 289.606 408.43 285.997 407.515 281.02C405.803 271.705 405.688 262.593 405.587 253.13C405.486 243.656 405.73 234.179 405.39 224.709C405.059 215.477 404.33 206.009 401.771 197.117C401.479 196.104 401.155 195.111 400.79 194.125C400.602 193.619 399.654 193.46 399.813 194.177C400.823 198.731 401.794 203.296 402.438 207.925C403.072 212.483 403.441 217.077 403.655 221.674C401.485 221.705 399.526 220.854 397.972 219.22C396.332 217.496 395.406 215.178 394.737 212.895C393.21 207.683 392.305 202.191 391.559 196.807C391.122 193.657 390.79 190.493 390.554 187.32C390.497 186.552 389.112 186.529 389.173 187.362C389.622 193.414 390.43 199.434 391.609 205.379C392.166 208.189 392.737 211.029 393.588 213.762C394.326 216.136 395.404 218.468 397.169 220.206C398.851 221.861 401.328 223.112 403.691 222.744C404.067 231.746 403.906 240.761 403.947 249.769C403.99 259.047 404.249 268.36 405.6 277.546C407.036 287.313 408.681 296.097 409.721 305.916C411.018 318.167 411.025 326.807 411.459 338.594C409.3 339.4 407.066 339.989 404.807 340.395C402.294 340.847 399.755 341.111 397.207 341.201C395.496 341.262 393.797 341.191 392.097 341.118C392.267 341.686 392.432 342.232 392.588 342.753C394.106 342.826 395.63 342.834 397.127 342.811C399.884 342.77 402.644 342.551 405.36 342.052Z" fill="#37474F"/>
<path d="M361.883 312.684C362.598 306.076 363.089 299.434 363.133 292.783C363.155 289.439 363.065 286.095 362.837 282.759C362.617 279.542 362.197 276.34 362.074 273.117C361.823 266.508 363.127 258.549 363.951 252.022C365.037 243.422 366.299 235.792 366.063 228.34C366.054 228.041 365.351 226.731 365.327 227.164C364.97 233.87 363.574 242.493 362.782 250.32C362.118 256.88 360.868 264.073 360.793 270.689C360.757 273.92 361.127 277.127 361.405 280.339C361.689 283.619 361.837 286.91 361.869 290.203C361.932 296.849 361.532 303.492 360.879 310.101C360.514 313.796 360.069 317.482 359.583 321.162C359.11 324.735 358.513 328.302 358.146 331.889C355.918 332.069 353.674 332.034 351.451 331.825C348.911 331.586 346.393 331.157 343.909 330.559C342.221 330.152 340.579 329.619 338.935 329.085C338.995 329.697 339.052 330.28 339.106 330.831C340.539 331.303 341.992 331.716 343.429 332.092C346.101 332.792 348.822 333.322 351.569 333.571C355.792 333.954 360.244 333.778 364.358 332.527C364.44 331.959 364.526 331.359 364.615 330.736C362.865 331.188 361.108 331.568 359.301 331.782C360.459 325.483 361.195 319.051 361.883 312.684Z" fill="#37474F"/>
<path d="M349.042 97.0195C340.277 99.5045 337.363 101.549 330.874 110.972C326.005 118.042 313.621 138.441 313.621 138.441C313.621 138.441 311.459 163.704 316.91 163.542C319.637 163.461 322.86 162.393 325.155 159.978C332.684 152.056 345.281 134.127 345.281 134.127L349.042 97.0195Z" fill="#FFA8A7"/>
<path d="M349.349 96.2356C344.344 96.8816 338.112 99.1836 334.173 104.39C330.234 109.595 319.302 127.677 319.302 127.677C319.302 127.677 319.599 133.105 326.07 139.576C332.541 146.047 338.339 146.059 338.339 146.059L354.371 121.996L349.349 96.2356Z" fill="#455A64"/>
<path d="M314.375 137.201C317.785 140.044 323.192 154.265 323.192 154.265C323.192 154.265 324.9 148.187 322.605 142.673C320.31 137.16 316.588 133.581 316.588 133.581L314.375 137.201Z" fill="#F28F8F"/>
<path d="M263.988 121.568C262.831 119.617 259.83 120.623 258.263 119.361C257.188 118.495 257.517 117.157 258.631 116.587C259.848 115.964 261.276 116.26 262.584 116.158C264.13 116.037 265.549 115.489 266.906 114.759C269.728 113.24 273.318 112.019 276.32 113.873C276.172 113.782 274.551 114.977 274.393 115.075C270.924 117.24 267.444 119.386 263.988 121.568Z" fill="#F28F8F"/>
<path d="M252.124 121.527C252.522 121.656 252.912 121.797 253.289 121.938C253.783 122.124 254.284 122.29 254.775 122.483C255.013 122.577 255.249 122.677 255.478 122.788C255.584 122.839 256.064 123.187 256.153 123.161C257.293 122.839 258.671 121.989 260.613 122.111C262.555 122.233 262.992 122.572 265.439 120.419C267.087 118.969 269.019 116.441 271.256 115.113C273.493 113.785 275.826 112.927 278.533 114.954C281.239 116.98 282.639 118.422 285.497 120.345C287.655 121.797 289.192 122.893 300.218 129.064C308.318 133.597 314.989 136.2 320.422 143.531C322.616 146.491 327.312 157.65 325.157 159.977C322.111 163.266 314.437 166.185 305.78 159.734C302.305 157.145 299.6 154.989 294.494 150.181C290.912 146.807 289.347 145.04 284.248 140.153C279.177 135.293 276.215 132.782 273.351 131.474C270.907 130.357 267.841 130.905 265.779 131.202C262.197 131.718 261.328 131.651 257.631 131.076C254.904 130.652 253.119 130.041 251.24 129.692C249.361 129.343 247.707 128.166 245.866 127.274C244.693 126.706 244.001 126.378 242.689 125.757C242.398 125.619 241.914 125.415 241.738 125.146C241.612 124.954 241.79 124.491 241.854 124.27C241.918 124.049 242.052 123.854 242.201 123.679C242.119 123.763 241.184 123.543 241.042 123.514C240.695 123.443 240.402 123.361 240.037 123.325C239.783 123.3 239.496 123.164 239.464 122.911C239.445 122.759 239.526 122.613 239.613 122.488C239.976 121.966 240.505 121.56 241.104 121.345C241.91 121.055 242.791 121.112 243.645 121.056C243.772 121.048 243.901 121.036 244.016 120.982C244.166 120.912 244.275 120.78 244.4 120.672C244.796 120.33 245.354 120.235 245.876 120.273C246.823 120.343 247.712 120.678 248.636 120.857C249.194 120.965 249.766 120.984 250.327 121.076C250.921 121.17 251.53 121.334 252.124 121.527Z" fill="#FFA8A7"/>
<path d="M258.725 123.882C259.594 123.931 260.465 123.706 261.259 123.354C261.936 123.044 262.557 122.635 263.122 122.154C263.856 121.909 264.517 121.473 265.044 121.052C266.318 119.967 267.661 118.474 269.098 117.131C270.493 116.533 271.978 116.076 273.402 116.345C274.143 116.47 274.857 116.671 275.55 117C276.244 117.331 276.944 118.001 277.629 118.448C277.17 117.767 276.574 117.174 275.88 116.711C275.189 116.241 274.39 115.93 273.566 115.777C272.079 115.511 270.562 116.094 269.322 116.924C272.012 114.458 275.029 112.606 278.533 114.954C275.888 112.516 272.199 113.861 269.716 115.87C267.242 117.675 265.548 120.766 262.614 121.795C261.947 121.932 261.146 121.758 260.318 121.756C258.832 121.713 257.503 122.358 256.149 122.83C256.085 122.797 256.012 122.753 255.938 122.707C253.751 121.655 251.423 120.898 249.014 120.737C247.544 120.652 245.727 119.603 244.398 120.669C245.838 119.755 247.436 120.785 248.949 120.977C251.368 121.244 253.714 122.062 255.819 123.197C255.892 123.209 256.026 123.334 256.317 123.294C257.647 122.871 258.745 122.199 260.159 122.262C260.868 122.264 261.71 122.407 262.564 122.294C262.459 122.346 262.354 122.398 262.249 122.449C261.865 122.632 261.489 122.825 261.104 122.994C260.337 123.348 259.554 123.625 258.725 123.882ZM252.876 125.259C252.572 125.325 252.257 125.389 251.954 125.321C251.725 125.27 251.52 125.147 251.312 125.039C250.422 124.579 249.4 124.377 248.402 124.462C248.168 124.482 247.93 124.517 247.7 124.468C247.466 124.419 247.26 124.286 247.048 124.176C246.275 123.774 245.39 123.654 244.525 123.541C244.31 123.513 244.088 123.485 243.873 123.501C243.747 123.51 243.623 123.534 243.504 123.581C244.25 123.574 244.996 123.694 245.703 123.929C246.391 124.158 246.941 124.537 247.561 124.881L247.648 124.929L247.781 124.916C248.113 124.883 248.493 124.882 248.851 124.898C249.209 124.914 249.562 124.972 249.912 125.039C250.616 125.173 251.292 125.429 251.915 125.785L252.107 125.894L252.245 125.836C252.479 125.736 252.761 125.643 253.032 125.576C253.307 125.51 253.586 125.445 253.87 125.41C254.153 125.375 254.441 125.335 254.731 125.333C255.022 125.324 255.313 125.347 255.613 125.366C254.724 124.983 253.802 125.057 252.876 125.259ZM244.664 121.167C244.493 121.137 244.303 121.168 244.138 121.135C244.688 121.247 245.223 121.551 245.735 121.774C245.845 121.822 245.956 121.871 246.072 121.904C246.196 121.94 246.324 121.957 246.451 121.975C247.098 122.064 247.733 122.114 248.345 122.351C249.001 122.592 249.598 122.955 250.111 123.407L250.273 123.55L250.47 123.469C250.793 123.335 251.194 123.226 251.574 123.149C251.962 123.077 252.358 123.024 252.758 123.001C253.158 122.985 253.563 122.976 253.971 123.001C254.381 123.011 254.786 123.076 255.203 123.12C253.883 122.651 252.597 122.688 252.068 122.765C251.737 122.813 251.408 122.877 251.08 122.946C250.858 122.993 250.469 123.156 250.249 123.035C250.211 123.014 250.181 122.982 250.15 122.951C249.638 122.424 248.964 122.058 248.243 121.915C247.557 121.779 246.843 121.84 246.166 121.655C245.836 121.565 245.524 121.412 245.198 121.307C245.023 121.248 244.845 121.198 244.664 121.167Z" fill="#F28F8F"/>
<path d="M383.698 96.8457C392.441 98.2397 398.503 99.6167 402.72 100.557C402.72 100.557 413.252 108.082 410.249 139.583C409.825 144.03 408.796 156.771 408.891 167.484C408.958 175.104 408.783 185.404 409.128 190.709C409.128 190.709 391.5 200.953 362.058 197.78C338.942 195.288 334.29 186.742 334.29 186.742C334.461 180.091 334.979 149.849 336.071 131.733C337.467 108.592 342.879 103.477 349.349 96.2357C349.349 96.2357 354.01 95.5807 363.523 95.5947C371.58 95.6067 374.955 95.4517 383.698 96.8457Z" fill="#F0F0F0"/>
<path d="M344.353 118.676C343.38 123.64 342.905 128.302 342.812 133.853C354.255 137.922 368.228 141.016 381.714 140.467C381.794 134.772 382.22 130.037 382.771 124.651C373.283 124.976 356.157 122.874 344.353 118.676Z" fill="#E0E0E0"/>
<path d="M390.083 49.2437C390.083 49.2437 393.843 49.8267 395.991 54.5647C397.07 56.9447 397.68 62.7157 393.409 74.3157C390.661 81.7817 387.784 84.8997 386.455 86.9317C385.126 88.9627 382.674 89.3617 382.674 89.3617L383.585 80.2507L384.386 72.3767C384.386 72.3767 379.079 70.5167 378.214 63.1817C377.519 57.2867 380.067 55.0826 380.067 55.0826L390.083 49.2437Z" fill="#263238"/>
<path d="M395.755 53.7806C397.486 44.7766 380.285 31.5936 369.44 37.8946C365.902 32.8186 357.119 34.8236 356.159 39.9516C353.068 38.3896 346.919 45.4896 348.267 49.3536C345.152 57.7646 349.366 61.2526 353.535 61.2496C363.744 61.2416 374.677 60.8646 384.963 61.5736C384.963 61.5716 395.732 53.7976 395.755 53.7806Z" fill="#263238"/>
<path d="M353.162 48.8567C350.988 50.7537 347.847 55.0667 346.864 71.2877C346.196 82.3117 348.854 87.2437 352.84 89.2647C355.46 90.5927 358.888 91.6697 363.612 91.7497L363.459 98.3627C353.665 107.255 379.948 109.946 386.629 98.2178L386.76 80.1137C387.446 81.4717 390.979 82.4137 393.656 79.8777C397.896 75.8627 397.21 69.9277 394.189 67.6447C391.061 65.2797 386.582 65.7417 384.816 70.1007C381.258 71.2407 378.766 66.3427 380.111 53.0657C365.741 56.3087 362.321 44.9147 353.162 48.8567Z" fill="#FFA8A7"/>
<path d="M363.611 91.7486C375.176 91.3916 380.645 86.0426 382.099 81.8296C382.099 81.8296 382.45 89.1156 374.349 92.5656C368.322 95.1326 363.64 94.5446 363.64 94.5446L363.611 91.7486Z" fill="#F28F8F"/>
<path d="M358.985 77.9486L366.636 75.8376C367.311 77.9296 366.144 80.0986 364.031 80.6816C361.919 81.2636 359.66 80.0396 358.985 77.9486Z" fill="#B16668"/>
<path d="M362.319 80.7656C362.879 80.8546 363.459 80.8386 364.031 80.6816C365.504 80.2756 366.499 79.0936 366.749 77.7086C364.727 77.6646 362.959 78.9256 362.319 80.7656Z" fill="#F28F8F"/>
<path d="M370.382 64.9297C370.248 66.1057 369.179 66.9507 367.994 66.8167C366.808 66.6827 365.956 65.6197 366.089 64.4427C366.222 63.2667 367.291 62.4217 368.477 62.5557C369.663 62.6897 370.516 63.7527 370.382 64.9297Z" fill="#263238"/>
<path d="M355.181 63.0005C355.047 64.1765 353.978 65.0215 352.793 64.8875C351.607 64.7535 350.754 63.6905 350.888 62.5135C351.021 61.3375 352.091 60.4925 353.276 60.6265C354.462 60.7605 355.314 61.8235 355.181 63.0005Z" fill="#263238"/>
<path d="M361.732 60.3525L359.286 73.6465L352.778 69.9645L361.732 60.3525Z" fill="#F28F8F"/>
<path d="M350.921 58.3276L356.035 57.1866C355.766 55.7616 354.403 54.8616 352.991 55.1766C351.579 55.4916 350.652 56.9026 350.921 58.3276Z" fill="#263238"/>
<path d="M372.542 61.1945L367.936 58.5635C368.624 57.2645 370.212 56.8015 371.484 57.5285C372.756 58.2545 373.23 59.8965 372.542 61.1945Z" fill="#263238"/>
<path d="M351.128 48.3897C372.246 48.8807 381.038 58.7177 381.038 58.7177C383.434 60.4237 387.27 63.5927 388.527 66.4707C390.179 66.0507 392.973 66.1227 395.336 68.8337C395.535 68.2927 396.135 67.6207 396.868 64.4907C398.52 57.4327 398.998 42.7597 382.342 36.8267C367.052 31.3807 356.11 33.6327 352.579 41.7927C351.817 43.5557 351.074 48.3917 351.128 48.3897Z" fill="#455A64"/>
<path d="M381.536 56.7417C381.122 56.2247 379.619 50.7108 372.102 44.8058C367.463 41.1618 357.085 39.2857 352.409 38.5867C344.221 37.3617 341.99 38.8307 341.695 40.0547C341.625 40.3457 341.298 41.6917 341.212 41.9947C341.126 42.2977 341.161 42.5887 341.259 42.8227C342.185 44.9407 348.267 49.3537 348.267 49.3537C358.927 48.1357 371.411 51.9557 381.037 58.7187L381.536 56.7417Z" fill="#8D1B3D"/>
<path d="M381.037 58.7177C371.411 51.9547 358.667 48.5507 348.267 49.3527C348.267 49.3527 342.185 44.9397 341.259 42.8217C340.769 41.6537 341.78 39.0467 351.91 40.5627C356.587 41.2627 366.964 43.1387 371.603 46.7817C379.121 52.6867 380.623 58.2007 381.037 58.7177Z" fill="#37474F"/>
<path d="M403.172 102.915C407.26 103.621 417.638 105.326 421.644 113.379C426.858 123.86 434.82 141.576 439.946 154.678C443.023 162.544 443.228 165.053 440.038 171.982C436.97 178.647 421.708 200.966 416.015 207.559C411.784 212.459 406.55 219.917 403.659 221.674C403.659 221.674 394.714 223.708 392.774 204.455C392.774 204.455 394.117 201.301 389.822 202.792C386.839 203.827 383.055 204.053 381.257 202.326C379.459 200.599 383.654 199.672 385.78 198.357C387.906 197.042 390.793 194.999 396.09 194.1C401.388 193.202 405.459 192.385 408.465 185.702C414.19 172.973 417.388 165.717 417.388 165.717L402.414 133.79C397.482 123.519 398.821 112.283 403.172 102.915Z" fill="#FFA8A7"/>
<path d="M402.72 100.557C415.491 103.761 420.094 107.086 425.715 120.13C429.495 128.901 436.024 144.128 436.024 144.128C436.024 144.128 433.205 149.319 425.516 152.178C414.657 156.216 411.036 154.378 411.036 154.378C411.036 154.378 405.503 142.275 400.927 132.605C395.139 120.37 397.98 105.881 402.72 100.557Z" fill="#455A64"/>
<path d="M417.388 165.717C420.575 160.756 427.133 159.192 427.133 159.192C427.133 159.192 421.117 157.267 416.039 162.963L417.388 165.717Z" fill="#F28F8F"/>
<path d="M124.052 230.637L126.636 222.57C128.028 216.053 101.439 231.404 100.048 237.921L108.616 260.981C108.944 261.733 109.454 262.291 110.053 262.659C111.936 263.817 118.862 267.724 119.464 268.093C121.361 269.253 124.151 268.526 124.941 266.058L136.039 227.998C136.725 224.783 130.6 226.894 124.052 230.637Z" fill="#8D1B3D"/>
<path opacity="0.2" d="M124.052 230.637L126.636 222.57C128.028 216.053 101.439 231.404 100.048 237.921L108.616 260.981C108.944 261.733 109.454 262.291 110.053 262.659C111.936 263.817 118.862 267.724 119.464 268.093C121.361 269.253 124.151 268.526 124.941 266.058L136.039 227.998C136.725 224.783 130.6 226.894 124.052 230.637Z" fill="white"/>
<path d="M161.361 65.9367L60.2808 124.247C58.3938 125.336 56.8638 127.986 56.8638 130.165V260.308C56.8638 262.487 58.4018 265.122 60.2998 266.192L65.3768 269.049C67.2748 270.12 70.3428 270.105 72.2298 269.015L173.31 210.706C175.197 209.617 176.727 206.967 176.727 204.788V74.6447C176.727 72.4657 175.189 69.8317 173.291 68.7597L168.213 65.9027C166.316 64.8327 163.248 64.8467 161.361 65.9367Z" fill="#8D1B3D"/>
<path opacity="0.2" d="M161.361 65.9367L60.2808 124.247C58.3938 125.336 56.8638 127.986 56.8638 130.165V260.308C56.8638 262.487 58.4018 265.122 60.2998 266.192L65.3768 269.049C67.2748 270.12 70.3428 270.105 72.2298 269.015L173.31 210.706C175.197 209.617 176.727 206.967 176.727 204.788V74.6447C176.727 72.4657 175.189 69.8317 173.291 68.7597L168.213 65.9027C166.316 64.8327 163.248 64.8467 161.361 65.9367Z" fill="white"/>
<path d="M173.311 72.6717L72.23 130.982C70.343 132.071 68.813 134.721 68.813 136.9V267.043C68.813 269.222 70.343 270.105 72.23 269.015L110.912 246.701L118.018 266.408C119.384 269.539 123.898 269.31 124.94 266.057L134.384 233.16L173.31 210.705C175.197 209.616 176.726 206.966 176.726 204.787V74.6447C176.727 72.4657 175.198 71.5827 173.311 72.6717Z" fill="#8D1B3D"/>
<path opacity="0.4" d="M173.311 72.6717L72.23 130.982C70.343 132.071 68.813 134.721 68.813 136.9V267.043C68.813 269.222 70.343 270.105 72.23 269.015L110.912 246.701L118.018 266.408C119.384 269.539 123.898 269.31 124.94 266.057L134.384 233.16L173.31 210.705C175.197 209.616 176.726 206.966 176.726 204.787V74.6447C176.727 72.4657 175.198 71.5827 173.311 72.6717Z" fill="white"/>
<path d="M77.5029 138.498C77.5479 138.382 77.6399 138.224 77.7169 138.127L168.039 86.0239V203.191C167.994 203.307 167.902 203.466 167.825 203.563L77.5029 255.666V138.498Z" fill="white"/>
<path opacity="0.7" d="M176.682 74.0258C176.414 72.3048 175.009 71.6898 173.305 72.6678L72.2366 130.982C71.2896 131.534 70.4376 132.465 69.8216 133.539L57.9326 126.677C58.5486 125.651 59.3686 124.767 60.2846 124.246L161.368 65.9328C163.246 64.8438 166.308 64.8278 168.217 65.9008L173.288 68.7548C175.009 69.7328 176.445 71.9888 176.682 74.0258Z" fill="white"/>
<path d="M162.786 206.468L84.2661 251.788C84.5011 244.267 85.1921 232.24 85.9291 219.241C87.6391 189.127 92.9311 179.524 99.4951 168.122L158.856 168.9C160.98 178.925 162.175 192.643 162.786 206.468Z" fill="#263238"/>
<path d="M133.037 206.332L130.425 225.146L133.549 223.343L135.063 212.848C140.071 211.722 151.489 205.992 154.682 197.718C146.911 205.473 133.037 206.332 133.037 206.332ZM108.207 183.074C106.967 186.267 105.986 189.533 105.128 192.831C104.318 196.129 103.637 199.468 103.159 202.831C102.673 206.186 102.332 209.581 102.389 212.985C103.248 209.687 104.05 206.413 104.853 203.139C105.672 199.865 106.433 196.591 107.276 193.333C108.078 190.075 108.953 186.826 109.845 183.584C110.753 180.342 111.701 177.125 112.779 173.884C110.873 176.753 109.431 179.889 108.207 183.074ZM103.401 180.205C101.95 182.028 100.67 183.973 99.4952 185.975C98.3602 188.001 97.3232 190.092 96.5292 192.272C95.7112 194.436 95.0872 196.689 94.8682 199.006L98.1012 192.944C99.2032 190.959 100.289 188.973 101.432 187.02C102.534 185.043 103.701 183.098 104.836 181.112C105.979 179.143 107.129 177.165 108.183 175.083C106.4 176.631 104.836 178.374 103.401 180.205ZM112.541 235.469L114.232 234.493C114.727 228.901 115.103 221.381 115.5 215.782C114.617 221.608 113.36 229.634 112.541 235.469Z" fill="black"/>
<path d="M105.251 39.2029C96.4739 41.7539 89.3469 54.7019 89.7069 67.0439C90.0669 79.3859 89.4279 85.2449 88.1819 88.5389C86.9349 91.8319 84.2749 94.5149 84.2749 94.5149C84.2749 94.5149 90.4279 91.6359 91.6249 83.1559C91.6249 83.1559 90.4369 93.9009 87.3749 98.6779C87.3749 98.6779 90.5919 101.27 97.4719 102.783C97.4719 102.783 99.2319 96.7129 99.4999 93.0129C100.208 96.2979 99.5429 103.185 99.5429 103.185C99.5429 103.185 114.33 106.924 125.621 104.205C136.912 101.486 147.241 96.4069 147.241 96.4069L145.192 86.8599C145.192 86.8599 147.973 92.8079 148.49 93.6279L153.409 90.5249C153.409 90.5249 149.477 83.9649 146.358 75.3479C143.239 66.7299 141.955 54.6109 141.955 54.6109L105.251 39.2029Z" fill="#263238"/>
<path d="M233.159 95.9479C232.381 96.1399 231.904 96.7339 230.511 97.6239C231.86 96.1809 233.768 94.0549 234.409 91.6719C234.505 91.3139 234.555 90.7729 234.441 90.4209C234.333 90.0889 233.876 89.1959 233.291 89.1559C233.291 89.1559 233.857 88.0129 234.366 87.0339C234.782 86.2349 235.58 84.3359 234.229 84.0669C233.159 83.8539 231.963 84.6869 230.755 85.9019C231.259 84.9479 231.552 84.1359 231.422 83.6789C231.032 82.3069 229.944 81.8569 227.676 83.9379C225.408 86.0189 219.871 91.5489 214.579 93.2659C213.627 93.5749 211.803 94.4409 210.808 94.0599C209.438 93.5349 210.56 91.5629 211.022 90.7279C211.464 89.9279 211.855 89.0989 212.19 88.2489C212.565 87.2989 212.874 86.2999 212.854 85.2789C212.834 84.2579 212.441 83.2029 211.63 82.5809C211.194 82.2459 210.603 82.0599 210.251 82.5619C208.849 84.5589 207.378 86.5059 205.966 88.4949C204.627 90.3809 203.149 92.2869 202.162 94.3839C201.026 96.7969 200.457 99.8239 198.769 103.207C197.081 106.589 195.385 110.159 190.473 116.388C187.762 119.826 181.878 127.48 181.878 127.48C181.878 127.48 168.394 115.308 162.252 110.729C149.23 101.018 146.407 98.0579 140.731 96.7589V125.772C140.731 125.772 160.046 140.071 169.287 146.711C177.146 152.357 182.898 155.071 186.03 154.358C190.91 153.247 201.306 135.11 209.233 117.102C210.014 115.328 212.079 111.743 216.682 110.237C218.485 109.647 220.464 108.846 221.632 108.398C223.046 107.857 225.467 106.488 226.731 105.654C229.402 103.89 229.498 104.104 232.809 99.8449C233.217 99.3189 234.815 97.0179 234.489 96.4379C234.215 95.9449 233.703 95.8129 233.159 95.9479Z" fill="#FFBDA7"/>
<path d="M230.51 97.6228C229.334 98.5878 228.158 99.4828 226.872 100.241C225.623 101.054 224.277 101.715 222.997 102.545C224.466 102.137 225.85 101.494 227.166 100.715C228.444 99.8888 229.669 98.9058 230.51 97.6228Z" fill="#F0997A"/>
<path d="M205.323 106.933C205.275 106.645 205.254 106.351 205.278 106.059C205.323 105.498 205.492 104.928 205.706 104.409C206.133 103.374 206.821 102.43 207.665 101.696C209.492 100.107 212.323 99.4448 214.623 100.284C214.688 100.307 214.805 100.512 214.677 100.518C212.367 100.622 210.075 100.841 208.241 102.42C206.724 103.726 206.075 105.795 205.942 107.746C205.929 107.929 205.737 107.919 205.669 107.773C205.528 107.472 205.38 107.27 205.323 106.933Z" fill="#F0997A"/>
<path d="M219.127 95.4108C221.232 94.1568 223.195 92.5308 225.092 90.9828C226.911 89.4988 228.631 87.8738 230.36 86.2888C230.381 86.2698 230.426 86.3208 230.41 86.3418C228.875 88.4038 227.062 90.1368 225.057 91.7438C223.211 93.2228 221.211 94.2968 219.16 95.4518C219.142 95.4618 219.109 95.4218 219.127 95.4108Z" fill="#F0997A"/>
<path d="M220.212 99.4289C222.317 98.1759 224.28 96.5489 226.177 95.0009C226.906 94.4059 227.618 93.7899 228.32 93.1629C229.009 92.5489 229.73 91.9469 230.35 91.2649C230.541 91.0539 230.733 90.8439 230.924 90.6329C231.17 90.3619 231.379 90.0759 231.672 89.8499C231.971 89.6189 232.313 89.4429 232.676 89.3349C232.71 89.3249 232.765 89.3339 232.756 89.3679C232.325 89.5719 231.953 89.8829 231.629 90.2329C231.413 90.4659 231.217 90.7179 231.028 90.9739C230.857 91.2059 230.674 91.4019 230.488 91.6199C229.912 92.2949 229.3 92.9399 228.661 93.5559C227.858 94.3309 227.013 95.0619 226.142 95.7599C224.296 97.2389 222.296 98.3129 220.245 99.4679C220.226 99.4799 220.194 99.4399 220.212 99.4289Z" fill="#F0997A"/>
<path d="M136.562 95.304C143.82 96.334 147.072 98.422 156.114 105.142C162.694 110.032 181.878 126.326 181.878 126.326L192.401 113.223C192.401 113.223 192.887 117.082 196.13 120.179C200.763 124.603 206.042 124.45 206.042 124.45C206.042 124.45 200.922 136.055 196.796 143.579C192.67 151.102 189.818 156.105 183.367 155.429C179.487 155.022 171.09 149.737 160.889 142.536C151.423 135.853 136.562 124.713 136.562 124.713V95.304Z" fill="#8D1B3D"/>
<path opacity="0.15" d="M136.562 95.304C143.82 96.334 147.072 98.422 156.114 105.142C162.694 110.032 181.878 126.326 181.878 126.326L192.401 113.223C192.401 113.223 192.887 117.082 196.13 120.179C200.763 124.603 206.042 124.45 206.042 124.45C206.042 124.45 200.922 136.055 196.796 143.579C192.67 151.102 189.818 156.105 183.367 155.429C179.487 155.022 171.09 149.737 160.889 142.536C151.423 135.853 136.562 124.713 136.562 124.713V95.304Z" fill="black"/>
<path opacity="0.15" d="M176.79 144.621C176.552 137.91 177.621 130.572 181.877 126.325L179.525 124.334C173.112 131.19 175.415 138.778 176.79 144.621Z" fill="black"/>
<path d="M144.102 46.6918C143.367 44.9918 142.44 43.3839 141.275 41.9469C138.229 38.1909 133.685 35.8169 128.942 34.8759C123.761 33.8489 118.221 34.3359 113.22 35.9329C109.087 37.2519 106.592 37.9369 102.554 41.1699C94.2659 47.8049 92.5519 60.1959 98.1249 71.6289C100.989 77.5049 104.555 81.7048 108.911 86.6059L113.152 85.2659C114.616 81.6459 118.254 82.3909 121.619 81.6129C123.768 80.6869 125.026 78.3159 127.175 77.3889C129.359 76.4469 131.891 77.2178 134.239 76.8458C135.903 76.5818 137.529 75.6799 139.251 75.9059C140.16 76.0259 140.283 76.4829 140.792 75.6559C141.175 75.0349 141.145 73.6489 141.275 72.9199C141.937 69.1949 142.599 65.4689 143.261 61.7439C144.538 61.7509 145.815 61.6509 147.074 61.4449C146.751 58.0169 146.426 54.5749 145.605 51.2309C145.226 49.6839 144.735 48.1538 144.102 46.6918Z" fill="#263238"/>
<path d="M132.381 95.4509C130.676 95.6059 129.628 94.3089 129.609 93.6649L129.479 90.7399C133.116 90.7899 137.066 89.8639 139.158 88.3579C142.67 85.8289 145.784 81.5319 145.068 71.2469C144.685 65.7549 143.698 63.6969 143.727 61.5679C143.808 55.6989 143.477 49.5239 137.608 46.6069C133.034 44.3339 127.142 44.8779 122.262 45.7099C120.542 46.0029 116.531 46.3689 115.74 48.3449C115.664 48.5349 115.72 48.7499 115.771 48.9489C116.867 53.2249 114.839 58.1079 111.036 60.3499C111.754 61.8169 112.172 63.4299 112.257 65.0609C112.296 65.8229 112.26 66.6069 111.967 67.3109C111.674 68.0149 111.087 68.6319 110.343 68.7959C108.648 69.1709 108.29 67.0799 107.431 66.0889C106.603 65.1339 105.539 64.3769 104.33 63.9899C102.206 63.3099 99.7737 63.8839 98.4647 65.7659C96.3677 68.7789 96.3557 73.4659 100.256 77.7939C104.054 82.0109 108.386 79.3959 108.452 78.5539C108.452 78.5539 109.051 91.9519 109.106 94.1989C109.161 96.4449 109.088 98.1339 106.284 99.0149C106.275 99.0179 121.067 112.617 133.505 110.765C142.684 109.398 132.381 95.4509 132.381 95.4509Z" fill="#FFBDA7"/>
<path d="M142.197 58.7378L137.321 57.3398C137.659 55.9678 139.025 55.1688 140.372 55.5558C141.718 55.9418 142.535 57.3668 142.197 58.7378Z" fill="#263238"/>
<path d="M118.834 59.6749L123.567 57.6789C123.061 56.3399 121.591 55.7029 120.284 56.2539C118.977 56.8059 118.328 58.3379 118.834 59.6749Z" fill="#263238"/>
<path d="M125.138 66.8479C125.012 68.4569 123.834 65.7138 122.225 65.5878C120.616 65.4618 119.184 67.9998 119.311 66.3908C119.437 64.7818 120.844 63.5798 122.453 63.7058C124.063 63.8318 125.265 65.2389 125.138 66.8479Z" fill="#263238"/>
<path d="M141.568 64.4567C141.932 66.0297 140.28 63.9067 138.708 64.2707C137.135 64.6347 136.237 67.3467 135.874 65.7737C135.51 64.2007 136.49 62.6317 138.063 62.2677C139.634 61.9047 141.204 62.8847 141.568 64.4567Z" fill="#263238"/>
<path d="M134.097 77.9748L125.38 76.1858C124.791 78.5938 126.265 80.9458 128.673 81.4398C131.08 81.9328 133.509 80.3818 134.097 77.9748Z" fill="#B16668"/>
<path d="M125.34 78.1019C125.667 79.7349 126.921 81.0809 128.674 81.4409C129.513 81.6129 130.354 81.5309 131.119 81.2569C130.252 78.8829 127.761 77.5519 125.34 78.1019Z" fill="#F28F8F"/>
<path d="M129.478 90.7399C121.416 90.1949 113.631 88.2399 111.507 83.3899C111.507 83.3899 111.613 87.7519 116.308 90.0949C123.087 93.4779 129.583 93.0989 129.583 93.0989L129.478 90.7399Z" fill="#F0997A"/>
<path d="M137.308 71.4217L130.731 74.8277L128.944 62.0007L137.308 71.4217Z" fill="#F0997A"/>
<path d="M119.897 70.2459C119.944 70.1289 119.995 70.0129 120.034 69.8939C120.102 69.6869 120.184 69.5019 120.094 69.2929C120.005 69.0849 119.645 69.0719 119.502 69.2169C119.266 69.4559 119.149 69.7939 119.015 70.0959C118.891 70.3769 118.762 70.6559 118.636 70.9359C118.525 71.1819 118.413 71.4259 118.299 71.6699C118.237 71.8029 118.171 71.9349 118.126 72.0759C118.041 72.3479 118.218 72.5669 118.499 72.5749C118.934 72.5879 119.078 72.1519 119.225 71.8239C119.332 71.5839 119.439 71.3429 119.543 71.1009C119.664 70.8179 119.782 70.5319 119.897 70.2459ZM118.138 69.6879C118.206 69.4809 118.288 69.2949 118.198 69.0869C118.108 68.8789 117.749 68.8669 117.606 69.0109C117.37 69.2499 117.253 69.5879 117.119 69.8899C116.995 70.1709 116.866 70.4499 116.739 70.7299C116.628 70.9759 116.516 71.2199 116.402 71.4639C116.34 71.5969 116.274 71.7289 116.229 71.8699C116.144 72.1419 116.321 72.3609 116.602 72.3689C117.037 72.3809 117.181 71.9459 117.328 71.6179C117.435 71.3779 117.542 71.1369 117.645 70.8949C117.766 70.6109 117.884 70.3259 118 70.0389C118.048 69.9239 118.099 69.8069 118.138 69.6879ZM121.301 69.4719C121.065 69.7109 120.948 70.0489 120.814 70.3509C120.69 70.6319 120.561 70.9109 120.435 71.1909C120.324 71.4369 120.212 71.6809 120.098 71.9249C120.036 72.0579 119.97 72.1899 119.925 72.3309C119.84 72.6029 120.017 72.8219 120.298 72.8299C120.733 72.8429 120.877 72.4069 121.024 72.0789C121.131 71.8389 121.238 71.5979 121.341 71.3559C121.462 71.0719 121.58 70.7859 121.696 70.4999C121.743 70.3829 121.794 70.2669 121.833 70.1479C121.901 69.9409 121.983 69.7549 121.893 69.5469C121.804 69.3389 121.444 69.3269 121.301 69.4719Z" fill="#F28F8F"/>
<path d="M141.716 69.3598C141.865 69.5758 142.017 69.7908 142.17 70.0058C142.378 70.2988 142.606 70.6968 143.03 70.5978C143.304 70.5348 143.434 70.2848 143.297 70.0348C143.226 69.9058 143.135 69.7898 143.048 69.6708C142.888 69.4538 142.73 69.2368 142.572 69.0178C142.393 68.7688 142.211 68.5208 142.034 68.2698C141.843 67.9998 141.661 67.6918 141.383 67.5038C141.214 67.3898 140.864 67.4738 140.818 67.6948C140.771 67.9178 140.888 68.0828 140.996 68.2728C141.058 68.3818 141.131 68.4858 141.2 68.5908C141.369 68.8488 141.541 69.1058 141.716 69.3598ZM143.017 68.0138C143.187 68.2718 143.359 68.5288 143.534 68.7828C143.683 68.9988 143.835 69.2138 143.988 69.4288C144.197 69.7218 144.424 70.1198 144.848 70.0208C145.122 69.9578 145.252 69.7078 145.115 69.4578C145.044 69.3288 144.953 69.2128 144.865 69.0938C144.705 68.8768 144.546 68.6598 144.389 68.4408C144.21 68.1908 144.028 67.9438 143.851 67.6928C143.66 67.4228 143.478 67.1148 143.2 66.9268C143.031 66.8128 142.681 66.8968 142.635 67.1178C142.588 67.3408 142.705 67.5058 142.813 67.6958C142.875 67.8058 142.948 67.9098 143.017 68.0138ZM139.104 68.3008C139.057 68.5228 139.174 68.6888 139.282 68.8778C139.344 68.9868 139.417 69.0908 139.486 69.1958C139.656 69.4538 139.828 69.7108 140.003 69.9648C140.152 70.1808 140.304 70.3958 140.457 70.6108C140.665 70.9038 140.893 71.3018 141.317 71.2028C141.591 71.1398 141.721 70.8898 141.584 70.6398C141.513 70.5108 141.422 70.3948 141.335 70.2758C141.175 70.0588 141.016 69.8418 140.859 69.6228C140.68 69.3738 140.498 69.1258 140.321 68.8748C140.13 68.6048 139.948 68.2968 139.67 68.1088C139.501 67.9958 139.151 68.0798 139.104 68.3008Z" fill="#F28F8F"/>
<path d="M116.559 62.7109C118.901 62.4099 121.216 61.9049 123.471 61.2049C123.668 61.1439 123.875 61.0739 124.008 60.9159C124.147 60.7509 124.177 60.5219 124.199 60.3079C124.534 56.9929 124.317 53.6219 123.56 50.3779C125.025 53.5799 126.175 56.9249 126.991 60.3499C128.543 60.2019 130.092 60.0279 131.638 59.8279C131.824 59.8039 132.022 59.7749 132.164 59.6529C132.348 59.4959 132.389 59.2309 132.413 58.9899C132.666 56.3999 132.287 53.7939 131.909 51.2189C133.098 53.6049 133.961 56.1539 134.467 58.7719C137.769 58.8639 141.072 58.9099 144.375 58.9089C143.796 54.6439 143.091 50.1389 140.332 46.8349C137.625 43.5939 133.347 42.0639 129.159 41.5209C125.063 40.9899 120.623 41.3569 117.278 43.7789C116.384 44.4259 115.592 45.2029 114.805 45.9759C114.405 46.3689 113.713 46.8129 113.627 47.3879C113.557 47.8589 114.009 48.7189 114.136 49.1749C114.55 50.6579 114.917 52.1539 115.235 53.6599C115.866 56.6449 116.309 59.6699 116.559 62.7109Z" fill="#263238"/>
<path d="M105.106 63.8909L98.8888 62.8639C98.8888 62.8639 98.0188 56.3929 99.1158 50.1529C99.9558 45.3769 103.29 40.4349 106.561 38.3439C108.933 36.8329 111.529 35.9599 114.014 35.6489C112.931 36.1559 112.462 36.3009 110.53 37.8099C109.263 38.8859 106.384 41.4909 104.894 47.5119C103.278 54.0419 105.106 63.8909 105.106 63.8909Z" fill="#455A64"/>
<path d="M111.795 75.926C113.209 70.608 111.239 63.114 107.404 59.221C106.275 58.075 105.088 57.327 103.876 56.998C102.986 56.756 102.133 56.758 101.345 56.976C100.887 57.103 99.0369 57.597 98.5669 57.727C96.6779 58.252 95.1659 60.026 94.4439 62.741C93.0299 68.059 94.9999 75.553 98.8349 79.446C99.9639 80.592 101.151 81.34 102.363 81.669C103.259 81.912 104.117 81.909 104.91 81.686C105.363 81.559 107.189 81.071 107.654 80.944C109.551 80.427 111.07 78.65 111.795 75.926Z" fill="#37474F"/>
<path d="M102.363 81.6689C101.151 81.3399 99.964 80.5919 98.835 79.4459C95 75.5529 93.031 68.0589 94.444 62.7409C95.469 58.8849 98.088 56.9259 101.115 57.7479C102.327 58.0769 103.513 58.8249 104.642 59.9709C108.477 63.8639 110.447 71.3569 109.033 76.6759C108.008 80.5319 105.39 82.4919 102.363 81.6689Z" fill="#263238"/>
<path d="M108.446 76.5161C109.811 71.3791 107.916 64.1681 104.212 60.4081C102.359 58.5271 100.405 57.8681 98.743 58.3211C98.514 58.3831 97.598 58.6321 97.369 58.6941C95.706 59.1441 94.336 60.7051 93.652 63.2751C92.287 68.4121 94.182 75.6241 97.886 79.3831C99.738 81.2631 101.692 81.9221 103.353 81.4701C103.583 81.4071 104.504 81.1581 104.734 81.0951C106.395 80.6441 107.763 79.0831 108.446 76.5161Z" fill="#F0F0F0"/>
<path d="M102.831 60.7821C106.535 64.5421 108.43 71.7541 107.065 76.8901C105.7 82.0271 101.59 83.1431 97.886 79.3831C94.182 75.6231 92.287 68.4111 93.652 63.2751C95.018 58.1391 99.127 57.0221 102.831 60.7821Z" fill="#E0E0E0"/>
<path d="M107.065 76.8912C108.43 71.7542 106.535 64.5422 102.831 60.7832C100.981 58.9052 99.0308 58.2461 97.3708 58.6941C96.9058 58.8201 96.0558 59.1122 95.5918 59.2392C93.9328 59.6912 92.5658 61.2521 91.8838 63.8171C90.5178 68.9531 92.4138 76.1651 96.1178 79.9251C97.9668 81.8021 99.9168 82.4622 101.576 82.0142C102.041 81.8882 102.89 81.5951 103.353 81.4701C105.014 81.0191 106.383 79.4582 107.065 76.8912Z" fill="#8D1B3D"/>
<path opacity="0.15" d="M101.063 61.3241C104.767 65.0841 106.663 72.2961 105.297 77.4321C103.931 82.5691 99.8219 83.6851 96.1179 79.9251C92.4139 76.1651 90.5189 68.9531 91.8839 63.8171C93.2499 58.6801 97.3589 57.5641 101.063 61.3241Z" fill="white"/>
<path d="M98.8979 66.1809C100.844 68.1559 101.839 71.9439 101.122 74.6419C100.405 77.3399 98.2459 77.9259 96.3009 75.9509C94.3559 73.9759 93.3599 70.1879 94.0769 67.4899C94.7929 64.7919 96.9519 64.2059 98.8979 66.1809Z" fill="#263238"/>
<path d="M100.517 69.2929L97.3849 71.1219L95.8149 65.1449C96.6859 64.9049 97.7129 65.2519 98.6839 66.2379C99.4599 67.0299 100.088 68.1089 100.517 69.2929Z" fill="#455A64"/>
<path d="M100.908 74.701C100.55 76.049 99.8298 76.87 98.9578 77.103L97.3848 71.122L100.517 69.293C101.152 71.068 101.339 73.081 100.908 74.701Z" fill="#37474F"/>
<path d="M98.9578 77.1028C98.0838 77.3418 97.0598 76.9968 96.0858 76.0098C95.3058 75.2198 94.6818 74.1388 94.2568 72.9518L97.3858 71.1218L98.9578 77.1028Z" fill="#455A64"/>
<path d="M97.3848 71.122L94.2558 72.952C93.6178 71.177 93.4328 69.166 93.8628 67.55C94.2218 66.199 94.9408 65.381 95.8138 65.145L97.3848 71.122Z" fill="#37474F"/>
<path d="M157.393 153.499C157.215 150.015 157.094 145.061 157.477 140.622C157.477 140.622 162.785 135.117 162.787 128.014C162.789 120.566 159.523 115.479 151.727 108.098C143.727 100.524 137.041 96.5747 137.041 96.5747L132.386 95.7087C132.386 95.7087 133.698 103.901 133.316 108.789C122.782 105.096 113.203 101.223 105.727 98.7387L94.7588 102.619C94.7588 102.619 89.3628 113.76 91.8528 124.534C93.2008 130.366 95.8808 140.242 98.0558 148.076C100.163 155.664 99.4228 163.757 95.9728 170.837C95.6568 171.484 95.3428 172.132 95.0328 172.772C92.0978 178.837 88.2168 189.99 88.2168 189.99C88.2168 189.99 105.285 197.637 133.323 194.236C161.361 190.835 162.119 178.607 162.119 178.607L158.448 161.489C157.883 158.856 157.53 156.188 157.393 153.499Z" fill="white"/>
<path d="M110.76 140.846C110.76 140.846 113.688 149.819 124.634 150.703C134.646 151.511 139.561 143.512 139.561 143.512C139.561 143.512 137.869 154.923 124.329 153.445C110.808 151.97 110.76 140.846 110.76 140.846Z" fill="#E0E0E0"/>
<path d="M109.103 94.1978C109.103 94.1978 119.25 117.272 123.057 128.412C126.864 139.553 125.46 148.632 124.968 169.076C124.589 184.819 123.779 208.577 123.779 208.577C123.779 208.577 93.9748 209.288 84.3178 196.358C86.4508 188.458 93.3958 169.963 95.1758 164.908C96.9568 159.853 95.8208 155.492 92.1978 144.095C88.5748 132.698 83.2138 126.594 83.0378 118.066C82.8618 109.538 89.1788 104.393 91.2928 102.84C102.685 99.3368 108.629 96.8848 109.103 94.1978Z" fill="#8D1B3D"/>
<path opacity="0.05" d="M109.103 94.1978C109.103 94.1978 119.25 117.272 123.057 128.412C126.864 139.553 125.46 148.632 124.968 169.076C124.589 184.819 123.779 208.577 123.779 208.577C123.779 208.577 93.9748 209.288 84.3178 196.358C86.4508 188.458 93.3958 169.963 95.1758 164.908C96.9568 159.853 95.8208 155.492 92.1978 144.095C88.5748 132.698 83.2138 126.594 83.0378 118.066C82.8618 109.538 89.1788 104.393 91.2928 102.84C102.685 99.3368 108.629 96.8848 109.103 94.1978Z" fill="black"/>
<path d="M131.252 95.5868C131.252 95.5868 151.755 115.2 153.933 135.272C156.112 155.344 158.518 197.793 158.518 197.793C158.518 197.793 161.347 196.956 163.381 193.885C162.786 182.587 159.518 148.363 160.213 144.19C160.908 140.018 170.403 130.228 160.858 117.135C151.313 104.042 136.562 95.3048 136.562 95.3048L129.583 93.6968C129.798 94.8338 130.548 95.2848 131.252 95.5868Z" fill="#8D1B3D"/>
<path opacity="0.05" d="M131.252 95.5868C131.252 95.5868 151.755 115.2 153.933 135.272C156.112 155.344 158.518 197.793 158.518 197.793C158.518 197.793 161.347 196.956 163.381 193.885C162.786 182.587 159.518 148.363 160.213 144.19C160.908 140.018 170.403 130.228 160.858 117.135C151.313 104.042 136.562 95.3048 136.562 95.3048L129.583 93.6968C129.798 94.8338 130.548 95.2848 131.252 95.5868Z" fill="black"/>
<path opacity="0.15" d="M139.637 99.9488C140.965 101.057 142.285 102.176 143.568 103.335C146.139 105.648 148.696 107.977 151.172 110.396C152.401 111.616 153.629 112.834 154.821 114.098C155.422 114.726 156.01 115.365 156.585 116.032C157.139 116.684 157.786 117.395 158.097 118.375C158.401 119.312 158.411 120.244 158.366 121.144C158.328 122.051 158.157 122.926 157.973 123.791C157.606 125.41 157.102 126.965 156.493 128.506C157.889 130.17 159.234 131.851 160.115 133.96C160.224 134.239 160.312 134.548 160.363 134.862C160.381 135.183 160.405 135.519 160.373 135.795C160.347 136.381 160.269 136.939 160.205 137.504C160.051 138.624 159.875 139.734 159.68 140.839C158.91 145.262 157.945 149.638 156.891 153.995C157.588 149.569 158.299 145.146 158.923 140.722C159.075 139.616 159.208 138.508 159.318 137.404C159.36 136.854 159.414 136.3 159.418 135.766C159.441 135.221 159.387 134.807 159.181 134.313C158.36 132.391 156.904 130.612 155.478 128.976L155.256 128.721L155.38 128.404C155.993 126.84 156.502 125.193 156.852 123.549C157.023 122.725 157.153 121.894 157.203 121.075C157.258 120.26 157.246 119.43 157.016 118.716C156.821 118.031 156.298 117.402 155.745 116.745C155.2 116.098 154.627 115.458 154.042 114.831C152.879 113.568 151.671 112.338 150.463 111.11C148.048 108.652 145.616 106.203 143.13 103.81C140.643 101.419 138.189 98.9888 135.551 96.7568C136.974 97.7378 138.306 98.8448 139.637 99.9488Z" fill="black"/>
<path opacity="0.15" d="M109.019 126.982L108.918 124.242L108.716 118.761C108.497 111.452 108.299 105.44 108.238 98.1138C108.791 105.416 109.195 111.437 109.59 118.757L109.848 124.248L109.977 126.994L110.01 127.671C110.016 127.843 110.043 128.012 110.088 128.182C110.188 128.519 110.377 128.845 110.612 129.146C111.597 130.349 113.077 131.12 114.503 131.805C115.954 132.47 117.48 133.006 118.997 133.418L119.521 133.56L119.349 134.133C118.676 136.378 118.053 138.673 117.613 140.982C117.507 141.559 117.408 142.139 117.347 142.711C117.277 143.272 117.251 143.887 117.347 144.3L117.38 144.449L117.475 144.648L118.805 147.43C119.814 149.553 120.845 151.662 121.829 153.802C121.829 153.802 119.305 149.876 118.22 147.799L117.41 146.239L117.005 145.459L116.701 144.874L116.609 144.593C116.416 143.847 116.468 143.224 116.513 142.6C116.556 141.974 116.652 141.371 116.757 140.771C117.153 138.572 117.696 136.446 118.295 134.33C116.882 133.942 115.502 133.478 114.141 132.877C112.633 132.181 111.099 131.395 109.875 129.893C109.581 129.507 109.314 129.055 109.162 128.518C109.091 128.246 109.048 127.966 109.044 127.677L109.019 126.982Z" fill="black"/>
<path d="M134.323 125.943C137.735 122.365 139.512 120.904 141.245 120.079C142.979 119.254 148.918 115.508 151.264 114.481C152.752 113.83 153.802 116.194 152.112 118.231C150.811 119.8 147.141 122.189 145.565 123.437C143.989 124.685 141.281 129.411 141.281 129.411L134.323 125.943Z" fill="#F0997A"/>
<path d="M76.182 116.279C78.651 107.365 81.821 106.007 91.009 103.326C101.291 110.426 97.408 130.881 97.408 130.881L96.585 151.82C96.585 151.82 118.917 144.606 121.273 142.467C123.629 140.328 129.424 131.497 131.414 128.809C134.123 125.151 135.8 125.295 137.487 125.262C143.012 125.154 144.272 125.407 145.535 125.937C146.799 126.468 146.939 127.856 146.939 127.856C148.4 127.792 150.534 127.382 151.21 129.686C151.656 131.206 151.615 131.554 151.615 131.554C151.615 131.554 152.138 131.518 152.636 131.929C154.061 133.106 152.832 138.227 151.732 139.612C150.96 140.584 149.68 140.907 147.936 140.966C146.453 141.016 146.876 139.427 146.876 139.427L144.869 139.892C141.016 143.749 141.844 149.955 136.283 152.3C135.109 152.795 132.589 153.187 129.441 154.876C117.68 161.186 99.394 177.363 88.444 180.209C77.755 182.987 77.084 177.154 75.785 170.539C74.625 164.638 73.72 125.168 76.182 116.279Z" fill="#FFBDA7"/>
<path d="M96.6627 149.469L96.5867 151.82C91.8647 153.931 87.1757 161.437 86.4497 164.338C86.6427 159.901 88.3637 153.266 96.6627 149.469Z" fill="#F0997A"/>
<path d="M91.2949 102.84C91.2949 102.84 89.7529 103.259 86.7729 104.261C83.7929 105.263 79.4759 106.555 77.0379 112.342C74.5999 118.129 74.7489 120.412 74.3349 129.674C73.9209 138.937 74.1269 160.271 75.0169 168.079C75.9069 175.887 77.3699 179.339 79.5729 180.595C81.7759 181.852 86.5199 182.331 92.8469 179.093C99.1739 175.855 117.636 164.57 117.636 164.57C117.636 164.57 115.11 165.159 113.015 157.755C110.92 150.352 111.984 146.31 111.984 146.31L98.5489 150.106L99.5369 130.014C99.5369 130.016 101.306 108.009 91.2949 102.84Z" fill="#8D1B3D"/>
<path opacity="0.15" d="M91.2949 102.84C91.2949 102.84 89.7529 103.259 86.7729 104.261C83.7929 105.263 79.4759 106.555 77.0379 112.342C74.5999 118.129 74.7489 120.412 74.3349 129.674C73.9209 138.937 74.1269 160.271 75.0169 168.079C75.9069 175.887 77.3699 179.339 79.5729 180.595C81.7759 181.852 86.5199 182.331 92.8469 179.093C99.1739 175.855 117.636 164.57 117.636 164.57C117.636 164.57 115.11 165.159 113.015 157.755C110.92 150.352 111.984 146.31 111.984 146.31L98.5489 150.106L99.5369 130.014C99.5369 130.016 101.306 108.009 91.2949 102.84Z" fill="black"/>
<path opacity="0.15" d="M98.5496 150.108C93.3486 152.123 86.7066 156.951 85.2646 162.571C85.4896 153.686 94.3536 148.465 98.6926 147.213L98.5496 150.108Z" fill="black"/>
<path d="M146.94 127.856L140.322 127.652L146.655 126.992C146.805 127.277 146.902 127.565 146.94 127.856Z" fill="#F0997A"/>
<path d="M151.616 131.555L144.089 131.852L151.479 130.699C151.556 130.96 151.597 131.249 151.616 131.555Z" fill="#F0997A"/>
<path d="M150.239 135.826C149.939 135.998 149.624 136.148 149.304 136.277C148.539 136.549 146.767 136.885 146.767 136.885C146.767 136.885 146.8 137.42 146.092 138.457C145.713 139.011 144.867 139.893 144.867 139.893L146.875 139.428C146.875 139.428 147.199 138.531 148.759 137.875C149.066 137.759 149.448 137.769 149.779 137.889C150.11 138.03 150.42 138.264 150.665 138.564C150.485 138.225 150.226 137.902 149.86 137.711C149.612 137.582 149.33 137.526 149.046 137.545L149.313 136.57C149.682 136.415 150.035 136.235 150.352 135.993C150.715 135.731 151.038 135.381 151.197 134.964C150.962 135.343 150.602 135.599 150.239 135.826Z" fill="#F0997A"/>
<path d="M145.039 70.8728C145.039 70.8728 147.92 72.1258 150.204 73.9858C152.488 75.8458 152.247 78.6218 151.037 80.2748L149.138 79.6608C149.138 79.6608 150.41 77.5008 149.386 76.1428C148.362 74.7848 145.17 73.4518 145.17 73.4518C145.152 72.6058 145.099 71.7408 145.039 70.8728Z" fill="black"/>
<path d="M150.375 78.9167C148.89 77.9627 148.017 78.8577 146.585 81.3967C145.153 83.9357 145.831 84.7627 147.122 85.4517C148.413 86.1407 149.558 85.3777 150.654 83.2647C151.887 80.8887 151.976 79.9447 150.375 78.9167Z" fill="#8D1B3D"/>
<path opacity="0.1" d="M150.375 78.9167C148.89 77.9627 148.017 78.8577 146.585 81.3967C145.153 83.9357 145.831 84.7627 147.122 85.4517C148.414 86.1407 149.558 85.3777 150.655 83.2647C151.887 80.8887 151.976 79.9447 150.375 78.9167Z" fill="black"/>
</svg>
