<svg xmlns="http://www.w3.org/2000/svg" fill="none" viewBox="82.5 41.5 428 743">   <g filter="url(#filter0_ddddd_287_15460)">     <mask id="path-1-inside-1_287_15460" fill="white">       <path fill-rule="evenodd" clip-rule="evenodd" d="M111.372 123.128C95.3753 126.7 84 140.896 84 157.287V748C84 767.33 99.67 783 119 783H474C493.33 783 509 767.33 509 748V78.0144C509 55.6084 488.24 38.9726 466.372 43.8556L111.372 123.128Z"/>     </mask>     <path fill-rule="evenodd" clip-rule="evenodd" d="M111.372 123.128C95.3753 126.7 84 140.896 84 157.287V748C84 767.33 99.67 783 119 783H474C493.33 783 509 767.33 509 748V78.0144C509 55.6084 488.24 38.9726 466.372 43.8556L111.372 123.128Z" fill="url(#paint0_linear_287_15460)"/>     <path d="M111.372 123.128L111.045 121.664L111.372 123.128ZM85.5 748V157.287H82.5V748H85.5ZM474 781.5H119V784.5H474V781.5ZM507.5 78.0144V748H510.5V78.0144H507.5ZM466.045 42.3917L111.045 121.664L111.699 124.592L466.699 45.3196L466.045 42.3917ZM510.5 78.0144C510.5 54.6482 488.85 37.2994 466.045 42.3917L466.699 45.3196C487.629 40.6458 507.5 56.5687 507.5 78.0144H510.5ZM474 784.5C494.158 784.5 510.5 768.158 510.5 748H507.5C507.5 766.502 492.502 781.5 474 781.5V784.5ZM85.5 157.287C85.5 141.598 96.3878 128.011 111.699 124.592L111.045 121.664C94.3628 125.389 82.5 140.193 82.5 157.287H85.5ZM82.5 748C82.5 768.158 98.8416 784.5 119 784.5V781.5C100.498 781.5 85.5 766.502 85.5 748H82.5Z" fill="url(#paint1_linear_287_15460)" mask="url(#path-1-inside-1_287_15460)"/>   </g>   <defs>     <filter id="filter0_ddddd_287_15460" x="0" y="0" width="613" height="928" filterUnits="userSpaceOnUse" color-interpolation-filters="sRGB">       <feFlood flood-opacity="0" result="BackgroundImageFix"/>       <feColorMatrix in="SourceAlpha" type="matrix" values="0 0 0 0 0 0 0 0 0 0 0 0 0 0 0 0 0 0 127 0" result="hardAlpha"/>       <feOffset dy="3.30696"/>       <feGaussianBlur stdDeviation="1.65888"/>       <feColorMatrix type="matrix" values="0 0 0 0 0 0 0 0 0 0 0 0 0 0 0 0 0 0 0.0200187 0"/>       <feBlend mode="normal" in2="BackgroundImageFix" result="effect1_dropShadow_287_15460"/>       <feColorMatrix in="SourceAlpha" type="matrix" values="0 0 0 0 0 0 0 0 0 0 0 0 0 0 0 0 0 0 127 0" result="hardAlpha"/>       <feOffset dy="6.99366"/>       <feGaussianBlur stdDeviation="4.10299"/>       <feColorMatrix type="matrix" values="0 0 0 0 0 0 0 0 0 0 0 0 0 0 0 0 0 0 0.0353466 0"/>       <feBlend mode="normal" in2="effect1_dropShadow_287_15460" result="effect2_dropShadow_287_15460"/>       <feColorMatrix in="SourceAlpha" type="matrix" values="0 0 0 0 0 0 0 0 0 0 0 0 0 0 0 0 0 0 127 0" result="hardAlpha"/>       <feOffset dy="11.8898"/>       <feGaussianBlur stdDeviation="8.22"/>       <feColorMatrix type="matrix" values="0 0 0 0 0 0 0 0 0 0 0 0 0 0 0 0 0 0 0.0506778 0"/>       <feBlend mode="normal" in2="effect2_dropShadow_287_15460" result="effect3_dropShadow_287_15460"/>       <feColorMatrix in="SourceAlpha" type="matrix" values="0 0 0 0 0 0 0 0 0 0 0 0 0 0 0 0 0 0 127 0" result="hardAlpha"/>       <feOffset dx="10" dy="20.718"/>       <feGaussianBlur stdDeviation="16.8097"/>       <feColorMatrix type="matrix" values="0 0 0 0 0 0 0 0 0 0 0 0 0 0 0 0 0 0 0.0697538 0"/>       <feBlend mode="normal" in2="effect3_dropShadow_287_15460" result="effect4_dropShadow_287_15460"/>       <feColorMatrix in="SourceAlpha" type="matrix" values="0 0 0 0 0 0 0 0 0 0 0 0 0 0 0 0 0 0 127 0" result="hardAlpha"/>       <feOffset dx="10" dy="51"/>       <feGaussianBlur stdDeviation="47"/>       <feColorMatrix type="matrix" values="0 0 0 0 0 0 0 0 0 0 0 0 0 0 0 0 0 0 0.11 0"/>       <feBlend mode="normal" in2="effect4_dropShadow_287_15460" result="effect5_dropShadow_287_15460"/>       <feBlend mode="normal" in="SourceGraphic" in2="effect5_dropShadow_287_15460" result="shape"/>     </filter>     <linearGradient id="paint0_linear_287_15460" x1="156.342" y1="935.33" x2="1050.18" y2="509.805" gradientUnits="userSpaceOnUse">       <stop stop-color="#17C15B"/>       <stop offset="1" stop-color="#006C35"/>     </linearGradient>     <linearGradient id="paint1_linear_287_15460" x1="156.342" y1="935.33" x2="1050.18" y2="509.805" gradientUnits="userSpaceOnUse">       <stop stop-color="#17C15B"/>       <stop offset="1" stop-color="#006C35"/>     </linearGradient>   </defs> </svg>