<svg width="500" height="500" viewBox="0 0 500 500" fill="none" xmlns="http://www.w3.org/2000/svg">
<path d="M500 382.398H0V382.648H500V382.398Z" fill="#EBEBEB"/>
<path d="M435.665 398.494H416.777V398.744H435.665V398.494Z" fill="#EBEBEB"/>
<path d="M322.528 396.75H293.055V397H322.528V396.75Z" fill="#EBEBEB"/>
<path d="M415.779 389.208H368.668V389.458H415.779V389.208Z" fill="#EBEBEB"/>
<path d="M63.4319 390.888H52.4609V391.138H63.4319V390.888Z" fill="#EBEBEB"/>
<path d="M110.887 390.888H72.332V391.138H110.887V390.888Z" fill="#EBEBEB"/>
<path d="M225.147 395.111H171V395.361H225.147V395.111Z" fill="#EBEBEB"/>
<path d="M237.014 337.8H43.915C40.768 337.8 38.207 335.239 38.207 332.092V60.6599C38.207 57.5129 40.768 54.9519 43.915 54.9519H237.014C240.16 54.9519 242.721 57.5129 242.721 60.6599V332.092C242.721 335.239 240.16 337.8 237.014 337.8ZM43.915 55.2029C40.905 55.2029 38.457 57.6509 38.457 60.6609V332.093C38.457 335.103 40.905 337.551 43.915 337.551H237.014C240.023 337.551 242.471 335.103 242.471 332.093V60.6599C242.471 57.6509 240.023 55.2019 237.014 55.2019L43.915 55.2029Z" fill="#EBEBEB"/>
<path d="M453.309 337.8H260.211C257.064 337.8 254.504 335.239 254.504 332.092V60.6599C254.504 57.5129 257.065 54.9519 260.211 54.9519H453.309C456.457 54.9519 459.017 57.5129 459.017 60.6599V332.092C459.018 335.239 456.457 337.8 453.309 337.8ZM260.211 55.2029C257.202 55.2029 254.754 57.6509 254.754 60.6609V332.093C254.754 335.103 257.202 337.551 260.211 337.551H453.309C456.319 337.551 458.767 335.103 458.767 332.093V60.6599C458.767 57.6509 456.319 55.2019 453.309 55.2019L260.211 55.2029Z" fill="#EBEBEB"/>
<path d="M435.669 398.494H416.781V398.744H435.669V398.494Z" fill="#EBEBEB"/>
<path d="M322.528 396.75H293.055V397H322.528V396.75Z" fill="#EBEBEB"/>
<path d="M415.779 389.208H368.668V389.458H415.779V389.208Z" fill="#EBEBEB"/>
<path d="M63.4319 390.888H52.4609V391.138H63.4319V390.888Z" fill="#EBEBEB"/>
<path d="M110.891 390.888H72.3359V391.138H110.891V390.888Z" fill="#EBEBEB"/>
<path d="M225.147 395.111H171V395.361H225.147V395.111Z" fill="#EBEBEB"/>
<path d="M196.939 85.6189H137.559V220.658H196.939V85.6189Z" fill="#E6E6E6"/>
<path d="M200.567 85.6189H141.188V220.658H200.567V85.6189Z" fill="#F5F5F5"/>
<path d="M194.055 214.579L194.055 91.6997L147.698 91.6997L147.698 214.579H194.055Z" fill="white"/>
<path d="M194.055 214.579L194.055 91.6997H191.312L191.312 214.579H194.055Z" fill="#E6E6E6"/>
<path d="M197.872 178.089H143.879V186.252H197.872V178.089Z" fill="#F5F5F5"/>
<path d="M197.872 102.418H143.879V110.581H197.872V102.418Z" fill="#F5F5F5"/>
<path d="M276.997 85.6189H217.617V220.658H276.997V85.6189Z" fill="#E6E6E6"/>
<path d="M280.626 85.6189H221.246V220.658H280.626V85.6189Z" fill="#F5F5F5"/>
<path d="M274.113 214.579V91.6997L227.756 91.6997L227.756 214.579H274.113Z" fill="white"/>
<path d="M274.113 214.579V91.6997H271.37V214.579H274.113Z" fill="#E6E6E6"/>
<path d="M277.93 178.089H223.938V186.252H277.93V178.089Z" fill="#F5F5F5"/>
<path d="M277.93 102.418H223.938V110.581H277.93V102.418Z" fill="#F5F5F5"/>
<path d="M116.88 85.6189H57.5V220.658H116.88V85.6189Z" fill="#E6E6E6"/>
<path d="M120.509 85.6189H61.1289V220.658H120.509V85.6189Z" fill="#F5F5F5"/>
<path d="M113.996 214.579L113.996 91.7L67.6389 91.7L67.6389 214.579H113.996Z" fill="white"/>
<path d="M113.996 214.579L113.996 91.6997H111.253L111.253 214.579H113.996Z" fill="#E6E6E6"/>
<path d="M117.813 178.089H63.8203V186.252H117.813V178.089Z" fill="#F5F5F5"/>
<path d="M117.813 102.418H63.8203V110.581H117.813V102.418Z" fill="#F5F5F5"/>
<path d="M329.217 247.505H319.508V382.397H329.217V247.505Z" fill="#E6E6E6"/>
<path d="M331.817 247.505H326.098V382.397H331.817V247.505Z" fill="#F0F0F0"/>
<path d="M195.707 257.623H333.59V247.505L195.707 247.505V257.623Z" fill="#F0F0F0"/>
<path d="M65.1113 247.505H55.4023V382.397H65.1113V247.505Z" fill="#E6E6E6"/>
<path d="M66.9338 247.505H61.2148V382.397H66.9338V247.505Z" fill="#F0F0F0"/>
<path d="M53.668 257.623H191.551V247.505L53.668 247.505V257.623Z" fill="#E6E6E6"/>
<path d="M194.877 247.505H185.168V382.397H194.877V247.505Z" fill="#E6E6E6"/>
<path d="M197.477 247.505H191.758V382.397H197.477V247.505Z" fill="#F0F0F0"/>
<path d="M170.172 202.639H242.167L247.821 245.153H175.825L170.172 202.639Z" fill="#E6E6E6"/>
<path d="M175.824 245.153L176.115 247.503H248.115L247.824 245.153H175.824Z" fill="#E6E6E6"/>
<path d="M172.387 202.639H244.382L250.036 245.153H178.04L172.387 202.639Z" fill="#F0F0F0"/>
<path d="M179.782 243.211L174.645 204.581H242.64L247.778 243.211H179.782Z" fill="white"/>
<path d="M196.801 245.153L197.092 247.503H276.374L276.083 245.153H196.801Z" fill="#F0F0F0"/>
<path d="M326.904 211H291.263C278.573 211 268.1 220.125 266.441 232.627L261.224 271.947L241.872 271.883H241.811C232.589 271.883 225.366 278.437 224.602 287.498L223.462 300.96C219.629 301.521 216.608 304.493 216.086 308.43H311.697C324.374 308.43 334.838 299.313 336.495 286.823L343.986 230.362C345.328 220.253 337.164 211 326.904 211ZM242.873 300.855H228.573L229.647 288.443C230.213 281.768 235.554 276.916 242.35 276.916H242.4L260.558 276.976L259.287 286.554C258.19 294.821 251.264 300.855 242.873 300.855Z" fill="#E0E0E0"/>
<path d="M238.172 308.429H233.211L221.586 382.398H226.547L238.172 308.429Z" fill="#F0F0F0"/>
<path d="M256.789 308.429H251.828L240.203 382.398H245.164L256.789 308.429Z" fill="#F0F0F0"/>
<path d="M300.473 308.429H305.434L317.059 382.398H312.098L300.473 308.429Z" fill="#F0F0F0"/>
<path d="M281.855 308.429H286.816L298.441 382.398H293.48L281.855 308.429Z" fill="#F0F0F0"/>
<path d="M439.613 87.988H342.922V290H439.613V87.988Z" fill="#E6E6E6"/>
<path d="M446.331 87.988H344.707V290H446.331V87.988Z" fill="#F0F0F0"/>
<path d="M437.816 281.487L437.816 96.5022L353.22 96.5022V281.487H437.816Z" fill="#FAFAFA"/>
<path d="M383.207 281.487L393.688 96.5022H407.827L397.346 281.487H383.207Z" fill="white"/>
<path d="M400.02 281.487L410.501 96.5022H424.641L414.159 281.487H400.02Z" fill="white"/>
<path d="M249.998 427.561C357.08 427.561 443.887 422.492 443.887 416.238C443.887 409.985 357.08 404.915 249.998 404.915C142.916 404.915 56.1094 409.985 56.1094 416.238C56.1094 422.492 142.916 427.561 249.998 427.561Z" fill="#F5F5F5"/>
<path d="M240.811 121.599L225.305 348.088H414.42L431.551 97.8691H266.175L240.811 121.599Z" fill="#8D1B3D"/>
<path opacity="0.8" d="M240.811 121.599L225.305 348.088H414.42L431.551 97.8691H266.175L240.811 121.599Z" fill="white"/>
<path d="M398.947 174.346C411.688 162.034 412.696 142.407 401.198 130.508C389.7 118.61 370.05 118.945 357.308 131.258C344.567 143.57 343.559 163.197 355.057 175.096C366.556 186.994 386.206 186.659 398.947 174.346Z" fill="#8D1B3D"/>
<path d="M397.854 173.214C409.925 161.55 410.88 142.955 399.987 131.683C389.094 120.411 370.478 120.729 358.407 132.394C346.336 144.058 345.381 162.653 356.274 173.925C367.167 185.197 385.783 184.879 397.854 173.214Z" fill="white"/>
<mask id="mask0_287_15551" style="mask-type:luminance" maskUnits="userSpaceOnUse" x="348" y="123" width="60" height="60">
<path d="M397.854 173.214C409.925 161.55 410.88 142.955 399.987 131.683C389.094 120.411 370.478 120.729 358.407 132.394C346.336 144.058 345.381 162.653 356.274 173.925C367.167 185.197 385.783 184.879 397.854 173.214Z" fill="white"/>
</mask>
<g mask="url(#mask0_287_15551)">
<path d="M370.418 163.029L364.634 162.647C364.634 162.647 361.945 176.488 360.22 177.683C357.873 179.31 353.217 183.248 350.136 184.676C349.869 185.298 349.68 187.054 349.94 187.591C354.743 187.617 363.619 182.814 365.156 180.734C368.66 175.99 370.418 163.029 370.418 163.029Z" fill="#FFC3BD"/>
<path d="M373.169 154.322C374.918 157.581 369.47 169.359 369.47 169.359L362.047 166.989C362.047 166.989 362.311 161.126 364.523 156.513C366.358 152.686 371.25 150.745 373.169 154.322Z" fill="#263238"/>
<path opacity="0.2" d="M367.501 160.325C368.529 162.678 367.19 168.38 366.158 171.99C363.648 167.689 363.304 163.691 367.501 160.325Z" fill="black"/>
<path d="M367.47 154.9C366.33 159.069 364.096 170.019 365.925 187.208H385.457C385.908 183.936 385.336 167.975 389.925 152.558C389.925 152.558 386.34 151.825 382.874 151.657C380.163 151.526 376.228 151.439 373.813 151.657C372.351 151.789 371.019 152.082 370.005 152.359C368.778 152.696 367.805 153.674 367.47 154.9Z" fill="#263238"/>
<path opacity="0.2" d="M384.939 156.364C384.348 158.901 384.584 164.972 386.348 171.986C386.858 166.587 387.764 160.328 389.484 154.091L389.487 154.061C388.097 153.918 385.5 153.986 384.939 156.364Z" fill="black"/>
<path d="M382.475 143.183C381.632 146.098 381.013 149.712 382.871 151.657C382.871 151.657 381.424 154.614 376.007 154.614C371.057 154.614 373.81 151.657 373.81 151.657C377.133 150.881 377.337 146.86 376.982 144.595L382.475 143.183Z" fill="#FFC3BD"/>
<path d="M376.008 154.614C376.866 156.068 376.787 157.414 376.787 157.414C376.787 157.414 383.794 155.021 383.803 151.514C383.803 151.514 382.893 150.942 382.325 150.478C382.325 150.478 381.85 153.21 376.008 154.614Z" fill="white"/>
<path d="M375.813 154.613C374.684 156.067 374.436 157.204 374.436 157.204C374.436 157.204 371.556 155.124 372.801 151.658C372.801 151.658 373.702 151.295 374.589 151.106C374.589 151.106 373.743 153.862 375.813 154.613Z" fill="white"/>
<path opacity="0.2" d="M376.979 144.598C377.193 145.925 377.209 147.856 376.512 149.384C376.997 149.313 377.5 149.167 378.006 148.938C379.919 148.073 380.949 146.714 382.077 144.696C382.196 144.179 382.33 143.673 382.473 143.184L376.979 144.598Z" fill="black"/>
<path d="M372.254 141.898C372.561 142.891 373.31 143.607 374.089 143.938C375.26 144.436 376.112 143.375 376.01 142.139C375.919 141.027 375.2 139.427 373.917 139.455C372.653 139.482 371.903 140.762 372.254 141.898Z" fill="#FFC3BD"/>
<path opacity="0.2" d="M372.254 141.898C372.561 142.891 373.31 143.607 374.089 143.938C375.26 144.436 376.112 143.375 376.01 142.139C375.919 141.027 375.2 139.427 373.917 139.455C372.653 139.482 371.903 140.762 372.254 141.898Z" fill="black"/>
<path d="M377.479 133.733C377.102 131.419 373.695 135.478 374.421 137.622C375.147 139.766 377.903 136.331 377.479 133.733Z" fill="#263238"/>
<path d="M384.781 139.588C383.528 143.455 382.986 145.765 380.537 147.434C376.854 149.944 372.614 147.33 372.721 143.269C372.817 139.614 374.85 133.904 378.987 133.002C383.064 132.113 386.034 135.721 384.781 139.588Z" fill="#FFC3BD"/>
<path d="M383.643 137.298C379.421 136.7 373.363 135.924 375.559 132.474C377.654 129.183 385.99 129.781 383.459 131.24C386.737 131.427 390.893 132.998 387.752 134.082C390.284 135.877 389.281 140.701 384.454 142.384C383.059 140.365 381.962 139.467 383.643 137.298Z" fill="#263238"/>
<path d="M385.381 144.198C384.606 145.002 383.565 145.404 382.69 145.445C381.373 145.507 381.124 144.253 381.833 143.159C382.471 142.174 383.925 140.955 385.081 141.411C386.22 141.859 386.267 143.279 385.381 144.198Z" fill="#FFC3BD"/>
<path d="M378.714 139.667C378.631 139.985 378.399 140.214 378.196 140.179C377.993 140.144 377.896 139.857 377.979 139.538C378.062 139.22 378.294 138.991 378.497 139.026C378.7 139.062 378.797 139.349 378.714 139.667Z" fill="#263238"/>
<path d="M375.206 139.053C375.123 139.371 374.891 139.6 374.688 139.565C374.485 139.529 374.388 139.243 374.471 138.924C374.554 138.606 374.786 138.377 374.989 138.412C375.192 138.448 375.289 138.734 375.206 139.053Z" fill="#263238"/>
<path d="M376.278 139.406C376.278 139.406 375.094 141.118 374.086 141.868C374.498 142.49 375.495 142.413 375.495 142.413L376.278 139.406Z" fill="#ED847E"/>
<path d="M376.171 143.451C376.121 143.442 376.091 143.393 376.104 143.342C376.117 143.291 376.169 143.256 376.22 143.265C377.583 143.504 378.473 142.639 378.482 142.631C378.521 142.593 378.581 142.59 378.615 142.626C378.65 142.661 378.647 142.721 378.608 142.76C378.569 142.797 377.632 143.706 376.171 143.451Z" fill="#263238"/>
<path d="M380.073 138.693C380.018 138.683 379.97 138.648 379.947 138.593C379.629 137.842 378.948 137.765 378.942 137.765C378.845 137.759 378.773 137.662 378.792 137.558C378.812 137.454 378.911 137.378 379.013 137.388C379.049 137.391 379.902 137.487 380.296 138.419C380.335 138.512 380.289 138.627 380.193 138.675C380.153 138.694 380.111 138.699 380.073 138.693Z" fill="#263238"/>
<path d="M373.96 137.502C373.934 137.496 373.909 137.483 373.888 137.464C373.814 137.398 373.813 137.279 373.886 137.197C374.618 136.385 375.473 136.469 375.51 136.472C375.61 136.479 375.678 136.576 375.658 136.681C375.637 136.785 375.539 136.86 375.437 136.849C375.408 136.846 374.74 136.788 374.156 137.436C374.103 137.495 374.026 137.518 373.96 137.502Z" fill="#263238"/>
<path d="M391.646 157.913L386.35 160.716C386.35 160.716 391.462 173.322 390.59 175.213C389.404 177.787 387.435 183.465 385.496 186.274C385.597 186.919 386.379 188.436 386.898 188.729C391.138 186.167 396.353 177.521 396.582 175.017C397.103 169.308 391.646 157.913 391.646 157.913Z" fill="#FFC3BD"/>
<path d="M389.924 152.558C393.619 153.214 396.338 166.388 396.338 166.388L387.219 168.999C387.219 168.999 385.17 164.322 384.016 159.664C382.806 154.782 385.962 151.854 389.924 152.558Z" fill="#263238"/>
</g>
<path d="M388.88 321.404C401.622 309.091 402.63 289.464 391.131 277.566C379.633 265.667 359.983 266.003 347.242 278.315C334.501 290.628 333.493 310.255 344.991 322.153C356.489 334.052 376.139 333.716 388.88 321.404Z" fill="#8D1B3D"/>
<path d="M387.784 320.261C399.855 308.597 400.81 290.002 389.917 278.73C379.024 267.458 360.408 267.776 348.337 279.441C336.266 291.106 335.311 309.7 346.204 320.972C357.097 332.244 375.713 331.926 387.784 320.261Z" fill="white"/>
<mask id="mask1_287_15551" style="mask-type:luminance" maskUnits="userSpaceOnUse" x="338" y="270" width="60" height="60">
<path d="M387.784 320.261C399.855 308.597 400.81 290.002 389.917 278.73C379.024 267.458 360.408 267.776 348.337 279.441C336.266 291.106 335.311 309.7 346.204 320.972C357.097 332.244 375.713 331.926 387.784 320.261Z" fill="white"/>
</mask>
<g mask="url(#mask1_287_15551)">
<path d="M357.842 310.342L352.415 308.573C352.415 308.573 346.504 321.588 344.569 322.353C341.936 323.394 336.543 326.161 333.258 326.83C332.853 327.379 332.248 329.067 332.367 329.66C336.944 330.841 346.574 328.236 348.543 326.552C353.033 322.714 357.842 310.342 357.842 310.342Z" fill="#FFB573"/>
<path d="M362.572 302.41C363.453 306.048 355.408 316.363 355.408 316.363L348.898 312.238C348.898 312.238 350.567 306.514 353.793 302.493C356.469 299.157 361.605 298.418 362.572 302.41Z" fill="#8D1B3D"/>
<path opacity="0.3" d="M362.572 302.41C363.453 306.048 355.408 316.363 355.408 316.363L348.898 312.238C348.898 312.238 350.567 306.514 353.793 302.493C356.469 299.157 361.605 298.418 362.572 302.41Z" fill="black"/>
<path opacity="0.2" d="M357.494 306.942C358.101 309.461 357.55 313.485 355.939 316.914C354.515 314.77 352.84 309.598 357.494 306.942Z" fill="black"/>
<path d="M357.4 301.949C356.26 306.118 354.026 317.068 355.855 334.257H375.387C375.838 330.985 375.266 315.024 379.855 299.607C379.855 299.607 376.27 298.874 372.804 298.706C370.093 298.575 366.158 298.488 363.743 298.706C362.281 298.838 360.949 299.131 359.935 299.408C358.707 299.745 357.735 300.724 357.4 301.949Z" fill="#8D1B3D"/>
<path opacity="0.3" d="M357.4 301.949C356.26 306.118 354.026 317.068 355.855 334.257H375.387C375.838 330.985 375.266 315.024 379.855 299.607C379.855 299.607 376.27 298.874 372.804 298.706C370.093 298.575 366.158 298.488 363.743 298.706C362.281 298.838 360.949 299.131 359.935 299.408C358.707 299.745 357.735 300.724 357.4 301.949Z" fill="black"/>
<path opacity="0.2" d="M374.937 306.693C374.346 309.23 373.827 315.256 376.279 319.036C376.788 313.637 377.695 307.378 379.415 301.141L379.418 301.111C378.027 300.968 375.498 304.314 374.937 306.693Z" fill="black"/>
<g opacity="0.95">
<path d="M365.694 306.557L364.621 307.03L363.803 306.286C361.053 303.782 361.094 300.856 361.709 298.998C362.342 298.877 363.027 298.773 363.745 298.708C366.16 298.489 370.094 298.576 372.806 298.708C373.504 298.742 374.205 298.799 374.881 298.868L374.199 299.746C374.051 299.935 370.516 304.437 365.694 306.557Z" fill="white"/>
</g>
<path d="M372.408 290.233C371.565 293.148 370.946 296.762 372.804 298.707C372.804 298.707 369.484 302.979 365.063 304.923C361.778 301.931 363.743 298.707 363.743 298.707C367.066 297.931 367.27 293.91 366.915 291.645L372.408 290.233Z" fill="#FFB573"/>
<path opacity="0.2" d="M366.912 291.647C367.126 292.974 367.142 294.905 366.445 296.433C366.93 296.362 367.433 296.216 367.939 295.987C369.852 295.122 370.882 293.762 372.01 291.745C372.129 291.228 372.263 290.722 372.406 290.233L366.912 291.647Z" fill="black"/>
<path d="M362.184 288.948C362.491 289.941 363.24 290.657 364.019 290.988C365.19 291.486 366.042 290.425 365.941 289.189C365.85 288.077 365.13 286.477 363.848 286.505C362.584 286.532 361.834 287.812 362.184 288.948Z" fill="#FFB573"/>
<path opacity="0.2" d="M362.184 288.948C362.491 289.941 363.24 290.657 364.019 290.988C365.19 291.486 366.042 290.425 365.941 289.189C365.85 288.077 365.13 286.477 363.848 286.505C362.584 286.532 361.834 287.812 362.184 288.948Z" fill="black"/>
<path d="M366.815 282.107C366.432 279.498 363.527 282.49 363.203 284.399C362.879 286.307 364.474 288.243 365.557 286.349C366.639 284.454 367.022 283.517 366.815 282.107Z" fill="#263238"/>
<path d="M374.714 286.638C373.461 290.505 372.919 292.815 370.47 294.484C366.787 296.994 362.547 294.38 362.654 290.319C362.75 286.664 364.783 280.953 368.92 280.052C372.997 279.163 375.967 282.77 374.714 286.638Z" fill="#FFB573"/>
<path d="M372.82 290.688C371.323 289.663 371.055 289.306 371.854 288.407C373.151 286.949 371.22 286.742 372.242 284.929C373.661 282.411 369.135 284.181 369.053 282.349C368.986 280.863 365.026 283.539 364.639 281.826C364.055 279.246 367.829 279.716 368.497 278.46C369.165 277.204 373.033 277.014 373.656 278.846C374.278 280.678 376.223 279.22 377.491 281.464C378.758 283.708 376.132 283.868 377.401 286.051C378.416 287.796 376.47 289.007 375.106 290.439C374.249 291.338 373.749 291.323 372.82 290.688Z" fill="#263238"/>
<path d="M375.564 290.722C374.858 291.586 373.85 292.075 372.976 292.192C371.662 292.369 371.302 291.149 371.917 290.004C372.47 288.973 373.82 287.639 375.019 287.989C376.2 288.333 376.372 289.734 375.564 290.722Z" fill="#FFB573"/>
<path d="M368.647 286.717C368.564 287.035 368.333 287.264 368.13 287.229C367.927 287.193 367.829 286.907 367.912 286.588C367.995 286.27 368.227 286.041 368.43 286.076C368.632 286.112 368.73 286.399 368.647 286.717Z" fill="#263238"/>
<path d="M365.136 286.102C365.053 286.42 364.821 286.649 364.618 286.614C364.415 286.579 364.318 286.292 364.401 285.973C364.484 285.655 364.716 285.426 364.919 285.461C365.122 285.497 365.219 285.784 365.136 286.102Z" fill="#263238"/>
<path d="M366.213 286.456C366.213 286.456 365.028 288.168 364.02 288.918C364.432 289.54 365.429 289.463 365.429 289.463L366.213 286.456Z" fill="#ED893E"/>
<path d="M366.105 290.5C366.055 290.491 366.025 290.442 366.038 290.391C366.051 290.339 366.103 290.305 366.154 290.313C367.517 290.552 368.407 289.688 368.416 289.679C368.455 289.641 368.515 289.638 368.549 289.674C368.584 289.709 368.581 289.769 368.542 289.808C368.503 289.847 367.566 290.756 366.105 290.5Z" fill="#263238"/>
<path d="M370.008 285.742C369.953 285.732 369.905 285.697 369.882 285.643C369.564 284.892 368.884 284.815 368.876 284.815C368.779 284.809 368.707 284.712 368.726 284.607C368.746 284.503 368.845 284.427 368.947 284.437C368.983 284.44 369.836 284.536 370.23 285.468C370.269 285.561 370.223 285.676 370.126 285.724C370.089 285.743 370.047 285.749 370.008 285.742Z" fill="#263238"/>
<path d="M363.894 284.551C363.868 284.545 363.843 284.532 363.822 284.513C363.748 284.447 363.747 284.328 363.82 284.246C364.552 283.434 365.407 283.517 365.443 283.521C365.543 283.528 365.611 283.625 365.591 283.73C365.57 283.834 365.472 283.909 365.37 283.898C365.342 283.895 364.673 283.837 364.089 284.485C364.036 284.545 363.96 284.568 363.894 284.551Z" fill="#263238"/>
<path d="M381.986 305.411L376.419 307.534C376.419 307.534 379.815 320.803 378.713 322.583C377.214 325.005 374.546 330.434 372.277 332.994C372.293 333.652 372.866 335.271 373.338 335.631C377.837 333.613 384.079 325.633 384.627 323.158C385.877 317.513 381.986 305.411 381.986 305.411Z" fill="#FFB573"/>
<path d="M380.983 299.832C384.53 300.963 385.5 314.494 385.5 314.494L376.2 315.933C376.2 315.933 374.791 310.99 374.258 306.181C373.7 301.142 377.179 298.618 380.983 299.832Z" fill="#8D1B3D"/>
<path opacity="0.3" d="M380.983 299.832C384.53 300.963 385.5 314.494 385.5 314.494L376.2 315.933C376.2 315.933 374.791 310.99 374.258 306.181C373.7 301.142 377.179 298.618 380.983 299.832Z" fill="black"/>
</g>
<path d="M301.443 247.873C314.184 235.56 315.192 215.933 303.694 204.035C292.196 192.136 272.546 192.472 259.805 204.784C247.063 217.097 246.055 236.724 257.554 248.622C269.052 260.521 288.702 260.185 301.443 247.873Z" fill="#8D1B3D"/>
<path d="M300.346 246.739C312.417 235.074 313.372 216.48 302.479 205.208C291.586 193.935 272.97 194.253 260.899 205.918C248.828 217.583 247.873 236.177 258.766 247.449C269.659 258.722 288.275 258.404 300.346 246.739Z" fill="white"/>
<mask id="mask2_287_15551" style="mask-type:luminance" maskUnits="userSpaceOnUse" x="251" y="196" width="60" height="60">
<path d="M300.346 246.739C312.417 235.074 313.372 216.48 302.479 205.208C291.586 193.935 272.97 194.253 260.899 205.918C248.828 217.583 247.873 236.177 258.766 247.449C269.659 258.722 288.275 258.404 300.346 246.739Z" fill="white"/>
</mask>
<g mask="url(#mask2_287_15551)">
<path d="M292.908 233.247C293.065 235.632 293.181 238.026 293.277 240.415L293.565 247.556L293.613 248.425L293.683 249.19C293.761 249.715 293.822 250.255 293.932 250.806C294.14 251.906 294.417 253.027 294.731 254.147C295.332 256.396 296.061 258.668 296.775 260.914L294.703 261.878C293.434 259.756 292.367 257.576 291.394 255.294C290.933 254.144 290.502 252.972 290.129 251.745C289.943 251.133 289.771 250.497 289.64 249.841L289.476 248.822L289.369 247.899C288.845 243.06 288.496 238.294 288.301 233.482L292.908 233.247Z" fill="#FF8B7B"/>
<path d="M291.809 228.009C293.636 228.483 294.414 236.136 294.414 236.136L286.97 240.973C286.97 240.973 284.665 231.9 286.236 229.855C287.871 227.727 289.142 227.318 291.809 228.009Z" fill="#8D1B3D"/>
<path opacity="0.2" d="M291.524 229.719L292.425 237.433L289.41 239.387L291.524 229.719Z" fill="black"/>
<path d="M271.499 208.285C268.377 208.734 261.818 223.692 272.509 230.672C283.2 237.652 291.072 229.725 291.072 229.725C291.072 229.725 284.571 221.997 285.514 216.961C286.457 211.925 290.515 205.57 282.191 203.449C276.321 201.952 268.443 203.398 271.499 208.285Z" fill="#263238"/>
<path d="M291.81 228.009C291.81 228.009 293.908 228.766 287.789 255.245C280.517 255.245 273 255.245 269.461 255.245C270.279 247.786 270.603 243.186 268.086 227.878C268.086 227.878 271.983 227.043 275.939 226.853C279.033 226.704 281.567 226.606 284.261 226.853C287.813 227.18 291.81 228.009 291.81 228.009Z" fill="#8D1B3D"/>
<path opacity="0.2" d="M269.181 233.939C270.812 234.353 272.222 236.164 271.811 239.499C271.564 241.499 270.544 243.012 269.995 243.698C269.877 241.133 269.589 238.154 269.07 234.342L269.181 233.939Z" fill="black"/>
<path d="M282.893 232.723C282.893 232.723 279.718 235.195 279.538 237.826C277.167 235.997 274.144 231.016 274.009 227.836C273.986 227.3 274.447 226.827 274.988 226.795C275.27 226.778 275.498 226.743 275.661 226.709C275.855 226.669 276.047 226.719 276.189 226.843L282.893 232.723Z" fill="#FAFAFA"/>
<path d="M282.895 232.723C282.895 232.723 285.543 234.139 285.806 237.627C288.461 235.775 287.551 230.246 286.328 227.542C286.135 227.114 285.731 226.826 285.256 226.77C284.889 226.727 284.61 226.678 284.427 226.64C284.286 226.611 284.145 226.709 284.115 226.853L282.895 232.723Z" fill="#FAFAFA"/>
<path d="M277.404 217.482C277.746 220.16 277.934 225.066 275.938 226.853C275.938 226.853 278.187 230.149 282.893 232.723C286.809 229.756 284.259 226.853 284.259 226.853C281.322 226.14 281.552 223.924 282.214 221.844L277.404 217.482Z" fill="#FF8B7B"/>
<path opacity="0.2" d="M279.364 219.262L282.211 221.842C282.052 222.334 281.921 222.834 281.853 223.319C280.724 223.154 278.996 222.182 278.836 220.942C278.76 220.355 279.248 219.54 279.364 219.262Z" fill="black"/>
<path d="M273.21 213.182C274.153 217.486 274.459 219.334 277.041 221.084C280.925 223.716 286.109 221.254 286.496 216.667C286.844 212.538 285.243 206.193 280.64 205.406C276.104 204.63 272.267 208.877 273.21 213.182Z" fill="#FF8B7B"/>
<path d="M274.439 217.06C277.213 214.417 277.312 211.151 276.609 210.129C278.991 209.929 285.151 208.434 284.162 206.14C283.172 203.846 273.585 202.6 272.26 208.483C269.086 211.127 271.114 216.462 274.439 217.06Z" fill="#263238"/>
<path d="M280.453 212.793C280.508 213.148 280.743 213.395 280.979 213.343C281.215 213.291 281.362 212.961 281.307 212.606C281.252 212.251 281.017 212.005 280.781 212.056C280.546 212.108 280.399 212.438 280.453 212.793Z" fill="#263238"/>
<path d="M284.531 211.9C284.586 212.255 284.821 212.502 285.057 212.45C285.293 212.398 285.44 212.068 285.385 211.713C285.33 211.358 285.095 211.111 284.859 211.163C284.623 211.215 284.476 211.545 284.531 211.9Z" fill="#263238"/>
<path d="M284.758 211.206L285.587 210.77C285.587 210.77 285.245 211.534 284.758 211.206Z" fill="#263238"/>
<path d="M283.371 212.816C283.371 212.816 284.218 214.212 285.006 214.802C284.597 215.344 283.757 215.321 283.757 215.321L283.371 212.816Z" fill="#FF5652"/>
<path d="M282.005 217.143C282.175 217.132 282.354 217.107 282.542 217.066C282.601 217.053 282.641 216.996 282.632 216.939C282.623 216.881 282.568 216.842 282.51 216.858C280.926 217.202 280.02 216.277 280.011 216.268C279.972 216.227 279.904 216.227 279.86 216.27C279.816 216.312 279.812 216.38 279.851 216.421C279.887 216.457 280.645 217.233 282.005 217.143Z" fill="#263238"/>
<path d="M272.629 217.475C273.09 218.248 273.882 218.711 274.623 218.849C275.738 219.057 276.269 218.022 275.939 217.011C275.641 216.101 274.702 214.896 273.594 215.146C272.501 215.393 272.101 216.591 272.629 217.475Z" fill="#FF8B7B"/>
<path d="M278.538 212.014C278.628 212.002 278.708 211.934 278.731 211.84C278.973 210.867 280.162 210.321 280.173 210.316C280.283 210.266 280.338 210.139 280.296 210.032C280.254 209.925 280.131 209.878 280.019 209.928C279.962 209.954 278.611 210.575 278.315 211.764C278.286 211.88 278.356 211.991 278.47 212.012C278.494 212.017 278.516 212.017 278.538 212.014Z" fill="#263238"/>
<path d="M285.52 209.056C285.593 209.059 285.668 209.026 285.715 208.96C285.787 208.861 285.768 208.729 285.674 208.664C284.731 208.014 283.795 208.397 283.756 208.414C283.644 208.461 283.586 208.587 283.626 208.695C283.666 208.803 283.787 208.852 283.899 208.806C283.936 208.79 284.665 208.504 285.414 209.021C285.447 209.042 285.483 209.054 285.52 209.056Z" fill="#263238"/>
<path d="M280.68 212.099L281.508 211.663C281.508 211.663 281.167 212.427 280.68 212.099Z" fill="#263238"/>
<path d="M269.261 254.17L268.68 255.811C268.607 255.938 268.749 256.068 268.961 256.068H287.824C287.989 256.068 288.132 255.987 288.149 255.883L288.427 254.242C288.446 254.128 288.31 254.032 288.129 254.032H269.57C269.432 254.032 269.307 254.088 269.261 254.17Z" fill="#8D1B3D"/>
<path opacity="0.2" d="M269.261 254.17L268.68 255.811C268.607 255.938 268.749 256.068 268.961 256.068H287.824C287.989 256.068 288.132 255.987 288.149 255.883L288.427 254.242C288.446 254.128 288.31 254.032 288.129 254.032H269.57C269.432 254.032 269.307 254.088 269.261 254.17Z" fill="white"/>
<path d="M271.67 256.245H271.173C271.074 256.245 271.002 256.194 271.013 256.132L271.392 254.001C271.403 253.939 271.493 253.888 271.592 253.888H272.089C272.188 253.888 272.26 253.939 272.249 254.001L271.87 256.132C271.859 256.194 271.769 256.245 271.67 256.245Z" fill="#8D1B3D"/>
<path opacity="0.4" d="M271.67 256.245H271.173C271.074 256.245 271.002 256.194 271.013 256.132L271.392 254.001C271.403 253.939 271.493 253.888 271.592 253.888H272.089C272.188 253.888 272.26 253.939 272.249 254.001L271.87 256.132C271.859 256.194 271.769 256.245 271.67 256.245Z" fill="black"/>
<path d="M286.412 256.245H285.915C285.816 256.245 285.744 256.194 285.755 256.132L286.134 254.001C286.145 253.939 286.235 253.888 286.334 253.888H286.831C286.93 253.888 287.002 253.939 286.991 254.001L286.612 256.132C286.601 256.194 286.511 256.245 286.412 256.245Z" fill="#8D1B3D"/>
<path opacity="0.4" d="M286.412 256.245H285.915C285.816 256.245 285.744 256.194 285.755 256.132L286.134 254.001C286.145 253.939 286.235 253.888 286.334 253.888H286.831C286.93 253.888 287.002 253.939 286.991 254.001L286.612 256.132C286.601 256.194 286.511 256.245 286.412 256.245Z" fill="black"/>
<path d="M279.072 256.245H278.575C278.476 256.245 278.404 256.194 278.415 256.132L278.794 254.001C278.805 253.939 278.895 253.888 278.994 253.888H279.491C279.59 253.888 279.662 253.939 279.651 254.001L279.272 256.132C279.261 256.194 279.171 256.245 279.072 256.245Z" fill="#8D1B3D"/>
<path opacity="0.4" d="M279.072 256.245H278.575C278.476 256.245 278.404 256.194 278.415 256.132L278.794 254.001C278.805 253.939 278.895 253.888 278.994 253.888H279.491C279.59 253.888 279.662 253.939 279.651 254.001L279.272 256.132C279.261 256.194 279.171 256.245 279.072 256.245Z" fill="black"/>
<path d="M270.12 233.988C269.606 237.042 269.016 240.082 268.413 243.12C268.125 244.641 267.791 246.154 267.476 247.671L266.997 249.944L266.79 250.927C266.773 250.982 266.768 251.034 266.8 251.154C266.86 251.386 267.133 251.835 267.558 252.246C267.976 252.667 268.513 253.078 269.085 253.463C270.241 254.239 271.568 254.893 272.911 255.531C274.261 256.164 275.662 256.736 277.083 257.266C278.493 257.819 279.954 258.315 281.377 258.791L280.861 261.018C277.715 260.501 274.676 259.739 271.632 258.682C270.111 258.152 268.614 257.51 267.122 256.679C266.378 256.253 265.635 255.781 264.907 255.158C264.197 254.531 263.426 253.771 262.949 252.541C262.716 251.935 262.591 251.201 262.666 250.486C262.715 250.058 262.738 249.972 262.769 249.756L262.858 249.182L263.214 246.887C263.455 245.358 263.677 243.825 263.946 242.302C264.456 239.249 264.979 236.199 265.578 233.162L270.12 233.988Z" fill="#FF8B7B"/>
<path d="M268.087 227.879C266.213 228.437 263.574 234.76 263.574 234.76L269.546 241.375C269.546 241.375 273.308 234.575 272.699 232.202C272.065 229.73 270.226 227.242 268.087 227.879Z" fill="#8D1B3D"/>
</g>
<path opacity="0.3" d="M257.321 149.846H328.977C330.338 149.846 331.517 148.742 331.611 147.381C331.704 146.02 330.676 144.916 329.315 144.916H257.659C256.298 144.916 255.119 146.02 255.026 147.381C254.931 148.742 255.959 149.846 257.321 149.846Z" fill="#8D1B3D"/>
<path opacity="0.3" d="M277.122 160.687H328.235C329.596 160.687 330.775 159.583 330.868 158.222C330.961 156.861 329.933 155.757 328.572 155.757H277.459C276.098 155.757 274.919 156.861 274.826 158.222C274.733 159.584 275.761 160.687 277.122 160.687Z" fill="#8D1B3D"/>
<path d="M289.068 139.004H329.721C331.082 139.004 332.261 137.9 332.354 136.539C332.447 135.178 331.419 134.074 330.058 134.074H289.405C288.044 134.074 286.865 135.178 286.771 136.539C286.679 137.901 287.707 139.004 289.068 139.004Z" fill="white"/>
<path opacity="0.3" d="M289.148 308.228H318.134C319.495 308.228 320.523 309.332 320.43 310.693C320.337 312.054 319.158 313.158 317.796 313.158H288.81C287.449 313.158 286.421 312.054 286.514 310.693C286.608 309.332 287.787 308.228 289.148 308.228Z" fill="#8D1B3D"/>
<path opacity="0.3" d="M249.886 308.228H278.872C280.233 308.228 281.261 309.332 281.168 310.693C281.075 312.054 279.896 313.158 278.534 313.158H249.548C248.187 313.158 247.159 312.054 247.252 310.693C247.346 309.332 248.525 308.228 249.886 308.228Z" fill="#8D1B3D"/>
<path opacity="0.3" d="M267.765 297.387H318.878C320.239 297.387 321.267 298.491 321.174 299.852C321.081 301.213 319.902 302.317 318.54 302.317H267.427C266.066 302.317 265.038 301.213 265.131 299.852C265.225 298.49 266.404 297.387 267.765 297.387Z" fill="#8D1B3D"/>
<path d="M261.027 286.545H319.619C320.98 286.545 322.008 287.649 321.915 289.01C321.822 290.371 320.643 291.475 319.281 291.475H260.689C259.328 291.475 258.3 290.371 258.393 289.01C258.486 287.648 259.665 286.545 261.027 286.545Z" fill="white"/>
<path opacity="0.3" d="M382.8 234.704H329.405C328.044 234.704 326.865 235.808 326.771 237.169C326.678 238.53 327.706 239.634 329.067 239.634H382.462C383.823 239.634 385.002 238.53 385.096 237.169C385.189 235.807 384.161 234.704 382.8 234.704Z" fill="#8D1B3D"/>
<path opacity="0.3" d="M355.341 223.862H330.144C328.783 223.862 327.604 224.966 327.51 226.327C327.417 227.688 328.445 228.792 329.806 228.792H355.003C356.364 228.792 357.543 227.688 357.637 226.327C357.73 224.965 356.702 223.862 355.341 223.862Z" fill="#8D1B3D"/>
<path d="M370.098 213.02H330.89C329.529 213.02 328.35 214.124 328.256 215.485C328.163 216.846 329.191 217.95 330.552 217.95H369.76C371.121 217.95 372.3 216.846 372.394 215.485C372.487 214.124 371.459 213.02 370.098 213.02Z" fill="white"/>
<path opacity="0.3" d="M401.8 223.862H365.998C364.637 223.862 363.458 224.966 363.365 226.327C363.272 227.688 364.3 228.792 365.661 228.792H401.463C402.824 228.792 404.003 227.688 404.097 226.327C404.189 224.965 403.161 223.862 401.8 223.862Z" fill="#8D1B3D"/>
<path opacity="0.3" d="M240.812 121.599H267.594L266.176 97.8691L240.812 121.599Z" fill="#8D1B3D"/>
<path d="M240.812 121.599L269.484 118.167L266.176 97.8691L240.812 121.599Z" fill="#8D1B3D"/>
<path d="M132.783 191.905C131.93 193.912 130.99 196.122 130.157 198.262C129.319 200.426 128.475 202.586 127.714 204.764C126.152 209.104 124.793 213.488 123.862 217.798C123.724 218.341 123.655 218.867 123.551 219.402L123.405 220.203L123.299 220.83C123.196 221.529 123.189 222.5 123.24 223.508C123.367 225.546 123.717 227.781 124.132 230.022C124.994 234.509 126.13 239.163 127.263 243.723L122.182 245.87C119.661 241.527 117.553 237.101 115.82 232.317C114.965 229.918 114.207 227.457 113.707 224.721C113.457 223.343 113.27 221.903 113.316 220.199L113.344 219.549C113.356 219.335 113.375 219.207 113.39 219.031L113.488 218.043C113.56 217.388 113.605 216.715 113.71 216.078C114.427 210.901 115.686 205.992 117.204 201.217C117.978 198.834 118.784 196.471 119.712 194.158C120.645 191.821 121.542 189.581 122.687 187.209L132.783 191.905Z" fill="#7F3E3B"/>
<path d="M127.087 242.436L130.989 246.243L122.481 250.201C122.481 250.201 120.416 246.596 121.842 243.336L127.087 242.436Z" fill="#7F3E3B"/>
<path d="M134.132 251.912L126.946 254.855L122.48 250.202L130.989 246.243L134.132 251.912Z" fill="#7F3E3B"/>
<path d="M319.8 230.028C331.037 202.902 318.155 171.803 291.029 160.567C263.903 149.33 232.804 162.212 221.568 189.338C210.331 216.464 223.213 247.563 250.339 258.799C277.465 270.036 308.564 257.154 319.8 230.028Z" fill="#8D1B3D"/>
<path d="M270.676 260.05C298.492 260.05 321.04 237.501 321.04 209.686C321.04 181.871 298.492 159.322 270.676 159.322C242.861 159.322 220.312 181.871 220.312 209.686C220.312 237.501 242.861 260.05 270.676 260.05Z" fill="white"/>
<mask id="mask3_287_15551" style="mask-type:luminance" maskUnits="userSpaceOnUse" x="220" y="159" width="102" height="102">
<path d="M270.676 260.05C298.492 260.05 321.04 237.501 321.04 209.686C321.04 181.871 298.492 159.322 270.676 159.322C242.861 159.322 220.312 181.871 220.312 209.686C220.312 237.501 242.861 260.05 270.676 260.05Z" fill="white"/>
</mask>
<g mask="url(#mask3_287_15551)">
<path d="M292.541 221.285C293.094 225.403 293.577 229.541 294.025 233.674L295.382 246.02L295.566 247.503L295.778 248.829L296.067 250.21L296.42 251.62C296.935 253.507 297.526 255.432 298.182 257.35C299.466 261.198 300.972 265.066 302.437 268.897L298.979 270.742C296.584 267.183 294.523 263.507 292.597 259.66C291.67 257.722 290.778 255.747 290.012 253.668L289.452 252.087L288.952 250.443C288.804 249.876 288.673 249.286 288.536 248.706L288.224 247.102C287.46 242.924 286.829 238.805 286.253 234.659C285.657 230.52 285.122 226.383 284.684 222.223L292.541 221.285Z" fill="#FF8B7B"/>
<path d="M290.052 212.571C293.241 213.383 295.472 226.507 295.472 226.507L283.275 234.802C283.275 234.802 278.257 219.244 280.711 215.738C283.265 212.086 285.398 211.386 290.052 212.571Z" fill="#8D1B3D"/>
<path opacity="0.2" d="M289.763 215.501L292.213 228.729L287.273 232.079L289.763 215.501Z" fill="black"/>
<path d="M252.91 178.748C247.609 179.518 238.119 205.167 257.27 217.136C276.421 229.106 288.989 215.511 288.989 215.511C288.989 215.511 276.934 202.259 277.96 193.624C278.986 184.989 285.198 174.091 270.675 170.454C260.434 167.89 247.096 170.37 252.91 178.748Z" fill="#263238"/>
<path d="M290.051 212.571C290.051 212.571 293.737 213.869 286.353 259.273C273.883 259.273 260.994 259.273 254.926 259.273C255.453 246.483 255.468 238.596 249.355 212.347C249.355 212.347 255.94 210.915 262.7 210.589C267.988 210.334 272.321 210.165 276.97 210.59C283.1 211.148 290.051 212.571 290.051 212.571Z" fill="#8D1B3D"/>
<path opacity="0.2" d="M251.949 222.738C254.795 223.447 257.426 226.554 257.111 232.272C256.922 235.701 255.351 238.296 254.49 239.472C253.987 235.073 253.143 229.965 251.805 223.429L251.949 222.738Z" fill="black"/>
<path d="M275.316 220.654C275.316 220.654 270.162 224.894 270.162 229.405C265.882 226.269 260.114 217.728 259.509 212.274C259.407 211.354 260.142 210.545 261.066 210.49C261.547 210.461 261.934 210.4 262.211 210.343C262.539 210.275 262.874 210.36 263.132 210.573L275.316 220.654Z" fill="#FAFAFA"/>
<path d="M275.316 220.654C275.316 220.654 280.023 223.081 280.883 229.064C285.218 225.888 283.008 216.408 280.594 211.771C280.212 211.037 279.486 210.542 278.665 210.447C278.031 210.373 277.547 210.289 277.229 210.225C276.984 210.176 276.754 210.343 276.72 210.59L275.316 220.654Z" fill="#FAFAFA"/>
<path d="M264.113 194.52C265.013 199.112 265.911 207.525 262.699 210.588C262.699 210.588 266.943 216.239 275.315 220.653C281.681 215.566 276.969 210.588 276.969 210.588C271.849 209.365 271.981 205.567 272.873 201.999L264.113 194.52Z" fill="#FF8B7B"/>
<path opacity="0.2" d="M267.686 197.572L272.871 201.996C272.657 202.84 272.491 203.697 272.431 204.529C270.475 204.246 267.399 202.58 266.979 200.453C266.779 199.446 267.519 198.048 267.686 197.572Z" fill="black"/>
<path d="M256.415 187.145C258.538 194.525 259.279 197.695 263.912 200.695C270.881 205.208 279.482 200.987 279.607 193.121C279.72 186.041 276.229 175.161 268.243 173.811C260.374 172.482 254.292 179.765 256.415 187.145Z" fill="#FF8B7B"/>
<path d="M258.98 193.796C263.426 189.265 263.212 183.665 261.887 181.912C265.948 181.57 276.336 179.005 274.37 175.072C272.404 171.139 255.817 169.002 254.235 179.09C249.105 183.622 253.209 192.77 258.98 193.796Z" fill="#263238"/>
<path d="M268.791 186.479C268.926 187.088 269.359 187.51 269.757 187.422C270.155 187.333 270.368 186.768 270.233 186.159C270.098 185.55 269.665 185.128 269.267 185.216C268.869 185.304 268.656 185.87 268.791 186.479Z" fill="#263238"/>
<path d="M275.678 184.948C275.813 185.557 276.246 185.979 276.644 185.891C277.042 185.802 277.255 185.237 277.12 184.628C276.985 184.019 276.552 183.597 276.154 183.685C275.755 183.773 275.542 184.338 275.678 184.948Z" fill="#263238"/>
<path d="M275.984 183.758L277.354 183.011C277.354 183.011 276.857 184.321 275.984 183.758Z" fill="#263238"/>
<path d="M273.797 186.518C273.797 186.518 275.414 188.911 276.833 189.924C276.196 190.854 274.752 190.814 274.752 190.814L273.797 186.518Z" fill="#FF5652"/>
<path d="M271.96 193.939C272.25 193.92 272.554 193.878 272.873 193.807C272.972 193.785 273.034 193.687 273.013 193.589C272.991 193.49 272.892 193.423 272.794 193.45C270.118 194.04 268.456 192.454 268.44 192.438C268.367 192.367 268.252 192.368 268.181 192.441C268.11 192.513 268.112 192.63 268.184 192.7C268.248 192.762 269.638 194.092 271.96 193.939Z" fill="#263238"/>
<path d="M255.926 194.508C256.808 195.833 258.22 196.628 259.507 196.865C261.442 197.221 262.233 195.447 261.547 193.713C260.929 192.152 259.178 190.086 257.307 190.515C255.463 190.937 254.917 192.992 255.926 194.508Z" fill="#FF8B7B"/>
<path d="M265.416 185.143C265.569 185.122 265.698 185.006 265.727 184.845C266.028 183.176 268.002 182.24 268.021 182.231C268.205 182.146 268.284 181.928 268.199 181.744C268.114 181.561 267.898 181.48 267.712 181.566C267.616 181.61 265.374 182.675 265.006 184.714C264.97 184.913 265.102 185.104 265.302 185.14C265.341 185.148 265.38 185.148 265.416 185.143Z" fill="#263238"/>
<path d="M277.038 180.07C277.163 180.076 277.288 180.018 277.362 179.906C277.473 179.737 277.426 179.51 277.257 179.398C275.564 178.283 274.004 178.94 273.939 178.969C273.753 179.05 273.668 179.266 273.749 179.451C273.83 179.636 274.044 179.72 274.231 179.641C274.293 179.614 275.51 179.124 276.854 180.01C276.91 180.048 276.974 180.068 277.038 180.07Z" fill="#263238"/>
<path d="M269.102 185.288L270.472 184.542C270.472 184.542 269.974 185.851 269.102 185.288Z" fill="#263238"/>
<path d="M254.455 257.429L253.651 260.242C253.541 260.46 253.799 260.683 254.163 260.683H286.507C286.79 260.683 287.025 260.544 287.043 260.366L287.327 257.553C287.347 257.358 287.101 257.193 286.791 257.193H254.967C254.733 257.193 254.526 257.288 254.455 257.429Z" fill="#8D1B3D"/>
<path opacity="0.2" d="M254.455 257.429L253.651 260.242C253.541 260.46 253.799 260.683 254.163 260.683H286.507C286.79 260.683 287.025 260.544 287.043 260.366L287.327 257.553C287.347 257.358 287.101 257.193 286.791 257.193H254.967C254.733 257.193 254.526 257.288 254.455 257.429Z" fill="white"/>
<path d="M258.835 260.987H257.983C257.813 260.987 257.684 260.9 257.696 260.793L258.096 257.138C258.108 257.031 258.256 256.943 258.426 256.943H259.278C259.448 256.943 259.577 257.03 259.565 257.138L259.165 260.793C259.153 260.9 259.004 260.987 258.835 260.987Z" fill="#8D1B3D"/>
<path opacity="0.4" d="M258.835 260.987H257.983C257.813 260.987 257.684 260.9 257.696 260.793L258.096 257.138C258.108 257.031 258.256 256.943 258.426 256.943H259.278C259.448 256.943 259.577 257.03 259.565 257.138L259.165 260.793C259.153 260.9 259.004 260.987 258.835 260.987Z" fill="black"/>
<path d="M284.112 260.987H283.26C283.09 260.987 282.961 260.9 282.973 260.793L283.373 257.138C283.385 257.031 283.533 256.943 283.703 256.943H284.555C284.725 256.943 284.854 257.03 284.842 257.138L284.442 260.793C284.43 260.9 284.281 260.987 284.112 260.987Z" fill="#8D1B3D"/>
<path opacity="0.4" d="M284.112 260.987H283.26C283.09 260.987 282.961 260.9 282.973 260.793L283.373 257.138C283.385 257.031 283.533 256.943 283.703 256.943H284.555C284.725 256.943 284.854 257.03 284.842 257.138L284.442 260.793C284.43 260.9 284.281 260.987 284.112 260.987Z" fill="black"/>
<path d="M271.526 260.987H270.674C270.504 260.987 270.375 260.9 270.387 260.793L270.787 257.138C270.799 257.031 270.947 256.943 271.117 256.943H271.969C272.139 256.943 272.268 257.03 272.256 257.138L271.856 260.793C271.844 260.9 271.696 260.987 271.526 260.987Z" fill="#8D1B3D"/>
<path opacity="0.4" d="M271.526 260.987H270.674C270.504 260.987 270.375 260.9 270.387 260.793L270.787 257.138C270.799 257.031 270.947 256.943 271.117 256.943H271.969C272.139 256.943 272.268 257.03 272.256 257.138L271.856 260.793C271.844 260.9 271.696 260.987 271.526 260.987Z" fill="black"/>
<path d="M253.554 222.559C253.3 225.224 252.966 227.879 252.675 230.54L251.664 238.507C251.345 241.163 250.933 243.81 250.568 246.462L250.004 250.438L249.821 251.704C249.818 251.806 249.847 251.988 249.976 252.258C250.222 252.804 250.864 253.583 251.672 254.285C252.486 254.999 253.455 255.684 254.486 256.326C256.545 257.635 258.856 258.75 261.201 259.827C263.556 260.896 265.99 261.861 268.458 262.76C270.906 263.698 273.437 264.541 275.905 265.35L275.034 269.17C269.602 268.288 264.345 267.001 259.082 265.232C256.449 264.354 253.853 263.295 251.262 261.951C249.972 261.266 248.688 260.49 247.42 259.523C246.167 258.535 244.866 257.395 243.823 255.585C243.316 254.682 242.894 253.576 242.765 252.343C242.745 252.034 242.718 251.724 242.729 251.413C242.737 251.13 242.767 250.713 242.778 250.613L242.864 249.613L243.212 245.613C243.454 242.949 243.65 240.279 243.938 237.619L244.75 229.635C245.066 226.979 245.339 224.319 245.693 221.667L253.554 222.559Z" fill="#FF8B7B"/>
<path d="M249.356 212.347C246.208 213.305 242.426 224.146 242.426 224.146L253.443 235.49C253.443 235.49 259.096 223.83 257.773 219.76C256.395 215.521 252.949 211.254 249.356 212.347Z" fill="#8D1B3D"/>
</g>
<path opacity="0.2" d="M222.52 222.661C215.353 196.071 231.097 168.699 257.693 161.53C284.29 154.361 311.657 170.113 318.824 196.703C325.993 223.3 310.249 250.671 283.652 257.84C257.056 265.009 229.689 249.258 222.52 222.661Z" fill="#8D1B3D"/>
<path opacity="0.2" d="M306.825 175.32L265.755 259.32C269.225 259.67 272.776 259.66 276.345 259.23L313.275 183.73C311.415 180.68 309.255 177.86 306.825 175.32ZM318.825 196.7C318.735 196.38 318.645 196.05 318.555 195.73L289.065 256.05C312.345 246.85 325.495 221.44 318.825 196.7ZM257.695 161.53C231.105 168.7 215.355 196.07 222.525 222.66C225.175 232.5 230.595 240.85 237.715 247.11L279.985 160.68C272.805 159.31 265.225 159.5 257.695 161.53Z" fill="white"/>
<path d="M214.562 204.27L213.566 204.174C213.731 202.462 213.975 200.741 214.295 199.061L215.277 199.248C214.964 200.899 214.724 202.588 214.562 204.27ZM216.502 194.117L215.541 193.839C216.821 189.417 218.648 185.127 220.973 181.086L221.84 181.585C219.555 185.556 217.759 189.772 216.502 194.117Z" fill="#8D1B3D"/>
<path d="M322.659 195.671C314.921 166.961 285.372 149.959 256.662 157.698C227.952 165.436 210.95 194.985 218.689 223.695C226.429 252.409 255.978 269.411 284.687 261.673C313.397 253.935 330.399 224.386 322.659 195.671ZM222.522 222.661C215.355 196.071 231.099 168.699 257.695 161.53C284.292 154.361 311.659 170.113 318.826 196.703C325.995 223.3 310.251 250.671 283.654 257.84C257.058 265.009 229.691 249.258 222.522 222.661Z" fill="#8D1B3D"/>
<path d="M223.324 230.906C223.295 233.203 222.727 233.498 222.099 233.574L220.285 234.053L216.656 235.011L209.398 236.928L194.853 240.661C185.144 243.1 175.415 245.469 165.673 247.787L136.451 254.756L121.857 258.303C116.999 259.51 112.116 260.625 107.311 262.031C105.258 262.632 103.107 261.455 102.505 259.402C101.904 257.349 103.081 255.197 105.134 254.596C105.183 254.582 105.246 254.565 105.295 254.553C110.155 253.354 114.937 251.864 119.744 250.466L134.144 246.198L162.911 237.537C172.498 234.645 182.099 231.804 191.72 229.033L206.17 224.951L213.409 222.961L217.028 221.966L218.837 221.468C219.418 221.218 220.058 221.188 221.237 223.159C222.679 225.57 223.349 228.288 223.324 230.906Z" fill="#8D1B3D"/>
<path d="M160.398 156.296C160.397 156.889 160.711 157.369 161.098 157.37C161.485 157.37 161.8 156.89 161.8 156.298C161.801 155.706 161.487 155.225 161.099 155.225C160.712 155.223 160.398 155.703 160.398 156.296Z" fill="#263238"/>
<path d="M160.657 157.369C160.657 157.369 162.001 160.789 163.483 162.439C162.434 163.417 160.652 162.968 160.652 162.968L160.657 157.369Z" fill="#630F0F"/>
<path d="M158.302 153.01C158.194 153.01 158.087 152.96 158.019 152.865C157.907 152.709 157.942 152.492 158.098 152.379C159.661 151.254 161.165 151.818 161.229 151.843C161.408 151.913 161.497 152.114 161.427 152.293C161.358 152.472 161.154 152.559 160.979 152.492C160.93 152.473 159.752 152.046 158.504 152.943C158.443 152.989 158.372 153.01 158.302 153.01Z" fill="#263238"/>
<path d="M141.323 160.128C141.844 165.918 141.924 176.445 137.828 179.896C137.828 179.896 138.755 185.806 148.699 186.728C159.633 187.742 154.46 181.439 154.46 181.439C148.633 179.37 149.224 174.674 150.674 170.348L141.323 160.128Z" fill="#7F3E3B"/>
<path d="M125.33 397.31C124.471 397.667 122.499 396.801 121.871 396.434C121.812 396.399 121.778 396.333 121.786 396.265C121.794 396.197 121.842 396.137 121.905 396.118C122.004 396.086 124.349 395.34 125.302 395.891C125.521 396.018 125.658 396.202 125.708 396.437C125.803 396.884 125.634 397.115 125.476 397.229C125.433 397.261 125.383 397.288 125.33 397.31ZM122.417 396.332C123.414 396.825 124.846 397.249 125.272 396.947C125.313 396.918 125.436 396.829 125.368 396.509C125.339 396.373 125.26 396.269 125.128 396.192C124.562 395.865 123.218 396.12 122.417 396.332Z" fill="#8D1B3D"/>
<path d="M122.51 396.286C122.318 396.366 122.141 396.424 121.995 396.455C121.933 396.468 121.868 396.446 121.826 396.397C121.785 396.348 121.774 396.281 121.797 396.222C121.83 396.138 122.608 394.161 123.626 393.738L123.628 393.737C123.893 393.627 124.153 393.627 124.402 393.736C124.786 393.905 124.816 394.182 124.801 394.332C124.728 395.018 123.434 395.902 122.51 396.286ZM122.267 396.012C123.167 395.675 124.403 394.786 124.455 394.296C124.46 394.251 124.471 394.146 124.262 394.054C124.101 393.983 123.938 393.984 123.762 394.057L123.761 394.058C123.107 394.329 122.527 395.444 122.267 396.012Z" fill="#8D1B3D"/>
<path d="M170.765 409.114C169.886 409.114 168.98 409.001 168.511 408.908C168.44 408.894 168.385 408.837 168.373 408.765C168.361 408.693 168.395 408.622 168.458 408.586C168.567 408.523 171.131 407.06 172.357 407.393C172.607 407.461 172.794 407.598 172.908 407.8C173.114 408.16 173.03 408.412 172.923 408.56C172.618 408.984 171.707 409.114 170.765 409.114ZM169.073 408.65C170.44 408.843 172.299 408.832 172.641 408.358C172.686 408.296 172.73 408.189 172.607 407.973C172.538 407.853 172.427 407.773 172.266 407.73C171.515 407.525 169.97 408.189 169.073 408.65Z" fill="#8D1B3D"/>
<path d="M168.542 408.911C168.506 408.911 168.471 408.9 168.44 408.878C168.39 408.842 168.362 408.782 168.368 408.72C168.376 408.636 168.574 406.657 169.509 405.89C169.795 405.656 170.121 405.555 170.474 405.591C170.952 405.64 171.09 405.882 171.122 406.077C171.256 406.908 169.499 408.496 168.613 408.894C168.591 408.906 168.567 408.911 168.542 408.911ZM170.335 405.933C170.114 405.933 169.916 406.007 169.73 406.16C169.116 406.663 168.854 407.847 168.76 408.425C169.665 407.881 170.859 406.632 170.778 406.134C170.772 406.093 170.752 405.97 170.439 405.938C170.404 405.935 170.369 405.933 170.335 405.933Z" fill="#8D1B3D"/>
<path d="M160.465 408.737H167.811L168.542 391.724H161.196L160.465 408.737Z" fill="#7F3E3B"/>
<path d="M113.672 394.698L120.891 396.057L129.015 380.276L121.796 378.916L113.672 394.698Z" fill="#7F3E3B"/>
<path d="M121.68 395.312L113.777 392.932C113.489 392.845 113.18 392.97 113.033 393.232L109.761 399.066C109.422 399.671 109.746 400.438 110.414 400.627C113.187 401.41 114.576 401.652 118.052 402.699C120.19 403.343 125.812 405.679 128.765 406.568C131.653 407.438 132.982 404.654 131.853 404.025C126.79 401.207 123.957 398.17 122.691 396.088C122.463 395.712 122.1 395.438 121.68 395.312Z" fill="#263238"/>
<path d="M167.763 407.886H159.74C159.44 407.886 159.18 408.095 159.114 408.388L157.663 414.918C157.513 415.595 158.026 416.237 158.72 416.225C161.614 416.176 165.796 416.006 169.433 416.006C173.686 416.006 177.359 416.238 182.347 416.238C185.363 416.238 186.2 413.189 184.938 412.913C179.191 411.656 174.498 411.521 169.532 408.459C168.993 408.126 168.397 407.886 167.763 407.886Z" fill="#263238"/>
<path d="M124.036 181.767C117.664 184.817 114.996 205.333 114.996 205.333L129.647 211.079C129.647 211.079 133.151 202.78 135.154 193.925C137.252 184.648 130.551 178.649 124.036 181.767Z" fill="#8D1B3D"/>
<path opacity="0.3" d="M124.036 181.767C117.664 184.817 114.996 205.333 114.996 205.333L129.647 211.079C129.647 211.079 133.151 202.78 135.154 193.925C137.252 184.648 130.551 178.649 124.036 181.767Z" fill="black"/>
<path opacity="0.2" d="M133.53 187.799C134.05 187.549 134.57 187.359 135.09 187.229C135.64 189.149 135.72 191.419 135.15 193.929C133.15 202.779 129.65 211.079 129.65 211.079L124.82 209.189C125.71 203.819 128.44 190.239 133.53 187.799Z" fill="black"/>
<path d="M166.519 181.611C166.519 181.611 174.338 190.443 166.954 245.108C155.115 245.108 133.422 245.108 127.661 245.108C127.39 239.076 131.18 209.652 125.363 181.232C125.363 181.232 132.098 179.88 138.516 179.571C143.537 179.329 150.806 179.169 155.219 179.572C161.038 180.103 166.519 181.611 166.519 181.611Z" fill="#8D1B3D"/>
<path opacity="0.3" d="M166.519 181.611C166.519 181.611 174.338 190.443 166.954 245.108C155.115 245.108 133.422 245.108 127.661 245.108C127.39 239.076 131.18 209.652 125.363 181.232C125.363 181.232 132.098 179.88 138.516 179.571C143.537 179.329 150.806 179.169 155.219 179.572C161.038 180.103 166.519 181.611 166.519 181.611Z" fill="black"/>
<path opacity="0.2" d="M158.613 193.33C160.393 187.99 164.673 186.28 169.033 189.45C169.913 194.63 170.533 202.98 169.823 216.22L162.153 216.15C162.153 216.15 155.963 201.28 158.613 193.33Z" fill="black"/>
<path d="M171.065 189.684C171.439 191.966 171.857 194.466 172.335 196.847C172.826 199.249 173.312 201.651 173.889 204.015C175.013 208.741 176.337 213.412 178.105 217.621C178.547 218.665 179.014 219.68 179.517 220.631L180.174 221.806C180.267 222 180.489 222.268 180.74 222.548C181.829 223.743 183.768 224.98 185.758 226.088C189.826 228.281 194.509 230.194 199.073 231.946L197.976 237.352C192.611 236.922 187.473 235.987 182.201 234.131C180.886 233.655 179.56 233.121 178.233 232.436C176.903 231.752 175.551 230.963 174.182 229.852C173.502 229.268 172.819 228.633 172.162 227.798L171.678 227.163L171.367 226.698C171.164 226.388 170.948 226.077 170.758 225.766C169.978 224.52 169.292 223.266 168.652 222.008C166.176 216.962 164.494 211.865 163.109 206.739C162.437 204.172 161.822 201.605 161.326 199.017C160.821 196.408 160.36 193.895 160.027 191.139L171.065 189.684Z" fill="#7F3E3B"/>
<path d="M156.703 186.968C154.633 193.68 163.027 213.685 163.027 213.685L180.723 209.235C180.723 209.235 179.099 199.089 175.291 190.839C169.548 178.393 159.187 178.913 156.703 186.968Z" fill="#8D1B3D"/>
<path opacity="0.3" d="M156.703 186.968C154.633 193.68 163.027 213.685 163.027 213.685L180.723 209.235C180.723 209.235 179.099 199.089 175.291 190.839C169.548 178.393 159.187 178.913 156.703 186.968Z" fill="black"/>
<path d="M199.175 231.956L206.763 235.371L199.412 241.44C199.412 241.44 196.166 240.381 195.637 235.057L194.504 230.639L197.838 231.489C198.297 231.605 198.744 231.762 199.175 231.956Z" fill="#7F3E3B"/>
<path d="M210.803 239.095L203.406 243.499L199.414 241.439L206.765 235.371L210.803 239.095Z" fill="#7F3E3B"/>
<path d="M158.556 178.922C155.386 176.242 147.689 174.315 139.064 173.833C134.141 173.559 129.075 174.367 126.959 175.309C124.842 176.25 127.343 183.044 130.105 183.19C128.649 185.487 130.768 189.927 133.936 190.797C133.434 194.638 143.116 194.996 148.975 191.9C153.641 189.434 162.355 182.134 158.556 178.922Z" fill="#263238"/>
<path opacity="0.2" d="M168.542 391.729L168.166 400.498H160.817L161.192 391.729H168.542Z" fill="black"/>
<path opacity="0.2" d="M121.793 378.92L129.015 380.28L124.824 388.414L117.602 387.054L121.793 378.92Z" fill="black"/>
<path d="M140.637 155.023C141.078 162.301 140.966 166.583 144.638 170.321C150.162 175.944 159.148 172.619 160.89 165.357C162.458 158.82 161.474 148.017 154.353 145.115C147.338 142.255 140.196 147.745 140.637 155.023Z" fill="#7F3E3B"/>
<path d="M154.262 159.056C157.003 156.278 161.528 150.223 159.947 145.667C157.614 138.945 150.669 141.222 151.78 142.556C147.743 139.917 139.697 139.792 141.391 143.334C134.113 144.334 133.528 147.279 135.543 148.39C130.363 153.334 130.613 158.445 134.541 158.057C131.558 161.057 137.058 167.001 143.225 169.835C145.336 164.333 156.577 163.329 154.262 159.056Z" fill="#263238"/>
<path d="M151.073 161.694C151.024 161.694 150.975 161.68 150.932 161.651C150.818 161.573 150.788 161.418 150.866 161.304C152.449 158.978 153.991 157.118 155.351 155.476C157.952 152.339 159.831 150.073 159.991 146.986C160.121 144.491 158.655 142.307 156.07 141.143C154.208 140.304 152.209 140.254 151.421 141.028C151.002 141.439 150.963 142.051 151.303 142.847C151.358 142.974 151.299 143.12 151.172 143.175C151.045 143.228 150.898 143.171 150.844 143.043C150.308 141.793 150.672 141.063 151.072 140.671C152.014 139.747 154.202 139.754 156.277 140.687C159.056 141.94 160.632 144.304 160.492 147.012C160.323 150.265 158.399 152.585 155.737 155.795C154.383 157.428 152.849 159.278 151.281 161.585C151.231 161.656 151.153 161.694 151.073 161.694Z" fill="#263238"/>
<path d="M151.429 158.237C151.543 160.143 152.429 161.937 153.494 163.109C155.096 164.873 156.767 163.774 157.05 161.625C157.305 159.691 156.779 156.442 154.821 155.469C152.891 154.512 151.298 156.057 151.429 158.237Z" fill="#7F3E3B"/>
<path d="M153.016 245.108C153.016 245.108 155.496 294.632 150.668 315.609C143.022 348.835 128.386 387.357 128.386 387.357L114.77 384.793C114.77 384.793 126.24 346.21 128.727 318.555C130.961 293.711 127.661 265.177 127.661 245.109C136.814 245.108 153.016 245.108 153.016 245.108Z" fill="#263238"/>
<path opacity="0.2" d="M149.331 259.78C150.353 257.848 152.281 263.6 153.641 270.98C153.681 281.16 153.461 292.74 152.571 302.55C145.773 290 147.218 263.778 149.331 259.78Z" fill="black"/>
<path d="M131.709 383.178C131.766 383.189 129.584 387.904 129.584 387.904L113.824 384.827L115.537 380.081L131.709 383.178Z" fill="#8D1B3D"/>
<path d="M166.954 245.108C166.954 245.108 178.019 292.009 178.798 314.412C179.672 339.537 170.903 398.8 170.903 398.8H158.459C158.459 398.8 156.927 339.076 156.373 316.191C155.769 291.242 141.125 245.108 141.125 245.108H166.954Z" fill="#263238"/>
<path d="M173.297 393.843C173.354 393.843 172.595 399.01 172.595 399.01H157.456L157.047 394.399L173.297 393.843Z" fill="#8D1B3D"/>
</svg>
