<svg width="750" height="500" viewBox="0 0 750 500" fill="none" xmlns="http://www.w3.org/2000/svg">
<path d="M322.231 141.836C320.456 141.836 318.541 139.855 318.004 138.064C317.361 135.706 317.782 133.208 319.152 131.057C317.144 129.962 314.68 129.695 312.882 131.168C311.569 132.245 311.236 133.737 311.804 136.008C311.871 136.276 311.708 136.547 311.44 136.614C311.173 136.679 310.901 136.518 310.834 136.25C310.416 134.577 310.106 132.15 312.248 130.395C314.428 128.608 317.375 128.922 319.73 130.241C319.748 130.218 319.767 130.195 319.785 130.172C321.773 127.688 324.736 126.289 327.713 126.421C327.987 126.446 328.262 126.482 328.536 126.528C328.931 125.466 329.484 124.511 330.127 123.777C332.031 121.327 334.74 121.056 337.36 120.794C337.644 120.777 337.88 120.967 337.907 121.242C337.934 121.517 337.734 121.762 337.459 121.789C334.937 122.041 332.556 122.279 330.896 124.413C330.353 125.034 329.878 125.844 329.528 126.747C331.966 127.413 334.098 128.983 334.325 131.479C334.481 133.659 333.275 134.749 332.196 135.023C330.734 135.396 329.219 134.567 328.511 133.01C327.74 131.312 327.746 129.306 328.228 127.489C328.032 127.458 327.836 127.434 327.643 127.417C325.016 127.298 322.367 128.553 320.578 130.777C320.855 130.973 321.12 131.183 321.369 131.405C323.391 133.426 325.135 136.86 324.597 139.552C324.074 141.519 322.912 141.824 322.265 141.834C322.256 141.835 322.244 141.836 322.231 141.836ZM320 131.587C318.778 133.501 318.4 135.715 318.965 137.788C319.421 139.309 321.069 140.892 322.252 140.835C322.9 140.825 323.362 140.317 323.627 139.326C324.084 137.034 322.455 133.902 320.687 132.134C320.47 131.941 320.24 131.758 320 131.587ZM329.218 127.701C328.778 129.325 328.754 131.119 329.425 132.596C330.013 133.89 331.147 134.261 331.953 134.054C332.692 133.866 333.443 133.112 333.332 131.56C333.149 129.557 331.278 128.262 329.218 127.701Z" fill="#99D5CB"/>
<path d="M660.378 262.368C659.851 262.368 659.347 262.208 658.936 261.9C658.14 261.179 657.762 260.378 657.776 259.488C657.81 257.301 660.217 255.208 661.715 253.928C661.273 252.724 660.501 251.747 659.065 251.225C656.879 250.243 654.101 250.441 651.608 251.704C651.738 251.892 651.864 252.085 651.986 252.281C653.655 255.283 653.632 258.102 651.938 260.038C650.905 261.367 649.153 261.962 647.697 261.464C646.441 261.032 645.691 259.899 645.691 258.43C645.81 255.666 647.426 253.119 650.135 251.395C649 249.982 647.646 248.846 646.221 248.133C644.817 247.43 644.435 247.418 642.679 247.669C642.412 247.705 642.154 247.518 642.114 247.245C642.075 246.972 642.265 246.718 642.539 246.679C644.437 246.408 645.046 246.427 646.669 247.239C648.258 248.033 649.76 249.303 651.009 250.889C653.806 249.424 656.972 249.188 659.442 250.3C661.109 250.905 662.029 252.009 662.563 253.338C662.662 253.276 662.755 253.218 662.848 253.159C663.816 252.552 664.729 251.979 665.985 251.56C666.412 251.418 666.889 251.35 667.352 251.284C667.79 251.221 668.203 251.163 668.543 251.049C668.805 250.962 669.088 251.104 669.176 251.365C669.263 251.627 669.121 251.91 668.86 251.998C668.433 252.14 667.956 252.208 667.493 252.274C667.055 252.337 666.642 252.395 666.302 252.509C665.159 252.889 664.295 253.431 663.381 254.005C663.217 254.107 663.052 254.211 662.883 254.316C663.116 255.205 663.232 256.156 663.318 257.105C663.32 257.337 663.329 257.541 663.339 257.757C663.383 258.782 663.439 260.059 662.709 261.031C662.428 261.611 661.77 262.112 660.995 262.295C660.786 262.345 660.58 262.368 660.378 262.368ZM662.016 254.988C660.706 256.125 658.8 257.914 658.776 259.504C658.767 260.103 659.027 260.635 659.572 261.13C659.988 261.439 660.498 261.385 660.762 261.323C661.244 261.209 661.664 260.896 661.859 260.509C662.422 259.746 662.377 258.713 662.337 257.801C662.327 257.571 662.318 257.351 662.318 257.151C662.249 256.406 662.165 255.675 662.016 254.988ZM650.734 252.198C648.267 253.745 646.794 256.019 646.69 258.451C646.69 259.467 647.174 260.227 648.02 260.517C649.08 260.878 650.372 260.422 651.166 259.402C653.172 257.107 651.804 254.013 651.123 252.789C650.999 252.588 650.869 252.391 650.734 252.198Z" fill="#DCD8F0"/>
<path d="M212.376 151.051C206.145 147.219 206.571 141.784 213.326 138.973L282.218 110.311C288.973 107.5 291.695 110.489 288.266 116.952L262.193 166.099C258.764 172.562 250.86 174.715 244.627 170.882L212.376 151.051Z" fill="#DCD8F0"/>
<path d="M571.264 185.128C567.567 185.128 564.101 183.698 561.505 181.102L547.517 167.114C544.92 164.518 543.491 161.052 543.491 157.355C543.491 153.658 544.921 150.192 547.517 147.596L561.503 133.608C564.1 131.012 567.566 129.582 571.263 129.582C574.96 129.582 578.426 131.012 581.023 133.608L595.011 147.596C597.608 150.192 599.037 153.658 599.037 157.355C599.037 161.052 597.607 164.518 595.011 167.114L581.023 181.102C578.427 183.699 574.961 185.128 571.264 185.128ZM571.263 130.581C567.833 130.581 564.618 131.907 562.21 134.314L548.224 148.302C545.816 150.709 544.491 153.924 544.491 157.354C544.491 160.784 545.816 163.999 548.224 166.406L562.212 180.394C564.619 182.801 567.834 184.127 571.264 184.127C574.694 184.127 577.909 182.801 580.316 180.394L594.304 166.406C596.712 163.999 598.037 160.784 598.037 157.354C598.037 153.924 596.712 150.709 594.304 148.302L580.316 134.314C577.907 131.907 574.692 130.581 571.263 130.581Z" fill="#F1E0D9"/>
<path d="M157.983 161.249C160.109 163.374 160.109 166.853 157.983 168.978L152.238 174.723C150.113 176.849 146.636 176.849 144.511 174.723L138.766 168.978C136.64 166.853 136.64 163.374 138.766 161.249L144.511 155.503C146.635 153.379 150.113 153.379 152.238 155.503L157.983 161.249Z" fill="#AAD5CE"/>
<path d="M690.95 355.026C690.95 357.287 689.116 359.121 686.856 359.121C684.594 359.121 682.762 357.287 682.762 355.026C682.762 352.765 684.594 350.933 686.856 350.933C689.116 350.934 690.95 352.766 690.95 355.026Z" fill="#DCD8F0"/>
<path d="M684.843 364.931C684.843 367.192 683.009 369.024 680.749 369.024C678.487 369.024 676.655 367.192 676.655 364.931C676.655 362.669 678.487 360.837 680.749 360.837C683.009 360.837 684.843 362.669 684.843 364.931Z" fill="#DCD8F0"/>
<path d="M688.737 364.931C688.737 367.192 690.569 369.024 692.831 369.024C695.091 369.024 696.925 367.192 696.925 364.931C696.925 362.669 695.091 360.837 692.831 360.837C690.569 360.837 688.737 362.669 688.737 364.931Z" fill="#DCD8F0"/>
<path d="M507.968 84.565C507.968 86.827 506.136 88.66 503.874 88.66C501.614 88.66 499.78 86.827 499.78 84.565C499.78 82.305 501.614 80.472 503.874 80.472C506.136 80.473 507.968 82.306 507.968 84.565Z" fill="#AAD5CE"/>
<path d="M501.86 94.471C501.86 96.731 500.028 98.564 497.766 98.564C495.506 98.564 493.672 96.731 493.672 94.471C493.672 92.209 495.506 90.376 497.766 90.376C500.028 90.376 501.86 92.209 501.86 94.471Z" fill="#AAD5CE"/>
<path d="M505.755 94.471C505.755 96.731 507.587 98.564 509.849 98.564C512.111 98.564 513.943 96.731 513.943 94.471C513.943 92.209 512.111 90.376 509.849 90.376C507.587 90.376 505.755 92.209 505.755 94.471Z" fill="#AAD5CE"/>
<path d="M231.743 139.467C223.004 139.467 215.894 132.358 215.894 123.619C215.894 114.88 223.004 107.77 231.743 107.77C240.481 107.77 247.591 114.88 247.591 123.619C247.59 132.357 240.481 139.467 231.743 139.467ZM231.743 108.771C223.555 108.771 216.894 115.432 216.894 123.62C216.894 131.807 223.555 138.468 231.743 138.468C239.93 138.468 246.591 131.807 246.591 123.62C246.59 115.432 239.93 108.771 231.743 108.771Z" fill="#F1E0D9"/>
<path d="M79.0411 392.182C68.5271 392.182 59.9741 383.628 59.9741 373.115C59.9741 362.601 68.5281 354.048 79.0411 354.048C89.5541 354.048 98.1071 362.602 98.1071 373.115C98.1081 383.628 89.5551 392.182 79.0411 392.182ZM79.0411 355.047C69.0791 355.047 60.9741 363.152 60.9741 373.114C60.9741 383.076 69.0791 391.181 79.0411 391.181C89.0031 391.181 97.1071 383.076 97.1071 373.114C97.1081 363.152 89.0031 355.047 79.0411 355.047Z" fill="#F1E0D9"/>
<path d="M322.507 216.392C329.158 226.88 341.693 253.74 357.553 257.577C373.412 261.415 383.389 257.577 390.552 241.973C397.714 226.368 402.064 218.694 402.831 219.461C403.599 220.229 412.296 247.6 414.087 252.204C415.876 256.808 485.456 272.669 496.456 266.785C507.456 260.902 513.083 256.553 518.712 225.089C524.339 193.625 527.921 181.09 523.571 170.09C519.223 159.091 516.665 155.254 504.897 148.091C493.129 140.928 474.206 130.031 458.956 129.531C449.227 129.212 413.319 139.649 398.481 157.044C383.645 174.44 362.413 221.508 360.878 222.531C350.646 211.531 348.855 208.972 348.855 208.972C348.855 208.972 320.46 212.811 322.507 216.392Z" fill="#E74173"/>
<path d="M432.931 143.061C435.659 148.347 440.265 153.293 449.474 151.757C458.683 150.222 467.101 138.589 463.456 131.53C459.852 124.55 451.69 110.487 451.69 110.487C458.852 108.44 459.022 94.968 446.915 93.262C441.628 77.573 429.009 55.403 401.552 68.533C374.094 81.665 375.817 85.9 377.524 95.28C379.232 104.66 385.011 109.121 391.32 120.548C397.628 131.977 408.544 152.953 432.931 143.061Z" fill="#FF7E7D"/>
<path d="M354.211 215.245C349.813 210.333 346.937 206.287 346.937 206.287C346.937 206.287 317.775 206.415 319.822 209.996C321.205 212.177 325.531 221.466 327.399 224.707C331.841 226.925 346.12 228.495 354.211 215.245Z" fill="#FF7E7D"/>
<path d="M458.852 203.857C458.852 206.117 457.02 207.949 454.758 207.949H290.02C287.759 207.949 285.927 206.117 285.927 203.857V179.81C285.927 177.55 287.759 175.717 290.02 175.717H454.759C457.021 175.717 458.853 177.55 458.853 179.81V203.857H458.852Z" fill="#F1E0D9"/>
<path d="M427.046 181.857V201.81C427.046 201.81 444.706 201.81 447.79 201.81C450.874 201.81 452.714 200.942 452.714 197.531C452.714 193.6 452.714 188.204 452.714 186.027C452.714 182.614 450.622 181.857 448.706 181.857C446.79 181.857 427.046 181.857 427.046 181.857Z" fill="#8D1B3D"/>
<path d="M371.874 181.857V201.81C371.874 201.81 300.387 201.81 297.303 201.81C294.219 201.81 292.379 200.942 292.379 197.531C292.379 193.6 292.379 188.204 292.379 186.027C292.379 182.614 294.47 181.857 296.386 181.857C298.301 181.857 371.874 181.857 371.874 181.857Z" fill="#DE3366"/>
<path d="M427.212 181.857H371.196V201.81H427.212V181.857Z" fill="#BB8897"/>
<path d="M427.388 227.135C425.853 223.81 425.47 219.845 423.552 218.311C421.632 216.776 420.482 215.369 418.052 216.648C415.622 217.926 412.552 216.392 411.017 213.833C408.202 215.112 406.923 213.961 406.923 213.961C404.11 215.496 400.784 216.136 397.843 211.02C394.902 205.904 398.866 196.183 403.087 205.136C403.343 199.849 406.413 196.61 408.46 197.633C410.507 198.656 410.378 200.915 410.378 200.915C411.103 196.95 415.962 195.415 416.644 201.555C418.691 198.741 419.714 199.508 422.144 203.217C424.576 206.927 423.636 207.396 428.242 207.012C430.373 205.648 439.455 203.815 442.14 205.989C444.826 208.163 447.982 213.067 451.179 216.264C446.956 225.531 433.698 230.717 427.388 227.135Z" fill="#FF7E7D"/>
<path d="M312.505 202.899C310.65 199.033 305.857 197.33 305.082 202.279C304.31 207.228 309.566 218.052 316.989 215.268C324.468 216.872 326.672 218.495 328.991 218.032C331.311 217.568 343.275 219.754 345.285 211.249C339.873 211.403 338.173 210.63 338.173 210.63C335.235 206.764 331.524 202.59 329.978 202.9C328.431 203.209 328.741 205.373 328.741 205.373C327.04 199.962 325.34 198.106 323.483 198.106C321.629 198.106 320.391 201.198 320.391 201.198C318.844 196.25 314.051 192.849 312.505 202.899Z" fill="#FF7E7D"/>
<path d="M329.164 218.319C327.997 218.319 326.99 218.078 325.996 217.841C325.724 217.776 325.452 217.711 325.175 217.651C324.436 217.49 323.633 217.402 322.784 217.31C320.664 217.079 318.261 216.817 316.327 215.25C312.587 212.219 312.166 205.47 312.007 202.93C311.99 202.654 312.199 202.417 312.475 202.4C312.758 202.379 312.988 202.592 313.005 202.868C313.156 205.289 313.557 211.72 316.957 214.473C318.663 215.856 320.813 216.09 322.893 216.316C323.769 216.412 324.597 216.502 325.388 216.673C325.671 216.734 325.95 216.801 326.229 216.868C328.528 217.416 330.699 217.936 334.936 215.344C335.171 215.2 335.478 215.275 335.624 215.51C335.768 215.745 335.694 216.053 335.458 216.198C332.771 217.84 330.809 218.319 329.164 218.319Z" fill="black"/>
<path d="M327.503 215.769C327.446 215.769 327.389 215.759 327.332 215.739C318.759 212.623 319.529 204.831 319.858 201.505L319.893 201.151C319.919 200.876 320.158 200.671 320.438 200.701C320.713 200.727 320.915 200.971 320.888 201.246L320.853 201.603C320.521 204.961 319.83 211.948 327.673 214.8C327.932 214.894 328.067 215.181 327.972 215.441C327.899 215.643 327.707 215.769 327.503 215.769Z" fill="black"/>
<path d="M339.403 211.01C338.939 211.01 338.445 210.927 337.827 210.594C336.754 210.017 335.802 209.028 335.215 207.882C335.089 207.636 335.186 207.335 335.432 207.209C335.678 207.082 335.978 207.18 336.105 207.426C336.595 208.383 337.416 209.238 338.301 209.714C338.954 210.068 339.361 210.031 339.976 209.976C340.236 209.953 340.516 209.929 340.838 209.929C341.114 209.929 341.338 210.153 341.338 210.429C341.338 210.705 341.114 210.929 340.838 210.929C340.549 210.929 340.298 210.951 340.065 210.973C339.843 210.991 339.626 211.01 339.403 211.01Z" fill="black"/>
<path d="M338.096 216.727C337.507 216.727 336.949 216.657 336.427 216.516C333.324 215.812 331.194 213.235 329.957 211.197C329.256 210.065 329.024 208.852 328.8 207.679C328.678 207.04 328.562 206.436 328.376 205.841C328.293 205.577 328.44 205.297 328.703 205.214C328.967 205.131 329.247 205.278 329.33 205.541C329.534 206.191 329.661 206.852 329.783 207.491C330 208.624 330.204 209.695 330.81 210.674C331.949 212.55 333.888 214.915 336.668 215.545C337.819 215.856 339.172 215.765 340.703 215.284C340.968 215.201 341.247 215.348 341.33 215.611C341.412 215.875 341.266 216.155 341.003 216.238C339.965 216.564 338.993 216.727 338.096 216.727Z" fill="black"/>
<path d="M431.279 214.363C429.971 214.363 429.04 214.033 428.379 213.599C427.027 212.711 426.376 211.052 426.637 209.16C427.174 205.266 432.125 205.034 436.914 204.809L437.85 204.764C438.153 204.747 438.362 204.963 438.374 205.239C438.388 205.515 438.176 205.749 437.9 205.763L436.959 205.808C432.377 206.023 428.049 206.226 427.625 209.297C427.525 210.017 427.454 211.796 428.926 212.763C430.175 213.582 433.398 214.274 440.941 209.697C441.176 209.554 441.485 209.628 441.629 209.865C441.772 210.101 441.696 210.409 441.461 210.552C436.698 213.442 433.465 214.363 431.279 214.363Z" fill="black"/>
<path d="M422.474 216.344C422.108 216.344 421.754 216.299 421.411 216.21C419.461 215.704 417.959 213.824 416.685 210.293C415.804 207.848 415.256 202.381 417.302 200.189C417.491 199.988 417.808 199.977 418.008 200.165C418.21 200.354 418.221 200.67 418.032 200.872C416.436 202.582 416.73 207.471 417.626 209.954C418.761 213.102 420.081 214.832 421.661 215.242C423.29 215.665 425.323 214.783 427.883 212.549C428.09 212.367 428.407 212.388 428.589 212.597C428.771 212.805 428.749 213.121 428.541 213.303C426.205 215.341 424.208 216.344 422.474 216.344Z" fill="black"/>
<path d="M415.31 217.253C414.393 217.253 413.558 216.976 412.807 216.422C408.898 213.533 408.842 203.483 410.034 200.109C410.126 199.849 410.416 199.716 410.672 199.804C410.933 199.896 411.069 200.182 410.978 200.442C409.921 203.434 409.967 213.08 413.403 215.617C414.92 216.74 416.989 216.349 419.546 214.454C419.768 214.29 420.082 214.335 420.245 214.558C420.41 214.78 420.363 215.093 420.142 215.257C418.346 216.587 416.73 217.253 415.31 217.253Z" fill="black"/>
<path d="M408.304 214.656C407.582 214.656 406.903 214.472 406.269 214.104C403.294 212.377 402.331 206.972 402.331 204.624C402.331 204.348 402.555 204.124 402.831 204.124C403.107 204.124 403.331 204.348 403.331 204.624C403.331 206.698 404.197 211.746 406.77 213.239C407.886 213.886 409.231 213.767 410.768 212.888C411.005 212.751 411.312 212.833 411.451 213.074C411.588 213.314 411.505 213.619 411.264 213.756C410.215 214.356 409.226 214.656 408.304 214.656Z" fill="black"/>
<path d="M478.636 234.362C478.537 234.362 478.438 234.333 478.351 234.273C477.974 234.011 476.924 233.457 475.596 232.755C472.197 230.959 466.507 227.955 461.765 224.489C459.109 222.548 457.165 220.916 455.604 219.605C453.411 217.763 452.086 216.651 451.043 216.635C450.767 216.631 450.547 216.403 450.551 216.127C450.556 215.851 450.777 215.664 451.059 215.635C452.458 215.658 453.805 216.788 456.249 218.84C457.799 220.141 459.727 221.761 462.356 223.682C467.04 227.105 472.689 230.089 476.064 231.871C477.528 232.644 478.495 233.155 478.922 233.451C479.149 233.609 479.205 233.92 479.048 234.147C478.949 234.287 478.794 234.362 478.636 234.362Z" fill="black"/>
<path d="M475.865 232.623C475.833 232.623 475.8 232.62 475.767 232.614C475.496 232.56 475.32 232.298 475.373 232.027C476.928 224.145 484.444 200.29 487.654 190.103C488.441 187.603 489 185.831 489.196 185.169C489.274 184.905 489.555 184.753 489.817 184.832C490.083 184.911 490.233 185.189 490.155 185.454C489.958 186.118 489.398 187.896 488.607 190.404C485.403 200.575 477.898 224.393 476.353 232.221C476.308 232.458 476.099 232.623 475.865 232.623Z" fill="black"/>
<path d="M377.189 78.615C374.44 85.308 374.898 95.233 376.357 96.115C381.217 99.057 387.225 97.867 398.311 93.945C409.395 90.023 420.821 77.745 420.821 77.745C421.505 87.295 425.087 90.536 427.131 93.775C429.178 97.015 432.248 94.117 434.977 96.334C437.706 98.55 441.018 104.881 442.383 105.393C443.748 105.905 445.719 101.793 444.696 96.164C447.938 93.945 452.02 95.298 453.385 96.15C455.09 85.235 450.664 69.899 442.139 62.908C433.612 55.916 417.241 49.435 403.086 54.381C388.931 59.326 381.112 69.065 377.189 78.615Z" fill="#8D1B3D"/>
<path d="M409.516 128.207C408.047 128.207 407.044 127.917 406.353 127.325C405.066 126.222 405.093 124.32 405.132 121.686C405.139 121.218 405.146 120.725 405.146 120.209C405.146 115.406 403.654 112.72 400.585 111.998C400.316 111.935 400.149 111.666 400.213 111.397C400.276 111.129 400.541 110.963 400.814 111.024C404.353 111.855 406.147 114.946 406.147 120.208C406.147 120.729 406.14 121.227 406.132 121.7C406.098 124.061 406.073 125.767 407.004 126.564C407.858 127.296 409.678 127.396 412.725 126.877C412.993 126.834 413.255 127.013 413.302 127.286C413.348 127.558 413.165 127.817 412.893 127.863C411.555 128.091 410.442 128.207 409.516 128.207Z" fill="black"/>
<path d="M415.322 132.968C413.926 132.968 412.759 132.656 412.137 132.449C411.875 132.362 411.734 132.079 411.821 131.817C411.909 131.555 412.193 131.416 412.454 131.501C413.469 131.838 416.099 132.488 418.603 131.213C420.521 130.236 421.939 128.333 422.819 125.557C422.902 125.293 423.181 125.146 423.447 125.231C423.71 125.315 423.856 125.595 423.772 125.859C422.808 128.9 421.222 131.001 419.057 132.104C417.774 132.757 416.472 132.968 415.322 132.968Z" fill="black"/>
<path d="M432.931 143.561C432.772 143.561 432.615 143.484 432.518 143.342C432.363 143.114 432.421 142.803 432.65 142.647L433.332 142.187C438.724 138.557 447.749 132.48 445.821 114.89C445.791 114.615 445.989 114.369 446.263 114.338C446.531 114.31 446.784 114.505 446.815 114.78C448.809 132.972 439.104 139.506 433.889 143.016L433.212 143.474C433.126 143.534 433.028 143.561 432.931 143.561Z" fill="black"/>
<path d="M418.202 110.377C416.8 111.686 419.61 116.133 422.04 114.854C424.47 113.574 420.12 108.586 418.202 110.377Z" fill="black"/>
<path d="M397.19 115.473C395.788 116.782 398.598 121.229 401.028 119.95C403.458 118.67 399.11 113.682 397.19 115.473Z" fill="black"/>
<path d="M408.19 106.281C402.385 102.512 409.829 99.047 416.608 100.198C423.387 101.349 424.083 104.981 421.268 104.725C418.455 104.469 413.979 104.213 412.188 105.237C410.397 106.261 409.481 107.119 408.19 106.281Z" fill="#8D1B3D"/>
<path d="M388.69 115.114C389.887 113.827 392.76 109.571 396.44 110.531C399.379 111.298 395.417 105.856 391.219 106.368C389.237 106.609 387.213 108.654 386.524 111.781C386.144 113.502 388.358 115.473 388.69 115.114Z" fill="#8D1B3D"/>
<path d="M447.66 158.877C441.101 158.877 434.566 156.407 431.045 150.126C430.91 149.885 430.996 149.58 431.237 149.445C431.476 149.31 431.782 149.395 431.918 149.636C436.825 158.389 448.02 159.285 456.345 156.412C464.142 153.722 472.63 146.598 470.894 135.376C470.852 135.103 471.039 134.847 471.312 134.805C471.58 134.764 471.84 134.951 471.882 135.223C473.712 147.055 464.832 154.542 456.671 157.358C453.874 158.324 450.764 158.877 447.66 158.877Z" fill="black"/>
<path d="M368.637 230.364C368.519 230.364 368.402 230.323 368.306 230.239C368.012 229.98 361.087 223.87 359.706 221.972C359.543 221.749 359.593 221.436 359.816 221.274C360.038 221.112 360.352 221.161 360.514 221.384C361.83 223.193 368.895 229.426 368.967 229.489C369.174 229.672 369.194 229.987 369.011 230.194C368.914 230.307 368.775 230.364 368.637 230.364Z" fill="black"/>
<path d="M441.97 250.019C441.858 250.019 441.744 249.981 441.652 249.904C438.712 247.475 428.503 232.191 426.913 227.289C426.828 227.026 426.972 226.744 427.234 226.659C427.497 226.575 427.779 226.718 427.864 226.98C429.376 231.641 439.496 246.824 442.289 249.133C442.502 249.309 442.532 249.624 442.356 249.837C442.256 249.956 442.113 250.019 441.97 250.019Z" fill="black"/>
<path d="M505.892 431.114V260.658C505.892 248.225 495.814 238.147 483.382 238.147H263.387C250.954 238.147 240.875 248.225 240.875 260.658V431.114H505.892Z" fill="#F1E0D9"/>
<path d="M452.007 380.123C452.007 393.989 440.767 405.231 426.9 405.231C413.033 405.231 401.793 393.99 401.793 380.123C401.793 366.257 413.033 355.017 426.9 355.017C440.767 355.017 452.007 366.257 452.007 380.123Z" fill="#AE3157"/>
<path d="M441.433 380.123C441.433 388.149 434.927 394.656 426.9 394.656C418.873 394.656 412.365 388.149 412.365 380.123C412.365 372.097 418.873 365.591 426.9 365.591C434.927 365.591 441.433 372.097 441.433 380.123Z" fill="#DE3366"/>
<path d="M381.979 397.654C381.979 402.74 377.857 406.863 372.769 406.863H287.769C282.683 406.863 278.56 402.74 278.56 397.654V363.492C278.56 358.405 282.683 354.283 287.769 354.283H372.769C377.856 354.283 381.979 358.405 381.979 363.492V397.654Z" fill="#F381A3"/>
<path d="M297.216 365.358C297.216 367.88 295.171 369.924 292.649 369.924C290.127 369.924 288.083 367.88 288.083 365.358C288.083 362.835 290.127 360.791 292.649 360.791C295.171 360.791 297.216 362.835 297.216 365.358Z" fill="#F1EFEF"/>
<path d="M345.729 366.855C345.729 368.55 344.355 369.924 342.659 369.924H307.157C305.462 369.924 304.088 368.55 304.088 366.855V363.86C304.088 362.165 305.462 360.791 307.157 360.791H342.659C344.355 360.791 345.729 362.165 345.729 363.86V366.855Z" fill="#F1EFEF"/>
<path d="M297.216 381.023C297.216 383.545 295.171 385.589 292.649 385.589C290.127 385.589 288.083 383.545 288.083 381.023C288.083 378.5 290.127 376.456 292.649 376.456C295.171 376.456 297.216 378.5 297.216 381.023Z" fill="#AE3157"/>
<path d="M354.417 382.521C354.417 384.216 353.043 385.59 351.347 385.59H307.156C305.461 385.59 304.087 384.216 304.087 382.521V379.526C304.087 377.831 305.461 376.457 307.156 376.457H351.347C353.043 376.457 354.417 377.831 354.417 379.526V382.521Z" fill="#AE3157"/>
<path d="M297.216 396.689C297.216 399.211 295.171 401.256 292.649 401.256C290.127 401.256 288.083 399.211 288.083 396.689C288.083 394.166 290.127 392.122 292.649 392.122C295.171 392.121 297.216 394.166 297.216 396.689Z" fill="#8D1B3D"/>
<path d="M369.433 398.185C369.433 399.88 368.059 401.255 366.363 401.255H307.157C305.462 401.255 304.088 399.88 304.088 398.185V395.191C304.088 393.495 305.462 392.121 307.157 392.121H366.363C368.059 392.121 369.433 393.495 369.433 395.191V398.185Z" fill="#8D1B3D"/>
<path d="M396.142 313.249H337.896L332.26 323.01C328.071 330.265 331.497 336.202 339.877 336.202H394.159C402.54 336.202 405.966 330.264 401.776 323.01L396.142 313.249Z" fill="#8D1B3D"/>
<path d="M337.172 314.502H396.866L388.601 300.185H345.438L337.172 314.502Z" fill="#AE3157"/>
<path d="M344.394 301.994H389.644L379.226 283.949H354.812L344.394 301.994Z" fill="#F381A3"/>
<path d="M381.026 287.068L374.636 275.999C370.447 268.742 363.591 268.742 359.402 275.999L353.011 287.068H381.026Z" fill="#F1EFEF"/>
<path d="M529.712 241.461C527.409 232.764 528.605 222.531 548.046 213.492C567.487 204.454 605.005 208.377 612.167 238.221C619.329 268.066 611.485 283.242 625.981 302.002C640.477 320.762 667.251 342.59 644.057 368.342C604.151 396.481 539.518 364.078 533.719 348.389C527.92 332.7 537.129 307.631 550.432 286.655C563.735 265.678 532.183 254.933 529.712 241.461Z" fill="#8D1B3D"/>
<path d="M563.733 308.227C563.477 304.901 562.71 296.204 562.71 296.204C543.78 300.808 531.245 285.716 531.757 270.112C532.269 254.508 532.269 253.484 529.712 241.462C527.153 229.439 549.921 214.857 572.175 216.904C594.431 218.95 591.446 230.291 588.122 252.034C587.61 257.918 590.935 266.957 590.935 266.957C591.705 279.834 591.361 307.972 591.361 307.972C591.361 307.972 576.269 316.668 563.733 308.227Z" fill="#FF7E7D"/>
<path d="M553.075 316.753C558.106 316.156 564.075 315.218 564.075 315.218C564.075 315.218 563.307 307.97 563.137 306.777C562.965 305.584 563.735 305.413 565.438 305.924C567.143 306.436 578.569 308.737 589.399 304.219C592.213 303.281 592.215 303.452 592.641 306.862C593.067 310.272 593.746 313.342 593.746 313.342C593.746 313.342 596.986 315.047 605.769 315.815C595.026 328.605 563.136 338.24 553.075 316.753Z" fill="#DCD8F0"/>
<path d="M591.362 261.586C594.942 257.833 603.3 255.445 606.198 263.29C609.096 271.135 597.159 282.048 588.973 273.692C590.86 268.029 591.362 261.586 591.362 261.586Z" fill="#FF7E7D"/>
<path d="M530.14 243.166C533.378 236.346 551.796 226.284 561.005 225.09C564.929 248.453 570.812 262.267 583.603 259.368C586.501 271.817 587.441 271.645 589.316 270.965C591.191 270.283 592.214 263.547 592.726 260.136C598.525 255.871 601.593 249.306 600.911 239.585C600.229 229.864 592.044 209.058 564.929 214.004C537.813 218.95 526.218 228.67 530.14 243.166Z" fill="#8D1B3D"/>
<path d="M549.665 274.107C549.656 274.107 549.647 274.107 549.638 274.106C546.254 273.921 544.359 273.249 543.49 271.922C542.802 270.871 542.8 269.468 543.483 267.633C543.769 266.866 544.054 266.19 544.319 265.562C545.535 262.68 546.268 260.941 544.506 256.128C542.201 249.834 536.573 249.428 534.257 249.548C533.941 249.566 533.746 249.349 533.733 249.074C533.718 248.798 533.93 248.563 534.207 248.549C536.744 248.419 542.912 248.867 545.446 255.784C547.343 260.966 546.507 262.949 545.242 265.95C544.982 266.566 544.702 267.23 544.422 267.982C543.857 269.498 543.826 270.608 544.327 271.374C544.995 272.394 546.7 272.944 549.693 273.107C549.968 273.122 550.18 273.358 550.165 273.633C550.149 273.901 549.929 274.107 549.665 274.107Z" fill="black"/>
<path d="M565.651 254.239C565.552 254.239 565.454 254.211 565.367 254.15C558.164 249.173 555.654 250.46 554.271 252.137C554.095 252.351 553.78 252.381 553.568 252.205C553.354 252.03 553.324 251.715 553.5 251.502C555.955 248.517 559.791 249.081 565.935 253.327C566.163 253.484 566.219 253.795 566.062 254.022C565.966 254.164 565.81 254.239 565.651 254.239Z" fill="black"/>
<path d="M550.757 279.694C549.398 279.694 548.04 279.232 546.504 278.491C546.256 278.371 546.151 278.072 546.272 277.823C546.392 277.574 546.691 277.47 546.94 277.591C550.204 279.168 552.718 279.785 557.737 274.252C557.924 274.049 558.24 274.033 558.443 274.218C558.647 274.403 558.663 274.72 558.477 274.924C555.333 278.391 553.043 279.694 550.757 279.694Z" fill="black"/>
<path d="M562.71 296.703C562.501 296.703 562.306 296.57 562.235 296.361C562.148 296.099 562.29 295.816 562.551 295.728C564.495 295.081 581.693 289.036 586.674 276.45C586.776 276.193 587.07 276.066 587.322 276.169C587.579 276.271 587.705 276.561 587.603 276.817C582.455 289.825 564.856 296.014 562.867 296.677C562.815 296.695 562.763 296.703 562.71 296.703Z" fill="black"/>
<path d="M561.815 261.605C560.169 261.804 561.303 266.593 563.669 266.146C566.036 265.698 563.925 261.35 561.815 261.605Z" fill="black"/>
<path d="M561.367 262.565C561.367 262.565 560.079 261.02 559.436 260.183C559.268 259.964 559.309 259.65 559.528 259.482C559.746 259.314 560.059 259.354 560.229 259.574C560.864 260.399 562.134 261.925 562.134 261.925L561.367 262.565Z" fill="black"/>
<path d="M538.727 258.344C537.081 258.544 538.217 263.332 540.583 262.885C542.95 262.436 540.839 258.088 538.727 258.344Z" fill="black"/>
<path d="M538.281 259.304C538.281 259.304 536.994 257.759 536.348 256.923C536.18 256.704 536.22 256.39 536.439 256.221C536.659 256.053 536.972 256.094 537.141 256.312C537.777 257.138 539.048 258.664 539.048 258.664L538.281 259.304Z" fill="black"/>
<path d="M455.954 351.714C455.356 349.496 454.333 346.001 454.333 346.001C452.03 347.279 449.813 346.769 448.706 345.83C444.528 347.024 441.458 346.427 438.56 342.504C434.124 345.148 427.132 341.566 426.451 338.412C425.769 335.257 432.25 337.304 436.086 338.923C434.809 332.443 436.258 330.908 437.365 331.164C438.474 331.42 440.605 331.506 443.42 337.814C442.653 330.481 445.551 331.163 447.342 333.124C449.133 335.085 451.264 340.116 451.264 340.116L453.483 339.518C452.288 335.852 451.862 332.357 453.483 331.674C455.102 330.991 457.319 331.248 460.217 338.58C465.59 337.471 471.303 334.913 473.436 337.642C475.567 340.37 477.784 347.022 477.784 347.022C477.784 347.022 474.542 359.899 455.954 351.714Z" fill="#FF7E7D"/>
<path d="M554.354 316.498C548.385 317.692 539.518 315.647 532.526 318.375C525.534 321.103 519.735 329.117 511.549 348.729C503.364 368.341 495.86 382.155 495.86 382.155C491.256 371.752 480.001 349.241 478.805 346.854C477.612 344.466 476.758 348.729 470.45 350.776C464.139 352.822 456.635 351.97 455.272 350.947C453.909 349.924 455.272 355.381 459.024 365.272C462.776 375.164 471.471 402.279 477.442 412.34C483.411 422.402 501.319 432.294 514.278 414.558C527.239 396.821 534.913 375.333 534.913 375.333L545.827 430.416H622.911L623.593 384.884C623.593 384.884 642.353 421.548 637.577 430.416C649.003 430.416 668.956 430.757 668.956 430.757C668.956 430.757 671.372 421.839 667.444 411.036C662.844 398.389 657.024 382.693 653.438 374.139C646.786 358.278 638.43 336.79 633.485 330.651C628.538 324.511 625.446 319.675 605.516 315.473C603.895 315.131 603.553 316.493 597.67 319.479C591.787 322.465 570.461 327.795 558.531 319.992C556.489 318.656 555.378 316.413 554.354 316.498Z" fill="#E74173"/>
<path d="M575.501 319.012C575.501 320.166 574.774 321.102 573.88 321.102C572.986 321.102 572.261 320.166 572.261 319.012C572.261 317.86 572.986 316.924 573.88 316.924C574.774 316.924 575.501 317.859 575.501 319.012Z" fill="#8D1B3D"/>
<path d="M567.382 319.034C566.155 319.034 564.928 317.861 563.635 315.454C563.504 315.211 563.596 314.908 563.839 314.777C564.08 314.648 564.385 314.737 564.516 314.981C565.967 317.681 566.972 318.03 567.422 318.033C568.207 317.998 568.846 316.886 569.242 315.959C570.506 313.013 572.44 308.291 572.46 308.244C572.565 307.988 572.861 307.867 573.112 307.971C573.368 308.075 573.49 308.367 573.385 308.623C573.366 308.671 571.427 313.399 570.161 316.353C569.419 318.085 568.512 318.986 567.465 319.032C567.438 319.033 567.41 319.034 567.382 319.034Z" fill="black"/>
<path d="M582.042 320.003C581.838 320.003 581.635 319.995 581.432 319.98C577.438 319.673 576.164 315.185 575.04 311.225C574.809 310.41 574.584 309.619 574.343 308.897C574.256 308.635 574.398 308.352 574.659 308.264C574.922 308.177 575.204 308.318 575.292 308.58C575.537 309.315 575.766 310.121 576.002 310.952C577.036 314.598 578.21 318.729 581.508 318.983C585.957 319.319 590.744 315.337 592.861 312.927C593.045 312.72 593.361 312.699 593.567 312.881C593.774 313.064 593.794 313.38 593.613 313.587C591.466 316.031 586.705 320.003 582.042 320.003Z" fill="black"/>
<path d="M535.468 378.05C535.238 378.05 535.03 377.89 534.98 377.657C534.334 374.689 533.674 371.837 533.068 369.217C531.844 363.932 530.878 359.757 530.622 357.265C530.594 356.99 530.793 356.745 531.067 356.716C531.338 356.684 531.588 356.887 531.616 357.161C531.867 359.592 532.875 363.947 534.042 368.991C534.649 371.614 535.311 374.47 535.957 377.443C536.015 377.713 535.845 377.979 535.575 378.038C535.538 378.046 535.503 378.05 535.468 378.05Z" fill="black"/>
<path d="M624.999 388.794C624.796 388.794 624.604 388.669 624.53 388.467C622.327 382.488 617.592 373.685 614.459 367.861C613.809 366.651 613.238 365.59 612.789 364.738C612.66 364.493 612.754 364.191 612.998 364.062C613.244 363.935 613.545 364.026 613.674 364.272C614.122 365.122 614.692 366.18 615.34 367.387C618.486 373.236 623.241 382.076 625.468 388.121C625.564 388.38 625.431 388.668 625.172 388.763C625.115 388.784 625.057 388.794 624.999 388.794Z" fill="black"/>
<path d="M440.774 345.647C440.653 345.647 440.532 345.603 440.436 345.515C438.262 343.521 435.937 339.199 435.431 337.258C435.361 336.991 435.521 336.718 435.789 336.649C436.057 336.574 436.329 336.739 436.398 337.006C436.864 338.789 439.097 342.93 441.112 344.778C441.315 344.964 441.329 345.281 441.142 345.484C441.044 345.593 440.909 345.647 440.774 345.647Z" fill="black"/>
<path d="M449.302 346.671C449.224 346.671 449.145 346.652 449.072 346.614C444.833 344.409 443.34 339.483 442.622 337.116L442.517 336.767C442.436 336.503 442.583 336.224 442.848 336.143C443.11 336.061 443.392 336.209 443.472 336.474L443.579 336.826C444.257 339.062 445.668 343.717 449.533 345.727C449.778 345.854 449.874 346.156 449.746 346.401C449.656 346.573 449.481 346.671 449.302 346.671Z" fill="black"/>
<path d="M460.266 345.865C459.263 345.865 458.335 345.661 457.487 345.254C455.46 344.28 453.994 342.258 453.005 339.071C452.923 338.807 453.07 338.527 453.334 338.445C453.602 338.362 453.879 338.511 453.96 338.774C454.862 341.68 456.157 343.505 457.92 344.352C459.456 345.089 461.343 345.03 463.532 344.169C463.787 344.068 464.079 344.195 464.18 344.452C464.281 344.709 464.154 344.999 463.897 345.1C462.6 345.61 461.387 345.865 460.266 345.865Z" fill="black"/>
<path d="M461.325 341.47C461.142 341.47 460.966 341.368 460.878 341.194C460.839 341.116 459.92 339.271 459.234 337.389C459.139 337.13 459.273 336.843 459.533 336.748C459.795 336.653 460.079 336.787 460.174 337.047C460.84 338.875 461.764 340.728 461.773 340.746C461.896 340.993 461.796 341.294 461.549 341.417C461.477 341.453 461.4 341.47 461.325 341.47Z" fill="black"/>
<path d="M453.309 346.842C453.076 346.842 452.868 346.678 452.82 346.44C452.765 346.169 452.941 345.906 453.213 345.852C454.159 345.663 455.835 344.388 456.402 343.913C456.613 343.734 456.928 343.763 457.106 343.974C457.284 344.185 457.256 344.5 457.045 344.678C456.816 344.869 454.775 346.559 453.409 346.832C453.375 346.839 453.342 346.842 453.309 346.842Z" fill="black"/>
<path d="M292.749 297.738C311.586 297.738 326.857 282.467 326.857 263.63C326.857 244.793 311.586 229.522 292.749 229.522C273.912 229.522 258.641 244.793 258.641 263.63C258.641 282.467 273.912 297.738 292.749 297.738Z" fill="#F381A3"/>
<path d="M321.743 245.668C315.727 235.977 304.994 229.522 292.75 229.522V263.63C292.75 263.63 312.089 253.176 321.743 245.668Z" fill="#EE92AE"/>
<path d="M292.749 263.63L326.444 268.935C326.715 267.206 326.857 265.435 326.857 263.63C326.857 256.502 324.668 249.887 320.928 244.414C311.13 251.148 292.749 263.63 292.749 263.63Z" fill="#8D1B3D"/>
<path d="M165.035 217.663C162.095 210.431 150.333 196.836 132.367 204.646C114.401 212.457 113.585 227.354 107.377 246.443C101.17 265.533 91.0421 285.492 87.9391 295.326C84.8361 305.16 86.4701 321.069 101.987 318.176C101.334 330.904 120.478 333.149 128.693 328.3C142.658 320.058 139.694 305.151 139.694 305.151C146.392 307.9 165.294 301.361 158.894 281.908C149.646 253.8 146.552 223.296 161.027 223.296C170.581 216.136 165.035 217.663 165.035 217.663Z" fill="#8D1B3D"/>
<path d="M169.75 218.576C167.251 215.855 163.503 213.764 160.378 218.43C157.662 222.487 156.474 227.471 161.786 228.539C165.27 229.24 171 223.436 169.75 218.576Z" fill="#EE92AE"/>
<path d="M173.691 302.531C174.373 299.462 176.612 283.584 176.612 283.584L185.14 270.963C175.802 261.158 189.744 245.554 197.247 258.344C200.657 257.491 199.976 230.887 205.262 226.965C210.549 223.043 226.41 224.236 226.41 224.236C230.674 229.352 232.038 236.685 231.014 244.871C229.991 253.057 228.455 255.445 232.378 259.367C236.301 263.289 239.711 266.189 233.571 270.623C229.819 273.181 229.649 274.203 228.967 278.978C228.284 283.753 227.773 289.211 219.757 291.257C211.742 293.304 205.261 292.791 203.386 292.45C202.192 292.28 200.317 301.319 199.464 306.093C198.612 310.869 173.691 302.531 173.691 302.531Z" fill="#FF7E7D"/>
<path d="M268.191 322.296C273.136 316.839 276.377 310.699 283.369 309.676C290.361 308.653 295.137 308.312 298.718 307.288C302.299 306.265 302.982 304.899 305.029 307.288C306.051 300.296 309.464 297.396 310.657 302.172C313.215 297.227 316.795 297.739 315.942 302.002C319.866 298.25 322.935 299.105 321.741 303.026C320.547 306.947 317.647 314.279 312.361 316.497C307.075 318.715 295.307 315.984 290.362 321.442C285.417 326.9 280.13 334.403 280.13 334.403L268.191 322.296Z" fill="#FF7E7D"/>
<path d="M293.856 315.505C293.604 315.505 293.387 315.315 293.36 315.059C293.331 314.784 293.529 314.538 293.804 314.508C297.64 314.097 303.354 312.254 304.309 310.77C305.35 309.152 305.306 307.916 304.18 307.096C303.956 306.934 303.907 306.621 304.07 306.398C304.231 306.174 304.544 306.125 304.768 306.288C305.687 306.957 306.96 308.498 305.15 311.311C303.796 313.418 297.113 315.16 293.911 315.503C293.892 315.504 293.874 315.505 293.856 315.505Z" fill="black"/>
<path d="M304.686 311.881C304.41 311.881 304.186 311.657 304.186 311.381C304.186 311.105 304.41 310.881 304.686 310.881C306.724 310.881 308.903 310.512 311.031 307.831C311.995 306.617 312.773 305.529 313.461 304.57C314.414 303.239 315.167 302.188 315.942 301.465C316.144 301.277 316.46 301.287 316.649 301.489C316.837 301.69 316.826 302.007 316.625 302.195C315.922 302.851 315.195 303.867 314.274 305.152C313.58 306.121 312.794 307.219 311.815 308.452C309.415 311.474 306.865 311.881 304.686 311.881Z" fill="black"/>
<path d="M307.158 311.199C307.06 311.199 306.962 311.171 306.875 311.111C306.647 310.955 306.59 310.643 306.746 310.416C307.061 309.958 307.498 308.736 307.962 307.443C308.815 305.062 309.876 302.1 311.224 300.639C311.411 300.435 311.728 300.423 311.931 300.611C312.134 300.798 312.147 301.114 311.96 301.317C310.749 302.63 309.726 305.485 308.904 307.78C308.376 309.254 307.959 310.417 307.571 310.982C307.474 311.123 307.317 311.199 307.158 311.199Z" fill="black"/>
<path d="M255.486 323.83C258.172 320.761 260.986 316.156 264.439 319.098C267.892 322.04 277.869 328.692 280.171 330.482C282.473 332.273 285.287 333.295 282.473 337.261C279.66 341.226 253.183 375.76 241.544 387.143C229.904 398.527 219.672 400.702 203.301 382.155C200.103 389.062 189.487 393.155 187.696 400.446C185.905 407.736 186.333 430.418 186.333 430.418L123.574 430.076C123.574 430.076 135.568 382.723 140.94 368.782C146.312 354.841 148.69 341.782 160.44 322.032C165.376 313.736 169.632 310.898 172.19 300.282C172.574 297.98 172.743 295.886 175.94 296.782C179.137 297.677 198.056 302.983 199.975 304.007C201.893 305.029 199.335 309.634 196.649 319.738C204.963 326.389 214.939 340.331 219.927 346.854C224.915 353.377 229.648 357.469 233.996 352.61C238.347 347.748 255.486 323.83 255.486 323.83Z" fill="#E74173"/>
<path d="M203.941 383.166C203.811 383.166 203.681 383.116 203.584 383.016C198.102 377.408 179.532 357.048 176.814 353.555C176.645 353.337 176.684 353.024 176.901 352.854C177.12 352.683 177.433 352.724 177.603 352.942C180.309 356.42 198.828 376.72 204.298 382.317C204.491 382.514 204.487 382.831 204.29 383.024C204.193 383.118 204.067 383.166 203.941 383.166Z" fill="black"/>
<path d="M197.801 321.261C197.684 321.261 197.567 321.221 197.472 321.138C193.493 317.673 187.936 316.273 186.289 316.273C186.013 316.273 185.789 316.049 185.789 315.773C185.789 315.497 186.013 315.273 186.289 315.273C188.306 315.273 194.033 316.816 198.129 320.384C198.337 320.566 198.359 320.881 198.177 321.089C198.08 321.202 197.94 321.261 197.801 321.261Z" fill="black"/>
<path d="M176.825 283.925C179.214 283.755 181.558 281.025 185.14 270.963C181.728 265.678 182.751 259.196 187.356 255.615C191.96 252.033 195.201 255.787 197.588 260.05C199.976 264.313 201.511 264.825 203.558 263.631C205.604 262.437 211.512 253.778 204.691 235.531C203.582 232.29 205.944 229.181 211.402 229.693C216.86 230.205 222.829 230.206 227.433 225.771C228.796 223.724 225.816 218.156 215.191 213.406C207.045 209.764 180.997 205.718 166.211 221.167C156.001 231.834 154.352 241.717 154.668 248.501C155.167 259.251 163.524 276.223 176.825 283.925Z" fill="#8D1B3D"/>
<path d="M190.508 273.816C187.464 273.816 184.975 272.267 183.497 269.311C183.373 269.064 183.474 268.764 183.721 268.64C183.968 268.516 184.268 268.617 184.392 268.864C186.271 272.622 190.051 273.775 194.499 271.95C194.753 271.847 195.046 271.968 195.151 272.223C195.255 272.479 195.133 272.771 194.877 272.875C193.338 273.507 191.868 273.816 190.508 273.816Z" fill="black"/>
<path d="M228.969 279.478C228.948 279.478 228.925 279.477 228.903 279.474C226.234 279.122 223.844 275.828 222.659 272.718C222.561 272.46 222.69 272.171 222.948 272.073C223.206 271.972 223.495 272.102 223.594 272.362C224.638 275.102 226.786 278.186 229.033 278.481C229.307 278.517 229.5 278.768 229.464 279.043C229.431 279.295 229.216 279.478 228.969 279.478Z" fill="black"/>
<path d="M204.453 293.25C204.434 293.25 204.415 293.249 204.395 293.247C200.832 292.836 195.918 290.171 194.167 288.795C193.95 288.624 193.912 288.31 194.083 288.093C194.254 287.875 194.567 287.839 194.785 288.008C196.409 289.285 201.181 291.869 204.51 292.253C204.784 292.285 204.981 292.533 204.949 292.808C204.92 293.063 204.704 293.25 204.453 293.25Z" fill="black"/>
<path d="M217.882 246.054C217.741 246.054 217.601 245.995 217.503 245.88C217.323 245.67 217.347 245.355 217.557 245.175C218.533 244.338 222.116 241.645 227.138 242.114C227.413 242.14 227.615 242.384 227.59 242.658C227.564 242.933 227.316 243.132 227.045 243.11C222.407 242.675 219.109 245.162 218.208 245.934C218.114 246.014 217.998 246.054 217.882 246.054Z" fill="black"/>
<path d="M222.104 255.519C221.961 255.519 221.818 255.457 221.719 255.339C221.542 255.127 221.571 254.812 221.783 254.635C222.376 254.141 223.588 252.589 224.005 252.032C224.17 251.811 224.484 251.766 224.705 251.931C224.926 252.097 224.971 252.411 224.805 252.631C224.741 252.717 223.227 254.733 222.424 255.401C222.33 255.48 222.216 255.519 222.104 255.519Z" fill="black"/>
<path d="M222.488 254.337C221.118 254.212 218.992 259.624 221.038 259.965C223.084 260.306 224.365 254.508 222.488 254.337Z" fill="black"/>
<path d="M483.958 315.23C483.958 322.011 478.46 327.508 471.679 327.508H422.224C415.443 327.508 409.945 322.011 409.945 315.23V265.091C409.945 258.311 415.443 252.813 422.224 252.813H471.679C478.46 252.813 483.958 258.311 483.958 265.091V315.23Z" fill="#F1EFEF"/>
<path d="M435.048 310.268C435.048 313.574 432.368 316.254 429.062 316.254C425.757 316.254 423.076 313.573 423.076 310.268V284.678C423.076 281.372 425.758 278.692 429.062 278.692C432.369 278.692 435.048 281.373 435.048 284.678V310.268Z" fill="#F381A3"/>
<path d="M451.78 310.268C451.78 313.574 449.098 316.254 445.792 316.254C442.487 316.254 439.806 313.573 439.806 310.268V275.084C439.806 271.777 442.488 269.098 445.792 269.098C449.099 269.098 451.78 271.778 451.78 275.084V310.268Z" fill="#AE3157"/>
<path d="M468.511 310.268C468.511 313.574 465.829 316.254 462.525 316.254C459.218 316.254 456.539 313.573 456.539 310.268V266.389C456.539 263.084 459.219 260.403 462.525 260.403C465.83 260.403 468.511 263.085 468.511 266.389V310.268Z" fill="#8D1B3D"/>
<path d="M687.181 431.761H94.9412C94.3892 431.761 93.9412 431.314 93.9412 430.761C93.9412 430.208 94.3892 429.761 94.9412 429.761H687.181C687.734 429.761 688.181 430.208 688.181 430.761C688.181 431.314 687.733 431.761 687.181 431.761Z" fill="#8D1B3D"/>
</svg>
