<svg width="437" height="443" viewBox="0 0 437 443" fill="none" xmlns="http://www.w3.org/2000/svg">
<path opacity="0.7" d="M38.1842 137.971C38.1842 137.971 10.3072 209.959 49.4812 282.474C88.6552 354.99 169.36 393.276 233.95 426.022C298.54 458.768 365.611 442.821 397.484 389.184C429.357 335.547 385.639 297.256 385.587 220.766C385.536 144.276 397.034 124.024 355.624 59.4022C314.214 -5.22081 212.565 -19.5228 135.724 28.4062C58.8842 76.3352 38.1842 137.971 38.1842 137.971Z" fill="white"/>
<path d="M11.335 264.417C6.95001 243.838 8.15801 222.074 17.123 199.912C28.674 171.356 53.489 151.066 81.294 139.226C121.701 122.02 161.367 121.693 194.211 87.9783C204.341 77.5793 212.844 65.6683 223.191 55.4843C253.711 25.4433 298.383 29.0903 331.739 52.9093C401.325 102.599 426.353 201.011 422.483 282.373C420.746 318.886 403.315 352.868 375.724 376.823C313.323 431.004 207.367 421.89 135.698 393.609C82.253 372.518 23.885 323.318 11.335 264.417Z" fill="#8D1B3D"/>
<path opacity="0.7" d="M11.335 264.417C6.95001 243.838 8.15801 222.074 17.123 199.912C28.674 171.356 53.489 151.066 81.294 139.226C121.701 122.02 161.367 121.693 194.211 87.9783C204.341 77.5793 212.844 65.6683 223.191 55.4843C253.711 25.4433 298.383 29.0903 331.739 52.9093C401.325 102.599 426.353 201.011 422.483 282.373C420.746 318.886 403.315 352.868 375.724 376.823C313.323 431.004 207.367 421.89 135.698 393.609C82.253 372.518 23.885 323.318 11.335 264.417Z" fill="white"/>
<path d="M77.0768 162.998C84.1034 155.972 84.1034 144.579 77.0768 137.553C70.0501 130.526 58.6577 130.526 51.6311 137.553C44.6044 144.579 44.6044 155.972 51.6311 162.998C58.6577 170.025 70.0501 170.025 77.0768 162.998Z" stroke="#263238" stroke-miterlimit="10" stroke-linecap="round" stroke-linejoin="round"/>
<path d="M373.606 99.046C381.369 97.92 390.934 101.519 391.868 110.288C392.71 118.198 387.29 126.328 382.49 132.095C377.957 137.542 371.709 143.698 364.811 146.055C356.94 148.744 354.414 140.595 359.248 135.338C368.9 124.841 391.72 119.639 403.729 128.528C417.255 138.541 408.119 159.722 395.487 166.078C391.374 168.147 387.756 165.529 390.714 161.185C392.954 157.895 397.223 156.381 400.966 155.7C408.429 154.344 420.05 156.005 422.868 164.376" stroke="#263238" stroke-miterlimit="10" stroke-linecap="round" stroke-linejoin="round"/>
<path d="M357.277 105.937C360.995 103.483 364.99 101.36 369.257 100.04" stroke="#263238" stroke-miterlimit="10" stroke-linecap="round" stroke-linejoin="round"/>
<path d="M349.66 111.815C350.919 110.659 352.248 109.578 353.608 108.543" stroke="#263238" stroke-miterlimit="10" stroke-linecap="round" stroke-linejoin="round"/>
<path d="M225.24 33.5651L228.449 30.2251L189.308 33.9961L211.65 43.5631" stroke="#263238" stroke-miterlimit="10" stroke-linecap="round" stroke-linejoin="round"/>
<path d="M213.447 44.332L228.449 50.757L219.897 39.127L223.983 34.873" stroke="#263238" stroke-miterlimit="10" stroke-linecap="round" stroke-linejoin="round"/>
<path d="M298.259 35.33C298.259 30.969 298.259 26.609 298.259 22.248" stroke="#263238" stroke-miterlimit="10" stroke-linecap="round" stroke-linejoin="round"/>
<path d="M298.259 44.9491C298.259 43.0551 298.259 41.1621 298.259 39.2681" stroke="#263238" stroke-miterlimit="10" stroke-linecap="round" stroke-linejoin="round"/>
<path d="M312.186 46.754L321.597 27" stroke="#263238" stroke-miterlimit="10" stroke-linecap="round" stroke-linejoin="round"/>
<path d="M338.681 47.2601C340.126 46.1471 341.571 45.0341 343.016 43.9211" stroke="#263238" stroke-miterlimit="10" stroke-linecap="round" stroke-linejoin="round"/>
<path d="M323.813 58.711C327.565 55.821 331.317 52.932 335.069 50.042" stroke="#263238" stroke-miterlimit="10" stroke-linecap="round" stroke-linejoin="round"/>
<path d="M21.034 244.152L1 238.925L4.165 266.253L35.813 248.008L22.798 244.612" stroke="#263238" stroke-miterlimit="10" stroke-linecap="round" stroke-linejoin="round"/>
<path d="M413.484 234.126L435.638 241.782" stroke="#263238" stroke-miterlimit="10" stroke-linecap="round" stroke-linejoin="round"/>
<path d="M401.474 343.99C403.241 345.89 405.755 347.085 408.554 347.085C413.899 347.085 418.232 342.752 418.232 337.407C418.232 334.416 416.874 331.744 414.742 329.968" stroke="#263238" stroke-miterlimit="10" stroke-linecap="round" stroke-linejoin="round"/>
<path d="M413.062 328.847C411.715 328.136 410.182 327.729 408.554 327.729C403.209 327.729 398.876 332.062 398.876 337.406C398.876 339.297 399.427 341.056 400.365 342.547" stroke="#263238" stroke-miterlimit="10" stroke-linecap="round" stroke-linejoin="round"/>
<path d="M36.1679 307.266C33.3009 314.67 30.4339 322.074 27.5679 329.478" stroke="#263238" stroke-miterlimit="10" stroke-linecap="round" stroke-linejoin="round"/>
<path d="M38.9781 300.008C38.5611 301.086 38.1431 302.163 37.7261 303.241" stroke="#263238" stroke-miterlimit="10" stroke-linecap="round" stroke-linejoin="round"/>
<path d="M105.907 173.105L129.66 186.85" stroke="#263238" stroke-miterlimit="10" stroke-linecap="round" stroke-linejoin="round"/>
<path d="M79.5879 90.865C73.1639 95.024 66.7399 99.183 60.3159 103.342" stroke="#263238" stroke-miterlimit="10" stroke-linecap="round" stroke-linejoin="round"/>
<path d="M86.4509 86.4221C85.4689 87.0581 84.4869 87.6941 83.5049 88.3301" stroke="#263238" stroke-miterlimit="10" stroke-linecap="round" stroke-linejoin="round"/>
<path d="M418.231 98.8101V107.206L424.561 105.557L418.231 98.8101Z" stroke="#263238" stroke-miterlimit="10" stroke-linecap="round" stroke-linejoin="round"/>
<path d="M149.319 110.804C148.207 107.62 160.221 93.5154 160.221 93.5154L166.725 100.423C166.725 100.423 151.495 117.031 149.319 110.804Z" fill="#8D1B3D" stroke="#263238" stroke-miterlimit="10" stroke-linecap="round" stroke-linejoin="round"/>
<path d="M132.893 90.3514C136.387 93.4544 138.749 91.0694 138.749 91.0694C138.749 91.0694 138.166 93.2804 140.54 93.9974C142.163 94.4874 148.477 91.4554 152.727 91.4554C152.727 91.4554 154.908 101.581 154.561 112.506C154.561 112.506 169.167 113.995 171.145 103.553C171.145 103.553 168.376 96.9604 166.464 90.8944C163.883 82.7074 163.534 80.4574 162.178 78.7294C160.043 76.0064 142.31 71.3114 137.563 71.1144C132.816 70.9164 130.244 89.0174 124.31 97.4004C124.31 97.4004 126.189 98.4884 128.563 96.9064C130.196 95.8144 132.893 90.3514 132.893 90.3514Z" fill="#BFBFBF" stroke="#263238" stroke-miterlimit="10" stroke-linecap="round" stroke-linejoin="round"/>
<path d="M132.893 90.3515C135.782 83.0815 139.442 80.0915 139.442 80.0915C139.442 80.0915 140.431 77.5205 139.442 76.7285" stroke="#263238" stroke-miterlimit="10" stroke-linecap="round" stroke-linejoin="round"/>
<path d="M138.749 91.0694C138.947 88.8934 146.562 86.6184 147.452 85.3334C148.342 84.0474 147.452 78.6084 147.452 78.6084" stroke="#263238" stroke-miterlimit="10" stroke-linecap="round" stroke-linejoin="round"/>
<path d="M152.728 91.4543C155.53 91.4543 158.431 88.8653 159.091 86.8933" stroke="#263238" stroke-miterlimit="10" stroke-linecap="round" stroke-linejoin="round"/>
<path d="M139.442 80.0903C139.442 80.0903 141.915 81.8703 143.991 81.8703C143.991 81.8703 146.489 83.0533 146.476 86.0713" stroke="#263238" stroke-miterlimit="10" stroke-linecap="round" stroke-linejoin="round"/>
<path d="M140.435 83.9524C140.435 83.9524 138.46 86.0174 138.749 88.8934" stroke="#263238" stroke-miterlimit="10" stroke-linecap="round" stroke-linejoin="round"/>
<path d="M136.387 85.4575C136.387 85.4575 138.179 84.2705 138.959 85.4575" stroke="#263238" stroke-miterlimit="10" stroke-linecap="round" stroke-linejoin="round"/>
<path d="M267.273 156.467C267.273 156.467 254.945 147.5 244.396 149.082C244.396 149.082 188.22 155.412 186.902 155.412C186.902 155.412 171.869 98.3434 168.968 93.5154C168.968 93.5154 168.441 89.4784 166.858 88.9514C166.858 88.9514 160.222 107.149 149.32 110.804C149.32 110.804 150.355 114.269 152.729 114.269C152.729 114.269 152.353 176.247 161.057 183.632C169.76 191.017 243.26 197.083 243.26 197.083L267.273 156.467Z" fill="#8D1B3D"/>
<mask id="mask0_391_6432" style="mask-type:luminance" maskUnits="userSpaceOnUse" x="149" y="88" width="119" height="110">
<path d="M267.273 156.467C267.273 156.467 254.945 147.5 244.396 149.082C244.396 149.082 188.22 155.412 186.902 155.412C186.902 155.412 171.869 98.3434 168.968 93.5154C168.968 93.5154 168.441 89.4784 166.858 88.9514C166.858 88.9514 160.222 107.149 149.32 110.804C149.32 110.804 150.355 114.269 152.729 114.269C152.729 114.269 152.353 176.247 161.057 183.632C169.76 191.017 243.26 197.083 243.26 197.083L267.273 156.467Z" fill="white"/>
</mask>
<g mask="url(#mask0_391_6432)">
<path opacity="0.2" d="M227.023 191.216L223.353 195.176C200.923 192.826 166.813 188.516 161.053 183.636C152.353 176.246 152.723 114.266 152.723 114.266C151.183 114.266 150.213 112.816 149.723 111.786C157.823 111.456 167.715 103.343 167.715 103.343C169.255 112.013 157.983 121.966 157.983 121.966C157.983 121.966 157.393 157.546 162.143 175.466C166.893 193.386 227.023 191.216 227.023 191.216Z" fill="black"/>
</g>
<path d="M267.273 156.467C267.273 156.467 254.945 147.5 244.396 149.082C244.396 149.082 188.22 155.412 186.902 155.412C186.902 155.412 171.869 98.3434 168.968 93.5154C168.968 93.5154 168.441 89.4784 166.858 88.9514C166.858 88.9514 160.222 107.149 149.32 110.804C149.32 110.804 150.355 114.269 152.729 114.269C152.729 114.269 152.353 176.247 161.057 183.632C169.76 191.017 243.26 197.083 243.26 197.083L267.273 156.467Z" stroke="#263238" stroke-miterlimit="10" stroke-linecap="round" stroke-linejoin="round"/>
<path d="M248.736 159.632C248.736 159.632 251.005 151.988 261.097 153.746C271.189 155.504 296.286 156.204 308.945 152.248C308.945 152.248 276.536 194.182 257.433 186.666C238.33 179.149 248.736 159.632 248.736 159.632Z" fill="#BFBFBF" stroke="#263238" stroke-miterlimit="10" stroke-linecap="round" stroke-linejoin="round"/>
<path d="M302.862 67.7923C302.862 67.7923 299.933 57.7993 292.653 59.9463C285.373 62.0943 286.366 61.7963 282.341 59.6443C278.316 57.4923 275.846 59.3333 274.473 62.4013C273.1 65.4693 270.32 64.7153 266.034 63.2513C261.748 61.7873 257.991 63.6713 258.182 67.7923C258.373 71.9123 252.85 67.6243 249.782 72.2233C246.714 76.8223 248.555 76.5153 247.941 80.1973C247.327 83.8793 240.884 86.0273 242.111 89.4023C243.338 92.7773 248.248 98.6073 243.645 101.061C239.043 103.516 237.505 111.197 241.956 113.493C246.407 115.789 238.25 122.693 241.19 128.982C243.868 134.709 251.315 136.039 247.94 141.869C246.465 144.418 246.925 146.438 247.911 147.906C248.709 149.094 250.566 148.593 250.652 147.165C250.697 146.414 250.884 145.638 251.321 144.938C252.85 142.483 254.96 144.938 257.433 140.336C257.433 140.336 255.844 145.552 261.097 147.393C263.837 148.353 264.318 149.982 264.151 151.32C264.02 152.37 265.273 153.032 266.039 152.302C266.88 151.5 267.526 150.179 267.27 148.007C267.27 148.007 275.866 155.064 282 153.53C288.134 151.996 296.112 149.848 296.418 145.246C296.418 145.246 298.007 147.288 298.227 149.758C298.344 151.071 299.948 151.59 300.779 150.567C301.84 149.26 302.742 147.575 302.861 145.553C302.861 145.553 303.613 147.959 305.853 149.191C307.192 149.928 308.717 148.622 308.372 147.132C308.089 145.909 308.208 144.553 309.612 143.711C312.68 141.87 314.828 138.495 312.987 134.199C312.987 134.199 317.599 137.267 316.06 141.87C315.398 143.849 315.758 145.26 316.53 146.202C317.234 147.061 318.601 146.254 318.163 145.233C317.763 144.301 317.694 143.152 318.509 141.87C320.657 138.495 326.19 134.4 321.895 129.644C317.599 124.888 320.657 121.926 320.657 121.926C320.657 121.926 320.043 124.994 325.259 126.989C330.475 128.983 327.226 131.854 327.784 133.951C328.014 134.817 328.425 135.476 328.922 135.978C329.834 136.899 331.339 135.804 330.715 134.668C330.157 133.652 329.886 132.5 330.475 131.438C333.107 126.7 326.18 124.524 325.477 120.385C324.794 116.363 325.779 111.58 326.195 107.529C326.557 104.013 326.844 101.341 324.625 98.3173C323.176 96.3433 321.354 94.5343 320.663 92.1843C320.138 90.3963 320.331 88.4873 320.503 86.6323C320.674 84.7773 320.811 82.8523 320.184 81.0983C318.907 77.5273 314.673 78.1243 312.796 75.1223C311.044 72.3193 312.549 68.5633 309.17 66.6613C307.089 65.4873 304.524 66.1823 302.862 67.7923Z" fill="#263238"/>
<path d="M268.463 160.485C273.283 157.425 271.003 147.375 269.043 141.255C268.123 138.365 267.273 136.345 267.273 136.345L267.353 136.305L292.653 123.255C289.453 136.715 292.653 155.105 292.653 155.105" fill="#BFBFBF"/>
<path d="M268.463 160.485C273.283 157.425 271.003 147.375 269.043 141.255C268.123 138.365 267.273 136.345 267.273 136.345L267.353 136.305L292.653 123.255C289.453 136.715 292.653 155.105 292.653 155.105" stroke="#263238" stroke-miterlimit="10" stroke-linecap="round" stroke-linejoin="round"/>
<path d="M277.943 136.305C277.943 136.305 274.803 141.075 269.043 141.255C268.123 138.365 267.273 136.345 267.273 136.345L267.353 136.305H277.943Z" fill="#263238"/>
<path d="M289.55 130.948C297.372 126.029 303.938 118.558 305.595 107.818C308.624 88.1813 308.427 70.2363 274.683 72.4023C259.902 73.3513 254.176 87.9133 254.293 92.4923C254.564 103.103 246.099 121.772 256.582 137.276C258.139 139.578 268.334 139.662 279.063 135.932" fill="#BFBFBF"/>
<path d="M289.55 130.948C297.372 126.029 303.938 118.558 305.595 107.818C308.624 88.1813 308.427 70.2363 274.683 72.4023C259.902 73.3513 254.176 87.9133 254.293 92.4923C254.564 103.103 246.099 121.772 256.582 137.276C258.139 139.578 268.334 139.662 279.063 135.932" stroke="#263238" stroke-miterlimit="10" stroke-linecap="round" stroke-linejoin="round"/>
<path d="M271.588 95.4612C271.588 95.4612 276.901 93.5092 279.962 101.338" stroke="#263238" stroke-miterlimit="10" stroke-linecap="round" stroke-linejoin="round"/>
<path d="M260.573 94.5734C260.573 94.5734 257.719 92.1454 254.294 92.4924" stroke="#263238" stroke-miterlimit="10" stroke-linecap="round" stroke-linejoin="round"/>
<path d="M261.277 105.968C258.513 110.492 255.155 108.245 255.307 110.492C255.433 112.362 259.748 115.641 259.748 115.641" stroke="#263238" stroke-miterlimit="10" stroke-linecap="round" stroke-linejoin="round"/>
<path d="M275.697 106.034C275.401 107.266 274.476 108.101 273.631 107.898C272.786 107.695 272.341 106.532 272.636 105.299C272.932 104.067 273.857 103.232 274.702 103.435C275.547 103.638 275.993 104.802 275.697 106.034Z" fill="#263238"/>
<path d="M259.429 103.005C259.23 104.257 258.372 105.16 257.514 105.024C256.656 104.887 256.122 103.762 256.321 102.51C256.52 101.258 257.378 100.355 258.236 100.491C259.095 100.627 259.629 101.753 259.429 103.005Z" fill="#263238"/>
<path d="M268.773 120.065C268.773 120.065 268.363 121.035 267.643 122.215C266.353 124.315 264.063 127.085 261.273 126.225C260.423 125.965 260.033 124.755 259.873 123.455C259.643 121.715 259.813 119.805 259.813 119.805C259.813 119.805 260.787 120.095 264.263 120.306C267.273 120.489 268.773 120.065 268.773 120.065Z" fill="white"/>
<mask id="mask1_391_6432" style="mask-type:luminance" maskUnits="userSpaceOnUse" x="259" y="119" width="10" height="8">
<path d="M268.773 120.065C268.773 120.065 268.363 121.035 267.643 122.215C266.353 124.315 264.063 127.085 261.273 126.225C260.423 125.965 260.033 124.755 259.873 123.455C259.643 121.715 259.813 119.805 259.813 119.805C259.813 119.805 260.787 120.095 264.263 120.306C267.273 120.489 268.773 120.065 268.773 120.065Z" fill="white"/>
</mask>
<g mask="url(#mask1_391_6432)">
<path opacity="0.4" d="M268.773 120.065C268.773 120.065 268.363 121.035 267.643 122.215C264.953 121.735 261.913 122.635 259.873 123.455C259.643 121.715 259.813 119.805 259.813 119.805L268.773 120.065Z" fill="black"/>
</g>
<path d="M268.773 120.065C268.773 120.065 268.363 121.035 267.643 122.215C266.353 124.315 264.063 127.085 261.273 126.225C260.423 125.965 260.033 124.755 259.873 123.455C259.643 121.715 259.813 119.805 259.813 119.805C259.813 119.805 260.787 120.095 264.263 120.306C267.273 120.489 268.773 120.065 268.773 120.065Z" stroke="#263238" stroke-miterlimit="10" stroke-linecap="round" stroke-linejoin="round"/>
<path d="M274.473 80.5042C274.473 80.5042 275.306 78.6632 276.964 82.3452C278.622 86.0272 271.624 89.6852 276.964 92.4582C282.304 95.2312 282.527 101.782 279.961 104.337C277.395 106.891 284.145 108.118 285.065 110.573C285.985 113.028 283.224 115.029 283.838 118.017C284.452 121.005 288.3 123.944 288.217 125.543C288.134 127.142 284.769 129.685 287.065 132.402C289.361 135.119 295.805 133.459 296.418 138.892C296.418 138.892 315.748 117.402 316.055 97.4202C316.362 77.4372 301.941 69.1532 287.214 67.9262C272.487 66.6992 249.782 73.7992 247.941 99.3972C247.941 99.3972 248.633 97.7752 251.321 97.4212C254.009 97.0662 255.304 93.3932 254.998 89.4042C254.692 85.4152 257.379 87.8702 261.098 86.9492C264.817 86.0282 263.571 80.8122 266.035 79.8922C268.498 78.9702 270.323 83.8792 274.473 80.5042Z" fill="#263238"/>
<path d="M261.097 71.9014C260.944 74.3564 253.426 72.2084 249.591 74.3564C245.756 76.5044 246.676 80.1864 246.983 82.3334C247.29 84.4814 243.815 87.2424 240.95 88.9304C238.085 90.6184 238.085 94.0564 241.767 97.3234C245.449 100.59 242.311 101.51 238.894 104.425C235.477 107.34 235.592 110.902 238.894 113.016" stroke="#263238" stroke-miterlimit="10" stroke-linecap="round" stroke-linejoin="round"/>
<path d="M271.588 78.8164C271.588 78.8164 277.856 80.0434 276.015 83.5724C274.174 87.1014 271.588 91.4894 276.965 95.4424C282.342 99.3954 274.635 103.822 278.01 107.351C281.385 110.879 284.833 110.726 282.342 116.556C279.851 122.386 284.3 123.86 284.3 123.86" stroke="#263238" stroke-miterlimit="10" stroke-linecap="round" stroke-linejoin="round"/>
<path d="M258.513 119.41C258.513 119.41 264.662 121.007 269.418 119.937" stroke="#263238" stroke-miterlimit="10" stroke-linecap="round" stroke-linejoin="round"/>
<path d="M301.491 129.017C300.776 129.95 301.188 131.053 302.026 131.772" stroke="white" stroke-miterlimit="10" stroke-linecap="round" stroke-linejoin="round"/>
<path d="M302.055 119.959C304.757 121.397 305.544 123.673 303.804 126.339" stroke="white" stroke-miterlimit="10" stroke-linecap="round" stroke-linejoin="round"/>
<path d="M285.105 82.1062C285.253 86.8852 287.253 91.8852 292.253 94.8852C294.253 96.8852 293.253 98.8852 292.253 101.885C292.253 105.885 298.253 105.885 299.253 108.885C299.253 111.885 294.253 114.885 299.143 118.445" stroke="white" stroke-miterlimit="10" stroke-linecap="round" stroke-linejoin="round"/>
<path d="M282.64 73.7634C283.945 75.2054 284.608 77.0504 284.87 78.9544" stroke="white" stroke-miterlimit="10" stroke-linecap="round" stroke-linejoin="round"/>
<path d="M314.926 121.961C314.751 122.996 314.808 124.07 315.227 125.039" stroke="white" stroke-miterlimit="10" stroke-linecap="round" stroke-linejoin="round"/>
<path d="M308.785 110.437C307.709 113.338 310.371 113.074 312.258 113.293C315.375 113.655 316.314 115.533 315.617 118.676" stroke="white" stroke-miterlimit="10" stroke-linecap="round" stroke-linejoin="round"/>
<path d="M296.78 83.3032C297.319 89.0932 306.486 88.3442 304.88 95.0292C304.133 98.1392 304.262 100.012 306.699 102.649C307.967 104.021 310.618 104.949 309.642 107.206" stroke="white" stroke-miterlimit="10" stroke-linecap="round" stroke-linejoin="round"/>
<path d="M320.234 109.041C319.962 110.086 319.832 111.17 320.024 112.239" stroke="white" stroke-miterlimit="10" stroke-linecap="round" stroke-linejoin="round"/>
<path d="M304.565 75.7864C306.592 75.9284 305.971 78.4824 306.571 79.8284C307.382 81.6464 308.966 82.1034 310.551 83.0774C313.76 85.0504 313.444 86.8954 313.075 90.2904C312.647 94.2314 313.917 95.8694 317.209 97.7934C320.58 99.7644 322.431 101.437 321.229 105.586" stroke="white" stroke-miterlimit="10" stroke-linecap="round" stroke-linejoin="round"/>
<path d="M256.22 80.5044C253.294 81.9124 248.29 82.2364 249.13 86.4764C249.965 90.6924 253.618 92.7064 249.337 96.4144C245.712 99.5534 246.109 101.204 248.478 104.906C250.462 108.007 251.022 110.807 248.553 113.924" stroke="white" stroke-miterlimit="10" stroke-linecap="round" stroke-linejoin="round"/>
<path d="M267.273 74.2292C262.253 69.8852 261.253 75.8852 259.146 78.6332" stroke="white" stroke-miterlimit="10" stroke-linecap="round" stroke-linejoin="round"/>
<path d="M253.363 152.907C253.363 152.907 244.227 162.987 254.546 170.776C264.865 178.565 302.363 152.299 302.363 152.299C302.363 152.299 315.88 148.857 322.98 153.386C330.079 157.915 323.438 212.532 308.946 236.16C304.658 243.15 299.517 253.639 299.517 253.639C299.517 253.639 300.967 262.777 292.653 265.547C276.868 270.807 236.374 270.555 224.567 263.979C210.707 256.259 224.616 258.65 225.435 216.603C225.435 216.603 219.367 201.089 221.676 189.978C222.535 185.844 225.045 179.847 228.578 173.802" fill="#8D1B3D"/>
<mask id="mask2_391_6432" style="mask-type:luminance" maskUnits="userSpaceOnUse" x="218" y="151" width="108" height="119">
<path d="M253.363 152.907C253.363 152.907 244.227 162.987 254.546 170.776C264.865 178.565 302.363 152.299 302.363 152.299C302.363 152.299 315.88 148.857 322.98 153.386C330.079 157.915 323.438 212.532 308.946 236.16C304.658 243.15 299.517 253.639 299.517 253.639C299.517 253.639 300.967 262.777 292.653 265.547C276.868 270.807 236.374 270.555 224.567 263.979C210.707 256.259 224.616 258.65 225.435 216.603C225.435 216.603 219.367 201.089 221.676 189.978C222.535 185.844 225.045 179.847 228.578 173.802" fill="white"/>
</mask>
<g mask="url(#mask2_391_6432)">
<path opacity="0.2" d="M308.943 236.155C304.653 243.145 299.513 253.635 299.513 253.635C299.513 253.635 300.963 262.775 292.653 265.545C276.863 270.805 236.373 270.555 224.563 263.975C210.703 256.255 224.613 258.645 225.433 216.605C225.433 216.605 223.273 211.085 222.033 204.275C231.173 209.545 241.803 209.035 241.803 209.035C250.913 190.155 263.963 193.675 263.963 193.675C263.963 193.675 267.503 190.515 271.583 187.565C275.673 184.625 288.473 186.855 288.473 186.855L303.393 183.875C303.113 178.335 308.533 178.845 308.533 178.845L310.603 180.785C309.393 176.205 310.603 173.415 310.603 173.415L323.703 189.885C321.003 206.485 315.873 224.865 308.943 236.155Z" fill="black"/>
</g>
<path d="M253.363 152.907C253.363 152.907 244.227 162.987 254.546 170.776C264.865 178.565 302.363 152.299 302.363 152.299C302.363 152.299 315.88 148.857 322.98 153.386C330.079 157.915 323.438 212.532 308.946 236.16C304.658 243.15 299.517 253.639 299.517 253.639C299.517 253.639 300.967 262.777 292.653 265.547C276.868 270.807 236.374 270.555 224.567 263.979C210.707 256.259 224.616 258.65 225.435 216.603C225.435 216.603 219.367 201.089 221.676 189.978C222.535 185.844 225.045 179.847 228.578 173.802" stroke="#263238" stroke-miterlimit="10" stroke-linecap="round" stroke-linejoin="round"/>
<path d="M220.487 181.4C220.862 183.307 221.464 185.209 222.527 186.85" stroke="#263238" stroke-miterlimit="10" stroke-linecap="round" stroke-linejoin="round"/>
<path d="M219.934 173.412C219.852 175.055 219.901 176.708 220.051 178.346" stroke="#263238" stroke-miterlimit="10" stroke-linecap="round" stroke-linejoin="round"/>
<path d="M186.901 155.412C186.901 155.412 179.582 162.731 180.967 168.269" stroke="#263238" stroke-miterlimit="10" stroke-linecap="round" stroke-linejoin="round"/>
<path d="M182.086 156.892C183.645 155.994 185.132 154.962 186.46 153.746" stroke="#263238" stroke-miterlimit="10" stroke-linecap="round" stroke-linejoin="round"/>
<path d="M176.22 159.566C177.23 159.223 178.22 158.819 179.191 158.376" stroke="#263238" stroke-miterlimit="10" stroke-linecap="round" stroke-linejoin="round"/>
<path d="M152.728 114.27C152.728 114.27 163.363 112.094 167.715 103.342" stroke="#263238" stroke-miterlimit="10" stroke-linecap="round" stroke-linejoin="round"/>
<path d="M268.272 174.566C269.583 174.257 270.882 173.883 272.145 173.412" stroke="#263238" stroke-miterlimit="10" stroke-linecap="round" stroke-linejoin="round"/>
<path d="M249.802 152.054C247.097 156.347 245.299 162.144 247.048 167.104C249.698 174.62 258.236 176.162 265.203 175.151" stroke="#263238" stroke-miterlimit="10" stroke-linecap="round" stroke-linejoin="round"/>
<path d="M249.751 160.485C249.751 160.485 257.516 166.489 262.066 168.27" stroke="#263238" stroke-miterlimit="10" stroke-linecap="round" stroke-linejoin="round"/>
<path d="M304.734 196.274C304.734 196.274 281.535 197.328 272.398 196.383C266.527 195.776 264.656 198.693 256.635 200.227C253.617 200.804 247.31 210.125 247.31 210.125L248.336 222.337C248.336 222.337 255.34 227.383 256.235 225.962C257.13 224.541 253.786 221.264 253.786 221.264L259.961 222.258C259.961 222.258 260.364 219.825 258.066 218.016L261.652 213.971C261.652 213.971 266.259 215.368 271.313 210.903L305.969 212.234L304.734 196.274Z" fill="#BFBFBF"/>
<mask id="mask3_391_6432" style="mask-type:luminance" maskUnits="userSpaceOnUse" x="247" y="196" width="59" height="31">
<path d="M304.734 196.274C304.734 196.274 281.535 197.328 272.398 196.383C266.527 195.776 264.656 198.693 256.635 200.227C253.617 200.804 247.31 210.125 247.31 210.125L248.336 222.337C248.336 222.337 255.34 227.383 256.235 225.962C257.13 224.541 253.786 221.264 253.786 221.264L259.961 222.258C259.961 222.258 260.364 219.825 258.066 218.016L261.652 213.971C261.652 213.971 266.259 215.368 271.313 210.903L305.969 212.234L304.734 196.274Z" fill="white"/>
</mask>
<g mask="url(#mask3_391_6432)">
<path opacity="0.2" d="M305.973 212.235L271.313 210.905C266.263 215.365 261.653 213.975 261.653 213.975L258.063 218.015C260.363 219.825 259.963 222.255 259.963 222.255L253.783 221.265C253.783 221.265 257.133 224.545 256.233 225.965C255.343 227.385 248.333 222.335 248.333 222.335L247.313 210.125C247.313 210.125 249.563 206.795 252.023 203.995C258.583 207.985 275.613 204.955 275.613 204.955C275.723 202.005 277.473 198.875 278.943 196.725C289.573 196.965 304.733 196.275 304.733 196.275L305.973 212.235Z" fill="black"/>
</g>
<path d="M304.734 196.274C304.734 196.274 281.535 197.328 272.398 196.383C266.527 195.776 264.656 198.693 256.635 200.227C253.617 200.804 247.31 210.125 247.31 210.125L248.336 222.337C248.336 222.337 255.34 227.383 256.235 225.962C257.13 224.541 253.786 221.264 253.786 221.264L259.961 222.258C259.961 222.258 260.364 219.825 258.066 218.016L261.652 213.971C261.652 213.971 266.259 215.368 271.313 210.903L305.969 212.234L304.734 196.274Z" stroke="#263238" stroke-miterlimit="10" stroke-linecap="round" stroke-linejoin="round"/>
<path d="M261.652 213.973C261.652 213.973 257.903 213.675 256.234 209.032" stroke="#263238" stroke-miterlimit="10" stroke-linecap="round" stroke-linejoin="round"/>
<path d="M260.378 213.634C260.378 213.634 254.219 218.626 250.833 215.193" stroke="#263238" stroke-miterlimit="10" stroke-linecap="round" stroke-linejoin="round"/>
<path d="M253.395 216.379C253.395 216.379 254.366 219.715 253.786 221.266" stroke="#263238" stroke-miterlimit="10" stroke-linecap="round" stroke-linejoin="round"/>
<path d="M258.066 218.018C258.066 218.018 256.211 218.68 255.018 218.516" stroke="#263238" stroke-miterlimit="10" stroke-linecap="round" stroke-linejoin="round"/>
<path d="M383.833 213.205V427.535C383.833 428.965 382.673 430.125 381.233 430.125H57.2729C55.8328 430.125 54.6729 428.965 54.6729 427.535V213.205C54.6729 211.775 55.8328 210.615 57.2729 210.615H381.233C382.673 210.615 383.833 211.775 383.833 213.205Z" fill="white"/>
<mask id="mask4_391_6432" style="mask-type:luminance" maskUnits="userSpaceOnUse" x="54" y="210" width="330" height="221">
<path d="M383.833 213.205V427.535C383.833 428.965 382.673 430.125 381.233 430.125H57.2729C55.8328 430.125 54.6729 428.965 54.6729 427.535V213.205C54.6729 211.775 55.8328 210.615 57.2729 210.615H381.233C382.673 210.615 383.833 211.775 383.833 213.205Z" fill="white"/>
</mask>
<g mask="url(#mask4_391_6432)">
<path opacity="0.2" d="M383.833 213.205V222.835C374.773 225.995 361.473 228.425 350.713 227.905C336.263 227.205 282.243 215.025 263.053 210.615H381.233C382.673 210.615 383.833 211.775 383.833 213.205Z" fill="black"/>
</g>
<path d="M383.833 213.205V427.535C383.833 428.965 382.673 430.125 381.233 430.125H57.2729C55.8328 430.125 54.6729 428.965 54.6729 427.535V213.205C54.6729 211.775 55.8328 210.615 57.2729 210.615H381.233C382.673 210.615 383.833 211.775 383.833 213.205Z" stroke="#263238" stroke-miterlimit="10"/>
<path d="M80.3829 210.615V430.125H57.2729C55.8328 430.125 54.6729 428.965 54.6729 427.535V213.205C54.6729 211.775 55.8328 210.615 57.2729 210.615H80.3829Z" fill="#263238"/>
<path d="M67.5279 220.78L60.3169 224.837L67.5279 228.893L74.7389 224.837L67.5279 220.78Z" fill="#8D1B3D"/>
<path d="M67.5279 230.527L62.4699 227.682L60.3169 228.893L67.5279 232.95L74.7389 228.893L72.5859 227.682L67.5279 230.527Z" fill="#8D1B3D"/>
<path d="M67.5279 234.583L62.4699 231.738L60.3169 232.95L67.5279 237.007L74.7389 232.95L72.5849 231.738L67.5279 234.583Z" fill="#8D1B3D"/>
<path d="M146.449 251.69C146.449 259.317 143.27 266.207 138.164 271.099C135.992 273.184 133.478 274.905 130.703 276.165C127.309 277.719 123.528 278.583 119.547 278.583C118.461 278.583 117.39 278.519 116.336 278.393C109.208 277.545 102.944 273.913 98.6468 268.617C94.9048 263.995 92.6528 258.104 92.6528 251.689C92.6528 236.831 104.689 224.787 119.547 224.787C134.405 224.788 146.449 236.832 146.449 251.69Z" fill="#8D1B3D"/>
<mask id="mask5_391_6432" style="mask-type:luminance" maskUnits="userSpaceOnUse" x="92" y="224" width="55" height="55">
<path d="M146.449 251.69C146.449 259.317 143.27 266.207 138.164 271.099C135.992 273.184 133.478 274.905 130.703 276.165C127.309 277.719 123.528 278.583 119.547 278.583C118.461 278.583 117.39 278.519 116.336 278.393C109.208 277.545 102.944 273.913 98.6468 268.617C94.9048 263.995 92.6528 258.104 92.6528 251.689C92.6528 236.831 104.689 224.787 119.547 224.787C134.405 224.788 146.449 236.832 146.449 251.69Z" fill="white"/>
</mask>
<g mask="url(#mask5_391_6432)">
<path opacity="0.6" d="M146.449 251.69C146.449 259.317 143.27 266.207 138.164 271.099C135.992 273.184 133.478 274.905 130.703 276.165C127.309 277.719 123.528 278.583 119.547 278.583C118.461 278.583 117.39 278.519 116.336 278.393C109.208 277.545 102.944 273.913 98.6468 268.617C94.9048 263.995 92.6528 258.104 92.6528 251.689C92.6528 236.831 104.689 224.787 119.547 224.787C134.405 224.788 146.449 236.832 146.449 251.69Z" fill="white"/>
</g>
<path d="M146.449 251.69C146.449 259.317 143.27 266.207 138.164 271.099C135.992 273.184 133.478 274.905 130.703 276.165C127.309 277.719 123.528 278.583 119.547 278.583C118.461 278.583 117.39 278.519 116.336 278.393C109.208 277.545 102.944 273.913 98.6468 268.617C94.9048 263.995 92.6528 258.104 92.6528 251.689C92.6528 236.831 104.689 224.787 119.547 224.787C134.405 224.788 146.449 236.832 146.449 251.69Z" stroke="#263238" stroke-miterlimit="10" stroke-linecap="round" stroke-linejoin="round"/>
<path d="M130.703 276.166C127.309 277.72 123.528 278.584 119.547 278.584C118.461 278.584 117.39 278.52 116.336 278.394C110.413 274.136 105.03 267.175 105.03 267.175C106.108 267.516 107.417 267.77 108.844 267.952C109.756 268.071 110.723 268.158 111.714 268.222C114.671 268.42 117.827 268.389 120.451 268.222C122.108 268.119 123.559 267.968 124.606 267.786C126.58 267.437 127.825 267.976 128.578 268.634C129.403 269.34 129.656 270.188 129.656 270.188C129.656 270.188 131.242 273.153 130.703 276.166Z" fill="#BFBFBF" stroke="#263238" stroke-miterlimit="10" stroke-linecap="round" stroke-linejoin="round"/>
<path d="M107.52 232.625C107.52 232.625 108.718 228.537 111.696 229.416C114.674 230.295 114.268 230.173 115.914 229.292C117.56 228.412 118.571 229.165 119.132 230.42C119.694 231.675 120.831 231.367 122.584 230.768C124.337 230.169 125.874 230.94 125.796 232.625C125.718 234.31 127.977 232.556 129.232 234.438C130.487 236.319 129.734 236.194 129.985 237.7C130.236 239.206 132.872 240.085 132.37 241.465C131.868 242.845 129.86 245.23 131.742 246.234C133.625 247.238 134.253 250.38 132.433 251.319C130.613 252.258 133.949 255.082 132.746 257.655C131.651 259.998 128.604 260.542 129.985 262.926C130.589 263.968 130.4 264.795 129.997 265.395C129.671 265.881 128.911 265.676 128.876 265.092C128.858 264.785 128.781 264.468 128.603 264.181C127.978 263.177 127.115 264.181 126.103 262.299C126.103 262.299 126.753 264.432 124.604 265.186C123.483 265.579 123.286 266.245 123.355 266.792C123.408 267.222 122.896 267.492 122.583 267.194C122.239 266.866 121.975 266.326 122.079 265.437C122.079 265.437 118.563 268.323 116.054 267.696C113.545 267.068 110.282 266.19 110.156 264.307C110.156 264.307 109.506 265.142 109.416 266.152C109.368 266.689 108.712 266.901 108.372 266.483C107.938 265.949 107.569 265.259 107.52 264.432C107.52 264.432 107.213 265.416 106.296 265.92C105.748 266.221 105.125 265.687 105.266 265.078C105.382 264.578 105.333 264.023 104.759 263.679C103.504 262.926 102.626 261.545 103.379 259.788C103.379 259.788 101.492 261.043 102.122 262.926C102.393 263.735 102.245 264.313 101.93 264.698C101.642 265.049 101.083 264.719 101.262 264.302C101.426 263.921 101.454 263.451 101.12 262.926C100.242 261.545 97.9777 259.87 99.7347 257.925C101.492 255.98 100.241 254.768 100.241 254.768C100.241 254.768 100.492 256.023 98.3577 256.839C96.2237 257.655 97.5527 258.829 97.3247 259.687C97.2307 260.041 97.0627 260.311 96.8597 260.516C96.4867 260.893 95.8707 260.445 96.1267 259.98C96.3547 259.564 96.4657 259.093 96.2247 258.659C95.1487 256.721 97.9817 255.831 98.2687 254.138C98.5477 252.493 98.1457 250.536 97.9747 248.879C97.8267 247.441 97.7087 246.348 98.6167 245.111C99.2097 244.303 99.9547 243.564 100.237 242.602C100.452 241.871 100.373 241.09 100.303 240.331C100.233 239.572 100.177 238.785 100.434 238.067C100.956 236.606 102.688 236.85 103.456 235.622C104.173 234.475 103.557 232.939 104.939 232.161C105.791 231.682 106.84 231.966 107.52 232.625Z" fill="#263238"/>
<path d="M121.591 270.54C119.619 269.288 120.552 265.177 121.354 262.674C121.73 261.492 122.078 260.666 122.078 260.666L122.045 260.65L111.696 255.312C113.005 260.818 111.696 268.34 111.696 268.34" fill="#BFBFBF"/>
<path d="M121.591 270.54C119.619 269.288 120.552 265.177 121.354 262.674C121.73 261.492 122.078 260.666 122.078 260.666L122.045 260.65L111.696 255.312C113.005 260.818 111.696 268.34 111.696 268.34" stroke="#263238" stroke-miterlimit="10" stroke-linecap="round" stroke-linejoin="round"/>
<path d="M117.713 260.65C117.713 260.65 118.997 262.601 121.353 262.675C121.729 261.493 122.077 260.667 122.077 260.667L122.044 260.651L117.713 260.65Z" fill="#263238"/>
<path d="M112.965 258.458C109.766 256.446 107.08 253.39 106.402 248.997C105.163 240.964 105.243 233.624 119.046 234.51C125.092 234.898 127.434 240.855 127.385 242.728C127.274 247.068 130.738 254.705 126.45 261.047C125.813 261.989 121.643 262.023 117.254 260.497" fill="#BFBFBF"/>
<path d="M112.965 258.458C109.766 256.446 107.08 253.39 106.402 248.997C105.163 240.964 105.243 233.624 119.046 234.51C125.092 234.898 127.433 240.855 127.385 242.728C127.274 247.068 130.738 254.705 126.45 261.047C125.813 261.989 121.643 262.023 117.254 260.497" stroke="#263238" stroke-miterlimit="10" stroke-linecap="round" stroke-linejoin="round"/>
<path d="M120.312 243.943C120.312 243.943 118.139 243.145 116.887 246.347" stroke="#263238" stroke-miterlimit="10" stroke-linecap="round" stroke-linejoin="round"/>
<path d="M124.818 243.579C124.818 243.579 125.985 242.586 127.386 242.728" stroke="#263238" stroke-miterlimit="10" stroke-linecap="round" stroke-linejoin="round"/>
<path d="M124.53 248.24C125.661 250.09 127.034 249.172 126.972 250.09C126.92 250.855 125.155 252.196 125.155 252.196" stroke="#263238" stroke-miterlimit="10" stroke-linecap="round" stroke-linejoin="round"/>
<path d="M118.632 248.268C118.753 248.772 119.131 249.113 119.477 249.031C119.823 248.948 120.005 248.472 119.884 247.968C119.763 247.464 119.385 247.122 119.039 247.205C118.693 247.288 118.511 247.764 118.632 248.268Z" fill="#263238"/>
<path d="M125.286 247.028C125.367 247.54 125.718 247.91 126.069 247.854C126.42 247.798 126.639 247.338 126.557 246.826C126.475 246.314 126.125 245.944 125.774 246C125.423 246.056 125.204 246.516 125.286 247.028Z" fill="#263238"/>
<path d="M121.463 254.005C121.463 254.005 122.753 257.074 124.53 256.527C125.346 256.276 125.129 253.898 125.129 253.898" fill="white"/>
<path d="M121.463 254.005C121.463 254.005 122.753 257.074 124.53 256.527C125.346 256.276 125.129 253.898 125.129 253.898" stroke="#263238" stroke-miterlimit="10" stroke-linecap="round" stroke-linejoin="round"/>
<path d="M119.132 237.825C119.132 237.825 118.791 237.072 118.113 238.578C117.435 240.084 120.297 241.58 118.113 242.715C115.929 243.85 115.838 246.529 116.887 247.574C117.937 248.619 115.175 249.121 114.799 250.125C114.423 251.129 115.552 251.948 115.301 253.17C115.05 254.392 113.476 255.594 113.51 256.248C113.544 256.902 114.92 257.942 113.981 259.054C113.042 260.165 110.406 259.487 110.155 261.709C110.155 261.709 102.248 252.919 102.123 244.745C101.997 236.571 107.896 233.182 113.92 232.681C119.944 232.179 129.231 235.083 129.984 245.554C129.984 245.554 129.701 244.891 128.601 244.746C127.501 244.601 126.972 243.098 127.097 241.467C127.222 239.835 126.123 240.839 124.602 240.463C123.081 240.087 123.59 237.953 122.583 237.576C121.576 237.199 120.83 239.205 119.132 237.825Z" fill="#263238"/>
<path d="M124.604 234.306C124.667 235.31 127.742 234.431 129.31 235.31C130.879 236.189 130.502 237.695 130.377 238.573C130.251 239.452 131.673 240.581 132.845 241.271C134.017 241.961 134.017 243.368 132.511 244.704C131.005 246.04 132.289 246.417 133.686 247.609C135.084 248.801 135.037 250.258 133.686 251.123" stroke="#263238" stroke-miterlimit="10" stroke-linecap="round" stroke-linejoin="round"/>
<path d="M120.312 237.134C120.312 237.134 117.748 237.636 118.501 239.079C119.254 240.522 120.312 242.317 118.112 243.934C115.913 245.551 119.065 247.362 117.685 248.805C116.305 250.248 114.894 250.186 115.913 252.57C116.932 254.955 115.112 255.558 115.112 255.558" stroke="#263238" stroke-miterlimit="10" stroke-linecap="round" stroke-linejoin="round"/>
<path d="M125.661 253.739C125.661 253.739 123.146 254.392 121.2 253.955" stroke="#263238" stroke-miterlimit="10" stroke-linecap="round" stroke-linejoin="round"/>
<path d="M138.163 271.099C135.991 273.184 133.477 274.905 130.702 276.165C127.308 277.719 123.527 278.583 119.546 278.583C118.46 278.583 117.389 278.519 116.335 278.393C109.207 277.545 102.943 273.913 98.6455 268.617C98.8115 268.133 99.0255 267.8 99.2875 267.634C102.198 265.787 107.723 267.19 107.723 267.19C107.723 267.19 108.136 267.475 108.842 267.951C112.449 270.338 123.748 277.41 127.284 274.746C130.099 272.629 129.377 270.092 128.576 268.633C128.18 267.904 127.767 267.444 127.767 267.444C127.767 267.444 132.558 265.502 138.163 271.099Z" fill="#8D1B3D" stroke="#263238" stroke-miterlimit="10" stroke-linecap="round" stroke-linejoin="round"/>
<path d="M149.46 275.848C153.107 272.201 153.107 266.288 149.46 262.641C145.813 258.994 139.9 258.994 136.253 262.641C132.605 266.288 132.605 272.201 136.253 275.848C139.9 279.495 145.813 279.495 149.46 275.848Z" fill="#263238"/>
<path d="M144.277 274.159H141.441C139.51 274.159 137.945 272.594 137.945 270.663V267.827C137.945 265.896 139.51 264.331 141.441 264.331H144.277C146.208 264.331 147.773 265.896 147.773 267.827V270.663C147.773 272.593 146.208 274.159 144.277 274.159Z" stroke="white" stroke-miterlimit="10"/>
<path d="M144.663 269.245C144.663 270.241 143.855 271.049 142.86 271.049C141.864 271.049 141.056 270.242 141.056 269.245C141.056 268.249 141.863 267.442 142.86 267.442C143.855 267.441 144.663 268.248 144.663 269.245Z" stroke="white" stroke-miterlimit="10"/>
<path d="M146.14 266.847C146.14 267.175 145.874 267.441 145.546 267.441C145.218 267.441 144.952 267.175 144.952 266.847C144.952 266.519 145.218 266.253 145.546 266.253C145.874 266.254 146.14 266.519 146.14 266.847Z" fill="white"/>
<path d="M191.015 248.097H157.051C155.069 248.097 153.462 249.704 153.462 251.686C153.462 253.668 155.069 255.275 157.051 255.275H191.015C192.997 255.275 194.604 253.668 194.604 251.686C194.604 249.704 192.998 248.097 191.015 248.097Z" fill="#263238"/>
<path opacity="0.6" d="M240.386 222.721H215.86C214.429 222.721 213.268 223.881 213.268 225.313C213.268 226.744 214.428 227.905 215.86 227.905H240.386C241.817 227.905 242.978 226.745 242.978 225.313C242.978 223.882 241.818 222.721 240.386 222.721Z" fill="#263238"/>
<path d="M203.879 216.379V424.497" stroke="#263238" stroke-miterlimit="10"/>
<path d="M108.312 325.588C115.122 325.588 120.642 320.068 120.642 313.258C120.642 306.449 115.122 300.928 108.312 300.928C101.502 300.928 95.9819 306.449 95.9819 313.258C95.9819 320.068 101.502 325.588 108.312 325.588Z" fill="#BFBFBF" stroke="#263238" stroke-miterlimit="10"/>
<path d="M124.993 321.237C124.993 323.64 123.045 325.589 120.641 325.589C118.238 325.589 116.289 323.641 116.289 321.237C116.289 318.834 118.237 316.885 120.641 316.885C123.045 316.885 124.993 318.833 124.993 321.237Z" fill="#8D1B3D" stroke="#263238" stroke-miterlimit="10" stroke-linecap="round" stroke-linejoin="round"/>
<path d="M108.312 366.07C115.122 366.07 120.642 360.55 120.642 353.74C120.642 346.931 115.122 341.41 108.312 341.41C101.502 341.41 95.9819 346.931 95.9819 353.74C95.9819 360.55 101.502 366.07 108.312 366.07Z" fill="#BFBFBF" stroke="#263238" stroke-miterlimit="10"/>
<path d="M124.993 361.719C124.993 364.122 123.045 366.071 120.641 366.071C118.238 366.071 116.289 364.123 116.289 361.719C116.289 359.316 118.237 357.367 120.641 357.367C123.045 357.367 124.993 359.315 124.993 361.719Z" fill="#8D1B3D" stroke="#263238" stroke-miterlimit="10" stroke-linecap="round" stroke-linejoin="round"/>
<path d="M117.027 402.939C121.842 398.124 121.842 390.318 117.027 385.502C112.212 380.687 104.405 380.687 99.5896 385.502C94.7745 390.318 94.7745 398.124 99.5896 402.94C104.405 407.755 112.212 407.755 117.027 402.939Z" fill="#BFBFBF" stroke="#263238" stroke-miterlimit="10"/>
<path d="M124.993 402.201C124.993 404.604 123.045 406.553 120.641 406.553C118.238 406.553 116.289 404.605 116.289 402.201C116.289 399.798 118.237 397.849 120.641 397.849C123.045 397.849 124.993 399.798 124.993 402.201Z" fill="#8D1B3D" stroke="#263238" stroke-miterlimit="10" stroke-linecap="round" stroke-linejoin="round"/>
<g opacity="0.3">
<path opacity="0.4" d="M376.132 236.126H216.308V283.767H376.132V236.126Z" fill="black"/>
<path opacity="0.4" d="M376.132 362.126H216.308V409.767H376.132V362.126Z" fill="black"/>
<path opacity="0.4" d="M376.132 288.126H216.308V335.767H376.132V288.126Z" fill="black"/>
</g>
<path d="M373.132 234.126H213.308V281.767H373.132V234.126Z" fill="#8D1B3D"/>
<mask id="mask6_391_6432" style="mask-type:luminance" maskUnits="userSpaceOnUse" x="213" y="234" width="161" height="48">
<path d="M373.132 234.126H213.308V281.767H373.132V234.126Z" fill="white"/>
</mask>
<g mask="url(#mask6_391_6432)">
<path opacity="0.6" d="M373.132 234.126H213.308V281.767H373.132V234.126Z" fill="white"/>
</g>
<path d="M373.132 234.126H213.308V281.767H373.132V234.126Z" stroke="#263238" stroke-miterlimit="10"/>
<path d="M260.833 238.925H218.843V270.965H260.833V238.925Z" fill="#263238"/>
<path opacity="0.3" d="M260.833 263.205V270.965H218.843V263.745L232.113 253.915L245.763 263.745L253.473 258.825L260.833 263.205Z" fill="white"/>
<path opacity="0.3" d="M250.255 248.008C250.255 250.342 248.363 252.234 246.029 252.234C243.695 252.234 241.803 250.342 241.803 248.008C241.803 245.674 243.695 243.782 246.029 243.782C248.363 243.782 250.255 245.674 250.255 248.008Z" fill="white"/>
<path opacity="0.4" d="M236.723 273.981H220.175C219.209 273.981 218.426 274.764 218.426 275.73C218.426 276.696 219.209 277.479 220.175 277.479H236.723C237.689 277.479 238.472 276.696 238.472 275.73C238.472 274.764 237.689 273.981 236.723 273.981Z" fill="#263238"/>
<path opacity="0.4" d="M365.547 240.033H268.999C268.033 240.033 267.25 240.816 267.25 241.782C267.25 242.748 268.033 243.531 268.999 243.531H365.547C366.513 243.531 367.296 242.748 367.296 241.782C367.296 240.816 366.513 240.033 365.547 240.033Z" fill="#263238"/>
<path opacity="0.4" d="M365.547 250.033H268.999C268.033 250.033 267.25 250.816 267.25 251.782C267.25 252.748 268.033 253.531 268.999 253.531H365.547C366.513 253.531 367.296 252.748 367.296 251.782C367.296 250.816 366.513 250.033 365.547 250.033Z" fill="#263238"/>
<path opacity="0.4" d="M345.547 260.033H268.999C268.033 260.033 267.25 260.816 267.25 261.782C267.25 262.748 268.033 263.531 268.999 263.531H345.547C346.513 263.531 347.296 262.748 347.296 261.782C347.296 260.816 346.513 260.033 345.547 260.033Z" fill="#263238"/>
<path opacity="0.6" d="M240.386 348.721H215.86C214.429 348.721 213.268 349.881 213.268 351.313C213.268 352.744 214.428 353.905 215.86 353.905H240.386C241.817 353.905 242.978 352.745 242.978 351.313C242.978 349.882 241.818 348.721 240.386 348.721Z" fill="#263238"/>
<path d="M373.132 360.126H213.308V407.767H373.132V360.126Z" fill="#8D1B3D"/>
<mask id="mask7_391_6432" style="mask-type:luminance" maskUnits="userSpaceOnUse" x="213" y="360" width="161" height="48">
<path d="M373.132 360.126H213.308V407.767H373.132V360.126Z" fill="white"/>
</mask>
<g mask="url(#mask7_391_6432)">
<path opacity="0.6" d="M373.132 360.126H213.308V407.767H373.132V360.126Z" fill="white"/>
</g>
<path d="M373.132 360.126H213.308V407.767H373.132V360.126Z" stroke="#263238" stroke-miterlimit="10"/>
<path d="M260.833 364.925H218.843V396.965H260.833V364.925Z" fill="#263238"/>
<path opacity="0.3" d="M260.833 389.205V396.965H218.843V389.745L232.113 379.915L245.763 389.745L253.473 384.825L260.833 389.205Z" fill="white"/>
<path opacity="0.3" d="M250.255 374.008C250.255 376.342 248.363 378.234 246.029 378.234C243.695 378.234 241.803 376.342 241.803 374.008C241.803 371.674 243.695 369.782 246.029 369.782C248.363 369.782 250.255 371.674 250.255 374.008Z" fill="white"/>
<path opacity="0.4" d="M236.723 399.981H220.175C219.209 399.981 218.426 400.764 218.426 401.73C218.426 402.696 219.209 403.479 220.175 403.479H236.723C237.689 403.479 238.472 402.696 238.472 401.73C238.472 400.764 237.689 399.981 236.723 399.981Z" fill="#263238"/>
<path opacity="0.4" d="M365.547 366.033H268.999C268.033 366.033 267.25 366.816 267.25 367.782C267.25 368.748 268.033 369.531 268.999 369.531H365.547C366.513 369.531 367.296 368.748 367.296 367.782C367.296 366.816 366.513 366.033 365.547 366.033Z" fill="#263238"/>
<path opacity="0.4" d="M365.547 376.033H268.999C268.033 376.033 267.25 376.816 267.25 377.782C267.25 378.748 268.033 379.531 268.999 379.531H365.547C366.513 379.531 367.296 378.748 367.296 377.782C367.296 376.816 366.513 376.033 365.547 376.033Z" fill="#263238"/>
<path opacity="0.4" d="M345.547 386.033H268.999C268.033 386.033 267.25 386.816 267.25 387.782C267.25 388.748 268.033 389.531 268.999 389.531H345.547C346.513 389.531 347.296 388.748 347.296 387.782C347.296 386.816 346.513 386.033 345.547 386.033Z" fill="#263238"/>
<path d="M373.132 286.126H213.308V333.767H373.132V286.126Z" fill="#8D1B3D"/>
<mask id="mask8_391_6432" style="mask-type:luminance" maskUnits="userSpaceOnUse" x="213" y="286" width="161" height="48">
<path d="M373.132 286.126H213.308V333.767H373.132V286.126Z" fill="white"/>
</mask>
<g mask="url(#mask8_391_6432)">
<path opacity="0.6" d="M373.132 286.126H213.308V333.767H373.132V286.126Z" fill="white"/>
</g>
<path d="M373.132 286.126H213.308V333.767H373.132V286.126Z" stroke="#263238" stroke-miterlimit="10"/>
<path d="M260.833 290.925H218.843V322.965H260.833V290.925Z" fill="#263238"/>
<path opacity="0.3" d="M260.833 315.205V322.965H218.843V315.745L232.113 305.915L245.763 315.745L253.473 310.825L260.833 315.205Z" fill="white"/>
<path opacity="0.3" d="M250.255 300.008C250.255 302.342 248.363 304.234 246.029 304.234C243.695 304.234 241.803 302.342 241.803 300.008C241.803 297.674 243.695 295.782 246.029 295.782C248.363 295.782 250.255 297.674 250.255 300.008Z" fill="white"/>
<path opacity="0.4" d="M236.723 325.981H220.175C219.209 325.981 218.426 326.764 218.426 327.73C218.426 328.696 219.209 329.479 220.175 329.479H236.723C237.689 329.479 238.472 328.696 238.472 327.73C238.472 326.764 237.689 325.981 236.723 325.981Z" fill="#263238"/>
<path opacity="0.4" d="M365.547 292.033H268.999C268.033 292.033 267.25 292.816 267.25 293.782C267.25 294.748 268.033 295.531 268.999 295.531H365.547C366.513 295.531 367.296 294.748 367.296 293.782C367.296 292.816 366.513 292.033 365.547 292.033Z" fill="#263238"/>
<path opacity="0.4" d="M365.547 302.033H268.999C268.033 302.033 267.25 302.816 267.25 303.782C267.25 304.748 268.033 305.531 268.999 305.531H365.547C366.513 305.531 367.296 304.748 367.296 303.782C367.296 302.816 366.513 302.033 365.547 302.033Z" fill="#263238"/>
<path opacity="0.4" d="M345.547 312.033H268.999C268.033 312.033 267.25 312.816 267.25 313.782C267.25 314.748 268.033 315.531 268.999 315.531H345.547C346.513 315.531 347.296 314.748 347.296 313.782C347.296 312.816 346.513 312.033 345.547 312.033Z" fill="#263238"/>
<path opacity="0.4" d="M180.329 311.51H132.781C131.815 311.51 131.032 312.293 131.032 313.259C131.032 314.225 131.815 315.008 132.781 315.008H180.329C181.295 315.008 182.078 314.225 182.078 313.259C182.078 312.293 181.295 311.51 180.329 311.51Z" fill="#263238"/>
<path opacity="0.4" d="M180.329 392.474H132.781C131.815 392.474 131.032 393.257 131.032 394.223C131.032 395.189 131.815 395.972 132.781 395.972H180.329C181.295 395.972 182.078 395.189 182.078 394.223C182.078 393.257 181.295 392.474 180.329 392.474Z" fill="#263238"/>
<path opacity="0.4" d="M180.329 351.992H132.781C131.815 351.992 131.032 352.775 131.032 353.741C131.032 354.707 131.815 355.49 132.781 355.49H180.329C181.295 355.49 182.078 354.707 182.078 353.741C182.078 352.775 181.295 351.992 180.329 351.992Z" fill="#263238"/>
<path d="M320.099 152.054C334.329 156.731 368.918 175.193 374.832 183.105C380.746 191.017 376.527 207.472 363.34 211.64C350.153 215.808 288.439 211.64 288.439 211.64C288.439 211.64 283.472 214.869 281.999 213.492C280.526 212.115 279.957 189.452 285.184 189.632C289.391 189.777 291.064 191.801 291.064 191.801L317.978 186.706C317.978 186.706 308.945 176.116 308.945 165.284" fill="#8D1B3D"/>
<mask id="mask9_391_6432" style="mask-type:luminance" maskUnits="userSpaceOnUse" x="280" y="152" width="98" height="62">
<path d="M320.099 152.054C334.329 156.731 368.918 175.193 374.832 183.105C380.746 191.017 376.527 207.472 363.34 211.64C350.153 215.808 288.439 211.64 288.439 211.64C288.439 211.64 283.472 214.869 281.999 213.492C280.526 212.115 279.957 189.452 285.184 189.632C289.391 189.777 291.064 191.801 291.064 191.801L317.978 186.706C317.978 186.706 308.945 176.116 308.945 165.284" fill="white"/>
</mask>
<g mask="url(#mask9_391_6432)">
<path opacity="0.2" d="M363.343 211.645C350.153 215.805 288.443 211.645 288.443 211.645C288.443 211.645 283.473 214.865 282.003 213.495C281.163 212.715 280.623 205.115 281.263 198.695C282.043 202.025 283.033 205.765 283.723 206.865C285.043 208.975 290.043 206.865 290.043 206.865C289.233 199.745 291.053 193.635 291.053 193.635L296.223 204.755C296.223 204.755 345.703 207.655 363.903 200.005C371.473 196.825 374.713 190.795 375.903 184.845C380.123 193.215 375.623 207.765 363.343 211.645Z" fill="black"/>
</g>
<mask id="mask10_391_6432" style="mask-type:luminance" maskUnits="userSpaceOnUse" x="280" y="152" width="98" height="62">
<path d="M320.099 152.054C334.329 156.731 368.918 175.193 374.832 183.105C380.746 191.017 376.527 207.472 363.34 211.64C350.153 215.808 288.439 211.64 288.439 211.64C288.439 211.64 283.472 214.869 281.999 213.492C280.526 212.115 279.957 189.452 285.184 189.632C289.391 189.777 291.064 191.801 291.064 191.801L317.978 186.706C317.978 186.706 308.945 176.116 308.945 165.284" fill="white"/>
</mask>
<g mask="url(#mask10_391_6432)">
<path opacity="0.2" d="M332.723 183.675L317.953 186.675C317.763 186.435 316.443 184.845 314.883 182.395V182.385C315.053 178.455 315.603 173.265 317.273 171.255C320.123 167.835 319.593 176.785 322.233 181.805C322.233 181.805 332.383 173.605 336.403 175.465C340.433 177.325 335.223 177.715 332.723 183.675Z" fill="black"/>
</g>
<path d="M320.099 152.054C334.329 156.731 368.918 175.193 374.832 183.105C380.746 191.017 376.527 207.472 363.34 211.64C350.153 215.808 288.439 211.64 288.439 211.64C288.439 211.64 283.472 214.869 281.999 213.492C280.526 212.115 279.957 189.452 285.184 189.632C289.391 189.777 291.064 191.801 291.064 191.801L317.978 186.706C317.978 186.706 308.945 176.116 308.945 165.284" stroke="#263238" stroke-miterlimit="10" stroke-linecap="round" stroke-linejoin="round"/>
<path d="M351.756 187.115C353.11 188.185 354.296 189.552 354.836 191.215" stroke="#263238" stroke-miterlimit="10" stroke-linecap="round" stroke-linejoin="round"/>
<path d="M317.978 186.706C328.446 185.003 338.564 180 348.738 185.194" stroke="#263238" stroke-miterlimit="10" stroke-linecap="round" stroke-linejoin="round"/>
<path d="M351.304 180.496C352.285 180.759 353.268 181.143 354.044 181.809" stroke="#263238" stroke-miterlimit="10" stroke-linecap="round" stroke-linejoin="round"/>
<path d="M332.241 183.575C335.757 179.172 342.888 179.4 347.911 179.891" stroke="#263238" stroke-miterlimit="10" stroke-linecap="round" stroke-linejoin="round"/>
<path d="M292.071 191.61C292.071 191.61 289.133 195.962 290.32 201.302" stroke="#263238" stroke-miterlimit="10" stroke-linecap="round" stroke-linejoin="round"/>
<path d="M310.945 181.051C312.205 181.997 313.654 182.724 315.227 182.945" stroke="#263238" stroke-miterlimit="10" stroke-linecap="round" stroke-linejoin="round"/>
<path d="M305.978 175.463C306.708 176.652 307.561 177.768 308.498 178.801" stroke="#263238" stroke-miterlimit="10" stroke-linecap="round" stroke-linejoin="round"/>
</svg>
